<?xml version="1.0" encoding="UTF-8"?>
<svg xmlns="http://www.w3.org/2000/svg" xmlns:xlink="http://www.w3.org/1999/xlink" viewBox="2378.3925 0 2378.3925 1681.72" width="2378.3925" height="1681.72">
<path xmlns="http://www.w3.org/2000/svg" fill-rule="nonzero" fill="rgb(10.572815%, 9.655762%, 10.258484%)" fill-opacity="1" d="M 2454.199219 1496.269531 C 2446.753906 1496.269531 2440.699219 1502.324219 2440.699219 1509.769531 C 2440.699219 1517.210938 2446.753906 1523.269531 2454.199219 1523.269531 C 2461.644531 1523.269531 2467.699219 1517.210938 2467.699219 1509.769531 C 2467.699219 1502.324219 2461.644531 1496.269531 2454.199219 1496.269531 M 2454.199219 1500.769531 C 2459.171875 1500.769531 2463.199219 1504.796875 2463.199219 1509.769531 C 2463.199219 1514.738281 2459.171875 1518.769531 2454.199219 1518.769531 C 2449.230469 1518.769531 2445.199219 1514.738281 2445.199219 1509.769531 C 2445.199219 1504.796875 2449.230469 1500.769531 2454.199219 1500.769531 "/>
<path xmlns="http://www.w3.org/2000/svg" fill-rule="nonzero" fill="rgb(10.572815%, 9.655762%, 10.258484%)" fill-opacity="1" d="M 3219.566406 1552.121094 C 3216.578125 1552.121094 3214.144531 1554.554688 3214.144531 1557.546875 L 3214.144531 1572.816406 C 3214.144531 1575.808594 3216.578125 1578.242188 3219.566406 1578.242188 C 3220.261719 1578.242188 3220.941406 1578.109375 3221.585938 1577.851562 L 3240.671875 1570.21875 C 3242.742188 1569.386719 3244.082031 1567.410156 3244.082031 1565.179688 C 3244.082031 1562.949219 3242.742188 1560.972656 3240.671875 1560.144531 L 3221.582031 1552.507812 C 3220.9375 1552.25 3220.261719 1552.121094 3219.566406 1552.121094 M 3219.566406 1556.621094 C 3219.679688 1556.621094 3219.796875 1556.640625 3219.910156 1556.6875 L 3239 1564.324219 C 3239.773438 1564.632812 3239.773438 1565.730469 3239 1566.039062 L 3219.910156 1573.671875 C 3219.796875 1573.71875 3219.679688 1573.742188 3219.566406 1573.742188 C 3219.078125 1573.742188 3218.644531 1573.347656 3218.644531 1572.816406 L 3218.644531 1557.546875 C 3218.644531 1557.015625 3219.078125 1556.621094 3219.566406 1556.621094 "/>
<path xmlns="http://www.w3.org/2000/svg" fill-rule="nonzero" fill="rgb(10.572815%, 9.655762%, 10.258484%)" fill-opacity="1" d="M 3534.183594 1581.769531 C 3531.195312 1581.769531 3528.761719 1584.203125 3528.761719 1587.191406 L 3528.761719 1602.464844 C 3528.761719 1605.453125 3531.195312 1607.886719 3534.183594 1607.886719 C 3534.878906 1607.886719 3535.554688 1607.757812 3536.203125 1607.5 L 3555.289062 1599.863281 C 3557.359375 1599.035156 3558.699219 1597.058594 3558.699219 1594.828125 C 3558.699219 1592.597656 3557.359375 1590.621094 3555.289062 1589.792969 L 3536.199219 1582.15625 C 3535.554688 1581.898438 3534.878906 1581.769531 3534.183594 1581.769531 M 3534.183594 1586.269531 C 3534.296875 1586.269531 3534.414062 1586.289062 3534.53125 1586.335938 L 3553.617188 1593.96875 C 3554.390625 1594.28125 3554.390625 1595.375 3553.617188 1595.6875 L 3534.53125 1603.320312 C 3534.414062 1603.367188 3534.296875 1603.386719 3534.183594 1603.386719 C 3533.695312 1603.386719 3533.261719 1602.996094 3533.261719 1602.464844 L 3533.261719 1587.191406 C 3533.261719 1586.664062 3533.695312 1586.269531 3534.183594 1586.269531 "/>
<path xmlns="http://www.w3.org/2000/svg" fill-rule="nonzero" fill="rgb(10.572815%, 9.655762%, 10.258484%)" fill-opacity="1" d="M 3534.183594 1555.75 C 3531.195312 1555.75 3528.761719 1558.183594 3528.761719 1561.171875 L 3528.761719 1576.441406 C 3528.761719 1579.433594 3531.195312 1581.867188 3534.183594 1581.867188 C 3534.878906 1581.867188 3535.554688 1581.738281 3536.203125 1581.476562 L 3555.289062 1573.84375 C 3557.359375 1573.015625 3558.695312 1571.039062 3558.699219 1568.808594 C 3558.699219 1566.578125 3557.359375 1564.601562 3555.289062 1563.773438 L 3536.199219 1556.136719 C 3535.554688 1555.878906 3534.878906 1555.75 3534.183594 1555.75 M 3534.183594 1560.25 C 3534.296875 1560.25 3534.414062 1560.269531 3534.53125 1560.316406 L 3553.617188 1567.949219 C 3554.390625 1568.261719 3554.390625 1569.355469 3553.617188 1569.667969 L 3534.53125 1577.300781 C 3534.414062 1577.347656 3534.296875 1577.367188 3534.183594 1577.367188 C 3533.695312 1577.367188 3533.261719 1576.972656 3533.261719 1576.441406 L 3533.261719 1561.171875 C 3533.261719 1560.644531 3533.695312 1560.25 3534.183594 1560.25 "/>
<path xmlns="http://www.w3.org/2000/svg" fill-rule="nonzero" fill="rgb(10.572815%, 9.655762%, 10.258484%)" fill-opacity="1" d="M 3534.183594 1606.636719 C 3531.195312 1606.636719 3528.761719 1609.070312 3528.761719 1612.0625 L 3528.761719 1627.332031 C 3528.761719 1630.324219 3531.195312 1632.757812 3534.183594 1632.757812 C 3534.878906 1632.757812 3535.554688 1632.625 3536.203125 1632.367188 L 3555.289062 1624.734375 C 3557.359375 1623.90625 3558.699219 1621.929688 3558.699219 1619.699219 C 3558.699219 1617.464844 3557.359375 1615.488281 3555.285156 1614.660156 L 3536.199219 1607.027344 C 3535.554688 1606.769531 3534.878906 1606.636719 3534.183594 1606.636719 M 3534.183594 1611.136719 C 3534.296875 1611.136719 3534.414062 1611.160156 3534.53125 1611.203125 L 3553.617188 1618.839844 C 3554.390625 1619.148438 3554.390625 1620.246094 3553.617188 1620.554688 L 3534.53125 1628.191406 C 3534.414062 1628.234375 3534.296875 1628.257812 3534.183594 1628.257812 C 3533.695312 1628.257812 3533.261719 1627.863281 3533.261719 1627.332031 L 3533.261719 1612.0625 C 3533.261719 1611.53125 3533.695312 1611.136719 3534.183594 1611.136719 "/>
<path xmlns="http://www.w3.org/2000/svg" fill-rule="nonzero" fill="rgb(10.572815%, 9.655762%, 10.258484%)" fill-opacity="1" d="M 3534.183594 1607.636719 C 3531.195312 1607.636719 3528.761719 1610.070312 3528.761719 1613.0625 L 3528.761719 1628.332031 C 3528.761719 1631.324219 3531.195312 1633.757812 3534.183594 1633.757812 C 3534.878906 1633.757812 3535.554688 1633.625 3536.203125 1633.367188 L 3555.289062 1625.734375 C 3557.359375 1624.90625 3558.695312 1622.929688 3558.699219 1620.699219 C 3558.699219 1618.46875 3557.359375 1616.492188 3555.289062 1615.660156 L 3536.199219 1608.027344 C 3535.554688 1607.769531 3534.878906 1607.636719 3534.183594 1607.636719 M 3534.183594 1612.136719 C 3534.296875 1612.136719 3534.414062 1612.160156 3534.53125 1612.203125 L 3553.617188 1619.839844 C 3554.390625 1620.148438 3554.390625 1621.246094 3553.617188 1621.554688 L 3534.53125 1629.191406 C 3534.414062 1629.234375 3534.296875 1629.257812 3534.183594 1629.257812 C 3533.695312 1629.257812 3533.261719 1628.863281 3533.261719 1628.332031 L 3533.261719 1613.0625 C 3533.261719 1612.53125 3533.695312 1612.136719 3534.183594 1612.136719 "/>
<path xmlns="http://www.w3.org/2000/svg" fill-rule="nonzero" fill="rgb(10.572815%, 9.655762%, 10.258484%)" fill-opacity="1" d="M 2666.625 1366.648438 C 2663.632812 1366.648438 2661.199219 1369.082031 2661.199219 1372.074219 L 2661.199219 1387.34375 C 2661.199219 1390.335938 2663.632812 1392.769531 2666.625 1392.769531 C 2667.316406 1392.769531 2667.992188 1392.636719 2668.636719 1392.378906 L 2687.726562 1384.746094 C 2689.796875 1383.914062 2691.136719 1381.9375 2691.136719 1379.707031 C 2691.132812 1377.476562 2689.796875 1375.5 2687.726562 1374.671875 L 2668.640625 1367.035156 C 2667.996094 1366.777344 2667.316406 1366.648438 2666.625 1366.648438 M 2666.625 1371.148438 C 2666.734375 1371.148438 2666.851562 1371.167969 2666.96875 1371.214844 L 2686.054688 1378.851562 C 2686.828125 1379.160156 2686.828125 1380.257812 2686.054688 1380.566406 L 2666.96875 1388.199219 C 2666.851562 1388.246094 2666.738281 1388.269531 2666.625 1388.269531 C 2666.136719 1388.269531 2665.699219 1387.875 2665.699219 1387.34375 L 2665.699219 1372.074219 C 2665.699219 1371.542969 2666.136719 1371.148438 2666.625 1371.148438 "/>
<path xmlns="http://www.w3.org/2000/svg" fill-rule="nonzero" fill="rgb(10.572815%, 9.655762%, 10.258484%)" fill-opacity="1" d="M 2476.699219 1494.800781 C 2474.46875 1494.800781 2472.492188 1496.136719 2471.664062 1498.210938 L 2464.027344 1517.296875 C 2463.359375 1518.972656 2463.5625 1520.863281 2464.574219 1522.351562 C 2465.585938 1523.84375 2467.261719 1524.738281 2469.066406 1524.738281 L 2484.335938 1524.738281 C 2486.136719 1524.738281 2487.816406 1523.84375 2488.828125 1522.351562 C 2489.835938 1520.859375 2490.039062 1518.96875 2489.371094 1517.296875 L 2481.738281 1498.210938 C 2480.90625 1496.136719 2478.929688 1494.800781 2476.699219 1494.800781 M 2476.699219 1499.300781 C 2477.050781 1499.300781 2477.402344 1499.496094 2477.558594 1499.882812 L 2485.191406 1518.96875 C 2485.4375 1519.574219 2484.988281 1520.238281 2484.335938 1520.238281 L 2469.066406 1520.238281 C 2468.410156 1520.238281 2467.964844 1519.574219 2468.207031 1518.96875 L 2475.84375 1499.882812 C 2475.996094 1499.496094 2476.347656 1499.300781 2476.699219 1499.300781 "/>
<path xmlns="http://www.w3.org/2000/svg" fill-rule="nonzero" fill="rgb(10.572815%, 9.655762%, 10.258484%)" fill-opacity="1" d="M 2960.6875 1366.648438 C 2957.695312 1366.648438 2955.265625 1369.082031 2955.265625 1372.074219 L 2955.265625 1387.34375 C 2955.265625 1390.335938 2957.699219 1392.769531 2960.6875 1392.769531 C 2961.378906 1392.769531 2962.058594 1392.636719 2962.703125 1392.378906 L 2981.789062 1384.746094 C 2983.863281 1383.917969 2985.199219 1381.9375 2985.199219 1379.707031 C 2985.199219 1377.476562 2983.859375 1375.5 2981.789062 1374.671875 L 2962.703125 1367.035156 C 2962.058594 1366.777344 2961.378906 1366.648438 2960.6875 1366.648438 M 2960.6875 1371.148438 C 2960.800781 1371.148438 2960.917969 1371.167969 2961.03125 1371.214844 L 2980.117188 1378.851562 C 2980.894531 1379.160156 2980.894531 1380.257812 2980.117188 1380.566406 L 2961.03125 1388.199219 C 2960.917969 1388.246094 2960.800781 1388.269531 2960.6875 1388.269531 C 2960.199219 1388.269531 2959.765625 1387.875 2959.765625 1387.34375 L 2959.765625 1372.074219 C 2959.765625 1371.542969 2960.199219 1371.148438 2960.6875 1371.148438 "/>
</svg>
