<?xml version="1.0" encoding="UTF-8"?>
<svg xmlns="http://www.w3.org/2000/svg" xmlns:xlink="http://www.w3.org/1999/xlink" viewBox="7135.1775 5045.16 2378.3925 1681.72" width="2378.3925" height="1681.72">
<path xmlns="http://www.w3.org/2000/svg" fill-rule="nonzero" fill="rgb(78.900146%, 91.56189%, 65.628052%)" fill-opacity="1" d="M 7305.867188 5480.5625 L 6914.148438 5480.5625 C 6901.78125 5480.5625 6891.757812 5490.589844 6891.757812 5502.957031 L 6891.757812 5683.171875 C 6891.757812 5695.539062 6901.78125 5705.5625 6914.148438 5705.5625 L 7305.867188 5705.5625 C 7318.234375 5705.5625 7328.257812 5695.539062 7328.257812 5683.171875 L 7328.257812 5502.957031 C 7328.257812 5490.589844 7318.234375 5480.5625 7305.867188 5480.5625 "/>
<path xmlns="http://www.w3.org/2000/svg" fill-rule="nonzero" fill="rgb(61.990356%, 77.619934%, 91.73584%)" fill-opacity="1" d="M 7218.996094 5638.089844 L 6998.757812 5638.089844 C 6994.355469 5638.089844 6990.757812 5634.492188 6990.757812 5630.089844 L 6990.757812 5548.28125 C 6990.757812 5543.882812 6994.355469 5540.28125 6998.757812 5540.28125 L 7218.996094 5540.28125 C 7223.394531 5540.28125 7226.996094 5543.882812 7226.996094 5548.28125 L 7226.996094 5630.089844 C 7226.996094 5634.492188 7223.394531 5638.089844 7218.996094 5638.089844 "/>
<path xmlns="http://www.w3.org/2000/svg" fill-rule="nonzero" fill="rgb(78.900146%, 91.56189%, 65.628052%)" fill-opacity="1" d="M 7114.746094 5595.800781 C 7114.382812 5595.503906 7114.320312 5594.949219 7114.246094 5594.300781 C 7114.210938 5593.992188 7114.25 5593.59375 7114.328125 5592.800781 C 7114.394531 5592.132812 7114.445312 5591.957031 7114.578125 5591.800781 C 7114.863281 5591.464844 7115.15625 5591.628906 7115.496094 5591.382812 C 7116.09375 5590.949219 7115.769531 5590.101562 7116.246094 5588.550781 C 7116.539062 5587.59375 7116.71875 5587.761719 7116.863281 5587.042969 C 7117.140625 5585.675781 7116.445312 5585.242188 7116.828125 5584.382812 C 7117.132812 5583.707031 7117.621094 5583.855469 7118.328125 5582.800781 C 7118.390625 5582.707031 7118.707031 5582.234375 7118.929688 5581.578125 C 7119.25 5580.628906 7119.132812 5580.046875 7119.160156 5579.050781 C 7119.207031 5577.574219 7119.234375 5576.304688 7120.078125 5575.382812 C 7120.214844 5575.238281 7120.96875 5574.414062 7122.078125 5574.300781 C 7122.84375 5574.222656 7123.148438 5574.546875 7123.578125 5574.300781 C 7124.234375 5573.925781 7123.824219 5573 7124.496094 5572.300781 C 7125.148438 5571.621094 7126.347656 5571.65625 7127.078125 5571.882812 C 7127.820312 5572.117188 7127.792969 5572.457031 7128.578125 5572.882812 C 7129.65625 5573.46875 7130.28125 5573.136719 7132.078125 5573.382812 C 7133.726562 5573.613281 7133.695312 5574.054688 7134.996094 5574.132812 C 7136.101562 5574.203125 7136.191406 5573.933594 7137.613281 5573.902344 C 7139.675781 5573.855469 7139.75 5574.410156 7140.667969 5574.125 C 7141.433594 5573.886719 7142.230469 5572.945312 7143.828125 5571.050781 C 7144.410156 5570.359375 7144.773438 5569.882812 7145.328125 5569.882812 C 7145.949219 5569.886719 7146.609375 5570.484375 7146.578125 5570.96875 C 7146.554688 5571.332031 7146.15625 5571.453125 7145.328125 5572.132812 C 7145.328125 5572.132812 7144.988281 5572.414062 7144.132812 5573.285156 C 7142.816406 5574.621094 7143.042969 5575.097656 7142.246094 5575.800781 C 7140.742188 5577.125 7138.367188 5576.8125 7137.660156 5576.71875 C 7136.808594 5576.605469 7137.035156 5576.492188 7135.410156 5576.132812 C 7133.847656 5575.792969 7132.941406 5575.589844 7131.746094 5575.632812 C 7130.582031 5575.675781 7130.425781 5575.902344 7128.746094 5575.96875 C 7128.570312 5575.976562 7128.625 5575.96875 7126.996094 5575.96875 C 7123.914062 5575.964844 7124.199219 5575.980469 7123.910156 5575.96875 C 7122.484375 5575.90625 7122.363281 5575.792969 7121.996094 5575.96875 C 7121.101562 5576.394531 7120.8125 5577.53125 7120.578125 5578.46875 C 7120.320312 5579.492188 7120.101562 5580.359375 7120.496094 5581.21875 C 7120.980469 5582.285156 7121.835938 5582.089844 7122.578125 5583.382812 C 7123.109375 5584.3125 7122.886719 5584.78125 7123.410156 5585.132812 C 7124.070312 5585.578125 7125.140625 5585.328125 7125.828125 5584.882812 C 7126.890625 5584.199219 7126.605469 5583.335938 7127.496094 5582.882812 C 7128.375 5582.441406 7128.808594 5583.203125 7130.496094 5582.96875 C 7131.117188 5582.882812 7130.929688 5582.796875 7132.746094 5582.300781 C 7134.007812 5581.957031 7133.90625 5582.050781 7134.746094 5581.800781 C 7136.183594 5581.371094 7136.5 5581.09375 7136.828125 5581.300781 C 7137.375 5581.648438 7137.367188 5582.953125 7136.910156 5583.21875 C 7136.582031 5583.410156 7136.246094 5582.914062 7135.410156 5582.882812 C 7134.585938 5582.855469 7133.960938 5583.289062 7133.828125 5583.382812 C 7133.023438 5583.972656 7133.355469 5584.550781 7132.667969 5585.332031 C 7131.722656 5586.410156 7130.71875 5585.746094 7129.496094 5586.96875 C 7129.011719 5587.453125 7128.855469 5587.867188 7128.328125 5587.96875 C 7127.613281 5588.105469 7127.015625 5587.503906 7126.910156 5587.632812 C 7126.800781 5587.769531 7127.382812 5588.484375 7128.078125 5589.132812 C 7129.152344 5590.140625 7129.457031 5590.019531 7129.996094 5590.71875 C 7130.617188 5591.527344 7130.308594 5591.8125 7130.996094 5592.71875 C 7131.675781 5593.617188 7132.191406 5593.613281 7132.246094 5594.132812 C 7132.332031 5594.957031 7131.085938 5595.285156 7131.160156 5596.132812 C 7131.171875 5596.253906 7131.207031 5596.328125 7132.496094 5597.71875 C 7133.207031 5598.488281 7133.308594 5598.582031 7133.496094 5598.71875 C 7134.148438 5599.195312 7134.523438 5599.1875 7134.578125 5599.46875 C 7134.652344 5599.859375 7134.03125 5600.460938 7133.328125 5600.632812 C 7132.433594 5600.855469 7132 5600.226562 7131.328125 5600.550781 C 7130.800781 5600.804688 7130.566406 5601.441406 7130.496094 5601.632812 C 7130.242188 5602.320312 7130.503906 5602.625 7130.246094 5602.882812 C 7129.835938 5603.296875 7128.769531 5602.921875 7128.160156 5602.550781 C 7127.785156 5602.320312 7127.082031 5601.890625 7127.078125 5601.300781 C 7127.074219 5600.539062 7128.242188 5600.308594 7128.246094 5599.550781 C 7128.246094 5599.449219 7128.226562 5599.175781 7127.246094 5598.300781 C 7125.945312 5597.140625 7125.375 5597.085938 7124.996094 5596.300781 C 7124.734375 5595.761719 7124.738281 5595.25 7124.746094 5594.882812 C 7124.765625 5593.5 7125.519531 5593.046875 7125.246094 5592.382812 C 7124.980469 5591.75 7124.023438 5591.53125 7123.410156 5591.550781 C 7122.644531 5591.578125 7121.765625 5592.003906 7121.496094 5592.71875 C 7121.347656 5593.113281 7121.480469 5593.332031 7121.746094 5594.632812 C 7121.808594 5594.949219 7121.992188 5595.851562 7122.078125 5596.632812 C 7122.1875 5597.625 7122.0625 5597.675781 7122.078125 5599.46875 C 7122.09375 5601.304688 7122.226562 5601.339844 7122.078125 5601.96875 C 7121.78125 5603.222656 7121.191406 5603.339844 7121.246094 5604.132812 C 7121.324219 5605.363281 7122.785156 5606.019531 7122.578125 5606.382812 C 7122.480469 5606.554688 7122.144531 5606.441406 7120.496094 5606.382812 C 7119.640625 5606.355469 7119.425781 5606.375 7119.160156 5606.46875 C 7118.476562 5606.710938 7118.375 5607.144531 7117.996094 5607.132812 C 7117.460938 5607.125 7116.882812 5606.25 7116.746094 5605.382812 C 7116.507812 5603.867188 7117.800781 5603.511719 7117.996094 5601.632812 C 7118.144531 5600.183594 7117.402344 5600.074219 7117.496094 5598.132812 C 7117.558594 5596.78125 7117.953125 5596.148438 7117.578125 5595.800781 C 7116.980469 5595.246094 7115.539062 5596.453125 7114.746094 5595.800781 "/>
<path xmlns="http://www.w3.org/2000/svg" fill-rule="nonzero" fill="rgb(78.900146%, 91.56189%, 65.628052%)" fill-opacity="1" d="M 7133.121094 5606.757812 C 7132.769531 5606.402344 7132.894531 5605.835938 7132.910156 5605.757812 C 7132.921875 5605.714844 7132.921875 5605.734375 7133.078125 5605.261719 C 7133.160156 5605.011719 7133.191406 5604.921875 7133.203125 5604.882812 C 7133.367188 5604.414062 7133.839844 5604.242188 7134.121094 5603.84375 C 7134.226562 5603.691406 7134.269531 5603.199219 7134.347656 5602.222656 C 7134.414062 5601.433594 7134.417969 5601.164062 7134.578125 5600.757812 C 7134.683594 5600.5 7134.890625 5599.980469 7135.203125 5599.96875 C 7135.492188 5599.957031 7135.714844 5600.382812 7135.871094 5600.675781 C 7136.027344 5600.972656 7136.464844 5601.808594 7136.121094 5602.300781 C 7135.851562 5602.683594 7135.394531 5602.457031 7135.078125 5602.882812 C 7134.808594 5603.246094 7134.816406 5603.847656 7135.078125 5604.132812 C 7135.207031 5604.277344 7135.292969 5604.230469 7135.578125 5604.425781 C 7135.730469 5604.53125 7136.167969 5604.832031 7136.121094 5605.050781 C 7136.058594 5605.339844 7135.234375 5605.121094 7134.828125 5605.632812 C 7134.589844 5605.9375 7134.765625 5606.152344 7134.453125 5606.550781 C 7134.355469 5606.675781 7134.101562 5607.003906 7133.703125 5607.007812 C 7133.375 5607.011719 7133.152344 5606.792969 7133.121094 5606.757812 "/>
<path xmlns="http://www.w3.org/2000/svg" fill-rule="nonzero" fill="rgb(78.900146%, 91.56189%, 65.628052%)" fill-opacity="1" d="M 7142.078125 5586.675781 C 7141.710938 5586.960938 7141.6875 5587.777344 7142.078125 5588.175781 C 7142.460938 5588.566406 7143.113281 5588.4375 7143.578125 5588.34375 C 7144.394531 5588.183594 7144.394531 5587.867188 7145.078125 5587.757812 C 7145.558594 5587.683594 7145.609375 5587.832031 7146.953125 5588.007812 C 7147.574219 5588.09375 7147.886719 5588.132812 7148.246094 5588.132812 C 7149.003906 5588.136719 7149.566406 5587.996094 7150.371094 5587.800781 C 7151.152344 5587.609375 7151.566406 5587.507812 7151.558594 5587.417969 C 7151.554688 5587.367188 7151.390625 5587.273438 7147.785156 5587.21875 C 7145.867188 5587.191406 7145.824219 5587.214844 7145.453125 5587.132812 C 7144.859375 5587.007812 7144.222656 5586.882812 7142.953125 5586.632812 C 7142.578125 5586.5625 7142.292969 5586.511719 7142.078125 5586.675781 "/>
<path xmlns="http://www.w3.org/2000/svg" fill-rule="nonzero" fill="rgb(78.900146%, 91.56189%, 65.628052%)" fill-opacity="1" d="M 7162.828125 5565.175781 C 7163.074219 5565.175781 7163.257812 5565.476562 7163.328125 5565.59375 C 7163.605469 5566.050781 7163.625 5566.6875 7163.371094 5567.21875 C 7163.164062 5567.644531 7162.628906 5568.316406 7162.078125 5568.175781 C 7161.679688 5568.074219 7161.421875 5567.578125 7161.410156 5567.175781 C 7161.40625 5567.039062 7161.433594 5566.929688 7162.203125 5565.800781 C 7162.511719 5565.351562 7162.636719 5565.175781 7162.828125 5565.175781 "/>
<path xmlns="http://www.w3.org/2000/svg" fill-rule="nonzero" fill="rgb(78.900146%, 91.56189%, 65.628052%)" fill-opacity="1" d="M 7160.160156 5567.46875 C 7160.015625 5567.421875 7159.84375 5567.585938 7159.691406 5567.730469 C 7158.9375 5568.4375 7158.988281 5568.257812 7158.703125 5568.59375 C 7158.234375 5569.144531 7158.050781 5569.75 7157.660156 5570.925781 C 7157.378906 5571.78125 7157.238281 5572.214844 7157.328125 5572.550781 C 7157.515625 5573.246094 7158.109375 5573.398438 7158.121094 5574.050781 C 7158.128906 5574.53125 7157.808594 5574.566406 7157.828125 5575.050781 C 7157.847656 5575.492188 7158.113281 5575.59375 7158.578125 5576.46875 C 7158.835938 5576.949219 7158.964844 5577.191406 7158.996094 5577.425781 C 7159.101562 5578.191406 7158.578125 5578.46875 7158.703125 5579.175781 C 7158.722656 5579.289062 7158.882812 5579.558594 7159.203125 5580.09375 C 7159.726562 5580.964844 7159.988281 5581.402344 7160.203125 5581.59375 C 7160.628906 5581.972656 7160.757812 5581.855469 7161.203125 5582.300781 C 7161.558594 5582.65625 7161.714844 5582.972656 7161.871094 5582.925781 C 7161.996094 5582.890625 7162.070312 5582.636719 7162.035156 5582.425781 C 7161.984375 5582.085938 7161.675781 5582.007812 7161.160156 5581.550781 C 7160.886719 5581.308594 7160.554688 5581.007812 7160.328125 5580.550781 C 7160.148438 5580.183594 7160.285156 5580.210938 7160.035156 5579.507812 C 7159.863281 5579.015625 7159.738281 5578.839844 7159.703125 5578.425781 C 7159.691406 5578.289062 7159.695312 5578.15625 7159.703125 5577.882812 C 7159.71875 5577.304688 7159.769531 5577.296875 7159.746094 5577.050781 C 7159.695312 5576.578125 7159.488281 5576.46875 7159.578125 5576.257812 C 7159.683594 5576.011719 7160.0625 5575.953125 7160.246094 5575.925781 C 7160.558594 5575.878906 7160.851562 5575.917969 7161.621094 5576.175781 C 7162.332031 5576.417969 7162.953125 5576.675781 7162.953125 5576.675781 C 7163.765625 5577.015625 7163.96875 5577.148438 7164.078125 5577.050781 C 7164.238281 5576.90625 7164.082031 5576.355469 7163.746094 5576.007812 C 7163.46875 5575.726562 7163.269531 5575.78125 7162.703125 5575.507812 C 7162.46875 5575.394531 7161.460938 5574.914062 7161.496094 5574.425781 C 7161.515625 5574.179688 7161.8125 5574 7162.410156 5573.632812 C 7162.953125 5573.304688 7163.011719 5573.378906 7163.246094 5573.175781 C 7163.898438 5572.609375 7163.871094 5571.679688 7163.871094 5571.632812 C 7163.859375 5571.429688 7163.832031 5570.703125 7163.410156 5570.507812 C 7163.164062 5570.394531 7163.019531 5570.574219 7161.703125 5571.21875 C 7161.128906 5571.5 7160.847656 5571.617188 7160.828125 5571.84375 C 7160.796875 5572.164062 7161.316406 5572.378906 7161.246094 5572.59375 C 7161.175781 5572.804688 7160.65625 5572.617188 7160.328125 5572.925781 C 7159.984375 5573.246094 7160.265625 5573.707031 7159.910156 5574.050781 C 7159.691406 5574.269531 7159.292969 5574.371094 7158.953125 5574.21875 C 7158.640625 5574.078125 7158.40625 5573.726562 7158.453125 5573.425781 C 7158.515625 5573.03125 7159.015625 5573.058594 7159.578125 5572.507812 C 7159.660156 5572.429688 7160.269531 5571.820312 7160.371094 5570.882812 C 7160.398438 5570.597656 7160.472656 5569.945312 7160.078125 5569.507812 C 7159.824219 5569.230469 7159.570312 5569.25 7159.535156 5569.050781 C 7159.46875 5568.664062 7160.390625 5568.402344 7160.371094 5567.84375 C 7160.363281 5567.6875 7160.285156 5567.507812 7160.160156 5567.46875 "/>
<path xmlns="http://www.w3.org/2000/svg" fill-rule="nonzero" fill="rgb(78.900146%, 91.56189%, 65.628052%)" fill-opacity="1" d="M 7158.203125 5585.050781 C 7158.09375 5585.066406 7157.566406 5585.136719 7157.246094 5585.59375 C 7157.007812 5585.933594 7156.875 5586.492188 7157.121094 5586.800781 C 7157.269531 5586.988281 7157.734375 5586.984375 7158.660156 5586.96875 C 7159.347656 5586.957031 7158.949219 5586.917969 7160.328125 5586.800781 C 7160.652344 5586.773438 7160.789062 5586.769531 7160.828125 5586.675781 C 7160.941406 5586.417969 7160.117188 5585.828125 7159.660156 5585.550781 C 7159.109375 5585.21875 7158.722656 5584.984375 7158.203125 5585.050781 "/>
<path xmlns="http://www.w3.org/2000/svg" fill-rule="nonzero" fill="rgb(78.900146%, 91.56189%, 65.628052%)" fill-opacity="1" d="M 7154.203125 5593.84375 C 7153.792969 5593.613281 7153.414062 5593.820312 7152.203125 5594.09375 C 7151.40625 5594.273438 7151.242188 5594.257812 7150.953125 5594.46875 C 7150.796875 5594.582031 7150.34375 5594.90625 7150.328125 5595.34375 C 7150.304688 5595.949219 7151.128906 5596.410156 7152.121094 5596.96875 C 7152.863281 5597.386719 7153.238281 5597.597656 7153.746094 5597.632812 C 7154.875 5597.71875 7155.679688 5597.035156 7155.953125 5596.800781 C 7156.277344 5596.527344 7156.402344 5596.308594 7156.453125 5596.09375 C 7156.527344 5595.785156 7156.480469 5595.347656 7156.246094 5595.21875 C 7156.023438 5595.101562 7155.8125 5595.34375 7155.621094 5595.21875 C 7155.40625 5595.082031 7155.605469 5594.742188 7155.371094 5594.46875 C 7155.210938 5594.28125 7155.046875 5594.359375 7154.578125 5594.09375 C 7154.351562 5593.964844 7154.328125 5593.914062 7154.203125 5593.84375 "/>
<path xmlns="http://www.w3.org/2000/svg" fill-rule="nonzero" fill="rgb(78.900146%, 91.56189%, 65.628052%)" fill-opacity="1" d="M 7160.371094 5593.71875 C 7160.027344 5594.140625 7159.789062 5594.007812 7159.578125 5594.34375 C 7159.261719 5594.84375 7159.457031 5595.679688 7159.746094 5595.757812 C 7159.945312 5595.816406 7160.265625 5595.53125 7160.371094 5595.21875 C 7160.484375 5594.871094 7160.269531 5594.679688 7160.410156 5594.34375 C 7160.503906 5594.125 7160.722656 5593.898438 7160.910156 5593.925781 C 7161.121094 5593.957031 7161.128906 5594.285156 7161.410156 5594.757812 C 7161.578125 5595.039062 7161.882812 5595.558594 7162.410156 5595.71875 C 7162.960938 5595.886719 7163.484375 5595.582031 7163.535156 5595.550781 C 7164.195312 5595.15625 7164.238281 5594.40625 7164.535156 5594.425781 C 7164.84375 5594.449219 7165.035156 5595.246094 7165.121094 5595.21875 C 7165.167969 5595.203125 7165.058594 5594.964844 7165.160156 5594.84375 C 7165.367188 5594.601562 7166.269531 5595.015625 7166.621094 5595.175781 C 7167.355469 5595.515625 7167.535156 5595.730469 7167.746094 5595.632812 C 7168.121094 5595.460938 7167.855469 5594.636719 7168.246094 5594.425781 C 7168.566406 5594.253906 7168.871094 5594.753906 7169.746094 5594.925781 C 7170.503906 5595.078125 7171.035156 5594.851562 7171.121094 5595.050781 C 7171.214844 5595.28125 7170.53125 5595.628906 7170.621094 5595.96875 C 7170.679688 5596.195312 7171.027344 5596.207031 7171.535156 5596.382812 C 7172.800781 5596.824219 7173.046875 5597.585938 7173.785156 5597.46875 C 7173.863281 5597.457031 7174.242188 5597.390625 7174.410156 5597.09375 C 7174.613281 5596.738281 7174.429688 5596.199219 7174.117188 5595.929688 C 7173.894531 5595.738281 7173.785156 5595.839844 7173.371094 5595.59375 C 7173.109375 5595.4375 7172.808594 5595.261719 7172.746094 5594.96875 C 7172.683594 5594.679688 7172.90625 5594.582031 7172.878906 5594.285156 C 7172.839844 5593.886719 7172.378906 5593.554688 7171.996094 5593.425781 C 7171.523438 5593.273438 7171.390625 5593.5 7170.621094 5593.425781 C 7170.394531 5593.40625 7170.011719 5593.367188 7169.578125 5593.175781 C 7168.960938 5592.90625 7168.953125 5592.632812 7168.371094 5592.425781 C 7168.089844 5592.328125 7167.722656 5592.199219 7167.371094 5592.34375 C 7167.039062 5592.480469 7167.058594 5592.714844 7166.578125 5593.007812 C 7166.375 5593.136719 7166.0625 5593.328125 7165.828125 5593.21875 C 7165.621094 5593.121094 7165.6875 5592.894531 7165.496094 5592.71875 C 7165.246094 5592.492188 7164.902344 5592.652344 7164.121094 5592.71875 C 7163.445312 5592.777344 7162.839844 5592.730469 7162.703125 5592.71875 C 7162.296875 5592.6875 7161.949219 5592.625 7161.453125 5592.71875 C 7161.117188 5592.78125 7160.992188 5592.859375 7160.953125 5592.882812 C 7160.625 5593.097656 7160.65625 5593.363281 7160.371094 5593.71875 "/>
<path xmlns="http://www.w3.org/2000/svg" fill-rule="nonzero" fill="rgb(78.900146%, 91.56189%, 65.628052%)" fill-opacity="1" d="M 7169.953125 5587.382812 C 7170.546875 5587.085938 7171.042969 5586.972656 7171.371094 5586.925781 C 7171.714844 5586.878906 7171.894531 5586.898438 7171.996094 5587.007812 C 7172.042969 5587.066406 7172.089844 5587.15625 7172.035156 5587.632812 C 7171.980469 5588.136719 7171.953125 5588.390625 7171.828125 5588.507812 C 7171.761719 5588.574219 7171.644531 5588.648438 7170.828125 5588.59375 C 7170.136719 5588.546875 7169.78125 5588.519531 7169.328125 5588.34375 C 7169.074219 5588.246094 7168.878906 5588.132812 7168.746094 5588.050781 Z M 7169.953125 5587.382812 "/>
<path xmlns="http://www.w3.org/2000/svg" fill-rule="nonzero" fill="rgb(78.900146%, 91.56189%, 65.628052%)" fill-opacity="1" d="M 7172.035156 5578.925781 C 7172.402344 5578.507812 7173.492188 5578.800781 7173.492188 5578.800781 C 7173.535156 5579.167969 7173.507812 5579.394531 7173.660156 5579.550781 C 7173.699219 5579.589844 7173.882812 5579.632812 7174.246094 5579.71875 C 7174.289062 5579.730469 7174.546875 5579.785156 7174.785156 5579.707031 C 7174.800781 5579.703125 7174.824219 5579.695312 7174.828125 5579.675781 C 7174.84375 5579.597656 7174.335938 5579.570312 7174.035156 5579.257812 C 7173.847656 5579.0625 7173.710938 5578.71875 7173.828125 5578.550781 C 7173.914062 5578.425781 7174.117188 5578.429688 7174.871094 5578.550781 C 7176.386719 5578.796875 7176.542969 5578.941406 7176.621094 5579.09375 C 7176.742188 5579.332031 7176.707031 5579.675781 7176.535156 5579.84375 C 7176.390625 5579.988281 7176.222656 5579.914062 7175.621094 5580.007812 C 7175.273438 5580.066406 7175.097656 5580.09375 7174.953125 5580.175781 C 7174.648438 5580.351562 7174.636719 5580.546875 7174.285156 5580.71875 C 7174.140625 5580.789062 7173.957031 5580.882812 7173.816406 5580.808594 C 7173.582031 5580.683594 7173.644531 5580.179688 7173.578125 5580.175781 C 7173.507812 5580.171875 7173.542969 5580.722656 7173.230469 5580.925781 C 7173.035156 5581.054688 7172.699219 5581.046875 7172.578125 5580.882812 C 7172.3125 5580.535156 7173.175781 5579.625 7172.953125 5579.382812 C 7172.777344 5579.195312 7172.140625 5579.640625 7171.953125 5579.425781 C 7171.859375 5579.320312 7171.90625 5579.074219 7172.035156 5578.925781 "/>
<path xmlns="http://www.w3.org/2000/svg" fill-rule="nonzero" fill="rgb(78.900146%, 91.56189%, 65.628052%)" fill-opacity="1" d="M 7175.550781 5583.414062 C 7175.753906 5583.808594 7175.324219 5584.246094 7175.535156 5584.46875 C 7175.726562 5584.667969 7176.3125 5584.566406 7176.496094 5584.261719 C 7176.628906 5584.035156 7176.457031 5583.847656 7176.410156 5583.136719 C 7176.386719 5582.710938 7176.371094 5582.496094 7176.453125 5582.386719 C 7176.730469 5582 7177.476562 5582.441406 7178.703125 5582.21875 C 7179.335938 5582.101562 7179.796875 5581.863281 7179.996094 5581.761719 C 7180.886719 5581.289062 7180.839844 5580.933594 7181.578125 5580.550781 C 7181.699219 5580.488281 7182.617188 5580.023438 7183.703125 5580.21875 C 7184.230469 5580.3125 7184.042969 5580.425781 7185.328125 5580.886719 C 7185.851562 5581.070312 7186.167969 5581.15625 7186.496094 5581.46875 C 7186.867188 5581.824219 7186.738281 5581.992188 7186.996094 5582.175781 C 7187.566406 5582.582031 7188.285156 5581.816406 7189.621094 5582.011719 C 7189.921875 5582.054688 7190.433594 5582.132812 7190.578125 5582.46875 C 7190.71875 5582.792969 7190.367188 5583.007812 7190.410156 5583.46875 C 7190.472656 5584.125 7191.21875 5584.152344 7191.371094 5584.84375 C 7191.40625 5585.003906 7191.28125 5585.449219 7191.035156 5586.34375 C 7190.90625 5586.820312 7190.84375 5586.992188 7190.828125 5587.300781 C 7190.804688 5587.734375 7190.890625 5588.058594 7190.953125 5588.300781 C 7191.339844 5589.820312 7191.210938 5589.730469 7191.410156 5590.300781 C 7191.894531 5591.671875 7192.8125 5592.671875 7192.953125 5592.59375 C 7193.105469 5592.511719 7192.386719 5591.203125 7192.746094 5590.925781 C 7192.90625 5590.804688 7193.199219 5590.945312 7193.246094 5590.96875 C 7193.730469 5591.203125 7193.8125 5591.886719 7193.828125 5592.011719 C 7193.90625 5592.644531 7193.621094 5593.054688 7193.828125 5593.21875 C 7193.945312 5593.3125 7194.058594 5593.191406 7194.246094 5593.261719 C 7194.636719 5593.398438 7194.527344 5594.0625 7194.871094 5594.59375 C 7195.304688 5595.265625 7196.226562 5595.367188 7196.371094 5595.386719 C 7197.296875 5595.488281 7197.992188 5594.960938 7198.371094 5594.675781 C 7198.789062 5594.359375 7199.039062 5594.019531 7199.535156 5593.34375 C 7200.167969 5592.484375 7200.046875 5592.421875 7200.496094 5591.925781 C 7201.113281 5591.242188 7201.414062 5591.28125 7201.703125 5590.71875 C 7202.007812 5590.121094 7201.820312 5589.785156 7202.121094 5589.59375 C 7202.503906 5589.347656 7202.875 5589.867188 7203.660156 5589.71875 C 7204.1875 5589.617188 7204.207031 5589.351562 7204.703125 5589.34375 C 7205.167969 5589.335938 7205.320312 5589.570312 7205.703125 5589.46875 C 7206.113281 5589.359375 7206.316406 5588.992188 7206.328125 5588.96875 C 7206.542969 5588.5625 7206.386719 5588.128906 7206.328125 5587.96875 C 7206.15625 5587.488281 7205.863281 5587.398438 7205.910156 5587.21875 C 7205.984375 5586.9375 7206.695312 5587.105469 7207.578125 5586.800781 C 7208.664062 5586.429688 7208.710938 5585.796875 7209.371094 5585.84375 C 7209.925781 5585.882812 7209.996094 5586.34375 7210.996094 5586.636719 C 7211.316406 5586.730469 7211.25 5586.664062 7211.871094 5586.800781 C 7212.597656 5586.964844 7213.0625 5587.066406 7213.578125 5587.34375 C 7214.078125 5587.613281 7214.027344 5587.722656 7214.535156 5587.96875 C 7215.066406 5588.222656 7215.203125 5588.144531 7215.703125 5588.34375 C 7216.429688 5588.632812 7216.398438 5588.902344 7217.203125 5589.34375 C 7217.265625 5589.378906 7217.246094 5589.367188 7218.660156 5589.886719 C 7219.667969 5590.253906 7219.992188 5590.375 7220.453125 5590.300781 C 7220.753906 5590.253906 7220.78125 5590.175781 7221.035156 5590.175781 C 7221.589844 5590.183594 7221.675781 5590.5625 7222.285156 5590.761719 C 7222.988281 5590.988281 7223.3125 5590.632812 7223.785156 5590.96875 C 7224.070312 5591.167969 7224.007812 5591.335938 7224.285156 5591.46875 C 7224.640625 5591.636719 7224.910156 5591.441406 7225.453125 5591.425781 C 7225.453125 5591.425781 7225.832031 5591.414062 7226.535156 5591.636719 C 7228.332031 5592.195312 7229.214844 5624.644531 7227.660156 5624.636719 C 7227.550781 5624.632812 7227.191406 5624.46875 7226.660156 5624.550781 C 7226.230469 5624.621094 7226.113281 5624.921875 7225.828125 5624.886719 C 7225.511719 5624.847656 7225.363281 5624.492188 7225.121094 5624.136719 C 7224.695312 5623.507812 7224.414062 5623.503906 7223.703125 5622.84375 C 7222.726562 5621.9375 7222.992188 5621.699219 7221.910156 5620.550781 C 7221.273438 5619.875 7220.8125 5619.394531 7220.035156 5619.175781 C 7219.726562 5619.089844 7219.15625 5618.929688 7218.535156 5619.136719 C 7217.980469 5619.320312 7217.890625 5619.640625 7217.453125 5619.636719 C 7216.902344 5619.628906 7216.757812 5619.113281 7216.285156 5619.175781 C 7215.839844 5619.234375 7215.761719 5619.726562 7215.371094 5619.71875 C 7214.945312 5619.710938 7214.648438 5619.128906 7214.578125 5619.175781 C 7214.5 5619.230469 7215.019531 5619.828125 7214.828125 5620.21875 C 7214.703125 5620.472656 7214.324219 5620.554688 7214.078125 5620.550781 C 7213.628906 5620.546875 7213.53125 5620.242188 7213.121094 5620.175781 C 7212.636719 5620.097656 7212.53125 5620.476562 7211.828125 5620.675781 C 7211.089844 5620.886719 7210.9375 5620.542969 7209.910156 5620.675781 C 7209.105469 5620.78125 7208.820312 5621.042969 7208.660156 5620.886719 C 7208.519531 5620.738281 7208.621094 5620.386719 7209.410156 5618.886719 C 7210.492188 5616.828125 7210.785156 5616.566406 7210.953125 5616.425781 C 7211.273438 5616.164062 7212.007812 5615.558594 7212.996094 5615.550781 C 7213.8125 5615.546875 7214.40625 5615.949219 7214.578125 5615.71875 C 7214.664062 5615.601562 7214.535156 5615.476562 7214.328125 5614.761719 C 7214.152344 5614.148438 7214.191406 5614.042969 7214.035156 5613.886719 C 7213.722656 5613.5625 7213.285156 5613.726562 7213.203125 5613.511719 C 7213.109375 5613.261719 7213.683594 5613.050781 7213.828125 5612.425781 C 7213.929688 5611.992188 7213.765625 5611.605469 7213.703125 5611.46875 C 7213.496094 5610.988281 7213.21875 5610.957031 7212.828125 5610.46875 C 7212.683594 5610.289062 7212.507812 5609.886719 7212.160156 5609.09375 C 7211.636719 5607.886719 7211.671875 5607.820312 7211.453125 5607.59375 C 7211.125 5607.25 7210.855469 5607.195312 7210.703125 5606.800781 C 7210.570312 5606.453125 7210.71875 5606.339844 7210.578125 5606.050781 C 7210.414062 5605.722656 7210.117188 5605.675781 7209.535156 5605.34375 C 7209.261719 5605.1875 7209.382812 5605.226562 7208.578125 5604.675781 C 7207.765625 5604.117188 7207.359375 5603.839844 7207.035156 5603.675781 C 7206.738281 5603.527344 7206.683594 5603.53125 7205.328125 5603.09375 C 7204.285156 5602.757812 7203.761719 5602.589844 7203.453125 5602.46875 C 7202.980469 5602.285156 7202.96875 5602.25 7201.453125 5601.550781 C 7200.511719 5601.117188 7200.035156 5600.898438 7199.828125 5600.84375 C 7199.035156 5600.636719 7198.335938 5600.65625 7197.535156 5600.675781 C 7196.4375 5600.707031 7196.523438 5600.835938 7196.078125 5600.761719 C 7195.269531 5600.621094 7194.390625 5600.09375 7193.828125 5599.34375 C 7193.421875 5598.800781 7193.382812 5598.40625 7192.910156 5598.21875 C 7192.679688 5598.128906 7192.421875 5598.140625 7191.910156 5598.175781 C 7191.027344 5598.238281 7190.613281 5598.398438 7190.535156 5598.261719 C 7190.425781 5598.058594 7191.183594 5597.507812 7191.078125 5597.34375 C 7190.972656 5597.179688 7190.195312 5597.691406 7189.828125 5597.386719 C 7189.621094 5597.210938 7189.785156 5596.871094 7189.539062 5596.699219 C 7189.367188 5596.578125 7189.207031 5596.6875 7189.023438 5596.550781 C 7188.859375 5596.433594 7188.820312 5596.230469 7188.785156 5596.0625 C 7188.683594 5595.507812 7188.890625 5595.03125 7188.933594 5594.9375 C 7189.214844 5594.308594 7189.574219 5594.285156 7189.621094 5593.84375 C 7189.652344 5593.519531 7189.496094 5593.140625 7189.285156 5593.09375 C 7188.988281 5593.027344 7188.492188 5593.632812 7188.453125 5594.21875 C 7188.4375 5594.464844 7188.519531 5594.480469 7188.511719 5594.796875 C 7188.503906 5595.316406 7188.28125 5595.714844 7188.203125 5595.84375 C 7187.859375 5596.433594 7187.535156 5596.332031 7187.410156 5596.761719 C 7187.269531 5597.25 7187.609375 5597.453125 7187.453125 5597.886719 C 7187.296875 5598.316406 7186.8125 5598.519531 7186.328125 5598.71875 C 7185.867188 5598.910156 7185.5625 5599.035156 7185.203125 5598.96875 C 7184.203125 5598.78125 7183.578125 5597.265625 7183.910156 5596.84375 C 7184.066406 5596.648438 7184.363281 5596.757812 7184.578125 5596.46875 C 7184.773438 5596.207031 7184.714844 5595.871094 7184.703125 5595.800781 C 7184.617188 5595.3125 7184.183594 5595.042969 7183.996094 5594.925781 C 7183.699219 5594.746094 7183.65625 5594.824219 7183.410156 5594.675781 C 7182.855469 5594.335938 7183.023438 5593.867188 7182.578125 5593.550781 C 7182.101562 5593.214844 7181.695312 5593.609375 7181.078125 5593.21875 C 7180.984375 5593.15625 7180.566406 5592.894531 7180.578125 5592.550781 C 7180.59375 5592.183594 7181.101562 5591.894531 7181.496094 5591.800781 C 7182.03125 5591.679688 7182.535156 5591.875 7183.203125 5592.136719 C 7183.800781 5592.367188 7183.902344 5592.5 7184.203125 5592.46875 C 7184.742188 5592.410156 7185.117188 5591.917969 7185.203125 5591.800781 C 7185.640625 5591.222656 7185.46875 5590.78125 7185.828125 5590.59375 C 7186.140625 5590.429688 7186.625 5590.566406 7186.871094 5590.84375 C 7187.171875 5591.183594 7186.945312 5591.558594 7187.203125 5591.761719 C 7187.523438 5592.011719 7188.230469 5591.707031 7188.621094 5591.425781 C 7189.007812 5591.148438 7188.992188 5590.957031 7189.453125 5590.675781 C 7189.828125 5590.449219 7190 5590.476562 7190.078125 5590.300781 C 7190.21875 5589.984375 7189.882812 5589.390625 7189.410156 5589.175781 C 7188.9375 5588.964844 7188.628906 5589.265625 7187.703125 5589.46875 C 7186.957031 5589.632812 7187.101562 5589.445312 7185.035156 5589.550781 C 7184.410156 5589.582031 7183.785156 5589.589844 7183.160156 5589.636719 C 7182.582031 5589.675781 7182.308594 5589.710938 7181.910156 5589.59375 C 7181.703125 5589.53125 7181.210938 5589.355469 7180.808594 5588.886719 C 7180.632812 5588.679688 7180.445312 5588.464844 7180.390625 5588.136719 C 7180.3125 5587.65625 7180.601562 5587.460938 7180.476562 5587.09375 C 7180.398438 5586.875 7180.214844 5586.753906 7179.851562 5586.511719 C 7179.589844 5586.339844 7179.21875 5586.09375 7178.660156 5585.945312 C 7178.171875 5585.816406 7177.789062 5585.828125 7177.203125 5585.84375 C 7176.386719 5585.863281 7176.359375 5585.976562 7175.976562 5585.90625 C 7175.367188 5585.796875 7174.960938 5585.441406 7174.640625 5585.15625 C 7174.292969 5584.847656 7173.71875 5584.339844 7173.726562 5583.65625 C 7173.726562 5583.523438 7173.730469 5583.34375 7173.851562 5583.195312 C 7174.199219 5582.765625 7175.300781 5582.921875 7175.550781 5583.414062 "/>
<path xmlns="http://www.w3.org/2000/svg" fill-rule="nonzero" fill="rgb(78.900146%, 91.56189%, 65.628052%)" fill-opacity="1" d="M 7190.792969 5612.667969 C 7190.804688 5612.710938 7190.875 5613.050781 7191.183594 5613.195312 C 7191.566406 5613.378906 7191.949219 5613.082031 7191.972656 5613.066406 C 7192.1875 5612.894531 7192.171875 5612.714844 7192.363281 5612.238281 C 7192.515625 5611.859375 7192.671875 5611.609375 7192.910156 5611.21875 C 7193.269531 5610.640625 7193.375 5610.621094 7193.578125 5610.21875 C 7193.648438 5610.078125 7193.839844 5609.695312 7193.910156 5609.21875 C 7194.039062 5608.382812 7193.664062 5608.21875 7193.660156 5607.21875 C 7193.660156 5606.433594 7193.890625 5606.125 7193.660156 5605.886719 C 7193.425781 5605.636719 7192.847656 5605.621094 7192.496094 5605.886719 C 7191.9375 5606.308594 7192.394531 5607.105469 7191.746094 5608.300781 C 7191.488281 5608.769531 7191.410156 5608.660156 7191.246094 5609.050781 C 7190.90625 5609.839844 7191.203125 5610.335938 7190.996094 5611.300781 C 7190.9375 5611.5625 7190.824219 5611.945312 7190.578125 5612.386719 Z M 7190.792969 5612.667969 "/>
<path xmlns="http://www.w3.org/2000/svg" fill-rule="nonzero" fill="rgb(78.900146%, 91.56189%, 65.628052%)" fill-opacity="1" d="M 7119.121094 5621.425781 C 7119.140625 5621.375 7119.328125 5620.949219 7119.777344 5620.769531 C 7120.183594 5620.605469 7120.347656 5620.828125 7120.714844 5620.675781 C 7121.148438 5620.496094 7121.058594 5620.125 7121.464844 5619.925781 C 7121.574219 5619.871094 7121.726562 5619.824219 7122.839844 5620.050781 C 7123.0625 5620.097656 7123.460938 5620.179688 7124.058594 5620.332031 C 7125.042969 5620.582031 7125.300781 5620.695312 7125.402344 5620.738281 C 7125.679688 5620.863281 7125.640625 5620.875 7126.214844 5621.175781 C 7126.90625 5621.539062 7127.257812 5621.722656 7127.464844 5621.675781 C 7127.890625 5621.585938 7127.851562 5621.144531 7128.382812 5620.953125 C 7128.714844 5620.835938 7129.023438 5620.90625 7129.402344 5620.988281 C 7129.632812 5621.039062 7129.914062 5621.160156 7130.464844 5621.394531 C 7131.167969 5621.699219 7131.160156 5621.71875 7131.308594 5621.738281 C 7131.949219 5621.824219 7132.484375 5621.445312 7132.582031 5621.375 C 7132.957031 5621.109375 7132.847656 5620.988281 7133.183594 5620.769531 C 7133.734375 5620.410156 7134.160156 5620.664062 7134.464844 5620.300781 C 7134.65625 5620.074219 7134.695312 5619.734375 7134.589844 5619.644531 C 7134.570312 5619.632812 7134.53125 5619.609375 7134.121094 5619.675781 C 7133.886719 5619.714844 7133.855469 5619.730469 7133.839844 5619.707031 C 7133.769531 5619.617188 7134.09375 5618.980469 7134.558594 5619.019531 C 7134.835938 5619.042969 7135.050781 5619.300781 7135.121094 5619.519531 C 7135.183594 5619.730469 7135.097656 5619.84375 7135.183594 5619.925781 C 7135.304688 5620.046875 7135.523438 5619.859375 7135.964844 5619.863281 C 7136.140625 5619.867188 7136.449219 5619.871094 7136.621094 5620.082031 C 7136.707031 5620.1875 7136.792969 5620.390625 7136.714844 5620.519531 C 7136.597656 5620.714844 7136.253906 5620.523438 7135.839844 5620.738281 C 7135.679688 5620.824219 7135.574219 5620.941406 7135.371094 5621.175781 C 7135.011719 5621.585938 7134.898438 5621.886719 7134.839844 5621.863281 C 7134.753906 5621.832031 7134.902344 5621.203125 7134.933594 5621.082031 C 7135.03125 5620.667969 7135.125 5620.46875 7135.058594 5620.425781 C 7134.996094 5620.382812 7134.882812 5620.550781 7134.558594 5620.707031 C 7134.265625 5620.847656 7134.113281 5620.832031 7134.089844 5620.925781 C 7134.050781 5621.085938 7134.453125 5621.207031 7134.464844 5621.457031 C 7134.472656 5621.6875 7134.148438 5621.875 7134.058594 5621.925781 C 7133.628906 5622.171875 7133.398438 5622.003906 7132.683594 5622.113281 C 7132.023438 5622.214844 7132 5622.386719 7131.433594 5622.394531 C 7131.078125 5622.402344 7131 5622.332031 7130.714844 5622.394531 C 7130.613281 5622.417969 7130.496094 5622.453125 7129.871094 5622.769531 C 7129.347656 5623.035156 7129.351562 5623.050781 7129.277344 5623.050781 C 7128.84375 5623.054688 7128.738281 5622.527344 7128.246094 5622.488281 C 7128.121094 5622.480469 7127.964844 5622.535156 7127.652344 5622.644531 C 7127.316406 5622.761719 7127.226562 5622.835938 7126.871094 5622.988281 C 7126.441406 5623.171875 7126.226562 5623.265625 7126.027344 5623.269531 C 7125.625 5623.28125 7125.59375 5623.066406 7125.058594 5622.925781 C 7124.488281 5622.777344 7124.421875 5622.996094 7123.683594 5622.863281 C 7123.195312 5622.777344 7123.183594 5622.675781 7122.746094 5622.644531 C 7122.375 5622.621094 7122.308594 5622.6875 7121.871094 5622.644531 C 7121.519531 5622.613281 7121.46875 5622.5625 7121.152344 5622.550781 C 7120.90625 5622.542969 7120.703125 5622.539062 7120.464844 5622.613281 C 7120.023438 5622.753906 7119.972656 5623.007812 7119.714844 5622.988281 C 7119.402344 5622.964844 7119.207031 5622.566406 7119.152344 5622.457031 C 7118.902344 5621.957031 7119.101562 5621.46875 7119.121094 5621.425781 "/>
<path xmlns="http://www.w3.org/2000/svg" fill-rule="nonzero" fill="rgb(78.900146%, 91.56189%, 65.628052%)" fill-opacity="1" d="M 7137.058594 5619.925781 C 7137.101562 5619.777344 7137.714844 5619.734375 7137.839844 5619.957031 C 7137.921875 5620.109375 7137.75 5620.324219 7137.808594 5620.363281 C 7137.859375 5620.398438 7138.003906 5620.234375 7138.246094 5620.050781 C 7138.394531 5619.9375 7138.65625 5619.742188 7138.996094 5619.644531 C 7139.230469 5619.578125 7139.601562 5619.53125 7139.652344 5619.644531 C 7139.707031 5619.769531 7139.359375 5620.035156 7139.339844 5620.050781 C 7139.003906 5620.304688 7138.816406 5620.210938 7138.589844 5620.425781 C 7138.375 5620.628906 7138.496094 5620.753906 7138.277344 5621.019531 C 7138.027344 5621.320312 7137.675781 5621.40625 7137.464844 5621.457031 C 7137.285156 5621.5 7137.058594 5621.554688 7136.808594 5621.457031 C 7136.714844 5621.421875 7136.546875 5621.359375 7136.527344 5621.238281 C 7136.5 5621.089844 7136.726562 5620.921875 7137.027344 5620.699219 C 7137.269531 5620.519531 7137.355469 5620.492188 7137.371094 5620.394531 C 7137.398438 5620.1875 7137.019531 5620.050781 7137.058594 5619.925781 "/>
<path xmlns="http://www.w3.org/2000/svg" fill-rule="nonzero" fill="rgb(78.900146%, 91.56189%, 65.628052%)" fill-opacity="1" d="M 7142.308594 5620.019531 C 7142.367188 5619.730469 7142.433594 5619.398438 7142.621094 5619.332031 C 7142.75 5619.289062 7142.828125 5619.40625 7143.058594 5619.488281 C 7143.316406 5619.582031 7143.425781 5619.511719 7144.027344 5619.457031 C 7144.027344 5619.457031 7144.503906 5619.417969 7145.152344 5619.457031 C 7145.53125 5619.480469 7145.6875 5619.519531 7145.777344 5619.644531 C 7145.914062 5619.835938 7145.8125 5620.101562 7145.808594 5620.113281 C 7145.695312 5620.40625 7145.359375 5620.511719 7145.121094 5620.582031 C 7144.730469 5620.703125 7144.632812 5620.613281 7144.058594 5620.675781 C 7143.644531 5620.722656 7143.652344 5620.773438 7143.058594 5620.863281 C 7142.609375 5620.933594 7142.082031 5621.007812 7142.027344 5620.863281 C 7141.996094 5620.792969 7142.117188 5620.734375 7142.214844 5620.488281 C 7142.285156 5620.316406 7142.257812 5620.253906 7142.308594 5620.019531 "/>
<path xmlns="http://www.w3.org/2000/svg" fill-rule="nonzero" fill="rgb(78.900146%, 91.56189%, 65.628052%)" fill-opacity="1" d="M 7149.496094 5618.082031 C 7149.410156 5617.707031 7149.539062 5617.175781 7149.871094 5617.019531 C 7150.074219 5616.925781 7150.183594 5617.050781 7150.996094 5617.238281 C 7151.710938 5617.402344 7151.875 5617.363281 7151.992188 5617.292969 C 7152.21875 5617.152344 7152.140625 5616.96875 7152.402344 5616.738281 C 7152.785156 5616.402344 7153.3125 5616.484375 7153.339844 5616.488281 C 7153.640625 5616.539062 7153.832031 5616.703125 7154.058594 5616.894531 C 7154.25 5617.0625 7154.359375 5617.152344 7154.339844 5617.238281 C 7154.285156 5617.453125 7153.527344 5617.191406 7153.121094 5617.613281 C 7153 5617.738281 7153.039062 5617.789062 7152.714844 5618.269531 C 7152.492188 5618.59375 7152.433594 5618.632812 7152.371094 5618.644531 C 7152.128906 5618.695312 7152.035156 5618.347656 7151.621094 5618.175781 C 7151.136719 5617.976562 7150.574219 5618.167969 7150.464844 5618.207031 C 7150.074219 5618.34375 7149.90625 5618.546875 7149.714844 5618.457031 C 7149.5625 5618.386719 7149.519531 5618.195312 7149.496094 5618.082031 "/>
<path xmlns="http://www.w3.org/2000/svg" fill-rule="nonzero" fill="rgb(78.900146%, 91.56189%, 65.628052%)" fill-opacity="1" d="M 7137.839844 5630.457031 C 7137.679688 5630.304688 7137.675781 5629.941406 7137.839844 5629.769531 C 7138.011719 5629.589844 7138.261719 5629.738281 7138.621094 5629.519531 C 7138.691406 5629.476562 7138.921875 5629.335938 7138.902344 5629.207031 C 7138.867188 5629 7138.214844 5629.074219 7138.121094 5628.800781 C 7138.0625 5628.628906 7138.300781 5628.519531 7138.433594 5628.113281 C 7138.542969 5627.78125 7138.457031 5627.628906 7138.496094 5627.332031 C 7138.558594 5626.839844 7138.890625 5626.503906 7139.152344 5626.238281 C 7139.621094 5625.761719 7140.117188 5625.589844 7141.058594 5625.269531 C 7142.007812 5624.949219 7142.113281 5625.035156 7142.902344 5624.707031 C 7143.019531 5624.660156 7143.515625 5624.449219 7144.121094 5624.082031 C 7144.746094 5623.703125 7145.0625 5623.515625 7145.246094 5623.238281 C 7145.652344 5622.632812 7145.347656 5622.203125 7145.746094 5621.832031 C 7145.933594 5621.65625 7146.140625 5621.625 7147.027344 5621.550781 C 7147.886719 5621.480469 7148.367188 5621.453125 7148.746094 5621.425781 C 7149.941406 5621.339844 7150.539062 5621.296875 7151.058594 5621.144531 C 7151.652344 5620.972656 7151.890625 5620.808594 7152.371094 5620.863281 C 7152.761719 5620.910156 7152.9375 5621.058594 7153.308594 5620.988281 C 7153.636719 5620.929688 7153.644531 5620.785156 7154.089844 5620.582031 C 7154.4375 5620.425781 7154.757812 5620.382812 7155.402344 5620.300781 C 7156.078125 5620.214844 7156.234375 5620.269531 7156.339844 5620.363281 C 7156.519531 5620.527344 7156.527344 5620.78125 7156.527344 5620.800781 C 7156.53125 5621.339844 7155.78125 5621.753906 7155.246094 5622.050781 C 7154.550781 5622.4375 7153.785156 5622.695312 7153.558594 5622.769531 C 7153.054688 5622.9375 7152.796875 5622.984375 7152.464844 5623.238281 C 7152.171875 5623.460938 7152.125 5623.613281 7151.902344 5623.644531 C 7151.496094 5623.707031 7151.1875 5623.289062 7150.964844 5623.425781 C 7150.890625 5623.472656 7150.878906 5623.546875 7150.839844 5623.640625 C 7150.640625 5624.152344 7150.007812 5624.460938 7149.589844 5624.539062 C 7149.230469 5624.605469 7149.253906 5624.464844 7148.714844 5624.488281 C 7148.15625 5624.515625 7147.738281 5624.683594 7147.566406 5624.753906 C 7146.976562 5624.996094 7147.074219 5625.144531 7146.371094 5625.519531 C 7145.699219 5625.875 7145.328125 5625.894531 7145.214844 5626.238281 C 7145.152344 5626.429688 7145.230469 5626.535156 7145.121094 5626.800781 C 7145.050781 5626.972656 7144.957031 5627.066406 7144.746094 5627.300781 C 7144.210938 5627.886719 7144.304688 5627.808594 7144.183594 5627.925781 C 7144.058594 5628.042969 7143.769531 5628.253906 7143.183594 5628.675781 C 7142.871094 5628.902344 7142.695312 5629.023438 7142.527344 5629.269531 C 7142.40625 5629.445312 7142.425781 5629.484375 7142.339844 5629.550781 C 7142.070312 5629.757812 7141.773438 5629.480469 7141.214844 5629.550781 C 7140.90625 5629.589844 7140.683594 5629.714844 7140.464844 5629.832031 C 7140.007812 5630.082031 7140.050781 5630.226562 7139.714844 5630.363281 C 7139.445312 5630.476562 7139.414062 5630.386719 7138.652344 5630.457031 C 7138.105469 5630.511719 7137.957031 5630.570312 7137.839844 5630.457031 "/>
<path xmlns="http://www.w3.org/2000/svg" fill-rule="nonzero" fill="rgb(78.900146%, 91.56189%, 65.628052%)" fill-opacity="1" d="M 7175.996094 5617.675781 C 7176.253906 5617.078125 7176.128906 5616.894531 7176.308594 5616.425781 C 7176.492188 5615.949219 7176.796875 5615.683594 7177.308594 5615.238281 C 7177.699219 5614.898438 7178.140625 5614.523438 7178.808594 5614.363281 C 7179.253906 5614.257812 7179.722656 5614.269531 7179.746094 5614.363281 C 7179.777344 5614.503906 7178.816406 5614.589844 7178.371094 5615.300781 C 7178.078125 5615.765625 7178.316406 5615.996094 7178.121094 5616.613281 C 7177.730469 5617.828125 7176.351562 5618.359375 7176.433594 5618.488281 C 7176.480469 5618.570312 7177.007812 5618.335938 7176.996094 5618.300781 C 7176.980469 5618.253906 7175.851562 5618.699219 7175.683594 5618.425781 C 7175.605469 5618.300781 7175.796875 5618.136719 7175.996094 5617.675781 "/>
</svg>
