<?xml version="1.0" encoding="UTF-8"?>
<svg xmlns="http://www.w3.org/2000/svg" xmlns:xlink="http://www.w3.org/1999/xlink" viewBox="4756.785 3363.44 2378.3925 1681.72" width="2378.3925" height="1681.72">
<path xmlns="http://www.w3.org/2000/svg" fill-rule="nonzero" fill="rgb(100%, 100%, 100%)" fill-opacity="1" d="M 6979.417969 3393.601562 L 7021.214844 3393.601562 L 7049.722656 3446.425781 L 6979.417969 3446.425781 Z M 6979.417969 3393.601562 "/>
<path xmlns="http://www.w3.org/2000/svg" fill-rule="nonzero" fill="rgb(100%, 100%, 100%)" fill-opacity="1" d="M 5340.21875 4867.21875 C 5329.191406 4867.21875 5320.21875 4858.25 5320.21875 4847.21875 C 5320.21875 4836.191406 5329.191406 4827.21875 5340.21875 4827.21875 C 5351.246094 4827.21875 5360.21875 4836.191406 5360.21875 4847.21875 C 5360.21875 4858.25 5351.246094 4867.21875 5340.21875 4867.21875 "/>
<path xmlns="http://www.w3.org/2000/svg" fill-rule="nonzero" fill="rgb(100%, 100%, 100%)" fill-opacity="1" d="M 5340.21875 4827.957031 C 5329.191406 4827.957031 5320.21875 4818.984375 5320.21875 4807.957031 C 5320.21875 4796.929688 5329.191406 4787.957031 5340.21875 4787.957031 C 5351.246094 4787.957031 5360.21875 4796.929688 5360.21875 4807.957031 C 5360.21875 4818.984375 5351.246094 4827.957031 5340.21875 4827.957031 "/>
<path xmlns="http://www.w3.org/2000/svg" fill-rule="nonzero" fill="rgb(100%, 100%, 100%)" fill-opacity="1" d="M 5608.890625 4867.21875 C 5597.859375 4867.21875 5588.890625 4858.25 5588.890625 4847.21875 C 5588.890625 4836.191406 5597.859375 4827.21875 5608.890625 4827.21875 C 5619.917969 4827.21875 5628.890625 4836.191406 5628.890625 4847.21875 C 5628.890625 4858.25 5619.917969 4867.21875 5608.890625 4867.21875 "/>
<path xmlns="http://www.w3.org/2000/svg" fill-rule="nonzero" fill="rgb(100%, 100%, 100%)" fill-opacity="1" d="M 5608.890625 4827.957031 C 5597.859375 4827.957031 5588.890625 4818.984375 5588.890625 4807.957031 C 5588.890625 4796.929688 5597.859375 4787.957031 5608.890625 4787.957031 C 5619.917969 4787.957031 5628.890625 4796.929688 5628.890625 4807.957031 C 5628.890625 4818.984375 5619.917969 4827.957031 5608.890625 4827.957031 "/>
<path xmlns="http://www.w3.org/2000/svg" fill-rule="nonzero" fill="rgb(100%, 100%, 100%)" fill-opacity="1" d="M 6077.726562 4867.21875 C 6066.699219 4867.21875 6057.726562 4858.25 6057.726562 4847.21875 C 6057.726562 4836.191406 6066.699219 4827.21875 6077.726562 4827.21875 C 6088.753906 4827.21875 6097.726562 4836.191406 6097.726562 4847.21875 C 6097.726562 4858.25 6088.753906 4867.21875 6077.726562 4867.21875 "/>
<path xmlns="http://www.w3.org/2000/svg" fill-rule="nonzero" fill="rgb(100%, 100%, 100%)" fill-opacity="1" d="M 6077.726562 4827.957031 C 6066.699219 4827.957031 6057.726562 4818.984375 6057.726562 4807.957031 C 6057.726562 4796.929688 6066.699219 4787.957031 6077.726562 4787.957031 C 6088.753906 4787.957031 6097.726562 4796.929688 6097.726562 4807.957031 C 6097.726562 4818.984375 6088.753906 4827.957031 6077.726562 4827.957031 "/>
<path xmlns="http://www.w3.org/2000/svg" fill-rule="nonzero" fill="rgb(100%, 100%, 100%)" fill-opacity="1" d="M 6880.265625 4829.015625 C 6869.234375 4829.015625 6860.265625 4820.046875 6860.265625 4809.015625 C 6860.265625 4797.988281 6869.234375 4789.015625 6880.265625 4789.015625 C 6891.292969 4789.015625 6900.265625 4797.988281 6900.265625 4809.015625 C 6900.265625 4820.046875 6891.292969 4829.015625 6880.265625 4829.015625 "/>
<path xmlns="http://www.w3.org/2000/svg" fill-rule="nonzero" fill="rgb(10.572815%, 9.655762%, 10.258484%)" fill-opacity="1" d="M 5340.21875 4870.207031 C 5332.773438 4870.207031 5326.71875 4876.265625 5326.71875 4883.707031 C 5326.71875 4891.152344 5332.773438 4897.207031 5340.21875 4897.207031 C 5347.664062 4897.207031 5353.71875 4891.152344 5353.71875 4883.707031 C 5353.71875 4876.265625 5347.664062 4870.207031 5340.21875 4870.207031 M 5340.21875 4874.707031 C 5345.1875 4874.707031 5349.21875 4878.738281 5349.21875 4883.707031 C 5349.21875 4888.679688 5345.1875 4892.707031 5340.21875 4892.707031 C 5335.246094 4892.707031 5331.21875 4888.679688 5331.21875 4883.707031 C 5331.21875 4878.738281 5335.246094 4874.707031 5340.21875 4874.707031 "/>
<path xmlns="http://www.w3.org/2000/svg" fill-rule="nonzero" fill="rgb(10.572815%, 9.655762%, 10.258484%)" fill-opacity="1" d="M 5104.621094 4870.207031 C 5097.179688 4870.207031 5091.121094 4876.265625 5091.121094 4883.707031 C 5091.121094 4891.152344 5097.179688 4897.207031 5104.621094 4897.207031 C 5112.066406 4897.207031 5118.121094 4891.152344 5118.121094 4883.707031 C 5118.121094 4876.265625 5112.066406 4870.207031 5104.621094 4870.207031 M 5104.621094 4874.707031 C 5109.59375 4874.707031 5113.621094 4878.738281 5113.621094 4883.707031 C 5113.621094 4888.679688 5109.59375 4892.707031 5104.621094 4892.707031 C 5099.652344 4892.707031 5095.621094 4888.679688 5095.621094 4883.707031 C 5095.621094 4878.738281 5099.652344 4874.707031 5104.621094 4874.707031 "/>
<path xmlns="http://www.w3.org/2000/svg" fill-rule="nonzero" fill="rgb(10.572815%, 9.655762%, 10.258484%)" fill-opacity="1" d="M 4887.039062 4870.214844 C 4879.597656 4870.214844 4873.539062 4876.273438 4873.539062 4883.714844 C 4873.539062 4891.160156 4879.597656 4897.214844 4887.039062 4897.214844 C 4894.484375 4897.214844 4900.539062 4891.160156 4900.539062 4883.714844 C 4900.539062 4876.273438 4894.484375 4870.214844 4887.039062 4870.214844 M 4887.039062 4874.714844 C 4892.011719 4874.714844 4896.039062 4878.746094 4896.039062 4883.714844 C 4896.039062 4888.6875 4892.011719 4892.714844 4887.039062 4892.714844 C 4882.070312 4892.714844 4878.039062 4888.6875 4878.039062 4883.714844 C 4878.039062 4878.746094 4882.070312 4874.714844 4887.039062 4874.714844 "/>
<path xmlns="http://www.w3.org/2000/svg" fill-rule="nonzero" fill="rgb(10.572815%, 9.655762%, 10.258484%)" fill-opacity="1" d="M 5608.890625 4870.207031 C 5601.445312 4870.207031 5595.390625 4876.265625 5595.390625 4883.707031 C 5595.390625 4891.152344 5601.445312 4897.207031 5608.890625 4897.207031 C 5616.335938 4897.207031 5622.390625 4891.152344 5622.390625 4883.707031 C 5622.390625 4876.265625 5616.335938 4870.207031 5608.890625 4870.207031 M 5608.890625 4874.707031 C 5613.859375 4874.707031 5617.890625 4878.738281 5617.890625 4883.707031 C 5617.890625 4888.679688 5613.859375 4892.707031 5608.890625 4892.707031 C 5603.921875 4892.707031 5599.890625 4888.679688 5599.890625 4883.707031 C 5599.890625 4878.738281 5603.921875 4874.707031 5608.890625 4874.707031 "/>
<path xmlns="http://www.w3.org/2000/svg" fill-rule="nonzero" fill="rgb(10.572815%, 9.655762%, 10.258484%)" fill-opacity="1" d="M 6522.175781 3669.769531 C 6514.734375 3669.769531 6508.675781 3675.824219 6508.675781 3683.269531 C 6508.675781 3690.710938 6514.734375 3696.769531 6522.175781 3696.769531 C 6529.621094 3696.769531 6535.675781 3690.710938 6535.675781 3683.269531 C 6535.675781 3675.824219 6529.621094 3669.769531 6522.175781 3669.769531 M 6522.175781 3674.269531 C 6527.148438 3674.269531 6531.175781 3678.296875 6531.175781 3683.269531 C 6531.175781 3688.238281 6527.148438 3692.269531 6522.175781 3692.269531 C 6517.207031 3692.269531 6513.175781 3688.238281 6513.175781 3683.269531 C 6513.175781 3678.296875 6517.207031 3674.269531 6522.175781 3674.269531 "/>
<path xmlns="http://www.w3.org/2000/svg" fill-rule="nonzero" fill="rgb(10.572815%, 9.655762%, 10.258484%)" fill-opacity="1" d="M 6663.25 3669.769531 C 6655.804688 3669.769531 6649.75 3675.824219 6649.75 3683.269531 C 6649.75 3690.710938 6655.804688 3696.769531 6663.25 3696.769531 C 6670.695312 3696.769531 6676.75 3690.710938 6676.75 3683.269531 C 6676.75 3675.824219 6670.695312 3669.769531 6663.25 3669.769531 M 6663.25 3674.269531 C 6668.222656 3674.269531 6672.25 3678.296875 6672.25 3683.269531 C 6672.25 3688.238281 6668.222656 3692.269531 6663.25 3692.269531 C 6658.277344 3692.269531 6654.25 3688.238281 6654.25 3683.269531 C 6654.25 3678.296875 6658.277344 3674.269531 6663.25 3674.269531 "/>
<path xmlns="http://www.w3.org/2000/svg" fill-rule="nonzero" fill="rgb(10.572815%, 9.655762%, 10.258484%)" fill-opacity="1" d="M 6819.226562 3669.769531 C 6811.785156 3669.769531 6805.726562 3675.824219 6805.726562 3683.269531 C 6805.726562 3690.710938 6811.785156 3696.769531 6819.226562 3696.769531 C 6826.671875 3696.769531 6832.726562 3690.710938 6832.726562 3683.269531 C 6832.726562 3675.824219 6826.671875 3669.769531 6819.226562 3669.769531 M 6819.226562 3674.269531 C 6824.199219 3674.269531 6828.226562 3678.296875 6828.226562 3683.269531 C 6828.226562 3688.238281 6824.199219 3692.269531 6819.226562 3692.269531 C 6814.257812 3692.269531 6810.226562 3688.238281 6810.226562 3683.269531 C 6810.226562 3678.296875 6814.257812 3674.269531 6819.226562 3674.269531 "/>
<path xmlns="http://www.w3.org/2000/svg" fill-rule="nonzero" fill="rgb(10.572815%, 9.655762%, 10.258484%)" fill-opacity="1" d="M 5807.613281 4149.140625 C 5800.171875 4149.140625 5794.113281 4155.199219 5794.113281 4162.640625 C 5794.113281 4170.085938 5800.171875 4176.140625 5807.613281 4176.140625 C 5815.058594 4176.140625 5821.113281 4170.085938 5821.113281 4162.640625 C 5821.113281 4155.199219 5815.058594 4149.140625 5807.613281 4149.140625 M 5807.613281 4153.640625 C 5812.585938 4153.640625 5816.613281 4157.671875 5816.613281 4162.640625 C 5816.613281 4167.613281 5812.585938 4171.640625 5807.613281 4171.640625 C 5802.644531 4171.640625 5798.613281 4167.613281 5798.613281 4162.640625 C 5798.613281 4157.671875 5802.644531 4153.640625 5807.613281 4153.640625 "/>
<path xmlns="http://www.w3.org/2000/svg" fill-rule="nonzero" fill="rgb(10.572815%, 9.655762%, 10.258484%)" fill-opacity="1" d="M 5829.199219 4470.769531 C 5821.753906 4470.769531 5815.699219 4476.824219 5815.699219 4484.269531 C 5815.699219 4491.710938 5821.753906 4497.769531 5829.199219 4497.769531 C 5836.644531 4497.769531 5842.699219 4491.710938 5842.699219 4484.269531 C 5842.699219 4476.824219 5836.644531 4470.769531 5829.199219 4470.769531 M 5829.199219 4475.269531 C 5834.171875 4475.269531 5838.199219 4479.296875 5838.199219 4484.269531 C 5838.199219 4489.238281 5834.171875 4493.269531 5829.199219 4493.269531 C 5824.230469 4493.269531 5820.199219 4489.238281 5820.199219 4484.269531 C 5820.199219 4479.296875 5824.230469 4475.269531 5829.199219 4475.269531 "/>
<path xmlns="http://www.w3.org/2000/svg" fill-rule="nonzero" fill="rgb(10.572815%, 9.655762%, 10.258484%)" fill-opacity="1" d="M 5851.699219 4470.769531 C 5844.257812 4470.769531 5838.199219 4476.824219 5838.199219 4484.269531 C 5838.199219 4491.710938 5844.257812 4497.769531 5851.699219 4497.769531 C 5859.144531 4497.769531 5865.199219 4491.710938 5865.199219 4484.269531 C 5865.199219 4476.824219 5859.144531 4470.769531 5851.699219 4470.769531 M 5851.699219 4475.269531 C 5856.671875 4475.269531 5860.699219 4479.296875 5860.699219 4484.269531 C 5860.699219 4489.238281 5856.671875 4493.269531 5851.699219 4493.269531 C 5846.730469 4493.269531 5842.699219 4489.238281 5842.699219 4484.269531 C 5842.699219 4479.296875 5846.730469 4475.269531 5851.699219 4475.269531 "/>
<path xmlns="http://www.w3.org/2000/svg" fill-rule="nonzero" fill="rgb(10.572815%, 9.655762%, 10.258484%)" fill-opacity="1" d="M 5874.199219 4470.769531 C 5866.753906 4470.769531 5860.699219 4476.824219 5860.699219 4484.269531 C 5860.699219 4491.710938 5866.753906 4497.769531 5874.199219 4497.769531 C 5881.644531 4497.769531 5887.699219 4491.710938 5887.699219 4484.269531 C 5887.699219 4476.824219 5881.644531 4470.769531 5874.199219 4470.769531 M 5874.199219 4475.269531 C 5879.171875 4475.269531 5883.199219 4479.296875 5883.199219 4484.269531 C 5883.199219 4489.238281 5879.171875 4493.269531 5874.199219 4493.269531 C 5869.230469 4493.269531 5865.199219 4489.238281 5865.199219 4484.269531 C 5865.199219 4479.296875 5869.230469 4475.269531 5874.199219 4475.269531 "/>
<path xmlns="http://www.w3.org/2000/svg" fill-rule="nonzero" fill="rgb(10.572815%, 9.655762%, 10.258484%)" fill-opacity="1" d="M 6389.746094 4187.269531 C 6382.304688 4187.269531 6376.246094 4193.324219 6376.246094 4200.769531 C 6376.246094 4208.210938 6382.304688 4214.269531 6389.746094 4214.269531 C 6397.191406 4214.269531 6403.246094 4208.210938 6403.246094 4200.769531 C 6403.246094 4193.324219 6397.191406 4187.269531 6389.746094 4187.269531 M 6389.746094 4191.769531 C 6394.71875 4191.769531 6398.746094 4195.796875 6398.746094 4200.769531 C 6398.746094 4205.738281 6394.71875 4209.769531 6389.746094 4209.769531 C 6384.777344 4209.769531 6380.746094 4205.738281 6380.746094 4200.769531 C 6380.746094 4195.796875 6384.777344 4191.769531 6389.746094 4191.769531 "/>
<path xmlns="http://www.w3.org/2000/svg" fill-rule="nonzero" fill="rgb(10.572815%, 9.655762%, 10.258484%)" fill-opacity="1" d="M 6571.816406 4187.394531 C 6564.375 4187.394531 6558.316406 4193.449219 6558.316406 4200.894531 C 6558.316406 4208.335938 6564.375 4214.394531 6571.816406 4214.394531 C 6579.261719 4214.394531 6585.316406 4208.335938 6585.316406 4200.894531 C 6585.316406 4193.449219 6579.261719 4187.394531 6571.816406 4187.394531 M 6571.816406 4191.894531 C 6576.789062 4191.894531 6580.816406 4195.921875 6580.816406 4200.894531 C 6580.816406 4205.863281 6576.789062 4209.894531 6571.816406 4209.894531 C 6566.847656 4209.894531 6562.816406 4205.863281 6562.816406 4200.894531 C 6562.816406 4195.921875 6566.847656 4191.894531 6571.816406 4191.894531 "/>
<path xmlns="http://www.w3.org/2000/svg" fill-rule="nonzero" fill="rgb(10.572815%, 9.655762%, 10.258484%)" fill-opacity="1" d="M 6663.007812 4187.269531 C 6655.5625 4187.269531 6649.507812 4193.324219 6649.507812 4200.769531 C 6649.507812 4208.210938 6655.5625 4214.269531 6663.007812 4214.269531 C 6670.449219 4214.269531 6676.507812 4208.210938 6676.507812 4200.769531 C 6676.507812 4193.324219 6670.449219 4187.269531 6663.007812 4187.269531 M 6663.007812 4191.769531 C 6667.976562 4191.769531 6672.007812 4195.796875 6672.007812 4200.769531 C 6672.007812 4205.738281 6667.976562 4209.769531 6663.007812 4209.769531 C 6658.035156 4209.769531 6654.007812 4205.738281 6654.007812 4200.769531 C 6654.007812 4195.796875 6658.035156 4191.769531 6663.007812 4191.769531 "/>
<path xmlns="http://www.w3.org/2000/svg" fill-rule="nonzero" fill="rgb(10.572815%, 9.655762%, 10.258484%)" fill-opacity="1" d="M 6762.175781 4187.269531 C 6754.730469 4187.269531 6748.675781 4193.324219 6748.675781 4200.769531 C 6748.675781 4208.210938 6754.730469 4214.269531 6762.175781 4214.269531 C 6769.621094 4214.269531 6775.675781 4208.210938 6775.675781 4200.769531 C 6775.675781 4193.324219 6769.621094 4187.269531 6762.175781 4187.269531 M 6762.175781 4191.769531 C 6767.144531 4191.769531 6771.175781 4195.796875 6771.175781 4200.769531 C 6771.175781 4205.738281 6767.144531 4209.769531 6762.175781 4209.769531 C 6757.207031 4209.769531 6753.175781 4205.738281 6753.175781 4200.769531 C 6753.175781 4195.796875 6757.207031 4191.769531 6762.175781 4191.769531 "/>
<path xmlns="http://www.w3.org/2000/svg" fill-rule="nonzero" fill="rgb(10.572815%, 9.655762%, 10.258484%)" fill-opacity="1" d="M 6907.6875 4187.269531 C 6900.242188 4187.269531 6894.1875 4193.324219 6894.1875 4200.769531 C 6894.1875 4208.210938 6900.242188 4214.269531 6907.6875 4214.269531 C 6915.128906 4214.269531 6921.1875 4208.210938 6921.1875 4200.769531 C 6921.1875 4193.324219 6915.128906 4187.269531 6907.6875 4187.269531 M 6907.6875 4191.769531 C 6912.65625 4191.769531 6916.6875 4195.796875 6916.6875 4200.769531 C 6916.6875 4205.738281 6912.65625 4209.769531 6907.6875 4209.769531 C 6902.714844 4209.769531 6898.6875 4205.738281 6898.6875 4200.769531 C 6898.6875 4195.796875 6902.714844 4191.769531 6907.6875 4191.769531 "/>
<path xmlns="http://www.w3.org/2000/svg" fill-rule="nonzero" fill="rgb(10.572815%, 9.655762%, 10.258484%)" fill-opacity="1" d="M 7012.78125 4187.269531 C 7005.335938 4187.269531 6999.28125 4193.324219 6999.28125 4200.769531 C 6999.28125 4208.210938 7005.335938 4214.269531 7012.78125 4214.269531 C 7020.226562 4214.269531 7026.28125 4208.210938 7026.28125 4200.769531 C 7026.28125 4193.324219 7020.226562 4187.269531 7012.78125 4187.269531 M 7012.78125 4191.769531 C 7017.753906 4191.769531 7021.78125 4195.796875 7021.78125 4200.769531 C 7021.78125 4205.738281 7017.753906 4209.769531 7012.78125 4209.769531 C 7007.8125 4209.769531 7003.78125 4205.738281 7003.78125 4200.769531 C 7003.78125 4195.796875 7007.8125 4191.769531 7012.78125 4191.769531 "/>
<path xmlns="http://www.w3.org/2000/svg" fill-rule="nonzero" fill="rgb(10.572815%, 9.655762%, 10.258484%)" fill-opacity="1" d="M 7117.878906 4187.269531 C 7110.433594 4187.269531 7104.378906 4193.324219 7104.378906 4200.769531 C 7104.378906 4208.210938 7110.433594 4214.269531 7117.878906 4214.269531 C 7125.320312 4214.269531 7131.378906 4208.210938 7131.378906 4200.769531 C 7131.378906 4193.324219 7125.320312 4187.269531 7117.878906 4187.269531 M 7117.878906 4191.769531 C 7122.847656 4191.769531 7126.878906 4195.796875 7126.878906 4200.769531 C 7126.878906 4205.738281 7122.847656 4209.769531 7117.878906 4209.769531 C 7112.90625 4209.769531 7108.878906 4205.738281 7108.878906 4200.769531 C 7108.878906 4195.796875 7112.90625 4191.769531 7117.878906 4191.769531 "/>
<path xmlns="http://www.w3.org/2000/svg" fill-rule="nonzero" fill="rgb(10.572815%, 9.655762%, 10.258484%)" fill-opacity="1" d="M 6028.207031 3669.769531 C 6020.761719 3669.769531 6014.707031 3675.824219 6014.707031 3683.269531 C 6014.707031 3690.710938 6020.761719 3696.769531 6028.207031 3696.769531 C 6035.648438 3696.769531 6041.707031 3690.710938 6041.707031 3683.269531 C 6041.707031 3675.824219 6035.648438 3669.769531 6028.207031 3669.769531 M 6028.207031 3674.269531 C 6033.175781 3674.269531 6037.207031 3678.296875 6037.207031 3683.269531 C 6037.207031 3688.238281 6033.175781 3692.269531 6028.207031 3692.269531 C 6023.234375 3692.269531 6019.207031 3688.238281 6019.207031 3683.269531 C 6019.207031 3678.296875 6023.234375 3674.269531 6028.207031 3674.269531 "/>
<path xmlns="http://www.w3.org/2000/svg" fill-rule="nonzero" fill="rgb(10.572815%, 9.655762%, 10.258484%)" fill-opacity="1" d="M 6156.707031 3669.769531 C 6149.261719 3669.769531 6143.207031 3675.824219 6143.207031 3683.269531 C 6143.207031 3690.710938 6149.261719 3696.769531 6156.707031 3696.769531 C 6164.148438 3696.769531 6170.207031 3690.710938 6170.207031 3683.269531 C 6170.207031 3675.824219 6164.148438 3669.769531 6156.707031 3669.769531 M 6156.707031 3674.269531 C 6161.675781 3674.269531 6165.707031 3678.296875 6165.707031 3683.269531 C 6165.707031 3688.238281 6161.675781 3692.269531 6156.707031 3692.269531 C 6151.734375 3692.269531 6147.707031 3688.238281 6147.707031 3683.269531 C 6147.707031 3678.296875 6151.734375 3674.269531 6156.707031 3674.269531 "/>
<path xmlns="http://www.w3.org/2000/svg" fill-rule="nonzero" fill="rgb(10.572815%, 9.655762%, 10.258484%)" fill-opacity="1" d="M 5397.328125 3736.394531 C 5393.722656 3736.394531 5390.332031 3737.800781 5387.78125 3740.351562 C 5382.519531 3745.613281 5382.519531 3754.179688 5387.78125 3759.441406 C 5390.332031 3761.992188 5393.722656 3763.394531 5397.328125 3763.394531 C 5400.933594 3763.394531 5404.324219 3761.992188 5406.871094 3759.441406 C 5409.421875 3756.890625 5410.828125 3753.503906 5410.828125 3749.894531 C 5410.828125 3746.289062 5409.421875 3742.898438 5406.871094 3740.351562 C 5404.324219 3737.800781 5400.933594 3736.394531 5397.328125 3736.394531 M 5397.328125 3740.894531 C 5399.628906 3740.894531 5401.933594 3741.773438 5403.691406 3743.53125 C 5407.207031 3747.046875 5407.207031 3752.746094 5403.691406 3756.261719 C 5401.933594 3758.015625 5399.628906 3758.894531 5397.328125 3758.894531 C 5395.023438 3758.894531 5392.722656 3758.015625 5390.964844 3756.261719 C 5387.449219 3752.746094 5387.449219 3747.046875 5390.964844 3743.53125 C 5392.722656 3741.773438 5395.023438 3740.894531 5397.328125 3740.894531 "/>
<path xmlns="http://www.w3.org/2000/svg" fill-rule="nonzero" fill="rgb(10.572815%, 9.655762%, 10.258484%)" fill-opacity="1" d="M 5512.34375 3852.410156 C 5508.734375 3852.410156 5505.347656 3853.816406 5502.796875 3856.363281 C 5500.246094 3858.914062 5498.84375 3862.304688 5498.84375 3865.910156 C 5498.84375 3869.515625 5500.246094 3872.90625 5502.796875 3875.457031 C 5505.347656 3878.007812 5508.734375 3879.410156 5512.34375 3879.410156 C 5515.949219 3879.410156 5519.339844 3878.007812 5521.886719 3875.457031 C 5524.4375 3872.90625 5525.84375 3869.515625 5525.84375 3865.910156 C 5525.84375 3862.304688 5524.4375 3858.914062 5521.886719 3856.363281 C 5519.339844 3853.816406 5515.949219 3852.410156 5512.34375 3852.410156 M 5512.34375 3856.910156 C 5514.644531 3856.910156 5516.949219 3857.789062 5518.707031 3859.546875 C 5522.21875 3863.0625 5522.21875 3868.761719 5518.707031 3872.273438 C 5516.949219 3874.03125 5514.644531 3874.910156 5512.34375 3874.910156 C 5510.039062 3874.910156 5507.734375 3874.03125 5505.976562 3872.273438 C 5502.464844 3868.761719 5502.464844 3863.0625 5505.976562 3859.546875 C 5507.734375 3857.789062 5510.039062 3856.910156 5512.34375 3856.910156 "/>
<path xmlns="http://www.w3.org/2000/svg" fill-rule="nonzero" fill="rgb(10.572815%, 9.655762%, 10.258484%)" fill-opacity="1" d="M 5611.542969 3951.613281 C 5607.9375 3951.613281 5604.546875 3953.015625 5601.996094 3955.566406 C 5599.445312 3958.117188 5598.042969 3961.503906 5598.042969 3965.113281 C 5598.042969 3968.71875 5599.445312 3972.105469 5601.996094 3974.65625 C 5604.546875 3977.207031 5607.9375 3978.613281 5611.542969 3978.613281 C 5615.148438 3978.613281 5618.539062 3977.207031 5621.089844 3974.65625 C 5623.640625 3972.105469 5625.042969 3968.71875 5625.042969 3965.113281 C 5625.042969 3961.503906 5623.640625 3958.117188 5621.089844 3955.566406 C 5618.539062 3953.015625 5615.148438 3951.613281 5611.542969 3951.613281 M 5611.542969 3956.113281 C 5613.847656 3956.113281 5616.148438 3956.992188 5617.90625 3958.746094 C 5621.421875 3962.261719 5621.421875 3967.960938 5617.90625 3971.476562 C 5616.148438 3973.230469 5613.847656 3974.113281 5611.542969 3974.113281 C 5609.238281 3974.113281 5606.9375 3973.230469 5605.179688 3971.476562 C 5601.664062 3967.960938 5601.664062 3962.261719 5605.179688 3958.746094 C 5606.9375 3956.992188 5609.238281 3956.113281 5611.542969 3956.113281 "/>
<path xmlns="http://www.w3.org/2000/svg" fill-rule="nonzero" fill="rgb(10.572815%, 9.655762%, 10.258484%)" fill-opacity="1" d="M 5124.050781 3462.320312 C 5116.605469 3462.320312 5110.550781 3468.375 5110.550781 3475.820312 C 5110.550781 3483.261719 5116.605469 3489.320312 5124.050781 3489.320312 C 5131.492188 3489.320312 5137.550781 3483.261719 5137.550781 3475.820312 C 5137.550781 3468.375 5131.492188 3462.320312 5124.050781 3462.320312 M 5124.050781 3466.820312 C 5129.019531 3466.820312 5133.050781 3470.847656 5133.050781 3475.820312 C 5133.050781 3480.789062 5129.019531 3484.820312 5124.050781 3484.820312 C 5119.078125 3484.820312 5115.050781 3480.789062 5115.050781 3475.820312 C 5115.050781 3470.847656 5119.078125 3466.820312 5124.050781 3466.820312 "/>
<path xmlns="http://www.w3.org/2000/svg" fill-rule="nonzero" fill="rgb(10.572815%, 9.655762%, 10.258484%)" fill-opacity="1" d="M 5100.199219 3362.808594 C 5092.753906 3362.808594 5086.699219 3368.863281 5086.699219 3376.308594 C 5086.699219 3383.75 5092.753906 3389.808594 5100.199219 3389.808594 C 5107.644531 3389.808594 5113.699219 3383.75 5113.699219 3376.308594 C 5113.699219 3368.863281 5107.644531 3362.808594 5100.199219 3362.808594 M 5100.199219 3367.308594 C 5105.167969 3367.308594 5109.199219 3371.335938 5109.199219 3376.308594 C 5109.199219 3381.277344 5105.167969 3385.308594 5100.199219 3385.308594 C 5095.230469 3385.308594 5091.199219 3381.277344 5091.199219 3376.308594 C 5091.199219 3371.335938 5095.230469 3367.308594 5100.199219 3367.308594 "/>
<path xmlns="http://www.w3.org/2000/svg" fill-rule="nonzero" fill="rgb(10.572815%, 9.655762%, 10.258484%)" fill-opacity="1" d="M 5196.882812 3534.878906 C 5189.4375 3534.878906 5183.382812 3540.9375 5183.382812 3548.378906 C 5183.382812 3555.824219 5189.4375 3561.878906 5196.882812 3561.878906 C 5204.328125 3561.878906 5210.382812 3555.824219 5210.382812 3548.378906 C 5210.382812 3540.9375 5204.328125 3534.878906 5196.882812 3534.878906 M 5196.882812 3539.378906 C 5201.851562 3539.378906 5205.882812 3543.410156 5205.882812 3548.378906 C 5205.882812 3553.351562 5201.851562 3557.378906 5196.882812 3557.378906 C 5191.910156 3557.378906 5187.882812 3553.351562 5187.882812 3548.378906 C 5187.882812 3543.410156 5191.910156 3539.378906 5196.882812 3539.378906 "/>
<path xmlns="http://www.w3.org/2000/svg" fill-rule="nonzero" fill="rgb(10.572815%, 9.655762%, 10.258484%)" fill-opacity="1" d="M 5271.542969 3610.8125 C 5264.101562 3610.8125 5258.042969 3616.871094 5258.042969 3624.3125 C 5258.042969 3631.757812 5264.101562 3637.8125 5271.542969 3637.8125 C 5278.988281 3637.8125 5285.042969 3631.757812 5285.042969 3624.3125 C 5285.042969 3616.871094 5278.988281 3610.8125 5271.542969 3610.8125 M 5271.542969 3615.3125 C 5276.515625 3615.3125 5280.542969 3619.34375 5280.542969 3624.3125 C 5280.542969 3629.285156 5276.515625 3633.3125 5271.542969 3633.3125 C 5266.574219 3633.3125 5262.542969 3629.285156 5262.542969 3624.3125 C 5262.542969 3619.34375 5266.574219 3615.3125 5271.542969 3615.3125 "/>
<path xmlns="http://www.w3.org/2000/svg" fill-rule="nonzero" fill="rgb(10.572815%, 9.655762%, 10.258484%)" fill-opacity="1" d="M 6477.050781 4187.269531 C 6469.609375 4187.269531 6463.550781 4193.324219 6463.550781 4200.769531 C 6463.550781 4208.210938 6469.609375 4214.269531 6477.050781 4214.269531 C 6484.496094 4214.269531 6490.550781 4208.210938 6490.550781 4200.769531 C 6490.550781 4193.324219 6484.496094 4187.269531 6477.050781 4187.269531 M 6477.050781 4191.769531 C 6482.023438 4191.769531 6486.050781 4195.796875 6486.050781 4200.769531 C 6486.050781 4205.738281 6482.023438 4209.769531 6477.050781 4209.769531 C 6472.082031 4209.769531 6468.050781 4205.738281 6468.050781 4200.769531 C 6468.050781 4195.796875 6472.082031 4191.769531 6477.050781 4191.769531 "/>
<path xmlns="http://www.w3.org/2000/svg" fill-rule="nonzero" fill="rgb(10.572815%, 9.655762%, 10.258484%)" fill-opacity="1" d="M 6193.699219 4919.988281 C 6186.253906 4919.988281 6180.199219 4926.042969 6180.199219 4933.488281 C 6180.199219 4940.933594 6186.253906 4946.988281 6193.699219 4946.988281 C 6201.144531 4946.988281 6207.199219 4940.933594 6207.199219 4933.488281 C 6207.199219 4926.042969 6201.144531 4919.988281 6193.699219 4919.988281 M 6193.699219 4924.488281 C 6198.671875 4924.488281 6202.699219 4928.519531 6202.699219 4933.488281 C 6202.699219 4938.457031 6198.671875 4942.488281 6193.699219 4942.488281 C 6188.730469 4942.488281 6184.699219 4938.457031 6184.699219 4933.488281 C 6184.699219 4928.519531 6188.730469 4924.488281 6193.699219 4924.488281 "/>
<path xmlns="http://www.w3.org/2000/svg" fill-rule="nonzero" fill="rgb(10.572815%, 9.655762%, 10.258484%)" fill-opacity="1" d="M 6171.199219 4919.988281 C 6163.757812 4919.988281 6157.699219 4926.042969 6157.699219 4933.488281 C 6157.699219 4940.933594 6163.757812 4946.988281 6171.199219 4946.988281 C 6178.644531 4946.988281 6184.699219 4940.933594 6184.699219 4933.488281 C 6184.699219 4926.042969 6178.644531 4919.988281 6171.199219 4919.988281 M 6171.199219 4924.488281 C 6176.171875 4924.488281 6180.199219 4928.519531 6180.199219 4933.488281 C 6180.199219 4938.457031 6176.171875 4942.488281 6171.199219 4942.488281 C 6166.230469 4942.488281 6162.199219 4938.457031 6162.199219 4933.488281 C 6162.199219 4928.519531 6166.230469 4924.488281 6171.199219 4924.488281 "/>
<path xmlns="http://www.w3.org/2000/svg" fill-rule="nonzero" fill="rgb(10.572815%, 9.655762%, 10.258484%)" fill-opacity="1" d="M 6240.417969 4919.988281 C 6232.976562 4919.988281 6226.917969 4926.042969 6226.917969 4933.488281 C 6226.917969 4940.933594 6232.976562 4946.988281 6240.417969 4946.988281 C 6247.863281 4946.988281 6253.917969 4940.933594 6253.917969 4933.488281 C 6253.917969 4926.042969 6247.863281 4919.988281 6240.417969 4919.988281 M 6240.417969 4924.488281 C 6245.390625 4924.488281 6249.417969 4928.519531 6249.417969 4933.488281 C 6249.417969 4938.457031 6245.390625 4942.488281 6240.417969 4942.488281 C 6235.449219 4942.488281 6231.417969 4938.457031 6231.417969 4933.488281 C 6231.417969 4928.519531 6235.449219 4924.488281 6240.417969 4924.488281 "/>
<path xmlns="http://www.w3.org/2000/svg" fill-rule="nonzero" fill="rgb(10.572815%, 9.655762%, 10.258484%)" fill-opacity="1" d="M 6148.171875 4919.988281 C 6140.726562 4919.988281 6134.671875 4926.042969 6134.671875 4933.488281 C 6134.671875 4940.933594 6140.726562 4946.988281 6148.171875 4946.988281 C 6155.613281 4946.988281 6161.671875 4940.933594 6161.671875 4933.488281 C 6161.671875 4926.042969 6155.613281 4919.988281 6148.171875 4919.988281 M 6148.171875 4924.488281 C 6153.140625 4924.488281 6157.171875 4928.519531 6157.171875 4933.488281 C 6157.171875 4938.457031 6153.140625 4942.488281 6148.171875 4942.488281 C 6143.199219 4942.488281 6139.171875 4938.457031 6139.171875 4933.488281 C 6139.171875 4928.519531 6143.199219 4924.488281 6148.171875 4924.488281 "/>
<path xmlns="http://www.w3.org/2000/svg" fill-rule="nonzero" fill="rgb(10.572815%, 9.655762%, 10.258484%)" fill-opacity="1" d="M 6216.199219 4295.84375 C 6208.753906 4295.84375 6202.699219 4301.902344 6202.699219 4309.34375 C 6202.699219 4316.789062 6208.753906 4322.84375 6216.199219 4322.84375 C 6223.644531 4322.84375 6229.699219 4316.789062 6229.699219 4309.34375 C 6229.699219 4301.902344 6223.644531 4295.84375 6216.199219 4295.84375 M 6216.199219 4300.34375 C 6221.171875 4300.34375 6225.199219 4304.375 6225.199219 4309.34375 C 6225.199219 4314.316406 6221.171875 4318.34375 6216.199219 4318.34375 C 6211.230469 4318.34375 6207.199219 4314.316406 6207.199219 4309.34375 C 6207.199219 4304.375 6211.230469 4300.34375 6216.199219 4300.34375 "/>
<path xmlns="http://www.w3.org/2000/svg" fill-rule="nonzero" fill="rgb(10.572815%, 9.655762%, 10.258484%)" fill-opacity="1" d="M 6373.324219 4026.925781 C 6369.71875 4026.925781 6366.328125 4028.332031 6363.777344 4030.878906 C 6361.226562 4033.429688 6359.824219 4036.820312 6359.824219 4040.425781 C 6359.824219 4044.03125 6361.226562 4047.421875 6363.777344 4049.972656 C 6366.328125 4052.519531 6369.71875 4053.925781 6373.324219 4053.925781 C 6376.929688 4053.925781 6380.320312 4052.519531 6382.871094 4049.972656 C 6388.132812 4044.707031 6388.132812 4036.144531 6382.871094 4030.878906 C 6380.320312 4028.332031 6376.929688 4026.925781 6373.324219 4026.925781 M 6373.324219 4031.425781 C 6375.628906 4031.425781 6377.929688 4032.304688 6379.6875 4034.0625 C 6383.203125 4037.578125 6383.203125 4043.273438 6379.6875 4046.789062 C 6377.929688 4048.546875 6375.628906 4049.425781 6373.324219 4049.425781 C 6371.019531 4049.425781 6368.71875 4048.546875 6366.960938 4046.789062 C 6363.445312 4043.273438 6363.445312 4037.578125 6366.960938 4034.0625 C 6368.71875 4032.304688 6371.019531 4031.425781 6373.324219 4031.425781 "/>
<path xmlns="http://www.w3.org/2000/svg" fill-rule="nonzero" fill="rgb(10.572815%, 9.655762%, 10.258484%)" fill-opacity="1" d="M 6418.699219 3885.269531 C 6411.257812 3885.269531 6405.199219 3891.324219 6405.199219 3898.769531 C 6405.199219 3906.210938 6411.257812 3912.269531 6418.699219 3912.269531 C 6426.144531 3912.269531 6432.199219 3906.210938 6432.199219 3898.769531 C 6432.199219 3891.324219 6426.144531 3885.269531 6418.699219 3885.269531 M 6418.699219 3889.769531 C 6423.671875 3889.769531 6427.699219 3893.796875 6427.699219 3898.769531 C 6427.699219 3903.738281 6423.671875 3907.769531 6418.699219 3907.769531 C 6413.730469 3907.769531 6409.699219 3903.738281 6409.699219 3898.769531 C 6409.699219 3893.796875 6413.730469 3889.769531 6418.699219 3889.769531 "/>
<path xmlns="http://www.w3.org/2000/svg" fill-rule="nonzero" fill="rgb(10.572815%, 9.655762%, 10.258484%)" fill-opacity="1" d="M 6441.199219 3885.269531 C 6433.757812 3885.269531 6427.699219 3891.324219 6427.699219 3898.769531 C 6427.699219 3906.210938 6433.757812 3912.269531 6441.199219 3912.269531 C 6448.644531 3912.269531 6454.699219 3906.210938 6454.699219 3898.769531 C 6454.699219 3891.324219 6448.644531 3885.269531 6441.199219 3885.269531 M 6441.199219 3889.769531 C 6446.171875 3889.769531 6450.199219 3893.796875 6450.199219 3898.769531 C 6450.199219 3903.738281 6446.171875 3907.769531 6441.199219 3907.769531 C 6436.230469 3907.769531 6432.199219 3903.738281 6432.199219 3898.769531 C 6432.199219 3893.796875 6436.230469 3889.769531 6441.199219 3889.769531 "/>
<path xmlns="http://www.w3.org/2000/svg" fill-rule="nonzero" fill="rgb(10.572815%, 9.655762%, 10.258484%)" fill-opacity="1" d="M 6418.699219 3777.769531 C 6411.257812 3777.769531 6405.199219 3783.824219 6405.199219 3791.269531 C 6405.199219 3798.710938 6411.257812 3804.769531 6418.699219 3804.769531 C 6426.144531 3804.769531 6432.199219 3798.710938 6432.199219 3791.269531 C 6432.199219 3783.824219 6426.144531 3777.769531 6418.699219 3777.769531 M 6418.699219 3782.269531 C 6423.671875 3782.269531 6427.699219 3786.296875 6427.699219 3791.269531 C 6427.699219 3796.238281 6423.671875 3800.269531 6418.699219 3800.269531 C 6413.730469 3800.269531 6409.699219 3796.238281 6409.699219 3791.269531 C 6409.699219 3786.296875 6413.730469 3782.269531 6418.699219 3782.269531 "/>
<path xmlns="http://www.w3.org/2000/svg" fill-rule="nonzero" fill="rgb(10.572815%, 9.655762%, 10.258484%)" fill-opacity="1" d="M 6441.199219 3777.769531 C 6433.757812 3777.769531 6427.699219 3783.824219 6427.699219 3791.269531 C 6427.699219 3798.710938 6433.757812 3804.769531 6441.199219 3804.769531 C 6448.644531 3804.769531 6454.699219 3798.710938 6454.699219 3791.269531 C 6454.699219 3783.824219 6448.644531 3777.769531 6441.199219 3777.769531 M 6441.199219 3782.269531 C 6446.171875 3782.269531 6450.199219 3786.296875 6450.199219 3791.269531 C 6450.199219 3796.238281 6446.171875 3800.269531 6441.199219 3800.269531 C 6436.230469 3800.269531 6432.199219 3796.238281 6432.199219 3791.269531 C 6432.199219 3786.296875 6436.230469 3782.269531 6441.199219 3782.269531 "/>
<path xmlns="http://www.w3.org/2000/svg" fill-rule="nonzero" fill="rgb(10.572815%, 9.655762%, 10.258484%)" fill-opacity="1" d="M 6035.695312 4688.355469 C 6032.089844 4688.355469 6028.699219 4689.757812 6026.152344 4692.308594 C 6020.886719 4697.574219 6020.886719 4706.136719 6026.152344 4711.402344 C 6028.699219 4713.949219 6032.089844 4715.355469 6035.695312 4715.355469 C 6039.304688 4715.355469 6042.691406 4713.949219 6045.242188 4711.402344 C 6047.792969 4708.851562 6049.195312 4705.460938 6049.195312 4701.855469 C 6049.195312 4698.25 6047.792969 4694.859375 6045.242188 4692.308594 C 6042.691406 4689.757812 6039.304688 4688.355469 6035.695312 4688.355469 M 6035.695312 4692.855469 C 6038 4692.855469 6040.304688 4693.734375 6042.0625 4695.492188 C 6045.574219 4699.007812 6045.574219 4704.703125 6042.0625 4708.21875 C 6040.304688 4709.976562 6038 4710.855469 6035.695312 4710.855469 C 6033.394531 4710.855469 6031.089844 4709.976562 6029.332031 4708.21875 C 6025.820312 4704.703125 6025.820312 4699.007812 6029.332031 4695.492188 C 6031.089844 4693.734375 6033.394531 4692.855469 6035.695312 4692.855469 "/>
<path xmlns="http://www.w3.org/2000/svg" fill-rule="nonzero" fill="rgb(10.572815%, 9.655762%, 10.258484%)" fill-opacity="1" d="M 6019.785156 4704.265625 C 6016.179688 4704.265625 6012.789062 4705.667969 6010.242188 4708.21875 C 6007.691406 4710.769531 6006.285156 4714.160156 6006.285156 4717.765625 C 6006.285156 4721.371094 6007.691406 4724.761719 6010.242188 4727.3125 C 6012.789062 4729.859375 6016.179688 4731.265625 6019.785156 4731.265625 C 6023.394531 4731.265625 6026.78125 4729.859375 6029.332031 4727.3125 C 6034.597656 4722.046875 6034.597656 4713.484375 6029.332031 4708.21875 C 6026.78125 4705.667969 6023.394531 4704.265625 6019.785156 4704.265625 M 6019.785156 4708.765625 C 6022.089844 4708.765625 6024.394531 4709.644531 6026.152344 4711.402344 C 6029.664062 4714.917969 6029.664062 4720.613281 6026.152344 4724.128906 C 6024.394531 4725.886719 6022.089844 4726.765625 6019.785156 4726.765625 C 6017.484375 4726.765625 6015.179688 4725.886719 6013.421875 4724.128906 C 6009.910156 4720.613281 6009.910156 4714.917969 6013.421875 4711.402344 C 6015.179688 4709.644531 6017.484375 4708.765625 6019.785156 4708.765625 "/>
<path xmlns="http://www.w3.org/2000/svg" fill-rule="nonzero" fill="rgb(10.572815%, 9.655762%, 10.258484%)" fill-opacity="1" d="M 5961.605469 4611.855469 C 5958 4611.855469 5954.609375 4613.257812 5952.0625 4615.808594 C 5946.796875 4621.074219 5946.796875 4629.636719 5952.058594 4634.902344 C 5954.609375 4637.449219 5958 4638.855469 5961.605469 4638.855469 C 5965.210938 4638.855469 5968.601562 4637.449219 5971.152344 4634.902344 C 5976.417969 4629.636719 5976.417969 4621.074219 5971.152344 4615.808594 C 5968.601562 4613.257812 5965.210938 4611.855469 5961.605469 4611.855469 M 5961.605469 4616.355469 C 5963.910156 4616.355469 5966.214844 4617.234375 5967.96875 4618.992188 C 5971.484375 4622.507812 5971.484375 4628.203125 5967.96875 4631.71875 C 5966.214844 4633.476562 5963.910156 4634.355469 5961.605469 4634.355469 C 5959.304688 4634.355469 5957 4633.476562 5955.242188 4631.71875 C 5951.726562 4628.203125 5951.726562 4622.507812 5955.242188 4618.992188 C 5957 4617.234375 5959.304688 4616.355469 5961.605469 4616.355469 "/>
<path xmlns="http://www.w3.org/2000/svg" fill-rule="nonzero" fill="rgb(10.572815%, 9.655762%, 10.258484%)" fill-opacity="1" d="M 5945.695312 4627.765625 C 5942.089844 4627.765625 5938.699219 4629.167969 5936.152344 4631.71875 C 5933.601562 4634.269531 5932.195312 4637.660156 5932.195312 4641.265625 C 5932.195312 4644.871094 5933.601562 4648.261719 5936.152344 4650.8125 C 5938.699219 4653.359375 5942.089844 4654.765625 5945.695312 4654.765625 C 5949.300781 4654.765625 5952.691406 4653.359375 5955.242188 4650.8125 C 5960.503906 4645.546875 5960.503906 4636.984375 5955.242188 4631.71875 C 5952.691406 4629.167969 5949.304688 4627.765625 5945.695312 4627.765625 M 5945.695312 4632.265625 C 5948 4632.265625 5950.304688 4633.144531 5952.0625 4634.902344 C 5955.574219 4638.417969 5955.574219 4644.113281 5952.0625 4647.628906 C 5950.304688 4649.386719 5948 4650.265625 5945.695312 4650.265625 C 5943.394531 4650.265625 5941.089844 4649.386719 5939.332031 4647.628906 C 5935.816406 4644.113281 5935.816406 4638.417969 5939.332031 4634.902344 C 5941.089844 4633.144531 5943.394531 4632.265625 5945.695312 4632.265625 "/>
<path xmlns="http://www.w3.org/2000/svg" fill-rule="nonzero" fill="rgb(10.572815%, 9.655762%, 10.258484%)" fill-opacity="1" d="M 5895.984375 4545.570312 C 5892.378906 4545.570312 5888.988281 4546.972656 5886.4375 4549.523438 C 5883.890625 4552.074219 5882.484375 4555.460938 5882.484375 4559.070312 C 5882.484375 4562.675781 5883.890625 4566.066406 5886.4375 4568.613281 C 5888.988281 4571.164062 5892.378906 4572.570312 5895.984375 4572.570312 C 5899.589844 4572.570312 5902.980469 4571.164062 5905.53125 4568.613281 C 5908.082031 4566.066406 5909.484375 4562.675781 5909.484375 4559.070312 C 5909.484375 4555.460938 5908.082031 4552.074219 5905.53125 4549.523438 C 5902.980469 4546.972656 5899.589844 4545.570312 5895.984375 4545.570312 M 5895.984375 4550.070312 C 5898.289062 4550.070312 5900.589844 4550.949219 5902.347656 4552.703125 C 5905.863281 4556.21875 5905.863281 4561.917969 5902.347656 4565.433594 C 5900.589844 4567.191406 5898.289062 4568.070312 5895.984375 4568.070312 C 5893.683594 4568.070312 5891.378906 4567.191406 5889.621094 4565.433594 C 5886.105469 4561.917969 5886.105469 4556.21875 5889.621094 4552.703125 C 5891.378906 4550.949219 5893.683594 4550.070312 5895.984375 4550.070312 "/>
<path xmlns="http://www.w3.org/2000/svg" fill-rule="nonzero" fill="rgb(10.572815%, 9.655762%, 10.258484%)" fill-opacity="1" d="M 5880.074219 4561.480469 C 5876.46875 4561.480469 5873.078125 4562.882812 5870.527344 4565.433594 C 5865.265625 4570.695312 5865.265625 4579.261719 5870.527344 4584.523438 C 5873.078125 4587.074219 5876.46875 4588.480469 5880.074219 4588.480469 C 5883.679688 4588.480469 5887.070312 4587.074219 5889.621094 4584.523438 C 5894.882812 4579.261719 5894.882812 4570.695312 5889.621094 4565.433594 C 5887.070312 4562.882812 5883.679688 4561.480469 5880.074219 4561.480469 M 5880.074219 4565.980469 C 5882.378906 4565.980469 5884.679688 4566.859375 5886.4375 4568.613281 C 5889.953125 4572.128906 5889.953125 4577.828125 5886.4375 4581.34375 C 5884.679688 4583.101562 5882.378906 4583.980469 5880.074219 4583.980469 C 5877.773438 4583.980469 5875.46875 4583.101562 5873.710938 4581.34375 C 5870.195312 4577.828125 5870.195312 4572.128906 5873.710938 4568.613281 C 5875.46875 4566.859375 5877.773438 4565.980469 5880.074219 4565.980469 "/>
<path xmlns="http://www.w3.org/2000/svg" fill-rule="nonzero" fill="rgb(10.572815%, 9.655762%, 10.258484%)" fill-opacity="1" d="M 5985.707031 4187.269531 C 5978.261719 4187.269531 5972.207031 4193.324219 5972.207031 4200.769531 C 5972.207031 4208.210938 5978.261719 4214.269531 5985.707031 4214.269531 C 5993.148438 4214.269531 5999.207031 4208.210938 5999.207031 4200.769531 C 5999.207031 4193.324219 5993.148438 4187.269531 5985.707031 4187.269531 M 5985.707031 4191.769531 C 5990.675781 4191.769531 5994.707031 4195.796875 5994.707031 4200.769531 C 5994.707031 4205.738281 5990.675781 4209.769531 5985.707031 4209.769531 C 5980.734375 4209.769531 5976.707031 4205.738281 5976.707031 4200.769531 C 5976.707031 4195.796875 5980.734375 4191.769531 5985.707031 4191.769531 "/>
<path xmlns="http://www.w3.org/2000/svg" fill-rule="nonzero" fill="rgb(10.572815%, 9.655762%, 10.258484%)" fill-opacity="1" d="M 6215.917969 4390.695312 C 6208.472656 4390.695312 6202.417969 4396.753906 6202.417969 4404.195312 C 6202.417969 4411.640625 6208.472656 4417.695312 6215.917969 4417.695312 C 6223.359375 4417.695312 6229.417969 4411.640625 6229.417969 4404.195312 C 6229.417969 4396.753906 6223.359375 4390.695312 6215.917969 4390.695312 M 6215.917969 4395.195312 C 6220.886719 4395.195312 6224.917969 4399.226562 6224.917969 4404.195312 C 6224.917969 4409.167969 6220.886719 4413.195312 6215.917969 4413.195312 C 6210.945312 4413.195312 6206.917969 4409.167969 6206.917969 4404.195312 C 6206.917969 4399.226562 6210.945312 4395.195312 6215.917969 4395.195312 "/>
<path xmlns="http://www.w3.org/2000/svg" fill-rule="nonzero" fill="rgb(10.572815%, 9.655762%, 10.258484%)" fill-opacity="1" d="M 6215.917969 4485.550781 C 6208.472656 4485.550781 6202.417969 4491.605469 6202.417969 4499.050781 C 6202.417969 4506.492188 6208.472656 4512.550781 6215.917969 4512.550781 C 6223.359375 4512.550781 6229.417969 4506.492188 6229.417969 4499.050781 C 6229.417969 4491.605469 6223.359375 4485.550781 6215.917969 4485.550781 M 6215.917969 4490.050781 C 6220.886719 4490.050781 6224.917969 4494.078125 6224.917969 4499.050781 C 6224.917969 4504.019531 6220.886719 4508.050781 6215.917969 4508.050781 C 6210.945312 4508.050781 6206.917969 4504.019531 6206.917969 4499.050781 C 6206.917969 4494.078125 6210.945312 4490.050781 6215.917969 4490.050781 "/>
<path xmlns="http://www.w3.org/2000/svg" fill-rule="nonzero" fill="rgb(10.572815%, 9.655762%, 10.258484%)" fill-opacity="1" d="M 6215.917969 4580.402344 C 6208.472656 4580.402344 6202.417969 4586.457031 6202.417969 4593.902344 C 6202.417969 4601.34375 6208.472656 4607.402344 6215.917969 4607.402344 C 6223.359375 4607.402344 6229.417969 4601.34375 6229.417969 4593.902344 C 6229.417969 4586.457031 6223.359375 4580.402344 6215.917969 4580.402344 M 6215.917969 4584.902344 C 6220.886719 4584.902344 6224.917969 4588.929688 6224.917969 4593.902344 C 6224.917969 4598.871094 6220.886719 4602.902344 6215.917969 4602.902344 C 6210.945312 4602.902344 6206.917969 4598.871094 6206.917969 4593.902344 C 6206.917969 4588.929688 6210.945312 4584.902344 6215.917969 4584.902344 "/>
<path xmlns="http://www.w3.org/2000/svg" fill-rule="nonzero" fill="rgb(10.572815%, 9.655762%, 10.258484%)" fill-opacity="1" d="M 6215.917969 4675.253906 C 6208.472656 4675.253906 6202.417969 4681.308594 6202.417969 4688.753906 C 6202.417969 4696.195312 6208.472656 4702.253906 6215.917969 4702.253906 C 6223.359375 4702.253906 6229.417969 4696.195312 6229.417969 4688.753906 C 6229.417969 4681.308594 6223.359375 4675.253906 6215.917969 4675.253906 M 6215.917969 4679.753906 C 6220.886719 4679.753906 6224.917969 4683.78125 6224.917969 4688.753906 C 6224.917969 4693.722656 6220.886719 4697.753906 6215.917969 4697.753906 C 6210.945312 4697.753906 6206.917969 4693.722656 6206.917969 4688.753906 C 6206.917969 4683.78125 6210.945312 4679.753906 6215.917969 4679.753906 "/>
<path xmlns="http://www.w3.org/2000/svg" fill-rule="nonzero" fill="rgb(10.572815%, 9.655762%, 10.258484%)" fill-opacity="1" d="M 6240.417969 4675.253906 C 6232.976562 4675.253906 6226.917969 4681.308594 6226.917969 4688.753906 C 6226.917969 4696.195312 6232.976562 4702.253906 6240.417969 4702.253906 C 6247.863281 4702.253906 6253.917969 4696.195312 6253.917969 4688.753906 C 6253.917969 4681.308594 6247.863281 4675.253906 6240.417969 4675.253906 M 6240.417969 4679.753906 C 6245.390625 4679.753906 6249.417969 4683.78125 6249.417969 4688.753906 C 6249.417969 4693.722656 6245.390625 4697.753906 6240.417969 4697.753906 C 6235.449219 4697.753906 6231.417969 4693.722656 6231.417969 4688.753906 C 6231.417969 4683.78125 6235.449219 4679.753906 6240.417969 4679.753906 "/>
<path xmlns="http://www.w3.org/2000/svg" fill-rule="nonzero" fill="rgb(10.572815%, 9.655762%, 10.258484%)" fill-opacity="1" d="M 6418.699219 3441.273438 C 6411.253906 3441.273438 6405.199219 3447.332031 6405.199219 3454.773438 C 6405.199219 3462.21875 6411.253906 3468.273438 6418.699219 3468.273438 C 6426.144531 3468.273438 6432.199219 3462.21875 6432.199219 3454.773438 C 6432.199219 3447.332031 6426.144531 3441.273438 6418.699219 3441.273438 M 6418.699219 3445.773438 C 6423.671875 3445.773438 6427.699219 3449.804688 6427.699219 3454.773438 C 6427.699219 3459.746094 6423.671875 3463.773438 6418.699219 3463.773438 C 6413.730469 3463.773438 6409.699219 3459.746094 6409.699219 3454.773438 C 6409.699219 3449.804688 6413.730469 3445.773438 6418.699219 3445.773438 "/>
<path xmlns="http://www.w3.org/2000/svg" fill-rule="nonzero" fill="rgb(10.572815%, 9.655762%, 10.258484%)" fill-opacity="1" d="M 6441.199219 3441.273438 C 6433.753906 3441.273438 6427.699219 3447.332031 6427.699219 3454.773438 C 6427.699219 3462.21875 6433.753906 3468.273438 6441.199219 3468.273438 C 6448.644531 3468.273438 6454.699219 3462.21875 6454.699219 3454.773438 C 6454.699219 3447.332031 6448.644531 3441.273438 6441.199219 3441.273438 M 6441.199219 3445.773438 C 6446.171875 3445.773438 6450.199219 3449.804688 6450.199219 3454.773438 C 6450.199219 3459.746094 6446.171875 3463.773438 6441.199219 3463.773438 C 6436.230469 3463.773438 6432.199219 3459.746094 6432.199219 3454.773438 C 6432.199219 3449.804688 6436.230469 3445.773438 6441.199219 3445.773438 "/>
<path xmlns="http://www.w3.org/2000/svg" fill-rule="nonzero" fill="rgb(10.572815%, 9.655762%, 10.258484%)" fill-opacity="1" d="M 6418.699219 3542.160156 C 6411.253906 3542.160156 6405.199219 3548.214844 6405.199219 3555.660156 C 6405.199219 3563.105469 6411.253906 3569.160156 6418.699219 3569.160156 C 6426.144531 3569.160156 6432.199219 3563.105469 6432.199219 3555.660156 C 6432.199219 3548.214844 6426.144531 3542.160156 6418.699219 3542.160156 M 6418.699219 3546.660156 C 6423.671875 3546.660156 6427.699219 3550.691406 6427.699219 3555.660156 C 6427.699219 3560.628906 6423.671875 3564.660156 6418.699219 3564.660156 C 6413.730469 3564.660156 6409.699219 3560.628906 6409.699219 3555.660156 C 6409.699219 3550.691406 6413.730469 3546.660156 6418.699219 3546.660156 "/>
<path xmlns="http://www.w3.org/2000/svg" fill-rule="nonzero" fill="rgb(10.572815%, 9.655762%, 10.258484%)" fill-opacity="1" d="M 6441.199219 3542.160156 C 6433.753906 3542.160156 6427.699219 3548.214844 6427.699219 3555.660156 C 6427.699219 3563.105469 6433.753906 3569.160156 6441.199219 3569.160156 C 6448.644531 3569.160156 6454.699219 3563.105469 6454.699219 3555.660156 C 6454.699219 3548.214844 6448.644531 3542.160156 6441.199219 3542.160156 M 6441.199219 3546.660156 C 6446.171875 3546.660156 6450.199219 3550.691406 6450.199219 3555.660156 C 6450.199219 3560.628906 6446.171875 3564.660156 6441.199219 3564.660156 C 6436.230469 3564.660156 6432.199219 3560.628906 6432.199219 3555.660156 C 6432.199219 3550.691406 6436.230469 3546.660156 6441.199219 3546.660156 "/>
<path xmlns="http://www.w3.org/2000/svg" fill-rule="nonzero" fill="rgb(10.572815%, 9.655762%, 10.258484%)" fill-opacity="1" d="M 5897.199219 3669.769531 C 5889.753906 3669.769531 5883.699219 3675.824219 5883.699219 3683.269531 C 5883.699219 3690.710938 5889.753906 3696.769531 5897.199219 3696.769531 C 5904.640625 3696.769531 5910.699219 3690.710938 5910.699219 3683.269531 C 5910.699219 3675.824219 5904.640625 3669.769531 5897.199219 3669.769531 M 5897.199219 3674.269531 C 5902.167969 3674.269531 5906.199219 3678.296875 5906.199219 3683.269531 C 5906.199219 3688.238281 5902.167969 3692.269531 5897.199219 3692.269531 C 5892.226562 3692.269531 5888.199219 3688.238281 5888.199219 3683.269531 C 5888.199219 3678.296875 5892.226562 3674.269531 5897.199219 3674.269531 "/>
<path xmlns="http://www.w3.org/2000/svg" fill-rule="nonzero" fill="rgb(10.572815%, 9.655762%, 10.258484%)" fill-opacity="1" d="M 5836.835938 4379.257812 L 5821.566406 4379.257812 C 5819.761719 4379.257812 5818.085938 4380.148438 5817.074219 4381.640625 C 5816.0625 4383.132812 5815.859375 4385.023438 5816.527344 4386.695312 L 5824.164062 4405.78125 C 5824.992188 4407.855469 5826.96875 4409.191406 5829.199219 4409.191406 C 5831.429688 4409.191406 5833.40625 4407.855469 5834.234375 4405.785156 L 5841.871094 4386.695312 C 5842.539062 4385.023438 5842.335938 4383.132812 5841.328125 4381.640625 C 5840.316406 4380.148438 5838.636719 4379.257812 5836.835938 4379.257812 M 5836.835938 4383.757812 C 5837.488281 4383.757812 5837.933594 4384.417969 5837.691406 4385.027344 L 5830.058594 4404.113281 C 5829.902344 4404.5 5829.550781 4404.691406 5829.199219 4404.691406 C 5828.847656 4404.691406 5828.496094 4404.5 5828.339844 4404.113281 L 5820.707031 4385.027344 C 5820.464844 4384.417969 5820.910156 4383.757812 5821.566406 4383.757812 Z M 5836.835938 4383.757812 "/>
<path xmlns="http://www.w3.org/2000/svg" fill-rule="nonzero" fill="rgb(10.572815%, 9.655762%, 10.258484%)" fill-opacity="1" d="M 5836.789062 4293.867188 L 5821.519531 4293.867188 C 5819.71875 4293.867188 5818.039062 4294.757812 5817.027344 4296.25 C 5816.019531 4297.742188 5815.816406 4299.632812 5816.484375 4301.304688 L 5824.117188 4320.394531 C 5824.945312 4322.464844 5826.925781 4323.804688 5829.15625 4323.804688 C 5831.386719 4323.804688 5833.363281 4322.464844 5834.191406 4320.390625 L 5841.828125 4301.304688 C 5842.496094 4299.632812 5842.292969 4297.742188 5841.28125 4296.25 C 5840.269531 4294.757812 5838.59375 4293.867188 5836.789062 4293.867188 M 5836.789062 4298.367188 C 5837.445312 4298.367188 5837.890625 4299.027344 5837.648438 4299.636719 L 5830.015625 4318.722656 C 5829.859375 4319.109375 5829.507812 4319.304688 5829.15625 4319.304688 C 5828.804688 4319.304688 5828.453125 4319.109375 5828.296875 4318.722656 L 5820.664062 4299.636719 C 5820.417969 4299.027344 5820.867188 4298.367188 5821.519531 4298.367188 Z M 5836.789062 4298.367188 "/>
<path xmlns="http://www.w3.org/2000/svg" fill-rule="nonzero" fill="rgb(10.572815%, 9.655762%, 10.258484%)" fill-opacity="1" d="M 5859.335938 4379.257812 L 5844.066406 4379.257812 C 5842.261719 4379.257812 5840.585938 4380.148438 5839.574219 4381.640625 C 5838.5625 4383.132812 5838.359375 4385.023438 5839.027344 4386.695312 L 5846.664062 4405.785156 C 5847.492188 4407.855469 5849.46875 4409.191406 5851.699219 4409.191406 C 5853.929688 4409.191406 5855.910156 4407.855469 5856.738281 4405.78125 L 5864.371094 4386.695312 C 5865.039062 4385.023438 5864.835938 4383.132812 5863.828125 4381.640625 C 5862.816406 4380.148438 5861.136719 4379.257812 5859.335938 4379.257812 M 5859.335938 4383.757812 C 5859.988281 4383.757812 5860.4375 4384.417969 5860.191406 4385.027344 L 5852.558594 4404.113281 C 5852.402344 4404.5 5852.050781 4404.691406 5851.699219 4404.691406 C 5851.347656 4404.691406 5850.996094 4404.5 5850.839844 4404.113281 L 5843.207031 4385.027344 C 5842.964844 4384.417969 5843.410156 4383.757812 5844.066406 4383.757812 Z M 5859.335938 4383.757812 "/>
<path xmlns="http://www.w3.org/2000/svg" fill-rule="nonzero" fill="rgb(10.572815%, 9.655762%, 10.258484%)" fill-opacity="1" d="M 5494.316406 3869.359375 C 5492.867188 3869.359375 5491.507812 3869.925781 5490.480469 3870.949219 L 5479.683594 3881.746094 C 5478.410156 3883.019531 5477.851562 3884.839844 5478.195312 3886.609375 C 5478.535156 3888.378906 5479.726562 3889.859375 5481.382812 3890.566406 L 5500.277344 3898.664062 C 5500.960938 3898.957031 5501.683594 3899.105469 5502.417969 3899.105469 C 5504.246094 3899.105469 5505.9375 3898.191406 5506.949219 3896.660156 C 5507.953125 3895.136719 5508.121094 3893.222656 5507.402344 3891.542969 L 5499.304688 3872.648438 C 5498.445312 3870.648438 5496.488281 3869.359375 5494.316406 3869.359375 M 5494.316406 3873.859375 C 5494.667969 3873.859375 5495.011719 3874.058594 5495.167969 3874.421875 L 5503.265625 3893.316406 C 5503.539062 3893.957031 5503.039062 3894.605469 5502.417969 3894.605469 C 5502.300781 3894.605469 5502.175781 3894.582031 5502.050781 3894.527344 L 5483.15625 3886.429688 C 5482.554688 3886.175781 5482.40625 3885.390625 5482.867188 3884.929688 L 5493.664062 3874.132812 C 5493.847656 3873.945312 5494.082031 3873.859375 5494.316406 3873.859375 "/>
<path xmlns="http://www.w3.org/2000/svg" fill-rule="nonzero" fill="rgb(10.572815%, 9.655762%, 10.258484%)" fill-opacity="1" d="M 5376.675781 3751.722656 C 5375.230469 3751.722656 5373.867188 3752.285156 5372.84375 3753.3125 L 5362.046875 3764.109375 C 5360.773438 3765.382812 5360.214844 3767.199219 5360.554688 3768.96875 C 5360.898438 3770.742188 5362.089844 3772.21875 5363.746094 3772.929688 L 5382.640625 3781.027344 C 5383.324219 3781.320312 5384.042969 3781.46875 5384.78125 3781.46875 C 5386.609375 3781.46875 5388.300781 3780.554688 5389.3125 3779.023438 C 5390.316406 3777.5 5390.484375 3775.585938 5389.761719 3773.90625 L 5381.664062 3755.011719 C 5380.808594 3753.011719 5378.851562 3751.722656 5376.675781 3751.722656 M 5376.675781 3756.222656 C 5377.027344 3756.222656 5377.375 3756.421875 5377.53125 3756.785156 L 5385.628906 3775.679688 C 5385.902344 3776.320312 5385.402344 3776.96875 5384.78125 3776.96875 C 5384.664062 3776.96875 5384.539062 3776.945312 5384.414062 3776.890625 L 5365.519531 3768.792969 C 5364.917969 3768.535156 5364.765625 3767.753906 5365.230469 3767.289062 L 5376.027344 3756.492188 C 5376.210938 3756.308594 5376.445312 3756.222656 5376.675781 3756.222656 "/>
<path xmlns="http://www.w3.org/2000/svg" fill-rule="nonzero" fill="rgb(10.572815%, 9.655762%, 10.258484%)" fill-opacity="1" d="M 5593.515625 3968.238281 C 5592.070312 3968.238281 5590.707031 3968.800781 5589.683594 3969.828125 L 5578.886719 3980.625 C 5577.609375 3981.898438 5577.054688 3983.714844 5577.394531 3985.484375 C 5577.734375 3987.253906 5578.925781 3988.734375 5580.585938 3989.445312 L 5599.480469 3997.542969 C 5600.160156 3997.835938 5600.882812 3997.984375 5601.621094 3997.984375 C 5603.445312 3997.984375 5605.136719 3997.070312 5606.148438 3995.539062 C 5607.152344 3994.015625 5607.324219 3992.101562 5606.601562 3990.421875 L 5598.503906 3971.527344 C 5597.648438 3969.527344 5595.691406 3968.238281 5593.515625 3968.238281 M 5593.515625 3972.738281 C 5593.867188 3972.738281 5594.210938 3972.9375 5594.367188 3973.296875 L 5602.464844 3992.191406 C 5602.742188 3992.835938 5602.242188 3993.484375 5601.621094 3993.484375 C 5601.5 3993.484375 5601.375 3993.460938 5601.25 3993.40625 L 5582.355469 3985.308594 C 5581.753906 3985.050781 5581.605469 3984.269531 5582.066406 3983.804688 L 5592.863281 3973.007812 C 5593.046875 3972.824219 5593.285156 3972.738281 5593.515625 3972.738281 "/>
<path xmlns="http://www.w3.org/2000/svg" fill-rule="nonzero" fill="rgb(10.572815%, 9.655762%, 10.258484%)" fill-opacity="1" d="M 5416.3125 3670.332031 C 5413.320312 3670.332031 5410.890625 3672.765625 5410.890625 3675.757812 L 5410.890625 3691.027344 C 5410.890625 3694.019531 5413.320312 3696.453125 5416.3125 3696.453125 C 5417.003906 3696.453125 5417.683594 3696.320312 5418.328125 3696.0625 L 5437.414062 3688.429688 C 5439.484375 3687.601562 5440.824219 3685.625 5440.824219 3683.394531 C 5440.824219 3681.164062 5439.488281 3679.1875 5437.414062 3678.355469 L 5418.328125 3670.722656 C 5417.683594 3670.464844 5417.003906 3670.332031 5416.3125 3670.332031 M 5416.3125 3674.832031 C 5416.425781 3674.832031 5416.542969 3674.855469 5416.65625 3674.898438 L 5435.742188 3682.535156 C 5436.519531 3682.84375 5436.519531 3683.941406 5435.742188 3684.25 L 5416.65625 3691.886719 C 5416.542969 3691.933594 5416.425781 3691.953125 5416.3125 3691.953125 C 5415.824219 3691.953125 5415.390625 3691.558594 5415.390625 3691.027344 L 5415.390625 3675.757812 C 5415.390625 3675.226562 5415.824219 3674.832031 5416.3125 3674.832031 "/>
<path xmlns="http://www.w3.org/2000/svg" fill-rule="nonzero" fill="rgb(10.572815%, 9.655762%, 10.258484%)" fill-opacity="1" d="M 6315.742188 3670.914062 C 6315.050781 3670.914062 6314.371094 3671.042969 6313.726562 3671.300781 L 6294.640625 3678.9375 C 6292.570312 3679.765625 6291.230469 3681.742188 6291.230469 3683.972656 C 6291.230469 3686.203125 6292.570312 3688.183594 6294.640625 3689.011719 L 6313.726562 3696.644531 C 6314.375 3696.902344 6315.050781 3697.035156 6315.742188 3697.035156 C 6318.734375 3697.035156 6321.167969 3694.601562 6321.167969 3691.609375 L 6321.167969 3676.339844 C 6321.167969 3673.347656 6318.734375 3670.914062 6315.742188 3670.914062 M 6315.742188 3675.414062 C 6316.230469 3675.414062 6316.667969 3675.808594 6316.667969 3676.339844 L 6316.667969 3691.609375 C 6316.667969 3692.140625 6316.230469 3692.535156 6315.742188 3692.535156 C 6315.628906 3692.535156 6315.515625 3692.511719 6315.398438 3692.464844 L 6296.3125 3684.832031 C 6295.539062 3684.523438 6295.539062 3683.425781 6296.3125 3683.117188 L 6315.398438 3675.480469 C 6315.515625 3675.433594 6315.628906 3675.414062 6315.742188 3675.414062 "/>
<path xmlns="http://www.w3.org/2000/svg" fill-rule="nonzero" fill="rgb(10.572815%, 9.655762%, 10.258484%)" fill-opacity="1" d="M 6296.65625 3642.488281 C 6293.664062 3642.488281 6291.230469 3644.921875 6291.230469 3647.910156 L 6291.230469 3663.183594 C 6291.230469 3666.171875 6293.664062 3668.605469 6296.65625 3668.605469 C 6297.347656 3668.605469 6298.023438 3668.476562 6298.671875 3668.21875 L 6317.757812 3660.582031 C 6319.828125 3659.753906 6321.167969 3657.777344 6321.167969 3655.546875 C 6321.167969 3653.316406 6319.828125 3651.339844 6317.757812 3650.511719 L 6298.671875 3642.875 C 6298.023438 3642.617188 6297.347656 3642.488281 6296.65625 3642.488281 M 6296.65625 3646.988281 C 6296.769531 3646.988281 6296.882812 3647.007812 6297 3647.054688 L 6316.085938 3654.6875 C 6316.859375 3655 6316.859375 3656.09375 6316.085938 3656.40625 L 6297 3664.039062 C 6296.882812 3664.085938 6296.769531 3664.105469 6296.65625 3664.105469 C 6296.167969 3664.105469 6295.730469 3663.710938 6295.730469 3663.183594 L 6295.730469 3647.910156 C 6295.730469 3647.382812 6296.167969 3646.988281 6296.65625 3646.988281 "/>
<path xmlns="http://www.w3.org/2000/svg" fill-rule="nonzero" fill="rgb(100%, 100%, 100%)" fill-opacity="1" d="M 7092.613281 3459.957031 C 7080.757812 3459.957031 7071.113281 3450.3125 7071.113281 3438.457031 C 7071.113281 3426.601562 7080.757812 3416.957031 7092.613281 3416.957031 C 7104.46875 3416.957031 7114.113281 3426.601562 7114.113281 3438.457031 C 7114.113281 3450.3125 7104.46875 3459.957031 7092.613281 3459.957031 "/>
<path xmlns="http://www.w3.org/2000/svg" fill-rule="nonzero" fill="rgb(100%, 100%, 100%)" fill-opacity="1" d="M 7092.613281 3608.078125 C 7080.757812 3608.078125 7071.113281 3598.433594 7071.113281 3586.578125 C 7071.113281 3574.722656 7080.757812 3565.078125 7092.613281 3565.078125 C 7104.46875 3565.078125 7114.113281 3574.722656 7114.113281 3586.578125 C 7114.113281 3598.433594 7104.46875 3608.078125 7092.613281 3608.078125 "/>
<path xmlns="http://www.w3.org/2000/svg" fill-rule="nonzero" fill="rgb(100%, 100%, 100%)" fill-opacity="1" d="M 4867.035156 3882.292969 C 4856.007812 3882.292969 4847.035156 3873.320312 4847.035156 3862.292969 C 4847.035156 3851.265625 4856.007812 3842.292969 4867.035156 3842.292969 C 4878.0625 3842.292969 4887.035156 3851.265625 4887.035156 3862.292969 C 4887.035156 3873.320312 4878.0625 3882.292969 4867.035156 3882.292969 "/>
<path xmlns="http://www.w3.org/2000/svg" fill-rule="nonzero" fill="rgb(100%, 100%, 100%)" fill-opacity="1" d="M 4895.316406 3853.011719 C 4884.289062 3853.011719 4875.316406 3844.039062 4875.316406 3833.011719 C 4875.316406 3821.984375 4884.289062 3813.011719 4895.316406 3813.011719 C 4906.34375 3813.011719 4915.316406 3821.984375 4915.316406 3833.011719 C 4915.316406 3844.039062 4906.34375 3853.011719 4895.316406 3853.011719 "/>
<path xmlns="http://www.w3.org/2000/svg" fill-rule="nonzero" fill="rgb(100%, 100%, 100%)" fill-opacity="1" d="M 5662.527344 4142.019531 C 5651.496094 4142.019531 5642.527344 4133.046875 5642.527344 4122.019531 C 5642.527344 4110.992188 5651.496094 4102.019531 5662.527344 4102.019531 C 5673.554688 4102.019531 5682.527344 4110.992188 5682.527344 4122.019531 C 5682.527344 4133.046875 5673.554688 4142.019531 5662.527344 4142.019531 "/>
<path xmlns="http://www.w3.org/2000/svg" fill-rule="nonzero" fill="rgb(100%, 100%, 100%)" fill-opacity="1" d="M 5985.871094 4139.890625 C 5974.84375 4139.890625 5965.871094 4130.921875 5965.871094 4119.890625 C 5965.871094 4108.863281 5974.84375 4099.890625 5985.871094 4099.890625 C 5996.898438 4099.890625 6005.871094 4108.863281 6005.871094 4119.890625 C 6005.871094 4130.921875 5996.898438 4139.890625 5985.871094 4139.890625 "/>
<path xmlns="http://www.w3.org/2000/svg" fill-rule="nonzero" fill="rgb(100%, 100%, 100%)" fill-opacity="1" d="M 6762.175781 4139.890625 C 6751.148438 4139.890625 6742.175781 4130.921875 6742.175781 4119.890625 C 6742.175781 4108.863281 6751.148438 4099.890625 6762.175781 4099.890625 C 6773.203125 4099.890625 6782.175781 4108.863281 6782.175781 4119.890625 C 6782.175781 4130.921875 6773.203125 4139.890625 6762.175781 4139.890625 "/>
<path xmlns="http://www.w3.org/2000/svg" fill-rule="nonzero" fill="rgb(100%, 100%, 100%)" fill-opacity="1" d="M 5509.574219 3365.769531 C 5498.542969 3365.769531 5489.574219 3356.796875 5489.574219 3345.769531 C 5489.574219 3334.742188 5498.542969 3325.769531 5509.574219 3325.769531 C 5520.601562 3325.769531 5529.574219 3334.742188 5529.574219 3345.769531 C 5529.574219 3356.796875 5520.601562 3365.769531 5509.574219 3365.769531 "/>
<path xmlns="http://www.w3.org/2000/svg" fill-rule="nonzero" fill="rgb(100%, 100%, 100%)" fill-opacity="1" d="M 5709.976562 3567.261719 C 5698.945312 3567.261719 5689.976562 3558.289062 5689.976562 3547.261719 C 5689.976562 3536.234375 5698.945312 3527.261719 5709.976562 3527.261719 C 5721.003906 3527.261719 5729.976562 3536.234375 5729.976562 3547.261719 C 5729.976562 3558.289062 5721.003906 3567.261719 5709.976562 3567.261719 "/>
<path xmlns="http://www.w3.org/2000/svg" fill-rule="nonzero" fill="rgb(100%, 100%, 100%)" fill-opacity="1" d="M 5847.746094 3879.285156 C 5836.71875 3879.285156 5827.746094 3870.3125 5827.746094 3859.285156 C 5827.746094 3848.257812 5836.71875 3839.285156 5847.746094 3839.285156 C 5858.777344 3839.285156 5867.746094 3848.257812 5867.746094 3859.285156 C 5867.746094 3870.3125 5858.777344 3879.285156 5847.746094 3879.285156 "/>
<path xmlns="http://www.w3.org/2000/svg" fill-rule="nonzero" fill="rgb(100%, 100%, 100%)" fill-opacity="1" d="M 5280.199219 4451.203125 C 5269.171875 4451.203125 5260.199219 4442.234375 5260.199219 4431.203125 C 5260.199219 4420.179688 5269.171875 4411.203125 5280.199219 4411.203125 C 5291.226562 4411.203125 5300.199219 4420.179688 5300.199219 4431.203125 C 5300.199219 4442.234375 5291.226562 4451.203125 5280.199219 4451.203125 "/>
<path xmlns="http://www.w3.org/2000/svg" fill-rule="nonzero" fill="rgb(100%, 100%, 100%)" fill-opacity="1" d="M 5280.203125 4737.277344 C 5269.175781 4737.277344 5260.203125 4728.304688 5260.203125 4717.277344 C 5260.203125 4706.25 5269.175781 4697.277344 5280.203125 4697.277344 C 5291.230469 4697.277344 5300.203125 4706.25 5300.203125 4717.277344 C 5300.203125 4728.304688 5291.230469 4737.277344 5280.203125 4737.277344 "/>
</svg>
