<?xml version="1.0" encoding="UTF-8"?>
<svg xmlns="http://www.w3.org/2000/svg" xmlns:xlink="http://www.w3.org/1999/xlink" viewBox="4756.785 1681.72 2378.3925 1681.72" width="2378.3925" height="1681.72">
<path xmlns="http://www.w3.org/2000/svg" fill-rule="nonzero" fill="rgb(100%, 100%, 100%)" fill-opacity="1" d="M 5306.089844 2438.769531 C 5295.0625 2438.769531 5286.089844 2429.796875 5286.089844 2418.769531 C 5286.089844 2407.738281 5295.0625 2398.769531 5306.089844 2398.769531 C 5317.117188 2398.769531 5326.089844 2407.738281 5326.089844 2418.769531 C 5326.089844 2429.796875 5317.117188 2438.769531 5306.089844 2438.769531 "/>
<path xmlns="http://www.w3.org/2000/svg" fill-rule="nonzero" fill="rgb(10.572815%, 9.655762%, 10.258484%)" fill-opacity="1" d="M 5100.199219 2049.789062 C 5092.757812 2049.789062 5086.699219 2055.84375 5086.699219 2063.289062 C 5086.699219 2070.730469 5092.757812 2076.789062 5100.199219 2076.789062 C 5107.644531 2076.789062 5113.699219 2070.730469 5113.699219 2063.289062 C 5113.699219 2055.84375 5107.644531 2049.789062 5100.199219 2049.789062 M 5100.199219 2054.289062 C 5105.171875 2054.289062 5109.199219 2058.316406 5109.199219 2063.289062 C 5109.199219 2068.257812 5105.171875 2072.289062 5100.199219 2072.289062 C 5095.230469 2072.289062 5091.199219 2068.257812 5091.199219 2063.289062 C 5091.199219 2058.316406 5095.230469 2054.289062 5100.199219 2054.289062 "/>
<path xmlns="http://www.w3.org/2000/svg" fill-rule="nonzero" fill="rgb(10.572815%, 9.655762%, 10.258484%)" fill-opacity="1" d="M 5100.199219 1817.78125 C 5092.757812 1817.78125 5086.699219 1823.835938 5086.699219 1831.28125 C 5086.699219 1838.726562 5092.757812 1844.78125 5100.199219 1844.78125 C 5107.644531 1844.78125 5113.699219 1838.726562 5113.699219 1831.28125 C 5113.699219 1823.835938 5107.644531 1817.78125 5100.199219 1817.78125 M 5100.199219 1822.28125 C 5105.171875 1822.28125 5109.199219 1826.308594 5109.199219 1831.28125 C 5109.199219 1836.25 5105.171875 1840.28125 5100.199219 1840.28125 C 5095.230469 1840.28125 5091.199219 1836.25 5091.199219 1831.28125 C 5091.199219 1826.308594 5095.230469 1822.28125 5100.199219 1822.28125 "/>
<path xmlns="http://www.w3.org/2000/svg" fill-rule="nonzero" fill="rgb(10.572815%, 9.655762%, 10.258484%)" fill-opacity="1" d="M 5077.699219 2049.789062 C 5070.253906 2049.789062 5064.199219 2055.84375 5064.199219 2063.289062 C 5064.199219 2070.730469 5070.253906 2076.789062 5077.699219 2076.789062 C 5085.144531 2076.789062 5091.199219 2070.730469 5091.199219 2063.289062 C 5091.199219 2055.84375 5085.144531 2049.789062 5077.699219 2049.789062 M 5077.699219 2054.289062 C 5082.667969 2054.289062 5086.699219 2058.316406 5086.699219 2063.289062 C 5086.699219 2068.257812 5082.667969 2072.289062 5077.699219 2072.289062 C 5072.730469 2072.289062 5068.699219 2068.257812 5068.699219 2063.289062 C 5068.699219 2058.316406 5072.730469 2054.289062 5077.699219 2054.289062 "/>
<path xmlns="http://www.w3.org/2000/svg" fill-rule="nonzero" fill="rgb(10.572815%, 9.655762%, 10.258484%)" fill-opacity="1" d="M 5100.199219 2405.269531 C 5092.757812 2405.269531 5086.699219 2411.324219 5086.699219 2418.769531 C 5086.699219 2426.210938 5092.757812 2432.269531 5100.199219 2432.269531 C 5107.644531 2432.269531 5113.699219 2426.210938 5113.699219 2418.769531 C 5113.699219 2411.324219 5107.644531 2405.269531 5100.199219 2405.269531 M 5100.199219 2409.769531 C 5105.171875 2409.769531 5109.199219 2413.796875 5109.199219 2418.769531 C 5109.199219 2423.738281 5105.171875 2427.769531 5100.199219 2427.769531 C 5095.230469 2427.769531 5091.199219 2423.738281 5091.199219 2418.769531 C 5091.199219 2413.796875 5095.230469 2409.769531 5100.199219 2409.769531 "/>
<path xmlns="http://www.w3.org/2000/svg" fill-rule="nonzero" fill="rgb(10.572815%, 9.655762%, 10.258484%)" fill-opacity="1" d="M 5123.203125 2049.789062 C 5115.757812 2049.789062 5109.703125 2055.84375 5109.703125 2063.289062 C 5109.703125 2070.730469 5115.757812 2076.789062 5123.203125 2076.789062 C 5130.644531 2076.789062 5136.703125 2070.730469 5136.703125 2063.289062 C 5136.703125 2055.84375 5130.644531 2049.789062 5123.203125 2049.789062 M 5123.203125 2054.289062 C 5128.171875 2054.289062 5132.203125 2058.316406 5132.203125 2063.289062 C 5132.203125 2068.257812 5128.171875 2072.289062 5123.203125 2072.289062 C 5118.230469 2072.289062 5114.203125 2068.257812 5114.203125 2063.289062 C 5114.203125 2058.316406 5118.230469 2054.289062 5123.203125 2054.289062 "/>
<path xmlns="http://www.w3.org/2000/svg" fill-rule="nonzero" fill="rgb(10.572815%, 9.655762%, 10.258484%)" fill-opacity="1" d="M 5123.203125 1817.78125 C 5115.757812 1817.78125 5109.703125 1823.835938 5109.703125 1831.28125 C 5109.703125 1838.726562 5115.757812 1844.78125 5123.203125 1844.78125 C 5130.644531 1844.78125 5136.703125 1838.726562 5136.703125 1831.28125 C 5136.703125 1823.835938 5130.644531 1817.78125 5123.203125 1817.78125 M 5123.203125 1822.28125 C 5128.171875 1822.28125 5132.203125 1826.308594 5132.203125 1831.28125 C 5132.203125 1836.25 5128.171875 1840.28125 5123.203125 1840.28125 C 5118.230469 1840.28125 5114.203125 1836.25 5114.203125 1831.28125 C 5114.203125 1826.308594 5118.230469 1822.28125 5123.203125 1822.28125 "/>
<path xmlns="http://www.w3.org/2000/svg" fill-rule="nonzero" fill="rgb(10.572815%, 9.655762%, 10.258484%)" fill-opacity="1" d="M 5123.203125 2405.269531 C 5115.757812 2405.269531 5109.703125 2411.324219 5109.703125 2418.769531 C 5109.703125 2426.210938 5115.757812 2432.269531 5123.203125 2432.269531 C 5130.644531 2432.269531 5136.703125 2426.210938 5136.703125 2418.769531 C 5136.703125 2411.324219 5130.644531 2405.269531 5123.203125 2405.269531 M 5123.203125 2409.769531 C 5128.171875 2409.769531 5132.203125 2413.796875 5132.203125 2418.769531 C 5132.203125 2423.738281 5128.171875 2427.769531 5123.203125 2427.769531 C 5118.230469 2427.769531 5114.203125 2423.738281 5114.203125 2418.769531 C 5114.203125 2413.796875 5118.230469 2409.769531 5123.203125 2409.769531 "/>
<path xmlns="http://www.w3.org/2000/svg" fill-rule="nonzero" fill="rgb(10.572815%, 9.655762%, 10.258484%)" fill-opacity="1" d="M 5077.699219 2405.269531 C 5070.253906 2405.269531 5064.199219 2411.324219 5064.199219 2418.769531 C 5064.199219 2426.210938 5070.253906 2432.269531 5077.699219 2432.269531 C 5085.144531 2432.269531 5091.199219 2426.210938 5091.199219 2418.769531 C 5091.199219 2411.324219 5085.144531 2405.269531 5077.699219 2405.269531 M 5077.699219 2409.769531 C 5082.667969 2409.769531 5086.699219 2413.796875 5086.699219 2418.769531 C 5086.699219 2423.738281 5082.667969 2427.769531 5077.699219 2427.769531 C 5072.730469 2427.769531 5068.699219 2423.738281 5068.699219 2418.769531 C 5068.699219 2413.796875 5072.730469 2409.769531 5077.699219 2409.769531 "/>
<path xmlns="http://www.w3.org/2000/svg" fill-rule="nonzero" fill="rgb(10.572815%, 9.655762%, 10.258484%)" fill-opacity="1" d="M 5541.199219 2625.769531 C 5533.753906 2625.769531 5527.699219 2631.824219 5527.699219 2639.269531 C 5527.699219 2646.710938 5533.753906 2652.769531 5541.199219 2652.769531 C 5548.644531 2652.769531 5554.699219 2646.710938 5554.699219 2639.269531 C 5554.699219 2631.824219 5548.644531 2625.769531 5541.199219 2625.769531 M 5541.199219 2630.269531 C 5546.171875 2630.269531 5550.199219 2634.296875 5550.199219 2639.269531 C 5550.199219 2644.238281 5546.171875 2648.269531 5541.199219 2648.269531 C 5536.230469 2648.269531 5532.199219 2644.238281 5532.199219 2639.269531 C 5532.199219 2634.296875 5536.230469 2630.269531 5541.199219 2630.269531 "/>
<path xmlns="http://www.w3.org/2000/svg" fill-rule="nonzero" fill="rgb(10.572815%, 9.655762%, 10.258484%)" fill-opacity="1" d="M 5817.878906 2529.789062 C 5810.433594 2529.789062 5804.378906 2535.84375 5804.378906 2543.289062 C 5804.378906 2550.730469 5810.433594 2556.789062 5817.878906 2556.789062 C 5825.320312 2556.789062 5831.378906 2550.730469 5831.378906 2543.289062 C 5831.378906 2535.84375 5825.320312 2529.789062 5817.878906 2529.789062 M 5817.878906 2534.289062 C 5822.847656 2534.289062 5826.878906 2538.316406 5826.878906 2543.289062 C 5826.878906 2548.257812 5822.847656 2552.289062 5817.878906 2552.289062 C 5812.90625 2552.289062 5808.878906 2548.257812 5808.878906 2543.289062 C 5808.878906 2538.316406 5812.90625 2534.289062 5817.878906 2534.289062 "/>
<path xmlns="http://www.w3.org/2000/svg" fill-rule="nonzero" fill="rgb(10.572815%, 9.655762%, 10.258484%)" fill-opacity="1" d="M 6438.199219 1717.738281 C 6430.753906 1717.738281 6424.699219 1723.792969 6424.699219 1731.238281 C 6424.699219 1738.683594 6430.753906 1744.738281 6438.199219 1744.738281 C 6445.640625 1744.738281 6451.699219 1738.683594 6451.699219 1731.238281 C 6451.699219 1723.792969 6445.640625 1717.738281 6438.199219 1717.738281 M 6438.199219 1722.238281 C 6443.167969 1722.238281 6447.199219 1726.269531 6447.199219 1731.238281 C 6447.199219 1736.210938 6443.167969 1740.238281 6438.199219 1740.238281 C 6433.226562 1740.238281 6429.199219 1736.210938 6429.199219 1731.238281 C 6429.199219 1726.269531 6433.226562 1722.238281 6438.199219 1722.238281 "/>
<path xmlns="http://www.w3.org/2000/svg" fill-rule="nonzero" fill="rgb(10.572815%, 9.655762%, 10.258484%)" fill-opacity="1" d="M 6438.199219 1862.710938 C 6430.753906 1862.710938 6424.699219 1868.765625 6424.699219 1876.210938 C 6424.699219 1883.652344 6430.753906 1889.710938 6438.199219 1889.710938 C 6445.640625 1889.710938 6451.699219 1883.652344 6451.699219 1876.210938 C 6451.699219 1868.765625 6445.640625 1862.710938 6438.199219 1862.710938 M 6438.199219 1867.210938 C 6443.167969 1867.210938 6447.199219 1871.238281 6447.199219 1876.210938 C 6447.199219 1881.179688 6443.167969 1885.210938 6438.199219 1885.210938 C 6433.226562 1885.210938 6429.199219 1881.179688 6429.199219 1876.210938 C 6429.199219 1871.238281 6433.226562 1867.210938 6438.199219 1867.210938 "/>
<path xmlns="http://www.w3.org/2000/svg" fill-rule="nonzero" fill="rgb(10.572815%, 9.655762%, 10.258484%)" fill-opacity="1" d="M 6415.195312 1717.738281 C 6407.753906 1717.738281 6401.695312 1723.792969 6401.695312 1731.238281 C 6401.695312 1738.683594 6407.753906 1744.738281 6415.195312 1744.738281 C 6422.640625 1744.738281 6428.695312 1738.683594 6428.695312 1731.238281 C 6428.695312 1723.792969 6422.640625 1717.738281 6415.195312 1717.738281 M 6415.195312 1722.238281 C 6420.167969 1722.238281 6424.195312 1726.269531 6424.195312 1731.238281 C 6424.195312 1736.210938 6420.167969 1740.238281 6415.195312 1740.238281 C 6410.226562 1740.238281 6406.195312 1736.210938 6406.195312 1731.238281 C 6406.195312 1726.269531 6410.226562 1722.238281 6415.195312 1722.238281 "/>
<path xmlns="http://www.w3.org/2000/svg" fill-rule="nonzero" fill="rgb(10.572815%, 9.655762%, 10.258484%)" fill-opacity="1" d="M 6415.195312 1862.710938 C 6407.753906 1862.710938 6401.695312 1868.765625 6401.695312 1876.210938 C 6401.695312 1883.652344 6407.753906 1889.710938 6415.195312 1889.710938 C 6422.640625 1889.710938 6428.695312 1883.652344 6428.695312 1876.210938 C 6428.695312 1868.765625 6422.640625 1862.710938 6415.195312 1862.710938 M 6415.195312 1867.210938 C 6420.167969 1867.210938 6424.195312 1871.238281 6424.195312 1876.210938 C 6424.195312 1881.179688 6420.167969 1885.210938 6415.195312 1885.210938 C 6410.226562 1885.210938 6406.195312 1881.179688 6406.195312 1876.210938 C 6406.195312 1871.238281 6410.226562 1867.210938 6415.195312 1867.210938 "/>
<path xmlns="http://www.w3.org/2000/svg" fill-rule="nonzero" fill="rgb(10.572815%, 9.655762%, 10.258484%)" fill-opacity="1" d="M 6415.699219 2152.652344 C 6408.253906 2152.652344 6402.199219 2158.707031 6402.199219 2166.152344 C 6402.199219 2173.59375 6408.253906 2179.652344 6415.699219 2179.652344 C 6423.140625 2179.652344 6429.199219 2173.59375 6429.199219 2166.152344 C 6429.199219 2158.707031 6423.140625 2152.652344 6415.699219 2152.652344 M 6415.699219 2157.152344 C 6420.667969 2157.152344 6424.699219 2161.179688 6424.699219 2166.152344 C 6424.699219 2171.121094 6420.667969 2175.152344 6415.699219 2175.152344 C 6410.726562 2175.152344 6406.699219 2171.121094 6406.699219 2166.152344 C 6406.699219 2161.179688 6410.726562 2157.152344 6415.699219 2157.152344 "/>
<path xmlns="http://www.w3.org/2000/svg" fill-rule="nonzero" fill="rgb(10.572815%, 9.655762%, 10.258484%)" fill-opacity="1" d="M 6438.199219 2007.679688 C 6430.753906 2007.679688 6424.699219 2013.738281 6424.699219 2021.179688 C 6424.699219 2028.625 6430.753906 2034.679688 6438.199219 2034.679688 C 6445.640625 2034.679688 6451.699219 2028.625 6451.699219 2021.179688 C 6451.699219 2013.738281 6445.640625 2007.679688 6438.199219 2007.679688 M 6438.199219 2012.179688 C 6443.167969 2012.179688 6447.199219 2016.210938 6447.199219 2021.179688 C 6447.199219 2026.152344 6443.167969 2030.179688 6438.199219 2030.179688 C 6433.226562 2030.179688 6429.199219 2026.152344 6429.199219 2021.179688 C 6429.199219 2016.210938 6433.226562 2012.179688 6438.199219 2012.179688 "/>
<path xmlns="http://www.w3.org/2000/svg" fill-rule="nonzero" fill="rgb(10.572815%, 9.655762%, 10.258484%)" fill-opacity="1" d="M 6415.195312 2007.679688 C 6407.753906 2007.679688 6401.695312 2013.738281 6401.695312 2021.179688 C 6401.695312 2028.625 6407.753906 2034.679688 6415.195312 2034.679688 C 6422.640625 2034.679688 6428.695312 2028.625 6428.695312 2021.179688 C 6428.695312 2013.738281 6422.640625 2007.679688 6415.195312 2007.679688 M 6415.195312 2012.179688 C 6420.167969 2012.179688 6424.195312 2016.210938 6424.195312 2021.179688 C 6424.195312 2026.152344 6420.167969 2030.179688 6415.195312 2030.179688 C 6410.226562 2030.179688 6406.195312 2026.152344 6406.195312 2021.179688 C 6406.195312 2016.210938 6410.226562 2012.179688 6415.195312 2012.179688 "/>
<path xmlns="http://www.w3.org/2000/svg" fill-rule="nonzero" fill="rgb(10.572815%, 9.655762%, 10.258484%)" fill-opacity="1" d="M 6438.199219 2705.644531 C 6430.753906 2705.644531 6424.699219 2711.699219 6424.699219 2719.144531 C 6424.699219 2726.585938 6430.753906 2732.644531 6438.199219 2732.644531 C 6445.640625 2732.644531 6451.699219 2726.585938 6451.699219 2719.144531 C 6451.699219 2711.699219 6445.640625 2705.644531 6438.199219 2705.644531 M 6438.199219 2710.144531 C 6443.167969 2710.144531 6447.199219 2714.171875 6447.199219 2719.144531 C 6447.199219 2724.113281 6443.167969 2728.144531 6438.199219 2728.144531 C 6433.226562 2728.144531 6429.199219 2724.113281 6429.199219 2719.144531 C 6429.199219 2714.171875 6433.226562 2710.144531 6438.199219 2710.144531 "/>
<path xmlns="http://www.w3.org/2000/svg" fill-rule="nonzero" fill="rgb(10.572815%, 9.655762%, 10.258484%)" fill-opacity="1" d="M 6441.199219 2973.890625 C 6433.757812 2973.890625 6427.699219 2979.945312 6427.699219 2987.390625 C 6427.699219 2994.832031 6433.757812 3000.890625 6441.199219 3000.890625 C 6448.644531 3000.890625 6454.699219 2994.832031 6454.699219 2987.390625 C 6454.699219 2979.945312 6448.644531 2973.890625 6441.199219 2973.890625 M 6441.199219 2978.390625 C 6446.171875 2978.390625 6450.199219 2982.417969 6450.199219 2987.390625 C 6450.199219 2992.359375 6446.171875 2996.390625 6441.199219 2996.390625 C 6436.230469 2996.390625 6432.199219 2992.359375 6432.199219 2987.390625 C 6432.199219 2982.417969 6436.230469 2978.390625 6441.199219 2978.390625 "/>
<path xmlns="http://www.w3.org/2000/svg" fill-rule="nonzero" fill="rgb(10.572815%, 9.655762%, 10.258484%)" fill-opacity="1" d="M 6573.777344 3170.269531 C 6566.335938 3170.269531 6560.277344 3176.324219 6560.277344 3183.769531 C 6560.277344 3191.210938 6566.335938 3197.269531 6573.777344 3197.269531 C 6581.222656 3197.269531 6587.277344 3191.210938 6587.277344 3183.769531 C 6587.277344 3176.324219 6581.222656 3170.269531 6573.777344 3170.269531 M 6573.777344 3174.769531 C 6578.75 3174.769531 6582.777344 3178.796875 6582.777344 3183.769531 C 6582.777344 3188.738281 6578.75 3192.769531 6573.777344 3192.769531 C 6568.808594 3192.769531 6564.777344 3188.738281 6564.777344 3183.769531 C 6564.777344 3178.796875 6568.808594 3174.769531 6573.777344 3174.769531 "/>
<path xmlns="http://www.w3.org/2000/svg" fill-rule="nonzero" fill="rgb(10.572815%, 9.655762%, 10.258484%)" fill-opacity="1" d="M 6775.554688 3170.269531 C 6768.109375 3170.269531 6762.054688 3176.324219 6762.054688 3183.769531 C 6762.054688 3191.210938 6768.109375 3197.269531 6775.554688 3197.269531 C 6783 3197.269531 6789.054688 3191.210938 6789.054688 3183.769531 C 6789.054688 3176.324219 6783 3170.269531 6775.554688 3170.269531 M 6775.554688 3174.769531 C 6780.527344 3174.769531 6784.554688 3178.796875 6784.554688 3183.769531 C 6784.554688 3188.738281 6780.527344 3192.769531 6775.554688 3192.769531 C 6770.585938 3192.769531 6766.554688 3188.738281 6766.554688 3183.769531 C 6766.554688 3178.796875 6770.585938 3174.769531 6775.554688 3174.769531 "/>
<path xmlns="http://www.w3.org/2000/svg" fill-rule="nonzero" fill="rgb(10.572815%, 9.655762%, 10.258484%)" fill-opacity="1" d="M 6977.332031 3170.269531 C 6969.886719 3170.269531 6963.832031 3176.324219 6963.832031 3183.769531 C 6963.832031 3191.210938 6969.886719 3197.269531 6977.332031 3197.269531 C 6984.777344 3197.269531 6990.832031 3191.210938 6990.832031 3183.769531 C 6990.832031 3176.324219 6984.777344 3170.269531 6977.332031 3170.269531 M 6977.332031 3174.769531 C 6982.300781 3174.769531 6986.332031 3178.796875 6986.332031 3183.769531 C 6986.332031 3188.738281 6982.300781 3192.769531 6977.332031 3192.769531 C 6972.363281 3192.769531 6968.332031 3188.738281 6968.332031 3183.769531 C 6968.332031 3178.796875 6972.363281 3174.769531 6977.332031 3174.769531 "/>
<path xmlns="http://www.w3.org/2000/svg" fill-rule="nonzero" fill="rgb(10.572815%, 9.655762%, 10.258484%)" fill-opacity="1" d="M 5998.90625 2382.292969 C 5991.460938 2382.292969 5985.40625 2388.347656 5985.40625 2395.792969 C 5985.40625 2403.238281 5991.460938 2409.292969 5998.90625 2409.292969 C 6006.351562 2409.292969 6012.40625 2403.238281 6012.40625 2395.792969 C 6012.40625 2388.347656 6006.351562 2382.292969 5998.90625 2382.292969 M 5998.90625 2386.792969 C 6003.875 2386.792969 6007.90625 2390.824219 6007.90625 2395.792969 C 6007.90625 2400.765625 6003.875 2404.792969 5998.90625 2404.792969 C 5993.933594 2404.792969 5989.90625 2400.765625 5989.90625 2395.792969 C 5989.90625 2390.824219 5993.933594 2386.792969 5998.90625 2386.792969 "/>
<path xmlns="http://www.w3.org/2000/svg" fill-rule="nonzero" fill="rgb(10.572815%, 9.655762%, 10.258484%)" fill-opacity="1" d="M 6239.992188 2382.292969 C 6232.550781 2382.292969 6226.492188 2388.347656 6226.492188 2395.792969 C 6226.492188 2403.238281 6232.550781 2409.292969 6239.992188 2409.292969 C 6247.4375 2409.292969 6253.492188 2403.238281 6253.492188 2395.792969 C 6253.492188 2388.347656 6247.4375 2382.292969 6239.992188 2382.292969 M 6239.992188 2386.792969 C 6244.964844 2386.792969 6248.992188 2390.824219 6248.992188 2395.792969 C 6248.992188 2400.765625 6244.964844 2404.792969 6239.992188 2404.792969 C 6235.023438 2404.792969 6230.992188 2400.765625 6230.992188 2395.792969 C 6230.992188 2390.824219 6235.023438 2386.792969 6239.992188 2386.792969 "/>
<path xmlns="http://www.w3.org/2000/svg" fill-rule="nonzero" fill="rgb(10.572815%, 9.655762%, 10.258484%)" fill-opacity="1" d="M 6013.398438 3170.269531 C 6005.957031 3170.269531 5999.898438 3176.324219 5999.898438 3183.769531 C 5999.898438 3191.210938 6005.957031 3197.269531 6013.398438 3197.269531 C 6020.84375 3197.269531 6026.898438 3191.210938 6026.898438 3183.769531 C 6026.898438 3176.324219 6020.84375 3170.269531 6013.398438 3170.269531 M 6013.398438 3174.769531 C 6018.371094 3174.769531 6022.398438 3178.796875 6022.398438 3183.769531 C 6022.398438 3188.738281 6018.371094 3192.769531 6013.398438 3192.769531 C 6008.429688 3192.769531 6004.398438 3188.738281 6004.398438 3183.769531 C 6004.398438 3178.796875 6008.429688 3174.769531 6013.398438 3174.769531 "/>
<path xmlns="http://www.w3.org/2000/svg" fill-rule="nonzero" fill="rgb(10.572815%, 9.655762%, 10.258484%)" fill-opacity="1" d="M 6178.300781 3170.269531 C 6170.855469 3170.269531 6164.800781 3176.324219 6164.800781 3183.769531 C 6164.800781 3191.210938 6170.855469 3197.269531 6178.300781 3197.269531 C 6185.742188 3197.269531 6191.800781 3191.210938 6191.800781 3183.769531 C 6191.800781 3176.324219 6185.742188 3170.269531 6178.300781 3170.269531 M 6178.300781 3174.769531 C 6183.269531 3174.769531 6187.300781 3178.796875 6187.300781 3183.769531 C 6187.300781 3188.738281 6183.269531 3192.769531 6178.300781 3192.769531 C 6173.328125 3192.769531 6169.300781 3188.738281 6169.300781 3183.769531 C 6169.300781 3178.796875 6173.328125 3174.769531 6178.300781 3174.769531 "/>
<path xmlns="http://www.w3.org/2000/svg" fill-rule="nonzero" fill="rgb(10.572815%, 9.655762%, 10.258484%)" fill-opacity="1" d="M 6343.199219 3170.269531 C 6335.753906 3170.269531 6329.699219 3176.324219 6329.699219 3183.769531 C 6329.699219 3191.210938 6335.753906 3197.269531 6343.199219 3197.269531 C 6350.644531 3197.269531 6356.699219 3191.210938 6356.699219 3183.769531 C 6356.699219 3176.324219 6350.644531 3170.269531 6343.199219 3170.269531 M 6343.199219 3174.769531 C 6348.167969 3174.769531 6352.199219 3178.796875 6352.199219 3183.769531 C 6352.199219 3188.738281 6348.167969 3192.769531 6343.199219 3192.769531 C 6338.230469 3192.769531 6334.199219 3188.738281 6334.199219 3183.769531 C 6334.199219 3178.796875 6338.230469 3174.769531 6343.199219 3174.769531 "/>
<path xmlns="http://www.w3.org/2000/svg" fill-rule="nonzero" fill="rgb(10.572815%, 9.655762%, 10.258484%)" fill-opacity="1" d="M 5518.699219 3170.269531 C 5511.257812 3170.269531 5505.199219 3176.324219 5505.199219 3183.769531 C 5505.199219 3191.210938 5511.257812 3197.269531 5518.699219 3197.269531 C 5526.144531 3197.269531 5532.199219 3191.210938 5532.199219 3183.769531 C 5532.199219 3176.324219 5526.144531 3170.269531 5518.699219 3170.269531 M 5518.699219 3174.769531 C 5523.671875 3174.769531 5527.699219 3178.796875 5527.699219 3183.769531 C 5527.699219 3188.738281 5523.671875 3192.769531 5518.699219 3192.769531 C 5513.730469 3192.769531 5509.699219 3188.738281 5509.699219 3183.769531 C 5509.699219 3178.796875 5513.730469 3174.769531 5518.699219 3174.769531 "/>
<path xmlns="http://www.w3.org/2000/svg" fill-rule="nonzero" fill="rgb(10.572815%, 9.655762%, 10.258484%)" fill-opacity="1" d="M 5683.597656 3170.269531 C 5676.15625 3170.269531 5670.097656 3176.324219 5670.097656 3183.769531 C 5670.097656 3191.210938 5676.15625 3197.269531 5683.597656 3197.269531 C 5691.042969 3197.269531 5697.097656 3191.210938 5697.097656 3183.769531 C 5697.097656 3176.324219 5691.042969 3170.269531 5683.597656 3170.269531 M 5683.597656 3174.769531 C 5688.570312 3174.769531 5692.597656 3178.796875 5692.597656 3183.769531 C 5692.597656 3188.738281 5688.570312 3192.769531 5683.597656 3192.769531 C 5678.628906 3192.769531 5674.597656 3188.738281 5674.597656 3183.769531 C 5674.597656 3178.796875 5678.628906 3174.769531 5683.597656 3174.769531 "/>
<path xmlns="http://www.w3.org/2000/svg" fill-rule="nonzero" fill="rgb(10.572815%, 9.655762%, 10.258484%)" fill-opacity="1" d="M 5848.5 3170.269531 C 5841.054688 3170.269531 5835 3176.324219 5835 3183.769531 C 5835 3191.210938 5841.054688 3197.269531 5848.5 3197.269531 C 5855.945312 3197.269531 5862 3191.210938 5862 3183.769531 C 5862 3176.324219 5855.945312 3170.269531 5848.5 3170.269531 M 5848.5 3174.769531 C 5853.46875 3174.769531 5857.5 3178.796875 5857.5 3183.769531 C 5857.5 3188.738281 5853.46875 3192.769531 5848.5 3192.769531 C 5843.527344 3192.769531 5839.5 3188.738281 5839.5 3183.769531 C 5839.5 3178.796875 5843.527344 3174.769531 5848.5 3174.769531 "/>
<path xmlns="http://www.w3.org/2000/svg" fill-rule="nonzero" fill="rgb(10.572815%, 9.655762%, 10.258484%)" fill-opacity="1" d="M 6013.398438 3192.769531 C 6005.957031 3192.769531 5999.898438 3198.824219 5999.898438 3206.269531 C 5999.898438 3213.710938 6005.957031 3219.769531 6013.398438 3219.769531 C 6020.84375 3219.769531 6026.898438 3213.710938 6026.898438 3206.269531 C 6026.898438 3198.824219 6020.84375 3192.769531 6013.398438 3192.769531 M 6013.398438 3197.269531 C 6018.371094 3197.269531 6022.398438 3201.296875 6022.398438 3206.269531 C 6022.398438 3211.238281 6018.371094 3215.269531 6013.398438 3215.269531 C 6008.429688 3215.269531 6004.398438 3211.238281 6004.398438 3206.269531 C 6004.398438 3201.296875 6008.429688 3197.269531 6013.398438 3197.269531 "/>
<path xmlns="http://www.w3.org/2000/svg" fill-rule="nonzero" fill="rgb(10.572815%, 9.655762%, 10.258484%)" fill-opacity="1" d="M 5848.5 3192.769531 C 5841.054688 3192.769531 5835 3198.824219 5835 3206.269531 C 5835 3213.710938 5841.054688 3219.769531 5848.5 3219.769531 C 5855.945312 3219.769531 5862 3213.710938 5862 3206.269531 C 5862 3198.824219 5855.945312 3192.769531 5848.5 3192.769531 M 5848.5 3197.269531 C 5853.46875 3197.269531 5857.5 3201.296875 5857.5 3206.269531 C 5857.5 3211.238281 5853.46875 3215.269531 5848.5 3215.269531 C 5843.527344 3215.269531 5839.5 3211.238281 5839.5 3206.269531 C 5839.5 3201.296875 5843.527344 3197.269531 5848.5 3197.269531 "/>
<path xmlns="http://www.w3.org/2000/svg" fill-rule="nonzero" fill="rgb(10.572815%, 9.655762%, 10.258484%)" fill-opacity="1" d="M 6178.296875 3192.769531 C 6170.855469 3192.769531 6164.796875 3198.824219 6164.796875 3206.269531 C 6164.796875 3213.710938 6170.855469 3219.769531 6178.296875 3219.769531 C 6185.742188 3219.769531 6191.796875 3213.710938 6191.796875 3206.269531 C 6191.796875 3198.824219 6185.742188 3192.769531 6178.296875 3192.769531 M 6178.296875 3197.269531 C 6183.269531 3197.269531 6187.296875 3201.296875 6187.296875 3206.269531 C 6187.296875 3211.238281 6183.269531 3215.269531 6178.296875 3215.269531 C 6173.328125 3215.269531 6169.296875 3211.238281 6169.296875 3206.269531 C 6169.296875 3201.296875 6173.328125 3197.269531 6178.296875 3197.269531 "/>
<path xmlns="http://www.w3.org/2000/svg" fill-rule="nonzero" fill="rgb(10.572815%, 9.655762%, 10.258484%)" fill-opacity="1" d="M 5683.597656 3192.769531 C 5676.15625 3192.769531 5670.097656 3198.824219 5670.097656 3206.269531 C 5670.097656 3213.710938 5676.15625 3219.769531 5683.597656 3219.769531 C 5691.042969 3219.769531 5697.097656 3213.710938 5697.097656 3206.269531 C 5697.097656 3198.824219 5691.042969 3192.769531 5683.597656 3192.769531 M 5683.597656 3197.269531 C 5688.570312 3197.269531 5692.597656 3201.296875 5692.597656 3206.269531 C 5692.597656 3211.238281 5688.570312 3215.269531 5683.597656 3215.269531 C 5678.628906 3215.269531 5674.597656 3211.238281 5674.597656 3206.269531 C 5674.597656 3201.296875 5678.628906 3197.269531 5683.597656 3197.269531 "/>
<path xmlns="http://www.w3.org/2000/svg" fill-rule="nonzero" fill="rgb(10.572815%, 9.655762%, 10.258484%)" fill-opacity="1" d="M 5518.699219 3192.769531 C 5511.253906 3192.769531 5505.199219 3198.824219 5505.199219 3206.269531 C 5505.199219 3213.710938 5511.253906 3219.769531 5518.699219 3219.769531 C 5526.144531 3219.769531 5532.199219 3213.710938 5532.199219 3206.269531 C 5532.199219 3198.824219 5526.144531 3192.769531 5518.699219 3192.769531 M 5518.699219 3197.269531 C 5523.671875 3197.269531 5527.699219 3201.296875 5527.699219 3206.269531 C 5527.699219 3211.238281 5523.671875 3215.269531 5518.699219 3215.269531 C 5513.730469 3215.269531 5509.699219 3211.238281 5509.699219 3206.269531 C 5509.699219 3201.296875 5513.730469 3197.269531 5518.699219 3197.269531 "/>
<path xmlns="http://www.w3.org/2000/svg" fill-rule="nonzero" fill="rgb(10.572815%, 9.655762%, 10.258484%)" fill-opacity="1" d="M 5195.207031 3192.769531 C 5187.761719 3192.769531 5181.707031 3198.824219 5181.707031 3206.269531 C 5181.707031 3213.710938 5187.761719 3219.769531 5195.207031 3219.769531 C 5202.652344 3219.769531 5208.707031 3213.710938 5208.707031 3206.269531 C 5208.707031 3198.824219 5202.652344 3192.769531 5195.207031 3192.769531 M 5195.207031 3197.269531 C 5200.179688 3197.269531 5204.207031 3201.296875 5204.207031 3206.269531 C 5204.207031 3211.238281 5200.179688 3215.269531 5195.207031 3215.269531 C 5190.238281 3215.269531 5186.207031 3211.238281 5186.207031 3206.269531 C 5186.207031 3201.296875 5190.238281 3197.269531 5195.207031 3197.269531 "/>
<path xmlns="http://www.w3.org/2000/svg" fill-rule="nonzero" fill="rgb(10.572815%, 9.655762%, 10.258484%)" fill-opacity="1" d="M 5100.199219 3362.808594 C 5092.753906 3362.808594 5086.699219 3368.863281 5086.699219 3376.308594 C 5086.699219 3383.75 5092.753906 3389.808594 5100.199219 3389.808594 C 5107.644531 3389.808594 5113.699219 3383.75 5113.699219 3376.308594 C 5113.699219 3368.863281 5107.644531 3362.808594 5100.199219 3362.808594 M 5100.199219 3367.308594 C 5105.167969 3367.308594 5109.199219 3371.335938 5109.199219 3376.308594 C 5109.199219 3381.277344 5105.167969 3385.308594 5100.199219 3385.308594 C 5095.230469 3385.308594 5091.199219 3381.277344 5091.199219 3376.308594 C 5091.199219 3371.335938 5095.230469 3367.308594 5100.199219 3367.308594 "/>
<path xmlns="http://www.w3.org/2000/svg" fill-rule="nonzero" fill="rgb(10.572815%, 9.655762%, 10.258484%)" fill-opacity="1" d="M 5195.207031 3169.269531 C 5187.761719 3169.269531 5181.707031 3175.324219 5181.707031 3182.769531 C 5181.707031 3190.210938 5187.761719 3196.269531 5195.207031 3196.269531 C 5202.652344 3196.269531 5208.707031 3190.210938 5208.707031 3182.769531 C 5208.707031 3175.324219 5202.652344 3169.269531 5195.207031 3169.269531 M 5195.207031 3173.769531 C 5200.179688 3173.769531 5204.207031 3177.796875 5204.207031 3182.769531 C 5204.207031 3187.738281 5200.179688 3191.769531 5195.207031 3191.769531 C 5190.238281 3191.769531 5186.207031 3187.738281 5186.207031 3182.769531 C 5186.207031 3177.796875 5190.238281 3173.769531 5195.207031 3173.769531 "/>
<path xmlns="http://www.w3.org/2000/svg" fill-rule="nonzero" fill="rgb(10.572815%, 9.655762%, 10.258484%)" fill-opacity="1" d="M 5195.207031 3144.074219 C 5187.761719 3144.074219 5181.707031 3150.128906 5181.707031 3157.574219 C 5181.707031 3165.019531 5187.761719 3171.074219 5195.207031 3171.074219 C 5202.652344 3171.074219 5208.707031 3165.019531 5208.707031 3157.574219 C 5208.707031 3150.128906 5202.652344 3144.074219 5195.207031 3144.074219 M 5195.207031 3148.574219 C 5200.179688 3148.574219 5204.207031 3152.605469 5204.207031 3157.574219 C 5204.207031 3162.546875 5200.179688 3166.574219 5195.207031 3166.574219 C 5190.238281 3166.574219 5186.207031 3162.546875 5186.207031 3157.574219 C 5186.207031 3152.605469 5190.238281 3148.574219 5195.207031 3148.574219 "/>
<path xmlns="http://www.w3.org/2000/svg" fill-rule="nonzero" fill="rgb(10.572815%, 9.655762%, 10.258484%)" fill-opacity="1" d="M 5100.199219 2657.882812 C 5092.753906 2657.882812 5086.699219 2663.9375 5086.699219 2671.382812 C 5086.699219 2678.828125 5092.753906 2684.882812 5100.199219 2684.882812 C 5107.644531 2684.882812 5113.699219 2678.828125 5113.699219 2671.382812 C 5113.699219 2663.9375 5107.644531 2657.882812 5100.199219 2657.882812 M 5100.199219 2662.382812 C 5105.167969 2662.382812 5109.199219 2666.414062 5109.199219 2671.382812 C 5109.199219 2676.351562 5105.167969 2680.382812 5100.199219 2680.382812 C 5095.230469 2680.382812 5091.199219 2676.351562 5091.199219 2671.382812 C 5091.199219 2666.414062 5095.230469 2662.382812 5100.199219 2662.382812 "/>
<path xmlns="http://www.w3.org/2000/svg" fill-rule="nonzero" fill="rgb(10.572815%, 9.655762%, 10.258484%)" fill-opacity="1" d="M 5123.203125 2657.882812 C 5115.757812 2657.882812 5109.703125 2663.9375 5109.703125 2671.382812 C 5109.703125 2678.828125 5115.757812 2684.882812 5123.203125 2684.882812 C 5130.644531 2684.882812 5136.703125 2678.828125 5136.703125 2671.382812 C 5136.703125 2663.9375 5130.644531 2657.882812 5123.203125 2657.882812 M 5123.203125 2662.382812 C 5128.171875 2662.382812 5132.203125 2666.414062 5132.203125 2671.382812 C 5132.203125 2676.351562 5128.171875 2680.382812 5123.203125 2680.382812 C 5118.230469 2680.382812 5114.203125 2676.351562 5114.203125 2671.382812 C 5114.203125 2666.414062 5118.230469 2662.382812 5123.203125 2662.382812 "/>
<path xmlns="http://www.w3.org/2000/svg" fill-rule="nonzero" fill="rgb(10.572815%, 9.655762%, 10.258484%)" fill-opacity="1" d="M 5100.199219 2895.769531 C 5092.753906 2895.769531 5086.699219 2901.824219 5086.699219 2909.269531 C 5086.699219 2916.710938 5092.753906 2922.769531 5100.199219 2922.769531 C 5107.644531 2922.769531 5113.699219 2916.710938 5113.699219 2909.269531 C 5113.699219 2901.824219 5107.644531 2895.769531 5100.199219 2895.769531 M 5100.199219 2900.269531 C 5105.167969 2900.269531 5109.199219 2904.296875 5109.199219 2909.269531 C 5109.199219 2914.238281 5105.167969 2918.269531 5100.199219 2918.269531 C 5095.230469 2918.269531 5091.199219 2914.238281 5091.199219 2909.269531 C 5091.199219 2904.296875 5095.230469 2900.269531 5100.199219 2900.269531 "/>
<path xmlns="http://www.w3.org/2000/svg" fill-rule="nonzero" fill="rgb(10.572815%, 9.655762%, 10.258484%)" fill-opacity="1" d="M 5100.199219 3065.089844 C 5092.753906 3065.089844 5086.699219 3071.148438 5086.699219 3078.589844 C 5086.699219 3086.035156 5092.753906 3092.089844 5100.199219 3092.089844 C 5107.644531 3092.089844 5113.699219 3086.035156 5113.699219 3078.589844 C 5113.699219 3071.148438 5107.644531 3065.089844 5100.199219 3065.089844 M 5100.199219 3069.589844 C 5105.171875 3069.589844 5109.199219 3073.621094 5109.199219 3078.589844 C 5109.199219 3083.5625 5105.171875 3087.589844 5100.199219 3087.589844 C 5095.230469 3087.589844 5091.199219 3083.5625 5091.199219 3078.589844 C 5091.199219 3073.621094 5095.230469 3069.589844 5100.199219 3069.589844 "/>
<path xmlns="http://www.w3.org/2000/svg" fill-rule="nonzero" fill="rgb(10.572815%, 9.655762%, 10.258484%)" fill-opacity="1" d="M 6439.261719 3324.273438 C 6431.816406 3324.273438 6425.761719 3330.332031 6425.761719 3337.773438 C 6425.761719 3345.21875 6431.816406 3351.273438 6439.261719 3351.273438 C 6446.707031 3351.273438 6452.761719 3345.21875 6452.761719 3337.773438 C 6452.761719 3330.332031 6446.707031 3324.273438 6439.261719 3324.273438 M 6439.261719 3328.773438 C 6444.230469 3328.773438 6448.261719 3332.804688 6448.261719 3337.773438 C 6448.261719 3342.746094 6444.230469 3346.773438 6439.261719 3346.773438 C 6434.289062 3346.773438 6430.261719 3342.746094 6430.261719 3337.773438 C 6430.261719 3332.804688 6434.289062 3328.773438 6439.261719 3328.773438 "/>
<path xmlns="http://www.w3.org/2000/svg" fill-rule="nonzero" fill="rgb(10.572815%, 9.655762%, 10.258484%)" fill-opacity="1" d="M 4943.242188 3170.707031 C 4942.550781 3170.707031 4941.871094 3170.839844 4941.226562 3171.097656 L 4922.140625 3178.730469 C 4920.070312 3179.5625 4918.730469 3181.539062 4918.730469 3183.769531 C 4918.730469 3186 4920.070312 3187.976562 4922.140625 3188.804688 L 4941.226562 3196.4375 C 4941.875 3196.699219 4942.550781 3196.828125 4943.242188 3196.828125 C 4946.234375 3196.828125 4948.667969 3194.394531 4948.667969 3191.402344 L 4948.667969 3176.132812 C 4948.667969 3173.140625 4946.234375 3170.707031 4943.242188 3170.707031 M 4943.242188 3175.207031 C 4943.730469 3175.207031 4944.167969 3175.601562 4944.167969 3176.132812 L 4944.167969 3191.402344 C 4944.167969 3191.933594 4943.730469 3192.328125 4943.242188 3192.328125 C 4943.128906 3192.328125 4943.015625 3192.308594 4942.898438 3192.261719 L 4923.8125 3184.625 C 4923.039062 3184.316406 4923.039062 3183.21875 4923.8125 3182.910156 L 4942.898438 3175.277344 C 4943.015625 3175.230469 4943.132812 3175.207031 4943.242188 3175.207031 "/>
<path xmlns="http://www.w3.org/2000/svg" fill-rule="nonzero" fill="rgb(10.572815%, 9.655762%, 10.258484%)" fill-opacity="1" d="M 4943.242188 3119.367188 C 4942.550781 3119.367188 4941.875 3119.5 4941.230469 3119.753906 L 4922.140625 3127.390625 C 4920.070312 3128.21875 4918.730469 3130.199219 4918.730469 3132.425781 C 4918.730469 3134.660156 4920.070312 3136.636719 4922.140625 3137.464844 L 4941.230469 3145.097656 C 4941.875 3145.355469 4942.550781 3145.488281 4943.242188 3145.488281 C 4946.234375 3145.488281 4948.667969 3143.054688 4948.667969 3140.0625 L 4948.667969 3124.792969 C 4948.667969 3121.800781 4946.234375 3119.367188 4943.242188 3119.367188 M 4943.242188 3123.867188 C 4943.734375 3123.867188 4944.167969 3124.261719 4944.167969 3124.792969 L 4944.167969 3140.0625 C 4944.167969 3140.59375 4943.734375 3140.988281 4943.242188 3140.988281 C 4943.128906 3140.988281 4943.015625 3140.964844 4942.898438 3140.921875 L 4923.8125 3133.285156 C 4923.039062 3132.976562 4923.039062 3131.878906 4923.8125 3131.570312 L 4942.898438 3123.933594 C 4943.015625 3123.886719 4943.128906 3123.867188 4943.242188 3123.867188 "/>
<path xmlns="http://www.w3.org/2000/svg" fill-rule="nonzero" fill="rgb(10.572815%, 9.655762%, 10.258484%)" fill-opacity="1" d="M 5134.328125 3064.230469 L 5119.054688 3064.230469 C 5117.253906 3064.230469 5115.578125 3065.121094 5114.566406 3066.613281 C 5113.554688 3068.105469 5113.351562 3069.996094 5114.019531 3071.667969 L 5121.65625 3090.753906 C 5122.484375 3092.828125 5124.460938 3094.164062 5126.691406 3094.164062 C 5128.921875 3094.164062 5130.898438 3092.824219 5131.726562 3090.753906 L 5139.363281 3071.667969 C 5140.03125 3069.996094 5139.828125 3068.105469 5138.816406 3066.613281 C 5137.808594 3065.121094 5136.128906 3064.230469 5134.328125 3064.230469 M 5134.328125 3068.730469 C 5134.980469 3068.730469 5135.425781 3069.390625 5135.183594 3069.996094 L 5127.550781 3089.082031 C 5127.394531 3089.472656 5127.042969 3089.664062 5126.691406 3089.664062 C 5126.339844 3089.664062 5125.988281 3089.472656 5125.832031 3089.082031 L 5118.199219 3069.996094 C 5117.957031 3069.390625 5118.402344 3068.730469 5119.054688 3068.730469 Z M 5134.328125 3068.730469 "/>
<path xmlns="http://www.w3.org/2000/svg" fill-rule="nonzero" fill="rgb(10.572815%, 9.655762%, 10.258484%)" fill-opacity="1" d="M 6351.332031 3193.207031 C 6350.621094 3193.207031 6349.925781 3193.347656 6349.261719 3193.621094 L 6330.261719 3201.457031 C 6328.199219 3202.308594 6326.882812 3204.300781 6326.902344 3206.527344 C 6326.929688 3208.761719 6328.285156 3210.722656 6330.367188 3211.53125 L 6349.535156 3218.960938 C 6350.164062 3219.203125 6350.824219 3219.328125 6351.496094 3219.328125 C 6352.933594 3219.328125 6354.339844 3218.742188 6355.355469 3217.714844 C 6356.378906 3216.679688 6356.9375 3215.304688 6356.921875 3213.84375 L 6356.757812 3198.574219 C 6356.722656 3195.617188 6354.289062 3193.207031 6351.332031 3193.207031 M 6351.332031 3197.707031 C 6351.816406 3197.707031 6352.25 3198.097656 6352.257812 3198.625 L 6352.421875 3213.894531 C 6352.425781 3214.425781 6351.988281 3214.828125 6351.496094 3214.828125 C 6351.386719 3214.828125 6351.273438 3214.808594 6351.160156 3214.765625 L 6331.992188 3207.335938 C 6331.214844 3207.03125 6331.203125 3205.9375 6331.976562 3205.617188 L 6350.980469 3197.78125 C 6351.097656 3197.730469 6351.214844 3197.707031 6351.332031 3197.707031 "/>
<path xmlns="http://www.w3.org/2000/svg" fill-rule="nonzero" fill="rgb(10.572815%, 9.655762%, 10.258484%)" fill-opacity="1" d="M 6416.609375 3322.804688 C 6414.378906 3322.804688 6412.402344 3324.144531 6411.574219 3326.214844 L 6403.9375 3345.304688 C 6403.269531 3346.976562 6403.472656 3348.867188 6404.484375 3350.359375 C 6405.492188 3351.851562 6407.171875 3352.742188 6408.972656 3352.742188 L 6424.246094 3352.742188 C 6426.046875 3352.742188 6427.722656 3351.851562 6428.734375 3350.359375 C 6429.746094 3348.867188 6429.949219 3346.976562 6429.28125 3345.304688 L 6421.644531 3326.214844 C 6420.816406 3324.144531 6418.839844 3322.804688 6416.609375 3322.804688 M 6416.609375 3327.304688 C 6416.960938 3327.304688 6417.3125 3327.5 6417.46875 3327.886719 L 6425.101562 3346.972656 C 6425.34375 3347.582031 6424.898438 3348.242188 6424.246094 3348.242188 L 6408.972656 3348.242188 C 6408.320312 3348.242188 6407.875 3347.582031 6408.117188 3346.972656 L 6415.75 3327.886719 C 6415.90625 3327.5 6416.257812 3327.304688 6416.609375 3327.304688 "/>
<path xmlns="http://www.w3.org/2000/svg" fill-rule="nonzero" fill="rgb(10.572815%, 9.655762%, 10.258484%)" fill-opacity="1" d="M 5793.023438 2529.789062 C 5785.578125 2529.789062 5779.523438 2535.84375 5779.523438 2543.289062 C 5779.523438 2550.730469 5785.578125 2556.789062 5793.023438 2556.789062 C 5800.46875 2556.789062 5806.523438 2550.730469 5806.523438 2543.289062 C 5806.523438 2535.84375 5800.46875 2529.789062 5793.023438 2529.789062 M 5793.023438 2534.289062 C 5797.992188 2534.289062 5802.023438 2538.316406 5802.023438 2543.289062 C 5802.023438 2548.257812 5797.992188 2552.289062 5793.023438 2552.289062 C 5788.050781 2552.289062 5784.023438 2548.257812 5784.023438 2543.289062 C 5784.023438 2538.316406 5788.050781 2534.289062 5793.023438 2534.289062 "/>
<path xmlns="http://www.w3.org/2000/svg" fill-rule="nonzero" fill="rgb(10.572815%, 9.655762%, 10.258484%)" fill-opacity="1" d="M 5455.550781 2975.242188 C 5448.105469 2975.242188 5442.050781 2981.300781 5442.050781 2988.742188 C 5442.050781 2996.1875 5448.105469 3002.242188 5455.550781 3002.242188 C 5462.992188 3002.242188 5469.050781 2996.1875 5469.050781 2988.742188 C 5469.050781 2981.300781 5462.992188 2975.242188 5455.550781 2975.242188 M 5455.550781 2979.742188 C 5460.519531 2979.742188 5464.550781 2983.773438 5464.550781 2988.742188 C 5464.550781 2993.714844 5460.519531 2997.742188 5455.550781 2997.742188 C 5450.578125 2997.742188 5446.550781 2993.714844 5446.550781 2988.742188 C 5446.550781 2983.773438 5450.578125 2979.742188 5455.550781 2979.742188 "/>
<path xmlns="http://www.w3.org/2000/svg" fill-rule="nonzero" fill="rgb(10.572815%, 9.655762%, 10.258484%)" fill-opacity="1" d="M 5455.550781 2831.71875 C 5448.105469 2831.71875 5442.050781 2837.777344 5442.050781 2845.21875 C 5442.050781 2852.664062 5448.105469 2858.71875 5455.550781 2858.71875 C 5462.992188 2858.71875 5469.050781 2852.664062 5469.050781 2845.21875 C 5469.050781 2837.777344 5462.992188 2831.71875 5455.550781 2831.71875 M 5455.550781 2836.21875 C 5460.519531 2836.21875 5464.550781 2840.25 5464.550781 2845.21875 C 5464.550781 2850.191406 5460.519531 2854.21875 5455.550781 2854.21875 C 5450.578125 2854.21875 5446.550781 2850.191406 5446.550781 2845.21875 C 5446.550781 2840.25 5450.578125 2836.21875 5455.550781 2836.21875 "/>
<path xmlns="http://www.w3.org/2000/svg" fill-rule="nonzero" fill="rgb(10.572815%, 9.655762%, 10.258484%)" fill-opacity="1" d="M 5793.175781 2440.691406 C 5785.726562 2440.691406 5779.667969 2446.75 5779.667969 2454.199219 C 5779.667969 2461.644531 5785.726562 2467.703125 5793.175781 2467.703125 C 5800.625 2467.703125 5806.683594 2461.644531 5806.683594 2454.199219 C 5806.683594 2446.75 5800.625 2440.691406 5793.175781 2440.691406 M 5793.175781 2445.191406 C 5798.148438 2445.191406 5802.179688 2449.226562 5802.179688 2454.199219 C 5802.179688 2459.171875 5798.148438 2463.203125 5793.175781 2463.203125 C 5788.203125 2463.203125 5784.171875 2459.171875 5784.171875 2454.199219 C 5784.171875 2449.226562 5788.203125 2445.191406 5793.175781 2445.191406 "/>
<path xmlns="http://www.w3.org/2000/svg" fill-rule="nonzero" fill="rgb(10.572815%, 9.655762%, 10.258484%)" fill-opacity="1" d="M 5817.878906 2440.691406 C 5810.429688 2440.691406 5804.371094 2446.75 5804.371094 2454.199219 C 5804.371094 2461.644531 5810.429688 2467.703125 5817.878906 2467.703125 C 5825.324219 2467.703125 5831.382812 2461.644531 5831.382812 2454.199219 C 5831.382812 2446.75 5825.324219 2440.691406 5817.878906 2440.691406 M 5817.878906 2445.191406 C 5822.851562 2445.191406 5826.882812 2449.226562 5826.882812 2454.199219 C 5826.882812 2459.171875 5822.851562 2463.203125 5817.878906 2463.203125 C 5812.902344 2463.203125 5808.871094 2459.171875 5808.871094 2454.199219 C 5808.871094 2449.226562 5812.902344 2445.191406 5817.878906 2445.191406 "/>
<path xmlns="http://www.w3.org/2000/svg" fill-rule="nonzero" fill="rgb(10.572815%, 9.655762%, 10.258484%)" fill-opacity="1" d="M 5793.023438 2134.378906 C 5785.578125 2134.378906 5779.523438 2140.433594 5779.523438 2147.878906 C 5779.523438 2155.320312 5785.578125 2161.378906 5793.023438 2161.378906 C 5800.46875 2161.378906 5806.523438 2155.320312 5806.523438 2147.878906 C 5806.523438 2140.433594 5800.46875 2134.378906 5793.023438 2134.378906 M 5793.023438 2138.878906 C 5797.992188 2138.878906 5802.023438 2142.90625 5802.023438 2147.878906 C 5802.023438 2152.847656 5797.992188 2156.878906 5793.023438 2156.878906 C 5788.050781 2156.878906 5784.023438 2152.847656 5784.023438 2147.878906 C 5784.023438 2142.90625 5788.050781 2138.878906 5793.023438 2138.878906 "/>
<path xmlns="http://www.w3.org/2000/svg" fill-rule="nonzero" fill="rgb(10.572815%, 9.655762%, 10.258484%)" fill-opacity="1" d="M 5793.023438 1856.019531 C 5785.578125 1856.019531 5779.523438 1862.074219 5779.523438 1869.519531 C 5779.523438 1876.964844 5785.578125 1883.019531 5793.023438 1883.019531 C 5800.46875 1883.019531 5806.523438 1876.964844 5806.523438 1869.519531 C 5806.523438 1862.074219 5800.46875 1856.019531 5793.023438 1856.019531 M 5793.023438 1860.519531 C 5797.992188 1860.519531 5802.023438 1864.550781 5802.023438 1869.519531 C 5802.023438 1874.488281 5797.992188 1878.519531 5793.023438 1878.519531 C 5788.050781 1878.519531 5784.023438 1874.488281 5784.023438 1869.519531 C 5784.023438 1864.550781 5788.050781 1860.519531 5793.023438 1860.519531 "/>
<path xmlns="http://www.w3.org/2000/svg" fill-rule="nonzero" fill="rgb(10.572815%, 9.655762%, 10.258484%)" fill-opacity="1" d="M 5541.199219 2599.480469 C 5533.753906 2599.480469 5527.699219 2605.535156 5527.699219 2612.980469 C 5527.699219 2620.421875 5533.753906 2626.480469 5541.199219 2626.480469 C 5548.644531 2626.480469 5554.699219 2620.421875 5554.699219 2612.980469 C 5554.699219 2605.535156 5548.644531 2599.480469 5541.199219 2599.480469 M 5541.199219 2603.980469 C 5546.171875 2603.980469 5550.199219 2608.007812 5550.199219 2612.980469 C 5550.199219 2617.949219 5546.171875 2621.980469 5541.199219 2621.980469 C 5536.230469 2621.980469 5532.199219 2617.949219 5532.199219 2612.980469 C 5532.199219 2608.007812 5536.230469 2603.980469 5541.199219 2603.980469 "/>
<path xmlns="http://www.w3.org/2000/svg" fill-rule="nonzero" fill="rgb(10.572815%, 9.655762%, 10.258484%)" fill-opacity="1" d="M 5456.632812 2543.734375 C 5454.398438 2543.734375 5452.421875 2545.074219 5451.59375 2547.144531 L 5443.960938 2566.230469 C 5443.289062 2567.90625 5443.496094 2569.796875 5444.503906 2571.289062 C 5445.515625 2572.78125 5447.195312 2573.671875 5448.996094 2573.671875 L 5464.265625 2573.671875 C 5466.066406 2573.671875 5467.746094 2572.78125 5468.757812 2571.289062 C 5469.769531 2569.796875 5469.972656 2567.90625 5469.300781 2566.234375 L 5461.667969 2547.144531 C 5460.839844 2545.074219 5458.863281 2543.734375 5456.632812 2543.734375 M 5456.632812 2548.234375 C 5456.984375 2548.234375 5457.332031 2548.429688 5457.488281 2548.816406 L 5465.125 2567.902344 C 5465.367188 2568.511719 5464.917969 2569.171875 5464.265625 2569.171875 L 5448.996094 2569.171875 C 5448.34375 2569.171875 5447.894531 2568.511719 5448.136719 2567.902344 L 5455.773438 2548.816406 C 5455.929688 2548.429688 5456.277344 2548.234375 5456.632812 2548.234375 "/>
<path xmlns="http://www.w3.org/2000/svg" fill-rule="nonzero" fill="rgb(100%, 100%, 100%)" fill-opacity="1" d="M 7092.878906 2645.65625 C 7081.023438 2645.65625 7071.378906 2636.011719 7071.378906 2624.15625 C 7071.378906 2612.300781 7081.023438 2602.65625 7092.878906 2602.65625 C 7104.734375 2602.65625 7114.378906 2612.300781 7114.378906 2624.15625 C 7114.378906 2636.011719 7104.734375 2645.65625 7092.878906 2645.65625 "/>
<path xmlns="http://www.w3.org/2000/svg" fill-rule="nonzero" fill="rgb(100%, 100%, 100%)" fill-opacity="1" d="M 7092.882812 2883.734375 C 7081.027344 2883.734375 7071.382812 2874.089844 7071.382812 2862.234375 C 7071.382812 2850.378906 7081.027344 2840.734375 7092.882812 2840.734375 C 7104.738281 2840.734375 7114.382812 2850.378906 7114.382812 2862.234375 C 7114.382812 2874.089844 7104.738281 2883.734375 7092.882812 2883.734375 "/>
<path xmlns="http://www.w3.org/2000/svg" fill-rule="nonzero" fill="rgb(100%, 100%, 100%)" fill-opacity="1" d="M 7092.613281 3308.300781 C 7080.757812 3308.300781 7071.113281 3298.652344 7071.113281 3286.800781 C 7071.113281 3274.945312 7080.757812 3265.300781 7092.613281 3265.300781 C 7104.46875 3265.300781 7114.113281 3274.945312 7114.113281 3286.800781 C 7114.113281 3298.652344 7104.46875 3308.300781 7092.613281 3308.300781 "/>
<path xmlns="http://www.w3.org/2000/svg" fill-rule="nonzero" fill="rgb(100%, 100%, 100%)" fill-opacity="1" d="M 4785.761719 1845.628906 C 4774.734375 1845.628906 4765.761719 1836.65625 4765.761719 1825.628906 C 4765.761719 1814.601562 4774.734375 1805.628906 4785.761719 1805.628906 C 4796.789062 1805.628906 4805.761719 1814.601562 4805.761719 1825.628906 C 4805.761719 1836.65625 4796.789062 1845.628906 4785.761719 1845.628906 "/>
<path xmlns="http://www.w3.org/2000/svg" fill-rule="nonzero" fill="rgb(100%, 100%, 100%)" fill-opacity="1" d="M 4846.882812 1800.8125 C 4835.851562 1800.8125 4826.882812 1791.839844 4826.882812 1780.8125 C 4826.882812 1769.78125 4835.851562 1760.8125 4846.882812 1760.8125 C 4857.910156 1760.8125 4866.882812 1769.78125 4866.882812 1780.8125 C 4866.882812 1791.839844 4857.910156 1800.8125 4846.882812 1800.8125 "/>
<path xmlns="http://www.w3.org/2000/svg" fill-rule="nonzero" fill="rgb(100%, 100%, 100%)" fill-opacity="1" d="M 5307.125 2789.769531 C 5296.097656 2789.769531 5287.125 2780.796875 5287.125 2769.769531 C 5287.125 2758.738281 5296.097656 2749.769531 5307.125 2749.769531 C 5318.152344 2749.769531 5327.125 2758.738281 5327.125 2769.769531 C 5327.125 2780.796875 5318.152344 2789.769531 5307.125 2789.769531 "/>
<path xmlns="http://www.w3.org/2000/svg" fill-rule="nonzero" fill="rgb(100%, 100%, 100%)" fill-opacity="1" d="M 5307.160156 3102.050781 C 5296.132812 3102.050781 5287.160156 3093.082031 5287.160156 3082.050781 C 5287.160156 3071.023438 5296.132812 3062.050781 5307.160156 3062.050781 C 5318.191406 3062.050781 5327.160156 3071.023438 5327.160156 3082.050781 C 5327.160156 3093.082031 5318.191406 3102.050781 5307.160156 3102.050781 "/>
<path xmlns="http://www.w3.org/2000/svg" fill-rule="nonzero" fill="rgb(100%, 100%, 100%)" fill-opacity="1" d="M 5509.574219 3365.769531 C 5498.542969 3365.769531 5489.574219 3356.796875 5489.574219 3345.769531 C 5489.574219 3334.742188 5498.542969 3325.769531 5509.574219 3325.769531 C 5520.601562 3325.769531 5529.574219 3334.742188 5529.574219 3345.769531 C 5529.574219 3356.796875 5520.601562 3365.769531 5509.574219 3365.769531 "/>
<path xmlns="http://www.w3.org/2000/svg" fill-rule="nonzero" fill="rgb(100%, 100%, 100%)" fill-opacity="1" d="M 5474.046875 1799.292969 C 5463.019531 1799.292969 5454.046875 1790.320312 5454.046875 1779.292969 C 5454.046875 1768.265625 5463.019531 1759.292969 5474.046875 1759.292969 C 5485.074219 1759.292969 5494.046875 1768.265625 5494.046875 1779.292969 C 5494.046875 1790.320312 5485.074219 1799.292969 5474.046875 1799.292969 "/>
<path xmlns="http://www.w3.org/2000/svg" fill-rule="nonzero" fill="rgb(10.580444%, 9.895325%, 9.506226%)" fill-opacity="1" d="M 7148.558594 2647.582031 C 7148.558594 2650.097656 7147.699219 2652.164062 7145.949219 2653.785156 C 7144.199219 2655.410156 7142.003906 2656.238281 7139.300781 2656.238281 C 7136.148438 2656.238281 7133.730469 2655.695312 7132.078125 2654.613281 L 7133.574219 2650.097656 C 7134.8125 2650.957031 7136.308594 2651.367188 7138.027344 2651.367188 C 7139.140625 2651.367188 7140.03125 2651.082031 7140.699219 2650.480469 C 7141.367188 2649.875 7141.6875 2649.078125 7141.6875 2648.09375 C 7141.6875 2647.199219 7141.398438 2646.46875 7140.796875 2645.898438 C 7140.222656 2645.292969 7139.238281 2644.65625 7137.835938 2644.019531 C 7134.175781 2642.398438 7132.332031 2639.851562 7132.332031 2636.414062 C 7132.332031 2634.027344 7133.128906 2631.992188 7134.75 2630.371094 C 7136.371094 2628.75 7138.472656 2627.921875 7141.082031 2627.921875 C 7143.785156 2627.921875 7145.917969 2628.460938 7147.539062 2629.511719 L 7146.171875 2633.457031 C 7144.898438 2632.660156 7143.5 2632.246094 7142.035156 2632.246094 C 7139.808594 2632.246094 7138.695312 2633.296875 7138.695312 2635.398438 C 7138.695312 2636.320312 7139.011719 2637.113281 7139.679688 2637.753906 C 7140.222656 2638.292969 7141.113281 2638.832031 7142.417969 2639.4375 C 7144.835938 2640.519531 7146.523438 2641.824219 7147.476562 2643.351562 C 7148.207031 2644.496094 7148.558594 2645.898438 7148.558594 2647.582031 "/>
</svg>
