<?xml version="1.0" encoding="UTF-8"?>
<svg xmlns="http://www.w3.org/2000/svg" xmlns:xlink="http://www.w3.org/1999/xlink" viewBox="2378.3925 5045.16 2378.3925 1681.72" width="2378.3925" height="1681.72">
<path xmlns="http://www.w3.org/2000/svg" fill-rule="nonzero" fill="rgb(10.572815%, 9.655762%, 10.258484%)" fill-opacity="1" d="M 4213.699219 5642.964844 C 4206.253906 5642.964844 4200.199219 5649.019531 4200.199219 5656.464844 C 4200.199219 5663.910156 4206.253906 5669.964844 4213.699219 5669.964844 C 4221.144531 5669.964844 4227.199219 5663.910156 4227.199219 5656.464844 C 4227.199219 5649.019531 4221.144531 5642.964844 4213.699219 5642.964844 M 4213.699219 5647.464844 C 4218.671875 5647.464844 4222.699219 5651.492188 4222.699219 5656.464844 C 4222.699219 5661.433594 4218.671875 5665.464844 4213.699219 5665.464844 C 4208.730469 5665.464844 4204.699219 5661.433594 4204.699219 5656.464844 C 4204.699219 5651.492188 4208.730469 5647.464844 4213.699219 5647.464844 "/>
<path xmlns="http://www.w3.org/2000/svg" fill-rule="nonzero" fill="rgb(10.572815%, 9.655762%, 10.258484%)" fill-opacity="1" d="M 4213.699219 5558.636719 C 4206.253906 5558.636719 4200.199219 5564.691406 4200.199219 5572.136719 C 4200.199219 5579.582031 4206.253906 5585.636719 4213.699219 5585.636719 C 4221.144531 5585.636719 4227.199219 5579.582031 4227.199219 5572.136719 C 4227.199219 5564.691406 4221.144531 5558.636719 4213.699219 5558.636719 M 4213.699219 5563.136719 C 4218.671875 5563.136719 4222.699219 5567.164062 4222.699219 5572.136719 C 4222.699219 5577.105469 4218.671875 5581.136719 4213.699219 5581.136719 C 4208.730469 5581.136719 4204.699219 5577.105469 4204.699219 5572.136719 C 4204.699219 5567.164062 4208.730469 5563.136719 4213.699219 5563.136719 "/>
<path xmlns="http://www.w3.org/2000/svg" fill-rule="nonzero" fill="rgb(10.572815%, 9.655762%, 10.258484%)" fill-opacity="1" d="M 4213.699219 5474.308594 C 4206.253906 5474.308594 4200.199219 5480.363281 4200.199219 5487.808594 C 4200.199219 5495.253906 4206.253906 5501.308594 4213.699219 5501.308594 C 4221.144531 5501.308594 4227.199219 5495.253906 4227.199219 5487.808594 C 4227.199219 5480.363281 4221.144531 5474.308594 4213.699219 5474.308594 M 4213.699219 5478.808594 C 4218.671875 5478.808594 4222.699219 5482.839844 4222.699219 5487.808594 C 4222.699219 5492.777344 4218.671875 5496.808594 4213.699219 5496.808594 C 4208.730469 5496.808594 4204.699219 5492.777344 4204.699219 5487.808594 C 4204.699219 5482.839844 4208.730469 5478.808594 4213.699219 5478.808594 "/>
<path xmlns="http://www.w3.org/2000/svg" fill-rule="nonzero" fill="rgb(10.572815%, 9.655762%, 10.258484%)" fill-opacity="1" d="M 4213.699219 5389.980469 C 4206.253906 5389.980469 4200.199219 5396.039062 4200.199219 5403.480469 C 4200.199219 5410.925781 4206.253906 5416.980469 4213.699219 5416.980469 C 4221.144531 5416.980469 4227.199219 5410.925781 4227.199219 5403.480469 C 4227.199219 5396.039062 4221.144531 5389.980469 4213.699219 5389.980469 M 4213.699219 5394.480469 C 4218.671875 5394.480469 4222.699219 5398.511719 4222.699219 5403.480469 C 4222.699219 5408.453125 4218.671875 5412.480469 4213.699219 5412.480469 C 4208.730469 5412.480469 4204.699219 5408.453125 4204.699219 5403.480469 C 4204.699219 5398.511719 4208.730469 5394.480469 4213.699219 5394.480469 "/>
<path xmlns="http://www.w3.org/2000/svg" fill-rule="nonzero" fill="rgb(10.572815%, 9.655762%, 10.258484%)" fill-opacity="1" d="M 4213.699219 5305.652344 C 4206.253906 5305.652344 4200.199219 5311.710938 4200.199219 5319.152344 C 4200.199219 5326.597656 4206.253906 5332.652344 4213.699219 5332.652344 C 4221.144531 5332.652344 4227.199219 5326.597656 4227.199219 5319.152344 C 4227.199219 5311.710938 4221.144531 5305.652344 4213.699219 5305.652344 M 4213.699219 5310.152344 C 4218.671875 5310.152344 4222.699219 5314.183594 4222.699219 5319.152344 C 4222.699219 5324.125 4218.671875 5328.152344 4213.699219 5328.152344 C 4208.730469 5328.152344 4204.699219 5324.125 4204.699219 5319.152344 C 4204.699219 5314.183594 4208.730469 5310.152344 4213.699219 5310.152344 "/>
<path xmlns="http://www.w3.org/2000/svg" fill-rule="nonzero" fill="rgb(10.572815%, 9.655762%, 10.258484%)" fill-opacity="1" d="M 4213.699219 5221.324219 C 4206.253906 5221.324219 4200.199219 5227.382812 4200.199219 5234.824219 C 4200.199219 5242.269531 4206.253906 5248.324219 4213.699219 5248.324219 C 4221.144531 5248.324219 4227.199219 5242.269531 4227.199219 5234.824219 C 4227.199219 5227.382812 4221.144531 5221.324219 4213.699219 5221.324219 M 4213.699219 5225.824219 C 4218.671875 5225.824219 4222.699219 5229.855469 4222.699219 5234.824219 C 4222.699219 5239.796875 4218.671875 5243.824219 4213.699219 5243.824219 C 4208.730469 5243.824219 4204.699219 5239.796875 4204.699219 5234.824219 C 4204.699219 5229.855469 4208.730469 5225.824219 4213.699219 5225.824219 "/>
<path xmlns="http://www.w3.org/2000/svg" fill-rule="nonzero" fill="rgb(10.572815%, 9.655762%, 10.258484%)" fill-opacity="1" d="M 4213.699219 5966.425781 C 4206.253906 5966.425781 4200.199219 5972.480469 4200.199219 5979.925781 C 4200.199219 5987.367188 4206.253906 5993.425781 4213.699219 5993.425781 C 4221.144531 5993.425781 4227.199219 5987.367188 4227.199219 5979.925781 C 4227.199219 5972.480469 4221.144531 5966.425781 4213.699219 5966.425781 M 4213.699219 5970.925781 C 4218.671875 5970.925781 4222.699219 5974.953125 4222.699219 5979.925781 C 4222.699219 5984.894531 4218.671875 5988.925781 4213.699219 5988.925781 C 4208.730469 5988.925781 4204.699219 5984.894531 4204.699219 5979.925781 C 4204.699219 5974.953125 4208.730469 5970.925781 4213.699219 5970.925781 "/>
<path xmlns="http://www.w3.org/2000/svg" fill-rule="nonzero" fill="rgb(10.572815%, 9.655762%, 10.258484%)" fill-opacity="1" d="M 4213.699219 5811.621094 C 4206.253906 5811.621094 4200.199219 5817.675781 4200.199219 5825.121094 C 4200.199219 5832.566406 4206.253906 5838.621094 4213.699219 5838.621094 C 4221.144531 5838.621094 4227.199219 5832.566406 4227.199219 5825.121094 C 4227.199219 5817.675781 4221.144531 5811.621094 4213.699219 5811.621094 M 4213.699219 5816.121094 C 4218.671875 5816.121094 4222.699219 5820.148438 4222.699219 5825.121094 C 4222.699219 5830.089844 4218.671875 5834.121094 4213.699219 5834.121094 C 4208.730469 5834.121094 4204.699219 5830.089844 4204.699219 5825.121094 C 4204.699219 5820.148438 4208.730469 5816.121094 4213.699219 5816.121094 "/>
<path xmlns="http://www.w3.org/2000/svg" fill-rule="nonzero" fill="rgb(10.572815%, 9.655762%, 10.258484%)" fill-opacity="1" d="M 4213.699219 5727.292969 C 4206.253906 5727.292969 4200.199219 5733.347656 4200.199219 5740.792969 C 4200.199219 5748.238281 4206.253906 5754.292969 4213.699219 5754.292969 C 4221.144531 5754.292969 4227.199219 5748.238281 4227.199219 5740.792969 C 4227.199219 5733.347656 4221.144531 5727.292969 4213.699219 5727.292969 M 4213.699219 5731.792969 C 4218.671875 5731.792969 4222.699219 5735.820312 4222.699219 5740.792969 C 4222.699219 5745.761719 4218.671875 5749.792969 4213.699219 5749.792969 C 4208.730469 5749.792969 4204.699219 5745.761719 4204.699219 5740.792969 C 4204.699219 5735.820312 4208.730469 5731.792969 4213.699219 5731.792969 "/>
<path xmlns="http://www.w3.org/2000/svg" fill-rule="nonzero" fill="rgb(10.572815%, 9.655762%, 10.258484%)" fill-opacity="1" d="M 2481.199219 5438.792969 C 2473.753906 5438.792969 2467.699219 5444.851562 2467.699219 5452.292969 C 2467.699219 5459.738281 2473.753906 5465.792969 2481.199219 5465.792969 C 2488.644531 5465.792969 2494.699219 5459.738281 2494.699219 5452.292969 C 2494.699219 5444.851562 2488.644531 5438.792969 2481.199219 5438.792969 M 2481.199219 5443.292969 C 2486.171875 5443.292969 2490.199219 5447.324219 2490.199219 5452.292969 C 2490.199219 5457.265625 2486.171875 5461.292969 2481.199219 5461.292969 C 2476.230469 5461.292969 2472.199219 5457.265625 2472.199219 5452.292969 C 2472.199219 5447.324219 2476.230469 5443.292969 2481.199219 5443.292969 "/>
<path xmlns="http://www.w3.org/2000/svg" fill-rule="nonzero" fill="rgb(10.572815%, 9.655762%, 10.258484%)" fill-opacity="1" d="M 2481.199219 5781.144531 C 2473.753906 5781.144531 2467.699219 5787.203125 2467.699219 5794.644531 C 2467.699219 5802.089844 2473.753906 5808.144531 2481.199219 5808.144531 C 2488.644531 5808.144531 2494.699219 5802.089844 2494.699219 5794.644531 C 2494.699219 5787.203125 2488.644531 5781.144531 2481.199219 5781.144531 M 2481.199219 5785.644531 C 2486.171875 5785.644531 2490.199219 5789.675781 2490.199219 5794.644531 C 2490.199219 5799.617188 2486.171875 5803.644531 2481.199219 5803.644531 C 2476.230469 5803.644531 2472.199219 5799.617188 2472.199219 5794.644531 C 2472.199219 5789.675781 2476.230469 5785.644531 2481.199219 5785.644531 "/>
<path xmlns="http://www.w3.org/2000/svg" fill-rule="nonzero" fill="rgb(10.572815%, 9.655762%, 10.258484%)" fill-opacity="1" d="M 2481.199219 5096.445312 C 2473.753906 5096.445312 2467.699219 5102.5 2467.699219 5109.945312 C 2467.699219 5117.386719 2473.753906 5123.445312 2481.199219 5123.445312 C 2488.644531 5123.445312 2494.699219 5117.386719 2494.699219 5109.945312 C 2494.699219 5102.5 2488.644531 5096.445312 2481.199219 5096.445312 M 2481.199219 5100.945312 C 2486.171875 5100.945312 2490.199219 5104.972656 2490.199219 5109.945312 C 2490.199219 5114.914062 2486.171875 5118.945312 2481.199219 5118.945312 C 2476.230469 5118.945312 2472.199219 5114.914062 2472.199219 5109.945312 C 2472.199219 5104.972656 2476.230469 5100.945312 2481.199219 5100.945312 "/>
<path xmlns="http://www.w3.org/2000/svg" fill-rule="nonzero" fill="rgb(10.572815%, 9.655762%, 10.258484%)" fill-opacity="1" d="M 2481.199219 5267.617188 C 2473.753906 5267.617188 2467.699219 5273.675781 2467.699219 5281.117188 C 2467.699219 5288.5625 2473.753906 5294.617188 2481.199219 5294.617188 C 2488.644531 5294.617188 2494.699219 5288.5625 2494.699219 5281.117188 C 2494.699219 5273.675781 2488.644531 5267.617188 2481.199219 5267.617188 M 2481.199219 5272.117188 C 2486.171875 5272.117188 2490.199219 5276.148438 2490.199219 5281.117188 C 2490.199219 5286.089844 2486.171875 5290.117188 2481.199219 5290.117188 C 2476.230469 5290.117188 2472.199219 5286.089844 2472.199219 5281.117188 C 2472.199219 5276.148438 2476.230469 5272.117188 2481.199219 5272.117188 "/>
<path xmlns="http://www.w3.org/2000/svg" fill-rule="nonzero" fill="rgb(10.572815%, 9.655762%, 10.258484%)" fill-opacity="1" d="M 4213.699219 6043.609375 C 4206.253906 6043.609375 4200.199219 6049.664062 4200.199219 6057.109375 C 4200.199219 6064.554688 4206.253906 6070.609375 4213.699219 6070.609375 C 4221.144531 6070.609375 4227.199219 6064.554688 4227.199219 6057.109375 C 4227.199219 6049.664062 4221.144531 6043.609375 4213.699219 6043.609375 M 4213.699219 6048.109375 C 4218.671875 6048.109375 4222.699219 6052.140625 4222.699219 6057.109375 C 4222.699219 6062.078125 4218.671875 6066.109375 4213.699219 6066.109375 C 4208.730469 6066.109375 4204.699219 6062.078125 4204.699219 6057.109375 C 4204.699219 6052.140625 4208.730469 6048.109375 4213.699219 6048.109375 "/>
<path xmlns="http://www.w3.org/2000/svg" fill-rule="nonzero" fill="rgb(10.572815%, 9.655762%, 10.258484%)" fill-opacity="1" d="M 2481.203125 5608.503906 C 2478.96875 5608.503906 2476.992188 5609.839844 2476.164062 5611.914062 L 2468.53125 5631 C 2467.863281 5632.671875 2468.0625 5634.5625 2469.074219 5636.054688 C 2470.085938 5637.546875 2471.765625 5638.4375 2473.566406 5638.4375 L 2488.835938 5638.4375 C 2490.636719 5638.4375 2492.316406 5637.546875 2493.328125 5636.054688 C 2494.339844 5634.5625 2494.542969 5632.671875 2493.875 5631 L 2486.238281 5611.914062 C 2485.410156 5609.839844 2483.433594 5608.503906 2481.203125 5608.503906 M 2481.203125 5613.003906 C 2481.554688 5613.003906 2481.90625 5613.195312 2482.058594 5613.582031 L 2489.695312 5632.671875 C 2489.9375 5633.277344 2489.492188 5633.9375 2488.835938 5633.9375 L 2473.566406 5633.9375 C 2472.914062 5633.9375 2472.464844 5633.277344 2472.707031 5632.671875 L 2480.34375 5613.582031 C 2480.496094 5613.195312 2480.847656 5613.003906 2481.203125 5613.003906 "/>
<path xmlns="http://www.w3.org/2000/svg" fill-rule="nonzero" fill="rgb(10.572815%, 9.655762%, 10.258484%)" fill-opacity="1" d="M 4493.121094 5027.898438 C 4492.410156 5027.898438 4491.710938 5028.035156 4491.050781 5028.308594 L 4472.046875 5036.148438 C 4469.984375 5036.996094 4468.667969 5038.988281 4468.691406 5041.21875 C 4468.714844 5043.449219 4470.074219 5045.414062 4472.15625 5046.21875 L 4491.324219 5053.648438 C 4491.953125 5053.894531 4492.613281 5054.015625 4493.285156 5054.015625 C 4494.722656 5054.015625 4496.128906 5053.429688 4497.140625 5052.402344 C 4498.167969 5051.367188 4498.722656 5049.992188 4498.707031 5048.53125 L 4498.542969 5033.265625 C 4498.511719 5030.304688 4496.078125 5027.898438 4493.121094 5027.898438 M 4493.121094 5032.398438 C 4493.605469 5032.398438 4494.039062 5032.785156 4494.042969 5033.3125 L 4494.207031 5048.582031 C 4494.214844 5049.113281 4493.777344 5049.515625 4493.285156 5049.515625 C 4493.171875 5049.515625 4493.0625 5049.496094 4492.949219 5049.453125 L 4473.78125 5042.023438 C 4473.003906 5041.722656 4472.992188 5040.625 4473.761719 5040.308594 L 4492.769531 5032.46875 C 4492.882812 5032.417969 4493.003906 5032.398438 4493.121094 5032.398438 "/>
<path xmlns="http://www.w3.org/2000/svg" fill-rule="nonzero" fill="rgb(10.572815%, 9.655762%, 10.258484%)" fill-opacity="1" d="M 4493.121094 5054.496094 C 4492.410156 5054.496094 4491.710938 5054.636719 4491.050781 5054.910156 L 4472.046875 5062.746094 C 4469.984375 5063.597656 4468.667969 5065.589844 4468.691406 5067.820312 C 4468.714844 5070.050781 4470.074219 5072.011719 4472.15625 5072.820312 L 4491.324219 5080.25 C 4491.953125 5080.492188 4492.613281 5080.617188 4493.285156 5080.617188 C 4494.722656 5080.617188 4496.128906 5080.03125 4497.140625 5079.003906 C 4498.167969 5077.96875 4498.722656 5076.59375 4498.707031 5075.132812 L 4498.542969 5059.863281 C 4498.511719 5056.90625 4496.078125 5054.496094 4493.121094 5054.496094 M 4493.121094 5058.996094 C 4493.605469 5058.996094 4494.039062 5059.386719 4494.042969 5059.914062 L 4494.207031 5075.179688 C 4494.214844 5075.714844 4493.777344 5076.117188 4493.285156 5076.117188 C 4493.171875 5076.117188 4493.0625 5076.097656 4492.949219 5076.054688 L 4473.78125 5068.625 C 4473.003906 5068.320312 4472.992188 5067.226562 4473.761719 5066.90625 L 4492.769531 5059.070312 C 4492.882812 5059.019531 4493.003906 5058.996094 4493.121094 5058.996094 "/>
<path xmlns="http://www.w3.org/2000/svg" fill-rule="nonzero" fill="rgb(10.572815%, 9.655762%, 10.258484%)" fill-opacity="1" d="M 3310.125 5027.378906 C 3307.132812 5027.378906 3304.699219 5029.8125 3304.699219 5032.804688 L 3304.699219 5048.074219 C 3304.699219 5051.066406 3307.132812 5053.5 3310.125 5053.5 C 3310.816406 5053.5 3311.496094 5053.371094 3312.140625 5053.113281 L 3331.226562 5045.476562 C 3333.296875 5044.648438 3334.636719 5042.671875 3334.636719 5040.441406 C 3334.636719 5038.210938 3333.296875 5036.230469 3331.226562 5035.40625 L 3312.140625 5027.769531 C 3311.496094 5027.511719 3310.816406 5027.378906 3310.125 5027.378906 M 3310.125 5031.878906 C 3310.238281 5031.878906 3310.351562 5031.902344 3310.46875 5031.949219 L 3329.554688 5039.582031 C 3330.328125 5039.890625 3330.328125 5040.988281 3329.554688 5041.296875 L 3310.46875 5048.933594 C 3310.351562 5048.980469 3310.238281 5049 3310.125 5049 C 3309.636719 5049 3309.199219 5048.605469 3309.199219 5048.074219 L 3309.199219 5032.804688 C 3309.199219 5032.277344 3309.636719 5031.878906 3310.125 5031.878906 "/>
<path xmlns="http://www.w3.org/2000/svg" fill-rule="nonzero" fill="rgb(100%, 100%, 100%)" fill-opacity="1" d="M 3170.199219 5214.855469 C 3158.34375 5214.855469 3148.699219 5205.210938 3148.699219 5193.355469 C 3148.699219 5181.5 3158.34375 5171.855469 3170.199219 5171.855469 C 3182.050781 5171.855469 3191.699219 5181.5 3191.699219 5193.355469 C 3191.699219 5205.210938 3182.050781 5214.855469 3170.199219 5214.855469 "/>
<path xmlns="http://www.w3.org/2000/svg" fill-rule="nonzero" fill="rgb(100%, 100%, 100%)" fill-opacity="1" d="M 3170.230469 5436.441406 C 3158.378906 5436.441406 3148.730469 5426.796875 3148.730469 5414.941406 C 3148.730469 5403.085938 3158.378906 5393.441406 3170.230469 5393.441406 C 3182.085938 5393.441406 3191.730469 5403.085938 3191.730469 5414.941406 C 3191.730469 5426.796875 3182.085938 5436.441406 3170.230469 5436.441406 "/>
<path xmlns="http://www.w3.org/2000/svg" fill-rule="nonzero" fill="rgb(100%, 100%, 100%)" fill-opacity="1" d="M 3170.199219 5658.023438 C 3158.34375 5658.023438 3148.699219 5648.378906 3148.699219 5636.523438 C 3148.699219 5624.671875 3158.34375 5615.023438 3170.199219 5615.023438 C 3182.050781 5615.023438 3191.699219 5624.671875 3191.699219 5636.523438 C 3191.699219 5648.378906 3182.050781 5658.023438 3170.199219 5658.023438 "/>
<path xmlns="http://www.w3.org/2000/svg" fill-rule="nonzero" fill="rgb(100%, 100%, 100%)" fill-opacity="1" d="M 2989.914062 5879.609375 C 2978.0625 5879.609375 2968.414062 5869.964844 2968.414062 5858.109375 C 2968.414062 5846.253906 2978.0625 5836.609375 2989.914062 5836.609375 C 3001.769531 5836.609375 3011.414062 5846.253906 3011.414062 5858.109375 C 3011.414062 5869.964844 3001.769531 5879.609375 2989.914062 5879.609375 "/>
<path xmlns="http://www.w3.org/2000/svg" fill-rule="nonzero" fill="rgb(100%, 100%, 100%)" fill-opacity="1" d="M 2545.203125 5877.886719 C 2533.347656 5877.886719 2523.703125 5868.238281 2523.703125 5856.386719 C 2523.703125 5844.53125 2533.347656 5834.886719 2545.203125 5834.886719 C 2557.058594 5834.886719 2566.703125 5844.53125 2566.703125 5856.386719 C 2566.703125 5868.238281 2557.058594 5877.886719 2545.203125 5877.886719 "/>
<path xmlns="http://www.w3.org/2000/svg" fill-rule="nonzero" fill="rgb(100%, 100%, 100%)" fill-opacity="1" d="M 2382.609375 5900.738281 C 2360.628906 5900.738281 2342.75 5882.855469 2342.75 5860.875 C 2342.75 5838.894531 2360.628906 5821.015625 2382.609375 5821.015625 C 2404.589844 5821.015625 2422.472656 5838.894531 2422.472656 5860.875 C 2422.472656 5882.855469 2404.589844 5900.738281 2382.609375 5900.738281 "/>
</svg>
