<?xml version="1.0" encoding="UTF-8"?>
<svg xmlns="http://www.w3.org/2000/svg" xmlns:xlink="http://www.w3.org/1999/xlink" viewBox="0 0 2378.3925 1681.72" width="2378.3925" height="1681.72">
<path xmlns="http://www.w3.org/2000/svg" fill="none" stroke-width="15" stroke-linecap="butt" stroke-linejoin="miter" stroke="rgb(30.001831%, 64.794922%, 59.94873%)" stroke-opacity="1" stroke-miterlimit="10" d="M -0.00048125 -0.00083125 L 37.999519 -0.00083125 C 76.659675 -0.00083125 107.999519 -31.340675 107.999519 -70.000831 L 107.999519 -1298.360206 " transform="matrix(1, 0, 0, -1, 2346.1997, 1401.7687)"/>
<path xmlns="http://www.w3.org/2000/svg" fill="none" stroke-width="15" stroke-linecap="butt" stroke-linejoin="miter" stroke="rgb(42.337036%, 77.964783%, 45.454407%)" stroke-opacity="1" stroke-miterlimit="10" d="M 0.000525 -0.00039375 L -343.245569 -0.00039375 C -370.862756 -0.00039375 -393.245569 22.386325 -393.245569 49.999606 L -387.878381 75.288669 L -387.878381 119.538669 C -387.878381 158.198825 -419.218225 189.538669 -457.878381 189.538669 L -1179.878381 189.538669 L -1132.476038 189.538669 C -1086.581506 189.538669 -1049.378381 152.335544 -1049.378381 106.441013 L -1049.378381 -256.937894 C -1049.378381 -307.769925 -1008.167444 -348.980862 -957.335413 -348.980862 L 1481.621619 -348.980862 C 1520.281775 -348.980862 1551.621619 -380.320706 1551.621619 -418.980862 L 1551.621619 -801.328519 " transform="matrix(1, 0, 0, -1, 3526.0776, 1568.8082)"/>
<path xmlns="http://www.w3.org/2000/svg" fill-rule="nonzero" fill="rgb(30.001831%, 64.794922%, 59.94873%)" fill-opacity="1" d="M 2199.101562 1346.257812 L 2155.847656 1346.257812 C 2144.253906 1346.257812 2134.855469 1336.859375 2134.855469 1325.269531 C 2134.855469 1313.675781 2144.253906 1304.28125 2155.847656 1304.28125 L 2199.101562 1304.28125 C 2210.695312 1304.28125 2220.089844 1313.675781 2220.089844 1325.269531 C 2220.089844 1336.859375 2210.695312 1346.257812 2199.101562 1346.257812 "/>
<path xmlns="http://www.w3.org/2000/svg" fill-rule="nonzero" fill="rgb(42.337036%, 77.964783%, 45.454407%)" fill-opacity="1" d="M 2290.160156 1346.257812 L 2246.90625 1346.257812 C 2235.3125 1346.257812 2225.914062 1336.859375 2225.914062 1325.269531 C 2225.914062 1313.675781 2235.3125 1304.28125 2246.90625 1304.28125 L 2290.160156 1304.28125 C 2301.753906 1304.28125 2311.148438 1313.675781 2311.148438 1325.269531 C 2311.148438 1336.859375 2301.753906 1346.257812 2290.160156 1346.257812 "/>
</svg>
