<?xml version="1.0" encoding="UTF-8"?>
<svg xmlns="http://www.w3.org/2000/svg" xmlns:xlink="http://www.w3.org/1999/xlink" viewBox="0 0 2378.3925 1681.72" width="2378.3925" height="1681.72">
<path xmlns="http://www.w3.org/2000/svg" fill-rule="nonzero" fill="rgb(10.572815%, 9.655762%, 10.258484%)" fill-opacity="1" d="M 1104.351562 1341.503906 C 1108.769531 1338.960938 1112.605469 1345.597656 1108.074219 1348.230469 L 1089.605469 1358.90625 L 1088.980469 1393.773438 L 1082.175781 1397.710938 L 1075.75 1367.082031 L 1061.945312 1375.058594 L 1060.71875 1383.691406 L 1055.335938 1386.800781 L 1052.863281 1375.996094 L 1044.71875 1368.429688 L 1050.097656 1365.320312 L 1058.171875 1368.53125 L 1071.976562 1360.550781 L 1048.640625 1339.699219 L 1055.449219 1335.761719 L 1085.761719 1352.253906 Z M 1104.351562 1341.503906 "/>
<path xmlns="http://www.w3.org/2000/svg" fill-rule="nonzero" fill="rgb(10.572815%, 9.655762%, 10.258484%)" fill-opacity="1" d="M 1131.863281 1453.523438 C 1136.28125 1450.980469 1140.117188 1457.617188 1135.585938 1460.246094 L 1117.117188 1470.921875 L 1116.496094 1505.792969 L 1109.6875 1509.726562 L 1103.261719 1479.097656 L 1089.460938 1487.078125 L 1088.230469 1495.710938 L 1082.851562 1498.820312 L 1080.378906 1488.015625 L 1072.230469 1480.449219 L 1077.609375 1477.339844 L 1085.683594 1480.550781 L 1099.488281 1472.570312 L 1076.152344 1451.71875 L 1082.960938 1447.78125 L 1113.273438 1464.269531 Z M 1131.863281 1453.523438 "/>
<path xmlns="http://www.w3.org/2000/svg" fill-rule="nonzero" fill="rgb(10.572815%, 9.655762%, 10.258484%)" fill-opacity="1" d="M 2346.199219 1365.769531 C 2338.757812 1365.769531 2332.699219 1371.824219 2332.699219 1379.269531 C 2332.699219 1386.710938 2338.757812 1392.769531 2346.199219 1392.769531 C 2353.644531 1392.769531 2359.699219 1386.710938 2359.699219 1379.269531 C 2359.699219 1371.824219 2353.644531 1365.769531 2346.199219 1365.769531 M 2346.199219 1370.269531 C 2351.171875 1370.269531 2355.199219 1374.296875 2355.199219 1379.269531 C 2355.199219 1384.238281 2351.171875 1388.269531 2346.199219 1388.269531 C 2341.230469 1388.269531 2337.199219 1384.238281 2337.199219 1379.269531 C 2337.199219 1374.296875 2341.230469 1370.269531 2346.199219 1370.269531 "/>
<path xmlns="http://www.w3.org/2000/svg" fill-rule="nonzero" fill="rgb(10.572815%, 9.655762%, 10.258484%)" fill-opacity="1" d="M 2346.199219 1388.269531 C 2338.757812 1388.269531 2332.699219 1394.324219 2332.699219 1401.769531 C 2332.699219 1409.210938 2338.757812 1415.269531 2346.199219 1415.269531 C 2353.644531 1415.269531 2359.699219 1409.210938 2359.699219 1401.769531 C 2359.699219 1394.324219 2353.644531 1388.269531 2346.199219 1388.269531 M 2346.199219 1392.769531 C 2351.171875 1392.769531 2355.199219 1396.796875 2355.199219 1401.769531 C 2355.199219 1406.738281 2351.171875 1410.769531 2346.199219 1410.769531 C 2341.230469 1410.769531 2337.199219 1406.738281 2337.199219 1401.769531 C 2337.199219 1396.796875 2341.230469 1392.769531 2346.199219 1392.769531 "/>
<path xmlns="http://www.w3.org/2000/svg" fill-rule="nonzero" fill="rgb(10.572815%, 9.655762%, 10.258484%)" fill-opacity="1" d="M 1279.574219 1388.367188 C 1279.617188 1385.15625 1284.445312 1385.21875 1284.410156 1388.515625 L 1284.246094 1401.941406 L 1302.910156 1413.492188 L 1302.847656 1418.441406 L 1284.210938 1412.066406 L 1284.085938 1422.101562 L 1288.363281 1425.542969 L 1288.3125 1429.453125 L 1281.671875 1427.316406 L 1274.957031 1429.289062 L 1275.007812 1425.378906 L 1279.339844 1422.042969 L 1279.464844 1412.011719 L 1260.675781 1417.925781 L 1260.738281 1412.976562 L 1279.410156 1401.878906 Z M 1279.574219 1388.367188 "/>
</svg>
