<?xml version="1.0" encoding="UTF-8"?>
<svg xmlns="http://www.w3.org/2000/svg" xmlns:xlink="http://www.w3.org/1999/xlink" viewBox="2378.3925 5045.16 2378.3925 1681.72" width="2378.3925" height="1681.72">
<path xmlns="http://www.w3.org/2000/svg" fill="none" stroke-width="15" stroke-linecap="butt" stroke-linejoin="miter" stroke="rgb(22.758484%, 71.983337%, 31.451416%)" stroke-opacity="1" stroke-miterlimit="10" d="M -0.00048125 0.00063125 L -0.00048125 -945.975931 " transform="matrix(1, 0, 0, -1, 4213.6997, 4105.2936)"/>
<path xmlns="http://www.w3.org/2000/svg" fill="none" stroke-width="15" stroke-linecap="butt" stroke-linejoin="miter" stroke="rgb(22.758484%, 71.983337%, 31.451416%)" stroke-opacity="1" stroke-miterlimit="10" d="M -0.00048125 -0.00113125 L -0.00048125 -1005.840975 " transform="matrix(1, 0, 0, -1, 4213.6997, 5051.2684)"/>
<path xmlns="http://www.w3.org/2000/svg" fill="none" stroke-width="15" stroke-linecap="butt" stroke-linejoin="miter" stroke="rgb(22.758484%, 71.983337%, 31.451416%)" stroke-opacity="1" stroke-miterlimit="10" d="M -0.00001875 0.0013875 L -217.148456 0.0013875 C -255.6133 0.0013875 -286.792987 -31.1783 -286.792987 -69.643144 L -286.792987 -80.377519 " transform="matrix(1, 0, 0, -1, 4500.7383, 5095.6967)"/>
<path xmlns="http://www.w3.org/2000/svg" fill="none" stroke-width="15" stroke-linecap="butt" stroke-linejoin="miter" stroke="rgb(22.758484%, 71.983337%, 31.451416%)" stroke-opacity="1" stroke-miterlimit="10" d="M -0.00001875 0.0014375 C 21.273419 0.0014375 38.519513 -17.244656 38.519513 -38.518094 L 38.519513 -42.572781 C 38.519513 -63.846219 21.273419 -81.092312 -0.00001875 -81.092312 " transform="matrix(1, 0, 0, -1, 4500.7383, 5014.603)"/>
<path xmlns="http://www.w3.org/2000/svg" fill="none" stroke-width="15" stroke-linecap="butt" stroke-linejoin="miter" stroke="rgb(82.23114%, 14.726257%, 60.897827%)" stroke-opacity="1" stroke-miterlimit="10" d="M -0.00048125 0.00108125 L -0.00048125 -347.881731 " transform="matrix(1, 0, 0, -1, 2481.1997, 5446.7628)"/>
<path xmlns="http://www.w3.org/2000/svg" fill="none" stroke-width="15" stroke-linecap="butt" stroke-linejoin="miter" stroke="rgb(82.23114%, 14.726257%, 60.897827%)" stroke-opacity="1" stroke-miterlimit="10" d="M -0.00048125 0.00108125 L -0.00048125 931.860456 C -0.00048125 971.645613 -15.801263 1009.797956 -43.934075 1037.926863 L -523.066888 1517.059675 C -551.195794 1545.192488 -567.000481 1583.344831 -567.000481 1623.126081 L -567.000481 2381.415144 " transform="matrix(1, 0, 0, -1, 2481.1997, 5446.7628)"/>
<path xmlns="http://www.w3.org/2000/svg" fill="none" stroke-width="15" stroke-linecap="butt" stroke-linejoin="miter" stroke="rgb(22.758484%, 71.983337%, 31.451416%)" stroke-opacity="1" stroke-miterlimit="10" d="M -0.00048125 0.0004 L -0.00048125 -88.265225 " transform="matrix(1, 0, 0, -1, 4213.6997, 5169.7504)"/>
<path xmlns="http://www.w3.org/2000/svg" fill="none" stroke-width="15" stroke-linecap="butt" stroke-linejoin="miter" stroke="rgb(43.496704%, 18.121338%, 51.213074%)" stroke-opacity="1" stroke-miterlimit="10" d="M -0.00145625 -0.00106875 L -0.00145625 -47.403412 C -0.00145625 -65.344819 -14.544425 -79.891694 -32.485831 -79.891694 L -623.294425 -79.891694 C -662.075675 -79.891694 -699.263175 -64.485444 -726.68505 -37.063569 L -763.181144 -0.571381 L -926.606925 162.8544 C -945.360831 181.608306 -970.794425 192.143463 -997.317863 192.143463 L -3153.536613 192.143463 C -3165.794425 192.143463 -3177.548331 197.014556 -3186.2163 205.682525 L -3187.243644 206.705963 L -3200.899894 219.897369 L -3230.638175 219.897369 " transform="matrix(1, 0, 0, -1, 4560.3413, 4987.6669)"/>
<path xmlns="http://www.w3.org/2000/svg" fill="none" stroke-width="15" stroke-linecap="butt" stroke-linejoin="miter" stroke="rgb(22.758484%, 71.983337%, 31.451416%)" stroke-opacity="1" stroke-miterlimit="10" d="M -0.00048125 0.0019 L -0.00048125 -347.044975 " transform="matrix(1, 0, 0, -1, 4213.6997, 5710.0644)"/>
<path xmlns="http://www.w3.org/2000/svg" fill="none" stroke-width="15" stroke-linecap="butt" stroke-linejoin="miter" stroke="rgb(22.758484%, 71.983337%, 31.451416%)" stroke-opacity="1" stroke-miterlimit="10" d="M -0.00048125 -0.0018625 L -0.00048125 -102.986238 " transform="matrix(1, 0, 0, -1, 4213.6997, 5104.6622)"/>
<path xmlns="http://www.w3.org/2000/svg" fill="none" stroke-width="25" stroke-linecap="butt" stroke-linejoin="miter" stroke="rgb(79.86145%, 11.026001%, 30.502319%)" stroke-opacity="1" stroke-miterlimit="10" d="M 0.00053125 -0.00181875 L -486.069781 -0.00181875 " transform="matrix(1, 0, 0, -1, 3030.269, 5856.3849)"/>
<path xmlns="http://www.w3.org/2000/svg" fill="none" stroke-width="25" stroke-linecap="butt" stroke-linejoin="miter" stroke="rgb(52.000427%, 81.07605%, 24.971008%)" stroke-opacity="1" stroke-miterlimit="10" d="M -0.00089375 -0.00113125 L 1510.956137 -0.00113125 C 1564.331137 -0.00113125 1615.522544 21.2059 1653.268637 58.948087 L 2063.385825 469.065275 C 2091.514731 497.194181 2107.319419 535.350431 2107.319419 575.131681 L 2107.319419 1073.135587 C 2107.319419 1126.514494 2128.522544 1177.7059 2166.268637 1215.448087 L 2485.27645 1534.459806 C 2523.077231 1572.260587 2544.288169 1623.545744 2544.225669 1677.002775 L 2543.819419 2029.498869 L 2543.819419 2142.744962 " transform="matrix(1, 0, 0, -1, 333.3798, 5415.7684)"/>
<path xmlns="http://www.w3.org/2000/svg" fill="none" stroke-width="25" stroke-linecap="butt" stroke-linejoin="miter" stroke="rgb(79.86145%, 11.026001%, 30.502319%)" stroke-opacity="1" stroke-miterlimit="10" d="M -0.000975 -0.00181875 C 99.374025 -0.00181875 179.932619 80.556775 179.932619 179.931775 L 179.932619 1288.752088 C 179.932619 1342.127088 201.135744 1393.3224 238.877931 1431.064588 L 275.686525 1467.873181 L 315.690431 1507.873181 " transform="matrix(1, 0, 0, -1, 2990.2666, 5856.3849)"/>
<path xmlns="http://www.w3.org/2000/svg" fill="none" stroke-width="25" stroke-linecap="butt" stroke-linejoin="miter" stroke="rgb(16.210938%, 29.866028%, 64.877319%)" stroke-opacity="1" stroke-miterlimit="10" d="M 0.00101875 0.0015625 L 0.00101875 1198.247656 C 0.00101875 1309.4 -90.108356 1399.505469 -201.2607 1399.505469 L -2342.588825 1399.505469 C -2453.741169 1399.505469 -2543.846637 1489.614844 -2543.846637 1600.767187 L -2543.846637 2188.314062 C -2543.846637 2280.454687 -2618.54195 2355.146094 -2710.682575 2355.146094 L -3001.873981 2355.146094 " transform="matrix(1, 0, 0, -1, 6837.5732, 6249.025)"/>
<path xmlns="http://www.w3.org/2000/svg" fill-rule="nonzero" fill="rgb(79.86145%, 11.026001%, 30.502319%)" fill-opacity="1" d="M 3170.195312 4995.976562 C 3156.410156 4995.976562 3145.195312 5007.191406 3145.195312 5020.976562 C 3145.195312 5034.761719 3156.410156 5045.976562 3170.195312 5045.976562 C 3183.980469 5045.976562 3195.195312 5034.761719 3195.195312 5020.976562 C 3195.195312 5007.191406 3183.980469 4995.976562 3170.195312 4995.976562 M 3170.195312 5002.976562 C 3180.136719 5002.976562 3188.195312 5011.039062 3188.195312 5020.976562 C 3188.195312 5030.917969 3180.136719 5038.976562 3170.195312 5038.976562 C 3160.253906 5038.976562 3152.195312 5030.917969 3152.195312 5020.976562 C 3152.195312 5011.039062 3160.253906 5002.976562 3170.195312 5002.976562 "/>
<path xmlns="http://www.w3.org/2000/svg" fill-rule="nonzero" fill="rgb(79.86145%, 11.026001%, 30.502319%)" fill-opacity="1" d="M 3170.199219 5168.355469 C 3156.414062 5168.355469 3145.199219 5179.570312 3145.199219 5193.355469 C 3145.199219 5207.140625 3156.414062 5218.355469 3170.199219 5218.355469 C 3183.984375 5218.355469 3195.199219 5207.140625 3195.199219 5193.355469 C 3195.199219 5179.570312 3183.984375 5168.355469 3170.199219 5168.355469 M 3170.199219 5175.355469 C 3180.136719 5175.355469 3188.199219 5183.414062 3188.199219 5193.355469 C 3188.199219 5203.296875 3180.136719 5211.355469 3170.199219 5211.355469 C 3160.257812 5211.355469 3152.199219 5203.296875 3152.199219 5193.355469 C 3152.199219 5183.414062 3160.257812 5175.355469 3170.199219 5175.355469 "/>
<path xmlns="http://www.w3.org/2000/svg" fill-rule="nonzero" fill="rgb(79.86145%, 11.026001%, 30.502319%)" fill-opacity="1" d="M 3170.234375 5389.941406 C 3156.449219 5389.941406 3145.234375 5401.15625 3145.234375 5414.941406 C 3145.234375 5428.726562 3156.449219 5439.941406 3170.234375 5439.941406 C 3184.019531 5439.941406 3195.234375 5428.726562 3195.234375 5414.941406 C 3195.234375 5401.15625 3184.019531 5389.941406 3170.234375 5389.941406 M 3170.234375 5396.941406 C 3180.171875 5396.941406 3188.234375 5405 3188.234375 5414.941406 C 3188.234375 5424.882812 3180.171875 5432.941406 3170.234375 5432.941406 C 3160.292969 5432.941406 3152.234375 5424.882812 3152.234375 5414.941406 C 3152.234375 5405 3160.292969 5396.941406 3170.234375 5396.941406 "/>
<path xmlns="http://www.w3.org/2000/svg" fill-rule="nonzero" fill="rgb(79.86145%, 11.026001%, 30.502319%)" fill-opacity="1" d="M 3170.199219 5611.527344 C 3156.414062 5611.527344 3145.199219 5622.742188 3145.199219 5636.527344 C 3145.199219 5650.308594 3156.414062 5661.527344 3170.199219 5661.527344 C 3183.984375 5661.527344 3195.199219 5650.308594 3195.199219 5636.527344 C 3195.199219 5622.742188 3183.984375 5611.527344 3170.199219 5611.527344 M 3170.199219 5618.527344 C 3180.136719 5618.527344 3188.199219 5626.585938 3188.199219 5636.527344 C 3188.199219 5646.464844 3180.136719 5654.527344 3170.199219 5654.527344 C 3160.257812 5654.527344 3152.199219 5646.464844 3152.199219 5636.527344 C 3152.199219 5626.585938 3160.257812 5618.527344 3170.199219 5618.527344 "/>
<path xmlns="http://www.w3.org/2000/svg" fill-rule="nonzero" fill="rgb(79.86145%, 11.026001%, 30.502319%)" fill-opacity="1" d="M 2989.914062 5833.109375 C 2976.128906 5833.109375 2964.914062 5844.324219 2964.914062 5858.109375 C 2964.914062 5871.894531 2976.128906 5883.109375 2989.914062 5883.109375 C 3003.699219 5883.109375 3014.914062 5871.894531 3014.914062 5858.109375 C 3014.914062 5844.324219 3003.699219 5833.109375 2989.914062 5833.109375 M 2989.914062 5840.109375 C 2999.855469 5840.109375 3007.914062 5848.167969 3007.914062 5858.109375 C 3007.914062 5868.050781 2999.855469 5876.109375 2989.914062 5876.109375 C 2979.976562 5876.109375 2971.914062 5868.050781 2971.914062 5858.109375 C 2971.914062 5848.167969 2979.976562 5840.109375 2989.914062 5840.109375 "/>
<path xmlns="http://www.w3.org/2000/svg" fill-rule="nonzero" fill="rgb(79.86145%, 11.026001%, 30.502319%)" fill-opacity="1" d="M 2545.203125 5831.386719 C 2531.417969 5831.386719 2520.203125 5842.601562 2520.203125 5856.386719 C 2520.203125 5870.171875 2531.417969 5881.386719 2545.203125 5881.386719 C 2558.988281 5881.386719 2570.203125 5870.171875 2570.203125 5856.386719 C 2570.203125 5842.601562 2558.988281 5831.386719 2545.203125 5831.386719 M 2545.203125 5838.386719 C 2555.144531 5838.386719 2563.203125 5846.445312 2563.203125 5856.386719 C 2563.203125 5866.328125 2555.144531 5874.386719 2545.203125 5874.386719 C 2535.261719 5874.386719 2527.203125 5866.328125 2527.203125 5856.386719 C 2527.203125 5846.445312 2535.261719 5838.386719 2545.203125 5838.386719 "/>
<path xmlns="http://www.w3.org/2000/svg" fill-rule="nonzero" fill="rgb(82.23114%, 14.726257%, 60.897827%)" fill-opacity="1" d="M 2435.328125 5774.417969 L 2392.070312 5774.417969 C 2380.480469 5774.417969 2371.082031 5765.023438 2371.082031 5753.429688 C 2371.082031 5741.839844 2380.480469 5732.441406 2392.070312 5732.441406 L 2435.328125 5732.441406 C 2446.917969 5732.441406 2456.316406 5741.839844 2456.316406 5753.429688 C 2456.316406 5765.023438 2446.917969 5774.417969 2435.328125 5774.417969 "/>
<path xmlns="http://www.w3.org/2000/svg" fill-rule="nonzero" fill="rgb(43.496704%, 18.121338%, 51.213074%)" fill-opacity="1" d="M 4508.699219 5246.191406 L 4465.441406 5246.191406 C 4453.851562 5246.191406 4444.453125 5236.792969 4444.453125 5225.203125 C 4444.453125 5213.609375 4453.851562 5204.210938 4465.441406 5204.210938 L 4508.699219 5204.210938 C 4520.289062 5204.210938 4529.6875 5213.609375 4529.6875 5225.203125 C 4529.6875 5236.792969 4520.289062 5246.191406 4508.699219 5246.191406 "/>
<path xmlns="http://www.w3.org/2000/svg" fill-rule="nonzero" fill="rgb(43.496704%, 18.121338%, 51.213074%)" fill-opacity="1" d="M 4708.144531 5053.386719 L 4664.886719 5053.386719 C 4653.296875 5053.386719 4643.898438 5043.988281 4643.898438 5032.398438 C 4643.898438 5020.804688 4653.296875 5011.40625 4664.886719 5011.40625 L 4708.144531 5011.40625 C 4719.734375 5011.40625 4729.132812 5020.804688 4729.132812 5032.398438 C 4729.132812 5043.988281 4719.734375 5053.386719 4708.144531 5053.386719 "/>
<path xmlns="http://www.w3.org/2000/svg" fill-rule="nonzero" fill="rgb(22.758484%, 71.983337%, 31.451416%)" fill-opacity="1" d="M 4057.710938 6070.601562 L 4014.453125 6070.601562 C 4002.863281 6070.601562 3993.464844 6061.207031 3993.464844 6049.613281 C 3993.464844 6038.023438 4002.863281 6028.625 4014.453125 6028.625 L 4057.710938 6028.625 C 4069.300781 6028.625 4078.699219 6038.023438 4078.699219 6049.613281 C 4078.699219 6061.207031 4069.300781 6070.601562 4057.710938 6070.601562 "/>
<path xmlns="http://www.w3.org/2000/svg" fill-rule="nonzero" fill="rgb(22.758484%, 71.983337%, 31.451416%)" fill-opacity="1" d="M 4147.710938 6024.976562 L 4104.457031 6024.976562 C 4092.863281 6024.976562 4083.464844 6015.578125 4083.464844 6003.988281 C 4083.464844 5992.394531 4092.863281 5983 4104.457031 5983 L 4147.710938 5983 C 4159.300781 5983 4168.699219 5992.394531 4168.699219 6003.988281 C 4168.699219 6015.578125 4159.300781 6024.976562 4147.710938 6024.976562 "/>
<path xmlns="http://www.w3.org/2000/svg" fill-rule="nonzero" fill="rgb(83.486938%, 13.348389%, 19.581604%)" fill-opacity="1" d="M 3363.136719 5184.722656 L 3319.882812 5184.722656 C 3308.289062 5184.722656 3298.894531 5175.324219 3298.894531 5163.734375 C 3298.894531 5152.140625 3308.289062 5142.746094 3319.882812 5142.746094 L 3363.136719 5142.746094 C 3374.730469 5142.746094 3384.125 5152.140625 3384.125 5163.734375 C 3384.125 5175.324219 3374.730469 5184.722656 3363.136719 5184.722656 "/>
<path xmlns="http://www.w3.org/2000/svg" fill-rule="nonzero" fill="rgb(22.758484%, 71.983337%, 31.451416%)" fill-opacity="1" d="M 4057.710938 6024.976562 L 4014.453125 6024.976562 C 4002.863281 6024.976562 3993.464844 6015.578125 3993.464844 6003.988281 C 3993.464844 5992.394531 4002.863281 5983 4014.453125 5983 L 4057.710938 5983 C 4069.300781 5983 4078.699219 5992.394531 4078.699219 6003.988281 C 4078.699219 6015.578125 4069.300781 6024.976562 4057.710938 6024.976562 "/>
<path xmlns="http://www.w3.org/2000/svg" fill-rule="nonzero" fill="rgb(22.758484%, 71.983337%, 31.451416%)" fill-opacity="1" d="M 4149.640625 6070.601562 L 4106.386719 6070.601562 C 4094.796875 6070.601562 4085.398438 6061.207031 4085.398438 6049.613281 C 4085.398438 6038.023438 4094.796875 6028.625 4106.386719 6028.625 L 4149.640625 6028.625 C 4161.234375 6028.625 4170.632812 6038.023438 4170.632812 6049.613281 C 4170.632812 6061.207031 4161.234375 6070.601562 4149.640625 6070.601562 "/>
<path xmlns="http://www.w3.org/2000/svg" fill-rule="nonzero" fill="rgb(79.86145%, 11.026001%, 30.502319%)" fill-opacity="1" d="M 2382.609375 5814.746094 C 2357.175781 5814.746094 2336.480469 5835.441406 2336.480469 5860.875 C 2336.480469 5886.3125 2357.175781 5907.003906 2382.609375 5907.003906 C 2408.046875 5907.003906 2428.738281 5886.3125 2428.738281 5860.875 C 2428.738281 5835.441406 2408.046875 5814.746094 2382.609375 5814.746094 M 2382.609375 5827.28125 C 2401.164062 5827.28125 2416.203125 5842.324219 2416.203125 5860.875 C 2416.203125 5879.429688 2401.164062 5894.46875 2382.609375 5894.46875 C 2364.058594 5894.46875 2349.015625 5879.429688 2349.015625 5860.875 C 2349.015625 5842.324219 2364.058594 5827.28125 2382.609375 5827.28125 "/>
</svg>
