<?xml version="1.0" encoding="UTF-8"?>
<svg xmlns="http://www.w3.org/2000/svg" xmlns:xlink="http://www.w3.org/1999/xlink" viewBox="4756.785 3363.44 2378.3925 1681.72" width="2378.3925" height="1681.72">
<defs>
<clipPath xmlns="http://www.w3.org/2000/svg" id="clip-2684">
<path clip-rule="nonzero" d="M 4926 4367 L 6588 4367 L 6588 6726.878906 L 4926 6726.878906 Z M 4926 4367 "/>
</clipPath>
</defs>
<path xmlns="http://www.w3.org/2000/svg" fill-rule="nonzero" fill="rgb(35.255432%, 20.40863%, 9.817505%)" fill-opacity="1" d="M 7040.257812 3444.914062 L 7013.949219 3395.113281 L 7020.902344 3395.113281 L 7047.207031 3444.914062 Z M 7031.59375 3444.914062 L 7005.285156 3395.113281 L 7012.238281 3395.113281 L 7038.546875 3444.914062 Z M 7022.925781 3444.914062 L 6996.621094 3395.113281 L 7003.574219 3395.113281 L 7029.878906 3444.914062 Z M 7015.5 3444.914062 L 6992.769531 3401.878906 L 6992.769531 3395.113281 L 6994.910156 3395.113281 L 7021.214844 3444.914062 Z M 7006.835938 3444.914062 L 6992.769531 3418.28125 L 6992.769531 3405.121094 L 7013.789062 3444.914062 Z M 6992.769531 3444.914062 L 6992.769531 3421.523438 L 7005.125 3444.914062 Z M 7031.851562 3412.601562 L 7031.851562 3395.570312 L 7022.851562 3395.570312 L 7021.816406 3393.601562 L 6976.535156 3393.601562 L 6976.535156 3446.425781 L 7049.722656 3446.425781 Z M 7031.851562 3412.601562 "/>
<path xmlns="http://www.w3.org/2000/svg" fill-rule="nonzero" fill="rgb(35.255432%, 20.40863%, 9.817505%)" fill-opacity="1" d="M 7064.265625 3394.6875 L 7064.558594 3394.628906 C 7063.980469 3394.179688 7063.378906 3393.773438 7062.789062 3393.34375 C 7037.9375 3371.496094 6993.75 3380.480469 6953.582031 3396.359375 C 6901.777344 3416.378906 6855.371094 3449.410156 6855.371094 3449.410156 L 6896.496094 3449.410156 C 6896.496094 3449.410156 6900.773438 3446.042969 6907.308594 3441.066406 C 6918.847656 3433.269531 6936.398438 3421.726562 6950.058594 3414.132812 C 6972.339844 3401.753906 6976.054688 3446.316406 6976.054688 3446.316406 L 6987.195312 3446.316406 C 6987.195312 3446.316406 6987.148438 3446.132812 6987.070312 3445.808594 L 6996.476562 3445.808594 C 6996.476562 3445.808594 6995.453125 3443.097656 6994.109375 3438.890625 C 6994.109375 3438.890625 6979.511719 3420.734375 6981.625 3412.28125 C 6982.863281 3407.328125 6985.769531 3403.703125 6991.527344 3401.136719 C 7001.117188 3396.859375 7023.859375 3394.765625 7032.992188 3396.804688 C 7037.394531 3397.789062 7049.703125 3403.613281 7049.703125 3403.613281 L 7057.128906 3402.375 C 7056.507812 3401.769531 7055.859375 3401.199219 7055.207031 3400.632812 L 7059.605469 3399.898438 C 7058.984375 3399.292969 7058.332031 3398.726562 7057.683594 3398.15625 L 7062.082031 3397.421875 C 7061.457031 3396.816406 7060.808594 3396.25 7060.160156 3395.683594 L 7064.558594 3394.949219 C 7064.460938 3394.855469 7064.359375 3394.777344 7064.265625 3394.6875 "/>
<path xmlns="http://www.w3.org/2000/svg" fill="none" stroke-width="15" stroke-linecap="butt" stroke-linejoin="miter" stroke="rgb(56.92749%, 10.435486%, 16.130066%)" stroke-opacity="1" stroke-miterlimit="10" d="M 0.00195 -0.00088125 L -1118.689456 -0.00088125 L -1161.181644 -0.227444 L -1304.130863 0.147556 L -1562.958988 -0.336819 C -1589.416019 -0.3876 -1614.775394 -10.91885 -1633.482425 -29.629787 L -1839.455081 -235.598537 C -1854.458988 -250.602444 -1874.806644 -259.032131 -1896.025394 -259.032131 L -2445.794925 -259.032131 L -2526.009769 -259.082912 C -2568.228519 -259.082912 -2602.455081 -293.309475 -2602.455081 -335.528225 L -2602.455081 -882.653225 C -2602.455081 -932.836819 -2582.517581 -980.965725 -2547.033206 -1016.4501 L -2507.955081 -1055.532131 L -2371.162113 -1192.3251 C -2331.970706 -1231.5126 -2278.818363 -1253.532131 -2223.396488 -1253.532131 L -1842.099613 -1253.532131 C -1804.548831 -1253.532131 -1768.537113 -1268.446194 -1741.986331 -1295.000881 L -1661.955081 -1375.032131 L -1616.49805 -1420.485256 C -1583.197269 -1453.786037 -1583.197269 -1507.774319 -1616.49805 -1541.0751 L -1771.814456 -1696.391506 " transform="matrix(1, 0, 0, -1, 5033.1543, 2780.7374)"/>
<path xmlns="http://www.w3.org/2000/svg" fill="none" stroke-width="15" stroke-linecap="butt" stroke-linejoin="miter" stroke="rgb(30.001831%, 64.794922%, 59.94873%)" stroke-opacity="1" stroke-miterlimit="10" d="M -0.00048125 -0.00083125 L -0.00048125 -760.368019 C -0.00048125 -800.149269 15.804206 -838.301613 43.933112 -866.434425 L 239.565925 -1062.067238 C 267.698737 -1090.196144 305.851081 -1106.000831 345.632331 -1106.000831 L 743.366706 -1106.000831 C 783.151862 -1106.000831 821.304206 -1121.801613 849.433112 -1149.934425 L 1394.999519 -1695.500831 L 1573.526862 -1874.024269 L 1663.030769 -1963.532081 C 1672.440925 -1972.938331 1685.210456 -1978.207863 1698.515144 -1978.176613 L 1791.015144 -1977.938331 L 3597.511237 -1977.938331 " transform="matrix(1, 0, 0, -1, 2454.1997, 2905.7687)"/>
<path xmlns="http://www.w3.org/2000/svg" fill="none" stroke-width="15" stroke-linecap="butt" stroke-linejoin="miter" stroke="rgb(18.229675%, 23.951721%, 61.04126%)" stroke-opacity="1" stroke-miterlimit="10" d="M -0.00048125 -0.00113125 L 1336.921394 -0.00113125 " transform="matrix(1, 0, 0, -1, 6018.1997, 4200.7684)"/>
<path xmlns="http://www.w3.org/2000/svg" fill="none" stroke-width="15" stroke-linecap="butt" stroke-linejoin="miter" stroke="rgb(18.229675%, 23.951721%, 61.04126%)" stroke-opacity="1" stroke-miterlimit="10" d="M -0.00048125 -0.00113125 L -0.00048125 138.920744 " transform="matrix(1, 0, 0, -1, 5851.6997, 4484.2684)"/>
<path xmlns="http://www.w3.org/2000/svg" fill="none" stroke-width="15" stroke-linecap="butt" stroke-linejoin="miter" stroke="rgb(79.408264%, 34.082031%, 16.569519%)" stroke-opacity="1" stroke-miterlimit="10" d="M 0.0010125 0.00108125 L -28.706019 28.704206 C -47.459925 47.458113 -57.995081 72.895613 -57.995081 99.415144 L -57.995081 367.48155 C -57.995081 388.297956 -66.264613 408.2628 -80.983363 422.985456 L -462.995081 804.993269 L -743.061488 1085.059675 C -771.190394 1113.192488 -786.995081 1151.344831 -786.995081 1191.126081 L -786.995081 1266.090925 " transform="matrix(1, 0, 0, -1, 5887.1943, 4582.7628)"/>
<path xmlns="http://www.w3.org/2000/svg" fill="none" stroke-width="15" stroke-linecap="butt" stroke-linejoin="miter" stroke="rgb(79.408264%, 34.082031%, 16.569519%)" stroke-opacity="1" stroke-miterlimit="10" d="M 0.00193125 0.0001625 L -43.943381 43.941569 L -97.943381 97.941569 L -219.947288 219.949381 " transform="matrix(1, 0, 0, -1, 6107.1426, 4802.7111)"/>
<path xmlns="http://www.w3.org/2000/svg" fill="none" stroke-width="15" stroke-linecap="butt" stroke-linejoin="miter" stroke="rgb(79.408264%, 34.082031%, 16.569519%)" stroke-opacity="1" stroke-miterlimit="10" d="M -0.00048125 -0.00113125 L -0.00048125 54.151212 C -0.00048125 88.631681 -13.695794 121.694181 -38.0747 146.076994 L -64.055169 172.057462 " transform="matrix(1, 0, 0, -1, 6171.1997, 4974.7684)"/>
<path xmlns="http://www.w3.org/2000/svg" fill="none" stroke-width="15" stroke-linecap="butt" stroke-linejoin="miter" stroke="rgb(79.408264%, 34.082031%, 16.569519%)" stroke-opacity="1" stroke-miterlimit="10" d="M -0.00049375 -0.00111875 L -79.770025 79.772319 " transform="matrix(1, 0, 0, -1, 5389.3169, 3742.8856)"/>
<path xmlns="http://www.w3.org/2000/svg" fill="none" stroke-width="15" stroke-linecap="butt" stroke-linejoin="miter" stroke="rgb(93.244934%, 11.296082%, 40.261841%)" stroke-opacity="1" stroke-miterlimit="10" d="M -0.00048125 -0.00113125 L -0.00048125 -12.579256 C -0.00048125 -39.098788 10.534675 -64.536288 29.288581 -83.290194 L 275.565925 -329.567538 C 303.698737 -357.696444 319.499519 -395.848788 319.499519 -435.633944 L 319.499519 -1042.411288 " transform="matrix(1, 0, 0, -1, 5874.1997, 4484.2684)"/>
<path xmlns="http://www.w3.org/2000/svg" fill="none" stroke-width="15" stroke-linecap="butt" stroke-linejoin="miter" stroke="rgb(93.244934%, 11.296082%, 40.261841%)" stroke-opacity="1" stroke-miterlimit="10" d="M 0.0015125 0.00058125 L 15.571825 -15.573637 C 43.704637 -43.702544 59.505419 -81.854887 59.505419 -121.636137 L 59.505419 -203.507231 " transform="matrix(1, 0, 0, -1, 6134.1938, 4798.2623)"/>
<path xmlns="http://www.w3.org/2000/svg" fill="none" stroke-width="15" stroke-linecap="butt" stroke-linejoin="miter" stroke="rgb(93.244934%, 11.296082%, 40.261841%)" stroke-opacity="1" stroke-miterlimit="10" d="M 0.00101875 -0.00145625 L 0.00101875 889.334481 " transform="matrix(1, 0, 0, -1, 6265.5732, 5669.5337)"/>
<path xmlns="http://www.w3.org/2000/svg" fill="none" stroke-width="15" stroke-linecap="butt" stroke-linejoin="miter" stroke="rgb(56.92749%, 10.435486%, 16.130066%)" stroke-opacity="1" stroke-miterlimit="10" d="M -0.00049375 -0.00155625 L -0.00049375 40.029694 L -0.03565 212.764069 L 1.124506 272.967194 L 1.124506 889.334381 " transform="matrix(1, 0, 0, -1, 6290.4419, 5669.5336)"/>
<path xmlns="http://www.w3.org/2000/svg" fill="none" stroke-width="15" stroke-linecap="butt" stroke-linejoin="miter" stroke="rgb(79.408264%, 34.082031%, 16.569519%)" stroke-opacity="1" stroke-miterlimit="10" d="M 0.00193125 0.0001625 L 10.654275 -10.656087 C 44.849587 -44.847494 64.056619 -91.222494 64.056619 -139.581869 L 64.056619 -552.249837 " transform="matrix(1, 0, 0, -1, 6107.1426, 4802.7111)"/>
<path xmlns="http://www.w3.org/2000/svg" fill="none" stroke-width="15" stroke-linecap="butt" stroke-linejoin="miter" stroke="rgb(30.001831%, 64.794922%, 59.94873%)" stroke-opacity="1" stroke-miterlimit="10" d="M -0.000000000000909495 0.0019 L -292.460938 0.0019 C -325.304688 0.0019 -351.929688 26.622994 -351.929688 59.466744 L -351.929688 478.611275 C -351.929688 511.451119 -378.550781 538.076119 -411.394531 538.076119 L -495.21875 538.076119 " transform="matrix(1, 0, 0, -1, 6591.5625, 5422.0644)"/>
<path xmlns="http://www.w3.org/2000/svg" fill="none" stroke-width="15" stroke-linecap="butt" stroke-linejoin="miter" stroke="rgb(30.001831%, 64.794922%, 59.94873%)" stroke-opacity="1" stroke-miterlimit="10" d="M -0.000000000000909495 0.0019 L -292.460938 0.0019 C -325.304688 0.0019 -351.929688 26.622994 -351.929688 59.466744 L -351.929688 478.611275 C -351.929688 511.451119 -378.550781 538.076119 -411.394531 538.076119 L -586.953125 538.076119 " transform="matrix(1, 0, 0, -1, 6591.5625, 5422.0644)"/>
<path xmlns="http://www.w3.org/2000/svg" fill="none" stroke-width="15" stroke-linecap="butt" stroke-linejoin="miter" stroke="rgb(30.001831%, 64.794922%, 59.94873%)" stroke-opacity="1" stroke-miterlimit="10" d="M 0.00144375 -0.00173125 L 0.00144375 254.693581 " transform="matrix(1, 0, 0, -1, 6239.7759, 4940.8928)"/>
<path xmlns="http://www.w3.org/2000/svg" fill="none" stroke-width="15" stroke-linecap="butt" stroke-linejoin="miter" stroke="rgb(30.001831%, 64.794922%, 59.94873%)" stroke-opacity="1" stroke-miterlimit="10" d="M 0.00191875 0.001575 C 0.00191875 32.841419 -26.623081 59.466419 -59.466831 59.466419 " transform="matrix(1, 0, 0, -1, 6239.6348, 4943.4547)"/>
<path xmlns="http://www.w3.org/2000/svg" fill="none" stroke-width="15" stroke-linecap="butt" stroke-linejoin="miter" stroke="rgb(30.001831%, 64.794922%, 59.94873%)" stroke-opacity="1" stroke-miterlimit="10" d="M -0.00048125 -0.00048125 L 110.722175 -0.00048125 C 126.616706 -0.00048125 139.499519 -12.883294 139.499519 -28.777825 L 139.499519 -349.531731 " transform="matrix(1, 0, 0, -1, 6009.1997, 4883.9878)"/>
<path xmlns="http://www.w3.org/2000/svg" fill="none" stroke-width="15" stroke-linecap="butt" stroke-linejoin="miter" stroke="rgb(18.229675%, 23.951721%, 61.04126%)" stroke-opacity="1" stroke-miterlimit="10" d="M -0.00048125 -0.00015625 L -0.00048125 59.550625 C -0.00048125 106.511562 38.069831 144.577969 85.030769 144.577969 L 166.499519 144.577969 " transform="matrix(1, 0, 0, -1, 5851.6997, 4345.3475)"/>
<path xmlns="http://www.w3.org/2000/svg" fill="none" stroke-width="15" stroke-linecap="butt" stroke-linejoin="miter" stroke="rgb(93.244934%, 11.296082%, 40.261841%)" stroke-opacity="1" stroke-miterlimit="10" d="M -0.00141875 -0.0013625 L -0.00141875 142.768169 C -0.00141875 181.979106 -31.786575 213.768169 -71.001419 213.768169 L -153.919388 213.768169 " transform="matrix(1, 0, 0, -1, 6414.9272, 3420.0377)"/>
<path xmlns="http://www.w3.org/2000/svg" fill="none" stroke-width="15" stroke-linecap="butt" stroke-linejoin="miter" stroke="rgb(56.92749%, 10.435486%, 16.130066%)" stroke-opacity="1" stroke-miterlimit="10" d="M 0.00050625 0.00168125 L 0.00050625 425.532931 L -0.839338 506.497775 C -1.061994 528.001681 7.383319 548.689181 22.586444 563.896212 L 118.984881 660.29465 C 137.984881 679.290744 148.539569 705.1384 148.270037 732.005587 L 148.082537 750.571994 L 148.055194 808.829806 L 148.094256 880.462619 " transform="matrix(1, 0, 0, -1, 6291.5659, 4780.2009)"/>
<path xmlns="http://www.w3.org/2000/svg" fill="none" stroke-width="15" stroke-linecap="butt" stroke-linejoin="miter" stroke="rgb(93.244934%, 11.296082%, 40.261841%)" stroke-opacity="1" stroke-miterlimit="10" d="M 0.00150625 -0.0005875 L 0.0718187 -32.004494 L -0.353963 -146.856056 C -0.435994 -167.969338 -8.857869 -188.1959 -23.787556 -203.125588 L -125.986775 -305.324806 C -144.853963 -324.191994 -155.400838 -349.8209 -155.275838 -376.500588 L -153.053181 -852.875588 L -153.053181 -877.332619 " transform="matrix(1, 0, 0, -1, 6418.6274, 3902.8666)"/>
<path xmlns="http://www.w3.org/2000/svg" fill="none" stroke-width="15" stroke-linecap="butt" stroke-linejoin="miter" stroke="rgb(93.244934%, 11.296082%, 40.261841%)" stroke-opacity="1" stroke-miterlimit="10" d="M -0.001925 -0.00155625 L 3.017606 -428.454681 L 3.142606 -482.833587 " transform="matrix(1, 0, 0, -1, 6415.4863, 3420.0336)"/>
<path xmlns="http://www.w3.org/2000/svg" fill="none" stroke-width="4" stroke-linecap="butt" stroke-linejoin="miter" stroke="rgb(93.244934%, 11.296082%, 40.261841%)" stroke-opacity="1" stroke-miterlimit="10" d="M -0.001925 -0.00155625 L 0.0410438 -6.001556 " transform="matrix(1, 0, 0, -1, 6415.4863, 3420.0336)"/>
<path xmlns="http://www.w3.org/2000/svg" fill="none" stroke-width="4" stroke-linecap="butt" stroke-linejoin="miter" stroke="rgb(93.244934%, 11.296082%, 40.261841%)" stroke-opacity="1" stroke-dasharray="12.073 12.073" stroke-miterlimit="10" d="M -0.00051875 0.00083125 L 2.890106 -410.381981 L 2.987762 -452.725731 " transform="matrix(1, 0, 0, -1, 6415.6138, 3438.1063)"/>
<path xmlns="http://www.w3.org/2000/svg" fill="none" stroke-width="4" stroke-linecap="butt" stroke-linejoin="miter" stroke="rgb(93.244934%, 11.296082%, 40.261841%)" stroke-opacity="1" stroke-miterlimit="10" d="M -0.00051875 -0.0005875 L 0.0151062 -6.000588 " transform="matrix(1, 0, 0, -1, 6418.6138, 3896.8666)"/>
<path xmlns="http://www.w3.org/2000/svg" fill="none" stroke-width="15" stroke-linecap="butt" stroke-linejoin="miter" stroke="rgb(56.92749%, 10.435486%, 16.130066%)" stroke-opacity="1" stroke-miterlimit="10" d="M -0.00048125 0.0006 L -0.00048125 708.785756 L -1.465325 833.141225 C -1.781731 860.070913 8.776862 885.988881 27.819831 905.03185 L 190.878425 1068.090444 C 212.226081 1089.4381 224.179206 1118.422475 224.089362 1148.613881 L 224.085456 1149.758413 L 223.390144 1248.586538 L 223.390144 3558.606069 C 223.390144 3612.6256 179.597175 3656.418569 125.573737 3656.418569 L -72.000481 3656.418569 " transform="matrix(1, 0, 0, -1, 6216.1997, 5076.1881)"/>
<path xmlns="http://www.w3.org/2000/svg" fill="none" stroke-width="15" stroke-linecap="butt" stroke-linejoin="miter" stroke="rgb(56.92749%, 10.435486%, 16.130066%)" stroke-opacity="1" stroke-miterlimit="10" d="M 0.00003125 -0.00035 L -0.0234063 48.284806 L 0.0156562 119.917619 " transform="matrix(1, 0, 0, -1, 6439.6445, 4019.6559)"/>
<path xmlns="http://www.w3.org/2000/svg" fill="none" stroke-width="15" stroke-linecap="butt" stroke-linejoin="miter" stroke="rgb(30.001831%, 64.794922%, 59.94873%)" stroke-opacity="1" stroke-miterlimit="10" d="M 0.00050625 -0.00048125 L -175.558087 -0.00048125 " transform="matrix(1, 0, 0, -1, 6178.9409, 4883.9878)"/>
<path xmlns="http://www.w3.org/2000/svg" fill="none" stroke-width="25" stroke-linecap="butt" stroke-linejoin="miter" stroke="rgb(31.402588%, 76.568604%, 94.60907%)" stroke-opacity="1" stroke-miterlimit="10" d="M -0.0012625 -0.00113125 L -0.0012625 -411.579256 L 0.104206 -540.184725 C 0.154987 -651.301913 90.248737 -741.352694 201.365925 -741.352694 L 470.119831 -741.352694 L 665.998737 -741.270663 L 859.498737 -741.270663 L 1622.362019 -744.860506 L 1642.498737 -744.860506 C 1695.873737 -744.860506 1747.065144 -766.063631 1784.807331 -803.809725 L 2113.362019 -1132.364413 C 2151.315144 -1170.313631 2202.854206 -1191.536288 2256.526081 -1191.309725 L 3037.498737 -1188.001131 L 5118.033894 -1188.016756 L 5341.526081 -1188.016756 " transform="matrix(1, 0, 0, -1, 2958.3997, 2931.7684)"/>
<path xmlns="http://www.w3.org/2000/svg" fill="none" stroke-width="25" stroke-linecap="butt" stroke-linejoin="miter" stroke="rgb(31.402588%, 76.568604%, 94.60907%)" stroke-opacity="1" stroke-miterlimit="10" d="M 0.0005375 -0.0004125 L -79.311962 -0.0004125 C -150.972119 -0.0004125 -209.061962 58.093338 -209.061962 129.753494 L -209.503369 354.804275 C -209.604931 406.6949 -230.261181 456.429275 -266.952587 493.116775 L -690.8979 917.062088 C -728.604931 954.769119 -749.80415 1005.901931 -749.843212 1059.22615 L -750.261181 1626.91365 L -750.261181 1698.015213 C -750.261181 1809.741775 -840.831494 1900.312088 -952.558056 1900.312088 L -1024.292431 1900.312088 C -1160.577587 1900.312088 -1271.05415 2010.792556 -1271.05415 2147.073806 L -1271.05415 2468.456619 C -1271.05415 2562.386306 -1347.202587 2638.534744 -1441.132275 2638.534744 L -2929.183056 2638.534744 C -3023.112744 2638.534744 -3099.261181 2562.386306 -3099.261181 2468.456619 L -3099.261181 1187.925369 " transform="matrix(1, 0, 0, -1, 6057.4604, 4119.6949)"/>
<g xmlns="http://www.w3.org/2000/svg" clip-path="url(#clip-2684)"><path fill="none" stroke-width="25" stroke-linecap="butt" stroke-linejoin="miter" stroke="rgb(93.347168%, 14.932251%, 20.336914%)" stroke-opacity="1" stroke-miterlimit="10" d="M -0.00048125 0.00125 L -0.00048125 -1748.506562 C -0.00048125 -1797.791719 39.952644 -1837.744844 89.2378 -1837.744844 L 953.780769 -1837.744844 " transform="matrix(1, 0, 0, -1, 5280.1997, 4720.97)"/></g>
<path xmlns="http://www.w3.org/2000/svg" fill="none" stroke-width="25" stroke-linecap="butt" stroke-linejoin="miter" stroke="rgb(93.347168%, 14.932251%, 20.336914%)" stroke-opacity="1" stroke-miterlimit="10" d="M -0.00048125 0.0018375 L -0.00048125 -62.99035 " transform="matrix(1, 0, 0, -1, 5280.1997, 4657.9784)"/>
<path xmlns="http://www.w3.org/2000/svg" fill="none" stroke-width="25" stroke-linecap="butt" stroke-linejoin="miter" stroke="rgb(93.347168%, 14.932251%, 20.336914%)" stroke-opacity="1" stroke-miterlimit="10" d="M -0.00048125 0.0018375 L -0.00048125 355.845587 C -0.00048125 409.224494 -21.203606 460.4159 -58.9497 498.158087 L -894.582513 1333.7909 C -932.2622 1371.470587 -953.457513 1422.552619 -953.527825 1475.841681 L -954.000481 1834.208869 L -954.000481 2636.451056 C -954.000481 2747.6034 -1044.10595 2837.708869 -1155.258294 2837.708869 L -1370.609856 2837.708869 " transform="matrix(1, 0, 0, -1, 5280.1997, 4657.9784)"/>
<path xmlns="http://www.w3.org/2000/svg" fill="none" stroke-width="25" stroke-linecap="butt" stroke-linejoin="miter" stroke="rgb(94.920349%, 34.173584%, 16.610718%)" stroke-opacity="1" stroke-miterlimit="10" d="M -0.00099375 -0.00088125 C -99.41115 -0.00088125 -180.000994 -80.590725 -180.000994 -180.000881 L -180.000994 -1181.114163 " transform="matrix(1, 0, 0, -1, 7272.8799, 2405.7999)"/>
<path xmlns="http://www.w3.org/2000/svg" fill="none" stroke-width="25" stroke-linecap="butt" stroke-linejoin="miter" stroke="rgb(31.402588%, 76.568604%, 94.60907%)" stroke-opacity="1" stroke-miterlimit="10" d="M 0.001925 0.00135 L 150.849581 0.638069 " transform="matrix(1, 0, 0, -1, 5844.9512, 4120.4076)"/>
<path xmlns="http://www.w3.org/2000/svg" fill="none" stroke-width="25" stroke-linecap="butt" stroke-linejoin="miter" stroke="rgb(12.625122%, 41.371155%, 23.204041%)" stroke-opacity="1" stroke-miterlimit="10" d="M 0.0005375 -0.00193125 L -3662.530712 -0.00193125 C -3754.456494 -0.00193125 -3828.979931 74.521506 -3828.979931 166.447288 L -3828.979931 753.138694 C -3828.979931 864.291038 -3919.0854 954.400413 -4030.237744 954.400413 L -4326.7104 954.400413 " transform="matrix(1, 0, 0, -1, 8163.2104, 4809.0176)"/>
<path xmlns="http://www.w3.org/2000/svg" fill="none" stroke-width="25" stroke-linecap="butt" stroke-linejoin="miter" stroke="rgb(16.210938%, 29.866028%, 64.877319%)" stroke-opacity="1" stroke-miterlimit="10" d="M 0.00101875 0.0015625 L 0.00101875 1198.247656 C 0.00101875 1309.4 -90.108356 1399.505469 -201.2607 1399.505469 L -2342.588825 1399.505469 C -2453.741169 1399.505469 -2543.846637 1489.614844 -2543.846637 1600.767187 L -2543.846637 2188.314062 C -2543.846637 2280.454687 -2618.54195 2355.146094 -2710.682575 2355.146094 L -3001.873981 2355.146094 " transform="matrix(1, 0, 0, -1, 6837.5732, 6249.025)"/>
<path xmlns="http://www.w3.org/2000/svg" fill-rule="nonzero" fill="rgb(16.629028%, 30.575562%, 64.790344%)" fill-opacity="1" d="M 5340.21875 4825.21875 C 5328.085938 4825.21875 5318.21875 4835.089844 5318.21875 4847.21875 C 5318.21875 4859.351562 5328.085938 4869.21875 5340.21875 4869.21875 C 5352.347656 4869.21875 5362.21875 4859.351562 5362.21875 4847.21875 C 5362.21875 4835.089844 5352.347656 4825.21875 5340.21875 4825.21875 M 5340.21875 4829.21875 C 5350.160156 4829.21875 5358.21875 4837.28125 5358.21875 4847.21875 C 5358.21875 4857.160156 5350.160156 4865.21875 5340.21875 4865.21875 C 5330.277344 4865.21875 5322.21875 4857.160156 5322.21875 4847.21875 C 5322.21875 4837.28125 5330.277344 4829.21875 5340.21875 4829.21875 "/>
<path xmlns="http://www.w3.org/2000/svg" fill-rule="nonzero" fill="rgb(12.625122%, 41.371155%, 23.204041%)" fill-opacity="1" d="M 5340.21875 4785.957031 C 5328.085938 4785.957031 5318.21875 4795.824219 5318.21875 4807.957031 C 5318.21875 4820.085938 5328.085938 4829.957031 5340.21875 4829.957031 C 5352.347656 4829.957031 5362.21875 4820.085938 5362.21875 4807.957031 C 5362.21875 4795.824219 5352.347656 4785.957031 5340.21875 4785.957031 M 5340.21875 4789.957031 C 5350.160156 4789.957031 5358.21875 4798.015625 5358.21875 4807.957031 C 5358.21875 4817.898438 5350.160156 4825.957031 5340.21875 4825.957031 C 5330.277344 4825.957031 5322.21875 4817.898438 5322.21875 4807.957031 C 5322.21875 4798.015625 5330.277344 4789.957031 5340.21875 4789.957031 "/>
<path xmlns="http://www.w3.org/2000/svg" fill-rule="nonzero" fill="rgb(16.629028%, 30.575562%, 64.790344%)" fill-opacity="1" d="M 5608.890625 4825.21875 C 5596.757812 4825.21875 5586.890625 4835.089844 5586.890625 4847.21875 C 5586.890625 4859.351562 5596.757812 4869.21875 5608.890625 4869.21875 C 5621.019531 4869.21875 5630.890625 4859.351562 5630.890625 4847.21875 C 5630.890625 4835.089844 5621.019531 4825.21875 5608.890625 4825.21875 M 5608.890625 4829.21875 C 5618.832031 4829.21875 5626.890625 4837.28125 5626.890625 4847.21875 C 5626.890625 4857.160156 5618.832031 4865.21875 5608.890625 4865.21875 C 5598.949219 4865.21875 5590.890625 4857.160156 5590.890625 4847.21875 C 5590.890625 4837.28125 5598.949219 4829.21875 5608.890625 4829.21875 "/>
<path xmlns="http://www.w3.org/2000/svg" fill-rule="nonzero" fill="rgb(12.625122%, 41.371155%, 23.204041%)" fill-opacity="1" d="M 5608.890625 4785.957031 C 5596.757812 4785.957031 5586.890625 4795.824219 5586.890625 4807.957031 C 5586.890625 4820.085938 5596.757812 4829.957031 5608.890625 4829.957031 C 5621.019531 4829.957031 5630.890625 4820.085938 5630.890625 4807.957031 C 5630.890625 4795.824219 5621.019531 4785.957031 5608.890625 4785.957031 M 5608.890625 4789.957031 C 5618.832031 4789.957031 5626.890625 4798.015625 5626.890625 4807.957031 C 5626.890625 4817.898438 5618.832031 4825.957031 5608.890625 4825.957031 C 5598.949219 4825.957031 5590.890625 4817.898438 5590.890625 4807.957031 C 5590.890625 4798.015625 5598.949219 4789.957031 5608.890625 4789.957031 "/>
<path xmlns="http://www.w3.org/2000/svg" fill-rule="nonzero" fill="rgb(16.629028%, 30.575562%, 64.790344%)" fill-opacity="1" d="M 6077.726562 4825.21875 C 6065.59375 4825.21875 6055.726562 4835.089844 6055.726562 4847.21875 C 6055.726562 4859.351562 6065.59375 4869.21875 6077.726562 4869.21875 C 6089.859375 4869.21875 6099.726562 4859.351562 6099.726562 4847.21875 C 6099.726562 4835.089844 6089.859375 4825.21875 6077.726562 4825.21875 M 6077.726562 4829.21875 C 6087.667969 4829.21875 6095.726562 4837.28125 6095.726562 4847.21875 C 6095.726562 4857.160156 6087.667969 4865.21875 6077.726562 4865.21875 C 6067.785156 4865.21875 6059.726562 4857.160156 6059.726562 4847.21875 C 6059.726562 4837.28125 6067.785156 4829.21875 6077.726562 4829.21875 "/>
<path xmlns="http://www.w3.org/2000/svg" fill-rule="nonzero" fill="rgb(12.625122%, 41.371155%, 23.204041%)" fill-opacity="1" d="M 6077.726562 4785.957031 C 6065.59375 4785.957031 6055.726562 4795.824219 6055.726562 4807.957031 C 6055.726562 4820.085938 6065.59375 4829.957031 6077.726562 4829.957031 C 6089.859375 4829.957031 6099.726562 4820.085938 6099.726562 4807.957031 C 6099.726562 4795.824219 6089.859375 4785.957031 6077.726562 4785.957031 M 6077.726562 4789.957031 C 6087.667969 4789.957031 6095.726562 4798.015625 6095.726562 4807.957031 C 6095.726562 4817.898438 6087.667969 4825.957031 6077.726562 4825.957031 C 6067.785156 4825.957031 6059.726562 4817.898438 6059.726562 4807.957031 C 6059.726562 4798.015625 6067.785156 4789.957031 6077.726562 4789.957031 "/>
<path xmlns="http://www.w3.org/2000/svg" fill-rule="nonzero" fill="rgb(12.625122%, 41.371155%, 23.204041%)" fill-opacity="1" d="M 6880.265625 4787.019531 C 6868.132812 4787.019531 6858.265625 4796.886719 6858.265625 4809.019531 C 6858.265625 4821.148438 6868.132812 4831.019531 6880.265625 4831.019531 C 6892.394531 4831.019531 6902.265625 4821.148438 6902.265625 4809.019531 C 6902.265625 4796.886719 6892.394531 4787.019531 6880.265625 4787.019531 M 6880.265625 4791.019531 C 6890.203125 4791.019531 6898.265625 4799.078125 6898.265625 4809.019531 C 6898.265625 4818.957031 6890.203125 4827.019531 6880.265625 4827.019531 C 6870.324219 4827.019531 6862.265625 4818.957031 6862.265625 4809.019531 C 6862.265625 4799.078125 6870.324219 4791.019531 6880.265625 4791.019531 "/>
<path xmlns="http://www.w3.org/2000/svg" fill-rule="nonzero" fill="rgb(57.157898%, 11.026001%, 13.259888%)" fill-opacity="1" d="M 6372.664062 3923.914062 L 5962.195312 3923.914062 C 5952.964844 3923.914062 5945.480469 3916.429688 5945.480469 3907.199219 L 5945.480469 3803.738281 C 5945.480469 3794.507812 5952.964844 3787.023438 5962.195312 3787.023438 L 6372.664062 3787.023438 C 6381.894531 3787.023438 6389.378906 3794.507812 6389.378906 3803.738281 L 6389.378906 3907.199219 C 6389.378906 3916.429688 6381.894531 3923.914062 6372.664062 3923.914062 "/>
<path xmlns="http://www.w3.org/2000/svg" fill-rule="nonzero" fill="rgb(94.920349%, 34.173584%, 16.610718%)" fill-opacity="1" d="M 7092.613281 3413.457031 C 7078.828125 3413.457031 7067.613281 3424.671875 7067.613281 3438.457031 C 7067.613281 3452.242188 7078.828125 3463.457031 7092.613281 3463.457031 C 7106.398438 3463.457031 7117.613281 3452.242188 7117.613281 3438.457031 C 7117.613281 3424.671875 7106.398438 3413.457031 7092.613281 3413.457031 M 7092.613281 3420.457031 C 7102.554688 3420.457031 7110.613281 3428.515625 7110.613281 3438.457031 C 7110.613281 3448.398438 7102.554688 3456.457031 7092.613281 3456.457031 C 7082.671875 3456.457031 7074.613281 3448.398438 7074.613281 3438.457031 C 7074.613281 3428.515625 7082.671875 3420.457031 7092.613281 3420.457031 "/>
<path xmlns="http://www.w3.org/2000/svg" fill-rule="nonzero" fill="rgb(94.920349%, 34.173584%, 16.610718%)" fill-opacity="1" d="M 7092.613281 3561.578125 C 7078.828125 3561.578125 7067.613281 3572.792969 7067.613281 3586.578125 C 7067.613281 3600.363281 7078.828125 3611.578125 7092.613281 3611.578125 C 7106.398438 3611.578125 7117.613281 3600.363281 7117.613281 3586.578125 C 7117.613281 3572.792969 7106.398438 3561.578125 7092.613281 3561.578125 M 7092.613281 3568.578125 C 7102.554688 3568.578125 7110.613281 3576.636719 7110.613281 3586.578125 C 7110.613281 3596.519531 7102.554688 3604.578125 7092.613281 3604.578125 C 7082.671875 3604.578125 7074.613281 3596.519531 7074.613281 3586.578125 C 7074.613281 3576.636719 7082.671875 3568.578125 7092.613281 3568.578125 "/>
<path xmlns="http://www.w3.org/2000/svg" fill-rule="nonzero" fill="rgb(31.829834%, 76.496887%, 94.515991%)" fill-opacity="1" d="M 4867.035156 3840.292969 C 4854.90625 3840.292969 4845.035156 3850.160156 4845.035156 3862.292969 C 4845.035156 3874.421875 4854.90625 3884.292969 4867.035156 3884.292969 C 4879.167969 3884.292969 4889.035156 3874.421875 4889.035156 3862.292969 C 4889.035156 3850.160156 4879.167969 3840.292969 4867.035156 3840.292969 M 4867.035156 3844.292969 C 4876.976562 3844.292969 4885.035156 3852.351562 4885.035156 3862.292969 C 4885.035156 3872.234375 4876.976562 3880.292969 4867.035156 3880.292969 C 4857.09375 3880.292969 4849.035156 3872.234375 4849.035156 3862.292969 C 4849.035156 3852.351562 4857.09375 3844.292969 4867.035156 3844.292969 "/>
<path xmlns="http://www.w3.org/2000/svg" fill-rule="nonzero" fill="rgb(93.370056%, 15.119934%, 21.038818%)" fill-opacity="1" d="M 4895.316406 3811.011719 C 4883.183594 3811.011719 4873.316406 3820.882812 4873.316406 3833.011719 C 4873.316406 3845.144531 4883.183594 3855.011719 4895.316406 3855.011719 C 4907.449219 3855.011719 4917.316406 3845.144531 4917.316406 3833.011719 C 4917.316406 3820.882812 4907.449219 3811.011719 4895.316406 3811.011719 M 4895.316406 3815.011719 C 4905.257812 3815.011719 4913.316406 3823.070312 4913.316406 3833.011719 C 4913.316406 3842.953125 4905.257812 3851.011719 4895.316406 3851.011719 C 4885.375 3851.011719 4877.316406 3842.953125 4877.316406 3833.011719 C 4877.316406 3823.070312 4885.375 3815.011719 4895.316406 3815.011719 "/>
<path xmlns="http://www.w3.org/2000/svg" fill-rule="nonzero" fill="rgb(31.829834%, 76.496887%, 94.515991%)" fill-opacity="1" d="M 5662.527344 4100.019531 C 5650.394531 4100.019531 5640.527344 4109.886719 5640.527344 4122.019531 C 5640.527344 4134.148438 5650.394531 4144.019531 5662.527344 4144.019531 C 5674.65625 4144.019531 5684.527344 4134.148438 5684.527344 4122.019531 C 5684.527344 4109.886719 5674.65625 4100.019531 5662.527344 4100.019531 M 5662.527344 4104.019531 C 5672.46875 4104.019531 5680.527344 4112.078125 5680.527344 4122.019531 C 5680.527344 4131.960938 5672.46875 4140.019531 5662.527344 4140.019531 C 5652.585938 4140.019531 5644.527344 4131.960938 5644.527344 4122.019531 C 5644.527344 4112.078125 5652.585938 4104.019531 5662.527344 4104.019531 "/>
<path xmlns="http://www.w3.org/2000/svg" fill-rule="nonzero" fill="rgb(31.829834%, 76.496887%, 94.515991%)" fill-opacity="1" d="M 5985.871094 4097.894531 C 5973.738281 4097.894531 5963.871094 4107.761719 5963.871094 4119.894531 C 5963.871094 4132.023438 5973.738281 4141.894531 5985.871094 4141.894531 C 5998 4141.894531 6007.871094 4132.023438 6007.871094 4119.894531 C 6007.871094 4107.761719 5998 4097.894531 5985.871094 4097.894531 M 5985.871094 4101.894531 C 5995.8125 4101.894531 6003.871094 4109.953125 6003.871094 4119.894531 C 6003.871094 4129.832031 5995.8125 4137.894531 5985.871094 4137.894531 C 5975.929688 4137.894531 5967.871094 4129.832031 5967.871094 4119.894531 C 5967.871094 4109.953125 5975.929688 4101.894531 5985.871094 4101.894531 "/>
<path xmlns="http://www.w3.org/2000/svg" fill-rule="nonzero" fill="rgb(31.829834%, 76.496887%, 94.515991%)" fill-opacity="1" d="M 6762.175781 4097.894531 C 6750.042969 4097.894531 6740.175781 4107.761719 6740.175781 4119.894531 C 6740.175781 4132.023438 6750.042969 4141.894531 6762.175781 4141.894531 C 6774.304688 4141.894531 6784.175781 4132.023438 6784.175781 4119.894531 C 6784.175781 4107.761719 6774.304688 4097.894531 6762.175781 4097.894531 M 6762.175781 4101.894531 C 6772.117188 4101.894531 6780.175781 4109.953125 6780.175781 4119.894531 C 6780.175781 4129.832031 6772.117188 4137.894531 6762.175781 4137.894531 C 6752.234375 4137.894531 6744.175781 4129.832031 6744.175781 4119.894531 C 6744.175781 4109.953125 6752.234375 4101.894531 6762.175781 4101.894531 "/>
<path xmlns="http://www.w3.org/2000/svg" fill-rule="nonzero" fill="rgb(31.829834%, 76.496887%, 94.515991%)" fill-opacity="1" d="M 5509.574219 3323.769531 C 5497.441406 3323.769531 5487.574219 3333.636719 5487.574219 3345.769531 C 5487.574219 3357.898438 5497.441406 3367.769531 5509.574219 3367.769531 C 5521.703125 3367.769531 5531.574219 3357.898438 5531.574219 3345.769531 C 5531.574219 3333.636719 5521.703125 3323.769531 5509.574219 3323.769531 M 5509.574219 3327.769531 C 5519.511719 3327.769531 5527.574219 3335.828125 5527.574219 3345.769531 C 5527.574219 3355.710938 5519.511719 3363.769531 5509.574219 3363.769531 C 5499.632812 3363.769531 5491.574219 3355.710938 5491.574219 3345.769531 C 5491.574219 3335.828125 5499.632812 3327.769531 5509.574219 3327.769531 "/>
<path xmlns="http://www.w3.org/2000/svg" fill-rule="nonzero" fill="rgb(31.829834%, 76.496887%, 94.515991%)" fill-opacity="1" d="M 5709.976562 3525.261719 C 5697.84375 3525.261719 5687.976562 3535.132812 5687.976562 3547.261719 C 5687.976562 3559.394531 5697.84375 3569.261719 5709.976562 3569.261719 C 5722.105469 3569.261719 5731.976562 3559.394531 5731.976562 3547.261719 C 5731.976562 3535.132812 5722.105469 3525.261719 5709.976562 3525.261719 M 5709.976562 3529.261719 C 5719.917969 3529.261719 5727.976562 3537.320312 5727.976562 3547.261719 C 5727.976562 3557.203125 5719.917969 3565.261719 5709.976562 3565.261719 C 5700.035156 3565.261719 5691.976562 3557.203125 5691.976562 3547.261719 C 5691.976562 3537.320312 5700.035156 3529.261719 5709.976562 3529.261719 "/>
<path xmlns="http://www.w3.org/2000/svg" fill-rule="nonzero" fill="rgb(31.829834%, 76.496887%, 94.515991%)" fill-opacity="1" d="M 5847.746094 3837.285156 C 5835.617188 3837.285156 5825.746094 3847.15625 5825.746094 3859.285156 C 5825.746094 3871.417969 5835.617188 3881.285156 5847.746094 3881.285156 C 5859.878906 3881.285156 5869.746094 3871.417969 5869.746094 3859.285156 C 5869.746094 3847.15625 5859.878906 3837.285156 5847.746094 3837.285156 M 5847.746094 3841.285156 C 5857.6875 3841.285156 5865.746094 3849.34375 5865.746094 3859.285156 C 5865.746094 3869.226562 5857.6875 3877.285156 5847.746094 3877.285156 C 5837.808594 3877.285156 5829.746094 3869.226562 5829.746094 3859.285156 C 5829.746094 3849.34375 5837.808594 3841.285156 5847.746094 3841.285156 "/>
<path xmlns="http://www.w3.org/2000/svg" fill-rule="nonzero" fill="rgb(93.370056%, 15.119934%, 21.038818%)" fill-opacity="1" d="M 5280.199219 4409.207031 C 5268.070312 4409.207031 5258.199219 4419.074219 5258.199219 4431.207031 C 5258.199219 4443.335938 5268.070312 4453.207031 5280.199219 4453.207031 C 5292.332031 4453.207031 5302.199219 4443.335938 5302.199219 4431.207031 C 5302.199219 4419.074219 5292.332031 4409.207031 5280.199219 4409.207031 M 5280.199219 4413.207031 C 5290.140625 4413.207031 5298.199219 4421.265625 5298.199219 4431.207031 C 5298.199219 4441.144531 5290.140625 4449.207031 5280.199219 4449.207031 C 5270.257812 4449.207031 5262.199219 4441.144531 5262.199219 4431.207031 C 5262.199219 4421.265625 5270.257812 4413.207031 5280.199219 4413.207031 "/>
<path xmlns="http://www.w3.org/2000/svg" fill-rule="nonzero" fill="rgb(93.370056%, 15.119934%, 21.038818%)" fill-opacity="1" d="M 5280.203125 4695.277344 C 5268.070312 4695.277344 5258.203125 4705.148438 5258.203125 4717.277344 C 5258.203125 4729.410156 5268.070312 4739.277344 5280.203125 4739.277344 C 5292.332031 4739.277344 5302.203125 4729.410156 5302.203125 4717.277344 C 5302.203125 4705.148438 5292.332031 4695.277344 5280.203125 4695.277344 M 5280.203125 4699.277344 C 5290.144531 4699.277344 5298.203125 4707.335938 5298.203125 4717.277344 C 5298.203125 4727.21875 5290.144531 4735.277344 5280.203125 4735.277344 C 5270.261719 4735.277344 5262.203125 4727.21875 5262.203125 4717.277344 C 5262.203125 4707.335938 5270.261719 4699.277344 5280.203125 4699.277344 "/>
<path xmlns="http://www.w3.org/2000/svg" fill-rule="nonzero" fill="rgb(93.244934%, 11.296082%, 40.261841%)" fill-opacity="1" d="M 5786.933594 4586.269531 L 5743.675781 4586.269531 C 5732.085938 4586.269531 5722.6875 4576.875 5722.6875 4565.28125 C 5722.6875 4553.691406 5732.085938 4544.292969 5743.675781 4544.292969 L 5786.933594 4544.292969 C 5798.523438 4544.292969 5807.921875 4553.691406 5807.921875 4565.28125 C 5807.921875 4576.875 5798.523438 4586.269531 5786.933594 4586.269531 "/>
<path xmlns="http://www.w3.org/2000/svg" fill-rule="nonzero" fill="rgb(18.229675%, 23.951721%, 61.04126%)" fill-opacity="1" d="M 5786.933594 4632.269531 L 5743.675781 4632.269531 C 5732.085938 4632.269531 5722.6875 4622.871094 5722.6875 4611.277344 C 5722.6875 4599.6875 5732.085938 4590.289062 5743.675781 4590.289062 L 5786.933594 4590.289062 C 5798.523438 4590.289062 5807.921875 4599.6875 5807.921875 4611.277344 C 5807.921875 4622.871094 5798.523438 4632.269531 5786.933594 4632.269531 "/>
<path xmlns="http://www.w3.org/2000/svg" fill-rule="nonzero" fill="rgb(79.408264%, 34.082031%, 16.569519%)" fill-opacity="1" d="M 5695.9375 4586.269531 L 5652.683594 4586.269531 C 5641.089844 4586.269531 5631.695312 4576.875 5631.695312 4565.28125 C 5631.695312 4553.691406 5641.089844 4544.292969 5652.683594 4544.292969 L 5695.9375 4544.292969 C 5707.53125 4544.292969 5716.929688 4553.691406 5716.929688 4565.28125 C 5716.929688 4576.875 5707.53125 4586.269531 5695.9375 4586.269531 "/>
<path xmlns="http://www.w3.org/2000/svg" fill-rule="nonzero" fill="rgb(30.001831%, 64.794922%, 59.94873%)" fill-opacity="1" d="M 6661.21875 4713.839844 L 6617.964844 4713.839844 C 6606.371094 4713.839844 6596.972656 4704.441406 6596.972656 4692.847656 C 6596.972656 4681.257812 6606.371094 4671.859375 6617.964844 4671.859375 L 6661.21875 4671.859375 C 6672.808594 4671.859375 6682.207031 4681.257812 6682.207031 4692.847656 C 6682.207031 4704.441406 6672.808594 4713.839844 6661.21875 4713.839844 "/>
<path xmlns="http://www.w3.org/2000/svg" fill-rule="nonzero" fill="rgb(93.244934%, 11.296082%, 40.261841%)" fill-opacity="1" d="M 5695.9375 4632.269531 L 5652.683594 4632.269531 C 5641.089844 4632.269531 5631.695312 4622.871094 5631.695312 4611.277344 C 5631.695312 4599.6875 5641.089844 4590.289062 5652.683594 4590.289062 L 5695.9375 4590.289062 C 5707.53125 4590.289062 5716.925781 4599.6875 5716.925781 4611.277344 C 5716.925781 4622.871094 5707.53125 4632.269531 5695.9375 4632.269531 "/>
<path xmlns="http://www.w3.org/2000/svg" fill-rule="nonzero" fill="rgb(31.402588%, 76.568604%, 94.60907%)" fill-opacity="1" d="M 5932.355469 3928.667969 C 5906.9375 3928.667969 5886.261719 3949.34375 5886.261719 3974.761719 C 5886.261719 4000.175781 5906.9375 4020.851562 5932.355469 4020.851562 C 5957.769531 4020.851562 5978.449219 4000.175781 5978.449219 3974.761719 C 5978.449219 3949.34375 5957.769531 3928.667969 5932.355469 3928.667969 M 5932.355469 3941.167969 C 5950.90625 3941.167969 5965.949219 3956.207031 5965.949219 3974.761719 C 5965.949219 3993.3125 5950.90625 4008.351562 5932.355469 4008.351562 C 5913.800781 4008.351562 5898.761719 3993.3125 5898.761719 3974.761719 C 5898.761719 3956.207031 5913.800781 3941.167969 5932.355469 3941.167969 "/>
</svg>
