<?xml version="1.0" encoding="UTF-8"?>
<svg xmlns="http://www.w3.org/2000/svg" xmlns:xlink="http://www.w3.org/1999/xlink" viewBox="4756.785 3363.44 2378.3925 1681.72" width="2378.3925" height="1681.72">
<path xmlns="http://www.w3.org/2000/svg" fill-rule="nonzero" fill="rgb(78.900146%, 91.56189%, 65.628052%)" fill-opacity="1" d="M 5155.84375 5019.667969 L 5053.398438 5019.667969 C 5043.40625 5019.667969 5035.230469 5011.492188 5035.230469 5001.496094 L 5035.230469 4517.898438 C 5035.230469 4507.90625 5043.40625 4499.730469 5053.398438 4499.730469 L 5155.84375 4499.730469 C 5165.839844 4499.730469 5174.015625 4507.90625 5174.015625 4517.898438 L 5174.015625 5001.496094 C 5174.015625 5011.492188 5165.839844 5019.667969 5155.84375 5019.667969 "/>
<path xmlns="http://www.w3.org/2000/svg" fill-rule="nonzero" fill="rgb(78.900146%, 91.56189%, 65.628052%)" fill-opacity="1" d="M 7078.214844 3682.179688 L 6743.28125 3682.179688 C 6736.070312 3682.179688 6730.226562 3676.332031 6730.226562 3669.121094 L 6730.226562 3488.855469 C 6730.226562 3481.644531 6736.070312 3475.796875 6743.28125 3475.796875 L 7078.214844 3475.796875 C 7085.429688 3475.796875 7091.273438 3481.644531 7091.273438 3488.855469 L 7091.273438 3669.121094 C 7091.273438 3676.332031 7085.429688 3682.179688 7078.214844 3682.179688 "/>
<path xmlns="http://www.w3.org/2000/svg" fill-rule="nonzero" fill="rgb(78.900146%, 91.56189%, 65.628052%)" fill-opacity="1" d="M 7078.214844 3460.898438 L 6743.28125 3460.898438 C 6736.070312 3460.898438 6730.226562 3455.050781 6730.226562 3447.835938 L 6730.226562 3267.574219 C 6730.226562 3260.363281 6736.070312 3254.515625 6743.28125 3254.515625 L 7078.214844 3254.515625 C 7085.429688 3254.515625 7091.273438 3260.363281 7091.273438 3267.574219 L 7091.273438 3447.835938 C 7091.273438 3455.050781 7085.429688 3460.898438 7078.214844 3460.898438 "/>
</svg>
