<?xml version="1.0" encoding="UTF-8"?>
<svg xmlns="http://www.w3.org/2000/svg" xmlns:xlink="http://www.w3.org/1999/xlink" viewBox="7135.1775 0 2378.3925 1681.72" width="2378.3925" height="1681.72">
<defs>
<clipPath xmlns="http://www.w3.org/2000/svg" id="clip-2692">
<path clip-rule="nonzero" d="M 0 626 L 8627 626 L 8627 6726.878906 L 0 6726.878906 Z M 0 626 "/>
</clipPath>
<clipPath xmlns="http://www.w3.org/2000/svg" id="clip-2693">
<path clip-rule="nonzero" d="M 0 626 L 8628 626 L 8628 6726.878906 L 0 6726.878906 Z M 0 626 "/>
</clipPath>
</defs>
<path xmlns="http://www.w3.org/2000/svg" fill-rule="nonzero" fill="rgb(96.369934%, 96.783447%, 96.252441%)" fill-opacity="1" d="M 8553.738281 6718.390625 L 76.574219 6718.390625 L 76.574219 769.433594 L 8553.738281 769.433594 Z M 8553.738281 6718.390625 "/>
<path xmlns="http://www.w3.org/2000/svg" fill-rule="nonzero" fill="rgb(100%, 100%, 100%)" fill-opacity="1" stroke-width="22.677" stroke-linecap="butt" stroke-linejoin="miter" stroke="rgb(78.347778%, 79.615784%, 79.621887%)" stroke-opacity="1" stroke-miterlimit="10" d="M -0.00144375 0.0006375 L -0.00144375 -2241.573581 C -0.00144375 -2343.350925 -82.50535 -2425.858737 -184.282694 -2425.858737 L -5203.978006 -2425.858737 C -5305.75535 -2425.858737 -5388.259256 -2343.350925 -5388.259256 -2241.573581 L -5388.259256 -1509.389987 C -5388.259256 -1407.612644 -5470.767069 -1325.108737 -5572.544413 -1325.108737 L -6282.556131 -1325.108737 C -6384.333475 -1325.108737 -6466.841288 -1242.600925 -6466.841288 -1140.823581 L -6466.841288 -729.483737 C -6466.841288 -680.608737 -6486.25535 -633.733737 -6520.81785 -599.175144 L -6656.075663 -463.917331 C -6690.634256 -429.354831 -6710.052225 -382.483737 -6710.052225 -333.608737 L -6710.052225 1191.942044 C -6710.052225 1257.574856 -6675.142069 1318.25845 -6618.403788 1351.250638 L -5760.173319 1850.293606 C -5703.431131 1883.285794 -5668.524881 1943.965481 -5668.524881 2009.6022 L -5668.524881 2484.336575 C -5668.524881 2586.024075 -5586.157694 2668.492825 -5484.470194 2668.621731 L -184.513163 2675.281888 C -82.645975 2675.406888 -0.00144375 2592.863919 -0.00144375 2490.996731 L -0.00144375 996.524075 C -0.00144375 958.016263 15.295431 921.082669 42.5259 893.8522 L 213.064962 723.317044 C 240.236837 696.145169 255.502462 659.2897 255.502462 620.860013 L 255.502462 400.863919 C 255.502462 354.121731 236.936056 309.293606 203.881369 276.242825 L 51.943869 124.301419 C 18.951681 91.313138 0.291525 46.652981 -0.00144375 0.0006375 Z M -0.00144375 0.0006375 " transform="matrix(1, 0, 0, -1, 7626.8491, 3705.3522)"/>
<path xmlns="http://www.w3.org/2000/svg" fill-rule="nonzero" fill="rgb(75.990295%, 77.722168%, 83.355713%)" fill-opacity="1" d="M 1427.484375 704.269531 L 8535.480469 704.269531 C 8544.175781 704.269531 8551.226562 711.316406 8551.226562 720.015625 L 8551.226562 1023.769531 C 8551.226562 1032.46875 8544.175781 1039.519531 8535.476562 1039.519531 L 7201.308594 1039.519531 C 7197.132812 1039.519531 7193.128906 1041.179688 7190.175781 1044.132812 L 7041.859375 1192.480469 C 7023.113281 1211.230469 6997.679688 1221.769531 6971.160156 1221.769531 L 6032.726562 1221.769531 C 6006.210938 1221.769531 5980.777344 1232.304688 5962.03125 1251.058594 L 5809.140625 1403.980469 C 5790.394531 1422.734375 5764.964844 1433.269531 5738.449219 1433.269531 L 5363.707031 1433.269531 C 5355.011719 1433.269531 5347.960938 1440.316406 5347.960938 1449.015625 L 5347.960938 1462.519531 C 5347.960938 1471.21875 5355.011719 1478.269531 5363.707031 1478.269531 C 5372.402344 1478.269531 5379.453125 1485.320312 5379.453125 1494.019531 L 5379.453125 1503.019531 C 5379.453125 1511.71875 5372.402344 1518.769531 5363.703125 1518.769531 L 5228.738281 1518.769531 C 5220.039062 1518.769531 5212.992188 1511.71875 5212.992188 1503.023438 L 5212.992188 1494.019531 C 5212.992188 1485.320312 5220.042969 1478.269531 5228.742188 1478.269531 L 5278.222656 1478.269531 C 5286.921875 1478.269531 5293.972656 1471.21875 5293.972656 1462.519531 L 5293.972656 1453.519531 C 5293.972656 1444.820312 5286.921875 1437.769531 5278.222656 1437.769531 L 4732.523438 1437.769531 C 4706.007812 1437.769531 4680.578125 1427.234375 4661.832031 1408.480469 L 4580.925781 1327.558594 C 4562.175781 1308.804688 4536.746094 1298.269531 4510.230469 1298.269531 L 3892.542969 1298.269531 C 3883.847656 1298.269531 3876.796875 1291.21875 3876.796875 1282.523438 L 3876.796875 1107.019531 C 3876.796875 1098.320312 3869.746094 1091.269531 3861.046875 1091.269531 L 3676.59375 1091.269531 C 3667.898438 1091.269531 3660.847656 1098.316406 3660.847656 1107.015625 L 3660.847656 1217.273438 C 3660.847656 1225.96875 3653.796875 1233.019531 3645.101562 1233.019531 L 2359.316406 1233.019531 C 2332.800781 1233.019531 2307.371094 1222.484375 2288.625 1203.730469 L 2161.882812 1076.960938 C 2136.476562 1051.546875 2102.011719 1037.269531 2066.074219 1037.269531 L 1571.597656 1037.269531 C 1513.890625 1037.269531 1458.546875 1014.34375 1417.738281 973.539062 L 1144.25 700.050781 Z M 1427.484375 704.269531 "/>
<path xmlns="http://www.w3.org/2000/svg" fill-rule="nonzero" fill="rgb(94.900513%, 97.911072%, 90.852356%)" fill-opacity="1" d="M 7886.816406 1448.726562 L 8554.097656 1448.726562 L 8554.097656 1042.324219 L 7480.414062 1042.324219 C 7480.414062 1266.773438 7662.367188 1448.726562 7886.816406 1448.726562 "/>
<path xmlns="http://www.w3.org/2000/svg" fill="none" stroke-width="0.5" stroke-linecap="round" stroke-linejoin="round" stroke="rgb(10.572815%, 9.655762%, 10.258484%)" stroke-opacity="1" stroke-miterlimit="4" d="M 0.0015 0.00159375 L 0.0015 -4.998406 " transform="matrix(1, 0, 0, -1, 7494.9985, 628.2555)"/>
<path xmlns="http://www.w3.org/2000/svg" fill="none" stroke-width="0.5" stroke-linecap="round" stroke-linejoin="round" stroke="rgb(10.572815%, 9.655762%, 10.258484%)" stroke-opacity="1" stroke-dasharray="9.997 4.999" stroke-miterlimit="4" d="M 0.0015 0.00009375 L 0.0015 -6070.855375 " transform="matrix(1, 0, 0, -1, 7494.9985, 638.254)"/>
<path xmlns="http://www.w3.org/2000/svg" fill="none" stroke-width="0.5" stroke-linecap="round" stroke-linejoin="round" stroke="rgb(10.572815%, 9.655762%, 10.258484%)" stroke-opacity="1" stroke-miterlimit="4" d="M -0.00195 0.00159375 L -0.00195 -4.998406 " transform="matrix(1, 0, 0, -1, 8552.4082, 628.2555)"/>
<path xmlns="http://www.w3.org/2000/svg" fill="none" stroke-width="0.5" stroke-linecap="round" stroke-linejoin="round" stroke="rgb(10.572815%, 9.655762%, 10.258484%)" stroke-opacity="1" stroke-dasharray="9.997 4.999" stroke-miterlimit="4" d="M -0.00195 0.00009375 L -0.00195 -6070.855375 " transform="matrix(1, 0, 0, -1, 8552.4082, 638.254)"/>
<g xmlns="http://www.w3.org/2000/svg" clip-path="url(#clip-2692)"><path fill-rule="nonzero" fill="rgb(100%, 100%, 100%)" fill-opacity="1" d="M 8627 626.714844 L 0.253906 626.714844 L 0.253906 6726.714844 L 8627 6726.714844 Z M 8552.207031 6651.945312 L 75.042969 6651.945312 L 75.042969 701.484375 L 8552.207031 701.484375 Z M 8552.207031 6651.945312 "/></g>
<g xmlns="http://www.w3.org/2000/svg" clip-path="url(#clip-2693)"><path fill="none" stroke-width="0.373" stroke-linecap="butt" stroke-linejoin="miter" stroke="rgb(10.572815%, 9.655762%, 10.258484%)" stroke-opacity="1" stroke-miterlimit="10" d="M 8627 6100.165156 L 0.253906 6100.165156 L 0.253906 0.165156 L 8627 0.165156 Z M 8552.207031 74.934688 L 75.042969 74.934688 L 75.042969 6025.395625 L 8552.207031 6025.395625 Z M 8552.207031 74.934688 " transform="matrix(1, 0, 0, -1, 0, 6726.88)"/></g>
<path xmlns="http://www.w3.org/2000/svg" fill="none" stroke-width="1.454" stroke-linecap="butt" stroke-linejoin="miter" stroke="rgb(100%, 100%, 100%)" stroke-opacity="1" stroke-miterlimit="10" d="M -0.0009375 -0.00181875 C -67.442344 -0.00181875 -122.336875 54.892713 -122.336875 122.345838 C -122.336875 189.798963 -67.442344 244.681775 -0.0009375 244.681775 C 67.463906 244.681775 122.342813 189.798963 122.342813 122.345838 C 122.342813 54.892713 67.463906 -0.00181875 -0.0009375 -0.00181875 " transform="matrix(1, 0, 0, -1, 8204.665, 1173.8224)"/>
<path xmlns="http://www.w3.org/2000/svg" fill-rule="nonzero" fill="rgb(100%, 100%, 100%)" fill-opacity="1" stroke-width="1.454" stroke-linecap="butt" stroke-linejoin="miter" stroke="rgb(9.983826%, 13.81073%, 19.468689%)" stroke-opacity="1" stroke-miterlimit="10" d="M 0.000975 0.00013125 L 125.278319 -32.874869 L 0.000975 -65.753775 L -32.877931 -191.031119 L -65.752931 -65.753775 L -128.393556 -49.312369 L -191.034181 -32.878775 L -191.030275 -32.874869 L -191.034181 -32.878775 L -99.506837 -8.859244 L -65.752931 0.00013125 L -32.877931 125.281381 Z M 0.000975 0.00013125 " transform="matrix(1, 0, 0, -1, 8237.5459, 1018.6056)"/>
<path xmlns="http://www.w3.org/2000/svg" fill-rule="nonzero" fill="rgb(100%, 100%, 100%)" fill-opacity="1" stroke-width="2.573" stroke-linecap="butt" stroke-linejoin="miter" stroke="rgb(15.684509%, 16.607666%, 39.358521%)" stroke-opacity="1" stroke-miterlimit="10" d="M 0.00096875 -0.001825 C -25.581062 -0.001825 -46.405281 20.818487 -46.405281 46.408331 C -46.405281 71.998175 -25.581062 92.814581 0.00096875 92.814581 C 25.590813 92.814581 46.407219 71.998175 46.407219 46.408331 C 46.407219 20.818487 25.590813 -0.001825 0.00096875 -0.001825 " transform="matrix(1, 0, 0, -1, 8204.667, 1097.8888)"/>
</svg>
