<?xml version="1.0" encoding="UTF-8"?>
<svg xmlns="http://www.w3.org/2000/svg" xmlns:xlink="http://www.w3.org/1999/xlink" viewBox="7135.1775 0 2378.3925 1681.72" width="2378.3925" height="1681.72">
<defs>
<g xmlns="http://www.w3.org/2000/svg" id="glyph-53-7">
<path d="M 3.1875 -8.9375 C 3.1875 -10.15625 3.34375 -11.242188 3.65625 -12.203125 C 3.96875 -13.160156 4.410156 -14.03125 4.984375 -14.8125 C 5.554688 -15.59375 6.234375 -16.296875 7.015625 -16.921875 C 7.804688 -17.546875 8.65625 -18.117188 9.5625 -18.640625 C 7.851562 -19.722656 6.507812 -20.96875 5.53125 -22.375 C 4.5625 -23.789062 4.078125 -25.539062 4.078125 -27.625 C 4.078125 -28.988281 4.328125 -30.257812 4.828125 -31.4375 C 5.335938 -32.625 6.070312 -33.648438 7.03125 -34.515625 C 7.988281 -35.390625 9.144531 -36.070312 10.5 -36.5625 C 11.851562 -37.050781 13.382812 -37.296875 15.09375 -37.296875 C 16.664062 -37.296875 18.09375 -37.085938 19.375 -36.671875 C 20.664062 -36.253906 21.769531 -35.660156 22.6875 -34.890625 C 23.613281 -34.128906 24.328125 -33.195312 24.828125 -32.09375 C 25.335938 -31 25.59375 -29.789062 25.59375 -28.46875 C 25.59375 -26.414062 25.128906 -24.675781 24.203125 -23.25 C 23.285156 -21.820312 21.9375 -20.515625 20.15625 -19.328125 C 22.25 -18.109375 23.828125 -16.765625 24.890625 -15.296875 C 25.953125 -13.835938 26.484375 -11.957031 26.484375 -9.65625 C 26.484375 -8.09375 26.195312 -6.675781 25.625 -5.40625 C 25.050781 -4.132812 24.238281 -3.046875 23.1875 -2.140625 C 22.144531 -1.234375 20.890625 -0.523438 19.421875 -0.015625 C 17.960938 0.484375 16.363281 0.734375 14.625 0.734375 C 12.882812 0.734375 11.304688 0.5 9.890625 0.03125 C 8.484375 -0.4375 7.285156 -1.085938 6.296875 -1.921875 C 5.304688 -2.765625 4.539062 -3.773438 4 -4.953125 C 3.457031 -6.140625 3.1875 -7.46875 3.1875 -8.9375 Z M 20 -9.609375 C 20 -10.410156 19.804688 -11.140625 19.421875 -11.796875 C 19.046875 -12.460938 18.550781 -13.066406 17.9375 -13.609375 C 17.332031 -14.148438 16.65625 -14.644531 15.90625 -15.09375 C 15.15625 -15.550781 14.398438 -15.988281 13.640625 -16.40625 C 11.992188 -15.457031 10.863281 -14.4375 10.25 -13.34375 C 9.644531 -12.25 9.34375 -11.160156 9.34375 -10.078125 C 9.34375 -8.679688 9.820312 -7.488281 10.78125 -6.5 C 11.738281 -5.507812 13.070312 -5.015625 14.78125 -5.015625 C 16.351562 -5.015625 17.613281 -5.394531 18.5625 -6.15625 C 19.519531 -6.925781 20 -8.078125 20 -9.609375 Z M 10.546875 -27.53125 C 10.546875 -26.695312 10.703125 -25.960938 11.015625 -25.328125 C 11.328125 -24.703125 11.753906 -24.15625 12.296875 -23.6875 C 12.835938 -23.21875 13.445312 -22.78125 14.125 -22.375 C 14.800781 -21.976562 15.507812 -21.609375 16.25 -21.265625 C 18.332031 -23.035156 19.375 -24.984375 19.375 -27.109375 C 19.375 -28.566406 18.945312 -29.671875 18.09375 -30.421875 C 17.238281 -31.171875 16.203125 -31.546875 14.984375 -31.546875 C 13.453125 -31.546875 12.328125 -31.144531 11.609375 -30.34375 C 10.898438 -29.539062 10.546875 -28.601562 10.546875 -27.53125 Z M 10.546875 -27.53125 "/>
</g>
<g xmlns="http://www.w3.org/2000/svg" id="glyph-53-8">
<path d="M 21.15625 -8.09375 L 9.921875 -8.09375 L 7.15625 0 L 0 0 L 13.15625 -36.828125 L 18.4375 -36.828125 L 31.609375 0 L 24.078125 0 Z M 11.75 -13.84375 L 19.59375 -13.84375 L 16.875 -21.984375 L 15.78125 -27.734375 L 15.515625 -27.734375 L 14.421875 -21.9375 Z M 11.75 -13.84375 "/>
</g>
<g xmlns="http://www.w3.org/2000/svg" id="glyph-88-0">
<path d="M 36.125 -57.5625 L 46.796875 -57.5625 L 46.796875 -20.390625 C 46.796875 -16.660156 46.300781 -13.453125 45.3125 -10.765625 C 44.332031 -8.085938 42.96875 -5.867188 41.21875 -4.109375 C 39.46875 -2.359375 37.332031 -1.070312 34.8125 -0.25 C 32.289062 0.570312 29.523438 0.984375 26.515625 0.984375 C 11.960938 0.984375 4.6875 -5.675781 4.6875 -19 L 4.6875 -57.5625 L 15.921875 -57.5625 L 15.921875 -21.21875 C 15.921875 -18.96875 16.125 -17.0625 16.53125 -15.5 C 16.945312 -13.9375 17.59375 -12.675781 18.46875 -11.71875 C 19.34375 -10.757812 20.4375 -10.070312 21.75 -9.65625 C 23.070312 -9.25 24.609375 -9.046875 26.359375 -9.046875 C 29.804688 -9.046875 32.296875 -10.003906 33.828125 -11.921875 C 35.359375 -13.835938 36.125 -16.9375 36.125 -21.21875 Z M 36.125 -57.5625 "/>
</g>
<g xmlns="http://www.w3.org/2000/svg" id="glyph-89-0">
<path d="M -32.921875 14.640625 C -32.921875 16.941406 -32.238281 18.816406 -30.875 20.265625 C -29.507812 21.722656 -27.796875 23.015625 -25.734375 24.140625 C -23.679688 25.265625 -21.453125 26.316406 -19.046875 27.296875 C -16.640625 28.285156 -14.410156 29.476562 -12.359375 30.875 C -10.304688 32.269531 -8.59375 33.992188 -7.21875 36.046875 C -5.851562 38.109375 -5.171875 40.726562 -5.171875 43.90625 C -5.171875 48.40625 -6.726562 51.96875 -9.84375 54.59375 C -12.96875 57.226562 -17.40625 58.546875 -23.15625 58.546875 C -26.488281 58.546875 -29.523438 58.300781 -32.265625 57.8125 C -35.003906 57.320312 -37.140625 56.691406 -38.671875 55.921875 L -36.625 49.921875 C -35.363281 50.523438 -33.515625 51.097656 -31.078125 51.640625 C -28.640625 52.191406 -25.890625 52.46875 -22.828125 52.46875 C -19.210938 52.46875 -16.5 51.65625 -14.6875 50.03125 C -12.882812 48.414062 -11.984375 46.515625 -11.984375 44.328125 C -11.984375 42.191406 -12.664062 40.410156 -14.03125 38.984375 C -15.40625 37.554688 -17.117188 36.28125 -19.171875 35.15625 C -21.222656 34.03125 -23.453125 32.921875 -25.859375 31.828125 C -28.273438 30.734375 -30.507812 29.457031 -32.5625 28 C -34.613281 26.550781 -36.320312 24.8125 -37.6875 22.78125 C -39.050781 20.75 -39.734375 18.226562 -39.734375 15.21875 C -39.734375 12.75 -39.296875 10.523438 -38.421875 8.546875 C -37.546875 6.578125 -36.257812 4.878906 -34.5625 3.453125 C -32.863281 2.023438 -30.8125 0.925781 -28.40625 0.15625 C -26 -0.601562 -23.265625 -0.984375 -20.203125 -0.984375 C -16.097656 -0.984375 -12.703125 -0.664062 -10.015625 -0.03125 C -7.335938 0.59375 -5.257812 1.289062 -3.78125 2.0625 L -6.078125 8.21875 C -7.335938 7.507812 -9.195312 6.8125 -11.65625 6.125 C -14.125 5.4375 -16.890625 5.09375 -19.953125 5.09375 C -21.753906 5.09375 -23.445312 5.269531 -25.03125 5.625 C -26.625 5.988281 -27.992188 6.566406 -29.140625 7.359375 C -30.296875 8.148438 -31.210938 9.148438 -31.890625 10.359375 C -32.578125 11.566406 -32.921875 12.992188 -32.921875 14.640625 Z M -32.921875 14.640625 "/>
</g>
<g xmlns="http://www.w3.org/2000/svg" id="glyph-90-0">
<path d="M -44.40625 -41.625 C -43.03125 -41.625 -41.628906 -41.40625 -40.203125 -40.96875 C -38.785156 -40.53125 -37.457031 -39.875 -36.21875 -39 C -34.988281 -38.125 -33.90625 -37 -32.96875 -35.625 C -32.039062 -34.257812 -31.332031 -32.648438 -30.84375 -30.796875 L -30.515625 -30.796875 C -30.234375 -32.429688 -29.765625 -34 -29.109375 -35.5 C -28.453125 -37.007812 -27.546875 -38.335938 -26.390625 -39.484375 C -25.242188 -40.640625 -23.847656 -41.570312 -22.203125 -42.28125 C -20.554688 -43 -18.609375 -43.359375 -16.359375 -43.359375 C -13.398438 -43.359375 -10.835938 -42.738281 -8.671875 -41.5 C -6.503906 -40.269531 -4.734375 -38.65625 -3.359375 -36.65625 C -1.992188 -34.664062 -0.984375 -32.382812 -0.328125 -29.8125 C 0.328125 -27.238281 0.65625 -24.609375 0.65625 -21.921875 C 0.65625 -20.992188 0.65625 -19.898438 0.65625 -18.640625 C 0.65625 -17.378906 0.613281 -16.0625 0.53125 -14.6875 C 0.445312 -13.320312 0.335938 -11.957031 0.203125 -10.59375 C 0.0664062 -9.226562 -0.132812 -8.023438 -0.40625 -6.984375 L -57.078125 -6.984375 C -57.398438 -9.003906 -57.671875 -11.351562 -57.890625 -14.03125 C -58.109375 -16.71875 -58.21875 -19.648438 -58.21875 -22.828125 C -58.21875 -24.960938 -58.039062 -27.132812 -57.6875 -29.34375 C -57.332031 -31.5625 -56.644531 -33.570312 -55.625 -35.375 C -54.613281 -37.1875 -53.203125 -38.679688 -51.390625 -39.859375 C -49.585938 -41.035156 -47.257812 -41.625 -44.40625 -41.625 Z M -5.265625 -22.578125 C -5.265625 -24.328125 -5.46875 -26.023438 -5.875 -27.671875 C -6.289062 -29.316406 -6.945312 -30.765625 -7.84375 -32.015625 C -8.75 -33.273438 -9.859375 -34.273438 -11.171875 -35.015625 C -12.492188 -35.753906 -14.0625 -36.125 -15.875 -36.125 C -18.125 -36.125 -19.929688 -35.671875 -21.296875 -34.765625 C -22.671875 -33.867188 -23.738281 -32.691406 -24.5 -31.234375 C -25.269531 -29.785156 -25.789062 -28.15625 -26.0625 -26.34375 C -26.34375 -24.539062 -26.484375 -22.738281 -26.484375 -20.9375 L -26.484375 -13.796875 L -5.84375 -13.796875 C -5.726562 -14.179688 -5.644531 -14.726562 -5.59375 -15.4375 C -5.539062 -16.144531 -5.484375 -16.910156 -5.421875 -17.734375 C -5.367188 -18.554688 -5.328125 -19.40625 -5.296875 -20.28125 C -5.273438 -21.15625 -5.265625 -21.921875 -5.265625 -22.578125 Z M -32.234375 -18.0625 C -32.234375 -18.988281 -32.257812 -20.109375 -32.3125 -21.421875 C -32.375 -22.742188 -32.457031 -23.84375 -32.5625 -24.71875 C -33 -26.03125 -33.53125 -27.257812 -34.15625 -28.40625 C -34.789062 -29.5625 -35.53125 -30.585938 -36.375 -31.484375 C -37.226562 -32.390625 -38.21875 -33.101562 -39.34375 -33.625 C -40.46875 -34.144531 -41.691406 -34.40625 -43.015625 -34.40625 C -44.816406 -34.40625 -46.304688 -34.0625 -47.484375 -33.375 C -48.671875 -32.6875 -49.617188 -31.769531 -50.328125 -30.625 C -51.035156 -29.476562 -51.539062 -28.164062 -51.84375 -26.6875 C -52.144531 -25.207031 -52.296875 -23.703125 -52.296875 -22.171875 C -52.296875 -20.359375 -52.253906 -18.695312 -52.171875 -17.1875 C -52.085938 -15.6875 -51.96875 -14.554688 -51.8125 -13.796875 L -32.234375 -13.796875 Z M -32.234375 -18.0625 "/>
</g>
<g xmlns="http://www.w3.org/2000/svg" id="glyph-91-0">
<path d="M 51.484375 44.09375 L 51.484375 26.1875 L 0 26.1875 L 0 19.375 L 51.484375 19.375 L 51.484375 1.484375 L 57.5625 1.484375 L 57.5625 44.09375 Z M 51.484375 44.09375 "/>
</g>
</defs>
<g xmlns="http://www.w3.org/2000/svg" fill="rgb(10.572815%, 9.655762%, 10.258484%)" fill-opacity="1"><use xmlns:xlink="http://www.w3.org/1999/xlink" xlink:href="#glyph-53-7" x="8007.312853" y="685.5489"/></g>
<g xmlns="http://www.w3.org/2000/svg" fill="rgb(10.572815%, 9.655762%, 10.258484%)" fill-opacity="1"><use xmlns:xlink="http://www.w3.org/1999/xlink" xlink:href="#glyph-53-8" x="8575.303151" y="1213.681146"/></g>
<path xmlns="http://www.w3.org/2000/svg" fill-rule="nonzero" fill="rgb(1.818848%, 10.862732%, 17.320251%)" fill-opacity="1" d="M 8454.667969 1051.46875 C 8454.667969 1189.535156 8342.734375 1301.480469 8204.667969 1301.480469 C 8066.59375 1301.480469 7954.667969 1189.535156 7954.667969 1051.46875 C 7954.667969 913.414062 8066.59375 801.480469 8204.667969 801.480469 C 8342.734375 801.480469 8454.667969 913.414062 8454.667969 1051.46875 "/>
<path xmlns="http://www.w3.org/2000/svg" fill-rule="nonzero" fill="rgb(1.818848%, 10.862732%, 17.320251%)" fill-opacity="1" d="M 8204.667969 1082.941406 C 8187.320312 1082.941406 8173.203125 1068.828125 8173.203125 1051.480469 C 8173.203125 1034.136719 8187.320312 1020.023438 8204.667969 1020.023438 C 8222.019531 1020.023438 8236.132812 1034.136719 8236.132812 1051.480469 C 8236.132812 1068.828125 8222.019531 1082.941406 8204.667969 1082.941406 "/>
<g xmlns="http://www.w3.org/2000/svg" fill="rgb(96.595764%, 67.408752%, 16.53595%)" fill-opacity="1"><use xmlns:xlink="http://www.w3.org/1999/xlink" xlink:href="#glyph-88-0" x="8178.8428" y="893.8888"/></g>
<g xmlns="http://www.w3.org/2000/svg" fill="rgb(100%, 100%, 100%)" fill-opacity="1"><use xmlns:xlink="http://www.w3.org/1999/xlink" xlink:href="#glyph-89-0" x="8226.3877" y="1212.9513"/></g>
<g xmlns="http://www.w3.org/2000/svg" fill="rgb(100%, 100%, 100%)" fill-opacity="1"><use xmlns:xlink="http://www.w3.org/1999/xlink" xlink:href="#glyph-90-0" x="8044.9229" y="1072.5148"/></g>
<g xmlns="http://www.w3.org/2000/svg" fill="rgb(100%, 100%, 100%)" fill-opacity="1"><use xmlns:xlink="http://www.w3.org/1999/xlink" xlink:href="#glyph-91-0" x="8363.6768" y="1029.2677"/></g>
</svg>
