<?xml version="1.0" encoding="UTF-8"?>
<svg xmlns="http://www.w3.org/2000/svg" xmlns:xlink="http://www.w3.org/1999/xlink" viewBox="4756.785 0 2378.3925 1681.72" width="2378.3925" height="1681.72">
<path xmlns="http://www.w3.org/2000/svg" fill="none" stroke-width="15" stroke-linecap="butt" stroke-linejoin="miter" stroke="rgb(42.337036%, 77.964783%, 45.454407%)" stroke-opacity="1" stroke-miterlimit="10" d="M 0.000525 -0.00039375 L -343.245569 -0.00039375 C -370.862756 -0.00039375 -393.245569 22.386325 -393.245569 49.999606 L -387.878381 75.288669 L -387.878381 119.538669 C -387.878381 158.198825 -419.218225 189.538669 -457.878381 189.538669 L -1179.878381 189.538669 L -1132.476038 189.538669 C -1086.581506 189.538669 -1049.378381 152.335544 -1049.378381 106.441013 L -1049.378381 -256.937894 C -1049.378381 -307.769925 -1008.167444 -348.980862 -957.335413 -348.980862 L 1481.621619 -348.980862 C 1520.281775 -348.980862 1551.621619 -380.320706 1551.621619 -418.980862 L 1551.621619 -801.328519 " transform="matrix(1, 0, 0, -1, 3526.0776, 1568.8082)"/>
<path xmlns="http://www.w3.org/2000/svg" fill="none" stroke-width="15" stroke-linecap="butt" stroke-linejoin="miter" stroke="rgb(42.337036%, 77.964783%, 45.454407%)" stroke-opacity="1" stroke-miterlimit="10" d="M -0.00095 0.00063125 L 337.069362 0.00063125 C 369.913112 0.00063125 396.542019 26.625631 396.542019 59.469381 L 396.542019 876.567037 C 396.542019 916.813131 363.913112 949.442037 323.667019 949.442037 L 119.682644 949.442037 " transform="matrix(1, 0, 0, -1, 6019.1572, 2395.7936)"/>
<path xmlns="http://www.w3.org/2000/svg" fill="none" stroke-width="15" stroke-linecap="butt" stroke-linejoin="miter" stroke="rgb(79.408264%, 34.082031%, 16.569519%)" stroke-opacity="1" stroke-miterlimit="10" d="M -0.00048125 0.0018 L -0.00048125 1517.544769 " transform="matrix(1, 0, 0, -1, 5100.1997, 3081.3143)"/>
<path xmlns="http://www.w3.org/2000/svg" fill="none" stroke-width="15" stroke-linecap="butt" stroke-linejoin="miter" stroke="rgb(56.92749%, 10.435486%, 16.130066%)" stroke-opacity="1" stroke-miterlimit="10" d="M -0.00099375 -0.00088125 L 2.96385 -0.00088125 C 52.694319 -0.00088125 93.010725 40.315525 93.010725 90.045994 L 93.010725 1051.335056 C 93.010725 1072.780369 110.393537 1090.163181 131.834944 1090.163181 L 846.737287 1090.163181 C 902.018537 1090.163181 946.834944 1134.979588 946.834944 1190.260838 L 946.834944 1286.374119 " transform="matrix(1, 0, 0, -1, 5030.1924, 2780.7374)"/>
<path xmlns="http://www.w3.org/2000/svg" fill="none" stroke-width="15" stroke-linecap="butt" stroke-linejoin="miter" stroke="rgb(56.92749%, 10.435486%, 16.130066%)" stroke-opacity="1" stroke-miterlimit="10" d="M -0.00048125 0.0006 L -0.00048125 708.785756 L -1.465325 833.141225 C -1.781731 860.070913 8.776862 885.988881 27.819831 905.03185 L 190.878425 1068.090444 C 212.226081 1089.4381 224.179206 1118.422475 224.089362 1148.613881 L 224.085456 1149.758413 L 223.390144 1248.586538 L 223.390144 3558.606069 C 223.390144 3612.6256 179.597175 3656.418569 125.573737 3656.418569 L -72.000481 3656.418569 " transform="matrix(1, 0, 0, -1, 6216.1997, 5076.1881)"/>
<path xmlns="http://www.w3.org/2000/svg" fill="none" stroke-width="25" stroke-linecap="butt" stroke-linejoin="miter" stroke="rgb(31.402588%, 76.568604%, 94.60907%)" stroke-opacity="1" stroke-miterlimit="10" d="M 0.0005375 -0.0004125 L -79.311962 -0.0004125 C -150.972119 -0.0004125 -209.061962 58.093338 -209.061962 129.753494 L -209.503369 354.804275 C -209.604931 406.6949 -230.261181 456.429275 -266.952587 493.116775 L -690.8979 917.062088 C -728.604931 954.769119 -749.80415 1005.901931 -749.843212 1059.22615 L -750.261181 1626.91365 L -750.261181 1698.015213 C -750.261181 1809.741775 -840.831494 1900.312088 -952.558056 1900.312088 L -1024.292431 1900.312088 C -1160.577587 1900.312088 -1271.05415 2010.792556 -1271.05415 2147.073806 L -1271.05415 2468.456619 C -1271.05415 2562.386306 -1347.202587 2638.534744 -1441.132275 2638.534744 L -2929.183056 2638.534744 C -3023.112744 2638.534744 -3099.261181 2562.386306 -3099.261181 2468.456619 L -3099.261181 1187.925369 " transform="matrix(1, 0, 0, -1, 6057.4604, 4119.6949)"/>
<path xmlns="http://www.w3.org/2000/svg" fill="none" stroke-width="25" stroke-linecap="butt" stroke-linejoin="miter" stroke="rgb(93.395996%, 19.972229%, 63.879395%)" stroke-opacity="1" stroke-miterlimit="10" d="M -0.00025625 0.00063125 L 1953.605212 0.00063125 C 2064.757556 0.00063125 2154.866931 90.1061 2154.866931 201.258444 L 2154.866931 284.469381 " transform="matrix(1, 0, 0, -1, 3909.5901, 1779.2936)"/>
<path xmlns="http://www.w3.org/2000/svg" fill-rule="nonzero" fill="rgb(94.032288%, 19.900513%, 63.874817%)" fill-opacity="1" d="M 6064.457031 1472.824219 C 6052.324219 1472.824219 6042.457031 1482.695312 6042.457031 1494.824219 C 6042.457031 1506.957031 6052.324219 1516.824219 6064.457031 1516.824219 C 6076.585938 1516.824219 6086.457031 1506.957031 6086.457031 1494.824219 C 6086.457031 1482.695312 6076.585938 1472.824219 6064.457031 1472.824219 M 6064.457031 1476.824219 C 6074.398438 1476.824219 6082.457031 1484.886719 6082.457031 1494.824219 C 6082.457031 1504.765625 6074.398438 1512.824219 6064.457031 1512.824219 C 6054.515625 1512.824219 6046.457031 1504.765625 6046.457031 1494.824219 C 6046.457031 1484.886719 6054.515625 1476.824219 6064.457031 1476.824219 "/>
<path xmlns="http://www.w3.org/2000/svg" fill-rule="nonzero" fill="rgb(79.408264%, 34.082031%, 16.569519%)" fill-opacity="1" d="M 5191.710938 1628.246094 L 5148.457031 1628.246094 C 5136.863281 1628.246094 5127.464844 1618.851562 5127.464844 1607.257812 C 5127.464844 1595.664062 5136.863281 1586.269531 5148.457031 1586.269531 L 5191.710938 1586.269531 C 5203.300781 1586.269531 5212.699219 1595.664062 5212.699219 1607.257812 C 5212.699219 1618.851562 5203.300781 1628.246094 5191.710938 1628.246094 "/>
<path xmlns="http://www.w3.org/2000/svg" fill-rule="nonzero" fill="rgb(56.92749%, 10.435486%, 16.130066%)" fill-opacity="1" d="M 6190.710938 1618.207031 L 6147.457031 1618.207031 C 6135.863281 1618.207031 6126.464844 1608.8125 6126.464844 1597.21875 C 6126.464844 1585.628906 6135.863281 1576.230469 6147.457031 1576.230469 L 6190.710938 1576.230469 C 6202.300781 1576.230469 6211.699219 1585.628906 6211.699219 1597.21875 C 6211.699219 1608.8125 6202.300781 1618.207031 6190.710938 1618.207031 "/>
<path xmlns="http://www.w3.org/2000/svg" fill-rule="nonzero" fill="rgb(42.337036%, 77.964783%, 45.454407%)" fill-opacity="1" d="M 6280.542969 1713.875 L 6237.289062 1713.875 C 6225.695312 1713.875 6216.296875 1704.480469 6216.296875 1692.886719 C 6216.296875 1681.292969 6225.695312 1671.898438 6237.289062 1671.898438 L 6280.542969 1671.898438 C 6292.136719 1671.898438 6301.53125 1681.292969 6301.53125 1692.886719 C 6301.53125 1704.480469 6292.136719 1713.875 6280.542969 1713.875 "/>
<path xmlns="http://www.w3.org/2000/svg" fill-rule="nonzero" fill="rgb(56.92749%, 10.435486%, 16.130066%)" fill-opacity="1" d="M 6280.542969 1618.871094 L 6237.289062 1618.871094 C 6225.695312 1618.871094 6216.296875 1609.472656 6216.296875 1597.878906 C 6216.296875 1586.289062 6225.695312 1576.890625 6237.289062 1576.890625 L 6280.542969 1576.890625 C 6292.136719 1576.890625 6301.53125 1586.289062 6301.53125 1597.878906 C 6301.53125 1609.472656 6292.136719 1618.871094 6280.542969 1618.871094 "/>
<path xmlns="http://www.w3.org/2000/svg" fill-rule="nonzero" fill="rgb(56.92749%, 10.435486%, 16.130066%)" fill-opacity="1" d="M 6280.542969 1665.871094 L 6237.289062 1665.871094 C 6225.695312 1665.871094 6216.296875 1656.476562 6216.296875 1644.882812 C 6216.296875 1633.292969 6225.695312 1623.894531 6237.289062 1623.894531 L 6280.542969 1623.894531 C 6292.136719 1623.894531 6301.53125 1633.292969 6301.53125 1644.882812 C 6301.53125 1656.476562 6292.136719 1665.871094 6280.542969 1665.871094 "/>
<path xmlns="http://www.w3.org/2000/svg" fill-rule="nonzero" fill="rgb(90.957642%, 6.632996%, 57.745361%)" fill-opacity="1" d="M 6063.871094 1282.601562 C 6038.453125 1282.601562 6017.777344 1303.277344 6017.777344 1328.691406 C 6017.777344 1354.109375 6038.453125 1374.789062 6063.871094 1374.789062 C 6089.285156 1374.789062 6109.964844 1354.109375 6109.964844 1328.691406 C 6109.964844 1303.277344 6089.285156 1282.601562 6063.871094 1282.601562 M 6063.871094 1295.101562 C 6082.421875 1295.101562 6097.464844 1310.140625 6097.464844 1328.691406 C 6097.464844 1347.246094 6082.421875 1362.289062 6063.871094 1362.289062 C 6045.316406 1362.289062 6030.277344 1347.246094 6030.277344 1328.691406 C 6030.277344 1310.140625 6045.316406 1295.101562 6063.871094 1295.101562 "/>
</svg>
