<?xml version="1.0" encoding="UTF-8"?>
<svg xmlns="http://www.w3.org/2000/svg" xmlns:xlink="http://www.w3.org/1999/xlink" viewBox="7135.1775 5045.16 2378.3925 1681.72" width="2378.3925" height="1681.72">
<defs>
<clipPath xmlns="http://www.w3.org/2000/svg" id="clip-2692">
<path clip-rule="nonzero" d="M 0 626 L 8627 626 L 8627 6726.878906 L 0 6726.878906 Z M 0 626 "/>
</clipPath>
<clipPath xmlns="http://www.w3.org/2000/svg" id="clip-2693">
<path clip-rule="nonzero" d="M 0 626 L 8628 626 L 8628 6726.878906 L 0 6726.878906 Z M 0 626 "/>
</clipPath>
</defs>
<path xmlns="http://www.w3.org/2000/svg" fill-rule="nonzero" fill="rgb(96.369934%, 96.783447%, 96.252441%)" fill-opacity="1" d="M 8553.738281 6718.390625 L 76.574219 6718.390625 L 76.574219 769.433594 L 8553.738281 769.433594 Z M 8553.738281 6718.390625 "/>
<path xmlns="http://www.w3.org/2000/svg" fill-rule="nonzero" fill="rgb(100%, 100%, 100%)" fill-opacity="1" stroke-width="22.677" stroke-linecap="butt" stroke-linejoin="miter" stroke="rgb(78.347778%, 79.615784%, 79.621887%)" stroke-opacity="1" stroke-miterlimit="10" d="M -0.00144375 0.0006375 L -0.00144375 -2241.573581 C -0.00144375 -2343.350925 -82.50535 -2425.858737 -184.282694 -2425.858737 L -5203.978006 -2425.858737 C -5305.75535 -2425.858737 -5388.259256 -2343.350925 -5388.259256 -2241.573581 L -5388.259256 -1509.389987 C -5388.259256 -1407.612644 -5470.767069 -1325.108737 -5572.544413 -1325.108737 L -6282.556131 -1325.108737 C -6384.333475 -1325.108737 -6466.841288 -1242.600925 -6466.841288 -1140.823581 L -6466.841288 -729.483737 C -6466.841288 -680.608737 -6486.25535 -633.733737 -6520.81785 -599.175144 L -6656.075663 -463.917331 C -6690.634256 -429.354831 -6710.052225 -382.483737 -6710.052225 -333.608737 L -6710.052225 1191.942044 C -6710.052225 1257.574856 -6675.142069 1318.25845 -6618.403788 1351.250638 L -5760.173319 1850.293606 C -5703.431131 1883.285794 -5668.524881 1943.965481 -5668.524881 2009.6022 L -5668.524881 2484.336575 C -5668.524881 2586.024075 -5586.157694 2668.492825 -5484.470194 2668.621731 L -184.513163 2675.281888 C -82.645975 2675.406888 -0.00144375 2592.863919 -0.00144375 2490.996731 L -0.00144375 996.524075 C -0.00144375 958.016263 15.295431 921.082669 42.5259 893.8522 L 213.064962 723.317044 C 240.236837 696.145169 255.502462 659.2897 255.502462 620.860013 L 255.502462 400.863919 C 255.502462 354.121731 236.936056 309.293606 203.881369 276.242825 L 51.943869 124.301419 C 18.951681 91.313138 0.291525 46.652981 -0.00144375 0.0006375 Z M -0.00144375 0.0006375 " transform="matrix(1, 0, 0, -1, 7626.8491, 3705.3522)"/>
<path xmlns="http://www.w3.org/2000/svg" fill-rule="nonzero" fill="rgb(78.900146%, 91.56189%, 65.628052%)" fill-opacity="1" d="M 7134.828125 5598.59375 C 7135.003906 5598.289062 7135.8125 5598.238281 7136.203125 5598.675781 C 7136.578125 5599.097656 7136.472656 5599.863281 7136.160156 5600.007812 C 7135.878906 5600.144531 7135.441406 5599.742188 7135.328125 5599.632812 C 7135.078125 5599.402344 7134.664062 5598.882812 7134.828125 5598.59375 "/>
<path xmlns="http://www.w3.org/2000/svg" fill-rule="nonzero" fill="rgb(78.900146%, 91.56189%, 65.628052%)" fill-opacity="1" d="M 7135.871094 5584.382812 C 7135.742188 5584.128906 7134.898438 5584.09375 7134.410156 5584.550781 C 7134.011719 5584.929688 7133.855469 5585.617188 7134.160156 5586.007812 C 7134.292969 5586.175781 7134.53125 5586.359375 7134.746094 5586.300781 C 7134.960938 5586.246094 7135 5585.984375 7135.214844 5585.535156 C 7135.601562 5584.730469 7135.960938 5584.570312 7135.871094 5584.382812 "/>
<path xmlns="http://www.w3.org/2000/svg" fill-rule="nonzero" fill="rgb(78.900146%, 91.56189%, 65.628052%)" fill-opacity="1" d="M 7135.703125 5586.175781 C 7135.390625 5585.804688 7135.570312 5585.101562 7135.871094 5585.007812 C 7136.085938 5584.945312 7136.367188 5585.195312 7136.496094 5585.425781 C 7136.664062 5585.734375 7136.683594 5586.230469 7136.410156 5586.382812 C 7136.199219 5586.507812 7135.871094 5586.375 7135.703125 5586.175781 "/>
<path xmlns="http://www.w3.org/2000/svg" fill-rule="nonzero" fill="rgb(78.900146%, 91.56189%, 65.628052%)" fill-opacity="1" d="M 7137.246094 5584.632812 C 7137.523438 5584.542969 7137.871094 5584.648438 7137.996094 5584.882812 C 7138.167969 5585.21875 7137.867188 5585.757812 7137.453125 5585.800781 C 7137.183594 5585.832031 7136.855469 5585.65625 7136.785156 5585.34375 C 7136.714844 5585.019531 7136.96875 5584.726562 7137.246094 5584.632812 "/>
<path xmlns="http://www.w3.org/2000/svg" fill-rule="nonzero" fill="rgb(78.900146%, 91.56189%, 65.628052%)" fill-opacity="1" d="M 7149.910156 5588.46875 C 7149.769531 5588.472656 7149.65625 5588.792969 7149.621094 5589.007812 C 7149.492188 5589.773438 7150.121094 5590.578125 7150.324219 5590.511719 C 7150.519531 5590.449219 7150.375 5589.554688 7150.363281 5589.488281 C 7150.296875 5589.105469 7150.113281 5588.460938 7149.910156 5588.46875 "/>
<path xmlns="http://www.w3.org/2000/svg" fill-rule="nonzero" fill="rgb(78.900146%, 91.56189%, 65.628052%)" fill-opacity="1" d="M 7156.371094 5579.757812 C 7156.222656 5579.699219 7155.980469 5579.914062 7155.871094 5580.09375 C 7155.832031 5580.152344 7155.679688 5580.402344 7155.785156 5580.675781 C 7155.875 5580.90625 7156.125 5581.105469 7156.285156 5581.050781 C 7156.597656 5580.949219 7156.640625 5579.875 7156.371094 5579.757812 "/>
<path xmlns="http://www.w3.org/2000/svg" fill-rule="nonzero" fill="rgb(78.900146%, 91.56189%, 65.628052%)" fill-opacity="1" d="M 7157.203125 5580.09375 C 7157.449219 5579.90625 7157.894531 5579.738281 7158.160156 5579.925781 C 7158.347656 5580.058594 7158.375 5580.3125 7158.410156 5580.675781 C 7158.476562 5581.324219 7158.296875 5581.53125 7158.453125 5581.71875 C 7158.695312 5582.007812 7159.285156 5581.703125 7159.453125 5581.96875 C 7159.5625 5582.144531 7159.449219 5582.492188 7159.246094 5582.59375 C 7158.96875 5582.730469 7158.738281 5582.3125 7158.121094 5582.300781 C 7157.796875 5582.296875 7157.65625 5582.40625 7157.535156 5582.300781 C 7157.355469 5582.140625 7157.59375 5581.820312 7157.410156 5581.507812 C 7157.238281 5581.210938 7156.90625 5581.3125 7156.785156 5581.050781 C 7156.652344 5580.765625 7156.902344 5580.324219 7157.203125 5580.09375 "/>
<path xmlns="http://www.w3.org/2000/svg" fill-rule="nonzero" fill="rgb(78.900146%, 91.56189%, 65.628052%)" fill-opacity="1" d="M 7156.410156 5581.550781 C 7156.128906 5581.570312 7155.867188 5581.964844 7155.953125 5582.21875 C 7156.066406 5582.558594 7156.804688 5582.617188 7156.953125 5582.382812 C 7157.097656 5582.160156 7156.78125 5581.527344 7156.410156 5581.550781 "/>
<path xmlns="http://www.w3.org/2000/svg" fill-rule="nonzero" fill="rgb(78.900146%, 91.56189%, 65.628052%)" fill-opacity="1" d="M 7161.660156 5596.132812 C 7161.425781 5595.96875 7161.042969 5596.179688 7160.746094 5596.34375 C 7160.324219 5596.574219 7159.992188 5596.898438 7160.035156 5596.96875 C 7160.082031 5597.042969 7160.460938 5596.761719 7160.746094 5596.925781 C 7160.925781 5597.03125 7160.886719 5597.203125 7161.035156 5597.257812 C 7161.292969 5597.355469 7161.816406 5596.988281 7161.828125 5596.550781 C 7161.832031 5596.5 7161.832031 5596.253906 7161.660156 5596.132812 "/>
<path xmlns="http://www.w3.org/2000/svg" fill-rule="nonzero" fill="rgb(78.900146%, 91.56189%, 65.628052%)" fill-opacity="1" d="M 7172.535156 5582.425781 C 7172.480469 5582.523438 7172.855469 5582.972656 7173.171875 5582.914062 C 7173.402344 5582.871094 7173.363281 5582.609375 7173.703125 5582.382812 C 7174.0625 5582.148438 7174.578125 5582.132812 7174.578125 5582.132812 C 7174.578125 5582.132812 7174.4375 5582.53125 7174.285156 5582.675781 C 7173.871094 5583.078125 7172.628906 5582.273438 7172.535156 5582.425781 "/>
<path xmlns="http://www.w3.org/2000/svg" fill-rule="nonzero" fill="rgb(78.900146%, 91.56189%, 65.628052%)" fill-opacity="1" d="M 7140.339844 5620.300781 C 7140.328125 5620.304688 7140.074219 5620.40625 7140.058594 5620.582031 C 7140.042969 5620.714844 7140.179688 5620.757812 7140.371094 5621.050781 C 7140.527344 5621.296875 7140.515625 5621.386719 7140.621094 5621.425781 C 7140.808594 5621.496094 7141.054688 5621.269531 7141.121094 5621.207031 C 7141.296875 5621.042969 7141.367188 5620.867188 7141.496094 5620.550781 C 7141.570312 5620.363281 7141.609375 5620.21875 7141.683594 5619.925781 C 7141.792969 5619.492188 7141.769531 5619.449219 7141.746094 5619.425781 C 7141.660156 5619.359375 7141.398438 5619.480469 7141.246094 5619.675781 C 7141.039062 5619.945312 7141.164062 5620.195312 7140.996094 5620.300781 C 7140.820312 5620.414062 7140.632812 5620.1875 7140.339844 5620.300781 "/>
<path xmlns="http://www.w3.org/2000/svg" fill-rule="nonzero" fill="rgb(78.900146%, 91.56189%, 65.628052%)" fill-opacity="1" d="M 7134.371094 5633.488281 C 7134.21875 5633.386719 7134.234375 5632.9375 7134.464844 5632.707031 C 7134.722656 5632.445312 7135.027344 5632.691406 7135.496094 5632.519531 C 7136.238281 5632.25 7136.339844 5631.304688 7136.714844 5631.363281 C 7136.960938 5631.402344 7137.113281 5631.839844 7137.121094 5631.863281 C 7137.164062 5631.996094 7137.207031 5632.121094 7137.152344 5632.238281 C 7137.0625 5632.429688 7136.808594 5632.394531 7136.402344 5632.550781 C 7136.222656 5632.621094 7136.304688 5632.613281 7135.746094 5632.925781 C 7135.746094 5632.925781 7135.398438 5633.121094 7134.839844 5633.363281 C 7134.5 5633.511719 7134.425781 5633.527344 7134.371094 5633.488281 "/>
<path xmlns="http://www.w3.org/2000/svg" fill-rule="nonzero" fill="rgb(78.900146%, 91.56189%, 65.628052%)" fill-opacity="1" d="M 7136.714844 5630.363281 C 7136.554688 5630.144531 7136.816406 5629.550781 7137.183594 5629.519531 C 7137.324219 5629.507812 7137.492188 5629.582031 7137.558594 5629.707031 C 7137.6875 5629.957031 7137.425781 5630.390625 7137.089844 5630.457031 C 7137.078125 5630.460938 7136.816406 5630.507812 7136.714844 5630.363281 "/>
<path xmlns="http://www.w3.org/2000/svg" fill-rule="nonzero" fill="rgb(78.900146%, 91.56189%, 65.628052%)" fill-opacity="1" d="M 7168.308594 5617.738281 C 7168.523438 5617.554688 7168.957031 5617.6875 7169.183594 5617.925781 C 7169.523438 5618.289062 7169.460938 5618.976562 7169.183594 5619.113281 C 7168.949219 5619.230469 7168.558594 5618.964844 7168.371094 5618.675781 C 7168.199219 5618.410156 7168.074219 5617.9375 7168.308594 5617.738281 "/>
<path xmlns="http://www.w3.org/2000/svg" fill-rule="nonzero" fill="rgb(86.732483%, 87.09259%, 86.03363%)" fill-opacity="1" d="M 6897.851562 5080.867188 C 6897.894531 5083.613281 6895.679688 5085.898438 6892.929688 5085.9375 L 6724.261719 5088.378906 C 6721.511719 5088.417969 6717.667969 5090.039062 6715.722656 5091.980469 L 6696.917969 5110.730469 C 6694.972656 5112.671875 6693.414062 5116.511719 6693.457031 5119.261719 L 6693.949219 5150.917969 C 6693.992188 5153.667969 6696.273438 5155.882812 6699.023438 5155.84375 L 6862.726562 5153.472656 C 6865.476562 5153.433594 6867.761719 5155.652344 6867.804688 5158.402344 L 6868.636719 5212.171875 C 6868.679688 5214.921875 6870.964844 5217.136719 6873.714844 5217.097656 L 7280.445312 5211.207031 C 7283.195312 5211.167969 7287.414062 5210.050781 7289.824219 5208.71875 L 7450.683594 5119.945312 C 7453.09375 5118.617188 7455.027344 5115.28125 7454.988281 5112.53125 L 7454.816406 5101.5 C 7454.773438 5098.75 7453.097656 5094.960938 7451.09375 5093.078125 L 7411.628906 5056.007812 C 7409.625 5054.128906 7408.390625 5050.375 7408.886719 5047.667969 L 7441.777344 4867.875 C 7442.273438 4865.171875 7440.425781 4862.992188 7437.675781 4863.03125 L 7285.097656 4865.238281 C 7282.347656 4865.28125 7278.507812 4866.902344 7276.558594 4868.84375 L 7242.015625 4903.289062 C 7240.070312 4905.230469 7238.511719 4909.066406 7238.550781 4911.816406 L 7238.886719 4933.359375 C 7238.929688 4936.109375 7240.601562 4939.898438 7242.609375 4941.78125 L 7255.894531 4954.265625 C 7257.902344 4956.148438 7257.949219 4959.277344 7256 4961.21875 L 7248.621094 4968.578125 C 7246.671875 4970.519531 7242.828125 4972.140625 7240.078125 4972.183594 L 7178.90625 4973.066406 C 7176.15625 4973.105469 7172.265625 4971.597656 7170.261719 4969.714844 L 7132.855469 4934.582031 C 7130.851562 4932.699219 7127.617188 4932.746094 7125.667969 4934.691406 L 7060.457031 4999.71875 C 7058.511719 5001.660156 7054.667969 5003.28125 7051.917969 5003.320312 L 6901.6875 5005.496094 C 6898.9375 5005.535156 6896.722656 5007.820312 6896.765625 5010.570312 Z M 6897.851562 5080.867188 "/>
<path xmlns="http://www.w3.org/2000/svg" fill-rule="nonzero" fill="rgb(100%, 100%, 100%)" fill-opacity="1" d="M 7052.628906 5048.839844 C 7059.117188 5049 7065.613281 5048.8125 7072.105469 5048.734375 C 7073.777344 5048.714844 7073.898438 5049.679688 7073.894531 5050.929688 C 7073.878906 5054.40625 7074.378906 5057.941406 7073.855469 5061.335938 C 7073.199219 5065.597656 7075.539062 5068.066406 7078.25 5070.621094 C 7082.957031 5075.070312 7087.621094 5079.554688 7092.289062 5084.042969 C 7099.222656 5090.707031 7106.140625 5097.390625 7113.066406 5104.0625 C 7113.128906 5104.121094 7113.238281 5104.148438 7113.28125 5104.214844 C 7117.082031 5110.195312 7123.015625 5109.851562 7129.160156 5109.523438 C 7134.277344 5109.25 7139.433594 5109.648438 7144.574219 5109.628906 C 7149.769531 5109.613281 7154.964844 5109.402344 7160.160156 5109.375 C 7166.820312 5109.335938 7173.480469 5109.433594 7180.140625 5109.410156 C 7187.09375 5109.386719 7194.046875 5109.300781 7201 5109.222656 C 7206.148438 5109.167969 7211.296875 5109.066406 7216.445312 5109.015625 C 7223.898438 5108.949219 7231.347656 5108.855469 7238.796875 5108.875 C 7248.679688 5108.90625 7258.5625 5109.109375 7268.441406 5109.09375 C 7276.769531 5109.085938 7285.097656 5108.703125 7293.417969 5108.796875 C 7301.398438 5108.890625 7309.375 5108.847656 7317.355469 5108.828125 C 7325.351562 5108.8125 7333.359375 5109.199219 7341.34375 5108.902344 C 7350.476562 5108.566406 7359.59375 5108.972656 7368.710938 5108.867188 C 7373.285156 5108.816406 7377.867188 5108.699219 7382.441406 5108.554688 C 7387.921875 5108.382812 7390.066406 5106.644531 7391.050781 5100.644531 C 7391.933594 5095.222656 7395.070312 5092.875 7400.09375 5091.128906 C 7405.675781 5089.1875 7410.039062 5090.734375 7414.109375 5093.960938 C 7416.351562 5095.734375 7417.578125 5098.152344 7417.683594 5101.265625 C 7417.851562 5106.167969 7418.761719 5111.039062 7419.105469 5115.9375 C 7419.300781 5118.640625 7420.085938 5119.335938 7416.0625 5119.257812 C 7410.382812 5119.144531 7404.679688 5118.902344 7399.023438 5119.265625 C 7390.621094 5119.808594 7382.21875 5119.503906 7373.820312 5119.675781 C 7366.886719 5119.816406 7359.941406 5119.839844 7353 5119.945312 C 7342.292969 5120.105469 7331.566406 5119.632812 7320.878906 5120.082031 C 7309.589844 5120.550781 7298.308594 5120.070312 7287.027344 5120.628906 C 7279.140625 5121.019531 7271.234375 5121.019531 7263.335938 5121.089844 C 7253.871094 5121.175781 7244.394531 5120.921875 7234.941406 5121.261719 C 7229.671875 5121.449219 7224.394531 5121.257812 7219.136719 5121.6875 C 7216.335938 5121.914062 7212.570312 5126.558594 7212.773438 5129.449219 C 7213.050781 5133.386719 7213.121094 5133.34375 7217.300781 5133.238281 C 7226.492188 5133.007812 7235.6875 5132.871094 7244.878906 5132.746094 C 7246.714844 5132.71875 7247.859375 5134.257812 7249.050781 5135.195312 C 7255.648438 5140.390625 7262.585938 5145.144531 7269.265625 5150.230469 C 7270.734375 5151.351562 7271.34375 5152.613281 7271.023438 5154.457031 C 7270.558594 5157.128906 7270.28125 5159.835938 7269.984375 5162.535156 C 7269.664062 5165.484375 7270.167969 5168.152344 7272.921875 5169.988281 C 7273.203125 5170.171875 7273.394531 5170.496094 7273.59375 5170.777344 C 7276.675781 5175.175781 7281.089844 5176.628906 7286.410156 5176.648438 C 7292.058594 5176.667969 7292.070312 5176.851562 7291.730469 5182.382812 C 7291.667969 5183.390625 7291.46875 5184.394531 7291.355469 5185.402344 C 7291.175781 5186.960938 7290.195312 5187.28125 7288.742188 5187.1875 C 7279.371094 5186.582031 7270 5185.957031 7260.621094 5185.5 C 7258.628906 5185.402344 7257.996094 5184.992188 7258.34375 5182.992188 C 7258.777344 5180.472656 7258.875 5177.902344 7259.046875 5175.34375 C 7259.117188 5174.296875 7259.476562 5173.808594 7260.644531 5173.84375 C 7262.792969 5173.910156 7263.578125 5172.332031 7263.859375 5170.734375 C 7264.578125 5166.621094 7265.082031 5162.472656 7265.640625 5158.335938 C 7265.964844 5155.949219 7264.273438 5154.472656 7262.710938 5153.171875 C 7258.171875 5149.382812 7253.4375 5145.8125 7248.878906 5142.046875 C 7247.457031 5140.871094 7245.710938 5140.675781 7244.1875 5139.949219 C 7236.105469 5136.109375 7227.679688 5138.382812 7219.390625 5138.3125 C 7218.066406 5138.300781 7216.714844 5138.488281 7215.414062 5138.320312 C 7213.503906 5138.066406 7213.132812 5138.851562 7213.101562 5140.523438 C 7212.980469 5146.871094 7212.699219 5153.21875 7212.503906 5159.566406 C 7212.261719 5167.433594 7212.023438 5175.300781 7211.828125 5183.167969 C 7211.796875 5184.546875 7211.320312 5185.15625 7209.796875 5185.160156 C 7203.058594 5185.164062 7196.324219 5185.230469 7189.585938 5185.328125 C 7182.726562 5185.429688 7175.867188 5185.65625 7169.003906 5185.722656 C 7162.441406 5185.785156 7155.878906 5185.660156 7149.320312 5185.714844 C 7143.34375 5185.769531 7137.371094 5185.996094 7131.398438 5186.070312 C 7125.191406 5186.148438 7118.980469 5186.128906 7112.773438 5186.171875 C 7111.546875 5186.183594 7110.308594 5186.226562 7109.09375 5186.382812 C 7107.039062 5186.648438 7106.253906 5185.625 7106.320312 5183.855469 C 7106.660156 5174.699219 7106.597656 5165.539062 7106.460938 5156.382812 C 7106.445312 5155.414062 7106.820312 5155.019531 7107.792969 5154.894531 C 7113.554688 5154.148438 7117.105469 5150.273438 7117.191406 5144.695312 C 7117.253906 5140.398438 7117.257812 5140.375 7112.667969 5140.292969 C 7104.65625 5140.148438 7096.640625 5139.957031 7088.628906 5139.964844 C 7086.8125 5139.964844 7085.015625 5140.34375 7083.144531 5140.140625 C 7081.242188 5139.933594 7080.542969 5141.175781 7080.546875 5142.902344 C 7080.582031 5151.421875 7080.582031 5159.945312 7080.628906 5168.46875 C 7080.636719 5169.660156 7080.203125 5170.160156 7078.933594 5170.140625 C 7070.941406 5170.027344 7062.945312 5169.902344 7054.953125 5169.910156 C 7053.335938 5169.914062 7052.96875 5169.289062 7052.988281 5167.984375 C 7053.058594 5163.429688 7053.125 5158.878906 7053.179688 5154.328125 C 7053.1875 5153.542969 7053.429688 5152.921875 7054.351562 5153.023438 C 7057.730469 5153.394531 7061.101562 5152.871094 7064.496094 5153.082031 C 7068.058594 5153.308594 7071.65625 5153.03125 7075.242188 5153.242188 C 7076.578125 5153.320312 7077.316406 5152.402344 7077.449219 5151.125 C 7077.730469 5148.347656 7078.082031 5145.550781 7077.492188 5142.785156 C 7077.085938 5140.855469 7075.945312 5139.734375 7073.625 5139.789062 C 7062.460938 5140.042969 7051.292969 5140.207031 7040.128906 5140.363281 C 7035.332031 5140.429688 7030.535156 5140.363281 7025.738281 5140.429688 C 7018.625 5140.53125 7011.515625 5140.867188 7004.40625 5140.785156 C 6998.988281 5140.722656 6993.574219 5140.710938 6988.15625 5140.824219 C 6979.796875 5140.996094 6971.4375 5141.082031 6963.074219 5141.160156 C 6957.746094 5141.214844 6952.414062 5141.078125 6947.089844 5141.222656 C 6931.125 5141.664062 6915.148438 5141.21875 6899.183594 5141.914062 C 6892.535156 5142.203125 6885.859375 5141.863281 6879.199219 5141.9375 C 6865.96875 5142.082031 6852.730469 5142.554688 6839.503906 5142.425781 C 6830.890625 5142.34375 6822.300781 5142.84375 6813.683594 5142.734375 C 6800.890625 5142.574219 6788.089844 5143.082031 6775.289062 5143.257812 C 6771.109375 5143.316406 6766.925781 5143.292969 6762.75 5143.171875 C 6760.265625 5143.101562 6758.289062 5140.304688 6758.386719 5137.132812 C 6758.484375 5133.929688 6758.667969 5130.726562 6758.859375 5127.523438 C 6758.945312 5126.085938 6759.011719 5125.308594 6756.832031 5125.390625 C 6750.289062 5125.640625 6743.730469 5125.382812 6737.179688 5125.46875 C 6735.402344 5125.488281 6734.980469 5124.605469 6735.011719 5123.300781 C 6735.117188 5118.46875 6735.289062 5113.636719 6735.476562 5108.804688 C 6735.527344 5107.464844 6736.023438 5106.816406 6737.726562 5106.832031 C 6745.160156 5106.917969 6752.609375 5107.011719 6760.03125 5106.65625 C 6764.226562 5106.453125 6767.78125 5107.367188 6770.371094 5110.425781 C 6773.042969 5113.585938 6776.355469 5113.664062 6780.078125 5113.523438 C 6787.519531 5113.238281 6794.976562 5113.234375 6802.425781 5113.089844 C 6813.933594 5112.871094 6825.441406 5112.496094 6836.953125 5112.4375 C 6844.859375 5112.398438 6852.757812 5112.15625 6860.660156 5112.003906 C 6877.003906 5111.683594 6893.351562 5111.449219 6909.695312 5111.273438 C 6911.691406 5111.25 6912.691406 5110.074219 6913.789062 5108.910156 C 6915.855469 5106.714844 6917.257812 5104.160156 6917.324219 5101.144531 C 6917.519531 5092.480469 6917.613281 5083.816406 6917.757812 5075.152344 C 6917.824219 5071.226562 6917.796875 5070.964844 6913.914062 5071.496094 C 6911.261719 5071.859375 6911.144531 5070.824219 6911.214844 5068.882812 C 6911.375 5064.410156 6911.394531 5059.929688 6911.472656 5055.457031 C 6911.480469 5054.933594 6911.472656 5054.421875 6910.972656 5054.074219 C 6911.378906 5053.394531 6911.546875 5052.667969 6911.546875 5051.871094 C 6911.546875 5049.996094 6912.082031 5048.433594 6914.261719 5047.960938 C 6915.640625 5048.222656 6916.253906 5047.613281 6916.277344 5046.316406 C 6916.308594 5044.316406 6917.554688 5043.597656 6919.410156 5043.660156 C 6927.90625 5043.933594 6936.414062 5043.914062 6944.90625 5044.429688 C 6946.054688 5044.5 6946.914062 5044.941406 6947.742188 5045.644531 "/>
<path xmlns="http://www.w3.org/2000/svg" fill-rule="nonzero" fill="rgb(86.732483%, 87.09259%, 86.03363%)" fill-opacity="1" d="M 7190.15625 5154.945312 C 7179.710938 5154.976562 7169.269531 5155.148438 7158.820312 5154.996094 C 7150.582031 5154.878906 7142.335938 5155.128906 7134.09375 5155.335938 C 7128.832031 5155.46875 7123.488281 5149.40625 7124.15625 5144.375 C 7124.617188 5140.898438 7124.128906 5137.3125 7124.390625 5133.796875 C 7124.609375 5130.84375 7124.003906 5127.796875 7126.195312 5125.035156 C 7128.128906 5122.589844 7130.390625 5121.550781 7133.390625 5121.570312 C 7143.019531 5121.628906 7152.648438 5121.742188 7162.277344 5121.738281 C 7173.5625 5121.734375 7184.847656 5121.648438 7196.132812 5121.546875 C 7200.722656 5121.503906 7203.964844 5123.898438 7205.121094 5128.230469 C 7206.351562 5132.84375 7205.777344 5137.535156 7205.914062 5142.199219 C 7205.996094 5144.980469 7205.582031 5147.472656 7203.847656 5149.84375 C 7201.167969 5153.507812 7197.675781 5155.238281 7193.082031 5154.996094 C 7192.109375 5154.945312 7191.132812 5154.957031 7190.15625 5154.945312 "/>
<path xmlns="http://www.w3.org/2000/svg" fill="none" stroke-width="9" stroke-linecap="butt" stroke-linejoin="round" stroke="rgb(100%, 100%, 100%)" stroke-opacity="1" stroke-miterlimit="4" d="M 0.001925 0.000075 L 7.943331 -0.0350813 L 8.146456 44.089919 L 0.20505 44.125075 L 0.119112 25.972731 L -11.91995 26.027419 L -11.837919 44.183669 L -19.779325 44.218825 L -19.98245 0.093825 L -12.041044 0.0547625 L -11.955106 18.714919 L 0.0878625 18.660231 Z M 0.001925 0.000075 " transform="matrix(1, 0, 0, -1, 7244.2012, 5074.6407)"/>
<path xmlns="http://www.w3.org/2000/svg" fill="none" stroke-width="9" stroke-linecap="butt" stroke-linejoin="round" stroke="rgb(100%, 100%, 100%)" stroke-opacity="1" stroke-miterlimit="4" d="M 0.0009875 -0.00188125 L 8.3213 -0.0409438 L -4.33495 44.462962 L -10.573231 44.490306 L -23.573231 0.107494 L -15.694325 0.0723375 L -13.065419 10.146556 L -2.663075 10.099681 Z M -8.827138 26.771556 L -7.725575 33.763744 L -7.471669 33.759837 L -6.495106 26.822337 L -4.02245 16.533275 L -11.33495 16.568431 Z M -8.827138 26.771556 " transform="matrix(1, 0, 0, -1, 7278.3662, 5074.7989)"/>
<path xmlns="http://www.w3.org/2000/svg" fill="none" stroke-width="9" stroke-linecap="butt" stroke-linejoin="round" stroke="rgb(100%, 100%, 100%)" stroke-opacity="1" stroke-miterlimit="4" d="M 0.0019125 0.00156875 L -15.5059 0.0718812 L -15.337931 36.884381 L -23.279338 36.923444 L -23.482463 -7.205463 L -0.0332438 -7.310931 Z M 0.0019125 0.00156875 " transform="matrix(1, 0, 0, -1, 7312.8809, 5067.6461)"/>
<path xmlns="http://www.w3.org/2000/svg" fill="none" stroke-width="9" stroke-linecap="butt" stroke-linejoin="round" stroke="rgb(100%, 100%, 100%)" stroke-opacity="1" stroke-miterlimit="4" d="M 0.0019125 0.0006375 L 7.943319 -0.038425 L 8.146444 44.090481 L 0.205037 44.125638 Z M 0.0019125 0.0006375 " transform="matrix(1, 0, 0, -1, 7316.8184, 5074.9772)"/>
<path xmlns="http://www.w3.org/2000/svg" fill="none" stroke-width="9" stroke-linecap="butt" stroke-linejoin="round" stroke="rgb(100%, 100%, 100%)" stroke-opacity="1" stroke-miterlimit="4" d="M -0.0010125 -0.00188125 L 7.940394 -0.0370375 L 8.147425 44.091869 L 0.647425 44.123119 L -8.079138 25.189525 L -9.5557 19.584056 L -9.8057 19.587962 L -11.293981 25.08015 L -20.407263 44.220775 L -28.036169 44.255931 L -28.239294 0.130931 L -20.739294 0.095775 L -20.633825 22.916087 L -21.790075 31.431712 L -21.415075 31.431712 L -19.114294 23.791087 L -11.559606 8.185619 L -8.911169 8.1739 L -1.653356 23.646556 L 0.713831 31.201244 L 1.026331 31.201244 L 0.104456 22.755931 Z M -0.0010125 -0.00188125 " transform="matrix(1, 0, 0, -1, 7359.3682, 5075.1739)"/>
<path xmlns="http://www.w3.org/2000/svg" fill="none" stroke-width="9" stroke-linecap="butt" stroke-linejoin="round" stroke="rgb(100%, 100%, 100%)" stroke-opacity="1" stroke-miterlimit="4" d="M 0.00005 0.000125 L 7.941456 -0.0389375 L 8.011769 15.156375 C 8.179737 15.113406 8.464894 15.066531 8.863331 15.023563 C 9.261769 14.980594 9.671925 14.949344 10.0938 14.925906 C 10.511769 14.902469 10.910206 14.89075 11.289112 14.886844 C 11.668019 14.886844 11.941456 14.886844 12.109425 14.882938 C 13.914112 14.875125 15.671925 15.14075 17.37505 15.679813 C 19.082081 16.218875 20.585987 17.093875 21.894581 18.304813 C 23.203175 19.519656 24.25005 21.089969 25.039112 23.019656 C 25.824269 24.949344 26.222706 27.300906 26.234425 30.074344 C 26.25005 33.14075 25.800831 35.632938 24.886769 37.550906 C 23.9688 39.468875 22.777394 40.95325 21.31255 42.011844 C 19.847706 43.070438 18.179737 43.781375 16.31255 44.144656 C 14.441456 44.511844 12.539112 44.699344 10.605519 44.707156 C 8.800831 44.718875 6.992237 44.632938 5.18755 44.449344 C 3.37505 44.269656 1.714894 44.01575 0.203175 43.687625 Z M 8.113331 37.343875 C 8.957081 37.550906 10.027394 37.652469 11.332081 37.644656 C 12.214894 37.64075 13.054737 37.511844 13.851612 37.254031 C 14.648487 37.000125 15.351612 36.586063 15.957081 36.01575 C 16.56255 35.445438 17.043019 34.675906 17.394581 33.707156 C 17.75005 32.738406 17.921925 31.562625 17.914112 30.175906 C 17.9063 28.535281 17.714894 27.183719 17.328175 26.113406 C 16.945362 25.043094 16.429737 24.20325 15.773487 23.597781 C 15.117237 22.992313 14.371144 22.566531 13.5313 22.316531 C 12.68755 22.066531 11.804737 21.945438 10.882862 21.949344 C 10.628956 21.95325 10.1563 21.9845 9.464894 22.050906 C 8.769581 22.117313 8.296925 22.191531 8.046925 22.277469 Z M 8.113331 37.343875 " transform="matrix(1, 0, 0, -1, 7385.9062, 5075.297)"/>
<path xmlns="http://www.w3.org/2000/svg" fill="none" stroke-width="9" stroke-linecap="butt" stroke-linejoin="round" stroke="rgb(100%, 100%, 100%)" stroke-opacity="1" stroke-miterlimit="4" d="M -0.00094375 -0.0013 L 22.315463 -0.102862 L 22.350619 7.209638 L 7.975619 7.276044 L 8.030306 18.6237 L 20.827181 18.5612 L 20.858431 25.8737 L 8.061556 25.9362 L 8.112338 36.77995 L 22.233431 36.713544 L 22.268588 44.026044 L 0.202181 44.127606 Z M -0.00094375 -0.0013 " transform="matrix(1, 0, 0, -1, 7415.9736, 5075.4362)"/>
<path xmlns="http://www.w3.org/2000/svg" fill="none" stroke-width="9" stroke-linecap="butt" stroke-linejoin="round" stroke="rgb(100%, 100%, 100%)" stroke-opacity="1" stroke-miterlimit="4" d="M 0.00193125 -0.0009 L 7.943337 -0.0360563 L 8.025369 18.182694 L 11.427712 17.346756 L 19.037087 -0.0868375 L 28.177712 -0.129806 L 20.123025 16.799881 L 17.611306 18.831131 C 19.927712 19.659256 21.751931 21.194412 23.083962 23.4366 C 24.4199 25.678787 25.095681 28.588944 25.111306 32.159256 C 25.123025 34.639725 24.724587 36.690506 23.912087 38.3116 C 23.099587 39.932694 22.033181 41.221756 20.712869 42.170975 C 19.396462 43.1241 17.873025 43.78035 16.150369 44.147537 C 14.431619 44.510819 12.665994 44.698319 10.861306 44.706131 C 9.431619 44.713944 7.728494 44.639725 5.751931 44.479569 C 3.775369 44.319412 1.927712 44.057694 0.20115 43.6866 Z M 8.115212 37.09285 C 8.494119 37.21785 8.998025 37.299881 9.626931 37.338944 C 10.259744 37.3741 10.908181 37.393631 11.583962 37.393631 C 13.38865 37.385819 14.708962 36.776444 15.5449 35.577225 C 16.380837 34.3741 16.7949 32.827225 16.783181 30.9366 C 16.771462 28.417069 16.259744 26.557694 15.244119 25.366287 C 14.2324 24.174881 12.736306 23.581131 10.76365 23.588944 L 8.052712 23.604569 Z M 8.115212 37.09285 " transform="matrix(1, 0, 0, -1, 7443.0801, 5075.5616)"/>
<path xmlns="http://www.w3.org/2000/svg" fill="none" stroke-width="9" stroke-linecap="butt" stroke-linejoin="round" stroke="rgb(100%, 100%, 100%)" stroke-opacity="1" stroke-miterlimit="4" d="M -0.00094375 -0.0018375 C 0.502962 -0.087775 1.217806 -0.161994 2.143587 -0.2284 C 3.065462 -0.298712 4.034212 -0.365119 5.042025 -0.431525 C 6.049837 -0.501837 7.014681 -0.556525 7.940462 -0.6034 C 8.862337 -0.650275 9.600619 -0.673712 10.147494 -0.677619 C 13.842806 -0.693244 16.913119 -0.0760562 19.358431 1.170038 C 21.803744 2.420038 23.741244 4.103631 25.18265 6.220819 C 26.62015 8.3341 27.631869 10.787225 28.209994 13.580194 C 28.792025 16.373163 29.0889 19.30285 29.104525 22.369256 C 29.116244 25.732538 28.8389 28.779413 28.260775 31.513788 C 27.686556 34.248163 26.698275 36.595819 25.299837 38.556756 C 23.9014 40.517694 22.038119 42.041131 19.709994 43.123163 C 17.381869 44.205194 14.475619 44.752069 10.987337 44.7716 C 10.272494 44.775506 9.452181 44.767694 8.5264 44.748163 C 7.604525 44.732538 6.647494 44.697381 5.659212 44.638788 C 4.670931 44.580194 3.706087 44.5216 2.760775 44.463006 C 1.811556 44.404413 0.9639 44.314569 0.206087 44.189569 Z M 16.4014 36.201288 C 17.596712 35.377069 18.514681 34.279413 19.159212 32.912225 C 19.803744 31.541131 20.237337 29.955194 20.459994 28.1466 C 20.68265 26.338006 20.788119 24.466913 20.780306 22.533319 C 20.772494 20.431756 20.624056 18.42785 20.342806 16.517694 C 20.061556 14.603631 19.569369 12.916131 18.87015 11.447381 C 18.170931 9.978631 17.209994 8.810663 15.983431 7.931756 C 14.764681 7.056756 13.206087 6.619256 11.315462 6.630975 C 11.190462 6.630975 10.967806 6.642694 10.6514 6.662225 C 10.3389 6.685663 9.999056 6.7091 9.647494 6.732538 C 9.288119 6.752069 8.952181 6.775506 8.635775 6.798944 C 8.319369 6.822381 8.100619 6.853631 7.975619 6.8966 L 8.116244 37.283319 C 8.49515 37.36535 9.030306 37.412225 9.725619 37.431756 C 10.417025 37.451288 11.100619 37.4591 11.772494 37.455194 C 13.663119 37.443475 15.206087 37.029413 16.4014 36.201288 Z M 16.4014 36.201288 " transform="matrix(1, 0, 0, -1, 7474.7861, 5075.7716)"/>
<path xmlns="http://www.w3.org/2000/svg" fill="none" stroke-width="9" stroke-linecap="butt" stroke-linejoin="round" stroke="rgb(100%, 100%, 100%)" stroke-opacity="1" stroke-miterlimit="4" d="M -0.001925 -0.000825 L 8.318388 -0.0398875 L -4.333956 44.464019 L -10.572237 44.491362 L -23.576144 0.10855 L -15.697237 0.0733937 L -13.064425 10.147612 L -2.662081 10.100737 Z M -8.826144 26.768706 L -7.724581 33.760894 L -7.470675 33.760894 L -6.494112 26.823394 L -4.021456 16.534331 L -11.333956 16.569487 Z M -8.826144 26.768706 " transform="matrix(1, 0, 0, -1, 7527.4238, 5075.9523)"/>
<path xmlns="http://www.w3.org/2000/svg" fill="none" stroke-width="9" stroke-linecap="butt" stroke-linejoin="round" stroke="rgb(100%, 100%, 100%)" stroke-opacity="1" stroke-miterlimit="4" d="M 0.00193125 0.000125 L 6.115212 -0.0272187 L 6.318337 44.414188 L -1.181663 44.449344 L -1.283225 22.449344 L -0.310569 14.941531 L -0.685569 14.945438 L -3.36135 22.582156 L -15.931663 44.832156 L -22.044944 44.8595 L -22.248069 0.418094 L -14.748069 0.382938 L -14.646506 22.195438 L -15.619163 29.82825 L -15.306663 29.824344 L -12.443381 22.058719 Z M 0.00193125 0.000125 " transform="matrix(1, 0, 0, -1, 7560.7051, 5076.422)"/>
<path xmlns="http://www.w3.org/2000/svg" fill="none" stroke-width="9" stroke-linecap="butt" stroke-linejoin="round" stroke="rgb(100%, 100%, 100%)" stroke-opacity="1" stroke-miterlimit="4" d="M -0.00193125 -0.0018125 L 8.318381 -0.040875 L -4.333962 44.463031 L -10.572244 44.490375 L -23.57615 0.107563 L -15.697244 0.0724063 L -13.064431 10.146625 L -2.662087 10.09975 Z M -8.82615 26.771625 L -7.724587 33.763813 L -7.470681 33.759906 L -6.494119 26.822406 L -4.021462 16.533344 L -11.333962 16.5685 Z M -8.82615 26.771625 " transform="matrix(1, 0, 0, -1, 7593.0449, 5076.256)"/>
<path xmlns="http://www.w3.org/2000/svg" fill="none" stroke-width="9" stroke-linecap="butt" stroke-linejoin="round" stroke="rgb(100%, 100%, 100%)" stroke-opacity="1" stroke-miterlimit="4" d="M -0.0010125 -0.0003375 L 9.709925 -0.0433062 L -1.856481 20.855131 L -4.872106 23.269194 L -1.89945 25.581694 L 8.272425 44.089506 L -0.6807 44.132475 L -10.032262 25.386381 L -11.610387 24.640288 L -11.520544 44.17935 L -19.465856 44.218413 L -19.668981 0.0895063 L -11.727575 0.05435 L -11.637731 18.964506 L -9.934606 18.956694 Z M -0.0010125 -0.0003375 " transform="matrix(1, 0, 0, -1, 7623.7432, 5076.3981)"/>
<path xmlns="http://www.w3.org/2000/svg" fill="none" stroke-width="9" stroke-linecap="butt" stroke-linejoin="round" stroke="rgb(100%, 100%, 100%)" stroke-opacity="1" stroke-miterlimit="4" d="M 0.00005 -0.0003625 C -0.015575 -3.277706 -0.4687 -5.640987 -1.355419 -7.0863 C -2.246044 -8.531612 -3.722606 -9.250362 -5.777294 -9.238644 C -7.921825 -9.230831 -9.453075 -8.539425 -10.371044 -7.168331 C -11.289012 -5.801144 -11.742137 -3.394894 -11.726512 0.054325 L -11.5937 28.359013 L -19.535106 28.394169 L -19.675731 -1.297237 C -19.699169 -6.422237 -18.5937 -10.24255 -16.355419 -12.754269 C -14.117137 -15.262081 -10.581981 -16.531612 -5.74995 -16.551144 C -1.632762 -16.570675 1.601613 -15.30505 3.941456 -12.750362 C 6.289113 -10.199581 7.472706 -6.066769 7.50005 -0.351925 L 7.632863 28.269169 L 0.132863 28.304325 Z M 0.00005 -0.0003625 " transform="matrix(1, 0, 0, -1, 7656.3437, 5060.7262)"/>
<path xmlns="http://www.w3.org/2000/svg" fill="none" stroke-width="9" stroke-linecap="butt" stroke-linejoin="round" stroke="rgb(100%, 100%, 100%)" stroke-opacity="1" stroke-miterlimit="4" d="M -0.00001875 -0.00085625 C -1.679706 0.00695625 -3.257831 0.268675 -4.722675 0.780394 C -6.191425 1.288206 -7.347675 1.799925 -8.183612 2.307738 L -10.8008 -4.801637 C -9.753925 -5.438356 -8.253925 -6.012575 -6.3008 -6.524294 C -4.351581 -7.039919 -2.070331 -7.301637 0.535138 -7.313356 C 2.593731 -7.325075 4.464825 -7.05945 6.148419 -6.520387 C 7.832013 -5.981325 9.273419 -5.180544 10.476544 -4.114137 C 11.679669 -3.047731 12.609356 -1.696169 13.269513 -0.05945 C 13.929669 1.573363 14.265606 3.506956 14.273419 5.733519 C 14.285138 7.960081 13.894513 9.885863 13.10545 11.506956 C 12.312481 13.12805 11.320294 14.542113 10.128888 15.745238 C 8.937481 16.948363 7.6367 18.00305 6.234356 18.913206 C 4.828106 19.823363 3.531231 20.702269 2.339825 21.549925 C 1.144513 22.393675 0.148419 23.272581 -0.64455 24.178831 C -1.437519 25.085081 -1.83205 26.12805 -1.828144 27.303831 C -1.820331 28.608519 -1.375019 29.592894 -0.4883 30.260863 C 0.394513 30.928831 1.656231 31.260863 3.296856 31.25305 C 4.937481 31.245238 6.457013 31.026488 7.863263 30.600706 C 9.269513 30.174925 10.328106 29.706175 11.04295 29.198363 L 13.531231 36.186644 C 12.316388 36.905394 10.785138 37.479613 8.937481 37.9093 C 7.089825 38.335081 5.097638 38.557738 2.953106 38.56555 C 1.187481 38.573363 -0.472675 38.362425 -2.031269 37.928831 C -3.589862 37.495238 -4.937519 36.807738 -6.074237 35.866331 C -7.214862 34.924925 -8.1133 33.710081 -8.76955 32.2218 C -9.429706 30.733519 -9.761737 28.917113 -9.773456 26.772581 C -9.785175 24.460081 -9.39455 22.506956 -8.601581 20.905394 C -7.812519 19.303831 -6.820331 17.913206 -5.628925 16.733519 C -4.433612 15.549925 -3.136737 14.514769 -1.734394 13.624144 C -0.328144 12.737425 0.968731 11.866331 2.164044 11.022581 C 3.35545 10.174925 4.351544 9.280394 5.144513 8.327269 C 5.937481 7.37805 6.332013 6.233519 6.328106 4.889769 C 6.312481 1.608519 4.203106 -0.0203875 -0.00001875 -0.00085625 Z M -0.00001875 -0.00085625 " transform="matrix(1, 0, 0, -1, 7678.4258, 5070.2218)"/>
<path xmlns="http://www.w3.org/2000/svg" fill="none" stroke-width="9" stroke-linecap="butt" stroke-linejoin="round" stroke="rgb(100%, 100%, 100%)" stroke-opacity="1" stroke-miterlimit="4" d="M -0.00093125 0.00059375 C -0.0165562 -3.27675 -0.469681 -5.640031 -1.3564 -7.085344 C -2.247025 -8.530656 -3.719681 -9.249406 -5.778275 -9.241594 C -7.922806 -9.229875 -9.454056 -8.542375 -10.372025 -7.171281 C -11.289994 -5.800187 -11.739212 -3.393937 -11.727494 0.0552813 L -11.594681 28.356063 L -19.536087 28.395125 L -19.672806 -1.296281 C -19.696244 -6.421281 -18.590775 -10.241594 -16.3564 -12.753312 C -14.118119 -15.265031 -10.582962 -16.530656 -5.750931 -16.554094 C -1.633744 -16.573625 1.600631 -15.304094 3.944381 -12.753312 C 6.288131 -10.198625 7.475631 -6.065812 7.499069 -0.350969 L 7.631881 28.270125 L 0.131881 28.305281 Z M -0.00093125 0.00059375 " transform="matrix(1, 0, 0, -1, 7716.4814, 5061.0045)"/>
<path xmlns="http://www.w3.org/2000/svg" fill="none" stroke-width="9" stroke-linecap="butt" stroke-linejoin="round" stroke="rgb(100%, 100%, 100%)" stroke-opacity="1" stroke-miterlimit="4" d="M -0.0009875 -0.00133125 L 7.944325 -0.0364875 L 8.14745 44.088513 L 0.64745 44.123669 L -8.079112 25.190075 L -9.555675 19.588513 L -9.805675 19.588513 L -11.293956 25.0807 L -20.407237 44.221325 L -28.036144 44.256481 L -28.239269 0.131481 L -20.739269 0.096325 L -20.6338 22.916638 L -21.79005 31.432263 L -21.411144 31.428356 L -19.114269 23.791638 L -11.559581 8.186169 L -8.911144 8.17445 L -1.653331 23.647106 L 0.713856 31.201794 L 1.026356 31.201794 L 0.104481 22.756481 Z M -0.0009875 -0.00133125 " transform="matrix(1, 0, 0, -1, 7757.6338, 5077.0182)"/>
<path xmlns="http://www.w3.org/2000/svg" fill="none" stroke-width="9" stroke-linecap="butt" stroke-linejoin="round" stroke="rgb(100%, 100%, 100%)" stroke-opacity="1" stroke-miterlimit="4" d="M 0.00098125 0.00061875 L 8.321294 -0.0384437 L -4.33105 44.461556 L -10.573237 44.492806 L -23.577144 0.109994 L -15.694331 0.0748375 L -13.065425 10.14515 L -2.663081 10.098275 Z M -8.827144 26.77015 L -7.725581 33.762338 L -7.471675 33.762338 L -6.495112 26.820931 L -4.022456 16.535775 L -11.33105 16.570931 Z M -8.827144 26.77015 " transform="matrix(1, 0, 0, -1, 7791.7998, 5077.1764)"/>
<path xmlns="http://www.w3.org/2000/svg" fill="none" stroke-width="9" stroke-linecap="butt" stroke-linejoin="round" stroke="rgb(100%, 100%, 100%)" stroke-opacity="1" stroke-miterlimit="4" d="M -0.00195 0.00056875 C 1.427738 -2.38615 2.658206 -5.022869 3.697269 -7.905681 C 4.736331 -10.784588 5.607425 -13.765056 6.314456 -16.839275 C 7.017581 -19.913494 7.5293 -22.987713 7.849613 -26.061931 C 8.166019 -29.13615 8.318363 -31.999431 8.306644 -34.655681 C 8.294925 -37.4799 8.142581 -40.382244 7.853519 -43.370525 C 7.56055 -46.358806 7.0918 -49.343181 6.439456 -52.331463 C 5.791019 -55.315838 4.919925 -58.272869 3.826175 -61.19865 C 2.732425 -64.128338 1.349613 -66.972088 -0.322262 -69.7299 L 6.384769 -73.581463 C 8.556644 -70.768963 10.380863 -67.733806 11.861331 -64.472088 C 13.345706 -61.214275 14.548831 -57.88615 15.478519 -54.487713 C 16.408206 -51.089275 17.087894 -47.702556 17.517581 -44.327556 C 17.947269 -40.956463 18.173831 -37.745525 18.18555 -34.702556 C 18.201175 -31.6049 18.009769 -28.350994 17.607425 -24.944744 C 17.208988 -21.538494 16.56055 -18.159588 15.662113 -14.808025 C 14.763675 -11.456463 13.603519 -8.186931 12.181644 -4.995525 C 10.755863 -1.808025 8.99805 1.121662 6.908206 3.785725 Z M -0.00195 0.00056875 " transform="matrix(1, 0, 0, -1, 7154.0332, 4974.0826)"/>
<path xmlns="http://www.w3.org/2000/svg" fill="none" stroke-width="9.294" stroke-linecap="butt" stroke-linejoin="round" stroke="rgb(100%, 100%, 100%)" stroke-opacity="1" stroke-miterlimit="4" d="M 0.0017797 -0.000961669 L -26.506033 -0.000961669 L -26.503929 6.790539 L -16.898461 6.790539 L -16.895464 40.975471 L -9.606402 40.975471 L -9.605492 6.790539 L -0.0000231053 6.790539 Z M 0.0017797 -0.000961669 " transform="matrix(1, 0, -0.08716, 0.99619, 7331.677824, 5628.715802)"/>
<path xmlns="http://www.w3.org/2000/svg" fill="none" stroke-width="9.294" stroke-linecap="butt" stroke-linejoin="round" stroke="rgb(100%, 100%, 100%)" stroke-opacity="1" stroke-miterlimit="4" d="M -0.000845674 0.00187104 L 7.292123 0.00187104 L 7.29093 -40.974562 L 0.404211 -40.974562 L -7.525056 -23.356656 L -8.852093 -18.145395 L -9.086468 -18.145395 L -10.475741 -23.239021 L -18.923914 -40.974562 L -25.923914 -40.974562 L -25.926627 0.00187104 L -19.039908 0.00187104 L -19.039182 -21.188238 L -20.138348 -29.093357 L -19.790692 -29.093357 L -17.649674 -22.007767 L -10.647378 -7.55034 L -8.21769 -7.55034 L -1.62111 -21.948949 L 0.520342 -28.975721 L 0.809405 -28.975721 L 0.00110096 -21.12942 Z M -0.000845674 0.00187104 " transform="matrix(1, 0, -0.08716, 0.99619, 7357.098665, 5669.533292)"/>
<path xmlns="http://www.w3.org/2000/svg" fill="none" stroke-width="9.294" stroke-linecap="butt" stroke-linejoin="round" stroke="rgb(100%, 100%, 100%)" stroke-opacity="1" stroke-miterlimit="4" d="M 8025.800531 5916.28605 L 8033.0935 5916.28605 L 8033.092648 5875.313538 L 8025.79968 5875.313538 Z M 8025.800531 5916.28605 " transform="matrix(1, 0, -0.08716, 0.99619, -139.902664, -224.21375)"/>
<path xmlns="http://www.w3.org/2000/svg" fill="none" stroke-width="9.294" stroke-linecap="butt" stroke-linejoin="round" stroke="rgb(100%, 100%, 100%)" stroke-opacity="1" stroke-miterlimit="4" d="M 8039.570063 5916.28605 L 8046.863031 5916.28605 L 8046.86218 5875.313538 L 8039.573117 5875.313538 Z M 8039.570063 5916.28605 " transform="matrix(1, 0, -0.08716, 0.99619, -139.902664, -224.21375)"/>
<path xmlns="http://www.w3.org/2000/svg" fill-rule="nonzero" fill="rgb(31.7276%, 18.205261%, 8.953857%)" fill-opacity="1" d="M 7267.082031 5605.003906 L 7267.082031 5571.390625 C 7267.082031 5539.257812 7293.222656 5513.117188 7325.355469 5513.117188 C 7346.222656 5513.117188 7365.578125 5524.355469 7375.953125 5542.464844 C 7365.398438 5549.753906 7356.328125 5560.875 7350.320312 5573.855469 L 7335.5625 5605.757812 Z M 7267.082031 5605.003906 "/>
<path xmlns="http://www.w3.org/2000/svg" fill-rule="nonzero" fill="rgb(100%, 100%, 100%)" fill-opacity="1" d="M 7325.355469 5512.757812 C 7292.972656 5512.757812 7266.722656 5539.007812 7266.722656 5571.390625 L 7266.722656 5605.359375 L 7335.792969 5606.117188 L 7350.648438 5574.007812 C 7356.929688 5560.425781 7366.152344 5549.589844 7376.367188 5542.617188 L 7376.429688 5542.574219 C 7366.363281 5524.773438 7347.261719 5512.757812 7325.355469 5512.757812 M 7325.355469 5513.476562 C 7345.984375 5513.476562 7365.125 5524.527344 7375.476562 5542.359375 C 7365.023438 5549.644531 7355.988281 5560.753906 7349.996094 5573.703125 L 7335.335938 5605.394531 L 7267.441406 5604.648438 L 7267.441406 5571.390625 C 7267.441406 5539.457031 7293.421875 5513.476562 7325.355469 5513.476562 "/>
<path xmlns="http://www.w3.org/2000/svg" fill-rule="nonzero" fill="rgb(31.7276%, 18.205261%, 8.953857%)" fill-opacity="1" d="M 7351.128906 5574.15625 C 7357.132812 5561.179688 7366.222656 5550.085938 7376.726562 5542.914062 C 7385.058594 5537.222656 7393.878906 5534.21875 7402.234375 5534.21875 C 7406.984375 5534.21875 7411.5 5535.191406 7415.652344 5537.113281 C 7435.707031 5546.390625 7442.570312 5576.289062 7431.328125 5605.253906 L 7336.511719 5605.757812 Z M 7351.128906 5574.15625 "/>
<path xmlns="http://www.w3.org/2000/svg" fill-rule="nonzero" fill="rgb(100%, 100%, 100%)" fill-opacity="1" d="M 7402.234375 5533.859375 C 7393.703125 5533.859375 7384.789062 5536.976562 7376.523438 5542.617188 C 7366.308594 5549.589844 7357.085938 5560.425781 7350.804688 5574.003906 L 7335.949219 5606.117188 L 7431.574219 5605.609375 C 7442.996094 5576.429688 7436.40625 5546.320312 7415.804688 5536.789062 C 7411.511719 5534.800781 7406.929688 5533.859375 7402.234375 5533.859375 M 7402.234375 5533.859375 L 7402.234375 5534.578125 C 7406.933594 5534.578125 7411.394531 5535.539062 7415.503906 5537.441406 C 7425.222656 5541.9375 7432.144531 5551.363281 7434.996094 5563.988281 C 7437.824219 5576.488281 7436.433594 5590.996094 7431.082031 5604.894531 L 7337.074219 5605.394531 L 7351.453125 5574.308594 C 7357.433594 5561.386719 7366.480469 5550.34375 7376.929688 5543.210938 C 7385.199219 5537.5625 7393.949219 5534.578125 7402.234375 5534.578125 Z M 7402.234375 5533.859375 "/>
<path xmlns="http://www.w3.org/2000/svg" fill-rule="nonzero" fill="rgb(100%, 100%, 100%)" fill-opacity="1" d="M 7426.3125 5593.46875 C 7426.3125 5572.082031 7408.976562 5554.746094 7387.589844 5554.746094 C 7372.886719 5554.746094 7360.097656 5562.941406 7353.539062 5575.011719 L 7339.230469 5606.117188 L 7426.3125 5606.117188 Z M 7426.3125 5593.46875 "/>
<path xmlns="http://www.w3.org/2000/svg" fill-rule="nonzero" fill="rgb(31.7276%, 18.205261%, 8.953857%)" fill-opacity="1" d="M 7418.597656 5580.433594 C 7413.496094 5568.339844 7401.515625 5559.832031 7387.589844 5559.832031 C 7375.296875 5559.832031 7364.007812 5566.519531 7358.085938 5577.296875 L 7356.644531 5580.433594 Z M 7418.597656 5580.433594 "/>
<path xmlns="http://www.w3.org/2000/svg" fill-rule="nonzero" fill="rgb(31.7276%, 18.205261%, 8.953857%)" fill-opacity="1" d="M 7310.199219 5603.933594 C 7309.253906 5596.085938 7307.28125 5568.46875 7323.9375 5555.238281 C 7324.003906 5555.203125 7333.699219 5549.167969 7349.714844 5549.167969 C 7354.996094 5549.167969 7360.429688 5549.820312 7365.871094 5551.109375 L 7355.609375 5564.136719 C 7333.269531 5565.972656 7314.898438 5582.1875 7310.199219 5603.933594 "/>
<path xmlns="http://www.w3.org/2000/svg" fill-rule="nonzero" fill="rgb(100%, 100%, 100%)" fill-opacity="1" d="M 7349.714844 5548.808594 C 7333.394531 5548.808594 7323.714844 5554.957031 7323.714844 5554.957031 C 7303.882812 5570.710938 7310.140625 5606.117188 7310.140625 5606.117188 C 7314.007812 5583.671875 7332.714844 5566.304688 7355.796875 5564.484375 L 7366.5 5550.894531 C 7360.339844 5549.386719 7354.714844 5548.808594 7349.714844 5548.808594 M 7349.714844 5549.527344 C 7354.792969 5549.527344 7360.007812 5550.132812 7365.242188 5551.332031 L 7355.425781 5563.792969 C 7333.703125 5565.640625 7315.730469 5580.996094 7310.332031 5601.816406 C 7309.421875 5592.0625 7308.878906 5567.691406 7324.128906 5555.546875 C 7324.726562 5555.179688 7334.253906 5549.527344 7349.714844 5549.527344 "/>
<path xmlns="http://www.w3.org/2000/svg" fill-rule="nonzero" fill="rgb(100%, 100%, 100%)" fill-opacity="1" d="M 7315.199219 5581.675781 C 7324.082031 5569.6875 7337.65625 5561.492188 7353.140625 5559.636719 L 7357.292969 5554.363281 C 7354.738281 5554.050781 7352.210938 5553.894531 7349.714844 5553.894531 C 7336.464844 5553.894531 7328.007812 5558.359375 7326.621094 5559.148438 C 7319.742188 5564.757812 7316.558594 5573.390625 7315.199219 5581.675781 "/>
<path xmlns="http://www.w3.org/2000/svg" fill-rule="nonzero" fill="rgb(31.7276%, 18.205261%, 8.953857%)" fill-opacity="1" d="M 7356.644531 5598.34375 L 7411.464844 5598.34375 L 7411.464844 5584.332031 L 7356.644531 5584.332031 Z M 7356.644531 5598.34375 "/>
<path xmlns="http://www.w3.org/2000/svg" fill-rule="nonzero" fill="rgb(31.7276%, 18.205261%, 8.953857%)" fill-opacity="1" d="M 7411.464844 5601.488281 L 7426.3125 5606.117188 L 7350.15625 5606.117188 L 7355.992188 5601.488281 Z M 7411.464844 5601.488281 "/>
<path xmlns="http://www.w3.org/2000/svg" fill="none" stroke-width="1.794" stroke-linecap="butt" stroke-linejoin="miter" stroke="rgb(31.7276%, 18.205261%, 8.953857%)" stroke-opacity="1" stroke-miterlimit="10" d="M 0.00044375 0.0016 L 0.00044375 -12.822619 " transform="matrix(1, 0, 0, -1, 7347.8394, 5550.6891)"/>
<path xmlns="http://www.w3.org/2000/svg" fill="none" stroke-width="1.794" stroke-linecap="butt" stroke-linejoin="miter" stroke="rgb(31.7276%, 18.205261%, 8.953857%)" stroke-opacity="1" stroke-miterlimit="10" d="M 0.00141875 0.00035625 L 0.00141875 -12.823862 " transform="matrix(1, 0, 0, -1, 7339.3853, 5554.2777)"/>
<path xmlns="http://www.w3.org/2000/svg" fill="none" stroke-width="1.794" stroke-linecap="butt" stroke-linejoin="miter" stroke="rgb(31.7276%, 18.205261%, 8.953857%)" stroke-opacity="1" stroke-miterlimit="10" d="M -0.0015125 0.00035625 L -0.0015125 -16.495737 " transform="matrix(1, 0, 0, -1, 7330.9312, 5554.2777)"/>
<path xmlns="http://www.w3.org/2000/svg" fill="none" stroke-width="1.794" stroke-linecap="butt" stroke-linejoin="miter" stroke="rgb(31.7276%, 18.205261%, 8.953857%)" stroke-opacity="1" stroke-miterlimit="10" d="M -0.0009375 0.001675 L -0.0009375 -16.494419 " transform="matrix(1, 0, 0, -1, 7322.4775, 5561.4548)"/>
<path xmlns="http://www.w3.org/2000/svg" fill="none" stroke-width="1.794" stroke-linecap="butt" stroke-linejoin="miter" stroke="rgb(100%, 100%, 100%)" stroke-opacity="1" stroke-miterlimit="10" d="M 0.00045625 0.00121875 L 0.00045625 -21.862063 " transform="matrix(1, 0, 0, -1, 7392.0972, 5559.677)"/>
<path xmlns="http://www.w3.org/2000/svg" fill="none" stroke-width="1.794" stroke-linecap="butt" stroke-linejoin="miter" stroke="rgb(100%, 100%, 100%)" stroke-opacity="1" stroke-miterlimit="10" d="M -0.00101875 0.00121875 L -0.00101875 -21.862063 " transform="matrix(1, 0, 0, -1, 7383.3643, 5559.677)"/>
<path xmlns="http://www.w3.org/2000/svg" fill="none" stroke-width="1.794" stroke-linecap="butt" stroke-linejoin="miter" stroke="rgb(100%, 100%, 100%)" stroke-opacity="1" stroke-miterlimit="10" d="M -0.000000000000909495 0.00021875 L -0.000000000000909495 -17.613062 " transform="matrix(1, 0, 0, -1, 7409.5625, 5563.926)"/>
<path xmlns="http://www.w3.org/2000/svg" fill="none" stroke-width="1.794" stroke-linecap="butt" stroke-linejoin="miter" stroke="rgb(100%, 100%, 100%)" stroke-opacity="1" stroke-miterlimit="10" d="M -0.001475 0.0019 L -0.001475 -20.849662 " transform="matrix(1, 0, 0, -1, 7400.8296, 5560.6894)"/>
<path xmlns="http://www.w3.org/2000/svg" fill="none" stroke-width="1.794" stroke-linecap="butt" stroke-linejoin="miter" stroke="rgb(100%, 100%, 100%)" stroke-opacity="1" stroke-miterlimit="10" d="M 0.0010125 0.0015 L 0.0010125 -23.600062 " transform="matrix(1, 0, 0, -1, 7374.6318, 5557.939)"/>
<path xmlns="http://www.w3.org/2000/svg" fill="none" stroke-width="1.794" stroke-linecap="butt" stroke-linejoin="miter" stroke="rgb(100%, 100%, 100%)" stroke-opacity="1" stroke-miterlimit="10" d="M -0.0004625 -0.00144375 L -0.0004625 -19.013162 " transform="matrix(1, 0, 0, -1, 7365.8989, 5562.5259)"/>
<path xmlns="http://www.w3.org/2000/svg" fill="none" stroke-width="20" stroke-linecap="butt" stroke-linejoin="miter" stroke="rgb(100%, 100%, 100%)" stroke-opacity="1" stroke-miterlimit="10" d="M 0.0000125 0.0019 L -606.863269 0.0019 " transform="matrix(1, 0, 0, -1, 7157.2578, 5422.0644)"/>
<path xmlns="http://www.w3.org/2000/svg" fill="none" stroke-width="9" stroke-linecap="butt" stroke-linejoin="round" stroke="rgb(100%, 100%, 100%)" stroke-opacity="1" stroke-miterlimit="4" d="M 0.0015 0.00013125 C 0.634313 -0.468619 1.583531 -0.874869 2.849156 -1.226431 C 4.114781 -1.574088 5.517125 -1.749869 7.048375 -1.749869 C 10.181188 -1.749869 12.606969 -0.648306 14.325719 1.550912 C 16.040563 3.750131 16.899938 7.101694 16.899938 11.601694 C 16.899938 16.000131 16.259313 19.218881 14.974156 21.250131 C 13.692906 23.281381 11.767125 24.300912 9.200719 24.300912 C 6.931188 24.300912 5.114781 23.468881 3.7515 21.800912 L 3.599156 21.800912 L 3.599156 33.69935 L 0.0015 33.69935 Z M 3.599156 17.050912 C 3.966344 18.281381 4.540563 19.257944 5.325719 19.976694 C 6.106969 20.691537 7.099156 21.050912 8.298375 21.050912 C 9.165563 21.050912 9.90775 20.82435 10.524938 20.375131 C 11.142125 19.925912 11.642125 19.281381 12.024938 18.44935 C 12.40775 17.617319 12.692906 16.625131 12.8765 15.476694 C 13.056188 14.32435 13.149938 13.031381 13.149938 11.601694 C 13.149938 8.1681 12.642125 5.625131 11.6265 3.976694 C 10.606969 2.32435 9.231969 1.500131 7.5015 1.500131 C 6.731969 1.500131 6.009313 1.57435 5.325719 1.726694 C 4.642125 1.875131 4.067906 2.082162 3.599156 2.351694 Z M 3.599156 17.050912 " transform="matrix(1, 0, 0, -1, 7119.3735, 5776.4806)"/>
<path xmlns="http://www.w3.org/2000/svg" fill="none" stroke-width="9" stroke-linecap="butt" stroke-linejoin="round" stroke="rgb(100%, 100%, 100%)" stroke-opacity="1" stroke-miterlimit="4" d="M -0.00044375 -0.00085 L -0.00044375 -16.200069 C -0.00044375 -18.098506 0.140181 -19.6571 0.425337 -20.87585 C 0.706587 -22.090694 1.132369 -23.051631 1.698775 -23.75085 C 2.265181 -24.450069 2.948775 -24.934444 3.749556 -25.200069 C 4.550337 -25.465694 5.483931 -25.598506 6.550337 -25.598506 C 8.1519 -25.598506 9.483931 -25.192256 10.550337 -24.37585 C 11.616744 -23.559444 12.43315 -22.598506 12.999556 -21.50085 L 13.1519 -21.50085 L 14.050337 -25.00085 L 16.601119 -25.00085 C 16.43315 -24.0321 16.30815 -22.9071 16.226119 -21.62585 C 16.140181 -20.340694 16.101119 -19.098506 16.101119 -17.899288 L 16.101119 -0.00085 L 12.499556 -0.00085 L 12.499556 -17.348506 C 12.300337 -17.981319 12.034712 -18.598506 11.698775 -19.200069 C 11.366744 -19.801631 10.983931 -20.332881 10.550337 -20.801631 C 10.116744 -21.266475 9.624556 -21.641475 9.073775 -21.926631 C 8.5269 -22.207881 7.9019 -22.348506 7.198775 -22.348506 C 5.831587 -22.348506 4.890181 -21.809444 4.374556 -20.723506 C 3.858931 -19.641475 3.601119 -17.832881 3.601119 -15.301631 L 3.601119 -0.00085 Z M -0.00044375 -0.00085 " transform="matrix(1, 0, 0, -1, 7139.7231, 5752.7804)"/>
<path xmlns="http://www.w3.org/2000/svg" fill="none" stroke-width="9" stroke-linecap="butt" stroke-linejoin="round" stroke="rgb(100%, 100%, 100%)" stroke-opacity="1" stroke-miterlimit="4" d="M 0.0005375 -0.00085 L 3.051319 -0.00085 L 3.051319 -15.399287 C 3.051319 -17.832881 3.406788 -19.590694 4.125538 -20.676631 C 4.840381 -21.758662 6.031788 -22.301631 7.699756 -22.301631 C 8.6646 -22.301631 9.590381 -22.192256 10.473194 -21.973506 C 11.356006 -21.758662 12.1646 -21.465694 12.898975 -21.098506 L 12.199756 -18.25085 C 11.63335 -18.481319 11.106006 -18.676631 10.625538 -18.825069 C 10.141163 -18.973506 9.566944 -19.051631 8.898975 -19.051631 C 8.098194 -19.051631 7.523975 -18.723506 7.176319 -18.075069 C 6.824756 -17.426631 6.648975 -16.368037 6.648975 -14.899287 L 6.648975 -0.00085 L 12.051319 -0.00085 L 12.051319 3.24915 L 6.648975 3.24915 L 6.648975 9.350713 L 3.051319 8.198369 L 3.051319 3.24915 L 0.0005375 3.24915 Z M 0.0005375 -0.00085 " transform="matrix(1, 0, 0, -1, 7158.2729, 5756.0304)"/>
<path xmlns="http://www.w3.org/2000/svg" fill="none" stroke-width="9" stroke-linecap="butt" stroke-linejoin="round" stroke="rgb(100%, 100%, 100%)" stroke-opacity="1" stroke-miterlimit="4" d="M -0.0004625 0.00109375 C 0.7261 0.434688 1.63235 0.790156 2.7261 1.075313 C 3.815944 1.356563 4.823756 1.501094 5.745631 1.501094 C 7.233912 1.501094 8.25735 1.114375 8.81985 0.34875 C 9.378444 -0.416875 9.659694 -1.748906 9.659694 -3.65125 C 9.659694 -4.448125 9.612819 -5.366094 9.511256 -6.40125 C 9.147975 -6.366094 8.800319 -6.350469 8.468287 -6.350469 L 7.480006 -6.350469 C 5.991725 -6.350469 4.644069 -6.475469 3.437037 -6.725469 C 2.230006 -6.975469 1.190944 -7.40125 0.312037 -7.998906 C -0.562963 -8.600469 -1.24265 -9.385625 -1.719213 -10.350469 C -2.199681 -11.315312 -2.437963 -12.518437 -2.437963 -13.948125 C -2.437963 -16.15125 -1.86765 -17.873906 -0.727025 -19.123906 C 0.4136 -20.373906 1.878444 -20.998906 3.6636 -20.998906 C 5.284694 -20.998906 6.577662 -20.6825 7.534694 -20.049687 C 8.495631 -19.416875 9.222194 -18.666875 9.718287 -17.799687 L 9.917506 -17.799687 L 10.792506 -20.748906 L 13.612819 -20.748906 C 13.378444 -19.784062 13.218287 -18.760625 13.13235 -17.674687 C 13.046412 -16.592656 13.003444 -15.416875 13.003444 -14.15125 C 13.003444 -12.448125 13.046412 -10.65125 13.13235 -8.748906 C 13.218287 -6.850469 13.261256 -4.90125 13.261256 -2.90125 C 13.261256 -1.90125 13.187037 -0.940312 13.034694 -0.02625 C 12.886256 0.891719 12.56985 1.708125 12.085475 2.426875 C 11.6011 3.141719 10.937037 3.708125 10.085475 4.126094 C 9.237819 4.540156 8.112819 4.751094 6.710475 4.751094 C 5.175319 4.751094 3.718287 4.583125 2.335475 4.251094 C 0.952662 3.915156 -0.223119 3.450313 -1.187963 2.84875 Z M 9.562037 -14.549687 C 9.265162 -15.350469 8.737819 -16.084844 7.980006 -16.748906 C 7.222194 -17.416875 6.151881 -17.748906 4.769069 -17.748906 C 3.749537 -17.748906 2.917506 -17.385625 2.272975 -16.65125 C 1.63235 -15.916875 1.312037 -14.885625 1.312037 -13.549687 C 1.312037 -12.6825 1.483912 -11.967656 1.831569 -11.40125 C 2.175319 -10.834844 2.644069 -10.385625 3.237819 -10.049687 C 3.831569 -9.717656 4.503444 -9.483281 5.261256 -9.350469 C 6.019069 -9.217656 6.792506 -9.15125 7.585475 -9.15125 C 7.9136 -9.15125 8.241725 -9.159062 8.573756 -9.174687 C 8.901881 -9.190312 9.230006 -9.217656 9.562037 -9.248906 Z M 9.562037 -14.549687 " transform="matrix(1, 0, 0, -1, 7174.4614, 5757.13)"/>
<path xmlns="http://www.w3.org/2000/svg" fill="none" stroke-width="9" stroke-linecap="butt" stroke-linejoin="round" stroke="rgb(100%, 100%, 100%)" stroke-opacity="1" stroke-miterlimit="4" d="M -0.000025 -0.00085 L -0.000025 16.198369 C -0.000025 18.034306 -0.14065 19.549931 -0.425806 20.74915 C -0.707056 21.948369 -1.125025 22.909306 -1.675806 23.62415 C -2.226588 24.3429 -2.910181 24.850712 -3.726588 25.151494 C -4.542994 25.448369 -5.4844 25.600712 -6.550806 25.600712 C -8.050806 25.600712 -9.343775 25.284306 -10.425806 24.651494 C -11.507838 24.018681 -12.367213 23.24915 -13.000025 22.350712 L -13.148463 22.350712 L -13.800806 24.99915 L -16.398463 24.99915 L -16.398463 -0.00085 L -12.800806 -0.00085 L -12.800806 18.198369 C -12.398463 19.366337 -11.76565 20.350712 -10.898463 21.151494 C -10.035181 21.948369 -8.933619 22.350712 -7.601588 22.350712 C -6.101588 22.350712 -5.058619 21.792119 -4.476588 20.674931 C -3.89065 19.557744 -3.601588 17.74915 -3.601588 15.24915 L -3.601588 -0.00085 Z M -0.000025 -0.00085 " transform="matrix(1, 0, 0, -1, 7208.9219, 5777.7804)"/>
<path xmlns="http://www.w3.org/2000/svg" fill-rule="nonzero" fill="rgb(100%, 100%, 100%)" fill-opacity="1" d="M 7157.257812 5433.3125 C 7151.054688 5433.3125 7146.007812 5428.269531 7146.007812 5422.0625 C 7146.007812 5415.859375 7151.054688 5410.8125 7157.257812 5410.8125 C 7163.460938 5410.8125 7168.507812 5415.859375 7168.507812 5422.0625 C 7168.507812 5428.269531 7163.460938 5433.3125 7157.257812 5433.3125 "/>
<path xmlns="http://www.w3.org/2000/svg" fill="none" stroke-width="0.5" stroke-linecap="round" stroke-linejoin="round" stroke="rgb(10.572815%, 9.655762%, 10.258484%)" stroke-opacity="1" stroke-dasharray="9.997 4.999" stroke-miterlimit="4" d="M 0.0015 0.00009375 L 0.0015 -6070.855375 " transform="matrix(1, 0, 0, -1, 7494.9985, 638.254)"/>
<path xmlns="http://www.w3.org/2000/svg" fill="none" stroke-width="0.5" stroke-linecap="round" stroke-linejoin="round" stroke="rgb(10.572815%, 9.655762%, 10.258484%)" stroke-opacity="1" stroke-miterlimit="4" d="M 0.0015 0.00143125 L 0.0015 -4.998569 " transform="matrix(1, 0, 0, -1, 7494.9985, 6711.6069)"/>
<path xmlns="http://www.w3.org/2000/svg" fill="none" stroke-width="0.5" stroke-linecap="round" stroke-linejoin="round" stroke="rgb(10.572815%, 9.655762%, 10.258484%)" stroke-opacity="1" stroke-dasharray="9.997 4.999" stroke-miterlimit="4" d="M -0.001175 0.0014375 L 8590.1707 0.0014375 " transform="matrix(1, 0, 0, -1, 29.3293, 5592.1655)"/>
<path xmlns="http://www.w3.org/2000/svg" fill="none" stroke-width="0.5" stroke-linecap="round" stroke-linejoin="round" stroke="rgb(10.572815%, 9.655762%, 10.258484%)" stroke-opacity="1" stroke-miterlimit="4" d="M 0 0.0014375 L 5 0.0014375 " transform="matrix(1, 0, 0, -1, 8622, 5592.1655)"/>
<path xmlns="http://www.w3.org/2000/svg" fill="none" stroke-width="0.5" stroke-linecap="round" stroke-linejoin="round" stroke="rgb(10.572815%, 9.655762%, 10.258484%)" stroke-opacity="1" stroke-dasharray="9.997 4.999" stroke-miterlimit="4" d="M -0.001175 -0.001275 L 8590.1707 -0.001275 " transform="matrix(1, 0, 0, -1, 29.3293, 6660.2956)"/>
<path xmlns="http://www.w3.org/2000/svg" fill="none" stroke-width="0.5" stroke-linecap="round" stroke-linejoin="round" stroke="rgb(10.572815%, 9.655762%, 10.258484%)" stroke-opacity="1" stroke-miterlimit="4" d="M 0 -0.001275 L 5 -0.001275 " transform="matrix(1, 0, 0, -1, 8622, 6660.2956)"/>
<path xmlns="http://www.w3.org/2000/svg" fill="none" stroke-width="0.5" stroke-linecap="round" stroke-linejoin="round" stroke="rgb(10.572815%, 9.655762%, 10.258484%)" stroke-opacity="1" stroke-dasharray="9.997 4.999" stroke-miterlimit="4" d="M -0.00195 0.00009375 L -0.00195 -6070.855375 " transform="matrix(1, 0, 0, -1, 8552.4082, 638.254)"/>
<path xmlns="http://www.w3.org/2000/svg" fill="none" stroke-width="0.5" stroke-linecap="round" stroke-linejoin="round" stroke="rgb(10.572815%, 9.655762%, 10.258484%)" stroke-opacity="1" stroke-miterlimit="4" d="M -0.00195 0.00143125 L -0.00195 -4.998569 " transform="matrix(1, 0, 0, -1, 8552.4082, 6711.6069)"/>
<g xmlns="http://www.w3.org/2000/svg" clip-path="url(#clip-2692)"><path fill-rule="nonzero" fill="rgb(100%, 100%, 100%)" fill-opacity="1" d="M 8627 626.714844 L 0.253906 626.714844 L 0.253906 6726.714844 L 8627 6726.714844 Z M 8552.207031 6651.945312 L 75.042969 6651.945312 L 75.042969 701.484375 L 8552.207031 701.484375 Z M 8552.207031 6651.945312 "/></g>
<g xmlns="http://www.w3.org/2000/svg" clip-path="url(#clip-2693)"><path fill="none" stroke-width="0.373" stroke-linecap="butt" stroke-linejoin="miter" stroke="rgb(10.572815%, 9.655762%, 10.258484%)" stroke-opacity="1" stroke-miterlimit="10" d="M 8627 6100.165156 L 0.253906 6100.165156 L 0.253906 0.165156 L 8627 0.165156 Z M 8552.207031 74.934688 L 75.042969 74.934688 L 75.042969 6025.395625 L 8552.207031 6025.395625 Z M 8552.207031 74.934688 " transform="matrix(1, 0, 0, -1, 0, 6726.88)"/></g>
<path xmlns="http://www.w3.org/2000/svg" fill-rule="nonzero" fill="rgb(100%, 100%, 100%)" fill-opacity="1" d="M 7229.144531 5335.300781 L 7229.144531 5342.941406 C 7229.144531 5343.8125 7228.449219 5344.675781 7227.59375 5344.863281 C 7227.59375 5344.863281 7222.503906 5345.753906 7215.390625 5345.753906 C 7208.273438 5345.753906 7203.183594 5344.855469 7203.183594 5344.855469 C 7202.332031 5344.675781 7201.632812 5343.8125 7201.632812 5342.941406 L 7201.632812 5327.003906 C 7201.632812 5326.132812 7202.328125 5325.265625 7203.183594 5325.082031 C 7203.183594 5325.082031 7208.109375 5324.1875 7215.226562 5324.1875 C 7222.34375 5324.1875 7227.59375 5325.089844 7227.59375 5325.089844 C 7228.445312 5325.269531 7229.144531 5326.132812 7229.144531 5327.003906 Z M 7226.617188 5351.738281 C 7225.441406 5351.738281 7224.484375 5350.785156 7224.484375 5349.605469 C 7224.484375 5348.425781 7225.441406 5347.472656 7226.617188 5347.472656 C 7227.796875 5347.472656 7228.753906 5348.425781 7228.753906 5349.605469 C 7228.753906 5350.785156 7227.796875 5351.738281 7226.617188 5351.738281 M 7204.324219 5351.738281 C 7203.148438 5351.738281 7202.191406 5350.785156 7202.191406 5349.605469 C 7202.191406 5348.425781 7203.148438 5347.472656 7204.324219 5347.472656 C 7205.503906 5347.472656 7206.457031 5348.425781 7206.457031 5349.605469 C 7206.457031 5350.785156 7205.503906 5351.738281 7204.324219 5351.738281 M 7232.875 5327.738281 L 7231.089844 5327.738281 L 7231.089844 5322.453125 C 7231.089844 5321.894531 7230.660156 5321.292969 7230.128906 5321.117188 C 7230.128906 5321.117188 7225.164062 5319.484375 7215.390625 5319.484375 C 7205.613281 5319.484375 7200.648438 5321.117188 7200.648438 5321.117188 C 7200.121094 5321.292969 7199.6875 5321.894531 7199.6875 5322.453125 L 7199.6875 5327.738281 L 7197.902344 5327.738281 C 7197.34375 5327.738281 7196.890625 5328.195312 7196.890625 5328.753906 L 7196.890625 5336.5 C 7196.890625 5337.058594 7197.34375 5337.515625 7197.902344 5337.515625 L 7199.6875 5337.515625 L 7199.6875 5355.714844 C 7199.6875 5356.273438 7200.144531 5356.726562 7200.699219 5356.726562 L 7202.902344 5356.726562 L 7202.902344 5359.933594 C 7202.902344 5360.515625 7203.460938 5360.988281 7204.140625 5360.988281 L 7206.445312 5360.988281 C 7207.125 5360.988281 7207.683594 5360.515625 7207.683594 5359.933594 L 7207.683594 5356.726562 L 7223.300781 5356.726562 L 7223.300781 5359.933594 C 7223.300781 5360.515625 7223.855469 5360.988281 7224.539062 5360.988281 L 7226.839844 5360.988281 C 7227.523438 5360.988281 7228.082031 5360.515625 7228.082031 5359.933594 L 7228.082031 5356.726562 L 7230.078125 5356.726562 C 7230.636719 5356.726562 7231.089844 5356.273438 7231.089844 5355.714844 L 7231.089844 5337.515625 L 7232.875 5337.515625 C 7233.433594 5337.515625 7233.890625 5337.058594 7233.890625 5336.5 L 7233.890625 5328.753906 C 7233.890625 5328.195312 7233.433594 5327.738281 7232.875 5327.738281 "/>
</svg>
