<?xml version="1.0" encoding="UTF-8"?>
<svg xmlns="http://www.w3.org/2000/svg" xmlns:xlink="http://www.w3.org/1999/xlink" viewBox="2378.3925 3363.44 2378.3925 1681.72" width="2378.3925" height="1681.72">
<path xmlns="http://www.w3.org/2000/svg" fill-rule="nonzero" fill="rgb(100%, 100%, 100%)" fill-opacity="1" d="M 3835.679688 3913.882812 C 3824.648438 3913.882812 3815.679688 3904.910156 3815.679688 3893.882812 C 3815.679688 3882.855469 3824.648438 3873.882812 3835.679688 3873.882812 C 3846.707031 3873.882812 3855.679688 3882.855469 3855.679688 3893.882812 C 3855.679688 3904.910156 3846.707031 3913.882812 3835.679688 3913.882812 "/>
<path xmlns="http://www.w3.org/2000/svg" fill-rule="nonzero" fill="rgb(100%, 100%, 100%)" fill-opacity="1" d="M 3958.140625 3821.375 C 3936.171875 3821.375 3918.296875 3803.5 3918.296875 3781.53125 C 3918.296875 3759.5625 3936.171875 3741.6875 3958.140625 3741.6875 C 3980.109375 3741.6875 3997.984375 3759.5625 3997.984375 3781.53125 C 3997.984375 3803.5 3980.109375 3821.375 3958.140625 3821.375 "/>
<path xmlns="http://www.w3.org/2000/svg" fill-rule="nonzero" fill="rgb(100%, 100%, 100%)" fill-opacity="1" d="M 3861.039062 3823.0625 C 3839.070312 3823.0625 3821.199219 3805.191406 3821.199219 3783.21875 C 3821.199219 3761.25 3839.070312 3743.375 3861.039062 3743.375 C 3883.011719 3743.375 3900.882812 3761.25 3900.882812 3783.21875 C 3900.882812 3805.191406 3883.011719 3823.0625 3861.039062 3823.0625 "/>
<path xmlns="http://www.w3.org/2000/svg" fill-rule="nonzero" fill="rgb(100%, 100%, 100%)" fill-opacity="1" d="M 3834.574219 3874.617188 C 3823.546875 3874.617188 3814.574219 3865.648438 3814.574219 3854.617188 C 3814.574219 3843.589844 3823.546875 3834.617188 3834.574219 3834.617188 C 3845.601562 3834.617188 3854.574219 3843.589844 3854.574219 3854.617188 C 3854.574219 3865.648438 3845.601562 3874.617188 3834.574219 3874.617188 "/>
<path xmlns="http://www.w3.org/2000/svg" fill-rule="nonzero" fill="rgb(100%, 100%, 100%)" fill-opacity="1" d="M 4294.34375 4161.65625 C 4283.316406 4161.65625 4274.34375 4152.683594 4274.34375 4141.65625 C 4274.34375 4130.628906 4283.316406 4121.65625 4294.34375 4121.65625 C 4305.371094 4121.65625 4314.34375 4130.628906 4314.34375 4141.65625 C 4314.34375 4152.683594 4305.371094 4161.65625 4294.34375 4161.65625 "/>
<path xmlns="http://www.w3.org/2000/svg" fill-rule="nonzero" fill="rgb(100%, 100%, 100%)" fill-opacity="1" d="M 4334.222656 4161.65625 C 4323.195312 4161.65625 4314.222656 4152.683594 4314.222656 4141.65625 C 4314.222656 4130.628906 4323.195312 4121.65625 4334.222656 4121.65625 C 4345.25 4121.65625 4354.222656 4130.628906 4354.222656 4141.65625 C 4354.222656 4152.683594 4345.25 4161.65625 4334.222656 4161.65625 "/>
<path xmlns="http://www.w3.org/2000/svg" fill-rule="nonzero" fill="rgb(100%, 100%, 100%)" fill-opacity="1" d="M 4294.34375 4445.453125 C 4283.316406 4445.453125 4274.34375 4436.480469 4274.34375 4425.453125 C 4274.34375 4414.425781 4283.316406 4405.453125 4294.34375 4405.453125 C 4305.371094 4405.453125 4314.34375 4414.425781 4314.34375 4425.453125 C 4314.34375 4436.480469 4305.371094 4445.453125 4294.34375 4445.453125 "/>
<path xmlns="http://www.w3.org/2000/svg" fill-rule="nonzero" fill="rgb(100%, 100%, 100%)" fill-opacity="1" d="M 4334.222656 4445.453125 C 4323.195312 4445.453125 4314.222656 4436.480469 4314.222656 4425.453125 C 4314.222656 4414.425781 4323.195312 4405.453125 4334.222656 4405.453125 C 4345.25 4405.453125 4354.222656 4414.425781 4354.222656 4425.453125 C 4354.222656 4436.480469 4345.25 4445.453125 4334.222656 4445.453125 "/>
<path xmlns="http://www.w3.org/2000/svg" fill-rule="nonzero" fill="rgb(100%, 100%, 100%)" fill-opacity="1" d="M 4294.34375 4539.898438 C 4283.316406 4539.898438 4274.34375 4530.925781 4274.34375 4519.898438 C 4274.34375 4508.871094 4283.316406 4499.898438 4294.34375 4499.898438 C 4305.371094 4499.898438 4314.34375 4508.871094 4314.34375 4519.898438 C 4314.34375 4530.925781 4305.371094 4539.898438 4294.34375 4539.898438 "/>
<path xmlns="http://www.w3.org/2000/svg" fill-rule="nonzero" fill="rgb(100%, 100%, 100%)" fill-opacity="1" d="M 4334.222656 4539.898438 C 4323.195312 4539.898438 4314.222656 4530.925781 4314.222656 4519.898438 C 4314.222656 4508.871094 4323.195312 4499.898438 4334.222656 4499.898438 C 4345.25 4499.898438 4354.222656 4508.871094 4354.222656 4519.898438 C 4354.222656 4530.925781 4345.25 4539.898438 4334.222656 4539.898438 "/>
<path xmlns="http://www.w3.org/2000/svg" fill-rule="nonzero" fill="rgb(100%, 100%, 100%)" fill-opacity="1" d="M 4687.144531 4867.683594 C 4676.113281 4867.683594 4667.144531 4858.710938 4667.144531 4847.683594 C 4667.144531 4836.65625 4676.113281 4827.683594 4687.144531 4827.683594 C 4698.171875 4827.683594 4707.144531 4836.65625 4707.144531 4847.683594 C 4707.144531 4858.710938 4698.171875 4867.683594 4687.144531 4867.683594 "/>
<path xmlns="http://www.w3.org/2000/svg" fill-rule="nonzero" fill="rgb(100%, 100%, 100%)" fill-opacity="1" d="M 4686.039062 4828.417969 C 4675.011719 4828.417969 4666.039062 4819.445312 4666.039062 4808.417969 C 4666.039062 4797.390625 4675.011719 4788.417969 4686.039062 4788.417969 C 4697.066406 4788.417969 4706.039062 4797.390625 4706.039062 4808.417969 C 4706.039062 4819.445312 4697.066406 4828.417969 4686.039062 4828.417969 "/>
<path xmlns="http://www.w3.org/2000/svg" fill-rule="nonzero" fill="rgb(10.572815%, 9.655762%, 10.258484%)" fill-opacity="1" d="M 3264.199219 4672.851562 C 3256.757812 4672.851562 3250.699219 4678.90625 3250.699219 4686.351562 C 3250.699219 4693.792969 3256.757812 4699.851562 3264.199219 4699.851562 C 3271.644531 4699.851562 3277.699219 4693.792969 3277.699219 4686.351562 C 3277.699219 4678.90625 3271.644531 4672.851562 3264.199219 4672.851562 M 3264.199219 4677.351562 C 3269.171875 4677.351562 3273.199219 4681.378906 3273.199219 4686.351562 C 3273.199219 4691.320312 3269.171875 4695.351562 3264.199219 4695.351562 C 3259.230469 4695.351562 3255.199219 4691.320312 3255.199219 4686.351562 C 3255.199219 4681.378906 3259.230469 4677.351562 3264.199219 4677.351562 "/>
<path xmlns="http://www.w3.org/2000/svg" fill-rule="nonzero" fill="rgb(10.572815%, 9.655762%, 10.258484%)" fill-opacity="1" d="M 3123.875 4754.269531 C 3116.433594 4754.269531 3110.375 4760.324219 3110.375 4767.769531 C 3110.375 4775.210938 3116.433594 4781.269531 3123.875 4781.269531 C 3131.320312 4781.269531 3137.375 4775.210938 3137.375 4767.769531 C 3137.375 4760.324219 3131.320312 4754.269531 3123.875 4754.269531 M 3123.875 4758.769531 C 3128.847656 4758.769531 3132.875 4762.796875 3132.875 4767.769531 C 3132.875 4772.738281 3128.847656 4776.769531 3123.875 4776.769531 C 3118.90625 4776.769531 3114.875 4772.738281 3114.875 4767.769531 C 3114.875 4762.796875 3118.90625 4758.769531 3123.875 4758.769531 "/>
<path xmlns="http://www.w3.org/2000/svg" fill-rule="nonzero" fill="rgb(10.572815%, 9.655762%, 10.258484%)" fill-opacity="1" d="M 3123.875 4780.265625 C 3116.433594 4780.265625 3110.375 4786.320312 3110.375 4793.765625 C 3110.375 4801.210938 3116.433594 4807.265625 3123.875 4807.265625 C 3131.320312 4807.265625 3137.375 4801.210938 3137.375 4793.765625 C 3137.375 4786.320312 3131.320312 4780.265625 3123.875 4780.265625 M 3123.875 4784.765625 C 3128.847656 4784.765625 3132.875 4788.792969 3132.875 4793.765625 C 3132.875 4798.734375 3128.847656 4802.765625 3123.875 4802.765625 C 3118.90625 4802.765625 3114.875 4798.734375 3114.875 4793.765625 C 3114.875 4788.792969 3118.90625 4784.765625 3123.875 4784.765625 "/>
<path xmlns="http://www.w3.org/2000/svg" fill-rule="nonzero" fill="rgb(10.572815%, 9.655762%, 10.258484%)" fill-opacity="1" d="M 3577.667969 4754.269531 C 3570.226562 4754.269531 3564.167969 4760.324219 3564.167969 4767.769531 C 3564.167969 4775.210938 3570.226562 4781.269531 3577.667969 4781.269531 C 3585.113281 4781.269531 3591.167969 4775.210938 3591.167969 4767.769531 C 3591.167969 4760.324219 3585.113281 4754.269531 3577.667969 4754.269531 M 3577.667969 4758.769531 C 3582.640625 4758.769531 3586.667969 4762.796875 3586.667969 4767.769531 C 3586.667969 4772.738281 3582.640625 4776.769531 3577.667969 4776.769531 C 3572.699219 4776.769531 3568.667969 4772.738281 3568.667969 4767.769531 C 3568.667969 4762.796875 3572.699219 4758.769531 3577.667969 4758.769531 "/>
<path xmlns="http://www.w3.org/2000/svg" fill-rule="nonzero" fill="rgb(10.572815%, 9.655762%, 10.258484%)" fill-opacity="1" d="M 3577.667969 4728.269531 C 3570.226562 4728.269531 3564.167969 4734.324219 3564.167969 4741.769531 C 3564.167969 4749.210938 3570.226562 4755.269531 3577.667969 4755.269531 C 3585.113281 4755.269531 3591.167969 4749.210938 3591.167969 4741.769531 C 3591.167969 4734.324219 3585.113281 4728.269531 3577.667969 4728.269531 M 3577.667969 4732.769531 C 3582.640625 4732.769531 3586.667969 4736.796875 3586.667969 4741.769531 C 3586.667969 4746.738281 3582.640625 4750.769531 3577.667969 4750.769531 C 3572.699219 4750.769531 3568.667969 4746.738281 3568.667969 4741.769531 C 3568.667969 4736.796875 3572.699219 4732.769531 3577.667969 4732.769531 "/>
<path xmlns="http://www.w3.org/2000/svg" fill-rule="nonzero" fill="rgb(10.572815%, 9.655762%, 10.258484%)" fill-opacity="1" d="M 3288.644531 4672.289062 C 3281.203125 4672.289062 3275.144531 4678.347656 3275.144531 4685.789062 C 3275.144531 4693.234375 3281.203125 4699.289062 3288.644531 4699.289062 C 3296.089844 4699.289062 3302.144531 4693.234375 3302.144531 4685.789062 C 3302.144531 4678.347656 3296.089844 4672.289062 3288.644531 4672.289062 M 3288.644531 4676.789062 C 3293.617188 4676.789062 3297.644531 4680.820312 3297.644531 4685.789062 C 3297.644531 4690.761719 3293.617188 4694.789062 3288.644531 4694.789062 C 3283.675781 4694.789062 3279.644531 4690.761719 3279.644531 4685.789062 C 3279.644531 4680.820312 3283.675781 4676.789062 3288.644531 4676.789062 "/>
<path xmlns="http://www.w3.org/2000/svg" fill-rule="nonzero" fill="rgb(10.572815%, 9.655762%, 10.258484%)" fill-opacity="1" d="M 3767.878906 4908.421875 C 3764.273438 4908.421875 3760.882812 4909.824219 3758.332031 4912.375 C 3753.070312 4917.636719 3753.070312 4926.203125 3758.332031 4931.464844 C 3760.882812 4934.015625 3764.273438 4935.421875 3767.878906 4935.421875 C 3771.484375 4935.421875 3774.875 4934.015625 3777.425781 4931.464844 C 3782.6875 4926.203125 3782.6875 4917.636719 3777.425781 4912.375 C 3774.875 4909.824219 3771.484375 4908.421875 3767.878906 4908.421875 M 3767.878906 4912.921875 C 3770.183594 4912.921875 3772.484375 4913.800781 3774.242188 4915.554688 C 3777.757812 4919.070312 3777.757812 4924.769531 3774.242188 4928.285156 C 3772.484375 4930.042969 3770.183594 4930.921875 3767.878906 4930.921875 C 3765.574219 4930.921875 3763.273438 4930.042969 3761.515625 4928.285156 C 3758 4924.769531 3758 4919.070312 3761.515625 4915.554688 C 3763.273438 4913.800781 3765.574219 4912.921875 3767.878906 4912.921875 "/>
<path xmlns="http://www.w3.org/2000/svg" fill-rule="nonzero" fill="rgb(10.572815%, 9.655762%, 10.258484%)" fill-opacity="1" d="M 3786.140625 4890.160156 C 3782.535156 4890.160156 3779.144531 4891.5625 3776.59375 4894.113281 C 3771.328125 4899.378906 3771.328125 4907.941406 3776.59375 4913.203125 C 3779.144531 4915.753906 3782.535156 4917.160156 3786.140625 4917.160156 C 3789.746094 4917.160156 3793.136719 4915.753906 3795.6875 4913.207031 C 3800.949219 4907.941406 3800.949219 4899.378906 3795.6875 4894.113281 C 3793.136719 4891.5625 3789.746094 4890.160156 3786.140625 4890.160156 M 3786.140625 4894.660156 C 3788.441406 4894.660156 3790.746094 4895.539062 3792.503906 4897.296875 C 3796.019531 4900.8125 3796.019531 4906.507812 3792.503906 4910.023438 C 3790.746094 4911.78125 3788.441406 4912.660156 3786.140625 4912.660156 C 3783.835938 4912.660156 3781.535156 4911.78125 3779.777344 4910.023438 C 3776.261719 4906.507812 3776.261719 4900.8125 3779.777344 4897.296875 C 3781.53125 4895.539062 3783.835938 4894.660156 3786.140625 4894.660156 "/>
<path xmlns="http://www.w3.org/2000/svg" fill-rule="nonzero" fill="rgb(10.572815%, 9.655762%, 10.258484%)" fill-opacity="1" d="M 4686.199219 4895.21875 C 4678.753906 4895.21875 4672.699219 4901.273438 4672.699219 4908.71875 C 4672.699219 4916.160156 4678.753906 4922.21875 4686.199219 4922.21875 C 4693.644531 4922.21875 4699.699219 4916.160156 4699.699219 4908.71875 C 4699.699219 4901.273438 4693.644531 4895.21875 4686.199219 4895.21875 M 4686.199219 4899.71875 C 4691.167969 4899.71875 4695.199219 4903.746094 4695.199219 4908.71875 C 4695.199219 4913.6875 4691.167969 4917.71875 4686.199219 4917.71875 C 4681.230469 4917.71875 4677.199219 4913.6875 4677.199219 4908.71875 C 4677.199219 4903.746094 4681.230469 4899.71875 4686.199219 4899.71875 "/>
<path xmlns="http://www.w3.org/2000/svg" fill-rule="nonzero" fill="rgb(10.572815%, 9.655762%, 10.258484%)" fill-opacity="1" d="M 4686.199219 4869.199219 C 4678.753906 4869.199219 4672.699219 4875.257812 4672.699219 4882.699219 C 4672.699219 4890.144531 4678.753906 4896.199219 4686.199219 4896.199219 C 4693.644531 4896.199219 4699.699219 4890.144531 4699.699219 4882.699219 C 4699.699219 4875.257812 4693.644531 4869.199219 4686.199219 4869.199219 M 4686.199219 4873.699219 C 4691.167969 4873.699219 4695.199219 4877.730469 4695.199219 4882.699219 C 4695.199219 4887.671875 4691.167969 4891.699219 4686.199219 4891.699219 C 4681.230469 4891.699219 4677.199219 4887.671875 4677.199219 4882.699219 C 4677.199219 4877.730469 4681.230469 4873.699219 4686.199219 4873.699219 "/>
<path xmlns="http://www.w3.org/2000/svg" fill-rule="nonzero" fill="rgb(10.572815%, 9.655762%, 10.258484%)" fill-opacity="1" d="M 4303.417969 4869.773438 C 4295.972656 4869.773438 4289.917969 4875.828125 4289.917969 4883.273438 C 4289.917969 4890.71875 4295.972656 4896.773438 4303.417969 4896.773438 C 4310.863281 4896.773438 4316.917969 4890.71875 4316.917969 4883.273438 C 4316.917969 4875.828125 4310.863281 4869.773438 4303.417969 4869.773438 M 4303.417969 4874.273438 C 4308.386719 4874.273438 4312.417969 4878.304688 4312.417969 4883.273438 C 4312.417969 4888.242188 4308.386719 4892.273438 4303.417969 4892.273438 C 4298.445312 4892.273438 4294.417969 4888.242188 4294.417969 4883.273438 C 4294.417969 4878.304688 4298.445312 4874.273438 4303.417969 4874.273438 "/>
<path xmlns="http://www.w3.org/2000/svg" fill-rule="nonzero" fill="rgb(10.572815%, 9.655762%, 10.258484%)" fill-opacity="1" d="M 4483.699219 4870.960938 C 4476.253906 4870.960938 4470.199219 4877.019531 4470.199219 4884.460938 C 4470.199219 4891.90625 4476.253906 4897.960938 4483.699219 4897.960938 C 4491.144531 4897.960938 4497.199219 4891.90625 4497.199219 4884.460938 C 4497.199219 4877.019531 4491.144531 4870.960938 4483.699219 4870.960938 M 4483.699219 4875.460938 C 4488.671875 4875.460938 4492.699219 4879.492188 4492.699219 4884.460938 C 4492.699219 4889.433594 4488.671875 4893.460938 4483.699219 4893.460938 C 4478.730469 4893.460938 4474.699219 4889.433594 4474.699219 4884.460938 C 4474.699219 4879.492188 4478.730469 4875.460938 4483.699219 4875.460938 "/>
<path xmlns="http://www.w3.org/2000/svg" fill-rule="nonzero" fill="rgb(10.572815%, 9.655762%, 10.258484%)" fill-opacity="1" d="M 4213.699219 4807.421875 C 4206.253906 4807.421875 4200.199219 4813.480469 4200.199219 4820.921875 C 4200.199219 4828.367188 4206.253906 4834.421875 4213.699219 4834.421875 C 4221.144531 4834.421875 4227.199219 4828.367188 4227.199219 4820.921875 C 4227.199219 4813.480469 4221.144531 4807.421875 4213.699219 4807.421875 M 4213.699219 4811.921875 C 4218.671875 4811.921875 4222.699219 4815.953125 4222.699219 4820.921875 C 4222.699219 4825.894531 4218.671875 4829.921875 4213.699219 4829.921875 C 4208.730469 4829.921875 4204.699219 4825.894531 4204.699219 4820.921875 C 4204.699219 4815.953125 4208.730469 4811.921875 4213.699219 4811.921875 "/>
<path xmlns="http://www.w3.org/2000/svg" fill-rule="nonzero" fill="rgb(10.572815%, 9.655762%, 10.258484%)" fill-opacity="1" d="M 4213.699219 4600.847656 C 4206.253906 4600.847656 4200.199219 4606.902344 4200.199219 4614.347656 C 4200.199219 4621.789062 4206.253906 4627.847656 4213.699219 4627.847656 C 4221.144531 4627.847656 4227.199219 4621.789062 4227.199219 4614.347656 C 4227.199219 4606.902344 4221.144531 4600.847656 4213.699219 4600.847656 M 4213.699219 4605.347656 C 4218.671875 4605.347656 4222.699219 4609.375 4222.699219 4614.347656 C 4222.699219 4619.316406 4218.671875 4623.347656 4213.699219 4623.347656 C 4208.730469 4623.347656 4204.699219 4619.316406 4204.699219 4614.347656 C 4204.699219 4609.375 4208.730469 4605.347656 4213.699219 4605.347656 "/>
<path xmlns="http://www.w3.org/2000/svg" fill-rule="nonzero" fill="rgb(10.572815%, 9.655762%, 10.258484%)" fill-opacity="1" d="M 4213.699219 4317.507812 C 4206.253906 4317.507812 4200.199219 4323.5625 4200.199219 4331.007812 C 4200.199219 4338.449219 4206.253906 4344.507812 4213.699219 4344.507812 C 4221.144531 4344.507812 4227.199219 4338.449219 4227.199219 4331.007812 C 4227.199219 4323.5625 4221.144531 4317.507812 4213.699219 4317.507812 M 4213.699219 4322.007812 C 4218.671875 4322.007812 4222.699219 4326.035156 4222.699219 4331.007812 C 4222.699219 4335.976562 4218.671875 4340.007812 4213.699219 4340.007812 C 4208.730469 4340.007812 4204.699219 4335.976562 4204.699219 4331.007812 C 4204.699219 4326.035156 4208.730469 4322.007812 4213.699219 4322.007812 "/>
<path xmlns="http://www.w3.org/2000/svg" fill-rule="nonzero" fill="rgb(10.572815%, 9.655762%, 10.258484%)" fill-opacity="1" d="M 4213.699219 4223.058594 C 4206.253906 4223.058594 4200.199219 4229.117188 4200.199219 4236.558594 C 4200.199219 4244.003906 4206.253906 4250.058594 4213.699219 4250.058594 C 4221.144531 4250.058594 4227.199219 4244.003906 4227.199219 4236.558594 C 4227.199219 4229.117188 4221.144531 4223.058594 4213.699219 4223.058594 M 4213.699219 4227.558594 C 4218.671875 4227.558594 4222.699219 4231.589844 4222.699219 4236.558594 C 4222.699219 4241.53125 4218.671875 4245.558594 4213.699219 4245.558594 C 4208.730469 4245.558594 4204.699219 4241.53125 4204.699219 4236.558594 C 4204.699219 4231.589844 4208.730469 4227.558594 4213.699219 4227.558594 "/>
<path xmlns="http://www.w3.org/2000/svg" fill-rule="nonzero" fill="rgb(10.572815%, 9.655762%, 10.258484%)" fill-opacity="1" d="M 4213.699219 4128.347656 C 4206.253906 4128.347656 4200.199219 4134.402344 4200.199219 4141.847656 C 4200.199219 4149.289062 4206.253906 4155.347656 4213.699219 4155.347656 C 4221.144531 4155.347656 4227.199219 4149.289062 4227.199219 4141.847656 C 4227.199219 4134.402344 4221.144531 4128.347656 4213.699219 4128.347656 M 4213.699219 4132.847656 C 4218.671875 4132.847656 4222.699219 4136.875 4222.699219 4141.847656 C 4222.699219 4146.816406 4218.671875 4150.847656 4213.699219 4150.847656 C 4208.730469 4150.847656 4204.699219 4146.816406 4204.699219 4141.847656 C 4204.699219 4136.875 4208.730469 4132.847656 4213.699219 4132.847656 "/>
<path xmlns="http://www.w3.org/2000/svg" fill-rule="nonzero" fill="rgb(10.572815%, 9.655762%, 10.258484%)" fill-opacity="1" d="M 3277.570312 4479.011719 C 3270.125 4479.011719 3264.070312 4485.070312 3264.070312 4492.511719 C 3264.070312 4499.957031 3270.125 4506.011719 3277.570312 4506.011719 C 3285.011719 4506.011719 3291.070312 4499.957031 3291.070312 4492.511719 C 3291.070312 4485.070312 3285.011719 4479.011719 3277.570312 4479.011719 M 3277.570312 4483.511719 C 3282.539062 4483.511719 3286.570312 4487.542969 3286.570312 4492.511719 C 3286.570312 4497.484375 3282.539062 4501.511719 3277.570312 4501.511719 C 3272.597656 4501.511719 3268.570312 4497.484375 3268.570312 4492.511719 C 3268.570312 4487.542969 3272.597656 4483.511719 3277.570312 4483.511719 "/>
<path xmlns="http://www.w3.org/2000/svg" fill-rule="nonzero" fill="rgb(10.572815%, 9.655762%, 10.258484%)" fill-opacity="1" d="M 3259.566406 4462.011719 C 3252.125 4462.011719 3246.066406 4468.066406 3246.066406 4475.511719 C 3246.066406 4482.957031 3252.125 4489.011719 3259.566406 4489.011719 C 3267.011719 4489.011719 3273.066406 4482.957031 3273.066406 4475.511719 C 3273.066406 4468.066406 3267.011719 4462.011719 3259.566406 4462.011719 M 3259.566406 4466.511719 C 3264.539062 4466.511719 3268.566406 4470.542969 3268.566406 4475.511719 C 3268.566406 4480.480469 3264.539062 4484.511719 3259.566406 4484.511719 C 3254.597656 4484.511719 3250.566406 4480.480469 3250.566406 4475.511719 C 3250.566406 4470.542969 3254.597656 4466.511719 3259.566406 4466.511719 "/>
<path xmlns="http://www.w3.org/2000/svg" fill-rule="nonzero" fill="rgb(10.572815%, 9.655762%, 10.258484%)" fill-opacity="1" d="M 3345.617188 4377.4375 C 3338.171875 4377.4375 3332.117188 4383.492188 3332.117188 4390.9375 C 3332.117188 4398.382812 3338.171875 4404.4375 3345.617188 4404.4375 C 3353.0625 4404.4375 3359.117188 4398.382812 3359.117188 4390.9375 C 3359.117188 4383.492188 3353.0625 4377.4375 3345.617188 4377.4375 M 3345.617188 4381.9375 C 3350.589844 4381.9375 3354.617188 4385.964844 3354.617188 4390.9375 C 3354.617188 4395.90625 3350.589844 4399.9375 3345.617188 4399.9375 C 3340.644531 4399.9375 3336.617188 4395.90625 3336.617188 4390.9375 C 3336.617188 4385.964844 3340.644531 4381.9375 3345.617188 4381.9375 "/>
<path xmlns="http://www.w3.org/2000/svg" fill-rule="nonzero" fill="rgb(10.572815%, 9.655762%, 10.258484%)" fill-opacity="1" d="M 3619.917969 4138.589844 C 3616.3125 4138.589844 3612.921875 4139.996094 3610.371094 4142.546875 C 3607.824219 4145.09375 3606.417969 4148.484375 3606.417969 4152.089844 C 3606.417969 4155.699219 3607.824219 4159.085938 3610.371094 4161.636719 C 3612.921875 4164.1875 3616.3125 4165.589844 3619.917969 4165.589844 C 3623.523438 4165.589844 3626.914062 4164.1875 3629.464844 4161.636719 C 3632.011719 4159.085938 3633.417969 4155.699219 3633.417969 4152.089844 C 3633.417969 4148.484375 3632.015625 4145.09375 3629.464844 4142.546875 C 3626.914062 4139.996094 3623.523438 4138.589844 3619.917969 4138.589844 M 3619.917969 4143.089844 C 3622.222656 4143.089844 3624.523438 4143.96875 3626.28125 4145.726562 C 3629.796875 4149.242188 3629.796875 4154.941406 3626.28125 4158.457031 C 3624.523438 4160.210938 3622.222656 4161.089844 3619.917969 4161.089844 C 3617.617188 4161.089844 3615.3125 4160.210938 3613.554688 4158.457031 C 3610.039062 4154.941406 3610.039062 4149.242188 3613.554688 4145.726562 C 3615.3125 4143.96875 3617.617188 4143.089844 3619.917969 4143.089844 "/>
<path xmlns="http://www.w3.org/2000/svg" fill-rule="nonzero" fill="rgb(10.572815%, 9.655762%, 10.258484%)" fill-opacity="1" d="M 3696.199219 3990.027344 C 3688.757812 3990.027344 3682.699219 3996.085938 3682.699219 4003.527344 C 3682.699219 4010.972656 3688.757812 4017.027344 3696.199219 4017.027344 C 3703.644531 4017.027344 3709.699219 4010.972656 3709.699219 4003.527344 C 3709.699219 3996.085938 3703.644531 3990.027344 3696.199219 3990.027344 M 3696.199219 3994.527344 C 3701.171875 3994.527344 3705.199219 3998.558594 3705.199219 4003.527344 C 3705.199219 4008.5 3701.171875 4012.527344 3696.199219 4012.527344 C 3691.230469 4012.527344 3687.199219 4008.5 3687.199219 4003.527344 C 3687.199219 3998.558594 3691.230469 3994.527344 3696.199219 3994.527344 "/>
<path xmlns="http://www.w3.org/2000/svg" fill-rule="nonzero" fill="rgb(10.572815%, 9.655762%, 10.258484%)" fill-opacity="1" d="M 3696.199219 3581.769531 C 3688.757812 3581.769531 3682.699219 3587.828125 3682.699219 3595.269531 C 3682.699219 3602.714844 3688.757812 3608.769531 3696.199219 3608.769531 C 3703.644531 3608.769531 3709.699219 3602.714844 3709.699219 3595.269531 C 3709.699219 3587.828125 3703.644531 3581.769531 3696.199219 3581.769531 M 3696.199219 3586.269531 C 3701.171875 3586.269531 3705.199219 3590.300781 3705.199219 3595.269531 C 3705.199219 3600.242188 3701.171875 3604.269531 3696.199219 3604.269531 C 3691.230469 3604.269531 3687.199219 3600.242188 3687.199219 3595.269531 C 3687.199219 3590.300781 3691.230469 3586.269531 3696.199219 3586.269531 "/>
<path xmlns="http://www.w3.org/2000/svg" fill-rule="nonzero" fill="rgb(10.572815%, 9.655762%, 10.258484%)" fill-opacity="1" d="M 3696.199219 3480.074219 C 3688.757812 3480.074219 3682.699219 3486.128906 3682.699219 3493.574219 C 3682.699219 3501.019531 3688.757812 3507.074219 3696.199219 3507.074219 C 3703.644531 3507.074219 3709.699219 3501.019531 3709.699219 3493.574219 C 3709.699219 3486.128906 3703.644531 3480.074219 3696.199219 3480.074219 M 3696.199219 3484.574219 C 3701.171875 3484.574219 3705.199219 3488.601562 3705.199219 3493.574219 C 3705.199219 3498.542969 3701.171875 3502.574219 3696.199219 3502.574219 C 3691.230469 3502.574219 3687.199219 3498.542969 3687.199219 3493.574219 C 3687.199219 3488.601562 3691.230469 3484.574219 3696.199219 3484.574219 "/>
<path xmlns="http://www.w3.org/2000/svg" fill-rule="nonzero" fill="rgb(10.572815%, 9.655762%, 10.258484%)" fill-opacity="1" d="M 4572.855469 3918.128906 C 4565.410156 3918.128906 4559.355469 3924.1875 4559.355469 3931.628906 C 4559.355469 3939.074219 4565.410156 3945.128906 4572.855469 3945.128906 C 4580.296875 3945.128906 4586.355469 3939.074219 4586.355469 3931.628906 C 4586.355469 3924.1875 4580.296875 3918.128906 4572.855469 3918.128906 M 4572.855469 3922.628906 C 4577.824219 3922.628906 4581.855469 3926.660156 4581.855469 3931.628906 C 4581.855469 3936.601562 4577.824219 3940.628906 4572.855469 3940.628906 C 4567.882812 3940.628906 4563.855469 3936.601562 4563.855469 3931.628906 C 4563.855469 3926.660156 4567.882812 3922.628906 4572.855469 3922.628906 "/>
<path xmlns="http://www.w3.org/2000/svg" fill-rule="nonzero" fill="rgb(10.572815%, 9.655762%, 10.258484%)" fill-opacity="1" d="M 4426.546875 3918.128906 C 4419.105469 3918.128906 4413.046875 3924.1875 4413.046875 3931.628906 C 4413.046875 3939.074219 4419.105469 3945.128906 4426.546875 3945.128906 C 4433.992188 3945.128906 4440.046875 3939.074219 4440.046875 3931.628906 C 4440.046875 3924.1875 4433.992188 3918.128906 4426.546875 3918.128906 M 4426.546875 3922.628906 C 4431.519531 3922.628906 4435.546875 3926.660156 4435.546875 3931.628906 C 4435.546875 3936.601562 4431.519531 3940.628906 4426.546875 3940.628906 C 4421.578125 3940.628906 4417.546875 3936.601562 4417.546875 3931.628906 C 4417.546875 3926.660156 4421.578125 3922.628906 4426.546875 3922.628906 "/>
<path xmlns="http://www.w3.org/2000/svg" fill-rule="nonzero" fill="rgb(10.572815%, 9.655762%, 10.258484%)" fill-opacity="1" d="M 3835.699219 3943.828125 C 3828.253906 3943.828125 3822.199219 3949.882812 3822.199219 3957.328125 C 3822.199219 3964.773438 3828.253906 3970.828125 3835.699219 3970.828125 C 3843.144531 3970.828125 3849.199219 3964.773438 3849.199219 3957.328125 C 3849.199219 3949.882812 3843.144531 3943.828125 3835.699219 3943.828125 M 3835.699219 3948.328125 C 3840.667969 3948.328125 3844.699219 3952.355469 3844.699219 3957.328125 C 3844.699219 3962.296875 3840.667969 3966.328125 3835.699219 3966.328125 C 3830.726562 3966.328125 3826.699219 3962.296875 3826.699219 3957.328125 C 3826.699219 3952.355469 3830.726562 3948.328125 3835.699219 3948.328125 "/>
<path xmlns="http://www.w3.org/2000/svg" fill-rule="nonzero" fill="rgb(10.572815%, 9.655762%, 10.258484%)" fill-opacity="1" d="M 3835.699219 3917.882812 C 3828.253906 3917.882812 3822.199219 3923.9375 3822.199219 3931.382812 C 3822.199219 3938.824219 3828.253906 3944.882812 3835.699219 3944.882812 C 3843.144531 3944.882812 3849.199219 3938.824219 3849.199219 3931.382812 C 3849.199219 3923.9375 3843.144531 3917.882812 3835.699219 3917.882812 M 3835.699219 3922.382812 C 3840.667969 3922.382812 3844.699219 3926.410156 3844.699219 3931.382812 C 3844.699219 3936.351562 3840.667969 3940.382812 3835.699219 3940.382812 C 3830.726562 3940.382812 3826.699219 3936.351562 3826.699219 3931.382812 C 3826.699219 3926.410156 3830.726562 3922.382812 3835.699219 3922.382812 "/>
<path xmlns="http://www.w3.org/2000/svg" fill-rule="nonzero" fill="rgb(10.572815%, 9.655762%, 10.258484%)" fill-opacity="1" d="M 2481.199219 4700.269531 C 2473.757812 4700.269531 2467.699219 4706.324219 2467.699219 4713.769531 C 2467.699219 4721.210938 2473.757812 4727.269531 2481.199219 4727.269531 C 2488.644531 4727.269531 2494.699219 4721.210938 2494.699219 4713.769531 C 2494.699219 4706.324219 2488.644531 4700.269531 2481.199219 4700.269531 M 2481.199219 4704.769531 C 2486.171875 4704.769531 2490.199219 4708.796875 2490.199219 4713.769531 C 2490.199219 4718.738281 2486.171875 4722.769531 2481.199219 4722.769531 C 2476.230469 4722.769531 2472.199219 4718.738281 2472.199219 4713.769531 C 2472.199219 4708.796875 2476.230469 4704.769531 2481.199219 4704.769531 "/>
<path xmlns="http://www.w3.org/2000/svg" fill-rule="nonzero" fill="rgb(10.572815%, 9.655762%, 10.258484%)" fill-opacity="1" d="M 2481.199219 4533.769531 C 2473.757812 4533.769531 2467.699219 4539.824219 2467.699219 4547.269531 C 2467.699219 4554.710938 2473.757812 4560.769531 2481.199219 4560.769531 C 2488.644531 4560.769531 2494.699219 4554.710938 2494.699219 4547.269531 C 2494.699219 4539.824219 2488.644531 4533.769531 2481.199219 4533.769531 M 2481.199219 4538.269531 C 2486.171875 4538.269531 2490.199219 4542.296875 2490.199219 4547.269531 C 2490.199219 4552.238281 2486.171875 4556.269531 2481.199219 4556.269531 C 2476.230469 4556.269531 2472.199219 4552.238281 2472.199219 4547.269531 C 2472.199219 4542.296875 2476.230469 4538.269531 2481.199219 4538.269531 "/>
<path xmlns="http://www.w3.org/2000/svg" fill-rule="nonzero" fill="rgb(10.572815%, 9.655762%, 10.258484%)" fill-opacity="1" d="M 2526.199219 4754.269531 C 2518.757812 4754.269531 2512.699219 4760.324219 2512.699219 4767.769531 C 2512.699219 4775.210938 2518.757812 4781.269531 2526.199219 4781.269531 C 2533.644531 4781.269531 2539.699219 4775.210938 2539.699219 4767.769531 C 2539.699219 4760.324219 2533.644531 4754.269531 2526.199219 4754.269531 M 2526.199219 4758.769531 C 2531.171875 4758.769531 2535.199219 4762.796875 2535.199219 4767.769531 C 2535.199219 4772.738281 2531.171875 4776.769531 2526.199219 4776.769531 C 2521.230469 4776.769531 2517.199219 4772.738281 2517.199219 4767.769531 C 2517.199219 4762.796875 2521.230469 4758.769531 2526.199219 4758.769531 "/>
<path xmlns="http://www.w3.org/2000/svg" fill-rule="nonzero" fill="rgb(10.572815%, 9.655762%, 10.258484%)" fill-opacity="1" d="M 2526.199219 4781.84375 C 2518.757812 4781.84375 2512.699219 4787.898438 2512.699219 4795.34375 C 2512.699219 4802.785156 2518.757812 4808.84375 2526.199219 4808.84375 C 2533.644531 4808.84375 2539.699219 4802.785156 2539.699219 4795.34375 C 2539.699219 4787.898438 2533.644531 4781.84375 2526.199219 4781.84375 M 2526.199219 4786.34375 C 2531.171875 4786.34375 2535.199219 4790.371094 2535.199219 4795.34375 C 2535.199219 4800.3125 2531.171875 4804.34375 2526.199219 4804.34375 C 2521.230469 4804.34375 2517.199219 4800.3125 2517.199219 4795.34375 C 2517.199219 4790.371094 2521.230469 4786.34375 2526.199219 4786.34375 "/>
<path xmlns="http://www.w3.org/2000/svg" fill-rule="nonzero" fill="rgb(10.572815%, 9.655762%, 10.258484%)" fill-opacity="1" d="M 2820.539062 4754.269531 C 2813.09375 4754.269531 2807.039062 4760.324219 2807.039062 4767.769531 C 2807.039062 4775.210938 2813.09375 4781.269531 2820.539062 4781.269531 C 2827.980469 4781.269531 2834.039062 4775.210938 2834.039062 4767.769531 C 2834.039062 4760.324219 2827.980469 4754.269531 2820.539062 4754.269531 M 2820.539062 4758.769531 C 2825.507812 4758.769531 2829.539062 4762.796875 2829.539062 4767.769531 C 2829.539062 4772.738281 2825.507812 4776.769531 2820.539062 4776.769531 C 2815.566406 4776.769531 2811.539062 4772.738281 2811.539062 4767.769531 C 2811.539062 4762.796875 2815.566406 4758.769531 2820.539062 4758.769531 "/>
<path xmlns="http://www.w3.org/2000/svg" fill-rule="nonzero" fill="rgb(10.572815%, 9.655762%, 10.258484%)" fill-opacity="1" d="M 3115.699219 3998.269531 C 3108.257812 3998.269531 3102.199219 4004.324219 3102.199219 4011.769531 C 3102.199219 4019.210938 3108.257812 4025.269531 3115.699219 4025.269531 C 3123.144531 4025.269531 3129.199219 4019.210938 3129.199219 4011.769531 C 3129.199219 4004.324219 3123.144531 3998.269531 3115.699219 3998.269531 M 3115.699219 4002.769531 C 3120.671875 4002.769531 3124.699219 4006.796875 3124.699219 4011.769531 C 3124.699219 4016.738281 3120.671875 4020.769531 3115.699219 4020.769531 C 3110.730469 4020.769531 3106.699219 4016.738281 3106.699219 4011.769531 C 3106.699219 4006.796875 3110.730469 4002.769531 3115.699219 4002.769531 "/>
<path xmlns="http://www.w3.org/2000/svg" fill-rule="nonzero" fill="rgb(10.572815%, 9.655762%, 10.258484%)" fill-opacity="1" d="M 3115.699219 4020.769531 C 3108.257812 4020.769531 3102.199219 4026.824219 3102.199219 4034.269531 C 3102.199219 4041.710938 3108.257812 4047.769531 3115.699219 4047.769531 C 3123.144531 4047.769531 3129.199219 4041.710938 3129.199219 4034.269531 C 3129.199219 4026.824219 3123.144531 4020.769531 3115.699219 4020.769531 M 3115.699219 4025.269531 C 3120.671875 4025.269531 3124.699219 4029.296875 3124.699219 4034.269531 C 3124.699219 4039.238281 3120.671875 4043.269531 3115.699219 4043.269531 C 3110.730469 4043.269531 3106.699219 4039.238281 3106.699219 4034.269531 C 3106.699219 4029.296875 3110.730469 4025.269531 3115.699219 4025.269531 "/>
<path xmlns="http://www.w3.org/2000/svg" fill-rule="nonzero" fill="rgb(10.572815%, 9.655762%, 10.258484%)" fill-opacity="1" d="M 3115.699219 4044.769531 C 3108.257812 4044.769531 3102.199219 4050.828125 3102.199219 4058.269531 C 3102.199219 4065.714844 3108.257812 4071.769531 3115.699219 4071.769531 C 3123.144531 4071.769531 3129.199219 4065.714844 3129.199219 4058.269531 C 3129.199219 4050.828125 3123.144531 4044.769531 3115.699219 4044.769531 M 3115.699219 4049.269531 C 3120.671875 4049.269531 3124.699219 4053.300781 3124.699219 4058.269531 C 3124.699219 4063.242188 3120.671875 4067.269531 3115.699219 4067.269531 C 3110.730469 4067.269531 3106.699219 4063.242188 3106.699219 4058.269531 C 3106.699219 4053.300781 3110.730469 4049.269531 3115.699219 4049.269531 "/>
<path xmlns="http://www.w3.org/2000/svg" fill-rule="nonzero" fill="rgb(10.572815%, 9.655762%, 10.258484%)" fill-opacity="1" d="M 3696.199219 3378.378906 C 3688.757812 3378.378906 3682.699219 3384.433594 3682.699219 3391.878906 C 3682.699219 3399.320312 3688.757812 3405.378906 3696.199219 3405.378906 C 3703.644531 3405.378906 3709.699219 3399.320312 3709.699219 3391.878906 C 3709.699219 3384.433594 3703.644531 3378.378906 3696.199219 3378.378906 M 3696.199219 3382.878906 C 3701.171875 3382.878906 3705.199219 3386.90625 3705.199219 3391.878906 C 3705.199219 3396.847656 3701.171875 3400.878906 3696.199219 3400.878906 C 3691.230469 3400.878906 3687.199219 3396.847656 3687.199219 3391.878906 C 3687.199219 3386.90625 3691.230469 3382.878906 3696.199219 3382.878906 "/>
<path xmlns="http://www.w3.org/2000/svg" fill-rule="nonzero" fill="rgb(10.572815%, 9.655762%, 10.258484%)" fill-opacity="1" d="M 2454.199219 3548.269531 C 2446.753906 3548.269531 2440.699219 3554.324219 2440.699219 3561.769531 C 2440.699219 3569.210938 2446.753906 3575.269531 2454.199219 3575.269531 C 2461.644531 3575.269531 2467.699219 3569.210938 2467.699219 3561.769531 C 2467.699219 3554.324219 2461.644531 3548.269531 2454.199219 3548.269531 M 2454.199219 3552.769531 C 2459.171875 3552.769531 2463.199219 3556.796875 2463.199219 3561.769531 C 2463.199219 3566.738281 2459.171875 3570.769531 2454.199219 3570.769531 C 2449.230469 3570.769531 2445.199219 3566.738281 2445.199219 3561.769531 C 2445.199219 3556.796875 2449.230469 3552.769531 2454.199219 3552.769531 "/>
<path xmlns="http://www.w3.org/2000/svg" fill-rule="nonzero" fill="rgb(10.572815%, 9.655762%, 10.258484%)" fill-opacity="1" d="M 2431.699219 3548.269531 C 2424.257812 3548.269531 2418.199219 3554.324219 2418.199219 3561.769531 C 2418.199219 3569.210938 2424.257812 3575.269531 2431.699219 3575.269531 C 2439.144531 3575.269531 2445.199219 3569.210938 2445.199219 3561.769531 C 2445.199219 3554.324219 2439.144531 3548.269531 2431.699219 3548.269531 M 2431.699219 3552.769531 C 2436.671875 3552.769531 2440.699219 3556.796875 2440.699219 3561.769531 C 2440.699219 3566.738281 2436.671875 3570.769531 2431.699219 3570.769531 C 2426.730469 3570.769531 2422.699219 3566.738281 2422.699219 3561.769531 C 2422.699219 3556.796875 2426.730469 3552.769531 2431.699219 3552.769531 "/>
<path xmlns="http://www.w3.org/2000/svg" fill-rule="nonzero" fill="rgb(10.572815%, 9.655762%, 10.258484%)" fill-opacity="1" d="M 2407.699219 3548.269531 C 2400.253906 3548.269531 2394.199219 3554.324219 2394.199219 3561.769531 C 2394.199219 3569.210938 2400.253906 3575.269531 2407.699219 3575.269531 C 2415.140625 3575.269531 2421.199219 3569.210938 2421.199219 3561.769531 C 2421.199219 3554.324219 2415.140625 3548.269531 2407.699219 3548.269531 M 2407.699219 3552.769531 C 2412.667969 3552.769531 2416.699219 3556.796875 2416.699219 3561.769531 C 2416.699219 3566.738281 2412.667969 3570.769531 2407.699219 3570.769531 C 2402.726562 3570.769531 2398.699219 3566.738281 2398.699219 3561.769531 C 2398.699219 3556.796875 2402.726562 3552.769531 2407.699219 3552.769531 "/>
<path xmlns="http://www.w3.org/2000/svg" fill-rule="nonzero" fill="rgb(10.572815%, 9.655762%, 10.258484%)" fill-opacity="1" d="M 2620.699219 3881.269531 C 2613.253906 3881.269531 2607.199219 3887.324219 2607.199219 3894.769531 C 2607.199219 3902.210938 2613.253906 3908.269531 2620.699219 3908.269531 C 2628.144531 3908.269531 2634.199219 3902.210938 2634.199219 3894.769531 C 2634.199219 3887.324219 2628.144531 3881.269531 2620.699219 3881.269531 M 2620.699219 3885.769531 C 2625.671875 3885.769531 2629.699219 3889.796875 2629.699219 3894.769531 C 2629.699219 3899.738281 2625.671875 3903.769531 2620.699219 3903.769531 C 2615.730469 3903.769531 2611.699219 3899.738281 2611.699219 3894.769531 C 2611.699219 3889.796875 2615.730469 3885.769531 2620.699219 3885.769531 "/>
<path xmlns="http://www.w3.org/2000/svg" fill-rule="nonzero" fill="rgb(10.572815%, 9.655762%, 10.258484%)" fill-opacity="1" d="M 2602.699219 3899.269531 C 2595.257812 3899.269531 2589.199219 3905.324219 2589.199219 3912.769531 C 2589.199219 3920.210938 2595.257812 3926.269531 2602.699219 3926.269531 C 2610.144531 3926.269531 2616.199219 3920.210938 2616.199219 3912.769531 C 2616.199219 3905.324219 2610.144531 3899.269531 2602.699219 3899.269531 M 2602.699219 3903.769531 C 2607.671875 3903.769531 2611.699219 3907.796875 2611.699219 3912.769531 C 2611.699219 3917.738281 2607.671875 3921.769531 2602.699219 3921.769531 C 2597.730469 3921.769531 2593.699219 3917.738281 2593.699219 3912.769531 C 2593.699219 3907.796875 2597.730469 3903.769531 2602.699219 3903.769531 "/>
<path xmlns="http://www.w3.org/2000/svg" fill-rule="nonzero" fill="rgb(10.572815%, 9.655762%, 10.258484%)" fill-opacity="1" d="M 2583.699219 3918.269531 C 2576.253906 3918.269531 2570.199219 3924.324219 2570.199219 3931.769531 C 2570.199219 3939.214844 2576.253906 3945.269531 2583.699219 3945.269531 C 2591.144531 3945.269531 2597.199219 3939.214844 2597.199219 3931.769531 C 2597.199219 3924.324219 2591.144531 3918.269531 2583.699219 3918.269531 M 2583.699219 3922.769531 C 2588.667969 3922.769531 2592.699219 3926.796875 2592.699219 3931.769531 C 2592.699219 3936.738281 2588.667969 3940.769531 2583.699219 3940.769531 C 2578.726562 3940.769531 2574.699219 3936.738281 2574.699219 3931.769531 C 2574.699219 3926.796875 2578.726562 3922.769531 2583.699219 3922.769531 "/>
<path xmlns="http://www.w3.org/2000/svg" fill-rule="nonzero" fill="rgb(10.572815%, 9.655762%, 10.258484%)" fill-opacity="1" d="M 2481.199219 4925.269531 C 2473.753906 4925.269531 2467.699219 4931.324219 2467.699219 4938.769531 C 2467.699219 4946.210938 2473.753906 4952.269531 2481.199219 4952.269531 C 2488.644531 4952.269531 2494.699219 4946.210938 2494.699219 4938.769531 C 2494.699219 4931.324219 2488.644531 4925.269531 2481.199219 4925.269531 M 2481.199219 4929.769531 C 2486.171875 4929.769531 2490.199219 4933.796875 2490.199219 4938.769531 C 2490.199219 4943.738281 2486.171875 4947.769531 2481.199219 4947.769531 C 2476.230469 4947.769531 2472.199219 4943.738281 2472.199219 4938.769531 C 2472.199219 4933.796875 2476.230469 4929.769531 2481.199219 4929.769531 "/>
<path xmlns="http://www.w3.org/2000/svg" fill-rule="nonzero" fill="rgb(10.572815%, 9.655762%, 10.258484%)" fill-opacity="1" d="M 4236.199219 4223.058594 C 4228.753906 4223.058594 4222.699219 4229.117188 4222.699219 4236.558594 C 4222.699219 4244.003906 4228.753906 4250.058594 4236.199219 4250.058594 C 4243.644531 4250.058594 4249.699219 4244.003906 4249.699219 4236.558594 C 4249.699219 4229.117188 4243.644531 4223.058594 4236.199219 4223.058594 M 4236.199219 4227.558594 C 4241.171875 4227.558594 4245.199219 4231.589844 4245.199219 4236.558594 C 4245.199219 4241.53125 4241.171875 4245.558594 4236.199219 4245.558594 C 4231.230469 4245.558594 4227.199219 4241.53125 4227.199219 4236.558594 C 4227.199219 4231.589844 4231.230469 4227.558594 4236.199219 4227.558594 "/>
<path xmlns="http://www.w3.org/2000/svg" fill-rule="nonzero" fill="rgb(10.572815%, 9.655762%, 10.258484%)" fill-opacity="1" d="M 4191.199219 4223.058594 C 4183.753906 4223.058594 4177.699219 4229.117188 4177.699219 4236.558594 C 4177.699219 4244.003906 4183.753906 4250.058594 4191.199219 4250.058594 C 4198.644531 4250.058594 4204.699219 4244.003906 4204.699219 4236.558594 C 4204.699219 4229.117188 4198.644531 4223.058594 4191.199219 4223.058594 M 4191.199219 4227.558594 C 4196.167969 4227.558594 4200.199219 4231.589844 4200.199219 4236.558594 C 4200.199219 4241.53125 4196.167969 4245.558594 4191.199219 4245.558594 C 4186.230469 4245.558594 4182.199219 4241.53125 4182.199219 4236.558594 C 4182.199219 4231.589844 4186.230469 4227.558594 4191.199219 4227.558594 "/>
<path xmlns="http://www.w3.org/2000/svg" fill-rule="nonzero" fill="rgb(10.572815%, 9.655762%, 10.258484%)" fill-opacity="1" d="M 4236.199219 4317.507812 C 4228.753906 4317.507812 4222.699219 4323.5625 4222.699219 4331.007812 C 4222.699219 4338.449219 4228.753906 4344.507812 4236.199219 4344.507812 C 4243.644531 4344.507812 4249.699219 4338.449219 4249.699219 4331.007812 C 4249.699219 4323.5625 4243.644531 4317.507812 4236.199219 4317.507812 M 4236.199219 4322.007812 C 4241.171875 4322.007812 4245.199219 4326.035156 4245.199219 4331.007812 C 4245.199219 4335.976562 4241.171875 4340.007812 4236.199219 4340.007812 C 4231.230469 4340.007812 4227.199219 4335.976562 4227.199219 4331.007812 C 4227.199219 4326.035156 4231.230469 4322.007812 4236.199219 4322.007812 "/>
<path xmlns="http://www.w3.org/2000/svg" fill-rule="nonzero" fill="rgb(10.572815%, 9.655762%, 10.258484%)" fill-opacity="1" d="M 4191.199219 4317.507812 C 4183.753906 4317.507812 4177.699219 4323.5625 4177.699219 4331.007812 C 4177.699219 4338.449219 4183.753906 4344.507812 4191.199219 4344.507812 C 4198.644531 4344.507812 4204.699219 4338.449219 4204.699219 4331.007812 C 4204.699219 4323.5625 4198.644531 4317.507812 4191.199219 4317.507812 M 4191.199219 4322.007812 C 4196.167969 4322.007812 4200.199219 4326.035156 4200.199219 4331.007812 C 4200.199219 4335.976562 4196.167969 4340.007812 4191.199219 4340.007812 C 4186.230469 4340.007812 4182.199219 4335.976562 4182.199219 4331.007812 C 4182.199219 4326.035156 4186.230469 4322.007812 4191.199219 4322.007812 "/>
<path xmlns="http://www.w3.org/2000/svg" fill-rule="nonzero" fill="rgb(10.572815%, 9.655762%, 10.258484%)" fill-opacity="1" d="M 4213.699219 4411.953125 C 4206.253906 4411.953125 4200.199219 4418.007812 4200.199219 4425.453125 C 4200.199219 4432.898438 4206.253906 4438.953125 4213.699219 4438.953125 C 4221.144531 4438.953125 4227.199219 4432.898438 4227.199219 4425.453125 C 4227.199219 4418.007812 4221.144531 4411.953125 4213.699219 4411.953125 M 4213.699219 4416.453125 C 4218.671875 4416.453125 4222.699219 4420.480469 4222.699219 4425.453125 C 4222.699219 4430.421875 4218.671875 4434.453125 4213.699219 4434.453125 C 4208.730469 4434.453125 4204.699219 4430.421875 4204.699219 4425.453125 C 4204.699219 4420.480469 4208.730469 4416.453125 4213.699219 4416.453125 "/>
<path xmlns="http://www.w3.org/2000/svg" fill-rule="nonzero" fill="rgb(10.572815%, 9.655762%, 10.258484%)" fill-opacity="1" d="M 4236.199219 4411.953125 C 4228.753906 4411.953125 4222.699219 4418.007812 4222.699219 4425.453125 C 4222.699219 4432.898438 4228.753906 4438.953125 4236.199219 4438.953125 C 4243.644531 4438.953125 4249.699219 4432.898438 4249.699219 4425.453125 C 4249.699219 4418.007812 4243.644531 4411.953125 4236.199219 4411.953125 M 4236.199219 4416.453125 C 4241.171875 4416.453125 4245.199219 4420.480469 4245.199219 4425.453125 C 4245.199219 4430.421875 4241.171875 4434.453125 4236.199219 4434.453125 C 4231.230469 4434.453125 4227.199219 4430.421875 4227.199219 4425.453125 C 4227.199219 4420.480469 4231.230469 4416.453125 4236.199219 4416.453125 "/>
<path xmlns="http://www.w3.org/2000/svg" fill-rule="nonzero" fill="rgb(10.572815%, 9.655762%, 10.258484%)" fill-opacity="1" d="M 4191.199219 4411.953125 C 4183.753906 4411.953125 4177.699219 4418.007812 4177.699219 4425.453125 C 4177.699219 4432.898438 4183.753906 4438.953125 4191.199219 4438.953125 C 4198.644531 4438.953125 4204.699219 4432.898438 4204.699219 4425.453125 C 4204.699219 4418.007812 4198.644531 4411.953125 4191.199219 4411.953125 M 4191.199219 4416.453125 C 4196.167969 4416.453125 4200.199219 4420.480469 4200.199219 4425.453125 C 4200.199219 4430.421875 4196.167969 4434.453125 4191.199219 4434.453125 C 4186.230469 4434.453125 4182.199219 4430.421875 4182.199219 4425.453125 C 4182.199219 4420.480469 4186.230469 4416.453125 4191.199219 4416.453125 "/>
<path xmlns="http://www.w3.org/2000/svg" fill-rule="nonzero" fill="rgb(10.572815%, 9.655762%, 10.258484%)" fill-opacity="1" d="M 4213.699219 4506.398438 C 4206.253906 4506.398438 4200.199219 4512.457031 4200.199219 4519.898438 C 4200.199219 4527.34375 4206.253906 4533.398438 4213.699219 4533.398438 C 4221.144531 4533.398438 4227.199219 4527.34375 4227.199219 4519.898438 C 4227.199219 4512.457031 4221.144531 4506.398438 4213.699219 4506.398438 M 4213.699219 4510.898438 C 4218.671875 4510.898438 4222.699219 4514.929688 4222.699219 4519.898438 C 4222.699219 4524.871094 4218.671875 4528.898438 4213.699219 4528.898438 C 4208.730469 4528.898438 4204.699219 4524.871094 4204.699219 4519.898438 C 4204.699219 4514.929688 4208.730469 4510.898438 4213.699219 4510.898438 "/>
<path xmlns="http://www.w3.org/2000/svg" fill-rule="nonzero" fill="rgb(10.572815%, 9.655762%, 10.258484%)" fill-opacity="1" d="M 4236.199219 4506.398438 C 4228.753906 4506.398438 4222.699219 4512.457031 4222.699219 4519.898438 C 4222.699219 4527.34375 4228.753906 4533.398438 4236.199219 4533.398438 C 4243.644531 4533.398438 4249.699219 4527.34375 4249.699219 4519.898438 C 4249.699219 4512.457031 4243.644531 4506.398438 4236.199219 4506.398438 M 4236.199219 4510.898438 C 4241.171875 4510.898438 4245.199219 4514.929688 4245.199219 4519.898438 C 4245.199219 4524.871094 4241.171875 4528.898438 4236.199219 4528.898438 C 4231.230469 4528.898438 4227.199219 4524.871094 4227.199219 4519.898438 C 4227.199219 4514.929688 4231.230469 4510.898438 4236.199219 4510.898438 "/>
<path xmlns="http://www.w3.org/2000/svg" fill-rule="nonzero" fill="rgb(10.572815%, 9.655762%, 10.258484%)" fill-opacity="1" d="M 4191.199219 4506.398438 C 4183.753906 4506.398438 4177.699219 4512.457031 4177.699219 4519.898438 C 4177.699219 4527.34375 4183.753906 4533.398438 4191.199219 4533.398438 C 4198.644531 4533.398438 4204.699219 4527.34375 4204.699219 4519.898438 C 4204.699219 4512.457031 4198.644531 4506.398438 4191.199219 4506.398438 M 4191.199219 4510.898438 C 4196.167969 4510.898438 4200.199219 4514.929688 4200.199219 4519.898438 C 4200.199219 4524.871094 4196.167969 4528.898438 4191.199219 4528.898438 C 4186.230469 4528.898438 4182.199219 4524.871094 4182.199219 4519.898438 C 4182.199219 4514.929688 4186.230469 4510.898438 4191.199219 4510.898438 "/>
<path xmlns="http://www.w3.org/2000/svg" fill-rule="nonzero" fill="rgb(10.572815%, 9.655762%, 10.258484%)" fill-opacity="1" d="M 4213.699219 4600.847656 C 4206.253906 4600.847656 4200.199219 4606.902344 4200.199219 4614.347656 C 4200.199219 4621.789062 4206.253906 4627.847656 4213.699219 4627.847656 C 4221.144531 4627.847656 4227.199219 4621.789062 4227.199219 4614.347656 C 4227.199219 4606.902344 4221.144531 4600.847656 4213.699219 4600.847656 M 4213.699219 4605.347656 C 4218.671875 4605.347656 4222.699219 4609.375 4222.699219 4614.347656 C 4222.699219 4619.316406 4218.671875 4623.347656 4213.699219 4623.347656 C 4208.730469 4623.347656 4204.699219 4619.316406 4204.699219 4614.347656 C 4204.699219 4609.375 4208.730469 4605.347656 4213.699219 4605.347656 "/>
<path xmlns="http://www.w3.org/2000/svg" fill-rule="nonzero" fill="rgb(10.572815%, 9.655762%, 10.258484%)" fill-opacity="1" d="M 4236.199219 4600.847656 C 4228.757812 4600.847656 4222.699219 4606.902344 4222.699219 4614.347656 C 4222.699219 4621.789062 4228.757812 4627.847656 4236.199219 4627.847656 C 4243.644531 4627.847656 4249.699219 4621.789062 4249.699219 4614.347656 C 4249.699219 4606.902344 4243.644531 4600.847656 4236.199219 4600.847656 M 4236.199219 4605.347656 C 4241.171875 4605.347656 4245.199219 4609.375 4245.199219 4614.347656 C 4245.199219 4619.316406 4241.171875 4623.347656 4236.199219 4623.347656 C 4231.230469 4623.347656 4227.199219 4619.316406 4227.199219 4614.347656 C 4227.199219 4609.375 4231.230469 4605.347656 4236.199219 4605.347656 "/>
<path xmlns="http://www.w3.org/2000/svg" fill-rule="nonzero" fill="rgb(10.572815%, 9.655762%, 10.258484%)" fill-opacity="1" d="M 4191.199219 4600.847656 C 4183.753906 4600.847656 4177.699219 4606.902344 4177.699219 4614.347656 C 4177.699219 4621.789062 4183.753906 4627.847656 4191.199219 4627.847656 C 4198.644531 4627.847656 4204.699219 4621.789062 4204.699219 4614.347656 C 4204.699219 4606.902344 4198.644531 4600.847656 4191.199219 4600.847656 M 4191.199219 4605.347656 C 4196.171875 4605.347656 4200.199219 4609.375 4200.199219 4614.347656 C 4200.199219 4619.316406 4196.171875 4623.347656 4191.199219 4623.347656 C 4186.230469 4623.347656 4182.199219 4619.316406 4182.199219 4614.347656 C 4182.199219 4609.375 4186.230469 4605.347656 4191.199219 4605.347656 "/>
<path xmlns="http://www.w3.org/2000/svg" fill-rule="nonzero" fill="rgb(10.572815%, 9.655762%, 10.258484%)" fill-opacity="1" d="M 4236.199219 4128.613281 C 4228.753906 4128.613281 4222.699219 4134.667969 4222.699219 4142.113281 C 4222.699219 4149.558594 4228.753906 4155.613281 4236.199219 4155.613281 C 4243.644531 4155.613281 4249.699219 4149.558594 4249.699219 4142.113281 C 4249.699219 4134.667969 4243.644531 4128.613281 4236.199219 4128.613281 M 4236.199219 4133.113281 C 4241.171875 4133.113281 4245.199219 4137.144531 4245.199219 4142.113281 C 4245.199219 4147.082031 4241.171875 4151.113281 4236.199219 4151.113281 C 4231.230469 4151.113281 4227.199219 4147.082031 4227.199219 4142.113281 C 4227.199219 4137.144531 4231.230469 4133.113281 4236.199219 4133.113281 "/>
<path xmlns="http://www.w3.org/2000/svg" fill-rule="nonzero" fill="rgb(10.572815%, 9.655762%, 10.258484%)" fill-opacity="1" d="M 4236.199219 4128.347656 C 4228.753906 4128.347656 4222.699219 4134.402344 4222.699219 4141.847656 C 4222.699219 4149.289062 4228.753906 4155.347656 4236.199219 4155.347656 C 4243.644531 4155.347656 4249.699219 4149.289062 4249.699219 4141.847656 C 4249.699219 4134.402344 4243.644531 4128.347656 4236.199219 4128.347656 M 4236.199219 4132.847656 C 4241.171875 4132.847656 4245.199219 4136.875 4245.199219 4141.847656 C 4245.199219 4146.816406 4241.171875 4150.847656 4236.199219 4150.847656 C 4231.230469 4150.847656 4227.199219 4146.816406 4227.199219 4141.847656 C 4227.199219 4136.875 4231.230469 4132.847656 4236.199219 4132.847656 "/>
<path xmlns="http://www.w3.org/2000/svg" fill-rule="nonzero" fill="rgb(10.572815%, 9.655762%, 10.258484%)" fill-opacity="1" d="M 4362.285156 3620.917969 C 4354.839844 3620.917969 4348.785156 3626.972656 4348.785156 3634.417969 C 4348.785156 3641.863281 4354.839844 3647.917969 4362.285156 3647.917969 C 4369.730469 3647.917969 4375.785156 3641.863281 4375.785156 3634.417969 C 4375.785156 3626.972656 4369.730469 3620.917969 4362.285156 3620.917969 M 4362.285156 3625.417969 C 4367.253906 3625.417969 4371.285156 3629.449219 4371.285156 3634.417969 C 4371.285156 3639.386719 4367.253906 3643.417969 4362.285156 3643.417969 C 4357.3125 3643.417969 4353.285156 3639.386719 4353.285156 3634.417969 C 4353.285156 3629.449219 4357.3125 3625.417969 4362.285156 3625.417969 "/>
<path xmlns="http://www.w3.org/2000/svg" fill-rule="nonzero" fill="rgb(10.572815%, 9.655762%, 10.258484%)" fill-opacity="1" d="M 4191.199219 4128.347656 C 4183.753906 4128.347656 4177.699219 4134.402344 4177.699219 4141.847656 C 4177.699219 4149.289062 4183.753906 4155.347656 4191.199219 4155.347656 C 4198.644531 4155.347656 4204.699219 4149.289062 4204.699219 4141.847656 C 4204.699219 4134.402344 4198.644531 4128.347656 4191.199219 4128.347656 M 4191.199219 4132.847656 C 4196.167969 4132.847656 4200.199219 4136.875 4200.199219 4141.847656 C 4200.199219 4146.816406 4196.167969 4150.847656 4191.199219 4150.847656 C 4186.230469 4150.847656 4182.199219 4146.816406 4182.199219 4141.847656 C 4182.199219 4136.875 4186.230469 4132.847656 4191.199219 4132.847656 "/>
<path xmlns="http://www.w3.org/2000/svg" fill-rule="nonzero" fill="rgb(10.572815%, 9.655762%, 10.258484%)" fill-opacity="1" d="M 3718.699219 3581.769531 C 3711.253906 3581.769531 3705.199219 3587.828125 3705.199219 3595.269531 C 3705.199219 3602.714844 3711.253906 3608.769531 3718.699219 3608.769531 C 3726.140625 3608.769531 3732.199219 3602.714844 3732.199219 3595.269531 C 3732.199219 3587.828125 3726.140625 3581.769531 3718.699219 3581.769531 M 3718.699219 3586.269531 C 3723.667969 3586.269531 3727.699219 3590.300781 3727.699219 3595.269531 C 3727.699219 3600.242188 3723.667969 3604.269531 3718.699219 3604.269531 C 3713.726562 3604.269531 3709.699219 3600.242188 3709.699219 3595.269531 C 3709.699219 3590.300781 3713.726562 3586.269531 3718.699219 3586.269531 "/>
<path xmlns="http://www.w3.org/2000/svg" fill-rule="nonzero" fill="rgb(10.572815%, 9.655762%, 10.258484%)" fill-opacity="1" d="M 3718.894531 3480.074219 C 3711.449219 3480.074219 3705.394531 3486.128906 3705.394531 3493.574219 C 3705.394531 3501.019531 3711.449219 3507.074219 3718.894531 3507.074219 C 3726.339844 3507.074219 3732.394531 3501.019531 3732.394531 3493.574219 C 3732.394531 3486.128906 3726.339844 3480.074219 3718.894531 3480.074219 M 3718.894531 3484.574219 C 3723.867188 3484.574219 3727.894531 3488.601562 3727.894531 3493.574219 C 3727.894531 3498.542969 3723.867188 3502.574219 3718.894531 3502.574219 C 3713.925781 3502.574219 3709.894531 3498.542969 3709.894531 3493.574219 C 3709.894531 3488.601562 3713.925781 3484.574219 3718.894531 3484.574219 "/>
<path xmlns="http://www.w3.org/2000/svg" fill-rule="nonzero" fill="rgb(10.572815%, 9.655762%, 10.258484%)" fill-opacity="1" d="M 3718.894531 3378.378906 C 3711.449219 3378.378906 3705.394531 3384.433594 3705.394531 3391.878906 C 3705.394531 3399.320312 3711.449219 3405.378906 3718.894531 3405.378906 C 3726.339844 3405.378906 3732.394531 3399.320312 3732.394531 3391.878906 C 3732.394531 3384.433594 3726.339844 3378.378906 3718.894531 3378.378906 M 3718.894531 3382.878906 C 3723.867188 3382.878906 3727.894531 3386.90625 3727.894531 3391.878906 C 3727.894531 3396.847656 3723.867188 3400.878906 3718.894531 3400.878906 C 3713.925781 3400.878906 3709.894531 3396.847656 3709.894531 3391.878906 C 3709.894531 3386.90625 3713.925781 3382.878906 3718.894531 3382.878906 "/>
<path xmlns="http://www.w3.org/2000/svg" fill-rule="nonzero" fill="rgb(10.572815%, 9.655762%, 10.258484%)" fill-opacity="1" d="M 3718.550781 3990.175781 C 3711.109375 3990.175781 3705.050781 3996.234375 3705.050781 4003.675781 C 3705.050781 4011.121094 3711.109375 4017.175781 3718.550781 4017.175781 C 3725.996094 4017.175781 3732.050781 4011.121094 3732.050781 4003.675781 C 3732.050781 3996.234375 3725.996094 3990.175781 3718.550781 3990.175781 M 3718.550781 3994.675781 C 3723.523438 3994.675781 3727.550781 3998.707031 3727.550781 4003.675781 C 3727.550781 4008.648438 3723.523438 4012.675781 3718.550781 4012.675781 C 3713.582031 4012.675781 3709.550781 4008.648438 3709.550781 4003.675781 C 3709.550781 3998.707031 3713.582031 3994.675781 3718.550781 3994.675781 "/>
<path xmlns="http://www.w3.org/2000/svg" fill-rule="nonzero" fill="rgb(10.572815%, 9.655762%, 10.258484%)" fill-opacity="1" d="M 3635.828125 4154.5 C 3632.222656 4154.5 3628.832031 4155.90625 3626.28125 4158.457031 C 3623.730469 4161.003906 3622.328125 4164.394531 3622.328125 4168 C 3622.328125 4171.609375 3623.730469 4174.996094 3626.28125 4177.546875 C 3628.832031 4180.097656 3632.222656 4181.5 3635.828125 4181.5 C 3639.433594 4181.5 3642.824219 4180.097656 3645.375 4177.546875 C 3647.925781 4174.996094 3649.328125 4171.609375 3649.328125 4168 C 3649.328125 4164.394531 3647.925781 4161.003906 3645.375 4158.457031 C 3642.824219 4155.90625 3639.433594 4154.5 3635.828125 4154.5 M 3635.828125 4159 C 3638.132812 4159 3640.433594 4159.878906 3642.191406 4161.636719 C 3645.707031 4165.152344 3645.707031 4170.851562 3642.191406 4174.367188 C 3640.433594 4176.121094 3638.132812 4177 3635.828125 4177 C 3633.523438 4177 3631.222656 4176.121094 3629.464844 4174.367188 C 3625.949219 4170.851562 3625.949219 4165.152344 3629.464844 4161.636719 C 3631.222656 4159.878906 3633.523438 4159 3635.828125 4159 "/>
<path xmlns="http://www.w3.org/2000/svg" fill-rule="nonzero" fill="rgb(10.572815%, 9.655762%, 10.258484%)" fill-opacity="1" d="M 3788.601562 4527.167969 C 3784.996094 4527.167969 3781.605469 4528.574219 3779.054688 4531.125 C 3773.789062 4536.386719 3773.792969 4544.953125 3779.054688 4550.214844 C 3781.605469 4552.765625 3784.996094 4554.167969 3788.601562 4554.167969 C 3792.207031 4554.167969 3795.597656 4552.765625 3798.148438 4550.214844 C 3803.410156 4544.953125 3803.410156 4536.386719 3798.148438 4531.125 C 3795.597656 4528.574219 3792.207031 4527.167969 3788.601562 4527.167969 M 3788.601562 4531.667969 C 3790.902344 4531.667969 3793.207031 4532.546875 3794.964844 4534.304688 C 3798.480469 4537.820312 3798.480469 4543.519531 3794.964844 4547.035156 C 3793.207031 4548.789062 3790.902344 4549.667969 3788.601562 4549.667969 C 3786.296875 4549.667969 3783.992188 4548.789062 3782.238281 4547.035156 C 3778.722656 4543.519531 3778.722656 4537.820312 3782.238281 4534.304688 C 3783.992188 4532.546875 3786.296875 4531.667969 3788.601562 4531.667969 "/>
<path xmlns="http://www.w3.org/2000/svg" fill-rule="nonzero" fill="rgb(10.572815%, 9.655762%, 10.258484%)" fill-opacity="1" d="M 3804.511719 4511.257812 C 3800.90625 4511.257812 3797.515625 4512.664062 3794.964844 4515.214844 C 3792.414062 4517.761719 3791.011719 4521.152344 3791.011719 4524.757812 C 3791.011719 4528.367188 3792.414062 4531.753906 3794.964844 4534.304688 C 3797.515625 4536.855469 3800.90625 4538.257812 3804.511719 4538.257812 C 3808.117188 4538.257812 3811.507812 4536.855469 3814.058594 4534.304688 C 3816.605469 4531.753906 3818.011719 4528.367188 3818.011719 4524.757812 C 3818.011719 4521.152344 3816.605469 4517.761719 3814.058594 4515.214844 C 3811.507812 4512.664062 3808.117188 4511.257812 3804.511719 4511.257812 M 3804.511719 4515.757812 C 3806.8125 4515.757812 3809.117188 4516.636719 3810.875 4518.394531 C 3814.390625 4521.910156 3814.390625 4527.609375 3810.875 4531.125 C 3809.117188 4532.878906 3806.8125 4533.757812 3804.511719 4533.757812 C 3802.207031 4533.757812 3799.90625 4532.878906 3798.148438 4531.125 C 3794.632812 4527.609375 3794.632812 4521.910156 3798.148438 4518.394531 C 3799.90625 4516.636719 3802.207031 4515.757812 3804.511719 4515.757812 "/>
<path xmlns="http://www.w3.org/2000/svg" fill-rule="nonzero" fill="rgb(10.572815%, 9.655762%, 10.258484%)" fill-opacity="1" d="M 3562.347656 4195.417969 C 3558.742188 4195.417969 3555.351562 4196.824219 3552.804688 4199.371094 C 3547.539062 4204.636719 3547.539062 4213.199219 3552.804688 4218.464844 C 3555.351562 4221.015625 3558.742188 4222.417969 3562.347656 4222.417969 C 3565.957031 4222.417969 3569.34375 4221.015625 3571.894531 4218.464844 C 3577.160156 4213.199219 3577.160156 4204.636719 3571.894531 4199.371094 C 3569.34375 4196.824219 3565.957031 4195.417969 3562.347656 4195.417969 M 3562.347656 4199.917969 C 3564.652344 4199.917969 3566.957031 4200.796875 3568.714844 4202.554688 C 3572.226562 4206.070312 3572.226562 4211.769531 3568.714844 4215.28125 C 3566.957031 4217.039062 3564.652344 4217.917969 3562.347656 4217.917969 C 3560.046875 4217.917969 3557.742188 4217.039062 3555.984375 4215.28125 C 3552.46875 4211.769531 3552.46875 4206.070312 3555.984375 4202.554688 C 3557.742188 4200.796875 3560.046875 4199.917969 3562.347656 4199.917969 "/>
<path xmlns="http://www.w3.org/2000/svg" fill-rule="nonzero" fill="rgb(10.572815%, 9.655762%, 10.258484%)" fill-opacity="1" d="M 3939.117188 4675.683594 C 3935.511719 4675.683594 3932.121094 4677.089844 3929.570312 4679.640625 C 3924.308594 4684.902344 3924.308594 4693.46875 3929.570312 4698.730469 C 3932.121094 4701.28125 3935.511719 4702.683594 3939.117188 4702.683594 C 3942.722656 4702.683594 3946.113281 4701.28125 3948.664062 4698.730469 C 3953.925781 4693.46875 3953.925781 4684.902344 3948.664062 4679.640625 C 3946.113281 4677.089844 3942.722656 4675.683594 3939.117188 4675.683594 M 3939.117188 4680.183594 C 3941.417969 4680.183594 3943.722656 4681.0625 3945.480469 4682.820312 C 3948.996094 4686.335938 3948.996094 4692.035156 3945.480469 4695.550781 C 3943.722656 4697.304688 3941.417969 4698.183594 3939.117188 4698.183594 C 3936.8125 4698.183594 3934.511719 4697.304688 3932.753906 4695.550781 C 3929.238281 4692.035156 3929.238281 4686.335938 3932.753906 4682.820312 C 3934.511719 4681.0625 3936.8125 4680.183594 3939.117188 4680.183594 "/>
<path xmlns="http://www.w3.org/2000/svg" fill-rule="nonzero" fill="rgb(10.572815%, 9.655762%, 10.258484%)" fill-opacity="1" d="M 3955.027344 4659.773438 C 3951.421875 4659.773438 3948.03125 4661.179688 3945.480469 4663.730469 C 3940.21875 4668.992188 3940.21875 4677.558594 3945.480469 4682.820312 C 3948.03125 4685.371094 3951.421875 4686.773438 3955.027344 4686.773438 C 3958.632812 4686.773438 3962.023438 4685.371094 3964.574219 4682.820312 C 3967.121094 4680.269531 3968.527344 4676.882812 3968.527344 4673.273438 C 3968.527344 4669.667969 3967.121094 4666.28125 3964.574219 4663.730469 C 3962.023438 4661.179688 3958.632812 4659.773438 3955.027344 4659.773438 M 3955.027344 4664.273438 C 3957.328125 4664.273438 3959.632812 4665.15625 3961.390625 4666.910156 C 3964.90625 4670.425781 3964.90625 4676.125 3961.390625 4679.640625 C 3959.632812 4681.394531 3957.328125 4682.273438 3955.027344 4682.273438 C 3952.722656 4682.273438 3950.421875 4681.394531 3948.664062 4679.640625 C 3945.148438 4676.125 3945.148438 4670.425781 3948.664062 4666.910156 C 3950.421875 4665.15625 3952.722656 4664.273438 3955.027344 4664.273438 "/>
<path xmlns="http://www.w3.org/2000/svg" fill-rule="nonzero" fill="rgb(10.572815%, 9.655762%, 10.258484%)" fill-opacity="1" d="M 3378.539062 4409.609375 C 3374.933594 4409.609375 3371.542969 4411.011719 3368.996094 4413.5625 C 3366.445312 4416.113281 3365.039062 4419.503906 3365.039062 4423.109375 C 3365.039062 4426.714844 3366.445312 4430.105469 3368.996094 4432.65625 C 3371.542969 4435.203125 3374.933594 4436.609375 3378.539062 4436.609375 C 3382.144531 4436.609375 3385.535156 4435.203125 3388.085938 4432.65625 C 3390.636719 4430.105469 3392.039062 4426.714844 3392.039062 4423.109375 C 3392.039062 4419.503906 3390.636719 4416.113281 3388.085938 4413.5625 C 3385.535156 4411.011719 3382.144531 4409.609375 3378.539062 4409.609375 M 3378.539062 4414.109375 C 3380.84375 4414.109375 3383.144531 4414.988281 3384.90625 4416.746094 C 3388.417969 4420.261719 3388.417969 4425.957031 3384.90625 4429.472656 C 3383.144531 4431.230469 3380.84375 4432.109375 3378.539062 4432.109375 C 3376.238281 4432.109375 3373.933594 4431.230469 3372.175781 4429.472656 C 3368.664062 4425.957031 3368.664062 4420.261719 3372.175781 4416.746094 C 3373.933594 4414.988281 3376.238281 4414.109375 3378.539062 4414.109375 "/>
<path xmlns="http://www.w3.org/2000/svg" fill-rule="nonzero" fill="rgb(10.572815%, 9.655762%, 10.258484%)" fill-opacity="1" d="M 3293.601562 4495.046875 C 3289.996094 4495.046875 3286.605469 4496.449219 3284.054688 4499 C 3278.792969 4504.265625 3278.792969 4512.828125 3284.054688 4518.09375 C 3286.605469 4520.640625 3289.996094 4522.046875 3293.601562 4522.046875 C 3297.207031 4522.046875 3300.597656 4520.640625 3303.148438 4518.09375 C 3305.699219 4515.542969 3307.101562 4512.152344 3307.101562 4508.546875 C 3307.101562 4504.941406 3305.699219 4501.550781 3303.148438 4499 C 3300.597656 4496.449219 3297.207031 4495.046875 3293.601562 4495.046875 M 3293.601562 4499.546875 C 3295.90625 4499.546875 3298.207031 4500.425781 3299.964844 4502.183594 C 3303.480469 4505.699219 3303.480469 4511.394531 3299.964844 4514.910156 C 3298.207031 4516.667969 3295.90625 4517.546875 3293.601562 4517.546875 C 3291.300781 4517.546875 3288.996094 4516.667969 3287.238281 4514.910156 C 3283.722656 4511.394531 3283.722656 4505.699219 3287.238281 4502.183594 C 3288.996094 4500.425781 3291.300781 4499.546875 3293.601562 4499.546875 "/>
<path xmlns="http://www.w3.org/2000/svg" fill-rule="nonzero" fill="rgb(10.572815%, 9.655762%, 10.258484%)" fill-opacity="1" d="M 4352.742188 3567.460938 C 4349.75 3567.460938 4347.316406 3569.894531 4347.316406 3572.886719 L 4347.316406 3588.15625 C 4347.316406 3591.144531 4349.75 3593.578125 4352.742188 3593.578125 C 4353.433594 3593.578125 4354.113281 3593.449219 4354.757812 3593.191406 L 4373.84375 3585.554688 C 4375.914062 3584.726562 4377.253906 3582.75 4377.253906 3580.519531 C 4377.253906 3578.289062 4375.914062 3576.3125 4373.839844 3575.484375 L 4354.753906 3567.847656 C 4354.109375 3567.589844 4353.433594 3567.460938 4352.742188 3567.460938 M 4352.742188 3571.960938 C 4352.855469 3571.960938 4352.96875 3571.980469 4353.085938 3572.027344 L 4372.171875 3579.660156 C 4372.945312 3579.972656 4372.945312 3581.066406 4372.171875 3581.378906 L 4353.085938 3589.011719 C 4352.96875 3589.058594 4352.855469 3589.078125 4352.742188 3589.078125 C 4352.25 3589.078125 4351.816406 3588.683594 4351.816406 3588.15625 L 4351.816406 3572.886719 C 4351.816406 3572.355469 4352.25 3571.960938 4352.742188 3571.960938 "/>
<path xmlns="http://www.w3.org/2000/svg" fill-rule="nonzero" fill="rgb(10.572815%, 9.655762%, 10.258484%)" fill-opacity="1" d="M 4352.742188 3593.523438 C 4349.75 3593.523438 4347.316406 3595.957031 4347.316406 3598.945312 L 4347.316406 3614.214844 C 4347.316406 3617.207031 4349.75 3619.640625 4352.742188 3619.640625 C 4353.433594 3619.640625 4354.113281 3619.511719 4354.757812 3619.253906 L 4373.84375 3611.617188 C 4375.914062 3610.789062 4377.253906 3608.8125 4377.253906 3606.582031 C 4377.253906 3604.351562 4375.914062 3602.375 4373.839844 3601.542969 L 4354.753906 3593.910156 C 4354.109375 3593.652344 4353.433594 3593.523438 4352.742188 3593.523438 M 4352.742188 3598.023438 C 4352.855469 3598.023438 4352.96875 3598.042969 4353.085938 3598.089844 L 4372.171875 3605.722656 C 4372.945312 3606.03125 4372.945312 3607.128906 4372.171875 3607.441406 L 4353.085938 3615.074219 C 4352.96875 3615.121094 4352.855469 3615.140625 4352.742188 3615.140625 C 4352.253906 3615.140625 4351.816406 3614.746094 4351.816406 3614.214844 L 4351.816406 3598.945312 C 4351.816406 3598.417969 4352.25 3598.023438 4352.742188 3598.023438 "/>
<path xmlns="http://www.w3.org/2000/svg" fill-rule="nonzero" fill="rgb(10.572815%, 9.655762%, 10.258484%)" fill-opacity="1" d="M 4493.121094 5027.898438 C 4492.410156 5027.898438 4491.710938 5028.035156 4491.050781 5028.308594 L 4472.046875 5036.148438 C 4469.984375 5036.996094 4468.667969 5038.988281 4468.691406 5041.21875 C 4468.714844 5043.449219 4470.074219 5045.414062 4472.15625 5046.21875 L 4491.324219 5053.648438 C 4491.953125 5053.894531 4492.613281 5054.015625 4493.285156 5054.015625 C 4494.722656 5054.015625 4496.128906 5053.429688 4497.140625 5052.402344 C 4498.167969 5051.367188 4498.722656 5049.992188 4498.707031 5048.53125 L 4498.542969 5033.265625 C 4498.511719 5030.304688 4496.078125 5027.898438 4493.121094 5027.898438 M 4493.121094 5032.398438 C 4493.605469 5032.398438 4494.039062 5032.785156 4494.042969 5033.3125 L 4494.207031 5048.582031 C 4494.214844 5049.113281 4493.777344 5049.515625 4493.285156 5049.515625 C 4493.171875 5049.515625 4493.0625 5049.496094 4492.949219 5049.453125 L 4473.78125 5042.023438 C 4473.003906 5041.722656 4472.992188 5040.625 4473.761719 5040.308594 L 4492.769531 5032.46875 C 4492.882812 5032.417969 4493.003906 5032.398438 4493.121094 5032.398438 "/>
<path xmlns="http://www.w3.org/2000/svg" fill-rule="nonzero" fill="rgb(10.572815%, 9.655762%, 10.258484%)" fill-opacity="1" d="M 4312.261719 4895.65625 C 4311.550781 4895.65625 4310.855469 4895.796875 4310.195312 4896.070312 L 4291.191406 4903.90625 C 4289.128906 4904.757812 4287.8125 4906.75 4287.835938 4908.980469 C 4287.859375 4911.210938 4289.21875 4913.171875 4291.296875 4913.980469 L 4310.464844 4921.410156 C 4311.09375 4921.652344 4311.753906 4921.777344 4312.425781 4921.777344 C 4313.863281 4921.777344 4315.269531 4921.1875 4316.285156 4920.164062 C 4317.308594 4919.128906 4317.867188 4917.753906 4317.851562 4916.292969 L 4317.6875 4901.023438 C 4317.65625 4898.066406 4315.222656 4895.65625 4312.261719 4895.65625 M 4312.261719 4900.15625 C 4312.75 4900.15625 4313.179688 4900.546875 4313.1875 4901.074219 L 4313.351562 4916.34375 C 4313.355469 4916.875 4312.921875 4917.277344 4312.425781 4917.277344 C 4312.316406 4917.277344 4312.203125 4917.257812 4312.09375 4917.214844 L 4292.925781 4909.785156 C 4292.148438 4909.480469 4292.136719 4908.386719 4292.90625 4908.066406 L 4311.910156 4900.230469 C 4312.027344 4900.179688 4312.148438 4900.15625 4312.261719 4900.15625 "/>
<path xmlns="http://www.w3.org/2000/svg" fill-rule="nonzero" fill="rgb(10.572815%, 9.655762%, 10.258484%)" fill-opacity="1" d="M 4243.835938 4805.957031 L 4228.566406 4805.957031 C 4226.761719 4805.957031 4225.085938 4806.847656 4224.074219 4808.339844 C 4223.0625 4809.832031 4222.859375 4811.722656 4223.527344 4813.394531 L 4231.164062 4832.480469 C 4231.992188 4834.554688 4233.96875 4835.890625 4236.199219 4835.890625 C 4238.429688 4835.890625 4240.40625 4834.554688 4241.238281 4832.480469 L 4248.871094 4813.394531 C 4249.539062 4811.71875 4249.335938 4809.828125 4248.324219 4808.339844 C 4247.316406 4806.847656 4245.636719 4805.957031 4243.835938 4805.957031 M 4243.835938 4810.457031 C 4244.488281 4810.457031 4244.933594 4811.117188 4244.691406 4811.722656 L 4237.058594 4830.808594 C 4236.902344 4831.199219 4236.550781 4831.390625 4236.199219 4831.390625 C 4235.847656 4831.390625 4235.496094 4831.199219 4235.339844 4830.808594 L 4227.707031 4811.722656 C 4227.464844 4811.117188 4227.910156 4810.457031 4228.566406 4810.457031 Z M 4243.835938 4810.457031 "/>
<path xmlns="http://www.w3.org/2000/svg" fill-rule="nonzero" fill="rgb(10.572815%, 9.655762%, 10.258484%)" fill-opacity="1" d="M 3430.589844 4326.570312 C 3426.984375 4326.570312 3423.59375 4327.976562 3421.042969 4330.523438 C 3415.777344 4335.789062 3415.78125 4344.351562 3421.042969 4349.617188 C 3423.59375 4352.164062 3426.984375 4353.570312 3430.589844 4353.570312 C 3434.195312 4353.570312 3437.585938 4352.164062 3440.132812 4349.617188 C 3445.398438 4344.351562 3445.398438 4335.789062 3440.132812 4330.523438 C 3437.585938 4327.976562 3434.195312 4326.570312 3430.589844 4326.570312 M 3430.589844 4331.070312 C 3432.890625 4331.070312 3435.195312 4331.949219 3436.953125 4333.707031 C 3440.464844 4337.222656 3440.464844 4342.917969 3436.953125 4346.433594 C 3435.195312 4348.191406 3432.890625 4349.070312 3430.589844 4349.070312 C 3428.285156 4349.070312 3425.984375 4348.191406 3424.222656 4346.433594 C 3420.710938 4342.917969 3420.710938 4337.222656 3424.222656 4333.707031 C 3425.984375 4331.949219 3428.285156 4331.070312 3430.589844 4331.070312 "/>
<path xmlns="http://www.w3.org/2000/svg" fill-rule="nonzero" fill="rgb(10.572815%, 9.655762%, 10.258484%)" fill-opacity="1" d="M 3610.664062 4349.671875 C 3607.058594 4349.671875 3603.667969 4351.074219 3601.121094 4353.625 C 3595.855469 4358.890625 3595.855469 4367.453125 3601.121094 4372.71875 C 3603.667969 4375.265625 3607.058594 4376.671875 3610.664062 4376.671875 C 3614.269531 4376.671875 3617.660156 4375.265625 3620.210938 4372.71875 C 3622.761719 4370.167969 3624.164062 4366.777344 3624.164062 4363.171875 C 3624.164062 4359.566406 3622.761719 4356.175781 3620.210938 4353.625 C 3617.660156 4351.074219 3614.269531 4349.671875 3610.664062 4349.671875 M 3610.664062 4354.171875 C 3612.96875 4354.171875 3615.269531 4355.050781 3617.03125 4356.808594 C 3620.542969 4360.324219 3620.542969 4366.019531 3617.03125 4369.535156 C 3615.269531 4371.292969 3612.96875 4372.171875 3610.664062 4372.171875 C 3608.363281 4372.171875 3606.058594 4371.292969 3604.300781 4369.535156 C 3600.789062 4366.019531 3600.789062 4360.324219 3604.300781 4356.808594 C 3606.058594 4355.050781 3608.363281 4354.171875 3610.664062 4354.171875 "/>
<path xmlns="http://www.w3.org/2000/svg" fill-rule="nonzero" fill="rgb(10.572815%, 9.655762%, 10.258484%)" fill-opacity="1" d="M 3620.855469 4334.050781 C 3619.03125 4334.050781 3617.339844 4334.964844 3616.328125 4336.496094 C 3615.324219 4338.019531 3615.15625 4339.933594 3615.875 4341.617188 L 3623.972656 4360.511719 C 3624.832031 4362.507812 3626.789062 4363.796875 3628.960938 4363.796875 C 3630.410156 4363.796875 3631.769531 4363.234375 3632.796875 4362.207031 L 3643.59375 4351.410156 C 3644.867188 4350.136719 3645.425781 4348.320312 3645.082031 4346.550781 C 3644.742188 4344.78125 3643.550781 4343.300781 3641.894531 4342.589844 L 3623 4334.492188 C 3622.316406 4334.199219 3621.59375 4334.050781 3620.855469 4334.050781 M 3620.855469 4338.550781 C 3620.976562 4338.550781 3621.101562 4338.574219 3621.226562 4338.628906 L 3640.121094 4346.726562 C 3640.722656 4346.984375 3640.875 4347.769531 3640.410156 4348.230469 L 3629.613281 4359.027344 C 3629.429688 4359.210938 3629.195312 4359.296875 3628.960938 4359.296875 C 3628.609375 4359.296875 3628.265625 4359.097656 3628.109375 4358.738281 L 3620.011719 4339.84375 C 3619.738281 4339.199219 3620.234375 4338.550781 3620.855469 4338.550781 "/>
<path xmlns="http://www.w3.org/2000/svg" fill-rule="nonzero" fill="rgb(10.572815%, 9.655762%, 10.258484%)" fill-opacity="1" d="M 3328.179688 4728.707031 C 3325.1875 4728.707031 3322.757812 4731.140625 3322.757812 4734.132812 L 3322.757812 4749.402344 C 3322.757812 4752.394531 3325.1875 4754.828125 3328.179688 4754.828125 C 3328.871094 4754.828125 3329.550781 4754.695312 3330.195312 4754.4375 L 3349.28125 4746.804688 C 3351.351562 4745.976562 3352.691406 4744 3352.691406 4741.769531 C 3352.691406 4739.539062 3351.351562 4737.5625 3349.28125 4736.730469 L 3330.195312 4729.097656 C 3329.550781 4728.839844 3328.871094 4728.707031 3328.179688 4728.707031 M 3328.179688 4733.207031 C 3328.292969 4733.207031 3328.410156 4733.230469 3328.523438 4733.273438 L 3347.609375 4740.910156 C 3348.386719 4741.21875 3348.386719 4742.316406 3347.609375 4742.625 L 3328.523438 4750.261719 C 3328.410156 4750.308594 3328.292969 4750.328125 3328.179688 4750.328125 C 3327.691406 4750.328125 3327.257812 4749.933594 3327.257812 4749.402344 L 3327.257812 4734.132812 C 3327.257812 4733.601562 3327.691406 4733.207031 3328.179688 4733.207031 "/>
<path xmlns="http://www.w3.org/2000/svg" fill-rule="nonzero" fill="rgb(10.572815%, 9.655762%, 10.258484%)" fill-opacity="1" d="M 3347.269531 4825.996094 C 3346.574219 4825.996094 3345.898438 4826.125 3345.25 4826.382812 L 3326.164062 4834.019531 C 3324.09375 4834.847656 3322.753906 4836.824219 3322.753906 4839.054688 C 3322.753906 4841.285156 3324.09375 4843.261719 3326.164062 4844.089844 L 3345.25 4851.726562 C 3345.898438 4851.984375 3346.574219 4852.117188 3347.269531 4852.117188 C 3350.257812 4852.117188 3352.691406 4849.679688 3352.691406 4846.691406 L 3352.691406 4831.421875 C 3352.691406 4828.429688 3350.257812 4825.996094 3347.269531 4825.996094 M 3347.269531 4830.496094 C 3347.753906 4830.496094 3348.191406 4830.890625 3348.191406 4831.421875 L 3348.191406 4846.691406 C 3348.191406 4847.21875 3347.753906 4847.617188 3347.269531 4847.617188 C 3347.152344 4847.617188 3347.039062 4847.59375 3346.921875 4847.546875 L 3327.835938 4839.914062 C 3327.0625 4839.601562 3327.0625 4838.507812 3327.835938 4838.199219 L 3346.921875 4830.5625 C 3347.039062 4830.515625 3347.152344 4830.496094 3347.269531 4830.496094 "/>
<path xmlns="http://www.w3.org/2000/svg" fill-rule="nonzero" fill="rgb(10.572815%, 9.655762%, 10.258484%)" fill-opacity="1" d="M 3271.125 4863.882812 L 3255.859375 4863.882812 C 3254.054688 4863.882812 3252.375 4864.773438 3251.367188 4866.261719 C 3250.355469 4867.753906 3250.152344 4869.644531 3250.820312 4871.316406 L 3258.457031 4890.40625 C 3259.285156 4892.476562 3261.261719 4893.816406 3263.492188 4893.816406 C 3265.722656 4893.816406 3267.699219 4892.476562 3268.527344 4890.40625 L 3276.164062 4871.320312 C 3276.832031 4869.648438 3276.628906 4867.757812 3275.621094 4866.265625 C 3274.609375 4864.773438 3272.929688 4863.882812 3271.125 4863.882812 M 3271.125 4868.382812 C 3271.78125 4868.382812 3272.230469 4869.039062 3271.984375 4869.648438 L 3264.351562 4888.734375 C 3264.195312 4889.121094 3263.84375 4889.316406 3263.492188 4889.316406 C 3263.140625 4889.316406 3262.789062 4889.121094 3262.632812 4888.734375 L 3255 4869.648438 C 3254.757812 4869.039062 3255.203125 4868.382812 3255.859375 4868.382812 Z M 3271.125 4868.382812 "/>
<path xmlns="http://www.w3.org/2000/svg" fill-rule="nonzero" fill="rgb(10.572815%, 9.655762%, 10.258484%)" fill-opacity="1" d="M 3310.125 5027.378906 C 3307.132812 5027.378906 3304.699219 5029.8125 3304.699219 5032.804688 L 3304.699219 5048.074219 C 3304.699219 5051.066406 3307.132812 5053.5 3310.125 5053.5 C 3310.816406 5053.5 3311.496094 5053.371094 3312.140625 5053.113281 L 3331.226562 5045.476562 C 3333.296875 5044.648438 3334.636719 5042.671875 3334.636719 5040.441406 C 3334.636719 5038.210938 3333.296875 5036.230469 3331.226562 5035.40625 L 3312.140625 5027.769531 C 3311.496094 5027.511719 3310.816406 5027.378906 3310.125 5027.378906 M 3310.125 5031.878906 C 3310.238281 5031.878906 3310.351562 5031.902344 3310.46875 5031.949219 L 3329.554688 5039.582031 C 3330.328125 5039.890625 3330.328125 5040.988281 3329.554688 5041.296875 L 3310.46875 5048.933594 C 3310.351562 5048.980469 3310.238281 5049 3310.125 5049 C 3309.636719 5049 3309.199219 5048.605469 3309.199219 5048.074219 L 3309.199219 5032.804688 C 3309.199219 5032.277344 3309.636719 5031.878906 3310.125 5031.878906 "/>
<path xmlns="http://www.w3.org/2000/svg" fill-rule="nonzero" fill="rgb(10.572815%, 9.655762%, 10.258484%)" fill-opacity="1" d="M 3396.472656 4426.832031 C 3392.867188 4426.832031 3389.476562 4428.234375 3386.925781 4430.785156 C 3381.664062 4436.050781 3381.664062 4444.613281 3386.925781 4449.878906 C 3389.476562 4452.425781 3392.867188 4453.832031 3396.472656 4453.832031 C 3400.078125 4453.832031 3403.46875 4452.425781 3406.019531 4449.878906 C 3411.28125 4444.613281 3411.28125 4436.050781 3406.019531 4430.785156 C 3403.46875 4428.234375 3400.078125 4426.832031 3396.472656 4426.832031 M 3396.472656 4431.332031 C 3398.777344 4431.332031 3401.078125 4432.210938 3402.835938 4433.96875 C 3406.351562 4437.484375 3406.351562 4443.179688 3402.835938 4446.695312 C 3401.078125 4448.453125 3398.777344 4449.332031 3396.472656 4449.332031 C 3394.167969 4449.332031 3391.867188 4448.453125 3390.109375 4446.695312 C 3386.59375 4443.179688 3386.59375 4437.484375 3390.109375 4433.96875 C 3391.867188 4432.210938 3394.167969 4431.332031 3396.472656 4431.332031 "/>
<path xmlns="http://www.w3.org/2000/svg" fill-rule="nonzero" fill="rgb(10.572815%, 9.655762%, 10.258484%)" fill-opacity="1" d="M 3310.527344 4512.273438 C 3306.921875 4512.273438 3303.53125 4513.679688 3300.984375 4516.226562 C 3295.71875 4521.492188 3295.71875 4530.054688 3300.984375 4535.320312 C 3303.53125 4537.871094 3306.921875 4539.273438 3310.527344 4539.273438 C 3314.136719 4539.273438 3317.523438 4537.871094 3320.074219 4535.320312 C 3325.339844 4530.054688 3325.339844 4521.492188 3320.074219 4516.226562 C 3317.523438 4513.679688 3314.136719 4512.273438 3310.527344 4512.273438 M 3310.527344 4516.773438 C 3312.832031 4516.773438 3315.136719 4517.652344 3316.894531 4519.410156 C 3320.40625 4522.925781 3320.40625 4528.625 3316.894531 4532.136719 C 3315.136719 4533.894531 3312.832031 4534.773438 3310.527344 4534.773438 C 3308.226562 4534.773438 3305.921875 4533.894531 3304.164062 4532.136719 C 3300.652344 4528.625 3300.652344 4522.925781 3304.164062 4519.410156 C 3305.921875 4517.652344 3308.226562 4516.773438 3310.527344 4516.773438 "/>
<path xmlns="http://www.w3.org/2000/svg" fill-rule="nonzero" fill="rgb(10.572815%, 9.655762%, 10.258484%)" fill-opacity="1" d="M 3328.71875 4361.789062 C 3325.113281 4361.789062 3321.722656 4363.191406 3319.171875 4365.742188 C 3313.910156 4371.007812 3313.910156 4379.570312 3319.171875 4384.835938 C 3321.722656 4387.382812 3325.113281 4388.789062 3328.71875 4388.789062 C 3332.324219 4388.789062 3335.714844 4387.382812 3338.265625 4384.835938 C 3343.527344 4379.570312 3343.527344 4371.007812 3338.265625 4365.742188 C 3335.714844 4363.191406 3332.324219 4361.789062 3328.71875 4361.789062 M 3328.71875 4366.289062 C 3331.023438 4366.289062 3333.324219 4367.167969 3335.082031 4368.925781 C 3338.597656 4372.4375 3338.597656 4378.136719 3335.082031 4381.652344 C 3333.324219 4383.410156 3331.023438 4384.289062 3328.71875 4384.289062 C 3326.417969 4384.289062 3324.113281 4383.410156 3322.355469 4381.652344 C 3318.839844 4378.136719 3318.839844 4372.4375 3322.355469 4368.925781 C 3324.113281 4367.167969 3326.417969 4366.289062 3328.71875 4366.289062 "/>
<path xmlns="http://www.w3.org/2000/svg" fill-rule="nonzero" fill="rgb(10.572815%, 9.655762%, 10.258484%)" fill-opacity="1" d="M 3362.628906 4393.699219 C 3359.023438 4393.699219 3355.632812 4395.101562 3353.085938 4397.652344 C 3347.820312 4402.917969 3347.820312 4411.480469 3353.085938 4416.746094 C 3355.632812 4419.292969 3359.023438 4420.699219 3362.628906 4420.699219 C 3366.238281 4420.699219 3369.625 4419.292969 3372.175781 4416.746094 C 3377.441406 4411.480469 3377.441406 4402.917969 3372.175781 4397.652344 C 3369.625 4395.101562 3366.238281 4393.699219 3362.628906 4393.699219 M 3362.628906 4398.199219 C 3364.933594 4398.199219 3367.238281 4399.078125 3368.996094 4400.835938 C 3372.507812 4404.351562 3372.507812 4410.046875 3368.996094 4413.5625 C 3367.238281 4415.320312 3364.933594 4416.199219 3362.628906 4416.199219 C 3360.328125 4416.199219 3358.023438 4415.320312 3356.265625 4413.5625 C 3352.75 4410.046875 3352.75 4404.351562 3356.265625 4400.835938 C 3358.023438 4399.078125 3360.328125 4398.199219 3362.628906 4398.199219 "/>
<path xmlns="http://www.w3.org/2000/svg" fill-rule="nonzero" fill="rgb(10.572815%, 9.655762%, 10.258484%)" fill-opacity="1" d="M 4725.808594 3881.378906 C 4718.363281 3881.378906 4712.308594 3887.433594 4712.308594 3894.878906 C 4712.308594 3902.324219 4718.363281 3908.378906 4725.808594 3908.378906 C 4733.253906 3908.378906 4739.308594 3902.324219 4739.308594 3894.878906 C 4739.308594 3887.433594 4733.253906 3881.378906 4725.808594 3881.378906 M 4725.808594 3885.878906 C 4730.78125 3885.878906 4734.808594 3889.90625 4734.808594 3894.878906 C 4734.808594 3899.847656 4730.78125 3903.878906 4725.808594 3903.878906 C 4720.839844 3903.878906 4716.808594 3899.847656 4716.808594 3894.878906 C 4716.808594 3889.90625 4720.839844 3885.878906 4725.808594 3885.878906 "/>
<path xmlns="http://www.w3.org/2000/svg" fill-rule="nonzero" fill="rgb(10.572815%, 9.655762%, 10.258484%)" fill-opacity="1" d="M 4482.464844 5001.695312 C 4475.019531 5001.695312 4468.964844 5007.75 4468.964844 5015.195312 C 4468.964844 5022.636719 4475.019531 5028.695312 4482.464844 5028.695312 C 4489.90625 5028.695312 4495.964844 5022.636719 4495.964844 5015.195312 C 4495.964844 5007.75 4489.90625 5001.695312 4482.464844 5001.695312 M 4482.464844 5006.195312 C 4487.433594 5006.195312 4491.464844 5010.222656 4491.464844 5015.195312 C 4491.464844 5020.164062 4487.433594 5024.195312 4482.464844 5024.195312 C 4477.492188 5024.195312 4473.464844 5020.164062 4473.464844 5015.195312 C 4473.464844 5010.222656 4477.492188 5006.195312 4482.464844 5006.195312 "/>
<path xmlns="http://www.w3.org/2000/svg" fill-rule="nonzero" fill="rgb(100%, 100%, 100%)" fill-opacity="1" d="M 3632.414062 3616.769531 C 3620.558594 3616.769531 3610.914062 3607.125 3610.914062 3595.269531 C 3610.914062 3583.417969 3620.558594 3573.769531 3632.414062 3573.769531 C 3644.269531 3573.769531 3653.914062 3583.417969 3653.914062 3595.269531 C 3653.914062 3607.125 3644.269531 3616.769531 3632.414062 3616.769531 "/>
<path xmlns="http://www.w3.org/2000/svg" fill-rule="nonzero" fill="rgb(100%, 100%, 100%)" fill-opacity="1" d="M 3635.199219 3515.074219 C 3623.347656 3515.074219 3613.699219 3505.429688 3613.699219 3493.574219 C 3613.699219 3481.71875 3623.347656 3472.074219 3635.199219 3472.074219 C 3647.054688 3472.074219 3656.699219 3481.71875 3656.699219 3493.574219 C 3656.699219 3505.429688 3647.054688 3515.074219 3635.199219 3515.074219 "/>
<path xmlns="http://www.w3.org/2000/svg" fill-rule="nonzero" fill="rgb(100%, 100%, 100%)" fill-opacity="1" d="M 3595.972656 4073.816406 C 3584.121094 4073.816406 3574.472656 4064.171875 3574.472656 4052.316406 C 3574.472656 4040.460938 3584.121094 4030.816406 3595.972656 4030.816406 C 3607.828125 4030.816406 3617.472656 4040.460938 3617.472656 4052.316406 C 3617.472656 4064.171875 3607.828125 4073.816406 3595.972656 4073.816406 "/>
<path xmlns="http://www.w3.org/2000/svg" fill-rule="nonzero" fill="rgb(100%, 100%, 100%)" fill-opacity="1" d="M 3501.382812 4172.96875 C 3489.527344 4172.96875 3479.882812 4163.324219 3479.882812 4151.46875 C 3479.882812 4139.613281 3489.527344 4129.96875 3501.382812 4129.96875 C 3513.238281 4129.96875 3522.882812 4139.613281 3522.882812 4151.46875 C 3522.882812 4163.324219 3513.238281 4172.96875 3501.382812 4172.96875 "/>
<path xmlns="http://www.w3.org/2000/svg" fill-rule="nonzero" fill="rgb(100%, 100%, 100%)" fill-opacity="1" d="M 3367.945312 4303.269531 C 3356.089844 4303.269531 3346.445312 4293.625 3346.445312 4281.769531 C 3346.445312 4269.914062 3356.089844 4260.269531 3367.945312 4260.269531 C 3379.800781 4260.269531 3389.445312 4269.914062 3389.445312 4281.769531 C 3389.445312 4293.625 3379.800781 4303.269531 3367.945312 4303.269531 "/>
<path xmlns="http://www.w3.org/2000/svg" fill-rule="nonzero" fill="rgb(100%, 100%, 100%)" fill-opacity="1" d="M 3217.636719 4453.535156 C 3205.78125 4453.535156 3196.136719 4443.890625 3196.136719 4432.035156 C 3196.136719 4420.179688 3205.78125 4410.535156 3217.636719 4410.535156 C 3229.492188 4410.535156 3239.136719 4420.179688 3239.136719 4432.035156 C 3239.136719 4443.890625 3229.492188 4453.535156 3217.636719 4453.535156 "/>
<path xmlns="http://www.w3.org/2000/svg" fill-rule="nonzero" fill="rgb(100%, 100%, 100%)" fill-opacity="1" d="M 3170.695312 4900.347656 C 3158.839844 4900.347656 3149.195312 4890.703125 3149.195312 4878.847656 C 3149.195312 4866.992188 3158.839844 4857.347656 3170.695312 4857.347656 C 3182.550781 4857.347656 3192.195312 4866.992188 3192.195312 4878.847656 C 3192.195312 4890.703125 3182.550781 4900.347656 3170.695312 4900.347656 "/>
<path xmlns="http://www.w3.org/2000/svg" fill-rule="nonzero" fill="rgb(100%, 100%, 100%)" fill-opacity="1" d="M 3170.195312 5042.476562 C 3158.339844 5042.476562 3148.695312 5032.832031 3148.695312 5020.976562 C 3148.695312 5009.125 3158.339844 4999.476562 3170.195312 4999.476562 C 3182.050781 4999.476562 3191.695312 5009.125 3191.695312 5020.976562 C 3191.695312 5032.832031 3182.050781 5042.476562 3170.195312 5042.476562 "/>
<path xmlns="http://www.w3.org/2000/svg" fill-rule="nonzero" fill="rgb(100%, 100%, 100%)" fill-opacity="1" d="M 3585.363281 3697.238281 C 3574.335938 3697.238281 3565.363281 3688.265625 3565.363281 3677.238281 C 3565.363281 3666.210938 3574.335938 3657.238281 3585.363281 3657.238281 C 3596.394531 3657.238281 3605.363281 3666.210938 3605.363281 3677.238281 C 3605.363281 3688.265625 3596.394531 3697.238281 3585.363281 3697.238281 "/>
<path xmlns="http://www.w3.org/2000/svg" fill-rule="nonzero" fill="rgb(100%, 100%, 100%)" fill-opacity="1" d="M 3225.277344 3687.28125 C 3214.25 3687.28125 3205.277344 3678.3125 3205.277344 3667.28125 C 3205.277344 3656.253906 3214.25 3647.28125 3225.277344 3647.28125 C 3236.304688 3647.28125 3245.277344 3656.253906 3245.277344 3667.28125 C 3245.277344 3678.3125 3236.304688 3687.28125 3225.277344 3687.28125 "/>
<path xmlns="http://www.w3.org/2000/svg" fill-rule="nonzero" fill="rgb(100%, 100%, 100%)" fill-opacity="1" d="M 3835.660156 3692.109375 C 3824.632812 3692.109375 3815.660156 3683.136719 3815.660156 3672.109375 C 3815.660156 3661.078125 3824.632812 3652.109375 3835.660156 3652.109375 C 3846.691406 3652.109375 3855.660156 3661.078125 3855.660156 3672.109375 C 3855.660156 3683.136719 3846.691406 3692.109375 3835.660156 3692.109375 "/>
<path xmlns="http://www.w3.org/2000/svg" fill-rule="nonzero" fill="rgb(100%, 100%, 100%)" fill-opacity="1" d="M 4450.550781 3411.945312 C 4439.519531 3411.945312 4430.550781 3402.972656 4430.550781 3391.945312 C 4430.550781 3380.917969 4439.519531 3371.945312 4450.550781 3371.945312 C 4461.578125 3371.945312 4470.550781 3380.917969 4470.550781 3391.945312 C 4470.550781 3402.972656 4461.578125 3411.945312 4450.550781 3411.945312 "/>
<path xmlns="http://www.w3.org/2000/svg" fill-rule="nonzero" fill="rgb(100%, 100%, 100%)" fill-opacity="1" d="M 4604.234375 3562.359375 C 4593.207031 3562.359375 4584.234375 3553.386719 4584.234375 3542.359375 C 4584.234375 3531.328125 4593.207031 3522.359375 4604.234375 3522.359375 C 4615.261719 3522.359375 4624.234375 3531.328125 4624.234375 3542.359375 C 4624.234375 3553.386719 4615.261719 3562.359375 4604.234375 3562.359375 "/>
<path xmlns="http://www.w3.org/2000/svg" fill-rule="nonzero" fill="rgb(100%, 100%, 100%)" fill-opacity="1" d="M 2596.648438 4120.261719 C 2585.621094 4120.261719 2576.648438 4111.289062 2576.648438 4100.261719 C 2576.648438 4089.234375 2585.621094 4080.261719 2596.648438 4080.261719 C 2607.675781 4080.261719 2616.648438 4089.234375 2616.648438 4100.261719 C 2616.648438 4111.289062 2607.675781 4120.261719 2596.648438 4120.261719 "/>
<path xmlns="http://www.w3.org/2000/svg" fill-rule="nonzero" fill="rgb(100%, 100%, 100%)" fill-opacity="1" d="M 2440.148438 4732.582031 C 2429.121094 4732.582031 2420.148438 4723.609375 2420.148438 4712.582031 C 2420.148438 4701.550781 2429.121094 4692.582031 2440.148438 4692.582031 C 2451.175781 4692.582031 2460.148438 4701.550781 2460.148438 4712.582031 C 2460.148438 4723.609375 2451.175781 4732.582031 2440.148438 4732.582031 "/>
<path xmlns="http://www.w3.org/2000/svg" fill-rule="nonzero" fill="rgb(100%, 100%, 100%)" fill-opacity="1" d="M 2792.949219 3411.613281 C 2770.980469 3411.613281 2753.105469 3393.738281 2753.105469 3371.769531 C 2753.105469 3349.796875 2770.980469 3331.925781 2792.949219 3331.925781 C 2814.917969 3331.925781 2832.792969 3349.796875 2832.792969 3371.769531 C 2832.792969 3393.738281 2814.917969 3411.613281 2792.949219 3411.613281 "/>
</svg>
