<?xml version="1.0" encoding="UTF-8"?>
<svg xmlns="http://www.w3.org/2000/svg" xmlns:xlink="http://www.w3.org/1999/xlink" viewBox="4756.785 5045.16 2378.3925 1681.72" width="2378.3925" height="1681.72">
<path xmlns="http://www.w3.org/2000/svg" fill-rule="nonzero" fill="rgb(10.572815%, 9.655762%, 10.258484%)" fill-opacity="1" d="M 7083.125 5112.484375 C 7086.820312 5112.488281 7086.820312 5118.054688 7083.019531 5118.0625 L 7067.542969 5118.0625 L 7054.488281 5139.738281 L 7048.78125 5139.738281 L 7055.867188 5118.164062 L 7044.300781 5118.164062 L 7040.394531 5123.140625 L 7035.882812 5123.140625 L 7038.253906 5115.453125 L 7035.882812 5107.742188 L 7040.394531 5107.742188 L 7044.300781 5112.691406 L 7055.867188 5112.691406 L 7048.78125 5091.117188 L 7054.488281 5091.117188 L 7067.542969 5112.484375 Z M 7083.125 5112.484375 "/>
<path xmlns="http://www.w3.org/2000/svg" fill-rule="nonzero" fill="rgb(100%, 100%, 100%)" fill-opacity="1" d="M 6758.746094 6295.957031 C 6736.777344 6295.957031 6718.902344 6278.082031 6718.902344 6256.113281 C 6718.902344 6234.144531 6736.777344 6216.269531 6758.746094 6216.269531 C 6780.714844 6216.269531 6798.589844 6234.144531 6798.589844 6256.113281 C 6798.589844 6278.082031 6780.714844 6295.957031 6758.746094 6295.957031 "/>
<path xmlns="http://www.w3.org/2000/svg" fill-rule="nonzero" fill="rgb(100%, 100%, 100%)" fill-opacity="1" d="M 6837.570312 5516.324219 C 6826.542969 5516.324219 6817.570312 5507.351562 6817.570312 5496.324219 C 6817.570312 5485.296875 6826.542969 5476.324219 6837.570312 5476.324219 C 6848.597656 5476.324219 6857.570312 5485.296875 6857.570312 5496.324219 C 6857.570312 5507.351562 6848.597656 5516.324219 6837.570312 5516.324219 "/>
<path xmlns="http://www.w3.org/2000/svg" fill-rule="nonzero" fill="rgb(100%, 100%, 100%)" fill-opacity="1" d="M 6837.570312 5783.9375 C 6826.542969 5783.9375 6817.570312 5774.964844 6817.570312 5763.9375 C 6817.570312 5752.910156 6826.542969 5743.9375 6837.570312 5743.9375 C 6848.597656 5743.9375 6857.570312 5752.910156 6857.570312 5763.9375 C 6857.570312 5774.964844 6848.597656 5783.9375 6837.570312 5783.9375 "/>
<path xmlns="http://www.w3.org/2000/svg" fill-rule="nonzero" fill="rgb(100%, 100%, 100%)" fill-opacity="1" d="M 6837.570312 6027.847656 C 6826.542969 6027.847656 6817.570312 6018.875 6817.570312 6007.847656 C 6817.570312 5996.820312 6826.542969 5987.847656 6837.570312 5987.847656 C 6848.597656 5987.847656 6857.570312 5996.820312 6857.570312 6007.847656 C 6857.570312 6018.875 6848.597656 6027.847656 6837.570312 6027.847656 "/>
<path xmlns="http://www.w3.org/2000/svg" fill-rule="nonzero" fill="rgb(100%, 100%, 100%)" fill-opacity="1" d="M 6837.570312 6272.507812 C 6826.542969 6272.507812 6817.570312 6263.535156 6817.570312 6252.507812 C 6817.570312 6241.476562 6826.542969 6232.507812 6837.570312 6232.507812 C 6848.597656 6232.507812 6857.570312 6241.476562 6857.570312 6252.507812 C 6857.570312 6263.535156 6848.597656 6272.507812 6837.570312 6272.507812 "/>
<path xmlns="http://www.w3.org/2000/svg" fill-rule="nonzero" fill="rgb(10.572815%, 9.655762%, 10.258484%)" fill-opacity="1" d="M 6193.699219 5051.464844 C 6186.253906 5051.464844 6180.199219 5057.519531 6180.199219 5064.964844 C 6180.199219 5072.40625 6186.253906 5078.464844 6193.699219 5078.464844 C 6201.144531 5078.464844 6207.199219 5072.40625 6207.199219 5064.964844 C 6207.199219 5057.519531 6201.144531 5051.464844 6193.699219 5051.464844 M 6193.699219 5055.964844 C 6198.671875 5055.964844 6202.699219 5059.992188 6202.699219 5064.964844 C 6202.699219 5069.933594 6198.671875 5073.964844 6193.699219 5073.964844 C 6188.730469 5073.964844 6184.699219 5069.933594 6184.699219 5064.964844 C 6184.699219 5059.992188 6188.730469 5055.964844 6193.699219 5055.964844 "/>
<path xmlns="http://www.w3.org/2000/svg" fill-rule="nonzero" fill="rgb(10.572815%, 9.655762%, 10.258484%)" fill-opacity="1" d="M 6171.199219 5051.464844 C 6163.757812 5051.464844 6157.699219 5057.519531 6157.699219 5064.964844 C 6157.699219 5072.40625 6163.757812 5078.464844 6171.199219 5078.464844 C 6178.644531 5078.464844 6184.699219 5072.40625 6184.699219 5064.964844 C 6184.699219 5057.519531 6178.644531 5051.464844 6171.199219 5051.464844 M 6171.199219 5055.964844 C 6176.171875 5055.964844 6180.199219 5059.992188 6180.199219 5064.964844 C 6180.199219 5069.933594 6176.171875 5073.964844 6171.199219 5073.964844 C 6166.230469 5073.964844 6162.199219 5069.933594 6162.199219 5064.964844 C 6162.199219 5059.992188 6166.230469 5055.964844 6171.199219 5055.964844 "/>
<path xmlns="http://www.w3.org/2000/svg" fill-rule="nonzero" fill="rgb(10.572815%, 9.655762%, 10.258484%)" fill-opacity="1" d="M 6216.199219 5051.464844 C 6208.757812 5051.464844 6202.699219 5057.519531 6202.699219 5064.964844 C 6202.699219 5072.40625 6208.757812 5078.464844 6216.199219 5078.464844 C 6223.644531 5078.464844 6229.699219 5072.40625 6229.699219 5064.964844 C 6229.699219 5057.519531 6223.644531 5051.464844 6216.199219 5051.464844 M 6216.199219 5055.964844 C 6221.171875 5055.964844 6225.199219 5059.992188 6225.199219 5064.964844 C 6225.199219 5069.933594 6221.171875 5073.964844 6216.199219 5073.964844 C 6211.230469 5073.964844 6207.199219 5069.933594 6207.199219 5064.964844 C 6207.199219 5059.992188 6211.230469 5055.964844 6216.199219 5055.964844 "/>
<path xmlns="http://www.w3.org/2000/svg" fill-rule="nonzero" fill="rgb(10.572815%, 9.655762%, 10.258484%)" fill-opacity="1" d="M 6193.699219 5267.070312 C 6186.253906 5267.070312 6180.199219 5273.128906 6180.199219 5280.570312 C 6180.199219 5288.015625 6186.253906 5294.070312 6193.699219 5294.070312 C 6201.144531 5294.070312 6207.199219 5288.015625 6207.199219 5280.570312 C 6207.199219 5273.128906 6201.144531 5267.070312 6193.699219 5267.070312 M 6193.699219 5271.570312 C 6198.671875 5271.570312 6202.699219 5275.601562 6202.699219 5280.570312 C 6202.699219 5285.542969 6198.671875 5289.570312 6193.699219 5289.570312 C 6188.730469 5289.570312 6184.699219 5285.542969 6184.699219 5280.570312 C 6184.699219 5275.601562 6188.730469 5271.570312 6193.699219 5271.570312 "/>
<path xmlns="http://www.w3.org/2000/svg" fill-rule="nonzero" fill="rgb(10.572815%, 9.655762%, 10.258484%)" fill-opacity="1" d="M 6171.199219 5267.070312 C 6163.757812 5267.070312 6157.699219 5273.128906 6157.699219 5280.570312 C 6157.699219 5288.015625 6163.757812 5294.070312 6171.199219 5294.070312 C 6178.644531 5294.070312 6184.699219 5288.015625 6184.699219 5280.570312 C 6184.699219 5273.128906 6178.644531 5267.070312 6171.199219 5267.070312 M 6171.199219 5271.570312 C 6176.171875 5271.570312 6180.199219 5275.601562 6180.199219 5280.570312 C 6180.199219 5285.542969 6176.171875 5289.570312 6171.199219 5289.570312 C 6166.230469 5289.570312 6162.199219 5285.542969 6162.199219 5280.570312 C 6162.199219 5275.601562 6166.230469 5271.570312 6171.199219 5271.570312 "/>
<path xmlns="http://www.w3.org/2000/svg" fill-rule="nonzero" fill="rgb(10.572815%, 9.655762%, 10.258484%)" fill-opacity="1" d="M 6240.417969 5051.464844 C 6232.976562 5051.464844 6226.917969 5057.519531 6226.917969 5064.964844 C 6226.917969 5072.40625 6232.976562 5078.464844 6240.417969 5078.464844 C 6247.863281 5078.464844 6253.917969 5072.40625 6253.917969 5064.964844 C 6253.917969 5057.519531 6247.863281 5051.464844 6240.417969 5051.464844 M 6240.417969 5055.964844 C 6245.390625 5055.964844 6249.417969 5059.992188 6249.417969 5064.964844 C 6249.417969 5069.933594 6245.390625 5073.964844 6240.417969 5073.964844 C 6235.449219 5073.964844 6231.417969 5069.933594 6231.417969 5064.964844 C 6231.417969 5059.992188 6235.449219 5055.964844 6240.417969 5055.964844 "/>
<path xmlns="http://www.w3.org/2000/svg" fill-rule="nonzero" fill="rgb(10.572815%, 9.655762%, 10.258484%)" fill-opacity="1" d="M 6148.699219 5267.070312 C 6141.257812 5267.070312 6135.199219 5273.128906 6135.199219 5280.570312 C 6135.199219 5288.015625 6141.257812 5294.070312 6148.699219 5294.070312 C 6156.144531 5294.070312 6162.199219 5288.015625 6162.199219 5280.570312 C 6162.199219 5273.128906 6156.144531 5267.070312 6148.699219 5267.070312 M 6148.699219 5271.570312 C 6153.671875 5271.570312 6157.699219 5275.601562 6157.699219 5280.570312 C 6157.699219 5285.542969 6153.671875 5289.570312 6148.699219 5289.570312 C 6143.730469 5289.570312 6139.699219 5285.542969 6139.699219 5280.570312 C 6139.699219 5275.601562 6143.730469 5271.570312 6148.699219 5271.570312 "/>
<path xmlns="http://www.w3.org/2000/svg" fill-rule="nonzero" fill="rgb(10.572815%, 9.655762%, 10.258484%)" fill-opacity="1" d="M 6216.199219 5267.070312 C 6208.757812 5267.070312 6202.699219 5273.128906 6202.699219 5280.570312 C 6202.699219 5288.015625 6208.757812 5294.070312 6216.199219 5294.070312 C 6223.644531 5294.070312 6229.699219 5288.015625 6229.699219 5280.570312 C 6229.699219 5273.128906 6223.644531 5267.070312 6216.199219 5267.070312 M 6216.199219 5271.570312 C 6221.171875 5271.570312 6225.199219 5275.601562 6225.199219 5280.570312 C 6225.199219 5285.542969 6221.171875 5289.570312 6216.199219 5289.570312 C 6211.230469 5289.570312 6207.199219 5285.542969 6207.199219 5280.570312 C 6207.199219 5275.601562 6211.230469 5271.570312 6216.199219 5271.570312 "/>
<path xmlns="http://www.w3.org/2000/svg" fill-rule="nonzero" fill="rgb(10.572815%, 9.655762%, 10.258484%)" fill-opacity="1" d="M 6015.214844 5414.910156 C 6007.769531 5414.910156 6001.714844 5420.964844 6001.714844 5428.410156 C 6001.714844 5435.851562 6007.769531 5441.910156 6015.214844 5441.910156 C 6022.65625 5441.910156 6028.714844 5435.851562 6028.714844 5428.410156 C 6028.714844 5420.964844 6022.65625 5414.910156 6015.214844 5414.910156 M 6015.214844 5419.410156 C 6020.183594 5419.410156 6024.214844 5423.4375 6024.214844 5428.410156 C 6024.214844 5433.378906 6020.183594 5437.410156 6015.214844 5437.410156 C 6010.242188 5437.410156 6006.214844 5433.378906 6006.214844 5428.410156 C 6006.214844 5423.4375 6010.242188 5419.410156 6015.214844 5419.410156 "/>
<path xmlns="http://www.w3.org/2000/svg" fill-rule="nonzero" fill="rgb(10.572815%, 9.655762%, 10.258484%)" fill-opacity="1" d="M 6193.699219 5535.613281 C 6186.257812 5535.613281 6180.199219 5541.667969 6180.199219 5549.113281 C 6180.199219 5556.554688 6186.257812 5562.613281 6193.699219 5562.613281 C 6201.144531 5562.613281 6207.199219 5556.554688 6207.199219 5549.113281 C 6207.199219 5541.667969 6201.144531 5535.613281 6193.699219 5535.613281 M 6193.699219 5540.113281 C 6198.671875 5540.113281 6202.699219 5544.140625 6202.699219 5549.113281 C 6202.699219 5554.082031 6198.671875 5558.113281 6193.699219 5558.113281 C 6188.730469 5558.113281 6184.699219 5554.082031 6184.699219 5549.113281 C 6184.699219 5544.140625 6188.730469 5540.113281 6193.699219 5540.113281 "/>
<path xmlns="http://www.w3.org/2000/svg" fill-rule="nonzero" fill="rgb(10.572815%, 9.655762%, 10.258484%)" fill-opacity="1" d="M 6193.699219 5460.753906 C 6186.257812 5460.753906 6180.199219 5466.8125 6180.199219 5474.253906 C 6180.199219 5481.699219 6186.257812 5487.753906 6193.699219 5487.753906 C 6201.144531 5487.753906 6207.199219 5481.699219 6207.199219 5474.253906 C 6207.199219 5466.8125 6201.144531 5460.753906 6193.699219 5460.753906 M 6193.699219 5465.253906 C 6198.671875 5465.253906 6202.699219 5469.285156 6202.699219 5474.253906 C 6202.699219 5479.226562 6198.671875 5483.253906 6193.699219 5483.253906 C 6188.730469 5483.253906 6184.699219 5479.226562 6184.699219 5474.253906 C 6184.699219 5469.285156 6188.730469 5465.253906 6193.699219 5465.253906 "/>
<path xmlns="http://www.w3.org/2000/svg" fill-rule="nonzero" fill="rgb(10.572815%, 9.655762%, 10.258484%)" fill-opacity="1" d="M 6148.699219 5460.753906 C 6141.253906 5460.753906 6135.199219 5466.8125 6135.199219 5474.253906 C 6135.199219 5481.699219 6141.253906 5487.753906 6148.699219 5487.753906 C 6156.144531 5487.753906 6162.199219 5481.699219 6162.199219 5474.253906 C 6162.199219 5466.8125 6156.144531 5460.753906 6148.699219 5460.753906 M 6148.699219 5465.253906 C 6153.671875 5465.253906 6157.699219 5469.285156 6157.699219 5474.253906 C 6157.699219 5479.226562 6153.671875 5483.253906 6148.699219 5483.253906 C 6143.730469 5483.253906 6139.699219 5479.226562 6139.699219 5474.253906 C 6139.699219 5469.285156 6143.730469 5465.253906 6148.699219 5465.253906 "/>
<path xmlns="http://www.w3.org/2000/svg" fill-rule="nonzero" fill="rgb(10.572815%, 9.655762%, 10.258484%)" fill-opacity="1" d="M 6753.566406 5849.003906 C 6746.121094 5849.003906 6740.066406 5855.0625 6740.066406 5862.503906 C 6740.066406 5869.949219 6746.121094 5876.003906 6753.566406 5876.003906 C 6761.007812 5876.003906 6767.066406 5869.949219 6767.066406 5862.503906 C 6767.066406 5855.0625 6761.007812 5849.003906 6753.566406 5849.003906 M 6753.566406 5853.503906 C 6758.535156 5853.503906 6762.566406 5857.535156 6762.566406 5862.503906 C 6762.566406 5867.476562 6758.535156 5871.503906 6753.566406 5871.503906 C 6748.59375 5871.503906 6744.566406 5867.476562 6744.566406 5862.503906 C 6744.566406 5857.535156 6748.59375 5853.503906 6753.566406 5853.503906 "/>
<path xmlns="http://www.w3.org/2000/svg" fill-rule="nonzero" fill="rgb(10.572815%, 9.655762%, 10.258484%)" fill-opacity="1" d="M 6753.566406 5823.824219 C 6746.121094 5823.824219 6740.066406 5829.882812 6740.066406 5837.324219 C 6740.066406 5844.769531 6746.121094 5850.824219 6753.566406 5850.824219 C 6761.007812 5850.824219 6767.066406 5844.769531 6767.066406 5837.324219 C 6767.066406 5829.882812 6761.007812 5823.824219 6753.566406 5823.824219 M 6753.566406 5828.324219 C 6758.535156 5828.324219 6762.566406 5832.355469 6762.566406 5837.324219 C 6762.566406 5842.296875 6758.535156 5846.324219 6753.566406 5846.324219 C 6748.59375 5846.324219 6744.566406 5842.296875 6744.566406 5837.324219 C 6744.566406 5832.355469 6748.59375 5828.324219 6753.566406 5828.324219 "/>
<path xmlns="http://www.w3.org/2000/svg" fill-rule="nonzero" fill="rgb(10.572815%, 9.655762%, 10.258484%)" fill-opacity="1" d="M 6583.871094 5849.003906 C 6576.425781 5849.003906 6570.371094 5855.0625 6570.371094 5862.503906 C 6570.371094 5869.949219 6576.425781 5876.003906 6583.871094 5876.003906 C 6591.316406 5876.003906 6597.371094 5869.949219 6597.371094 5862.503906 C 6597.371094 5855.0625 6591.316406 5849.003906 6583.871094 5849.003906 M 6583.871094 5853.503906 C 6588.84375 5853.503906 6592.871094 5857.535156 6592.871094 5862.503906 C 6592.871094 5867.476562 6588.84375 5871.503906 6583.871094 5871.503906 C 6578.902344 5871.503906 6574.871094 5867.476562 6574.871094 5862.503906 C 6574.871094 5857.535156 6578.902344 5853.503906 6583.871094 5853.503906 "/>
<path xmlns="http://www.w3.org/2000/svg" fill-rule="nonzero" fill="rgb(10.572815%, 9.655762%, 10.258484%)" fill-opacity="1" d="M 6583.871094 5823.824219 C 6576.425781 5823.824219 6570.371094 5829.882812 6570.371094 5837.324219 C 6570.371094 5844.769531 6576.425781 5850.824219 6583.871094 5850.824219 C 6591.316406 5850.824219 6597.371094 5844.769531 6597.371094 5837.324219 C 6597.371094 5829.882812 6591.316406 5823.824219 6583.871094 5823.824219 M 6583.871094 5828.324219 C 6588.84375 5828.324219 6592.871094 5832.355469 6592.871094 5837.324219 C 6592.871094 5842.296875 6588.84375 5846.324219 6583.871094 5846.324219 C 6578.902344 5846.324219 6574.871094 5842.296875 6574.871094 5837.324219 C 6574.871094 5832.355469 6578.902344 5828.324219 6583.871094 5828.324219 "/>
<path xmlns="http://www.w3.org/2000/svg" fill-rule="nonzero" fill="rgb(10.572815%, 9.655762%, 10.258484%)" fill-opacity="1" d="M 6414.324219 5849.003906 C 6406.882812 5849.003906 6400.824219 5855.0625 6400.824219 5862.503906 C 6400.824219 5869.949219 6406.882812 5876.003906 6414.324219 5876.003906 C 6421.769531 5876.003906 6427.824219 5869.949219 6427.824219 5862.503906 C 6427.824219 5855.0625 6421.769531 5849.003906 6414.324219 5849.003906 M 6414.324219 5853.503906 C 6419.296875 5853.503906 6423.324219 5857.535156 6423.324219 5862.503906 C 6423.324219 5867.476562 6419.296875 5871.503906 6414.324219 5871.503906 C 6409.355469 5871.503906 6405.324219 5867.476562 6405.324219 5862.503906 C 6405.324219 5857.535156 6409.355469 5853.503906 6414.324219 5853.503906 "/>
<path xmlns="http://www.w3.org/2000/svg" fill-rule="nonzero" fill="rgb(10.572815%, 9.655762%, 10.258484%)" fill-opacity="1" d="M 6414.324219 5824.535156 C 6406.882812 5824.535156 6400.824219 5830.589844 6400.824219 5838.035156 C 6400.824219 5845.476562 6406.882812 5851.535156 6414.324219 5851.535156 C 6421.769531 5851.535156 6427.824219 5845.476562 6427.824219 5838.035156 C 6427.824219 5830.589844 6421.769531 5824.535156 6414.324219 5824.535156 M 6414.324219 5829.035156 C 6419.296875 5829.035156 6423.324219 5833.0625 6423.324219 5838.035156 C 6423.324219 5843.003906 6419.296875 5847.035156 6414.324219 5847.035156 C 6409.355469 5847.035156 6405.324219 5843.003906 6405.324219 5838.035156 C 6405.324219 5833.0625 6409.355469 5829.035156 6414.324219 5829.035156 "/>
<path xmlns="http://www.w3.org/2000/svg" fill-rule="nonzero" fill="rgb(10.572815%, 9.655762%, 10.258484%)" fill-opacity="1" d="M 6263.929688 5656.035156 C 6256.488281 5656.035156 6250.429688 5662.089844 6250.429688 5669.535156 C 6250.429688 5676.976562 6256.488281 5683.035156 6263.929688 5683.035156 C 6271.375 5683.035156 6277.429688 5676.976562 6277.429688 5669.535156 C 6277.429688 5662.089844 6271.375 5656.035156 6263.929688 5656.035156 M 6263.929688 5660.535156 C 6268.902344 5660.535156 6272.929688 5664.5625 6272.929688 5669.535156 C 6272.929688 5674.503906 6268.902344 5678.535156 6263.929688 5678.535156 C 6258.960938 5678.535156 6254.929688 5674.503906 6254.929688 5669.535156 C 6254.929688 5664.5625 6258.960938 5660.535156 6263.929688 5660.535156 "/>
<path xmlns="http://www.w3.org/2000/svg" fill-rule="nonzero" fill="rgb(10.572815%, 9.655762%, 10.258484%)" fill-opacity="1" d="M 6289.109375 5656.035156 C 6285.503906 5656.035156 6282.113281 5657.4375 6279.5625 5659.988281 C 6277.011719 5662.539062 6275.609375 5665.929688 6275.609375 5669.535156 C 6275.609375 5676.976562 6281.664062 5683.035156 6289.109375 5683.035156 C 6292.714844 5683.035156 6296.105469 5681.628906 6298.65625 5679.078125 C 6301.207031 5676.53125 6302.609375 5673.140625 6302.609375 5669.535156 C 6302.609375 5662.089844 6296.554688 5656.035156 6289.109375 5656.035156 M 6289.109375 5660.535156 C 6294.078125 5660.535156 6298.109375 5664.5625 6298.109375 5669.535156 C 6298.109375 5674.503906 6294.082031 5678.535156 6289.109375 5678.535156 C 6284.136719 5678.535156 6280.109375 5674.503906 6280.109375 5669.535156 C 6280.109375 5664.5625 6284.136719 5660.535156 6289.109375 5660.535156 "/>
<path xmlns="http://www.w3.org/2000/svg" fill-rule="nonzero" fill="rgb(10.572815%, 9.655762%, 10.258484%)" fill-opacity="1" d="M 6263.929688 5712.910156 C 6256.488281 5712.910156 6250.429688 5718.964844 6250.429688 5726.410156 C 6250.429688 5733.855469 6256.488281 5739.910156 6263.929688 5739.910156 C 6271.375 5739.910156 6277.429688 5733.851562 6277.429688 5726.410156 C 6277.429688 5718.964844 6271.375 5712.910156 6263.929688 5712.910156 M 6263.929688 5717.410156 C 6268.902344 5717.410156 6272.929688 5721.4375 6272.929688 5726.410156 C 6272.929688 5731.378906 6268.902344 5735.410156 6263.929688 5735.410156 C 6258.960938 5735.410156 6254.929688 5731.378906 6254.929688 5726.410156 C 6254.929688 5721.4375 6258.960938 5717.410156 6263.929688 5717.410156 "/>
<path xmlns="http://www.w3.org/2000/svg" fill-rule="nonzero" fill="rgb(10.572815%, 9.655762%, 10.258484%)" fill-opacity="1" d="M 6289.109375 5712.910156 C 6285.503906 5712.910156 6282.113281 5714.3125 6279.5625 5716.863281 C 6277.011719 5719.414062 6275.609375 5722.804688 6275.609375 5726.410156 C 6275.609375 5733.855469 6281.664062 5739.910156 6289.109375 5739.910156 C 6292.714844 5739.910156 6296.105469 5738.503906 6298.65625 5735.957031 C 6301.207031 5733.40625 6302.609375 5730.015625 6302.609375 5726.410156 C 6302.609375 5718.964844 6296.554688 5712.910156 6289.109375 5712.910156 M 6289.109375 5717.410156 C 6294.078125 5717.410156 6298.109375 5721.4375 6298.109375 5726.410156 C 6298.109375 5731.378906 6294.082031 5735.410156 6289.109375 5735.410156 C 6284.136719 5735.410156 6280.109375 5731.378906 6280.109375 5726.410156 C 6280.109375 5721.4375 6284.136719 5717.410156 6289.109375 5717.410156 "/>
<path xmlns="http://www.w3.org/2000/svg" fill-rule="nonzero" fill="rgb(10.572815%, 9.655762%, 10.258484%)" fill-opacity="1" d="M 6924.765625 5408.566406 C 6917.320312 5408.566406 6911.265625 5414.621094 6911.265625 5422.066406 C 6911.265625 5429.507812 6917.320312 5435.566406 6924.765625 5435.566406 C 6932.210938 5435.566406 6938.265625 5429.507812 6938.265625 5422.066406 C 6938.265625 5414.621094 6932.210938 5408.566406 6924.765625 5408.566406 M 6924.765625 5413.066406 C 6929.734375 5413.066406 6933.765625 5417.09375 6933.765625 5422.066406 C 6933.765625 5427.035156 6929.734375 5431.066406 6924.765625 5431.066406 C 6919.792969 5431.066406 6915.765625 5427.035156 6915.765625 5422.066406 C 6915.765625 5417.09375 6919.792969 5413.066406 6924.765625 5413.066406 "/>
<path xmlns="http://www.w3.org/2000/svg" fill-rule="nonzero" fill="rgb(10.572815%, 9.655762%, 10.258484%)" fill-opacity="1" d="M 6171.199219 5457.238281 C 6168.96875 5457.238281 6166.992188 5458.574219 6166.164062 5460.648438 L 6158.527344 5479.734375 C 6157.859375 5481.40625 6158.0625 5483.296875 6159.074219 5484.789062 C 6160.082031 5486.28125 6161.761719 5487.171875 6163.566406 5487.171875 L 6178.835938 5487.171875 C 6180.636719 5487.171875 6182.316406 5486.28125 6183.324219 5484.789062 C 6184.335938 5483.296875 6184.539062 5481.40625 6183.871094 5479.734375 L 6176.238281 5460.648438 C 6175.40625 5458.574219 6173.429688 5457.238281 6171.199219 5457.238281 M 6171.199219 5461.738281 C 6171.550781 5461.738281 6171.902344 5461.929688 6172.058594 5462.316406 L 6179.691406 5481.40625 C 6179.9375 5482.011719 6179.488281 5482.671875 6178.835938 5482.671875 L 6163.566406 5482.671875 C 6162.910156 5482.671875 6162.464844 5482.011719 6162.707031 5481.40625 L 6170.339844 5462.316406 C 6170.496094 5461.929688 6170.847656 5461.738281 6171.199219 5461.738281 "/>
<path xmlns="http://www.w3.org/2000/svg" fill-rule="nonzero" fill="rgb(10.572815%, 9.655762%, 10.258484%)" fill-opacity="1" d="M 6024.757812 5386.394531 C 6024.066406 5386.394531 6023.386719 5386.523438 6022.742188 5386.78125 L 6003.65625 5394.417969 C 6001.585938 5395.246094 6000.246094 5397.222656 6000.246094 5399.453125 C 6000.246094 5401.683594 6001.585938 5403.660156 6003.65625 5404.488281 L 6022.742188 5412.125 C 6023.386719 5412.382812 6024.066406 5412.511719 6024.757812 5412.511719 C 6027.75 5412.511719 6030.179688 5410.078125 6030.179688 5407.085938 L 6030.179688 5391.816406 C 6030.179688 5388.828125 6027.75 5386.394531 6024.757812 5386.394531 M 6024.757812 5390.894531 C 6025.246094 5390.894531 6025.679688 5391.289062 6025.679688 5391.816406 L 6025.679688 5407.085938 C 6025.679688 5407.617188 6025.246094 5408.011719 6024.757812 5408.011719 C 6024.644531 5408.011719 6024.527344 5407.992188 6024.414062 5407.945312 L 6005.328125 5400.3125 C 6004.550781 5400 6004.550781 5398.90625 6005.328125 5398.59375 L 6024.414062 5390.960938 C 6024.527344 5390.914062 6024.644531 5390.894531 6024.757812 5390.894531 "/>
<path xmlns="http://www.w3.org/2000/svg" fill-rule="nonzero" fill="rgb(100%, 100%, 100%)" fill-opacity="1" d="M 5280.238281 5155.09375 C 5269.207031 5155.09375 5260.238281 5146.121094 5260.238281 5135.09375 C 5260.238281 5124.066406 5269.207031 5115.09375 5280.238281 5115.09375 C 5291.265625 5115.09375 5300.238281 5124.066406 5300.238281 5135.09375 C 5300.238281 5146.121094 5291.265625 5155.09375 5280.238281 5155.09375 "/>
<path xmlns="http://www.w3.org/2000/svg" fill-rule="nonzero" fill="rgb(100%, 100%, 100%)" fill-opacity="1" d="M 5280.238281 5388.902344 C 5269.207031 5388.902344 5260.238281 5379.929688 5260.238281 5368.902344 C 5260.238281 5357.875 5269.207031 5348.902344 5280.238281 5348.902344 C 5291.265625 5348.902344 5300.238281 5357.875 5300.238281 5368.902344 C 5300.238281 5379.929688 5291.265625 5388.902344 5280.238281 5388.902344 "/>
<path xmlns="http://www.w3.org/2000/svg" fill-rule="nonzero" fill="rgb(100%, 100%, 100%)" fill-opacity="1" d="M 5280.238281 5622.707031 C 5269.207031 5622.707031 5260.238281 5613.734375 5260.238281 5602.707031 C 5260.238281 5591.679688 5269.207031 5582.707031 5280.238281 5582.707031 C 5291.265625 5582.707031 5300.238281 5591.679688 5300.238281 5602.707031 C 5300.238281 5613.734375 5291.265625 5622.707031 5280.238281 5622.707031 "/>
<path xmlns="http://www.w3.org/2000/svg" fill-rule="nonzero" fill="rgb(100%, 100%, 100%)" fill-opacity="1" d="M 5280.238281 5856.515625 C 5269.207031 5856.515625 5260.238281 5847.542969 5260.238281 5836.515625 C 5260.238281 5825.488281 5269.207031 5816.515625 5280.238281 5816.515625 C 5291.265625 5816.515625 5300.238281 5825.488281 5300.238281 5836.515625 C 5300.238281 5847.542969 5291.265625 5856.515625 5280.238281 5856.515625 "/>
<path xmlns="http://www.w3.org/2000/svg" fill-rule="nonzero" fill="rgb(100%, 100%, 100%)" fill-opacity="1" d="M 5280.238281 6003.417969 C 5269.207031 6003.417969 5260.238281 5994.445312 5260.238281 5983.417969 C 5260.238281 5972.390625 5269.207031 5963.417969 5280.238281 5963.417969 C 5291.265625 5963.417969 5300.238281 5972.390625 5300.238281 5983.417969 C 5300.238281 5994.445312 5291.265625 6003.417969 5280.238281 6003.417969 "/>
<path xmlns="http://www.w3.org/2000/svg" fill-rule="nonzero" fill="rgb(100%, 100%, 100%)" fill-opacity="1" d="M 5280.238281 6103.890625 C 5269.207031 6103.890625 5260.238281 6094.917969 5260.238281 6083.890625 C 5260.238281 6072.863281 5269.207031 6063.890625 5280.238281 6063.890625 C 5291.265625 6063.890625 5300.238281 6072.863281 5300.238281 6083.890625 C 5300.238281 6094.917969 5291.265625 6103.890625 5280.238281 6103.890625 "/>
<path xmlns="http://www.w3.org/2000/svg" fill-rule="nonzero" fill="rgb(100%, 100%, 100%)" fill-opacity="1" d="M 5280.207031 6216.363281 C 5269.175781 6216.363281 5260.207031 6207.390625 5260.207031 6196.363281 C 5260.207031 6185.335938 5269.175781 6176.363281 5280.207031 6176.363281 C 5291.234375 6176.363281 5300.207031 6185.335938 5300.207031 6196.363281 C 5300.207031 6207.390625 5291.234375 6216.363281 5280.207031 6216.363281 "/>
<path xmlns="http://www.w3.org/2000/svg" fill-rule="nonzero" fill="rgb(100%, 100%, 100%)" fill-opacity="1" d="M 5280.207031 6313.835938 C 5269.175781 6313.835938 5260.207031 6304.863281 5260.207031 6293.835938 C 5260.207031 6282.808594 5269.175781 6273.835938 5280.207031 6273.835938 C 5291.234375 6273.835938 5300.207031 6282.808594 5300.207031 6293.835938 C 5300.207031 6304.863281 5291.234375 6313.835938 5280.207031 6313.835938 "/>
<path xmlns="http://www.w3.org/2000/svg" fill-rule="nonzero" fill="rgb(100%, 100%, 100%)" fill-opacity="1" d="M 5280.207031 6421.835938 C 5269.175781 6421.835938 5260.207031 6412.863281 5260.207031 6401.835938 C 5260.207031 6390.808594 5269.175781 6381.835938 5280.207031 6381.835938 C 5291.234375 6381.835938 5300.207031 6390.808594 5300.207031 6401.835938 C 5300.207031 6412.863281 5291.234375 6421.835938 5280.207031 6421.835938 "/>
<path xmlns="http://www.w3.org/2000/svg" fill-rule="nonzero" fill="rgb(100%, 100%, 100%)" fill-opacity="1" d="M 6236.484375 6576.667969 C 6225.457031 6576.667969 6216.484375 6567.695312 6216.484375 6556.667969 C 6216.484375 6545.640625 6225.457031 6536.667969 6236.484375 6536.667969 C 6247.511719 6536.667969 6256.484375 6545.640625 6256.484375 6556.667969 C 6256.484375 6567.695312 6247.511719 6576.667969 6236.484375 6576.667969 "/>
<path xmlns="http://www.w3.org/2000/svg" fill-rule="nonzero" fill="rgb(100%, 100%, 100%)" fill-opacity="1" d="M 6022.777344 6576.667969 C 6011.75 6576.667969 6002.777344 6567.695312 6002.777344 6556.667969 C 6002.777344 6545.640625 6011.75 6536.667969 6022.777344 6536.667969 C 6033.804688 6536.667969 6042.777344 6545.640625 6042.777344 6556.667969 C 6042.777344 6567.695312 6033.804688 6576.667969 6022.777344 6576.667969 "/>
<path xmlns="http://www.w3.org/2000/svg" fill-rule="nonzero" fill="rgb(100%, 100%, 100%)" fill-opacity="1" d="M 5809.070312 6576.667969 C 5798.042969 6576.667969 5789.070312 6567.695312 5789.070312 6556.667969 C 5789.070312 6545.640625 5798.042969 6536.667969 5809.070312 6536.667969 C 5820.101562 6536.667969 5829.070312 6545.640625 5829.070312 6556.667969 C 5829.070312 6567.695312 5820.101562 6576.667969 5809.070312 6576.667969 "/>
<path xmlns="http://www.w3.org/2000/svg" fill-rule="nonzero" fill="rgb(100%, 100%, 100%)" fill-opacity="1" d="M 6093.195312 6353.394531 C 6082.167969 6353.394531 6073.195312 6344.425781 6073.195312 6333.394531 C 6073.195312 6322.367188 6082.167969 6313.394531 6093.195312 6313.394531 C 6104.226562 6313.394531 6113.195312 6322.367188 6113.195312 6333.394531 C 6113.195312 6344.425781 6104.226562 6353.394531 6093.195312 6353.394531 "/>
<path xmlns="http://www.w3.org/2000/svg" fill-rule="nonzero" fill="rgb(100%, 100%, 100%)" fill-opacity="1" d="M 5808.890625 6353.394531 C 5797.863281 6353.394531 5788.890625 6344.425781 5788.890625 6333.394531 C 5788.890625 6322.367188 5797.863281 6313.394531 5808.890625 6313.394531 C 5819.921875 6313.394531 5828.890625 6322.367188 5828.890625 6333.394531 C 5828.890625 6344.425781 5819.921875 6353.394531 5808.890625 6353.394531 "/>
<path xmlns="http://www.w3.org/2000/svg" fill-rule="nonzero" fill="rgb(100%, 100%, 100%)" fill-opacity="1" d="M 5945.960938 6353.394531 C 5934.933594 6353.394531 5925.960938 6344.425781 5925.960938 6333.394531 C 5925.960938 6322.367188 5934.933594 6313.394531 5945.960938 6313.394531 C 5956.988281 6313.394531 5965.960938 6322.367188 5965.960938 6333.394531 C 5965.960938 6344.425781 5956.988281 6353.394531 5945.960938 6353.394531 "/>
<path xmlns="http://www.w3.org/2000/svg" fill-rule="nonzero" fill="rgb(100%, 100%, 100%)" fill-opacity="1" d="M 5534.984375 6576.667969 C 5523.953125 6576.667969 5514.984375 6567.695312 5514.984375 6556.667969 C 5514.984375 6545.640625 5523.953125 6536.667969 5534.984375 6536.667969 C 5546.011719 6536.667969 5554.984375 6545.640625 5554.984375 6556.667969 C 5554.984375 6567.695312 5546.011719 6576.667969 5534.984375 6576.667969 "/>
<path xmlns="http://www.w3.org/2000/svg" fill-rule="nonzero" fill="rgb(100%, 100%, 100%)" fill-opacity="1" d="M 5386.921875 6576.667969 C 5375.894531 6576.667969 5366.921875 6567.695312 5366.921875 6556.667969 C 5366.921875 6545.640625 5375.894531 6536.667969 5386.921875 6536.667969 C 5397.953125 6536.667969 5406.921875 6545.640625 5406.921875 6556.667969 C 5406.921875 6567.695312 5397.953125 6576.667969 5386.921875 6576.667969 "/>
<path xmlns="http://www.w3.org/2000/svg" fill-rule="nonzero" fill="rgb(100%, 100%, 100%)" fill-opacity="1" d="M 6328.289062 6424.828125 C 6306.320312 6424.828125 6288.449219 6406.953125 6288.449219 6384.984375 C 6288.449219 6363.011719 6306.320312 6345.140625 6328.289062 6345.140625 C 6350.261719 6345.140625 6368.132812 6363.011719 6368.132812 6384.984375 C 6368.132812 6406.953125 6350.261719 6424.828125 6328.289062 6424.828125 "/>
<path xmlns="http://www.w3.org/2000/svg" fill-rule="nonzero" fill="rgb(100%, 100%, 100%)" fill-opacity="1" d="M 6171.625 6373.238281 C 6149.65625 6373.238281 6131.78125 6355.367188 6131.78125 6333.398438 C 6131.78125 6311.425781 6149.65625 6293.550781 6171.625 6293.550781 C 6193.59375 6293.550781 6211.46875 6311.425781 6211.46875 6333.398438 C 6211.46875 6355.367188 6193.59375 6373.238281 6171.625 6373.238281 "/>
</svg>
