<?xml version="1.0" encoding="UTF-8"?>
<svg xmlns="http://www.w3.org/2000/svg" xmlns:xlink="http://www.w3.org/1999/xlink" viewBox="0 0 2378.3925 1681.72" width="2378.3925" height="1681.72">
<defs>
<g xmlns="http://www.w3.org/2000/svg" id="glyph-4-0">
<path d="M 15.359375 18.34375 C 13.265625 15.675781 11.503906 12.742188 10.078125 9.546875 C 8.660156 6.359375 7.503906 3.09375 6.609375 -0.25 C 5.710938 -3.601562 5.0625 -6.984375 4.65625 -10.390625 C 4.257812 -13.804688 4.066406 -17.0625 4.078125 -20.15625 C 4.085938 -23.195312 4.304688 -26.398438 4.734375 -29.765625 C 5.171875 -33.140625 5.851562 -36.53125 6.78125 -39.9375 C 7.707031 -43.34375 8.910156 -46.671875 10.390625 -49.921875 C 11.878906 -53.179688 13.707031 -56.21875 15.875 -59.03125 L 22.5 -55.265625 C 20.988281 -52.671875 19.703125 -49.921875 18.640625 -47.015625 C 17.585938 -44.117188 16.707031 -41.148438 16 -38.109375 C 15.289062 -35.078125 14.773438 -32.023438 14.453125 -28.953125 C 14.128906 -25.878906 13.960938 -22.929688 13.953125 -20.109375 C 13.941406 -17.453125 14.09375 -14.601562 14.40625 -11.5625 C 14.726562 -8.519531 15.210938 -5.457031 15.859375 -2.375 C 16.515625 0.695312 17.375 3.675781 18.4375 6.5625 C 19.507812 9.445312 20.785156 12.054688 22.265625 14.390625 Z M 15.359375 18.34375 "/>
</g>
<g xmlns="http://www.w3.org/2000/svg" id="glyph-4-1">
<path d="M 36.703125 -2.15625 C 35.253906 -0.945312 33.328125 -0.0703125 30.921875 0.46875 C 28.515625 1.007812 26.125 1.273438 23.75 1.265625 C 20.757812 1.253906 17.976562 0.734375 15.40625 -0.296875 C 12.84375 -1.335938 10.597656 -3.050781 8.671875 -5.4375 C 6.742188 -7.820312 5.234375 -10.953125 4.140625 -14.828125 C 3.046875 -18.710938 2.515625 -23.476562 2.546875 -29.125 C 2.566406 -34.988281 3.207031 -39.851562 4.46875 -43.71875 C 5.738281 -47.59375 7.390625 -50.671875 9.421875 -52.953125 C 11.453125 -55.242188 13.769531 -56.851562 16.375 -57.78125 C 18.976562 -58.707031 21.609375 -59.164062 24.265625 -59.15625 C 26.984375 -59.144531 29.347656 -58.910156 31.359375 -58.453125 C 33.378906 -58.003906 35.023438 -57.5 36.296875 -56.9375 L 34.171875 -47.75 C 33.117188 -48.300781 31.890625 -48.734375 30.484375 -49.046875 C 29.078125 -49.359375 27.40625 -49.519531 25.46875 -49.53125 C 21.65625 -49.539062 18.710938 -47.890625 16.640625 -44.578125 C 14.578125 -41.273438 13.53125 -36.082031 13.5 -29 C 13.476562 -25.945312 13.695312 -23.160156 14.15625 -20.640625 C 14.625 -18.128906 15.363281 -15.957031 16.375 -14.125 C 17.382812 -12.289062 18.675781 -10.867188 20.25 -9.859375 C 21.832031 -8.859375 23.734375 -8.351562 25.953125 -8.34375 C 27.890625 -8.332031 29.546875 -8.585938 30.921875 -9.109375 C 32.304688 -9.628906 33.554688 -10.25 34.671875 -10.96875 Z M 36.703125 -2.15625 "/>
</g>
<g xmlns="http://www.w3.org/2000/svg" id="glyph-4-2">
<path d="M 21.46875 -29.953125 L 39.40625 -29.859375 L 39.28125 -4.125 C 37.21875 -2.195312 34.816406 -0.816406 32.078125 0.015625 C 29.335938 0.859375 26.613281 1.273438 23.90625 1.265625 C 20.644531 1.253906 17.6875 0.660156 15.03125 -0.515625 C 12.382812 -1.691406 10.140625 -3.515625 8.296875 -5.984375 C 6.453125 -8.453125 5.023438 -11.582031 4.015625 -15.375 C 3.003906 -19.175781 2.515625 -23.734375 2.546875 -29.046875 C 2.566406 -34.578125 3.191406 -39.25 4.421875 -43.0625 C 5.660156 -46.875 7.296875 -49.976562 9.328125 -52.375 C 11.367188 -54.769531 13.734375 -56.5 16.421875 -57.5625 C 19.109375 -58.632812 21.945312 -59.164062 24.9375 -59.15625 C 27.59375 -59.144531 30.007812 -58.898438 32.1875 -58.421875 C 34.375 -57.941406 36.1875 -57.394531 37.625 -56.78125 L 35.421875 -47.75 C 34.304688 -48.238281 33.019531 -48.648438 31.5625 -48.984375 C 30.101562 -49.328125 28.320312 -49.503906 26.21875 -49.515625 C 24.28125 -49.523438 22.519531 -49.144531 20.9375 -48.375 C 19.351562 -47.613281 18.019531 -46.40625 16.9375 -44.75 C 15.851562 -43.101562 15.007812 -40.960938 14.40625 -38.328125 C 13.8125 -35.703125 13.507812 -32.5625 13.5 -28.90625 C 13.457031 -21.875 14.492188 -16.691406 16.609375 -13.359375 C 18.734375 -10.035156 21.539062 -8.367188 25.03125 -8.359375 C 26.132812 -8.347656 27.195312 -8.503906 28.21875 -8.828125 C 29.25 -9.160156 30.148438 -9.6875 30.921875 -10.40625 L 30.984375 -22.28125 L 21.4375 -23.65625 Z M 21.46875 -29.953125 "/>
</g>
<g xmlns="http://www.w3.org/2000/svg" id="glyph-4-3">
<path d="M 16.546875 -24.828125 L 14.3125 -24.84375 L 14.203125 0.0625 L 3.734375 0.015625 L 4 -58.09375 L 14.46875 -58.046875 L 14.359375 -32.234375 L 16.421875 -33.21875 L 28.734375 -57.984375 L 40.53125 -57.921875 L 27.140625 -33.5 L 23.21875 -30.4375 L 27.1875 -27.265625 L 42.421875 0.203125 L 29.640625 0.140625 Z M 16.546875 -24.828125 "/>
</g>
<g xmlns="http://www.w3.org/2000/svg" id="glyph-4-4">
<path d="M 7.90625 -59.078125 C 10 -56.410156 11.753906 -53.484375 13.171875 -50.296875 C 14.597656 -47.109375 15.757812 -43.835938 16.65625 -40.484375 C 17.5625 -37.128906 18.210938 -33.742188 18.609375 -30.328125 C 19.003906 -26.921875 19.195312 -23.671875 19.1875 -20.578125 C 19.175781 -17.535156 18.953125 -14.328125 18.515625 -10.953125 C 18.085938 -7.585938 17.410156 -4.203125 16.484375 -0.796875 C 15.554688 2.597656 14.347656 5.925781 12.859375 9.1875 C 11.378906 12.445312 9.554688 15.484375 7.390625 18.296875 L 0.6875 14.4375 C 2.351562 11.6875 3.734375 8.847656 4.828125 5.921875 C 5.921875 2.992188 6.789062 0.0351562 7.4375 -2.953125 C 8.09375 -5.941406 8.566406 -8.925781 8.859375 -11.90625 C 9.148438 -14.894531 9.300781 -17.800781 9.3125 -20.625 C 9.320312 -23.28125 9.164062 -26.144531 8.84375 -29.21875 C 8.53125 -32.300781 8.019531 -35.375 7.3125 -38.4375 C 6.613281 -41.507812 5.742188 -44.488281 4.703125 -47.375 C 3.660156 -50.257812 2.425781 -52.894531 1 -55.28125 Z M 7.90625 -59.078125 "/>
</g>
<g xmlns="http://www.w3.org/2000/svg" id="glyph-5-0">
<path d="M 23.015625 -27.578125 C 23.015625 -26.679688 22.914062 -25.796875 22.71875 -24.921875 C 22.53125 -24.046875 22.226562 -23.222656 21.8125 -22.453125 C 21.394531 -21.691406 20.851562 -21.019531 20.1875 -20.4375 C 19.519531 -19.851562 18.722656 -19.410156 17.796875 -19.109375 L 17.796875 -18.8125 C 18.609375 -18.59375 19.378906 -18.273438 20.109375 -17.859375 C 20.847656 -17.453125 21.492188 -16.894531 22.046875 -16.1875 C 22.597656 -15.476562 23.03125 -14.613281 23.34375 -13.59375 C 23.664062 -12.582031 23.820312 -11.394531 23.8125 -10.03125 C 23.800781 -8.175781 23.476562 -6.570312 22.84375 -5.21875 C 22.207031 -3.875 21.34375 -2.769531 20.25 -1.90625 C 19.164062 -1.050781 17.898438 -0.421875 16.453125 -0.015625 C 15.015625 0.378906 13.492188 0.578125 11.890625 0.578125 C 11.410156 0.566406 10.789062 0.5625 10.03125 0.5625 C 9.28125 0.5625 8.46875 0.53125 7.59375 0.46875 C 6.71875 0.414062 5.816406 0.332031 4.890625 0.21875 C 3.960938 0.113281 3.101562 -0.0351562 2.3125 -0.234375 L 2.484375 -35.75 C 3.617188 -35.945312 5.015625 -36.117188 6.671875 -36.265625 C 8.335938 -36.410156 9.992188 -36.484375 11.640625 -36.484375 C 13.148438 -36.472656 14.597656 -36.34375 15.984375 -36.09375 C 17.378906 -35.851562 18.597656 -35.40625 19.640625 -34.75 C 20.679688 -34.09375 21.503906 -33.1875 22.109375 -32.03125 C 22.722656 -30.875 23.023438 -29.390625 23.015625 -27.578125 Z M 12.078125 -5.03125 C 13.515625 -5.03125 14.695312 -5.488281 15.625 -6.40625 C 16.550781 -7.332031 17.019531 -8.6875 17.03125 -10.46875 C 17.039062 -11.601562 16.890625 -12.503906 16.578125 -13.171875 C 16.265625 -13.835938 15.851562 -14.351562 15.34375 -14.71875 C 14.84375 -15.082031 14.253906 -15.316406 13.578125 -15.421875 C 12.910156 -15.523438 12.21875 -15.582031 11.5 -15.59375 L 8.875 -15.59375 L 8.828125 -5.359375 C 9.097656 -5.253906 9.566406 -5.175781 10.234375 -5.125 C 10.910156 -5.070312 11.523438 -5.039062 12.078125 -5.03125 Z M 10.390625 -20.6875 C 10.765625 -20.6875 11.195312 -20.707031 11.6875 -20.75 C 12.1875 -20.800781 12.59375 -20.863281 12.90625 -20.9375 C 13.894531 -21.3125 14.742188 -21.921875 15.453125 -22.765625 C 16.160156 -23.617188 16.519531 -24.734375 16.53125 -26.109375 C 16.53125 -27.003906 16.410156 -27.757812 16.171875 -28.375 C 15.941406 -28.988281 15.617188 -29.476562 15.203125 -29.84375 C 14.796875 -30.207031 14.3125 -30.46875 13.75 -30.625 C 13.1875 -30.78125 12.578125 -30.863281 11.921875 -30.875 C 10.515625 -30.875 9.519531 -30.804688 8.9375 -30.671875 L 8.890625 -20.6875 Z M 10.390625 -20.6875 "/>
</g>
<g xmlns="http://www.w3.org/2000/svg" id="glyph-5-1">
<path d="M 2.375 -24.171875 C 3.40625 -24.785156 4.691406 -25.273438 6.234375 -25.640625 C 7.785156 -26.015625 9.539062 -26.195312 11.5 -26.1875 C 14.414062 -26.164062 16.441406 -25.398438 17.578125 -23.890625 C 18.710938 -22.378906 19.273438 -20.234375 19.265625 -17.453125 C 19.253906 -15.835938 19.203125 -14.25 19.109375 -12.6875 C 19.023438 -11.125 18.960938 -9.597656 18.921875 -8.109375 C 18.878906 -6.617188 18.898438 -5.175781 18.984375 -3.78125 C 19.066406 -2.394531 19.289062 -1.085938 19.65625 0.140625 L 14.671875 0.109375 L 13.703125 -3.03125 L 13.5 -3.03125 C 12.9375 -2.03125 12.15625 -1.207031 11.15625 -0.5625 C 10.164062 0.0820312 8.914062 0.398438 7.40625 0.390625 C 5.382812 0.378906 3.789062 -0.300781 2.625 -1.65625 C 1.46875 -3.019531 0.894531 -4.832031 0.90625 -7.09375 C 0.914062 -10.1875 2.019531 -12.378906 4.21875 -13.671875 C 6.425781 -14.960938 9.398438 -15.492188 13.140625 -15.265625 C 13.316406 -17.253906 13.191406 -18.695312 12.765625 -19.59375 C 12.347656 -20.488281 11.4375 -20.941406 10.03125 -20.953125 C 9 -20.960938 7.929688 -20.84375 6.828125 -20.59375 C 5.734375 -20.351562 4.757812 -20.019531 3.90625 -19.59375 Z M 9.640625 -4.84375 C 10.566406 -4.84375 11.320312 -5.070312 11.90625 -5.53125 C 12.5 -5.988281 12.929688 -6.488281 13.203125 -7.03125 L 13.21875 -11.3125 C 12.425781 -11.414062 11.671875 -11.429688 10.953125 -11.359375 C 10.234375 -11.296875 9.597656 -11.144531 9.046875 -10.90625 C 8.503906 -10.675781 8.066406 -10.328125 7.734375 -9.859375 C 7.410156 -9.398438 7.242188 -8.8125 7.234375 -8.09375 C 7.234375 -7.03125 7.441406 -6.222656 7.859375 -5.671875 C 8.285156 -5.117188 8.878906 -4.84375 9.640625 -4.84375 Z M 9.640625 -4.84375 "/>
</g>
<g xmlns="http://www.w3.org/2000/svg" id="glyph-5-2">
<path d="M 14.96875 0.0625 L 15.046875 -15.578125 C 15.046875 -17.460938 14.828125 -18.78125 14.390625 -19.53125 C 13.953125 -20.289062 13.203125 -20.671875 12.140625 -20.671875 C 11.242188 -20.679688 10.46875 -20.410156 9.8125 -19.859375 C 9.164062 -19.316406 8.695312 -18.640625 8.40625 -17.828125 L 8.328125 0.03125 L 2.21875 0.015625 L 2.34375 -25.703125 L 7.21875 -25.6875 L 7.9375 -22.71875 L 8.078125 -22.71875 C 8.703125 -23.695312 9.546875 -24.535156 10.609375 -25.234375 C 11.679688 -25.929688 13.078125 -26.28125 14.796875 -26.28125 C 15.816406 -26.269531 16.726562 -26.109375 17.53125 -25.796875 C 18.34375 -25.484375 19.019531 -24.972656 19.5625 -24.265625 C 20.101562 -23.566406 20.507812 -22.625 20.78125 -21.4375 C 21.050781 -20.257812 21.179688 -18.796875 21.171875 -17.046875 L 21.09375 0.09375 Z M 14.96875 0.0625 "/>
</g>
<g xmlns="http://www.w3.org/2000/svg" id="glyph-5-3">
<path d="M 20.734375 -8.96875 C 20.722656 -7.519531 20.726562 -6.078125 20.75 -4.640625 C 20.78125 -3.203125 20.910156 -1.609375 21.140625 0.140625 L 16.828125 0.125 L 16.015625 -2.859375 L 15.8125 -2.859375 C 14.632812 -0.460938 12.585938 0.726562 9.671875 0.71875 C 7.066406 0.707031 5.019531 -0.328125 3.53125 -2.390625 C 2.050781 -4.460938 1.320312 -7.816406 1.34375 -12.453125 C 1.363281 -16.984375 2.1875 -20.414062 3.8125 -22.75 C 5.4375 -25.09375 7.84375 -26.257812 11.03125 -26.25 C 11.851562 -26.238281 12.539062 -26.179688 13.09375 -26.078125 C 13.644531 -25.972656 14.175781 -25.800781 14.6875 -25.5625 L 14.734375 -35.953125 L 20.859375 -35.921875 Z M 11.125 -4.890625 C 12.050781 -4.878906 12.789062 -5.101562 13.34375 -5.5625 C 13.90625 -6.03125 14.320312 -6.710938 14.59375 -7.609375 L 14.65625 -19.75 C 14.3125 -20.050781 13.925781 -20.269531 13.5 -20.40625 C 13.070312 -20.550781 12.515625 -20.628906 11.828125 -20.640625 C 10.453125 -20.640625 9.414062 -20.023438 8.71875 -18.796875 C 8.03125 -17.566406 7.679688 -15.375 7.671875 -12.21875 C 7.660156 -9.851562 7.929688 -8.039062 8.484375 -6.78125 C 9.046875 -5.519531 9.925781 -4.890625 11.125 -4.890625 Z M 11.125 -4.890625 "/>
</g>
<g xmlns="http://www.w3.org/2000/svg" id="glyph-5-4">
<path d="M 14.453125 -19.59375 C 13.628906 -19.90625 12.875 -20.0625 12.1875 -20.0625 C 11.257812 -20.070312 10.457031 -19.816406 9.78125 -19.296875 C 9.113281 -18.785156 8.65625 -18.070312 8.40625 -17.15625 L 8.328125 0.03125 L 2.21875 0.015625 L 2.34375 -25.703125 L 7.015625 -25.6875 L 7.71875 -22.609375 L 7.9375 -22.609375 C 8.375 -23.734375 9.015625 -24.609375 9.859375 -25.234375 C 10.710938 -25.867188 11.6875 -26.179688 12.78125 -26.171875 C 13.601562 -26.171875 14.410156 -26 15.203125 -25.65625 Z M 14.453125 -19.59375 "/>
</g>
<g xmlns="http://www.w3.org/2000/svg" id="glyph-5-6">
<path d="M 18.390625 -35.9375 L 24.515625 -35.90625 L 24.40625 -12.546875 C 24.382812 -7.878906 23.414062 -4.5 21.5 -2.40625 C 19.582031 -0.320312 16.941406 0.707031 13.578125 0.6875 C 9.640625 0.664062 6.753906 -0.363281 4.921875 -2.40625 C 3.097656 -4.457031 2.191406 -7.578125 2.203125 -11.765625 L 2.328125 -36 L 8.8125 -35.96875 L 8.703125 -12.875 C 8.691406 -10.0625 9.0625 -8.09375 9.8125 -6.96875 C 10.5625 -5.851562 11.8125 -5.289062 13.5625 -5.28125 C 15.238281 -5.269531 16.441406 -5.859375 17.171875 -7.046875 C 17.898438 -8.234375 18.269531 -10.164062 18.28125 -12.84375 Z M 18.390625 -35.9375 "/>
</g>
<g xmlns="http://www.w3.org/2000/svg" id="glyph-5-7">
<path d="M 3.046875 -36 L 9.53125 -35.96875 L 9.359375 0.046875 L 2.875 0.015625 Z M 3.046875 -36 "/>
</g>
<g xmlns="http://www.w3.org/2000/svg" id="glyph-5-8">
<path d="M 0.328125 -25.71875 L 3.15625 -25.703125 L 3.171875 -30.546875 L 9.3125 -32.421875 L 9.28125 -25.671875 L 14.28125 -25.65625 L 14.25 -20.203125 L 9.25 -20.21875 L 9.203125 -9.015625 C 9.191406 -7.535156 9.328125 -6.484375 9.609375 -5.859375 C 9.898438 -5.242188 10.425781 -4.9375 11.1875 -4.9375 C 11.695312 -4.925781 12.160156 -4.972656 12.578125 -5.078125 C 12.992188 -5.179688 13.441406 -5.335938 13.921875 -5.546875 L 14.671875 -0.65625 C 13.910156 -0.28125 13.03125 0.03125 12.03125 0.28125 C 11.039062 0.539062 10 0.671875 8.90625 0.671875 C 6.945312 0.660156 5.476562 0.0859375 4.5 -1.046875 C 3.53125 -2.191406 3.050781 -4.101562 3.0625 -6.78125 L 3.125 -20.25 L 0.296875 -20.265625 Z M 0.328125 -25.71875 "/>
</g>
<g xmlns="http://www.w3.org/2000/svg" id="glyph-5-9">
<path d="M 19.625 -1.8125 C 18.75 -1.0625 17.570312 -0.453125 16.09375 0.015625 C 14.625 0.492188 13.082031 0.726562 11.46875 0.71875 C 9.6875 0.71875 8.148438 0.40625 6.859375 -0.21875 C 5.578125 -0.851562 4.523438 -1.753906 3.703125 -2.921875 C 2.890625 -4.085938 2.289062 -5.503906 1.90625 -7.171875 C 1.519531 -8.835938 1.332031 -10.734375 1.34375 -12.859375 C 1.363281 -17.492188 2.296875 -20.910156 4.140625 -23.109375 C 5.992188 -25.316406 8.550781 -26.414062 11.8125 -26.40625 C 12.90625 -26.394531 13.960938 -26.222656 14.984375 -25.890625 C 16.015625 -25.554688 16.929688 -25 17.734375 -24.21875 C 18.535156 -23.445312 19.179688 -22.414062 19.671875 -21.125 C 20.171875 -19.84375 20.414062 -18.222656 20.40625 -16.265625 C 20.40625 -15.515625 20.359375 -14.707031 20.265625 -13.84375 C 20.171875 -12.988281 20.035156 -12.066406 19.859375 -11.078125 L 7.359375 -11.140625 C 7.410156 -9.003906 7.84375 -7.367188 8.65625 -6.234375 C 9.476562 -5.097656 10.800781 -4.523438 12.625 -4.515625 C 13.71875 -4.515625 14.722656 -4.679688 15.640625 -5.015625 C 16.554688 -5.359375 17.253906 -5.71875 17.734375 -6.09375 Z M 11.671875 -21.15625 C 10.367188 -21.15625 9.390625 -20.632812 8.734375 -19.59375 C 8.078125 -18.550781 7.695312 -17.085938 7.59375 -15.203125 L 14.6875 -15.171875 C 14.789062 -17.117188 14.585938 -18.597656 14.078125 -19.609375 C 13.566406 -20.628906 12.765625 -21.144531 11.671875 -21.15625 Z M 11.671875 -21.15625 "/>
</g>
<g xmlns="http://www.w3.org/2000/svg" id="glyph-5-10">
<path d="M 10.890625 -6.796875 C 10.890625 -7.515625 10.660156 -8.125 10.203125 -8.625 C 9.742188 -9.125 9.15625 -9.585938 8.4375 -10.015625 C 7.71875 -10.453125 6.957031 -10.894531 6.15625 -11.34375 C 5.351562 -11.800781 4.59375 -12.351562 3.875 -13 C 3.15625 -13.65625 2.566406 -14.445312 2.109375 -15.375 C 1.648438 -16.3125 1.425781 -17.484375 1.4375 -18.890625 C 1.445312 -21.285156 2.101562 -23.128906 3.40625 -24.421875 C 4.71875 -25.710938 6.644531 -26.351562 9.1875 -26.34375 C 10.6875 -26.34375 12.101562 -26.175781 13.4375 -25.84375 C 14.78125 -25.507812 15.84375 -25.101562 16.625 -24.625 L 15.171875 -19.90625 C 14.515625 -20.175781 13.722656 -20.441406 12.796875 -20.703125 C 11.867188 -20.960938 10.960938 -21.09375 10.078125 -21.09375 C 8.390625 -21.101562 7.546875 -20.40625 7.546875 -19 C 7.535156 -18.351562 7.757812 -17.8125 8.21875 -17.375 C 8.6875 -16.945312 9.28125 -16.523438 10 -16.109375 C 10.726562 -15.691406 11.488281 -15.257812 12.28125 -14.8125 C 13.082031 -14.363281 13.84375 -13.800781 14.5625 -13.125 C 15.289062 -12.445312 15.882812 -11.628906 16.34375 -10.671875 C 16.800781 -9.710938 17.023438 -8.53125 17.015625 -7.125 C 17.003906 -4.757812 16.273438 -2.859375 14.828125 -1.421875 C 13.378906 0.015625 11.234375 0.722656 8.390625 0.703125 C 6.984375 0.703125 5.601562 0.523438 4.25 0.171875 C 2.894531 -0.171875 1.804688 -0.625 0.984375 -1.1875 L 2.703125 -6.109375 C 3.421875 -5.691406 4.25 -5.328125 5.1875 -5.015625 C 6.132812 -4.703125 7.117188 -4.546875 8.140625 -4.546875 C 8.929688 -4.535156 9.585938 -4.707031 10.109375 -5.0625 C 10.628906 -5.425781 10.890625 -6.003906 10.890625 -6.796875 Z M 10.890625 -6.796875 "/>
</g>
<g xmlns="http://www.w3.org/2000/svg" id="glyph-5-11">
<path d="M 2.859375 -25.703125 L 8.96875 -25.671875 L 8.84375 0.046875 L 2.734375 0.015625 Z M 2.171875 -32.96875 C 2.171875 -34 2.5 -34.847656 3.15625 -35.515625 C 3.8125 -36.179688 4.738281 -36.507812 5.9375 -36.5 C 7.132812 -36.5 8.09375 -36.171875 8.8125 -35.515625 C 9.53125 -34.859375 9.890625 -34 9.890625 -32.9375 C 9.878906 -31.875 9.507812 -31.035156 8.78125 -30.421875 C 8.0625 -29.804688 7.101562 -29.5 5.90625 -29.5 C 4.707031 -29.507812 3.78125 -29.832031 3.125 -30.46875 C 2.476562 -31.101562 2.160156 -31.9375 2.171875 -32.96875 Z M 2.171875 -32.96875 "/>
</g>
<g xmlns="http://www.w3.org/2000/svg" id="glyph-5-12">
<path d="M 1.34375 -12.859375 C 1.363281 -17.421875 2.269531 -20.8125 4.0625 -23.03125 C 5.863281 -25.25 8.359375 -26.351562 11.546875 -26.34375 C 14.972656 -26.320312 17.519531 -25.175781 19.1875 -22.90625 C 20.863281 -20.644531 21.691406 -17.265625 21.671875 -12.765625 C 21.648438 -8.171875 20.742188 -4.769531 18.953125 -2.5625 C 17.160156 -0.351562 14.648438 0.738281 11.421875 0.71875 C 4.660156 0.6875 1.300781 -3.835938 1.34375 -12.859375 Z M 7.671875 -12.828125 C 7.660156 -10.253906 7.941406 -8.257812 8.515625 -6.84375 C 9.085938 -5.4375 10.0625 -4.734375 11.4375 -4.734375 C 12.738281 -4.722656 13.707031 -5.320312 14.34375 -6.53125 C 14.988281 -7.75 15.320312 -9.832031 15.34375 -12.78125 C 15.351562 -15.425781 15.066406 -17.4375 14.484375 -18.8125 C 13.910156 -20.1875 12.921875 -20.878906 11.515625 -20.890625 C 10.316406 -20.890625 9.378906 -20.28125 8.703125 -19.0625 C 8.023438 -17.851562 7.679688 -15.773438 7.671875 -12.828125 Z M 7.671875 -12.828125 "/>
</g>
<g xmlns="http://www.w3.org/2000/svg" id="glyph-5-13">
<path d="M 8.46875 -8.296875 C 8.46875 -7.097656 8.582031 -6.238281 8.8125 -5.71875 C 9.050781 -5.195312 9.445312 -4.9375 10 -4.9375 C 10.300781 -4.9375 10.617188 -4.972656 10.953125 -5.046875 C 11.285156 -5.117188 11.660156 -5.234375 12.078125 -5.390625 L 12.609375 -0.453125 C 12.191406 -0.179688 11.484375 0.0703125 10.484375 0.3125 C 9.492188 0.550781 8.484375 0.664062 7.453125 0.65625 C 5.742188 0.644531 4.460938 0.210938 3.609375 -0.640625 C 2.753906 -1.503906 2.328125 -2.96875 2.328125 -5.03125 L 2.484375 -36 L 8.609375 -35.984375 Z M 8.46875 -8.296875 "/>
</g>
<g xmlns="http://www.w3.org/2000/svg" id="glyph-5-14">
<path d="M 16.90625 -8.046875 L 8.421875 -8.09375 L 6.28125 0.03125 L -0.15625 0 L 10.46875 -36.234375 L 15.5625 -36.203125 L 25.875 0.125 L 19.09375 0.09375 Z M 9.84375 -13.4375 L 15.8125 -13.40625 L 13.78125 -21.8125 L 12.984375 -27.46875 L 12.78125 -27.46875 L 11.875 -21.765625 Z M 9.84375 -13.4375 "/>
</g>
<g xmlns="http://www.w3.org/2000/svg" id="glyph-5-15">
<path d="M 2.34375 -25.703125 L 6.921875 -25.6875 L 7.515625 -22.765625 L 7.671875 -22.765625 C 8.460938 -23.984375 9.347656 -24.875 10.328125 -25.4375 C 11.316406 -26.007812 12.53125 -26.289062 13.96875 -26.28125 C 16.570312 -26.269531 18.53125 -25.273438 19.84375 -23.296875 C 21.15625 -21.316406 21.800781 -18.03125 21.78125 -13.4375 C 21.757812 -8.84375 20.921875 -5.320312 19.265625 -2.875 C 17.609375 -0.425781 15.21875 0.789062 12.09375 0.78125 C 11.269531 0.769531 10.566406 0.695312 9.984375 0.5625 C 9.398438 0.425781 8.847656 0.195312 8.328125 -0.125 L 8.28125 10.328125 L 2.171875 10.3125 Z M 8.359375 -5.734375 C 8.703125 -5.378906 9.085938 -5.113281 9.515625 -4.9375 C 9.941406 -4.769531 10.5 -4.6875 11.1875 -4.6875 C 12.550781 -4.675781 13.597656 -5.34375 14.328125 -6.6875 C 15.066406 -8.039062 15.441406 -10.347656 15.453125 -13.609375 C 15.460938 -16.046875 15.191406 -17.859375 14.640625 -19.046875 C 14.097656 -20.234375 13.191406 -20.832031 11.921875 -20.84375 C 10.210938 -20.84375 9.039062 -19.835938 8.40625 -17.828125 Z M 8.359375 -5.734375 "/>
</g>
<g xmlns="http://www.w3.org/2000/svg" id="glyph-6-0">
<path d="M 18.328125 -11.265625 C 18.335938 -12.609375 17.945312 -13.753906 17.15625 -14.703125 C 16.363281 -15.648438 15.367188 -16.546875 14.171875 -17.390625 C 12.984375 -18.234375 11.679688 -19.101562 10.265625 -20 C 8.859375 -20.894531 7.554688 -21.929688 6.359375 -23.109375 C 5.171875 -24.285156 4.179688 -25.671875 3.390625 -27.265625 C 2.609375 -28.867188 2.222656 -30.828125 2.234375 -33.140625 C 2.242188 -35.285156 2.578125 -37.101562 3.234375 -38.59375 C 3.890625 -40.082031 4.785156 -41.296875 5.921875 -42.234375 C 7.066406 -43.179688 8.414062 -43.867188 9.96875 -44.296875 C 11.53125 -44.722656 13.191406 -44.9375 14.953125 -44.9375 C 17.097656 -44.925781 19.09375 -44.707031 20.9375 -44.28125 C 22.789062 -43.851562 24.328125 -43.28125 25.546875 -42.5625 L 23.046875 -35.5625 C 22.335938 -36.082031 21.273438 -36.550781 19.859375 -36.96875 C 18.453125 -37.394531 16.929688 -37.613281 15.296875 -37.625 C 13.660156 -37.625 12.398438 -37.289062 11.515625 -36.625 C 10.628906 -35.957031 10.179688 -34.972656 10.171875 -33.671875 C 10.160156 -32.492188 10.554688 -31.453125 11.359375 -30.546875 C 12.160156 -29.640625 13.15625 -28.757812 14.34375 -27.90625 C 15.539062 -27.0625 16.835938 -26.1875 18.234375 -25.28125 C 19.640625 -24.375 20.9375 -23.316406 22.125 -22.109375 C 23.320312 -20.910156 24.316406 -19.5 25.109375 -17.875 C 25.898438 -16.25 26.289062 -14.328125 26.28125 -12.109375 C 26.269531 -9.878906 25.929688 -7.945312 25.265625 -6.3125 C 24.609375 -4.675781 23.675781 -3.320312 22.46875 -2.25 C 21.269531 -1.1875 19.828125 -0.390625 18.140625 0.140625 C 16.460938 0.679688 14.597656 0.945312 12.546875 0.9375 C 9.941406 0.925781 7.660156 0.664062 5.703125 0.15625 C 3.742188 -0.351562 2.242188 -0.929688 1.203125 -1.578125 L 3.828125 -8.6875 C 4.660156 -8.175781 5.8125 -7.660156 7.28125 -7.140625 C 8.75 -6.628906 10.320312 -6.367188 12 -6.359375 C 16.207031 -6.347656 18.316406 -7.984375 18.328125 -11.265625 Z M 18.328125 -11.265625 "/>
</g>
<g xmlns="http://www.w3.org/2000/svg" id="glyph-6-1">
<path d="M 1.9375 -22.046875 C 1.96875 -29.523438 3.269531 -35.210938 5.84375 -39.109375 C 8.425781 -43.003906 12.34375 -44.941406 17.59375 -44.921875 C 20.332031 -44.910156 22.6875 -44.363281 24.65625 -43.28125 C 26.625 -42.207031 28.234375 -40.664062 29.484375 -38.65625 C 30.742188 -36.65625 31.671875 -34.234375 32.265625 -31.390625 C 32.859375 -28.554688 33.148438 -25.394531 33.140625 -21.90625 C 33.097656 -14.425781 31.753906 -8.738281 29.109375 -4.84375 C 26.472656 -0.957031 22.566406 0.972656 17.390625 0.953125 C 14.617188 0.941406 12.257812 0.398438 10.3125 -0.671875 C 8.363281 -1.753906 6.757812 -3.296875 5.5 -5.296875 C 4.25 -7.296875 3.335938 -9.710938 2.765625 -12.546875 C 2.191406 -15.390625 1.914062 -18.554688 1.9375 -22.046875 Z M 10.25 -22.015625 C 10.238281 -19.785156 10.351562 -17.710938 10.59375 -15.796875 C 10.84375 -13.890625 11.257812 -12.238281 11.84375 -10.84375 C 12.425781 -9.457031 13.164062 -8.359375 14.0625 -7.546875 C 14.957031 -6.742188 16.078125 -6.34375 17.421875 -6.34375 C 19.859375 -6.332031 21.691406 -7.5625 22.921875 -10.03125 C 24.148438 -12.507812 24.78125 -16.484375 24.8125 -21.953125 C 24.8125 -24.097656 24.691406 -26.125 24.453125 -28.03125 C 24.210938 -29.945312 23.8125 -31.609375 23.25 -33.015625 C 22.6875 -34.421875 21.945312 -35.535156 21.03125 -36.359375 C 20.113281 -37.179688 18.957031 -37.597656 17.5625 -37.609375 C 12.726562 -37.628906 10.289062 -32.429688 10.25 -22.015625 Z M 10.25 -22.015625 "/>
</g>
<g xmlns="http://www.w3.org/2000/svg" id="glyph-6-2">
<path d="M 3.046875 -44.109375 L 25.09375 -44.015625 L 25.0625 -36.703125 L 10.953125 -36.765625 L 10.90625 -25.921875 L 23.703125 -25.859375 L 23.671875 -18.546875 L 10.875 -18.609375 L 10.8125 -7.265625 L 25.1875 -7.203125 L 25.15625 0.109375 L 2.84375 0.015625 Z M 3.046875 -44.109375 "/>
</g>
<g xmlns="http://www.w3.org/2000/svg" id="glyph-6-3">
<path d="M 12.578125 -18.84375 L 10.875 -18.859375 L 10.78125 0.046875 L 2.84375 0.015625 L 3.046875 -44.109375 L 10.984375 -44.078125 L 10.890625 -24.46875 L 12.46875 -25.21875 L 21.828125 -44.03125 L 30.765625 -43.984375 L 20.609375 -25.4375 L 17.625 -23.125 L 20.640625 -20.703125 L 32.203125 0.15625 L 22.5 0.109375 Z M 12.578125 -18.84375 "/>
</g>
<g xmlns="http://www.w3.org/2000/svg" id="glyph-6-4">
<path d="M 20.71875 -9.859375 L 10.328125 -9.90625 L 7.6875 0.03125 L -0.1875 0 L 12.8125 -44.375 L 19.046875 -44.34375 L 31.703125 0.140625 L 23.390625 0.109375 Z M 12.046875 -16.453125 L 19.359375 -16.421875 L 16.890625 -26.703125 L 15.90625 -33.640625 L 15.65625 -33.640625 L 14.5625 -26.65625 Z M 12.046875 -16.453125 "/>
</g>
<g xmlns="http://www.w3.org/2000/svg" id="glyph-6-5">
<path d="M 3.046875 -43.671875 C 4.765625 -44.035156 6.609375 -44.296875 8.578125 -44.453125 C 10.554688 -44.617188 12.257812 -44.695312 13.6875 -44.6875 C 15.5 -44.675781 17.265625 -44.488281 18.984375 -44.125 C 20.710938 -43.769531 22.234375 -43.113281 23.546875 -42.15625 C 24.867188 -41.207031 25.9375 -39.921875 26.75 -38.296875 C 27.5625 -36.671875 27.960938 -34.617188 27.953125 -32.140625 C 27.929688 -28.578125 27.253906 -25.671875 25.921875 -23.421875 C 24.585938 -21.179688 22.765625 -19.644531 20.453125 -18.8125 L 22.953125 -16.78125 L 31.015625 0.140625 L 21.875 0.09375 L 14.265625 -17.328125 L 10.859375 -18.171875 L 10.78125 0.046875 L 2.84375 0.015625 Z M 10.890625 -23.59375 L 13.59375 -23.578125 C 15.570312 -23.566406 17.066406 -24.15625 18.078125 -25.34375 C 19.097656 -26.539062 19.613281 -28.398438 19.625 -30.921875 C 19.632812 -32.804688 19.21875 -34.347656 18.375 -35.546875 C 17.539062 -36.753906 16.222656 -37.363281 14.421875 -37.375 C 13.742188 -37.375 13.085938 -37.351562 12.453125 -37.3125 C 11.828125 -37.28125 11.328125 -37.203125 10.953125 -37.078125 Z M 10.890625 -23.59375 "/>
</g>
<g xmlns="http://www.w3.org/2000/svg" id="glyph-6-6">
<path d="M 12.640625 -21.625 L 9.78125 -29.390625 L 9.46875 -29.390625 L 10.4375 -21.765625 L 10.34375 0.046875 L 2.84375 0.015625 L 3.046875 -44.421875 L 9.15625 -44.390625 L 21.734375 -22.15625 L 24.390625 -14.515625 L 24.765625 -14.515625 L 23.8125 -22.015625 L 23.90625 -44.015625 L 31.40625 -43.984375 L 31.203125 0.453125 L 25.09375 0.421875 Z M 12.640625 -21.625 "/>
</g>
<g xmlns="http://www.w3.org/2000/svg" id="glyph-6-8">
<path d="M 22.90625 -18.546875 L 10.875 -18.609375 L 10.78125 0.046875 L 2.84375 0.015625 L 3.046875 -44.109375 L 10.984375 -44.078125 L 10.90625 -25.921875 L 22.9375 -25.859375 L 23.015625 -44.015625 L 30.96875 -43.984375 L 30.765625 0.140625 L 22.8125 0.109375 Z M 22.90625 -18.546875 "/>
</g>
<g xmlns="http://www.w3.org/2000/svg" id="glyph-6-9">
<path d="M 29.546875 -36.671875 L 19.078125 -36.71875 L 18.90625 0.09375 L 10.96875 0.046875 L 11.140625 -36.765625 L 0.671875 -36.8125 L 0.703125 -44.125 L 29.578125 -43.984375 Z M 29.546875 -36.671875 "/>
</g>
<g xmlns="http://www.w3.org/2000/svg" id="glyph-29-5">
<path d="M 1.84375 -19.515625 C 1.84375 -22.296875 2.4375 -24.484375 3.625 -26.078125 C 4.8125 -27.679688 6.578125 -28.484375 8.921875 -28.484375 C 11.160156 -28.484375 12.898438 -27.65625 14.140625 -26 C 15.378906 -24.34375 16 -21.8125 16 -18.40625 C 16 -15.382812 15.71875 -12.757812 15.15625 -10.53125 C 14.59375 -8.3125 13.816406 -6.429688 12.828125 -4.890625 C 11.847656 -3.359375 10.691406 -2.148438 9.359375 -1.265625 C 8.023438 -0.390625 6.585938 0.191406 5.046875 0.484375 L 4.28125 -1.875 C 6.84375 -2.539062 8.828125 -3.878906 10.234375 -5.890625 C 11.648438 -7.910156 12.546875 -10.441406 12.921875 -13.484375 C 12.359375 -12.703125 11.738281 -12.148438 11.0625 -11.828125 C 10.382812 -11.515625 9.484375 -11.359375 8.359375 -11.359375 C 7.503906 -11.359375 6.679688 -11.523438 5.890625 -11.859375 C 5.109375 -12.191406 4.414062 -12.695312 3.8125 -13.375 C 3.21875 -14.0625 2.738281 -14.914062 2.375 -15.9375 C 2.019531 -16.96875 1.84375 -18.160156 1.84375 -19.515625 Z M 4.765625 -19.84375 C 4.765625 -17.945312 5.148438 -16.488281 5.921875 -15.46875 C 6.691406 -14.457031 7.71875 -13.953125 9 -13.953125 C 10.007812 -13.953125 10.867188 -14.171875 11.578125 -14.609375 C 12.285156 -15.054688 12.800781 -15.625 13.125 -16.3125 C 13.175781 -16.664062 13.203125 -17 13.203125 -17.3125 C 13.203125 -17.632812 13.203125 -17.941406 13.203125 -18.234375 C 13.203125 -19.253906 13.113281 -20.222656 12.9375 -21.140625 C 12.769531 -22.054688 12.503906 -22.867188 12.140625 -23.578125 C 11.773438 -24.285156 11.3125 -24.84375 10.75 -25.25 C 10.195312 -25.664062 9.535156 -25.875 8.765625 -25.875 C 7.503906 -25.875 6.519531 -25.328125 5.8125 -24.234375 C 5.113281 -23.140625 4.765625 -21.675781 4.765625 -19.84375 Z M 4.765625 -19.84375 "/>
</g>
<g xmlns="http://www.w3.org/2000/svg" id="glyph-29-1">
<path d="M 1.875 -12.796875 L 9.765625 -12.796875 L 9.765625 -10.046875 L 1.875 -10.046875 Z M 1.875 -12.796875 "/>
</g>
<g xmlns="http://www.w3.org/2000/svg" id="glyph-29-26">
<path d="M 14.71875 -21.875 C 14.71875 -20.414062 14.5 -18.882812 14.0625 -17.28125 C 13.625 -15.675781 13.0625 -14.09375 12.375 -12.53125 C 11.695312 -10.976562 10.9375 -9.476562 10.09375 -8.03125 C 9.257812 -6.59375 8.441406 -5.316406 7.640625 -4.203125 L 6.046875 -2.4375 L 6.046875 -2.3125 L 8.15625 -2.6875 L 15.15625 -2.6875 L 15.15625 0 L 2.203125 0 L 2.203125 -1.28125 C 2.703125 -1.894531 3.285156 -2.664062 3.953125 -3.59375 C 4.617188 -4.53125 5.304688 -5.550781 6.015625 -6.65625 C 6.722656 -7.757812 7.414062 -8.929688 8.09375 -10.171875 C 8.78125 -11.421875 9.390625 -12.679688 9.921875 -13.953125 C 10.453125 -15.234375 10.882812 -16.5 11.21875 -17.75 C 11.550781 -19.007812 11.71875 -20.210938 11.71875 -21.359375 C 11.71875 -22.722656 11.40625 -23.800781 10.78125 -24.59375 C 10.15625 -25.394531 9.242188 -25.796875 8.046875 -25.796875 C 7.265625 -25.796875 6.507812 -25.65625 5.78125 -25.375 C 5.050781 -25.09375 4.414062 -24.738281 3.875 -24.3125 L 2.765625 -26.4375 C 3.484375 -27.082031 4.359375 -27.582031 5.390625 -27.9375 C 6.429688 -28.300781 7.53125 -28.484375 8.6875 -28.484375 C 10.65625 -28.484375 12.148438 -27.875 13.171875 -26.65625 C 14.203125 -25.445312 14.71875 -23.851562 14.71875 -21.875 Z M 14.71875 -21.875 "/>
</g>
<g xmlns="http://www.w3.org/2000/svg" id="glyph-29-35">
<path d="M 16.203125 -8.4375 C 16.171875 -7.101562 16 -5.882812 15.6875 -4.78125 C 15.382812 -3.675781 14.929688 -2.734375 14.328125 -1.953125 C 13.734375 -1.179688 13.003906 -0.582031 12.140625 -0.15625 C 11.273438 0.269531 10.296875 0.484375 9.203125 0.484375 C 6.960938 0.484375 5.207031 -0.328125 3.9375 -1.953125 C 2.675781 -3.585938 2.046875 -6.070312 2.046875 -9.40625 C 2.046875 -12.226562 2.332031 -14.742188 2.90625 -16.953125 C 3.476562 -19.171875 4.253906 -21.078125 5.234375 -22.671875 C 6.222656 -24.273438 7.382812 -25.5625 8.71875 -26.53125 C 10.050781 -27.507812 11.476562 -28.160156 13 -28.484375 L 13.796875 -26.15625 C 12.597656 -25.84375 11.503906 -25.3125 10.515625 -24.5625 C 9.535156 -23.8125 8.671875 -22.898438 7.921875 -21.828125 C 7.171875 -20.765625 6.546875 -19.566406 6.046875 -18.234375 C 5.554688 -16.898438 5.222656 -15.472656 5.046875 -13.953125 C 5.390625 -14.679688 5.96875 -15.3125 6.78125 -15.84375 C 7.59375 -16.375 8.597656 -16.640625 9.796875 -16.640625 C 11.722656 -16.640625 13.265625 -15.957031 14.421875 -14.59375 C 15.578125 -13.238281 16.171875 -11.1875 16.203125 -8.4375 Z M 13.28125 -8.15625 C 13.28125 -12.082031 11.867188 -14.046875 9.046875 -14.046875 C 8.023438 -14.046875 7.15625 -13.722656 6.4375 -13.078125 C 5.71875 -12.441406 5.210938 -11.722656 4.921875 -10.921875 C 4.867188 -10.578125 4.84375 -10.238281 4.84375 -9.90625 C 4.84375 -9.570312 4.851562 -9.253906 4.875 -8.953125 C 4.851562 -8.078125 4.925781 -7.234375 5.09375 -6.421875 C 5.269531 -5.609375 5.535156 -4.878906 5.890625 -4.234375 C 6.253906 -3.597656 6.707031 -3.085938 7.25 -2.703125 C 7.800781 -2.316406 8.453125 -2.125 9.203125 -2.125 C 10.398438 -2.125 11.378906 -2.65625 12.140625 -3.71875 C 12.898438 -4.78125 13.28125 -6.257812 13.28125 -8.15625 Z M 13.28125 -8.15625 "/>
</g>
<g xmlns="http://www.w3.org/2000/svg" id="glyph-29-2">
<path d="M 3.765625 -2.6875 L 8.28125 -2.6875 L 8.28125 -22.15625 L 8.640625 -24.515625 L 7.28125 -22.59375 L 3.921875 -19.875 L 2.40625 -21.6875 L 9.6875 -28.484375 L 11.15625 -28.484375 L 11.15625 -2.6875 L 15.515625 -2.6875 L 15.515625 0 L 3.765625 0 Z M 3.765625 -2.6875 "/>
</g>
<g xmlns="http://www.w3.org/2000/svg" id="glyph-29-28">
<path d="M 2.5625 -27.71875 C 3.414062 -27.957031 4.320312 -28.113281 5.28125 -28.1875 C 6.238281 -28.269531 7.1875 -28.3125 8.125 -28.3125 C 9.1875 -28.3125 10.238281 -28.191406 11.28125 -27.953125 C 12.320312 -27.710938 13.257812 -27.273438 14.09375 -26.640625 C 14.9375 -26.003906 15.617188 -25.125 16.140625 -24 C 16.660156 -22.875 16.921875 -21.445312 16.921875 -19.71875 C 16.921875 -18.039062 16.671875 -16.613281 16.171875 -15.4375 C 15.679688 -14.269531 15.03125 -13.316406 14.21875 -12.578125 C 13.40625 -11.847656 12.472656 -11.316406 11.421875 -10.984375 C 10.367188 -10.648438 9.28125 -10.484375 8.15625 -10.484375 C 8.050781 -10.484375 7.878906 -10.484375 7.640625 -10.484375 C 7.398438 -10.484375 7.144531 -10.488281 6.875 -10.5 C 6.613281 -10.507812 6.351562 -10.523438 6.09375 -10.546875 C 5.84375 -10.578125 5.664062 -10.609375 5.5625 -10.640625 L 5.5625 0 L 2.5625 0 Z M 8.28125 -25.5625 C 7.75 -25.5625 7.234375 -25.539062 6.734375 -25.5 C 6.242188 -25.457031 5.851562 -25.394531 5.5625 -25.3125 L 5.5625 -13.40625 C 5.664062 -13.34375 5.832031 -13.304688 6.0625 -13.296875 C 6.289062 -13.285156 6.523438 -13.269531 6.765625 -13.25 C 7.003906 -13.238281 7.234375 -13.234375 7.453125 -13.234375 C 7.679688 -13.234375 7.847656 -13.234375 7.953125 -13.234375 C 8.703125 -13.234375 9.421875 -13.328125 10.109375 -13.515625 C 10.804688 -13.703125 11.421875 -14.039062 11.953125 -14.53125 C 12.492188 -15.03125 12.929688 -15.695312 13.265625 -16.53125 C 13.597656 -17.375 13.765625 -18.4375 13.765625 -19.71875 C 13.765625 -20.84375 13.609375 -21.773438 13.296875 -22.515625 C 12.992188 -23.265625 12.59375 -23.863281 12.09375 -24.3125 C 11.601562 -24.769531 11.023438 -25.09375 10.359375 -25.28125 C 9.691406 -25.46875 9 -25.5625 8.28125 -25.5625 Z M 8.28125 -25.5625 "/>
</g>
<g xmlns="http://www.w3.org/2000/svg" id="glyph-29-39">
<path d="M 5.4375 -4.765625 C 5.4375 -3.828125 5.5625 -3.15625 5.8125 -2.75 C 6.070312 -2.351562 6.425781 -2.15625 6.875 -2.15625 C 7.4375 -2.15625 8.09375 -2.300781 8.84375 -2.59375 L 9.125 -0.28125 C 8.769531 -0.0625 8.28125 0.109375 7.65625 0.234375 C 7.03125 0.367188 6.460938 0.4375 5.953125 0.4375 C 4.941406 0.4375 4.125 0.125 3.5 -0.5 C 2.875 -1.125 2.5625 -2.222656 2.5625 -3.796875 L 2.5625 -28 L 5.4375 -28 Z M 5.4375 -4.765625 "/>
</g>
<g xmlns="http://www.w3.org/2000/svg" id="glyph-29-22">
<path d="M 4.953125 -20 L 4.953125 -7.765625 C 4.953125 -5.734375 5.160156 -4.285156 5.578125 -3.421875 C 5.992188 -2.554688 6.75 -2.125 7.84375 -2.125 C 8.40625 -2.125 8.90625 -2.234375 9.34375 -2.453125 C 9.78125 -2.679688 10.171875 -2.984375 10.515625 -3.359375 C 10.867188 -3.734375 11.175781 -4.160156 11.4375 -4.640625 C 11.707031 -5.117188 11.921875 -5.613281 12.078125 -6.125 L 12.078125 -20 L 14.953125 -20 L 14.953125 -5.6875 C 14.953125 -4.71875 14.984375 -3.71875 15.046875 -2.6875 C 15.117188 -1.664062 15.222656 -0.769531 15.359375 0 L 13.3125 0 L 12.59375 -2.796875 L 12.484375 -2.796875 C 12.023438 -1.921875 11.367188 -1.15625 10.515625 -0.5 C 9.660156 0.15625 8.59375 0.484375 7.3125 0.484375 C 6.46875 0.484375 5.722656 0.375 5.078125 0.15625 C 4.441406 -0.0507812 3.894531 -0.4375 3.4375 -1 C 2.988281 -1.5625 2.648438 -2.328125 2.421875 -3.296875 C 2.191406 -4.273438 2.078125 -5.523438 2.078125 -7.046875 L 2.078125 -20 Z M 4.953125 -20 "/>
</g>
<g xmlns="http://www.w3.org/2000/svg" id="glyph-29-19">
<path d="M 2.84375 -20 L 5.71875 -20 L 5.71875 0 L 2.84375 0 Z M 2.3125 -26.078125 C 2.3125 -26.722656 2.492188 -27.242188 2.859375 -27.640625 C 3.222656 -28.035156 3.695312 -28.234375 4.28125 -28.234375 C 4.863281 -28.234375 5.347656 -28.039062 5.734375 -27.65625 C 6.117188 -27.269531 6.3125 -26.742188 6.3125 -26.078125 C 6.3125 -25.441406 6.117188 -24.941406 5.734375 -24.578125 C 5.347656 -24.222656 4.863281 -24.046875 4.28125 -24.046875 C 3.695312 -24.046875 3.222656 -24.226562 2.859375 -24.59375 C 2.492188 -24.96875 2.3125 -25.460938 2.3125 -26.078125 Z M 2.3125 -26.078125 "/>
</g>
<g xmlns="http://www.w3.org/2000/svg" id="glyph-29-18">
<path d="M 0.359375 -20 L 2.796875 -20 L 2.796875 -23.953125 L 5.6875 -24.875 L 5.6875 -20 L 10 -20 L 10 -17.40625 L 5.6875 -17.40625 L 5.6875 -5.484375 C 5.6875 -4.304688 5.820312 -3.457031 6.09375 -2.9375 C 6.375 -2.414062 6.835938 -2.15625 7.484375 -2.15625 C 8.015625 -2.15625 8.472656 -2.210938 8.859375 -2.328125 C 9.242188 -2.453125 9.664062 -2.609375 10.125 -2.796875 L 10.6875 -0.515625 C 10.09375 -0.222656 9.441406 0.00390625 8.734375 0.171875 C 8.035156 0.347656 7.296875 0.4375 6.515625 0.4375 C 5.179688 0.4375 4.226562 0.00390625 3.65625 -0.859375 C 3.082031 -1.722656 2.796875 -3.128906 2.796875 -5.078125 L 2.796875 -17.40625 L 0.359375 -17.40625 Z M 0.359375 -20 "/>
</g>
<g xmlns="http://www.w3.org/2000/svg" id="glyph-29-13">
<path d="M 14.28125 -28 L 14.28125 -25.203125 L 6.6875 -25.203125 L 6.6875 -17.046875 L 8.046875 -17.15625 C 10.171875 -17.132812 11.847656 -16.398438 13.078125 -14.953125 C 14.304688 -13.515625 14.929688 -11.453125 14.953125 -8.765625 C 14.929688 -7.265625 14.710938 -5.941406 14.296875 -4.796875 C 13.890625 -3.648438 13.320312 -2.679688 12.59375 -1.890625 C 11.875 -1.109375 11.035156 -0.515625 10.078125 -0.109375 C 9.117188 0.285156 8.09375 0.484375 7 0.484375 C 5.15625 0.484375 3.675781 0.226562 2.5625 -0.28125 L 3.28125 -2.84375 C 3.757812 -2.601562 4.289062 -2.4375 4.875 -2.34375 C 5.46875 -2.25 6.148438 -2.203125 6.921875 -2.203125 C 8.441406 -2.203125 9.675781 -2.753906 10.625 -3.859375 C 11.570312 -4.960938 12.054688 -6.515625 12.078125 -8.515625 C 12.054688 -10.566406 11.570312 -12.085938 10.625 -13.078125 C 9.675781 -14.066406 8.363281 -14.5625 6.6875 -14.5625 L 4.046875 -14.359375 L 4.046875 -28 Z M 14.28125 -28 "/>
</g>
<g xmlns="http://www.w3.org/2000/svg" id="glyph-29-16">
<path d="M 14.3125 -1.359375 C 13.675781 -0.773438 12.863281 -0.320312 11.875 0 C 10.894531 0.320312 9.859375 0.484375 8.765625 0.484375 C 7.503906 0.484375 6.414062 0.238281 5.5 -0.25 C 4.582031 -0.75 3.820312 -1.457031 3.21875 -2.375 C 2.613281 -3.300781 2.171875 -4.398438 1.890625 -5.671875 C 1.617188 -6.953125 1.484375 -8.394531 1.484375 -10 C 1.484375 -13.414062 2.109375 -16.015625 3.359375 -17.796875 C 4.609375 -19.585938 6.382812 -20.484375 8.6875 -20.484375 C 9.425781 -20.484375 10.160156 -20.390625 10.890625 -20.203125 C 11.628906 -20.015625 12.289062 -19.640625 12.875 -19.078125 C 13.46875 -18.515625 13.941406 -17.726562 14.296875 -16.71875 C 14.660156 -15.707031 14.84375 -14.390625 14.84375 -12.765625 C 14.84375 -12.304688 14.820312 -11.816406 14.78125 -11.296875 C 14.738281 -10.773438 14.691406 -10.238281 14.640625 -9.6875 L 4.484375 -9.6875 C 4.484375 -8.53125 4.578125 -7.484375 4.765625 -6.546875 C 4.953125 -5.617188 5.242188 -4.828125 5.640625 -4.171875 C 6.035156 -3.523438 6.546875 -3.019531 7.171875 -2.65625 C 7.804688 -2.300781 8.585938 -2.125 9.515625 -2.125 C 10.234375 -2.125 10.945312 -2.253906 11.65625 -2.515625 C 12.363281 -2.785156 12.90625 -3.109375 13.28125 -3.484375 Z M 12.078125 -12.078125 C 12.128906 -14.078125 11.847656 -15.539062 11.234375 -16.46875 C 10.617188 -17.40625 9.78125 -17.875 8.71875 -17.875 C 7.488281 -17.875 6.515625 -17.40625 5.796875 -16.46875 C 5.078125 -15.539062 4.648438 -14.078125 4.515625 -12.078125 Z M 12.078125 -12.078125 "/>
</g>
<g xmlns="http://www.w3.org/2000/svg" id="glyph-29-10">
<path d="M 12.59375 0 L 12.59375 -12.203125 C 12.59375 -14.203125 12.359375 -15.644531 11.890625 -16.53125 C 11.429688 -17.425781 10.601562 -17.875 9.40625 -17.875 C 8.332031 -17.875 7.445312 -17.550781 6.75 -16.90625 C 6.0625 -16.269531 5.554688 -15.488281 5.234375 -14.5625 L 5.234375 0 L 2.359375 0 L 2.359375 -20 L 4.4375 -20 L 4.953125 -17.875 L 5.078125 -17.875 C 5.585938 -18.59375 6.273438 -19.207031 7.140625 -19.71875 C 8.003906 -20.226562 9.035156 -20.484375 10.234375 -20.484375 C 11.085938 -20.484375 11.84375 -20.363281 12.5 -20.125 C 13.15625 -19.882812 13.703125 -19.476562 14.140625 -18.90625 C 14.578125 -18.332031 14.910156 -17.5625 15.140625 -16.59375 C 15.367188 -15.632812 15.484375 -14.421875 15.484375 -12.953125 L 15.484375 0 Z M 12.59375 0 "/>
</g>
<g xmlns="http://www.w3.org/2000/svg" id="glyph-29-29">
<path d="M 2.875 -20 L 5.765625 -20 L 5.765625 1.078125 C 5.765625 3.828125 5.320312 5.804688 4.4375 7.015625 C 3.5625 8.234375 2.132812 8.695312 0.15625 8.40625 L 0.15625 5.796875 C 0.75 5.796875 1.222656 5.675781 1.578125 5.4375 C 1.941406 5.195312 2.222656 4.828125 2.421875 4.328125 C 2.617188 3.835938 2.742188 3.226562 2.796875 2.5 C 2.847656 1.769531 2.875 0.910156 2.875 -0.078125 Z M 2.3125 -26.078125 C 2.3125 -26.722656 2.492188 -27.242188 2.859375 -27.640625 C 3.222656 -28.035156 3.695312 -28.234375 4.28125 -28.234375 C 4.863281 -28.234375 5.347656 -28.039062 5.734375 -27.65625 C 6.117188 -27.269531 6.3125 -26.742188 6.3125 -26.078125 C 6.3125 -25.441406 6.117188 -24.941406 5.734375 -24.578125 C 5.347656 -24.222656 4.863281 -24.046875 4.28125 -24.046875 C 3.695312 -24.046875 3.222656 -24.226562 2.859375 -24.59375 C 2.492188 -24.96875 2.3125 -25.460938 2.3125 -26.078125 Z M 2.3125 -26.078125 "/>
</g>
<g xmlns="http://www.w3.org/2000/svg" id="glyph-29-8">
<path d="M 2.15625 -18.796875 C 2.925781 -19.273438 3.863281 -19.644531 4.96875 -19.90625 C 6.082031 -20.175781 7.253906 -20.3125 8.484375 -20.3125 C 9.597656 -20.3125 10.492188 -20.144531 11.171875 -19.8125 C 11.859375 -19.476562 12.394531 -19.023438 12.78125 -18.453125 C 13.164062 -17.878906 13.414062 -17.226562 13.53125 -16.5 C 13.65625 -15.769531 13.71875 -15.003906 13.71875 -14.203125 C 13.71875 -12.597656 13.679688 -11.035156 13.609375 -9.515625 C 13.546875 -7.992188 13.515625 -6.554688 13.515625 -5.203125 C 13.515625 -4.191406 13.546875 -3.25 13.609375 -2.375 C 13.679688 -1.507812 13.8125 -0.691406 14 0.078125 L 11.796875 0.078125 L 11.125 -2.28125 L 10.953125 -2.28125 C 10.554688 -1.582031 9.972656 -0.976562 9.203125 -0.46875 C 8.429688 0.03125 7.390625 0.28125 6.078125 0.28125 C 4.640625 0.28125 3.457031 -0.21875 2.53125 -1.21875 C 1.613281 -2.21875 1.15625 -3.597656 1.15625 -5.359375 C 1.15625 -6.503906 1.347656 -7.460938 1.734375 -8.234375 C 2.117188 -9.015625 2.664062 -9.644531 3.375 -10.125 C 4.082031 -10.601562 4.921875 -10.941406 5.890625 -11.140625 C 6.867188 -11.335938 7.957031 -11.4375 9.15625 -11.4375 C 9.425781 -11.4375 9.691406 -11.4375 9.953125 -11.4375 C 10.222656 -11.4375 10.503906 -11.425781 10.796875 -11.40625 C 10.878906 -12.226562 10.921875 -12.957031 10.921875 -13.59375 C 10.921875 -15.113281 10.691406 -16.179688 10.234375 -16.796875 C 9.785156 -17.410156 8.960938 -17.71875 7.765625 -17.71875 C 7.015625 -17.71875 6.195312 -17.601562 5.3125 -17.375 C 4.4375 -17.15625 3.707031 -16.867188 3.125 -16.515625 Z M 10.84375 -9.125 C 10.570312 -9.144531 10.300781 -9.160156 10.03125 -9.171875 C 9.769531 -9.191406 9.503906 -9.203125 9.234375 -9.203125 C 8.597656 -9.203125 7.972656 -9.144531 7.359375 -9.03125 C 6.742188 -8.925781 6.195312 -8.738281 5.71875 -8.46875 C 5.238281 -8.207031 4.859375 -7.847656 4.578125 -7.390625 C 4.296875 -6.941406 4.15625 -6.375 4.15625 -5.6875 C 4.15625 -4.613281 4.414062 -3.78125 4.9375 -3.1875 C 5.457031 -2.601562 6.128906 -2.3125 6.953125 -2.3125 C 8.078125 -2.3125 8.945312 -2.578125 9.5625 -3.109375 C 10.175781 -3.648438 10.601562 -4.238281 10.84375 -4.875 Z M 10.84375 -9.125 "/>
</g>
<g xmlns="http://www.w3.org/2000/svg" id="glyph-29-24">
<path d="M 2.359375 -20 L 4.40625 -20 L 4.921875 -17.875 L 5.046875 -17.875 C 5.410156 -18.65625 5.894531 -19.265625 6.5 -19.703125 C 7.101562 -20.140625 7.832031 -20.359375 8.6875 -20.359375 C 9.289062 -20.359375 9.984375 -20.238281 10.765625 -20 L 10.203125 -17.078125 C 9.503906 -17.316406 8.890625 -17.4375 8.359375 -17.4375 C 7.503906 -17.4375 6.8125 -17.1875 6.28125 -16.6875 C 5.75 -16.195312 5.398438 -15.539062 5.234375 -14.71875 L 5.234375 0 L 2.359375 0 Z M 2.359375 -20 "/>
</g>
<g xmlns="http://www.w3.org/2000/svg" id="glyph-29-11">
<path d="M 14.953125 0.921875 C 14.953125 3.503906 14.378906 5.410156 13.234375 6.640625 C 12.085938 7.867188 10.421875 8.484375 8.234375 8.484375 C 6.898438 8.484375 5.804688 8.367188 4.953125 8.140625 C 4.109375 7.910156 3.414062 7.648438 2.875 7.359375 L 3.71875 4.875 C 4.25 5.113281 4.832031 5.335938 5.46875 5.546875 C 6.113281 5.765625 6.90625 5.875 7.84375 5.875 C 9.46875 5.875 10.578125 5.421875 11.171875 4.515625 C 11.773438 3.609375 12.078125 2.085938 12.078125 -0.046875 L 12.078125 -1.515625 L 11.953125 -1.515625 C 11.523438 -0.898438 10.976562 -0.421875 10.3125 -0.078125 C 9.644531 0.265625 8.796875 0.4375 7.765625 0.4375 C 5.597656 0.4375 4.007812 -0.394531 3 -2.0625 C 1.988281 -3.726562 1.484375 -6.347656 1.484375 -9.921875 C 1.484375 -13.359375 2.140625 -15.957031 3.453125 -17.71875 C 4.773438 -19.476562 6.726562 -20.359375 9.3125 -20.359375 C 10.570312 -20.359375 11.65625 -20.238281 12.5625 -20 C 13.46875 -19.757812 14.265625 -19.476562 14.953125 -19.15625 Z M 12.078125 -17.125 C 11.273438 -17.550781 10.25 -17.765625 9 -17.765625 C 7.632812 -17.765625 6.539062 -17.144531 5.71875 -15.90625 C 4.894531 -14.664062 4.484375 -12.679688 4.484375 -9.953125 C 4.484375 -8.835938 4.546875 -7.804688 4.671875 -6.859375 C 4.804688 -5.910156 5.035156 -5.082031 5.359375 -4.375 C 5.679688 -3.664062 6.085938 -3.117188 6.578125 -2.734375 C 7.066406 -2.347656 7.675781 -2.15625 8.40625 -2.15625 C 9.414062 -2.15625 10.210938 -2.421875 10.796875 -2.953125 C 11.390625 -3.492188 11.816406 -4.296875 12.078125 -5.359375 Z M 12.078125 -17.125 "/>
</g>
<g xmlns="http://www.w3.org/2000/svg" id="glyph-25-25">
<path d="M 21.65625 -31.546875 L 13.046875 -31.546875 L 13.046875 0 L 9.296875 0 L 9.296875 -31.546875 L 0.703125 -31.546875 L 0.703125 -35 L 21.65625 -35 Z M 21.65625 -31.546875 "/>
</g>
<g xmlns="http://www.w3.org/2000/svg" id="glyph-25-15">
<path d="M 17.90625 -1.703125 C 17.101562 -0.960938 16.082031 -0.394531 14.84375 0 C 13.613281 0.394531 12.316406 0.59375 10.953125 0.59375 C 9.378906 0.59375 8.019531 0.285156 6.875 -0.328125 C 5.726562 -0.941406 4.78125 -1.820312 4.03125 -2.96875 C 3.28125 -4.125 2.726562 -5.5 2.375 -7.09375 C 2.019531 -8.695312 1.84375 -10.5 1.84375 -12.5 C 1.84375 -16.769531 2.625 -20.019531 4.1875 -22.25 C 5.757812 -24.476562 7.976562 -25.59375 10.84375 -25.59375 C 11.78125 -25.59375 12.707031 -25.476562 13.625 -25.25 C 14.539062 -25.019531 15.363281 -24.550781 16.09375 -23.84375 C 16.832031 -23.144531 17.425781 -22.160156 17.875 -20.890625 C 18.320312 -19.628906 18.546875 -17.984375 18.546875 -15.953125 C 18.546875 -15.378906 18.519531 -14.769531 18.46875 -14.125 C 18.425781 -13.476562 18.367188 -12.800781 18.296875 -12.09375 L 5.59375 -12.09375 C 5.59375 -10.664062 5.707031 -9.367188 5.9375 -8.203125 C 6.175781 -7.035156 6.546875 -6.039062 7.046875 -5.21875 C 7.546875 -4.40625 8.1875 -3.773438 8.96875 -3.328125 C 9.757812 -2.878906 10.738281 -2.65625 11.90625 -2.65625 C 12.800781 -2.65625 13.691406 -2.820312 14.578125 -3.15625 C 15.460938 -3.488281 16.132812 -3.882812 16.59375 -4.34375 Z M 15.09375 -15.09375 C 15.164062 -17.59375 14.816406 -19.425781 14.046875 -20.59375 C 13.285156 -21.757812 12.238281 -22.34375 10.90625 -22.34375 C 9.363281 -22.34375 8.144531 -21.757812 7.25 -20.59375 C 6.351562 -19.425781 5.820312 -17.59375 5.65625 -15.09375 Z M 15.09375 -15.09375 "/>
</g>
<g xmlns="http://www.w3.org/2000/svg" id="glyph-25-5">
<path d="M 2.953125 -25 L 5.5 -25 L 6.15625 -22.34375 L 6.296875 -22.34375 C 6.765625 -23.3125 7.375 -24.070312 8.125 -24.625 C 8.875 -25.175781 9.78125 -25.453125 10.84375 -25.453125 C 11.613281 -25.453125 12.484375 -25.300781 13.453125 -25 L 12.75 -21.34375 C 11.882812 -21.644531 11.117188 -21.796875 10.453125 -21.796875 C 9.378906 -21.796875 8.507812 -21.488281 7.84375 -20.875 C 7.175781 -20.257812 6.742188 -19.4375 6.546875 -18.40625 L 6.546875 0 L 2.953125 0 Z M 2.953125 -25 "/>
</g>
<g xmlns="http://www.w3.org/2000/svg" id="glyph-25-22">
<path d="M 14.65625 0 L 14.65625 -14.84375 C 14.65625 -16.175781 14.613281 -17.316406 14.53125 -18.265625 C 14.445312 -19.222656 14.269531 -20 14 -20.59375 C 13.726562 -21.195312 13.359375 -21.640625 12.890625 -21.921875 C 12.429688 -22.203125 11.816406 -22.34375 11.046875 -22.34375 C 9.910156 -22.34375 8.953125 -21.898438 8.171875 -21.015625 C 7.390625 -20.140625 6.847656 -19.132812 6.546875 -18 L 6.546875 0 L 2.953125 0 L 2.953125 -25 L 5.5 -25 L 6.15625 -22.34375 L 6.296875 -22.34375 C 6.992188 -23.3125 7.828125 -24.09375 8.796875 -24.6875 C 9.765625 -25.289062 11 -25.59375 12.5 -25.59375 C 13.769531 -25.59375 14.8125 -25.316406 15.625 -24.765625 C 16.4375 -24.222656 17.078125 -23.25 17.546875 -21.84375 C 18.148438 -23.007812 19.007812 -23.925781 20.125 -24.59375 C 21.238281 -25.257812 22.460938 -25.59375 23.796875 -25.59375 C 24.898438 -25.59375 25.84375 -25.453125 26.625 -25.171875 C 27.40625 -24.890625 28.035156 -24.390625 28.515625 -23.671875 C 29.003906 -22.953125 29.363281 -22 29.59375 -20.8125 C 29.832031 -19.632812 29.953125 -18.144531 29.953125 -16.34375 L 29.953125 0 L 26.34375 0 L 26.34375 -15.90625 C 26.34375 -18.070312 26.132812 -19.6875 25.71875 -20.75 C 25.300781 -21.8125 24.34375 -22.34375 22.84375 -22.34375 C 21.582031 -22.34375 20.578125 -21.953125 19.828125 -21.171875 C 19.078125 -20.390625 18.550781 -19.332031 18.25 -18 L 18.25 0 Z M 14.65625 0 "/>
</g>
<g xmlns="http://www.w3.org/2000/svg" id="glyph-25-8">
<path d="M 3.546875 -25 L 7.15625 -25 L 7.15625 0 L 3.546875 0 Z M 2.90625 -32.59375 C 2.90625 -33.394531 3.128906 -34.046875 3.578125 -34.546875 C 4.023438 -35.046875 4.613281 -35.296875 5.34375 -35.296875 C 6.082031 -35.296875 6.691406 -35.050781 7.171875 -34.5625 C 7.660156 -34.082031 7.90625 -33.425781 7.90625 -32.59375 C 7.90625 -31.800781 7.660156 -31.175781 7.171875 -30.71875 C 6.691406 -30.269531 6.082031 -30.046875 5.34375 -30.046875 C 4.613281 -30.046875 4.023438 -30.28125 3.578125 -30.75 C 3.128906 -31.21875 2.90625 -31.832031 2.90625 -32.59375 Z M 2.90625 -32.59375 "/>
</g>
<g xmlns="http://www.w3.org/2000/svg" id="glyph-25-2">
<path d="M 15.75 0 L 15.75 -15.25 C 15.75 -17.75 15.457031 -19.554688 14.875 -20.671875 C 14.289062 -21.785156 13.25 -22.34375 11.75 -22.34375 C 10.414062 -22.34375 9.316406 -21.941406 8.453125 -21.140625 C 7.585938 -20.347656 6.953125 -19.367188 6.546875 -18.203125 L 6.546875 0 L 2.953125 0 L 2.953125 -25 L 5.546875 -25 L 6.203125 -22.34375 L 6.34375 -22.34375 C 6.976562 -23.25 7.835938 -24.015625 8.921875 -24.640625 C 10.003906 -25.273438 11.296875 -25.59375 12.796875 -25.59375 C 13.867188 -25.59375 14.8125 -25.441406 15.625 -25.140625 C 16.4375 -24.847656 17.117188 -24.34375 17.671875 -23.625 C 18.222656 -22.90625 18.640625 -21.945312 18.921875 -20.75 C 19.203125 -19.550781 19.34375 -18.035156 19.34375 -16.203125 L 19.34375 0 Z M 15.75 0 "/>
</g>
<g xmlns="http://www.w3.org/2000/svg" id="glyph-25-1">
<path d="M 2.703125 -23.5 C 3.671875 -24.101562 4.84375 -24.570312 6.21875 -24.90625 C 7.601562 -25.238281 9.0625 -25.40625 10.59375 -25.40625 C 12 -25.40625 13.125 -25.195312 13.96875 -24.78125 C 14.820312 -24.363281 15.488281 -23.796875 15.96875 -23.078125 C 16.457031 -22.359375 16.773438 -21.539062 16.921875 -20.625 C 17.078125 -19.707031 17.15625 -18.75 17.15625 -17.75 C 17.15625 -15.75 17.113281 -13.796875 17.03125 -11.890625 C 16.945312 -9.992188 16.90625 -8.195312 16.90625 -6.5 C 16.90625 -5.226562 16.945312 -4.050781 17.03125 -2.96875 C 17.113281 -1.882812 17.269531 -0.863281 17.5 0.09375 L 14.75 0.09375 L 13.90625 -2.84375 L 13.703125 -2.84375 C 13.203125 -1.976562 12.46875 -1.226562 11.5 -0.59375 C 10.53125 0.03125 9.226562 0.34375 7.59375 0.34375 C 5.800781 0.34375 4.328125 -0.28125 3.171875 -1.53125 C 2.023438 -2.78125 1.453125 -4.503906 1.453125 -6.703125 C 1.453125 -8.128906 1.691406 -9.328125 2.171875 -10.296875 C 2.660156 -11.265625 3.34375 -12.046875 4.21875 -12.640625 C 5.101562 -13.242188 6.15625 -13.671875 7.375 -13.921875 C 8.59375 -14.171875 9.953125 -14.296875 11.453125 -14.296875 C 11.785156 -14.296875 12.117188 -14.296875 12.453125 -14.296875 C 12.785156 -14.296875 13.132812 -14.28125 13.5 -14.25 C 13.601562 -15.28125 13.65625 -16.195312 13.65625 -17 C 13.65625 -18.894531 13.367188 -20.226562 12.796875 -21 C 12.234375 -21.769531 11.203125 -22.15625 9.703125 -22.15625 C 8.765625 -22.15625 7.742188 -22.007812 6.640625 -21.71875 C 5.546875 -21.4375 4.632812 -21.082031 3.90625 -20.65625 Z M 13.546875 -11.40625 C 13.210938 -11.4375 12.878906 -11.457031 12.546875 -11.46875 C 12.210938 -11.488281 11.878906 -11.5 11.546875 -11.5 C 10.742188 -11.5 9.957031 -11.429688 9.1875 -11.296875 C 8.425781 -11.160156 7.742188 -10.925781 7.140625 -10.59375 C 6.546875 -10.257812 6.070312 -9.8125 5.71875 -9.25 C 5.375 -8.6875 5.203125 -7.96875 5.203125 -7.09375 C 5.203125 -5.757812 5.523438 -4.726562 6.171875 -4 C 6.828125 -3.269531 7.671875 -2.90625 8.703125 -2.90625 C 10.097656 -2.90625 11.175781 -3.238281 11.9375 -3.90625 C 12.707031 -4.570312 13.242188 -5.300781 13.546875 -6.09375 Z M 13.546875 -11.40625 "/>
</g>
<g xmlns="http://www.w3.org/2000/svg" id="glyph-25-28">
<path d="M 6.796875 -5.953125 C 6.796875 -4.785156 6.953125 -3.953125 7.265625 -3.453125 C 7.585938 -2.953125 8.03125 -2.703125 8.59375 -2.703125 C 9.300781 -2.703125 10.117188 -2.882812 11.046875 -3.25 L 11.40625 -0.34375 C 10.96875 -0.0820312 10.359375 0.128906 9.578125 0.296875 C 8.796875 0.460938 8.085938 0.546875 7.453125 0.546875 C 6.179688 0.546875 5.15625 0.15625 4.375 -0.625 C 3.59375 -1.40625 3.203125 -2.78125 3.203125 -4.75 L 3.203125 -35 L 6.796875 -35 Z M 6.796875 -5.953125 "/>
</g>
<g xmlns="http://www.w3.org/2000/svg" id="glyph-25-42">
<path d="M 4.65625 -3.796875 C 5.28125 -3.429688 6 -3.148438 6.8125 -2.953125 C 7.632812 -2.753906 8.582031 -2.65625 9.65625 -2.65625 C 10.550781 -2.65625 11.375 -2.835938 12.125 -3.203125 C 12.875 -3.566406 13.523438 -4.082031 14.078125 -4.75 C 14.628906 -5.414062 15.050781 -6.207031 15.34375 -7.125 C 15.644531 -8.039062 15.796875 -9.050781 15.796875 -10.15625 C 15.796875 -12.613281 15.253906 -14.410156 14.171875 -15.546875 C 13.085938 -16.679688 11.582031 -17.25 9.65625 -17.25 L 6.65625 -17.25 L 6.65625 -18.703125 L 12.453125 -29.90625 L 14.40625 -32 L 11.65625 -31.65625 L 3.796875 -31.65625 L 3.796875 -35 L 18.296875 -35 L 18.296875 -33.546875 L 11.90625 -21.59375 L 10.40625 -20.15625 L 10.40625 -20.046875 L 11.84375 -20.34375 C 12.882812 -20.34375 13.867188 -20.132812 14.796875 -19.71875 C 15.734375 -19.300781 16.535156 -18.6875 17.203125 -17.875 C 17.867188 -17.0625 18.398438 -16.050781 18.796875 -14.84375 C 19.203125 -13.644531 19.40625 -12.25 19.40625 -10.65625 C 19.40625 -8.851562 19.144531 -7.25 18.625 -5.84375 C 18.101562 -4.445312 17.398438 -3.273438 16.515625 -2.328125 C 15.640625 -1.378906 14.609375 -0.65625 13.421875 -0.15625 C 12.242188 0.34375 10.988281 0.59375 9.65625 0.59375 C 8.488281 0.59375 7.382812 0.492188 6.34375 0.296875 C 5.3125 0.0976562 4.414062 -0.179688 3.65625 -0.546875 Z M 4.65625 -3.796875 "/>
</g>
<g xmlns="http://www.w3.org/2000/svg" id="glyph-25-44">
<path d="M 18.40625 -27.34375 C 18.40625 -25.507812 18.128906 -23.59375 17.578125 -21.59375 C 17.023438 -19.59375 16.320312 -17.617188 15.46875 -15.671875 C 14.625 -13.722656 13.675781 -11.847656 12.625 -10.046875 C 11.570312 -8.242188 10.546875 -6.644531 9.546875 -5.25 L 7.546875 -3.046875 L 7.546875 -2.90625 L 10.203125 -3.34375 L 18.953125 -3.34375 L 18.953125 0 L 2.75 0 L 2.75 -1.59375 C 3.382812 -2.363281 4.117188 -3.332031 4.953125 -4.5 C 5.785156 -5.664062 6.640625 -6.941406 7.515625 -8.328125 C 8.398438 -9.710938 9.269531 -11.175781 10.125 -12.71875 C 10.976562 -14.269531 11.738281 -15.84375 12.40625 -17.4375 C 13.070312 -19.039062 13.613281 -20.625 14.03125 -22.1875 C 14.445312 -23.757812 14.65625 -25.265625 14.65625 -26.703125 C 14.65625 -28.398438 14.257812 -29.75 13.46875 -30.75 C 12.6875 -31.75 11.546875 -32.25 10.046875 -32.25 C 9.078125 -32.25 8.132812 -32.070312 7.21875 -31.71875 C 6.300781 -31.375 5.507812 -30.9375 4.84375 -30.40625 L 3.453125 -33.046875 C 4.347656 -33.847656 5.445312 -34.472656 6.75 -34.921875 C 8.050781 -35.367188 9.414062 -35.59375 10.84375 -35.59375 C 13.3125 -35.59375 15.1875 -34.832031 16.46875 -33.3125 C 17.757812 -31.800781 18.40625 -29.8125 18.40625 -27.34375 Z M 18.40625 -27.34375 "/>
</g>
<g xmlns="http://www.w3.org/2000/svg" id="glyph-53-0">
<path d="M 5.28125 -5.75 L 12.53125 -5.75 L 12.53125 -26.375 L 13.3125 -29.9375 L 10.8125 -26.84375 L 6.15625 -23.65625 L 3.296875 -27.578125 L 15.203125 -37.1875 L 19.015625 -37.1875 L 19.015625 -5.75 L 26.125 -5.75 L 26.125 0 L 5.28125 0 Z M 5.28125 -5.75 "/>
</g>
<g xmlns="http://www.w3.org/2000/svg" id="glyph-53-1">
<path d="M 24.8125 -27.625 C 24.8125 -25.851562 24.488281 -24.0625 23.84375 -22.25 C 23.195312 -20.4375 22.378906 -18.660156 21.390625 -16.921875 C 20.398438 -15.179688 19.300781 -13.5 18.09375 -11.875 C 16.894531 -10.257812 15.722656 -8.773438 14.578125 -7.421875 L 11.8125 -5.28125 L 11.8125 -5.015625 L 15.5625 -5.75 L 25.59375 -5.75 L 25.59375 0 L 3.609375 0 L 3.609375 -3.5 C 4.441406 -4.375 5.378906 -5.394531 6.421875 -6.5625 C 7.460938 -7.726562 8.515625 -8.960938 9.578125 -10.265625 C 10.640625 -11.566406 11.675781 -12.914062 12.6875 -14.3125 C 13.695312 -15.707031 14.601562 -17.109375 15.40625 -18.515625 C 16.207031 -19.921875 16.84375 -21.285156 17.3125 -22.609375 C 17.78125 -23.941406 18.015625 -25.195312 18.015625 -26.375 C 18.015625 -27.800781 17.601562 -28.972656 16.78125 -29.890625 C 15.96875 -30.816406 14.675781 -31.28125 12.90625 -31.28125 C 11.789062 -31.28125 10.648438 -31.046875 9.484375 -30.578125 C 8.316406 -30.109375 7.332031 -29.507812 6.53125 -28.78125 L 3.8125 -33.59375 C 5.164062 -34.707031 6.703125 -35.601562 8.421875 -36.28125 C 10.148438 -36.957031 12.179688 -37.296875 14.515625 -37.296875 C 16.015625 -37.296875 17.390625 -37.085938 18.640625 -36.671875 C 19.898438 -36.253906 20.984375 -35.644531 21.890625 -34.84375 C 22.796875 -34.039062 23.507812 -33.035156 24.03125 -31.828125 C 24.550781 -30.628906 24.8125 -29.226562 24.8125 -27.625 Z M 24.8125 -27.625 "/>
</g>
<g xmlns="http://www.w3.org/2000/svg" id="glyph-53-8">
<path d="M 21.15625 -8.09375 L 9.921875 -8.09375 L 7.15625 0 L 0 0 L 13.15625 -36.828125 L 18.4375 -36.828125 L 31.609375 0 L 24.078125 0 Z M 11.75 -13.84375 L 19.59375 -13.84375 L 16.875 -21.984375 L 15.78125 -27.734375 L 15.515625 -27.734375 L 14.421875 -21.9375 Z M 11.75 -13.84375 "/>
</g>
<g xmlns="http://www.w3.org/2000/svg" id="glyph-27-10">
<path d="M 1.203125 -15.59375 C 1.203125 -17.882812 1.742188 -19.71875 2.828125 -21.09375 C 3.921875 -22.46875 5.492188 -23.15625 7.546875 -23.15625 C 9.554688 -23.15625 11.160156 -22.441406 12.359375 -21.015625 C 13.566406 -19.585938 14.171875 -17.445312 14.171875 -14.59375 C 14.171875 -12.082031 13.898438 -9.910156 13.359375 -8.078125 C 12.816406 -6.253906 12.09375 -4.738281 11.1875 -3.53125 C 10.28125 -2.320312 9.226562 -1.390625 8.03125 -0.734375 C 6.84375 -0.0859375 5.613281 0.304688 4.34375 0.453125 L 3.4375 -2.78125 C 5.382812 -3.175781 6.894531 -4.023438 7.96875 -5.328125 C 9.050781 -6.640625 9.742188 -8.222656 10.046875 -10.078125 C 9.640625 -9.535156 9.195312 -9.15625 8.71875 -8.9375 C 8.25 -8.726562 7.632812 -8.625 6.875 -8.625 C 6.207031 -8.625 5.53125 -8.757812 4.84375 -9.03125 C 4.164062 -9.300781 3.554688 -9.722656 3.015625 -10.296875 C 2.472656 -10.867188 2.035156 -11.59375 1.703125 -12.46875 C 1.367188 -13.34375 1.203125 -14.382812 1.203125 -15.59375 Z M 4.921875 -15.828125 C 4.921875 -14.585938 5.1875 -13.648438 5.71875 -13.015625 C 6.25 -12.378906 6.925781 -12.0625 7.75 -12.0625 C 8.375 -12.0625 8.898438 -12.171875 9.328125 -12.390625 C 9.765625 -12.617188 10.101562 -12.941406 10.34375 -13.359375 C 10.382812 -13.597656 10.410156 -13.847656 10.421875 -14.109375 C 10.429688 -14.367188 10.4375 -14.613281 10.4375 -14.84375 C 10.4375 -15.519531 10.378906 -16.15625 10.265625 -16.75 C 10.160156 -17.34375 9.988281 -17.851562 9.75 -18.28125 C 9.519531 -18.71875 9.21875 -19.066406 8.84375 -19.328125 C 8.476562 -19.585938 8.035156 -19.71875 7.515625 -19.71875 C 6.703125 -19.71875 6.066406 -19.367188 5.609375 -18.671875 C 5.148438 -17.984375 4.921875 -17.035156 4.921875 -15.828125 Z M 4.921875 -15.828125 "/>
</g>
<g xmlns="http://www.w3.org/2000/svg" id="glyph-27-3">
<path d="M 2.828125 -3.4375 L 6.515625 -3.4375 L 6.515625 -16.171875 L 6.9375 -18.390625 L 5.609375 -16.46875 L 3.46875 -14.8125 L 1.6875 -16.984375 L 7.9375 -23.078125 L 10.21875 -23.078125 L 10.21875 -3.4375 L 13.84375 -3.4375 L 13.84375 0 L 2.828125 0 Z M 2.828125 -3.4375 "/>
</g>
<g xmlns="http://www.w3.org/2000/svg" id="glyph-27-12">
<path d="M 13.03125 -17.25 C 13.03125 -16.125 12.867188 -14.972656 12.546875 -13.796875 C 12.222656 -12.617188 11.804688 -11.46875 11.296875 -10.34375 C 10.785156 -9.21875 10.226562 -8.144531 9.625 -7.125 C 9.019531 -6.113281 8.425781 -5.21875 7.84375 -4.4375 L 6.421875 -3.109375 L 6.421875 -2.953125 L 8.359375 -3.4375 L 13.390625 -3.4375 L 13.390625 0 L 2.015625 0 L 2.015625 -2.234375 C 2.460938 -2.796875 2.953125 -3.4375 3.484375 -4.15625 C 4.015625 -4.882812 4.546875 -5.65625 5.078125 -6.46875 C 5.609375 -7.28125 6.117188 -8.125 6.609375 -9 C 7.109375 -9.875 7.546875 -10.75 7.921875 -11.625 C 8.304688 -12.5 8.609375 -13.359375 8.828125 -14.203125 C 9.054688 -15.046875 9.148438 -15.832031 9.109375 -16.5625 C 9.148438 -17.46875 8.953125 -18.203125 8.515625 -18.765625 C 8.085938 -19.328125 7.410156 -19.609375 6.484375 -19.609375 C 5.941406 -19.609375 5.390625 -19.484375 4.828125 -19.234375 C 4.265625 -18.992188 3.789062 -18.695312 3.40625 -18.34375 L 1.90625 -21.171875 C 2.625 -21.773438 3.4375 -22.253906 4.34375 -22.609375 C 5.25 -22.972656 6.316406 -23.15625 7.546875 -23.15625 C 8.328125 -23.15625 9.050781 -23.03125 9.71875 -22.78125 C 10.394531 -22.53125 10.972656 -22.15625 11.453125 -21.65625 C 11.941406 -21.15625 12.328125 -20.535156 12.609375 -19.796875 C 12.890625 -19.066406 13.03125 -18.21875 13.03125 -17.25 Z M 13.03125 -17.25 "/>
</g>
</defs>
<g xmlns="http://www.w3.org/2000/svg" fill="rgb(10.572815%, 9.655762%, 10.258484%)" fill-opacity="1"><use xmlns:xlink="http://www.w3.org/1999/xlink" xlink:href="#glyph-4-0" x="1290.4945" y="1678.069"/></g>
<g xmlns="http://www.w3.org/2000/svg" fill="rgb(10.572815%, 9.655762%, 10.258484%)" fill-opacity="1"><use xmlns:xlink="http://www.w3.org/1999/xlink" xlink:href="#glyph-4-1" x="1312.326972" y="1678.170097"/></g>
<g xmlns="http://www.w3.org/2000/svg" fill="rgb(10.572815%, 9.655762%, 10.258484%)" fill-opacity="1"><use xmlns:xlink="http://www.w3.org/1999/xlink" xlink:href="#glyph-4-2" x="1347.939634" y="1678.335005"/><use xmlns:xlink="http://www.w3.org/1999/xlink" xlink:href="#glyph-4-3" x="1389.612261" y="1678.527974"/><use xmlns:xlink="http://www.w3.org/1999/xlink" xlink:href="#glyph-4-4" x="1432.696112" y="1678.727477"/></g>
<g xmlns="http://www.w3.org/2000/svg" fill="rgb(10.572815%, 9.655762%, 10.258484%)" fill-opacity="1"><use xmlns:xlink="http://www.w3.org/1999/xlink" xlink:href="#glyph-5-0" x="1481.4694" y="1614.1207"/><use xmlns:xlink="http://www.w3.org/1999/xlink" xlink:href="#glyph-5-1" x="1506.683526" y="1614.237467"/><use xmlns:xlink="http://www.w3.org/1999/xlink" xlink:href="#glyph-5-2" x="1527.935432" y="1614.335885"/><use xmlns:xlink="http://www.w3.org/1999/xlink" xlink:href="#glyph-5-3" x="1551.039805" y="1614.442882"/><use xmlns:xlink="http://www.w3.org/1999/xlink" xlink:href="#glyph-5-1" x="1573.938348" y="1614.548925"/><use xmlns:xlink="http://www.w3.org/1999/xlink" xlink:href="#glyph-5-4" x="1595.190254" y="1614.647343"/><use xmlns:xlink="http://www.w3.org/1999/xlink" xlink:href="#glyph-5-6" x="1620.816039" y="1614.766016"/><use xmlns:xlink="http://www.w3.org/1999/xlink" xlink:href="#glyph-5-3" x="1647.3166" y="1614.888741"/><use xmlns:xlink="http://www.w3.org/1999/xlink" xlink:href="#glyph-5-1" x="1670.215143" y="1614.994784"/><use xmlns:xlink="http://www.w3.org/1999/xlink" xlink:href="#glyph-5-4" x="1691.467049" y="1615.093202"/><use xmlns:xlink="http://www.w3.org/1999/xlink" xlink:href="#glyph-5-1" x="1706.544068" y="1615.163024"/><use xmlns:xlink="http://www.w3.org/1999/xlink" xlink:href="#glyph-5-7" x="1738.344741" y="1615.310294"/><use xmlns:xlink="http://www.w3.org/1999/xlink" xlink:href="#glyph-5-2" x="1750.591602" y="1615.367009"/><use xmlns:xlink="http://www.w3.org/1999/xlink" xlink:href="#glyph-5-8" x="1773.695975" y="1615.474006"/><use xmlns:xlink="http://www.w3.org/1999/xlink" xlink:href="#glyph-5-9" x="1788.670078" y="1615.543351"/><use xmlns:xlink="http://www.w3.org/1999/xlink" xlink:href="#glyph-5-4" x="1810.693845" y="1615.645343"/><use xmlns:xlink="http://www.w3.org/1999/xlink" xlink:href="#glyph-5-2" x="1825.770863" y="1615.715165"/><use xmlns:xlink="http://www.w3.org/1999/xlink" xlink:href="#glyph-5-1" x="1848.875236" y="1615.822162"/><use xmlns:xlink="http://www.w3.org/1999/xlink" xlink:href="#glyph-5-10" x="1870.127142" y="1615.92058"/><use xmlns:xlink="http://www.w3.org/1999/xlink" xlink:href="#glyph-5-11" x="1888.137232" y="1616.003985"/><use xmlns:xlink="http://www.w3.org/1999/xlink" xlink:href="#glyph-5-12" x="1899.715147" y="1616.057602"/><use xmlns:xlink="http://www.w3.org/1999/xlink" xlink:href="#glyph-5-2" x="1922.61369" y="1616.163646"/><use xmlns:xlink="http://www.w3.org/1999/xlink" xlink:href="#glyph-5-1" x="1945.718063" y="1616.270643"/><use xmlns:xlink="http://www.w3.org/1999/xlink" xlink:href="#glyph-5-13" x="1966.969969" y="1616.36906"/></g>
<g xmlns="http://www.w3.org/2000/svg" fill="rgb(10.572815%, 9.655762%, 10.258484%)" fill-opacity="1"><use xmlns:xlink="http://www.w3.org/1999/xlink" xlink:href="#glyph-5-7" x="1481.247066" y="1662.130454"/><use xmlns:xlink="http://www.w3.org/1999/xlink" xlink:href="#glyph-5-2" x="1493.493927" y="1662.18717"/><use xmlns:xlink="http://www.w3.org/1999/xlink" xlink:href="#glyph-5-8" x="1516.5983" y="1662.294166"/><use xmlns:xlink="http://www.w3.org/1999/xlink" xlink:href="#glyph-5-9" x="1531.572403" y="1662.363512"/><use xmlns:xlink="http://www.w3.org/1999/xlink" xlink:href="#glyph-5-4" x="1553.596171" y="1662.465504"/><use xmlns:xlink="http://www.w3.org/1999/xlink" xlink:href="#glyph-5-2" x="1568.673189" y="1662.535326"/><use xmlns:xlink="http://www.w3.org/1999/xlink" xlink:href="#glyph-5-1" x="1591.777561" y="1662.642323"/><use xmlns:xlink="http://www.w3.org/1999/xlink" xlink:href="#glyph-5-8" x="1613.029468" y="1662.740741"/><use xmlns:xlink="http://www.w3.org/1999/xlink" xlink:href="#glyph-5-11" x="1628.003571" y="1662.810086"/><use xmlns:xlink="http://www.w3.org/1999/xlink" xlink:href="#glyph-5-12" x="1639.581486" y="1662.863703"/><use xmlns:xlink="http://www.w3.org/1999/xlink" xlink:href="#glyph-5-2" x="1662.480029" y="1662.969747"/><use xmlns:xlink="http://www.w3.org/1999/xlink" xlink:href="#glyph-5-1" x="1685.584402" y="1663.076744"/><use xmlns:xlink="http://www.w3.org/1999/xlink" xlink:href="#glyph-5-13" x="1706.836308" y="1663.175161"/><use xmlns:xlink="http://www.w3.org/1999/xlink" xlink:href="#glyph-5-14" x="1728.139671" y="1663.273818"/><use xmlns:xlink="http://www.w3.org/1999/xlink" xlink:href="#glyph-5-11" x="1753.919829" y="1663.393206"/><use xmlns:xlink="http://www.w3.org/1999/xlink" xlink:href="#glyph-5-4" x="1765.497744" y="1663.446823"/><use xmlns:xlink="http://www.w3.org/1999/xlink" xlink:href="#glyph-5-15" x="1780.574762" y="1663.516645"/><use xmlns:xlink="http://www.w3.org/1999/xlink" xlink:href="#glyph-5-12" x="1803.57622" y="1663.623165"/><use xmlns:xlink="http://www.w3.org/1999/xlink" xlink:href="#glyph-5-4" x="1826.474763" y="1663.729209"/></g>
<g xmlns="http://www.w3.org/2000/svg" fill="rgb(10.572815%, 9.655762%, 10.258484%)" fill-opacity="1"><use xmlns:xlink="http://www.w3.org/1999/xlink" xlink:href="#glyph-5-8" x="1842.83307" y="1663.804964"/></g>
<g xmlns="http://www.w3.org/2000/svg" fill="rgb(10.572815%, 9.655762%, 10.258484%)" fill-opacity="1"><use xmlns:xlink="http://www.w3.org/1999/xlink" xlink:href="#glyph-6-0" x="1480.9611" y="1723.8966"/><use xmlns:xlink="http://www.w3.org/1999/xlink" xlink:href="#glyph-6-1" x="1508.634606" y="1724.024744"/><use xmlns:xlink="http://www.w3.org/1999/xlink" xlink:href="#glyph-6-2" x="1543.494399" y="1724.186165"/><use xmlns:xlink="http://www.w3.org/1999/xlink" xlink:href="#glyph-6-3" x="1570.600567" y="1724.311682"/></g>
<g xmlns="http://www.w3.org/2000/svg" fill="rgb(10.572815%, 9.655762%, 10.258484%)" fill-opacity="1"><use xmlns:xlink="http://www.w3.org/1999/xlink" xlink:href="#glyph-6-4" x="1601.741142" y="1724.45588"/><use xmlns:xlink="http://www.w3.org/1999/xlink" xlink:href="#glyph-6-5" x="1633.322979" y="1724.602122"/><use xmlns:xlink="http://www.w3.org/1999/xlink" xlink:href="#glyph-6-6" x="1665.030892" y="1724.748948"/><use xmlns:xlink="http://www.w3.org/1999/xlink" xlink:href="#glyph-6-1" x="1699.071196" y="1724.906574"/><use xmlns:xlink="http://www.w3.org/1999/xlink" xlink:href="#glyph-6-8" x="1752.716194" y="1725.154981"/><use xmlns:xlink="http://www.w3.org/1999/xlink" xlink:href="#glyph-6-4" x="1786.315234" y="1725.310564"/></g>
<g xmlns="http://www.w3.org/2000/svg" fill="rgb(10.572815%, 9.655762%, 10.258484%)" fill-opacity="1"><use xmlns:xlink="http://www.w3.org/1999/xlink" xlink:href="#glyph-6-9" x="1813.73659" y="1725.43754"/></g>
<g xmlns="http://www.w3.org/2000/svg" fill="rgb(10.572815%, 9.655762%, 10.258484%)" fill-opacity="1"><use xmlns:xlink="http://www.w3.org/1999/xlink" xlink:href="#glyph-6-9" x="1844.877165" y="1725.581739"/></g>
<g xmlns="http://www.w3.org/2000/svg" fill="rgb(10.572815%, 9.655762%, 10.258484%)" fill-opacity="1"><use xmlns:xlink="http://www.w3.org/1999/xlink" xlink:href="#glyph-6-4" x="1870.596506" y="1725.700834"/></g>
<g xmlns="http://www.w3.org/2000/svg" fill="rgb(10.572815%, 9.655762%, 10.258484%)" fill-opacity="1"><use xmlns:xlink="http://www.w3.org/1999/xlink" xlink:href="#glyph-29-5" x="2106.5312" y="1388.2729"/><use xmlns:xlink="http://www.w3.org/1999/xlink" xlink:href="#glyph-29-1" x="2124.5312" y="1388.2729"/><use xmlns:xlink="http://www.w3.org/1999/xlink" xlink:href="#glyph-29-26" x="2136.1712" y="1388.2729"/><use xmlns:xlink="http://www.w3.org/1999/xlink" xlink:href="#glyph-29-35" x="2154.1712" y="1388.2729"/><use xmlns:xlink="http://www.w3.org/1999/xlink" xlink:href="#glyph-29-2" x="2180.6512" y="1388.2729"/><use xmlns:xlink="http://www.w3.org/1999/xlink" xlink:href="#glyph-29-26" x="2198.6512" y="1388.2729"/><use xmlns:xlink="http://www.w3.org/1999/xlink" xlink:href="#glyph-29-1" x="2216.6512" y="1388.2729"/><use xmlns:xlink="http://www.w3.org/1999/xlink" xlink:href="#glyph-29-2" x="2228.2912" y="1388.2729"/><use xmlns:xlink="http://www.w3.org/1999/xlink" xlink:href="#glyph-29-28" x="2254.7712" y="1388.2729"/><use xmlns:xlink="http://www.w3.org/1999/xlink" xlink:href="#glyph-29-39" x="2272.8112" y="1388.2729"/><use xmlns:xlink="http://www.w3.org/1999/xlink" xlink:href="#glyph-29-22" x="2282.1312" y="1388.2729"/><use xmlns:xlink="http://www.w3.org/1999/xlink" xlink:href="#glyph-29-19" x="2299.4912" y="1388.2729"/><use xmlns:xlink="http://www.w3.org/1999/xlink" xlink:href="#glyph-29-18" x="2308.1712" y="1388.2729"/></g>
<g xmlns="http://www.w3.org/2000/svg" fill="rgb(10.572815%, 9.655762%, 10.258484%)" fill-opacity="1"><use xmlns:xlink="http://www.w3.org/1999/xlink" xlink:href="#glyph-29-5" x="2269.4112" y="1505.2729"/><use xmlns:xlink="http://www.w3.org/1999/xlink" xlink:href="#glyph-29-1" x="2287.4112" y="1505.2729"/><use xmlns:xlink="http://www.w3.org/1999/xlink" xlink:href="#glyph-29-26" x="2299.0512" y="1505.2729"/><use xmlns:xlink="http://www.w3.org/1999/xlink" xlink:href="#glyph-29-13" x="2317.0512" y="1505.2729"/><use xmlns:xlink="http://www.w3.org/1999/xlink" xlink:href="#glyph-29-2" x="2343.5312" y="1505.2729"/><use xmlns:xlink="http://www.w3.org/1999/xlink" xlink:href="#glyph-29-26" x="2361.5312" y="1505.2729"/></g>
<g xmlns="http://www.w3.org/2000/svg" fill="rgb(10.572815%, 9.655762%, 10.258484%)" fill-opacity="1"><use xmlns:xlink="http://www.w3.org/1999/xlink" xlink:href="#glyph-29-28" x="2263.5712" y="1540.7929"/></g>
<g xmlns="http://www.w3.org/2000/svg" fill="rgb(10.572815%, 9.655762%, 10.258484%)" fill-opacity="1"><use xmlns:xlink="http://www.w3.org/1999/xlink" xlink:href="#glyph-29-16" x="2280.4512" y="1540.7929"/><use xmlns:xlink="http://www.w3.org/1999/xlink" xlink:href="#glyph-29-10" x="2296.9712" y="1540.7929"/><use xmlns:xlink="http://www.w3.org/1999/xlink" xlink:href="#glyph-29-29" x="2314.5312" y="1540.7929"/><use xmlns:xlink="http://www.w3.org/1999/xlink" xlink:href="#glyph-29-8" x="2323.1312" y="1540.7929"/><use xmlns:xlink="http://www.w3.org/1999/xlink" xlink:href="#glyph-29-24" x="2339.1312" y="1540.7929"/><use xmlns:xlink="http://www.w3.org/1999/xlink" xlink:href="#glyph-29-19" x="2350.0912" y="1540.7929"/><use xmlns:xlink="http://www.w3.org/1999/xlink" xlink:href="#glyph-29-10" x="2358.7712" y="1540.7929"/><use xmlns:xlink="http://www.w3.org/1999/xlink" xlink:href="#glyph-29-11" x="2376.3312" y="1540.7929"/></g>
<g xmlns="http://www.w3.org/2000/svg" fill="rgb(10.572815%, 9.655762%, 10.258484%)" fill-opacity="1"><use xmlns:xlink="http://www.w3.org/1999/xlink" xlink:href="#glyph-25-25" x="1348.3526" y="1463.8124"/></g>
<g xmlns="http://www.w3.org/2000/svg" fill="rgb(10.572815%, 9.655762%, 10.258484%)" fill-opacity="1"><use xmlns:xlink="http://www.w3.org/1999/xlink" xlink:href="#glyph-25-15" x="1365.5526" y="1463.8124"/><use xmlns:xlink="http://www.w3.org/1999/xlink" xlink:href="#glyph-25-5" x="1386.2026" y="1463.8124"/><use xmlns:xlink="http://www.w3.org/1999/xlink" xlink:href="#glyph-25-22" x="1399.9026" y="1463.8124"/><use xmlns:xlink="http://www.w3.org/1999/xlink" xlink:href="#glyph-25-8" x="1432.4526" y="1463.8124"/><use xmlns:xlink="http://www.w3.org/1999/xlink" xlink:href="#glyph-25-2" x="1443.3026" y="1463.8124"/><use xmlns:xlink="http://www.w3.org/1999/xlink" xlink:href="#glyph-25-1" x="1465.2526" y="1463.8124"/><use xmlns:xlink="http://www.w3.org/1999/xlink" xlink:href="#glyph-25-28" x="1485.2526" y="1463.8124"/><use xmlns:xlink="http://www.w3.org/1999/xlink" xlink:href="#glyph-25-42" x="1507.5026" y="1463.8124"/></g>
<g xmlns="http://www.w3.org/2000/svg" fill="rgb(10.572815%, 9.655762%, 10.258484%)" fill-opacity="1"><use xmlns:xlink="http://www.w3.org/1999/xlink" xlink:href="#glyph-25-25" x="861.6526" y="1592.5624"/></g>
<g xmlns="http://www.w3.org/2000/svg" fill="rgb(10.572815%, 9.655762%, 10.258484%)" fill-opacity="1"><use xmlns:xlink="http://www.w3.org/1999/xlink" xlink:href="#glyph-25-15" x="878.8526" y="1592.5624"/><use xmlns:xlink="http://www.w3.org/1999/xlink" xlink:href="#glyph-25-5" x="899.5026" y="1592.5624"/><use xmlns:xlink="http://www.w3.org/1999/xlink" xlink:href="#glyph-25-22" x="913.2026" y="1592.5624"/><use xmlns:xlink="http://www.w3.org/1999/xlink" xlink:href="#glyph-25-8" x="945.7526" y="1592.5624"/><use xmlns:xlink="http://www.w3.org/1999/xlink" xlink:href="#glyph-25-2" x="956.6026" y="1592.5624"/><use xmlns:xlink="http://www.w3.org/1999/xlink" xlink:href="#glyph-25-1" x="978.5526" y="1592.5624"/><use xmlns:xlink="http://www.w3.org/1999/xlink" xlink:href="#glyph-25-28" x="998.5526" y="1592.5624"/><use xmlns:xlink="http://www.w3.org/1999/xlink" xlink:href="#glyph-25-44" x="1020.8026" y="1592.5624"/></g>
<g xmlns="http://www.w3.org/2000/svg" fill="rgb(10.572815%, 9.655762%, 10.258484%)" fill-opacity="1"><use xmlns:xlink="http://www.w3.org/1999/xlink" xlink:href="#glyph-53-0" x="613.0435" y="685.5489"/></g>
<g xmlns="http://www.w3.org/2000/svg" fill="rgb(10.572815%, 9.655762%, 10.258484%)" fill-opacity="1"><use xmlns:xlink="http://www.w3.org/1999/xlink" xlink:href="#glyph-53-1" x="1664.502041" y="685.5489"/></g>
<g xmlns="http://www.w3.org/2000/svg" fill="rgb(10.572815%, 9.655762%, 10.258484%)" fill-opacity="1"><use xmlns:xlink="http://www.w3.org/1999/xlink" xlink:href="#glyph-53-8" x="23.896569" y="1343.650783"/></g>
<g xmlns="http://www.w3.org/2000/svg" fill="rgb(100%, 100%, 100%)" fill-opacity="1"><use xmlns:xlink="http://www.w3.org/1999/xlink" xlink:href="#glyph-27-10" x="2170.0491" y="1336.753"/></g>
<g xmlns="http://www.w3.org/2000/svg" fill="rgb(100%, 100%, 100%)" fill-opacity="1"><use xmlns:xlink="http://www.w3.org/1999/xlink" xlink:href="#glyph-27-3" x="2253.6826" y="1336.753"/><use xmlns:xlink="http://www.w3.org/1999/xlink" xlink:href="#glyph-27-12" x="2268.532884" y="1336.753"/></g>
<path xmlns="http://www.w3.org/2000/svg" fill-rule="nonzero" fill="rgb(1.818848%, 10.862732%, 17.320251%)" fill-opacity="1" d="M 1114.984375 1714.910156 L 1067.355469 1714.910156 C 1063.460938 1714.910156 1060.304688 1711.75 1060.304688 1707.855469 L 1060.304688 1660.230469 C 1060.304688 1656.335938 1063.460938 1653.179688 1067.355469 1653.179688 L 1114.984375 1653.179688 C 1118.878906 1653.179688 1122.035156 1656.335938 1122.035156 1660.230469 L 1122.035156 1707.855469 C 1122.035156 1711.75 1118.878906 1714.910156 1114.984375 1714.910156 "/>
<path xmlns="http://www.w3.org/2000/svg" fill-rule="nonzero" fill="rgb(1.818848%, 10.862732%, 17.320251%)" fill-opacity="1" d="M 1384.570312 1557.597656 L 1336.941406 1557.597656 C 1333.046875 1557.597656 1329.890625 1554.441406 1329.890625 1550.546875 L 1329.890625 1502.917969 C 1329.890625 1499.023438 1333.046875 1495.867188 1336.941406 1495.867188 L 1384.570312 1495.867188 C 1388.464844 1495.867188 1391.621094 1499.023438 1391.621094 1502.917969 L 1391.621094 1550.546875 C 1391.621094 1554.441406 1388.464844 1557.597656 1384.570312 1557.597656 "/>
</svg>
