<?xml version="1.0" encoding="UTF-8"?>
<svg xmlns="http://www.w3.org/2000/svg" xmlns:xlink="http://www.w3.org/1999/xlink" viewBox="7135.1775 1681.72 2378.3925 1681.72" width="2378.3925" height="1681.72">
<defs>
<clipPath xmlns="http://www.w3.org/2000/svg" id="clip-2692">
<path clip-rule="nonzero" d="M 0 626 L 8627 626 L 8627 6726.878906 L 0 6726.878906 Z M 0 626 "/>
</clipPath>
<clipPath xmlns="http://www.w3.org/2000/svg" id="clip-2693">
<path clip-rule="nonzero" d="M 0 626 L 8628 626 L 8628 6726.878906 L 0 6726.878906 Z M 0 626 "/>
</clipPath>
</defs>
<path xmlns="http://www.w3.org/2000/svg" fill-rule="nonzero" fill="rgb(96.369934%, 96.783447%, 96.252441%)" fill-opacity="1" d="M 8553.738281 6718.390625 L 76.574219 6718.390625 L 76.574219 769.433594 L 8553.738281 769.433594 Z M 8553.738281 6718.390625 "/>
<path xmlns="http://www.w3.org/2000/svg" fill-rule="nonzero" fill="rgb(100%, 100%, 100%)" fill-opacity="1" stroke-width="22.677" stroke-linecap="butt" stroke-linejoin="miter" stroke="rgb(78.347778%, 79.615784%, 79.621887%)" stroke-opacity="1" stroke-miterlimit="10" d="M -0.00144375 0.0006375 L -0.00144375 -2241.573581 C -0.00144375 -2343.350925 -82.50535 -2425.858737 -184.282694 -2425.858737 L -5203.978006 -2425.858737 C -5305.75535 -2425.858737 -5388.259256 -2343.350925 -5388.259256 -2241.573581 L -5388.259256 -1509.389987 C -5388.259256 -1407.612644 -5470.767069 -1325.108737 -5572.544413 -1325.108737 L -6282.556131 -1325.108737 C -6384.333475 -1325.108737 -6466.841288 -1242.600925 -6466.841288 -1140.823581 L -6466.841288 -729.483737 C -6466.841288 -680.608737 -6486.25535 -633.733737 -6520.81785 -599.175144 L -6656.075663 -463.917331 C -6690.634256 -429.354831 -6710.052225 -382.483737 -6710.052225 -333.608737 L -6710.052225 1191.942044 C -6710.052225 1257.574856 -6675.142069 1318.25845 -6618.403788 1351.250638 L -5760.173319 1850.293606 C -5703.431131 1883.285794 -5668.524881 1943.965481 -5668.524881 2009.6022 L -5668.524881 2484.336575 C -5668.524881 2586.024075 -5586.157694 2668.492825 -5484.470194 2668.621731 L -184.513163 2675.281888 C -82.645975 2675.406888 -0.00144375 2592.863919 -0.00144375 2490.996731 L -0.00144375 996.524075 C -0.00144375 958.016263 15.295431 921.082669 42.5259 893.8522 L 213.064962 723.317044 C 240.236837 696.145169 255.502462 659.2897 255.502462 620.860013 L 255.502462 400.863919 C 255.502462 354.121731 236.936056 309.293606 203.881369 276.242825 L 51.943869 124.301419 C 18.951681 91.313138 0.291525 46.652981 -0.00144375 0.0006375 Z M -0.00144375 0.0006375 " transform="matrix(1, 0, 0, -1, 7626.8491, 3705.3522)"/>
<path xmlns="http://www.w3.org/2000/svg" fill="none" stroke-width="20" stroke-linecap="butt" stroke-linejoin="miter" stroke="rgb(100%, 100%, 100%)" stroke-opacity="1" stroke-miterlimit="10" d="M -0.00195 -0.00183125 L -2601.486325 -0.00183125 L -2729.279294 -1.001831 L -3579.060544 -1.001831 C -3612.451169 -1.001831 -3639.521481 26.068481 -3639.521481 59.459106 L -3639.521481 374.513794 C -3639.521481 416.213012 -3674.052731 450.744262 -3715.75195 450.744262 L -3743.572263 450.744262 " transform="matrix(1, 0, 0, -1, 7385.1582, 3182.7677)"/>
<path xmlns="http://www.w3.org/2000/svg" fill="none" stroke-width="20" stroke-linecap="butt" stroke-linejoin="miter" stroke="rgb(100%, 100%, 100%)" stroke-opacity="1" stroke-miterlimit="10" d="M 0.00194375 -0.00113125 L 891.861319 -0.00113125 C 913.951162 -0.00113125 931.861319 17.909025 931.861319 39.998869 L 931.861319 486.463712 C 931.861319 508.553556 913.951162 526.463712 891.861319 526.463712 L 884.1621 526.463712 " transform="matrix(1, 0, 0, -1, 6496.5254, 3683.2684)"/>
<path xmlns="http://www.w3.org/2000/svg" fill="none" stroke-width="15" stroke-linecap="butt" stroke-linejoin="miter" stroke="rgb(27.389526%, 16.140747%, 37.92572%)" stroke-opacity="1" stroke-miterlimit="10" d="M 0.00194375 -0.00113125 L 891.861319 -0.00113125 C 913.951162 -0.00113125 931.861319 17.909025 931.861319 39.998869 L 931.861319 486.463712 C 931.861319 508.553556 913.951162 526.463712 891.861319 526.463712 L 884.1621 526.463712 " transform="matrix(1, 0, 0, -1, 6496.5254, 3683.2684)"/>
<path xmlns="http://www.w3.org/2000/svg" fill="none" stroke-width="32" stroke-linecap="butt" stroke-linejoin="miter" stroke="rgb(100%, 100%, 100%)" stroke-opacity="1" stroke-miterlimit="10" d="M -0.0012625 -0.00113125 L -0.0012625 -411.579256 L 0.104206 -540.184725 C 0.154987 -651.301913 90.248737 -741.352694 201.365925 -741.352694 L 470.119831 -741.352694 L 665.998737 -741.270663 L 859.498737 -741.270663 L 1622.362019 -744.860506 L 1642.498737 -744.860506 C 1695.873737 -744.860506 1747.065144 -766.063631 1784.807331 -803.809725 L 2113.362019 -1132.364413 C 2151.315144 -1170.313631 2202.854206 -1191.536288 2256.526081 -1191.309725 L 3037.498737 -1188.001131 L 5118.033894 -1188.016756 L 5341.526081 -1188.016756 " transform="matrix(1, 0, 0, -1, 2958.3997, 2931.7684)"/>
<path xmlns="http://www.w3.org/2000/svg" fill="none" stroke-width="9" stroke-linecap="butt" stroke-linejoin="round" stroke="rgb(100%, 100%, 100%)" stroke-opacity="1" stroke-miterlimit="4" d="M 0.000488346 -0.0000919222 L 3.766113 -0.0000919222 L 3.767961 -20.998063 L 0.209368 -20.998063 L -3.886688 -11.971484 L -4.571911 -9.301154 L -4.693005 -9.301154 L -5.408564 -11.908745 L -9.771101 -20.998063 L -13.388289 -20.998063 L -13.390137 -0.0000919222 L -9.831543 -0.0000919222 L -9.832936 -10.861787 L -10.400487 -14.908455 L -10.2208 -14.908455 L -9.115599 -11.281355 L -5.500902 -3.870306 L -4.24309 -3.870306 L -0.835521 -11.249985 L 0.268702 -14.849637 L 0.417139 -14.849637 L 0.00182963 -10.830418 Z M 0.000488346 -0.0000919222 " transform="matrix(1, 0, -0.08716, 0.99619, 7491.308097, 3300.23056)"/>
<path xmlns="http://www.w3.org/2000/svg" fill="none" stroke-width="9" stroke-linecap="butt" stroke-linejoin="round" stroke="rgb(100%, 100%, 100%)" stroke-opacity="1" stroke-miterlimit="4" d="M -0.00138665 -0.0000919222 L 3.764238 -0.0000919222 L 3.766395 -8.669842 L 5.378356 -8.281645 L 9.025957 -0.0000919222 L 13.357988 -0.0000919222 L 9.505014 -8.038531 L 8.307999 -8.999222 C 9.402045 -9.399184 10.267479 -10.136367 10.892926 -11.206852 C 11.52262 -12.273416 11.835227 -13.661517 11.835678 -15.359392 C 11.834367 -16.53967 11.639891 -17.516046 11.252592 -18.2846 C 10.861386 -19.053153 10.354945 -19.664858 9.729704 -20.115795 C 9.100556 -20.566732 8.378244 -20.876506 7.562766 -21.045117 C 6.743383 -21.213728 5.907739 -21.299995 5.05227 -21.299995 C 4.372583 -21.299995 3.567407 -21.260783 2.629271 -21.178438 C 1.6947 -21.100014 0.815354 -20.970615 -0.00095595 -20.79024 Z M 3.767187 -17.668973 C 3.945313 -17.731712 4.184083 -17.770924 4.483155 -17.79053 C 4.782227 -17.810136 5.089796 -17.821899 5.410108 -17.821899 C 6.265577 -17.821899 6.892089 -17.535652 7.29355 -16.963159 C 7.690763 -16.394586 7.891393 -15.661324 7.891875 -14.75945 C 7.890988 -13.559566 7.651822 -12.673377 7.174035 -12.104805 C 6.692342 -11.536232 5.986823 -11.249985 5.049323 -11.249985 L 3.764166 -11.249985 Z M 3.767187 -17.668973 " transform="matrix(1, 0, -0.08716, 0.99619, 7497.763097, 3300.23056)"/>
<path xmlns="http://www.w3.org/2000/svg" fill="none" stroke-width="9" stroke-linecap="butt" stroke-linejoin="round" stroke="rgb(100%, 100%, 100%)" stroke-opacity="1" stroke-miterlimit="4" d="M -0.000526058 0.00193706 L -13.688026 0.00193706 L -13.689563 3.480032 L -8.728625 3.480032 L -8.728937 20.999908 L -4.959405 20.999908 L -4.959094 3.480032 L 0.00184348 3.480032 Z M -0.000526058 0.00193706 " transform="matrix(1, 0, -0.08716, 0.99619, 7526.102257, 3279.31057)"/>
<path xmlns="http://www.w3.org/2000/svg" fill="none" stroke-width="9" stroke-linecap="butt" stroke-linejoin="round" stroke="rgb(100%, 100%, 100%)" stroke-opacity="1" stroke-miterlimit="4" d="M -0.00022301 -0.000636397 C -0.00184164 1.101218 -0.0846109 1.944274 -0.25566 2.536373 C -0.423144 3.124552 -0.854543 3.418641 -1.553761 3.418641 C -2.112355 3.418641 -2.600196 3.289242 -3.017284 3.030443 L -3.884639 6.210528 C -3.428 6.430115 -2.913304 6.598726 -2.344115 6.720283 C -1.778833 6.84184 -1.2073 6.900658 -0.629175 6.900658 C 0.210669 6.900658 0.905054 6.755574 1.465701 6.465405 C 2.022441 6.175237 2.471272 5.767434 2.81151 5.234152 C 3.148183 4.704791 3.393256 4.065637 3.542821 3.31669 C 3.692045 2.563822 3.767685 1.728608 3.765836 0.81105 L 3.767011 -14.458063 L 0.00138644 -14.458063 Z M -0.00022301 -0.000636397 " transform="matrix(1, 0, -0.08716, 0.99619, 7533.597824, 3293.715478)"/>
<path xmlns="http://www.w3.org/2000/svg" fill="none" stroke-width="9" stroke-linecap="butt" stroke-linejoin="round" stroke="rgb(100%, 100%, 100%)" stroke-opacity="1" stroke-miterlimit="4" d="M 0.000326181 -0.000659994 C 0.497301 -0.259459 1.065808 -0.459439 1.701941 -0.600602 C 2.341981 -0.741765 2.956923 -0.812346 3.55458 -0.812346 C 4.370986 -0.812346 4.905603 -0.549627 5.154184 -0.0281083 C 5.402423 0.489489 5.479468 1.328623 5.377507 2.489295 C 3.207098 2.37166 1.484781 2.689276 0.207335 3.449987 C -1.066206 4.210698 -1.704788 5.489006 -1.704165 7.288832 C -1.70227 8.610273 -1.36424 9.665073 -0.686169 10.453232 C -0.0116624 11.245312 0.917388 11.641352 2.093169 11.641352 C 2.968169 11.641352 3.69361 11.449214 4.273739 11.068859 C 4.849962 10.688503 5.300454 10.210118 5.617059 9.629782 L 5.738153 9.629782 L 6.307916 11.460978 L 9.202448 11.460978 C 8.983312 10.739479 8.85026 9.974847 8.799045 9.16316 C 8.752077 8.355395 8.737532 7.516261 8.755409 6.645757 C 8.773286 5.775252 8.812891 4.885142 8.858601 3.975426 C 8.908216 3.06571 8.936933 2.14031 8.936939 1.199224 C 8.936413 -0.420227 8.600826 -1.671087 7.934425 -2.549433 C 7.267683 -3.431701 6.084873 -3.870874 4.393467 -3.870874 C 3.256748 -3.870874 2.238974 -3.761081 1.344051 -3.541494 C 0.449127 -3.321908 -0.299019 -3.03174 -0.896482 -2.67099 Z M 2.34705 8.100518 C 2.096368 7.77898 1.973325 7.308438 1.970106 6.68889 C 1.972599 6.269322 2.067523 5.924258 2.254879 5.653696 C 2.44614 5.383134 2.697899 5.179232 3.017627 5.038069 C 3.337696 4.900827 3.704835 4.81064 4.123293 4.771428 C 4.541408 4.728295 4.979933 4.740058 5.438185 4.798876 L 5.43646 7.288832 C 5.280891 7.610369 5.02918 7.904459 4.689481 8.175021 C 4.353688 8.445583 3.91609 8.578903 3.377027 8.578903 C 2.939527 8.578903 2.593483 8.418134 2.34705 8.100518 Z M 2.34705 8.100518 " transform="matrix(1, 0, -0.08716, 0.99619, 7541.49571, 3288.844407)"/>
<path xmlns="http://www.w3.org/2000/svg" fill="none" stroke-width="9" stroke-linecap="butt" stroke-linejoin="round" stroke="rgb(100%, 100%, 100%)" stroke-opacity="1" stroke-miterlimit="4" d="M -0.0014054 -0.0000919222 L 4.002501 -0.0000919222 L 0.957137 -7.019022 L -0.448129 -8.038531 L 0.83801 -9.05804 L 3.585852 -14.998643 L -0.269617 -14.998643 L -2.749441 -9.030592 L -3.466778 -8.611025 L -3.468307 -20.998063 L -7.022995 -20.998063 L -7.024843 -0.0000919222 L -3.466249 -0.0000919222 L -3.468552 -6.211256 L -2.628708 -6.211256 Z M -0.0014054 -0.0000919222 " transform="matrix(1, 0, -0.08716, 0.99619, 7558.938897, 3300.23056)"/>
<path xmlns="http://www.w3.org/2000/svg" fill="none" stroke-width="9" stroke-linecap="butt" stroke-linejoin="round" stroke="rgb(100%, 100%, 100%)" stroke-opacity="1" stroke-miterlimit="4" d="M 0.00127618 -0.000659994 C 0.498251 -0.259459 1.066758 -0.459439 1.702891 -0.600602 C 2.339025 -0.741765 2.957873 -0.812346 3.55553 -0.812346 C 4.371936 -0.812346 4.906553 -0.549627 5.155134 -0.0281083 C 5.403373 0.489489 5.480418 1.328623 5.378457 2.489295 C 3.208048 2.37166 1.481825 2.689276 0.208285 3.449987 C -1.065256 4.210698 -1.703838 5.489006 -1.703215 7.288832 C -1.705226 8.610273 -1.36329 9.665073 -0.685219 10.453232 C -0.0107124 11.245312 0.914431 11.641352 2.090213 11.641352 C 2.969119 11.641352 3.69456 11.449214 4.274689 11.068859 C 4.850912 10.688503 5.297498 10.210118 5.618009 9.629782 L 5.735197 9.629782 L 6.30496 11.460978 L 9.203398 11.460978 C 8.984262 10.739479 8.85121 9.974847 8.799995 9.16316 C 8.753027 8.355395 8.734576 7.516261 8.756359 6.645757 C 8.774236 5.775252 8.809935 4.885142 8.859551 3.975426 C 8.909166 3.06571 8.937883 2.14031 8.937889 1.199224 C 8.937363 -0.420227 8.601776 -1.671087 7.935375 -2.549433 C 7.268633 -3.431701 6.085823 -3.870874 4.394417 -3.870874 C 3.257698 -3.870874 2.239924 -3.761081 1.345001 -3.541494 C 0.446171 -3.321908 -0.298069 -3.03174 -0.895532 -2.67099 Z M 2.344094 8.100518 C 2.097318 7.77898 1.970368 7.308438 1.971056 6.68889 C 1.973549 6.269322 2.064567 5.924258 2.255829 5.653696 C 2.443184 5.383134 2.698849 5.179232 3.018577 5.038069 C 3.338646 4.900827 3.705785 4.81064 4.124243 4.771428 C 4.542358 4.728295 4.980883 4.740058 5.439135 4.798876 L 5.43741 7.288832 C 5.277935 7.610369 5.03013 7.904459 4.690431 8.175021 C 4.354638 8.445583 3.913133 8.578903 3.377977 8.578903 C 2.936571 8.578903 2.594433 8.418134 2.344094 8.100518 Z M 2.344094 8.100518 " transform="matrix(1, 0, -0.08716, 0.99619, 7566.15101, 3288.844407)"/>
<path xmlns="http://www.w3.org/2000/svg" fill="none" stroke-width="9" stroke-linecap="butt" stroke-linejoin="round" stroke="rgb(100%, 100%, 100%)" stroke-opacity="1" stroke-miterlimit="4" d="M 0.00188341 0.00135735 C -0.460859 -0.198623 -0.926777 -0.300574 -1.403339 -0.300574 C -2.043964 -0.300574 -2.606026 -0.116278 -3.093089 0.256235 C -3.580494 0.624827 -3.953691 1.138502 -4.212337 1.801183 L -4.333431 1.801183 L -4.752023 0.00135735 L -7.470773 0.00135735 L -7.472093 14.999908 L -3.913499 14.999908 L -3.91563 4.981268 C -3.775294 4.440144 -3.511083 4.020577 -3.123337 3.718645 C -2.735249 3.420635 -2.271673 3.27163 -1.732611 3.27163 C -1.334173 3.27163 -0.896625 3.361817 -0.420308 3.53827 Z M 0.00188341 0.00135735 " transform="matrix(1, 0, -0.08716, 0.99619, 7585.349797, 3285.28771)"/>
<path xmlns="http://www.w3.org/2000/svg" fill="none" stroke-width="9" stroke-linecap="butt" stroke-linejoin="round" stroke="rgb(100%, 100%, 100%)" stroke-opacity="1" stroke-miterlimit="4" d="M -0.000302888 0.00174222 L 1.644228 0.00174222 L 1.645543 7.859806 C 1.64485 9.42044 1.929071 10.530137 2.494301 11.188897 C 3.063779 11.851578 3.916706 12.180958 5.049519 12.180958 C 5.686238 12.180958 6.296931 12.106455 6.873446 11.953529 C 7.450303 11.804523 7.961583 11.620227 8.399475 11.400641 L 7.951789 8.549936 C 7.669415 8.671493 7.411651 8.76168 7.17459 8.820498 C 6.933623 8.879316 6.666826 8.910685 6.366044 8.910685 C 5.928544 8.910685 5.62376 8.730311 5.455599 8.369561 C 5.283873 8.012733 5.199306 7.401027 5.198335 6.538366 L 5.198916 0.00174222 L 8.10126 0.00174222 L 8.101427 -3.178343 L 5.199083 -3.178343 L 5.200379 -7.107375 L 1.644415 -6.001599 L 1.644396 -3.178343 L -0.000135335 -3.178343 Z M -0.000302888 0.00174222 " transform="matrix(1, 0, -0.08716, 0.99619, 7585.937955, 3288.455296)"/>
<path xmlns="http://www.w3.org/2000/svg" fill="none" stroke-width="9" stroke-linecap="butt" stroke-linejoin="round" stroke="rgb(100%, 100%, 100%)" stroke-opacity="1" stroke-miterlimit="4" d="M -0.00156132 -0.000659994 C 0.495413 -0.259459 1.06392 -0.459439 1.70396 -0.600602 C 2.340094 -0.741765 2.958942 -0.812346 3.556598 -0.812346 C 4.373005 -0.812346 4.903716 -0.549627 5.156203 -0.0281083 C 5.404441 0.489489 5.47758 1.328623 5.379526 2.489295 C 3.20521 2.37166 1.482894 2.689276 0.209353 3.449987 C -1.064187 4.210698 -1.70277 5.489006 -1.706053 7.288832 C -1.704157 8.610273 -1.366127 9.665073 -0.688056 10.453232 C -0.00964364 11.245312 0.9155 11.641352 2.091281 11.641352 C 2.966281 11.641352 3.695628 11.449214 4.271852 11.068859 C 4.851981 10.688503 5.298566 10.210118 5.619078 9.629782 L 5.736266 9.629782 L 6.306029 11.460978 L 9.204466 11.460978 C 8.98533 10.739479 8.852279 9.974847 8.801064 9.16316 C 8.75019 8.355395 8.735645 7.516261 8.757428 6.645757 C 8.775305 5.775252 8.811004 4.885142 8.860619 3.975426 C 8.910235 3.06571 8.935046 2.14031 8.935052 1.199224 C 8.934525 -0.420227 8.602844 -1.671087 7.936444 -2.549433 C 7.265795 -3.431701 6.086892 -3.870874 4.39158 -3.870874 C 3.258767 -3.870874 2.240993 -3.761081 1.34607 -3.541494 C 0.44724 -3.321908 -0.300906 -3.03174 -0.894464 -2.67099 Z M 2.345162 8.100518 C 2.098387 7.77898 1.971437 7.308438 1.972125 6.68889 C 1.970712 6.269322 2.065636 5.924258 2.256897 5.653696 C 2.444253 5.383134 2.699918 5.179232 3.019646 5.038069 C 3.335809 4.900827 3.706854 4.81064 4.125311 4.771428 C 4.543427 4.728295 4.981952 4.740058 5.436298 4.798876 L 5.438478 7.288832 C 5.279003 7.610369 5.031199 7.904459 4.6915 8.175021 C 4.351801 8.445583 3.914202 8.578903 3.37514 8.578903 C 2.93764 8.578903 2.595502 8.418134 2.345162 8.100518 Z M 2.345162 8.100518 " transform="matrix(1, 0, -0.08716, 0.99619, 7596.69291, 3288.844407)"/>
<path xmlns="http://www.w3.org/2000/svg" fill="none" stroke-width="9" stroke-linecap="butt" stroke-linejoin="round" stroke="rgb(100%, 100%, 100%)" stroke-opacity="1" stroke-miterlimit="4" d="M 0.00147585 -0.0000919222 L 10.579601 -0.0000919222 L 10.581138 -3.478187 L 3.764731 -3.478187 L 3.766427 -8.881587 L 9.832834 -8.881587 L 9.83437 -12.359682 L 3.767964 -12.359682 L 3.767412 -17.519968 L 10.458818 -17.519968 L 10.460355 -20.998063 L -0.000582308 -20.998063 Z M 0.00147585 -0.0000919222 " transform="matrix(1, 0, -0.08716, 0.99619, 7613.299297, 3300.23056)"/>
<path xmlns="http://www.w3.org/2000/svg" fill="none" stroke-width="9" stroke-linecap="butt" stroke-linejoin="round" stroke="rgb(100%, 100%, 100%)" stroke-opacity="1" stroke-miterlimit="4" d="M 0.000380192 0.00193706 L -4.151964 0.00193706 L 0.507613 21.148913 L 3.284957 21.148913 L 6.215942 9.60101 L 6.572702 6.299368 L 6.725046 6.299368 L 7.111645 9.56964 L 10.042769 21.148913 L 12.699019 21.148913 L 17.394911 0.00193706 L 13.566786 0.00193706 L 11.716613 11.491023 L 11.387144 15.329868 L 11.26605 15.329868 L 10.936583 11.549841 L 8.21913 0.00193706 L 5.586318 0.00193706 L 2.779113 11.491023 L 2.449644 15.329868 L 2.332456 15.329868 L 2.030333 11.549841 Z M 0.000380192 0.00193706 " transform="matrix(1, 0, -0.08716, 0.99619, 7630.730257, 3279.31057)"/>
<path xmlns="http://www.w3.org/2000/svg" fill="none" stroke-width="9" stroke-linecap="butt" stroke-linejoin="round" stroke="rgb(100%, 100%, 100%)" stroke-opacity="1" stroke-miterlimit="4" d="M -0.000480404 -0.0000919222 L 3.765145 -0.0000919222 L 3.76735 -8.579655 L 9.9236 -8.579655 L 9.920889 -12.061672 L 3.764639 -12.061672 L 3.765456 -17.519968 L 10.460768 -17.519968 L 10.458399 -20.998063 L 0.00136769 -20.998063 Z M -0.000480404 -0.0000919222 " transform="matrix(1, 0, -0.08716, 0.99619, 7653.016097, 3300.23056)"/>
<path xmlns="http://www.w3.org/2000/svg" fill="none" stroke-width="9" stroke-linecap="butt" stroke-linejoin="round" stroke="rgb(100%, 100%, 100%)" stroke-opacity="1" stroke-miterlimit="4" d="M 0.000376181 -0.000659994 C 0.497351 -0.259459 1.065858 -0.459439 1.701991 -0.600602 C 2.342031 -0.741765 2.956973 -0.812346 3.55463 -0.812346 C 4.371036 -0.812346 4.905653 -0.549627 5.154234 -0.0281083 C 5.402473 0.489489 5.479518 1.328623 5.377557 2.489295 C 3.207148 2.37166 1.484831 2.689276 0.207385 3.449987 C -1.066156 4.210698 -1.704738 5.489006 -1.704115 7.288832 C -1.70222 8.610273 -1.36419 9.665073 -0.686119 10.453232 C -0.0116124 11.245312 0.917438 11.641352 2.093219 11.641352 C 2.968219 11.641352 3.69366 11.449214 4.273789 11.068859 C 4.850012 10.688503 5.300504 10.210118 5.617109 9.629782 L 5.738203 9.629782 L 6.307966 11.460978 L 9.202498 11.460978 C 8.983362 10.739479 8.85031 9.974847 8.799095 9.16316 C 8.752127 8.355395 8.737582 7.516261 8.755459 6.645757 C 8.773336 5.775252 8.812941 4.885142 8.858651 3.975426 C 8.908266 3.06571 8.936983 2.14031 8.936989 1.199224 C 8.936463 -0.420227 8.600876 -1.671087 7.934475 -2.549433 C 7.267733 -3.431701 6.084923 -3.870874 4.393517 -3.870874 C 3.256798 -3.870874 2.239024 -3.761081 1.344101 -3.541494 C 0.449177 -3.321908 -0.298969 -3.03174 -0.896432 -2.67099 Z M 2.3471 8.100518 C 2.096418 7.77898 1.973375 7.308438 1.970156 6.68889 C 1.972649 6.269322 2.067573 5.924258 2.254929 5.653696 C 2.44619 5.383134 2.697949 5.179232 3.017677 5.038069 C 3.337746 4.900827 3.704885 4.81064 4.123343 4.771428 C 4.541458 4.728295 4.979983 4.740058 5.438235 4.798876 L 5.43651 7.288832 C 5.280941 7.610369 5.02923 7.904459 4.689531 8.175021 C 4.353738 8.445583 3.91614 8.578903 3.377077 8.578903 C 2.939577 8.578903 2.593533 8.418134 2.3471 8.100518 Z M 2.3471 8.100518 " transform="matrix(1, 0, -0.08716, 0.99619, 7667.40191, 3288.844407)"/>
<path xmlns="http://www.w3.org/2000/svg" fill="none" stroke-width="9" stroke-linecap="butt" stroke-linejoin="round" stroke="rgb(100%, 100%, 100%)" stroke-opacity="1" stroke-miterlimit="4" d="M -0.000749307 0.00118269 C -0.299042 0.209006 -0.676533 0.314878 -1.13747 0.314878 C -1.73122 0.314878 -2.305487 0.224691 -2.852459 0.0443158 C -3.403336 -0.136059 -3.886294 -0.343882 -4.305579 -0.583075 L -5.289095 2.295079 C -4.811851 2.616616 -4.179919 2.875415 -3.392957 3.075395 C -2.605996 3.275376 -1.804483 3.373406 -0.988076 3.373406 C 0.668174 3.373406 1.912854 2.953839 2.749871 2.114704 C 3.586889 1.275569 4.005793 0.165873 4.006583 -1.214386 C 4.005465 -2.033915 3.871095 -2.724044 3.603472 -3.284774 C 3.331942 -3.845504 2.989807 -4.319968 2.569253 -4.708166 C 2.152263 -5.100285 1.709834 -5.425744 1.241964 -5.684542 C 0.770189 -5.943341 0.330346 -6.194297 -0.0889391 -6.43349 C -0.508566 -6.676603 -0.853975 -6.919717 -1.121942 -7.170673 C -1.389909 -7.421629 -1.52272 -7.735325 -1.524621 -8.11568 C -1.525739 -8.935209 -1.034281 -9.346934 -0.0616249 -9.346934 C 0.457906 -9.346934 0.984273 -9.26851 1.524604 -9.119505 C 2.061029 -8.970499 2.520012 -8.813652 2.897306 -8.652883 L 3.734824 -11.413401 C 3.276623 -11.695726 2.658461 -11.930998 1.884243 -12.119215 C 1.105778 -12.311353 0.277263 -12.405462 -0.597737 -12.405462 C -2.070394 -12.405462 -3.189586 -12.025106 -3.943595 -11.264395 C -4.70151 -10.503685 -5.080179 -9.425357 -5.079261 -8.025493 C -5.081707 -7.202043 -4.944456 -6.523677 -4.678542 -5.982553 C -4.409063 -5.44535 -4.064046 -4.982649 -3.644176 -4.602294 C -3.228553 -4.22586 -2.782559 -3.904322 -2.31469 -3.645524 C -1.846821 -3.386725 -1.402731 -3.131848 -0.986326 -2.880892 C -0.566015 -2.629936 -0.22212 -2.359374 0.0453582 -2.069205 C 0.312837 -1.779037 0.449065 -1.42613 0.446572 -1.006563 C 0.447838 -0.543863 0.297201 -0.210562 -0.000749307 0.00118269 Z M -0.000749307 0.00118269 " transform="matrix(1, 0, -0.08716, 0.99619, 7682.653196, 3297.256634)"/>
<path xmlns="http://www.w3.org/2000/svg" fill="none" stroke-width="9" stroke-linecap="butt" stroke-linejoin="round" stroke="rgb(100%, 100%, 100%)" stroke-opacity="1" stroke-miterlimit="4" d="M 0.000292663 -0.000144097 C -0.281349 0.219443 -0.688675 0.431187 -1.222026 0.631167 C -1.755377 0.831148 -2.344489 0.929178 -2.98902 0.929178 C -4.055426 0.929178 -4.830229 0.599798 -5.313769 -0.0628831 C -5.796968 -0.721643 -6.055458 -1.670571 -6.097051 -2.909667 L 1.223261 -2.909667 C 1.321117 -3.490003 1.398952 -4.031127 1.449297 -4.529118 C 1.499301 -5.031031 1.524694 -5.501573 1.525479 -5.940747 C 1.523679 -7.081813 1.378813 -8.026819 1.090878 -8.775767 C 0.802944 -9.524714 0.422528 -10.124656 -0.0425572 -10.575593 C -0.511548 -11.02653 -1.047044 -11.344146 -1.645822 -11.536284 C -2.240352 -11.724501 -2.85793 -11.81861 -3.494649 -11.81861 C -5.38918 -11.81861 -6.868286 -11.175535 -7.935531 -9.885463 C -8.998869 -8.595392 -9.531939 -6.599506 -9.535082 -3.901728 C -9.532209 -2.658711 -9.420547 -1.556856 -9.18735 -0.584401 C -8.962308 0.384132 -8.605038 1.211504 -8.127943 1.889869 C -7.650847 2.568235 -7.038986 3.089753 -6.292699 3.450503 C -5.542506 3.811252 -4.652126 3.987706 -3.61697 3.987706 C -2.67947 3.987706 -1.781276 3.850464 -0.926977 3.568139 C -0.0684303 3.289734 0.607158 2.928985 1.107942 2.489811 Z M -2.15864 -7.873893 C -1.853468 -7.285715 -1.731061 -6.419132 -1.791762 -5.278065 L -5.975356 -5.278065 C -5.915144 -6.37992 -5.692775 -7.234739 -5.308591 -7.846445 C -4.924065 -8.454229 -4.349161 -8.760082 -3.583536 -8.760082 C -2.935099 -8.760082 -2.460247 -8.465993 -2.15864 -7.873893 Z M -2.15864 -7.873893 " transform="matrix(1, 0, -0.08716, 0.99619, 7697.589539, 3296.644675)"/>
<path xmlns="http://www.w3.org/2000/svg" fill="none" stroke-width="9" stroke-linecap="butt" stroke-linejoin="round" stroke="rgb(100%, 100%, 100%)" stroke-opacity="1" stroke-miterlimit="4" d="M -0.000486654 -0.0000919222 L 10.15967 -0.0000919222 L 10.159837 -3.180177 L 6.812181 -3.180177 L 6.813669 -21.358812 L 4.723825 -21.358812 L -1.046427 -15.720142 L 0.597651 -13.708571 L 2.569487 -15.241756 L 3.794255 -17.010213 L 3.40557 -14.971194 L 3.405931 -3.180177 L -0.000319102 -3.180177 Z M -0.000486654 -0.0000919222 " transform="matrix(1, 0, -0.08716, 0.99619, 7708.512197, 3300.23056)"/>
<path xmlns="http://www.w3.org/2000/svg" fill="none" stroke-width="9" stroke-linecap="butt" stroke-linejoin="round" stroke="rgb(100%, 100%, 100%)" stroke-opacity="1" stroke-miterlimit="4" d="M 8169.811109 3531.022414 L 8176.029859 3531.022414 L 8176.02749 3527.544319 L 8169.812646 3527.544319 Z M 8169.811109 3531.022414 " transform="matrix(1, 0, -0.08716, 0.99619, -139.902664, -224.21375)"/>
<path xmlns="http://www.w3.org/2000/svg" fill="none" stroke-width="9" stroke-linecap="butt" stroke-linejoin="round" stroke="rgb(100%, 100%, 100%)" stroke-opacity="1" stroke-miterlimit="4" d="M -0.000480404 -0.0000919222 L 10.159676 -0.0000919222 L 10.159843 -3.180177 L 6.812187 -3.180177 L 6.813675 -21.358812 L 4.723831 -21.358812 L -1.046421 -15.720142 L 0.597657 -13.708571 L 2.569494 -15.241756 L 3.794261 -17.010213 L 3.405576 -14.971194 L 3.405937 -3.180177 L -0.000312852 -3.180177 Z M -0.000480404 -0.0000919222 " transform="matrix(1, 0, -0.08716, 0.99619, 7731.703597, 3300.23056)"/>
<path xmlns="http://www.w3.org/2000/svg" fill="none" stroke-width="9" stroke-linecap="butt" stroke-linejoin="round" stroke="rgb(100%, 100%, 100%)" stroke-opacity="1" stroke-miterlimit="4" d="M 0.000110545 -0.000400032 C -0.456623 -0.714057 -0.850563 -1.513979 -1.181368 -2.396247 C -1.512514 -3.282436 -1.779647 -4.196073 -1.983107 -5.14108 C -2.186226 -6.082165 -2.338564 -7.023251 -2.439778 -7.960415 C -2.540651 -8.893658 -2.59377 -9.772005 -2.594546 -10.587612 C -2.591952 -11.454195 -2.545901 -12.35999 -2.452487 -13.304997 C -2.358731 -14.246082 -2.206381 -15.187168 -1.995095 -16.124332 C -1.783468 -17.057575 -1.515444 -17.971213 -1.19493 -18.865244 C -0.874417 -19.759275 -0.483054 -20.602331 -0.0254313 -21.402254 L -2.059164 -22.551162 C -2.721914 -21.684579 -3.273043 -20.747415 -3.724954 -19.747512 C -4.172617 -18.743687 -4.536198 -17.716335 -4.816381 -16.673299 C -5.096221 -15.626341 -5.298279 -14.583305 -5.426802 -13.548111 C -5.554982 -12.508995 -5.617294 -11.520855 -5.617983 -10.587612 C -5.616964 -9.634763 -5.55325 -8.63486 -5.427183 -7.591823 C -5.300774 -6.544866 -5.096923 -5.50575 -4.815973 -4.478399 C -4.538587 -3.447126 -4.177656 -2.443301 -3.737087 -1.466925 C -3.296517 -0.490549 -2.753408 0.407404 -2.107759 1.226932 Z M 0.000110545 -0.000400032 " transform="matrix(1, 0, -0.08716, 0.99619, 7541.382667, 3332.840242)"/>
<path xmlns="http://www.w3.org/2000/svg" fill="none" stroke-width="9" stroke-linecap="butt" stroke-linejoin="round" stroke="rgb(100%, 100%, 100%)" stroke-opacity="1" stroke-miterlimit="4" d="M -0.000524839 -0.000511343 L 3.2026 -0.000511343 L 3.200696 -7.372348 L 4.573496 -7.039047 L 7.675256 -0.000511343 L 11.35885 -0.000511343 L 8.083456 -6.835145 L 7.066713 -7.654674 C 7.998259 -7.991896 8.728731 -8.619286 9.262722 -9.529002 C 9.796712 -10.438718 10.065275 -11.615075 10.064161 -13.061994 C 10.062605 -14.065819 9.900648 -14.89319 9.565887 -15.55195 C 9.239622 -16.202867 8.807447 -16.724386 8.270389 -17.104741 C 7.740802 -17.489018 7.124153 -17.751737 6.43182 -17.896821 C 5.735581 -18.041905 5.022398 -18.112487 4.295835 -18.112487 C 3.71771 -18.112487 3.033286 -18.077196 2.234409 -18.010536 C 1.439438 -17.943876 0.695101 -17.834082 0.00139894 -17.681156 Z M 3.201528 -15.02651 C 3.353335 -15.077486 3.55729 -15.112777 3.813736 -15.128461 C 4.066275 -15.144146 4.326968 -15.15591 4.600406 -15.15591 C 5.326968 -15.15591 5.863783 -14.912796 6.199131 -14.426568 C 6.538386 -13.940341 6.709915 -13.316872 6.710154 -12.55224 C 6.709171 -11.53273 6.505259 -10.779862 6.09842 -10.293634 C 5.691239 -9.811328 5.091335 -9.568214 4.29446 -9.568214 L 3.20071 -9.568214 Z M 3.201528 -15.02651 " transform="matrix(1, 0, -0.08716, 0.99619, 7543.137199, 3328.469259)"/>
<path xmlns="http://www.w3.org/2000/svg" fill="none" stroke-width="9" stroke-linecap="butt" stroke-linejoin="round" stroke="rgb(100%, 100%, 100%)" stroke-opacity="1" stroke-miterlimit="4" d="M 0.000164591 -0.00146052 C -0.237337 0.186757 -0.584896 0.367131 -1.03895 0.535742 C -1.493004 0.704354 -1.993298 0.79062 -2.540173 0.79062 C -3.446423 0.79062 -4.107407 0.512215 -4.515997 -0.052436 C -4.928152 -0.613166 -5.1509 -1.420931 -5.184243 -2.475731 L 1.038413 -2.475731 C 1.124257 -2.969801 1.189738 -3.42858 1.230952 -3.852069 C 1.276072 -4.275557 1.295899 -4.675519 1.298245 -5.051953 C 1.295859 -6.020487 1.175014 -6.824331 0.9279 -7.463485 C 0.685033 -8.098717 0.359352 -8.608472 -0.0374223 -8.992749 C -0.437762 -9.373104 -0.887467 -9.647587 -1.397573 -9.808356 C -1.903773 -9.969125 -2.430482 -10.05147 -2.97345 -10.05147 C -4.582825 -10.05147 -5.839665 -9.502503 -6.747875 -8.40457 C -7.652521 -7.310558 -8.106097 -5.612683 -8.105038 -3.314866 C -8.106852 -2.260066 -8.009543 -1.322901 -7.81243 -0.49553 C -7.619564 0.327919 -7.320106 1.029812 -6.910491 1.606227 C -6.50444 2.186563 -5.985351 2.629658 -5.349318 2.935511 C -4.713285 3.241363 -3.957768 3.39429 -3.074956 3.39429 C -2.278081 3.39429 -1.515238 3.272733 -0.785744 3.037462 C -0.0604985 2.798269 0.518312 2.492416 0.938627 2.115982 Z M -1.833238 -6.694931 C -1.578896 -6.19694 -1.47558 -5.459757 -1.523976 -4.491223 L -5.082569 -4.491223 C -5.031098 -5.424466 -4.840761 -6.153807 -4.514781 -6.671404 C -4.188801 -7.189001 -3.69964 -7.4478 -3.047296 -7.4478 C -2.496515 -7.4478 -2.091829 -7.196844 -1.833238 -6.694931 Z M -1.833238 -6.694931 " transform="matrix(1, 0, -0.08716, 0.99619, 7562.769239, 3325.419424)"/>
<path xmlns="http://www.w3.org/2000/svg" fill="none" stroke-width="9" stroke-linecap="butt" stroke-linejoin="round" stroke="rgb(100%, 100%, 100%)" stroke-opacity="1" stroke-miterlimit="4" d="M 0.00145016 -0.000511343 L -0.000544352 -8.493808 C 0.00170751 -9.364312 -0.0654264 -10.089733 -0.202629 -10.677911 C -0.339491 -11.262168 -0.54066 -11.732711 -0.813265 -12.081697 C -1.08587 -12.430683 -1.420243 -12.681639 -1.816043 -12.830644 C -2.216091 -12.983571 -2.668239 -13.061994 -3.176051 -13.061994 C -4.023707 -13.061994 -4.711795 -12.889462 -5.236064 -12.540476 C -5.760334 -12.19149 -6.17689 -11.771923 -6.481483 -11.277853 L -6.555702 -11.277853 L -6.911112 -12.756142 L -9.325174 -12.756142 L -9.326675 -0.000511343 L -6.303237 -0.000511343 L -6.301519 -8.854558 C -6.165188 -9.262361 -5.936767 -9.599584 -5.616941 -9.874067 C -5.296774 -10.144629 -4.914204 -10.281871 -4.472798 -10.281871 C -3.949361 -10.281871 -3.573581 -10.093654 -3.353612 -9.721141 C -3.133302 -9.344706 -3.025445 -8.689868 -3.022229 -7.756625 L -3.025894 -0.000511343 Z M 0.00145016 -0.000511343 " transform="matrix(1, 0, -0.08716, 0.99619, 7575.057099, 3328.469259)"/>
<path xmlns="http://www.w3.org/2000/svg" fill="none" stroke-width="9" stroke-linecap="butt" stroke-linejoin="round" stroke="rgb(100%, 100%, 100%)" stroke-opacity="1" stroke-miterlimit="4" d="M 0.00155699 0.000587804 C -0.253278 0.169199 -0.530037 0.310362 -0.825155 0.420155 C -1.123837 0.53387 -1.482334 0.588766 -1.904209 0.588766 C -2.701084 0.588766 -3.283991 0.220174 -3.648342 -0.509167 C -4.013034 -1.242429 -4.192716 -2.183515 -4.191976 -3.340266 C -4.191185 -4.720525 -4.016618 -5.720428 -3.660462 -6.339976 C -3.304305 -6.959524 -2.772711 -7.269298 -2.057868 -7.269298 C -1.667243 -7.269298 -1.3357 -7.230086 -1.055769 -7.155583 C -0.775496 -7.07716 -0.484334 -6.963445 -0.178037 -6.810519 L 0.53155 -9.335765 C 0.15831 -9.539667 -0.266885 -9.712199 -0.751503 -9.849441 C -1.231873 -9.982761 -1.855212 -10.053343 -2.616931 -10.053343 C -4.1599 -10.053343 -5.329435 -9.488691 -6.12622 -8.367231 C -6.923004 -7.245771 -7.319695 -5.567502 -7.316976 -3.340266 C -7.317959 -2.320757 -7.237643 -1.399277 -7.079933 -0.575827 C -6.917976 0.251544 -6.649426 0.957358 -6.277848 1.545537 C -5.906611 2.129794 -5.425902 2.580731 -4.843872 2.894426 C -4.257937 3.208121 -3.532987 3.36889 -2.669706 3.36889 C -2.075956 3.36889 -1.481912 3.282624 -0.891481 3.110091 C -0.296802 2.94148 0.212233 2.686603 0.635965 2.34938 Z M 0.00155699 0.000587804 " transform="matrix(1, 0, -0.08716, 0.99619, 7584.268025, 3325.444727)"/>
<path xmlns="http://www.w3.org/2000/svg" fill="none" stroke-width="9" stroke-linecap="butt" stroke-linejoin="round" stroke="rgb(100%, 100%, 100%)" stroke-opacity="1" stroke-miterlimit="4" d="M -0.000118643 -0.00144069 C 0.422148 -0.221027 0.907111 -0.39356 1.447639 -0.511195 C 1.988167 -0.628831 2.51429 -0.687649 3.026009 -0.687649 C 3.717415 -0.687649 4.170148 -0.468062 4.384549 -0.0249678 C 4.595045 0.418127 4.657247 1.131783 4.575063 2.116002 C 2.726333 2.014051 1.261976 2.288534 0.177743 2.93553 C -0.906832 3.578606 -1.448538 4.668696 -1.44806 6.19796 C -1.44797 7.319421 -1.162673 8.217373 -0.584357 8.891818 C -0.0102894 9.562341 0.780822 9.899563 1.780822 9.899563 C 2.523009 9.899563 3.141467 9.734873 3.632973 9.413336 C 4.124479 9.091798 4.506904 8.683995 4.776341 8.189925 L 4.88181 8.189925 L 5.361243 9.746637 L 7.826086 9.746637 C 7.639958 9.134931 7.524288 8.480093 7.484009 7.793884 C 7.443389 7.103755 7.428062 6.390099 7.445498 5.648994 C 7.463277 4.91181 7.494971 4.15502 7.536675 3.378625 C 7.578722 2.60615 7.600211 1.821913 7.600802 1.02199 C 7.597686 -0.358269 7.31366 -1.420911 6.748382 -2.169859 C 6.179198 -2.918806 5.174073 -3.291319 3.736573 -3.291319 C 2.771729 -3.291319 1.904932 -3.19721 1.143651 -3.012914 C 0.382713 -2.824697 -0.255912 -2.577662 -0.76441 -2.27181 Z M 1.994904 6.88809 C 1.783822 6.617528 1.678649 6.217566 1.675478 5.688206 C 1.675627 5.331377 1.759369 5.037288 1.919234 4.809859 C 2.078757 4.578509 2.294188 4.405977 2.564843 4.28442 C 2.839746 4.166784 3.149659 4.092281 3.505958 4.056991 C 3.862257 4.0217 4.234034 4.029542 4.625196 4.080518 L 4.626159 6.19796 C 4.489926 6.472444 4.277425 6.7234 3.988654 6.950829 C 3.700224 7.182179 3.327323 7.295893 2.870292 7.295893 C 2.499198 7.295893 2.205986 7.158652 1.994904 6.88809 Z M 1.994904 6.88809 " transform="matrix(1, 0, -0.08716, 0.99619, 7587.671868, 3318.786591)"/>
<path xmlns="http://www.w3.org/2000/svg" fill="none" stroke-width="9" stroke-linecap="butt" stroke-linejoin="round" stroke="rgb(100%, 100%, 100%)" stroke-opacity="1" stroke-miterlimit="4" d="M -0.000468589 -0.000511343 L 0.00144315 -8.493808 C -0.000211241 -9.364312 -0.0673451 -10.089733 -0.204548 -10.677911 C -0.337503 -11.262168 -0.542578 -11.732711 -0.811277 -12.081697 C -1.083882 -12.430683 -1.418256 -12.681639 -1.817962 -12.830644 C -2.214103 -12.983571 -2.670157 -13.061994 -3.17797 -13.061994 C -4.025626 -13.061994 -4.709807 -12.889462 -5.234077 -12.540476 C -5.762253 -12.19149 -6.174902 -11.771923 -6.479495 -11.277853 L -6.55762 -11.277853 L -6.913031 -12.756142 L -9.327093 -12.756142 L -9.328594 -0.000511343 L -6.30125 -0.000511343 L -6.303437 -8.854558 C -6.167106 -9.262361 -5.938686 -9.599584 -5.614954 -9.874067 C -5.294786 -10.144629 -4.912217 -10.281871 -4.474717 -10.281871 C -3.947373 -10.281871 -3.575499 -10.093654 -3.355531 -9.721141 C -3.135221 -9.344706 -3.023458 -8.689868 -3.024148 -7.756625 L -3.023906 -0.000511343 Z M -0.000468589 -0.000511343 " transform="matrix(1, 0, -0.08716, 0.99619, 7605.859799, 3328.469259)"/>
<path xmlns="http://www.w3.org/2000/svg" fill="none" stroke-width="9" stroke-linecap="butt" stroke-linejoin="round" stroke="rgb(100%, 100%, 100%)" stroke-opacity="1" stroke-miterlimit="4" d="M -0.0000686426 -0.00144069 C 0.422198 -0.221027 0.907161 -0.39356 1.447689 -0.511195 C 1.988217 -0.628831 2.51434 -0.687649 3.026059 -0.687649 C 3.717465 -0.687649 4.170198 -0.468062 4.384599 -0.0249678 C 4.595095 0.418127 4.657297 1.131783 4.575113 2.116002 C 2.726383 2.014051 1.262026 2.288534 0.177793 2.93553 C -0.906782 3.578606 -1.448488 4.668696 -1.44801 6.19796 C -1.44792 7.319421 -1.162623 8.217373 -0.584307 8.891818 C -0.0102394 9.562341 0.780872 9.899563 1.780872 9.899563 C 2.523059 9.899563 3.141517 9.734873 3.633023 9.413336 C 4.124529 9.091798 4.506954 8.683995 4.776391 8.189925 L 4.88186 8.189925 L 5.361293 9.746637 L 7.826136 9.746637 C 7.640008 9.134931 7.524338 8.480093 7.484059 7.793884 C 7.443439 7.103755 7.428112 6.390099 7.445548 5.648994 C 7.463327 4.91181 7.495021 4.15502 7.536725 3.378625 C 7.578772 2.60615 7.600261 1.821913 7.600852 1.02199 C 7.597736 -0.358269 7.31371 -1.420911 6.748432 -2.169859 C 6.179248 -2.918806 5.174123 -3.291319 3.736623 -3.291319 C 2.771779 -3.291319 1.904982 -3.19721 1.143701 -3.012914 C 0.382763 -2.824697 -0.255862 -2.577662 -0.76436 -2.27181 Z M 1.994954 6.88809 C 1.783872 6.617528 1.678699 6.217566 1.675528 5.688206 C 1.675677 5.331377 1.759419 5.037288 1.919284 4.809859 C 2.078807 4.578509 2.294238 4.405977 2.564893 4.28442 C 2.839796 4.166784 3.149709 4.092281 3.506008 4.056991 C 3.862307 4.0217 4.234084 4.029542 4.625246 4.080518 L 4.626209 6.19796 C 4.489976 6.472444 4.277475 6.7234 3.988704 6.950829 C 3.700274 7.182179 3.327373 7.295893 2.870342 7.295893 C 2.499248 7.295893 2.206036 7.158652 1.994954 6.88809 Z M 1.994954 6.88809 " transform="matrix(1, 0, -0.08716, 0.99619, 7609.578068, 3318.786591)"/>
<path xmlns="http://www.w3.org/2000/svg" fill="none" stroke-width="9" stroke-linecap="butt" stroke-linejoin="round" stroke="rgb(100%, 100%, 100%)" stroke-opacity="1" stroke-miterlimit="4" d="M 0.00138084 -0.00161049 L 1.473985 0.535593 L 8.897953 -20.638832 L 7.47408 -21.199562 Z M 0.00138084 -0.00161049 " transform="matrix(1, 0, -0.08716, 0.99619, 7616.369573, 3331.493792)"/>
<path xmlns="http://www.w3.org/2000/svg" fill="none" stroke-width="9" stroke-linecap="butt" stroke-linejoin="round" stroke="rgb(100%, 100%, 100%)" stroke-opacity="1" stroke-miterlimit="4" d="M 0.000462661 -0.000511343 L 2.109838 -0.000511343 L 2.108418 -6.78417 C 2.195722 -6.768485 2.337714 -6.7528 2.542548 -6.733194 C 2.743134 -6.717509 2.951191 -6.705746 3.162812 -6.697903 C 3.374775 -6.68614 3.5779 -6.68614 3.773212 -6.68614 L 4.191181 -6.68614 C 5.073993 -6.68614 5.92873 -6.78417 6.762521 -6.988071 C 7.588157 -7.195895 8.328638 -7.529196 8.971219 -7.999738 C 9.614142 -8.46636 10.13148 -9.074144 10.519327 -9.823092 C 10.911421 -10.568118 11.104543 -11.489597 11.107528 -12.575767 C 11.104899 -13.681542 10.896702 -14.591258 10.482595 -15.308836 C 10.068831 -16.022493 9.531676 -16.583223 8.871132 -16.991026 C 8.210588 -17.39883 7.475043 -17.681156 6.672651 -17.834082 C 5.866695 -17.983087 5.074703 -18.061511 4.293453 -18.061511 C 3.566891 -18.061511 2.83066 -18.037984 2.085445 -17.983087 C 1.339546 -17.936033 0.645307 -17.834082 -0.00151981 -17.681156 Z M 5.97303 -16.04602 C 6.514533 -15.928384 7.000713 -15.728403 7.435477 -15.446078 C 7.865993 -15.167673 8.211303 -14.791239 8.47463 -14.324617 C 8.738299 -13.854075 8.870912 -13.273739 8.869247 -12.575767 C 8.870023 -11.760159 8.729247 -11.089636 8.451167 -10.560275 C 8.172746 -10.034836 7.80204 -9.627032 7.346862 -9.336864 C 6.887778 -9.046696 6.373617 -8.850637 5.80931 -8.736922 C 5.240754 -8.627129 4.667414 -8.572232 4.093195 -8.572232 L 3.686945 -8.572232 C 3.499445 -8.572232 3.303791 -8.576153 3.099982 -8.583996 C 2.896174 -8.591838 2.703742 -8.603602 2.515559 -8.611444 C 2.327375 -8.619286 2.192854 -8.638892 2.107747 -8.674183 L 2.107356 -16.073468 C 2.34764 -16.140128 2.668099 -16.183261 3.076888 -16.198946 C 3.481429 -16.218552 3.906527 -16.226394 4.344027 -16.226394 C 4.886996 -16.226394 5.431185 -16.167577 5.97303 -16.04602 Z M 5.97303 -16.04602 " transform="matrix(1, 0, -0.08716, 0.99619, 7627.003399, 3328.469259)"/>
<path xmlns="http://www.w3.org/2000/svg" fill="none" stroke-width="9" stroke-linecap="butt" stroke-linejoin="round" stroke="rgb(100%, 100%, 100%)" stroke-opacity="1" stroke-miterlimit="4" d="M -0.0012495 0.000790613 L -2.0325 0.000790613 L -2.034163 15.309115 C -2.03378 16.344309 -1.785933 17.081493 -1.295213 17.512824 C -0.804152 17.948076 -0.179885 18.163741 0.58574 18.163741 C 0.941208 18.163741 1.359324 18.120608 1.844334 18.038263 C 2.325096 17.951997 2.702246 17.842204 2.97544 17.704962 L 2.74547 16.097274 C 2.424034 16.218831 2.133652 16.293334 1.882822 16.328625 C 1.628085 16.363915 1.387265 16.3796 1.168515 16.3796 C 0.797421 16.3796 0.508799 16.250201 0.30299 15.995324 C 0.101088 15.740446 0.00167637 15.316958 0.000508444 14.720937 Z M -0.0012495 0.000790613 " transform="matrix(1, 0, -0.08716, 0.99619, 7644.825537, 3310.6789)"/>
<path xmlns="http://www.w3.org/2000/svg" fill="none" stroke-width="9" stroke-linecap="butt" stroke-linejoin="round" stroke="rgb(100%, 100%, 100%)" stroke-opacity="1" stroke-miterlimit="4" d="M 0.000331765 0.00147751 C 0.238028 -0.139685 0.512248 -0.265163 0.826555 -0.378878 C 1.140862 -0.492592 1.468256 -0.590622 1.816889 -0.669046 C 2.165522 -0.74747 2.503804 -0.810209 2.832076 -0.853342 C 3.164254 -0.896475 3.475045 -0.916081 3.764107 -0.916081 C 4.744576 -0.916081 5.420796 -0.731785 5.793449 -0.355351 C 6.165761 0.0171623 6.35565 0.672001 6.35496 1.605244 C 6.35569 2.016969 6.32927 2.475748 6.276044 2.985503 C 6.038593 2.950212 5.806758 2.934527 5.580195 2.934527 L 4.880976 2.934527 C 3.947383 2.934527 3.097382 2.997266 2.327411 3.126666 C 1.553191 3.252144 0.892301 3.467809 0.343715 3.761898 C -0.208435 4.059909 -0.634512 4.45987 -0.938422 4.961783 C -1.246238 5.463695 -1.398927 6.087164 -1.396149 6.836111 C -1.398057 7.396841 -1.299623 7.898754 -1.104753 8.341848 C -0.909883 8.784943 -0.642698 9.161377 -0.30642 9.478993 C 0.0334212 9.792688 0.437423 10.035802 0.901338 10.204413 C 1.369501 10.376946 1.872772 10.459291 2.415741 10.459291 C 2.95871 10.459291 3.437958 10.400473 3.861299 10.282837 C 4.288204 10.16128 4.658029 10.012275 4.982493 9.835821 C 5.302709 9.655447 5.577906 9.451545 5.808083 9.224116 C 6.037919 8.992766 6.228692 8.761415 6.379719 8.522223 L 6.508625 8.522223 L 7.039131 10.306364 L 8.539131 10.306364 C 8.404026 9.8319 8.311696 9.310382 8.258916 8.749652 C 8.210043 8.188922 8.185779 7.596822 8.185442 6.96551 C 8.184129 6.098928 8.209282 5.177448 8.261583 4.208914 C 8.309978 3.24038 8.33645 2.244398 8.337433 1.224889 C 8.336508 0.76611 8.288709 0.30733 8.19794 -0.151449 C 8.103266 -0.610228 7.917917 -1.033717 7.638671 -1.414072 C 7.355178 -1.798349 6.949272 -2.108123 6.416705 -2.347315 C 5.884138 -2.586508 5.174666 -2.704143 4.29576 -2.704143 C 3.362166 -2.704143 2.471931 -2.610035 1.612994 -2.425739 C 0.758306 -2.237522 0.0101591 -1.947354 -0.635351 -1.555235 Z M 1.347055 8.102655 C 0.922937 7.718379 0.712247 7.22823 0.711079 6.632209 C 0.71323 6.208721 0.827002 5.855814 1.056301 5.573488 C 1.285941 5.295084 1.590679 5.071576 1.971198 4.910807 C 2.351716 4.750038 2.791365 4.640245 3.289803 4.577506 C 3.792831 4.522609 4.305722 4.49124 4.829159 4.49124 C 5.067441 4.49124 5.30997 4.495161 5.552841 4.503003 C 5.799618 4.510846 6.038925 4.522609 6.278915 4.542215 L 6.275971 6.659658 C 6.193548 6.879244 6.061369 7.110594 5.882998 7.349787 C 5.704285 7.585058 5.481237 7.804645 5.208921 7.996783 C 4.940854 8.192843 4.615023 8.353612 4.243488 8.483011 C 3.871613 8.608489 3.447735 8.675149 2.975079 8.675149 C 2.314923 8.675149 1.770832 8.483011 1.347055 8.102655 Z M 1.347055 8.102655 " transform="matrix(1, 0, -0.08716, 0.99619, 7649.753703, 3318.252434)"/>
<path xmlns="http://www.w3.org/2000/svg" fill="none" stroke-width="9" stroke-linecap="butt" stroke-linejoin="round" stroke="rgb(100%, 100%, 100%)" stroke-opacity="1" stroke-miterlimit="4" d="M 0.00141891 -0.000511343 L 0.0017141 -7.705649 C -0.000378523 -8.760449 -0.0879704 -9.630953 -0.268874 -10.317162 C -0.446213 -11.007291 -0.708905 -11.556257 -1.053043 -11.964061 C -1.401087 -12.371865 -1.840099 -12.658112 -2.36583 -12.818881 C -2.891562 -12.979649 -3.500301 -13.061994 -4.191707 -13.061994 C -5.144832 -13.061994 -5.961826 -12.889462 -6.646252 -12.540476 C -7.330678 -12.19149 -7.877654 -11.744475 -8.283273 -11.199429 L -8.388741 -11.199429 L -8.770518 -12.756142 L -10.192393 -12.756142 L -10.189987 -0.000511343 L -8.158737 -0.000511343 L -8.157459 -8.725158 C -7.920247 -9.4545 -7.512284 -10.062284 -6.925757 -10.548512 C -6.339231 -11.034739 -5.602608 -11.277853 -4.700264 -11.277853 C -3.684639 -11.277853 -2.987278 -10.940631 -2.604617 -10.270107 C -2.225519 -9.595663 -2.033241 -8.59968 -2.034568 -7.270397 L -2.033737 -0.000511343 Z M 0.00141891 -0.000511343 " transform="matrix(1, 0, -0.08716, 0.99619, 7671.225099, 3328.469259)"/>
<path xmlns="http://www.w3.org/2000/svg" fill="none" stroke-width="9" stroke-linecap="butt" stroke-linejoin="round" stroke="rgb(100%, 100%, 100%)" stroke-opacity="1" stroke-miterlimit="4" d="M 0.00134863 -0.00167665 C 0.625221 0.747271 1.158955 1.582484 1.602211 2.500042 C 2.04156 3.417601 2.401271 4.362608 2.681001 5.331141 C 2.961072 6.303596 3.169806 7.264288 3.303296 8.213216 C 3.437128 9.166065 3.506555 10.052254 3.507331 10.867861 C 3.508644 11.734444 3.450532 12.636318 3.340809 13.573482 C 3.230745 14.506725 3.047486 15.451732 2.782881 16.404581 C 2.522181 17.35743 2.159235 18.302437 1.701514 19.23568 C 1.244135 20.172845 0.678211 21.074718 -0.000163929 21.941301 L 1.218043 22.831411 C 2.017512 21.964828 2.690076 21.031585 3.239302 20.027761 C 3.792434 19.023936 4.234481 18.000505 4.572916 16.953548 C 4.911351 15.90659 5.160283 14.863554 5.312243 13.82836 C 5.463862 12.789244 5.538233 11.805026 5.538581 10.867861 C 5.541468 9.915012 5.462129 8.915109 5.312625 7.872072 C 5.158872 6.825115 4.919865 5.785999 4.588134 4.758648 C 4.25606 3.727375 3.821252 2.727471 3.278778 1.747174 C 2.736646 0.770798 2.076349 -0.127155 1.294324 -0.942762 Z M 0.00134863 -0.00167665 " transform="matrix(1, 0, -0.08716, 0.99619, 7674.529755, 3311.31417)"/>
<path xmlns="http://www.w3.org/2000/svg" fill-rule="nonzero" fill="rgb(100%, 100%, 100%)" fill-opacity="1" d="M 7203.425781 3195.019531 C 7197.222656 3195.019531 7192.175781 3189.972656 7192.175781 3183.769531 C 7192.175781 3177.566406 7197.222656 3172.519531 7203.425781 3172.519531 C 7209.628906 3172.519531 7214.675781 3177.566406 7214.675781 3183.769531 C 7214.675781 3189.972656 7209.628906 3195.019531 7203.425781 3195.019531 "/>
<path xmlns="http://www.w3.org/2000/svg" fill-rule="nonzero" fill="rgb(100%, 100%, 100%)" fill-opacity="1" d="M 7383.367188 3195.019531 C 7380.363281 3195.019531 7377.535156 3193.847656 7375.414062 3191.722656 C 7373.289062 3189.597656 7372.117188 3186.773438 7372.117188 3183.769531 C 7372.117188 3180.761719 7373.289062 3177.9375 7375.414062 3175.8125 C 7377.539062 3173.6875 7380.363281 3172.519531 7383.367188 3172.519531 C 7386.371094 3172.519531 7389.199219 3173.6875 7391.324219 3175.8125 C 7395.707031 3180.199219 7395.707031 3187.335938 7391.324219 3191.722656 C 7389.199219 3193.847656 7386.371094 3195.019531 7383.367188 3195.019531 "/>
<path xmlns="http://www.w3.org/2000/svg" fill-rule="nonzero" fill="rgb(100%, 100%, 100%)" fill-opacity="1" d="M 7383.367188 3168.058594 C 7380.363281 3168.058594 7377.535156 3166.886719 7375.414062 3164.761719 C 7373.289062 3162.636719 7372.117188 3159.8125 7372.117188 3156.808594 C 7372.117188 3153.800781 7373.289062 3150.976562 7375.414062 3148.851562 C 7377.539062 3146.726562 7380.363281 3145.558594 7383.367188 3145.558594 C 7386.371094 3145.558594 7389.199219 3146.726562 7391.324219 3148.851562 C 7393.449219 3150.976562 7394.617188 3153.800781 7394.617188 3156.808594 C 7394.617188 3159.8125 7393.449219 3162.636719 7391.324219 3164.761719 C 7389.199219 3166.886719 7386.371094 3168.058594 7383.367188 3168.058594 "/>
<path xmlns="http://www.w3.org/2000/svg" fill-rule="nonzero" fill="rgb(100%, 100%, 100%)" fill-opacity="1" d="M 7429.371094 3377.332031 C 7423.167969 3377.332031 7418.121094 3372.285156 7418.121094 3366.082031 C 7418.121094 3359.878906 7423.167969 3354.832031 7429.371094 3354.832031 C 7435.574219 3354.832031 7440.621094 3359.878906 7440.621094 3366.082031 C 7440.621094 3372.285156 7435.574219 3377.332031 7429.371094 3377.332031 "/>
<path xmlns="http://www.w3.org/2000/svg" fill="none" stroke-width="9" stroke-linecap="butt" stroke-linejoin="round" stroke="rgb(100%, 100%, 100%)" stroke-opacity="1" stroke-miterlimit="4" d="M -0.0009875 -0.0017875 L 3.749013 -0.0017875 L 3.749013 13.298994 C 3.881825 13.267744 4.108388 13.232587 4.424794 13.201337 C 4.7412 13.166181 5.065419 13.142744 5.39745 13.123212 C 5.733388 13.107587 6.049794 13.099775 6.350575 13.099775 L 6.999013 13.099775 C 8.39745 13.099775 9.756825 13.306806 11.073231 13.724775 C 12.389638 14.142744 13.557606 14.806806 14.573231 15.724775 C 15.592763 16.642744 16.405263 17.83415 17.02245 19.298994 C 17.639638 20.767744 17.948231 22.548994 17.948231 24.650556 C 17.948231 26.814619 17.624013 28.599775 16.975575 29.998212 C 16.323231 31.400556 15.475575 32.498212 14.424794 33.298994 C 13.374013 34.099775 12.198231 34.650556 10.89745 34.951337 C 9.600575 35.248212 8.280263 35.400556 6.948231 35.400556 C 5.780263 35.400556 4.600575 35.349775 3.39745 35.248212 C 2.198231 35.150556 1.065419 34.951337 -0.0009875 34.650556 Z M 9.749013 31.599775 C 10.581044 31.3654 11.307606 30.966962 11.924794 30.400556 C 12.541981 29.83415 13.041981 29.08415 13.424794 28.150556 C 13.807606 27.216962 13.999013 26.048994 13.999013 24.650556 C 13.999013 23.048994 13.791981 21.724775 13.374013 20.673994 C 12.956044 19.623212 12.416981 18.791181 11.749013 18.173994 C 11.081044 17.556806 10.315419 17.134931 9.448231 16.900556 C 8.581044 16.666181 7.682606 16.548994 6.749013 16.548994 L 6.124013 16.548994 C 5.842763 16.548994 5.549794 16.556806 5.249013 16.576337 C 4.948231 16.591962 4.655263 16.607587 4.374013 16.623212 C 4.092763 16.642744 3.881825 16.681806 3.749013 16.748212 L 3.749013 31.650556 C 4.1162 31.748212 4.608388 31.826337 5.225575 31.873212 C 5.842763 31.923994 6.483388 31.951337 7.14745 31.951337 C 8.049794 31.951337 8.916981 31.83415 9.749013 31.599775 Z M 9.749013 31.599775 " transform="matrix(1, 0, 0, -1, 7135.5088, 3301.9279)"/>
<path xmlns="http://www.w3.org/2000/svg" fill="none" stroke-width="9" stroke-linecap="butt" stroke-linejoin="round" stroke="rgb(100%, 100%, 100%)" stroke-opacity="1" stroke-miterlimit="4" d="M 0.000975 -0.0017875 L 0.000975 -16.201006 C 0.000975 -18.099444 0.1416 -19.658038 0.426756 -20.876788 C 0.708006 -22.091631 1.133787 -23.048663 1.700194 -23.751788 C 2.2666 -24.451006 2.950194 -24.935381 3.750975 -25.201006 C 4.551756 -25.466631 5.481444 -25.599444 6.551756 -25.599444 C 8.149412 -25.599444 9.481444 -25.189288 10.551756 -24.376788 C 11.614256 -23.560381 12.434569 -22.599444 13.000975 -21.501788 L 13.149412 -21.501788 L 14.051756 -25.001788 L 16.598631 -25.001788 C 16.434569 -24.033038 16.309569 -22.908038 16.223631 -21.626788 C 16.1416 -20.341631 16.098631 -19.099444 16.098631 -17.900225 L 16.098631 -0.0017875 L 12.500975 -0.0017875 L 12.500975 -17.349444 C 12.301756 -17.982256 12.032225 -18.599444 11.700194 -19.201006 C 11.364256 -19.798663 10.981444 -20.333819 10.551756 -20.798663 C 10.114256 -21.267413 9.625975 -21.642413 9.075194 -21.923663 C 8.524412 -22.208819 7.899412 -22.349444 7.200194 -22.349444 C 5.833006 -22.349444 4.8916 -21.810381 4.375975 -20.724444 C 3.856444 -19.642413 3.598631 -17.833819 3.598631 -15.298663 L 3.598631 -0.0017875 Z M 0.000975 -0.0017875 " transform="matrix(1, 0, 0, -1, 7156.1084, 3276.9279)"/>
<path xmlns="http://www.w3.org/2000/svg" fill="none" stroke-width="9" stroke-linecap="butt" stroke-linejoin="round" stroke="rgb(100%, 100%, 100%)" stroke-opacity="1" stroke-miterlimit="4" d="M 0.0000125 -0.0017875 L -3.60155 -0.0017875 L -3.60155 -30.251788 C -3.60155 -32.216631 -3.210925 -33.591631 -2.425769 -34.376788 C -1.644519 -35.158038 -0.617175 -35.548663 0.64845 -35.548663 C 1.281263 -35.548663 1.9922 -35.466631 2.77345 -35.298663 C 3.558606 -35.1346 4.164075 -34.91585 4.601575 -34.650225 L 4.250013 -31.751788 C 3.316419 -32.115069 2.500013 -32.298663 1.800794 -32.298663 C 1.230481 -32.298663 0.789075 -32.048663 0.476575 -31.548663 C 0.156263 -31.048663 0.0000125 -30.216631 0.0000125 -29.048663 Z M 0.0000125 -0.0017875 " transform="matrix(1, 0, 0, -1, 7182.0078, 3266.9279)"/>
<path xmlns="http://www.w3.org/2000/svg" fill="none" stroke-width="9" stroke-linecap="butt" stroke-linejoin="round" stroke="rgb(100%, 100%, 100%)" stroke-opacity="1" stroke-miterlimit="4" d="M 0.0010125 0.00015625 C 1.450231 -2.167812 3.708044 -3.249844 6.77445 -3.249844 C 9.606481 -3.249844 11.809606 -2.199062 13.376012 -0.101406 C 14.942419 2.000156 15.727575 5.316563 15.727575 9.851719 C 15.727575 14.250156 15.001012 17.531406 13.551794 19.699375 C 12.102575 21.867344 9.840856 22.949375 6.77445 22.949375 C 3.907262 22.949375 1.700231 21.890781 0.14945 19.773594 C -1.397425 17.656406 -2.174769 14.351719 -2.174769 9.851719 C -2.174769 5.449375 -1.448206 2.164219 0.0010125 0.00015625 Z M 2.89945 17.351719 C 3.782262 18.914219 5.075231 19.699375 6.77445 19.699375 C 7.708044 19.699375 8.508825 19.457188 9.176794 18.976719 C 9.840856 18.492344 10.383825 17.816563 10.801794 16.949375 C 11.215856 16.082188 11.516637 15.039219 11.700231 13.824375 C 11.883825 12.605625 11.977575 11.281406 11.977575 9.851719 C 11.977575 6.382969 11.540075 3.875156 10.676794 2.324375 C 9.809606 0.773594 8.508825 0.00015625 6.77445 0.00015625 C 5.840856 0.00015625 5.040075 0.242344 4.376012 0.726719 C 3.708044 1.207188 3.165075 1.882969 2.751012 2.750156 C 2.333044 3.617344 2.032262 4.648594 1.852575 5.851719 C 1.665075 7.050938 1.575231 8.382969 1.575231 9.851719 C 1.575231 13.281406 2.016637 15.781406 2.89945 17.351719 Z M 2.89945 17.351719 " transform="matrix(1, 0, 0, -1, 7190.8818, 3299.2775)"/>
<path xmlns="http://www.w3.org/2000/svg" fill="none" stroke-width="9" stroke-linecap="butt" stroke-linejoin="round" stroke="rgb(100%, 100%, 100%)" stroke-opacity="1" stroke-miterlimit="4" d="M 0.00003125 -0.0017875 L 0.00003125 17.998212 C 0.300813 19.33415 0.82425 20.392744 1.57425 21.173994 C 2.32425 21.95915 3.332063 22.349775 4.601594 22.349775 C 6.101594 22.349775 7.058625 21.814619 7.476594 20.748212 C 7.890656 19.681806 8.101594 18.064619 8.101594 15.900556 L 8.101594 -0.0017875 L 11.69925 -0.0017875 L 11.69925 16.349775 C 11.69925 18.150556 11.582063 19.642744 11.351594 20.826337 C 11.117219 22.009931 10.757844 22.95915 10.273469 23.673994 C 9.789094 24.392744 9.156281 24.892744 8.375031 25.173994 C 7.589875 25.45915 6.648469 25.599775 5.550813 25.599775 C 4.214875 25.599775 2.992219 25.267744 1.875031 24.599775 C 0.757844 23.931806 -0.101531 23.017744 -0.699187 21.849775 C -1.167937 23.248212 -1.808562 24.224775 -2.624969 24.775556 C -3.441375 25.326337 -4.484344 25.599775 -5.749969 25.599775 C -7.249969 25.599775 -8.484344 25.298994 -9.449187 24.701337 C -10.417937 24.099775 -11.249969 23.314619 -11.949187 22.349775 L -12.101531 22.349775 L -12.749969 24.998212 L -15.30075 24.998212 L -15.30075 -0.0017875 L -11.699187 -0.0017875 L -11.699187 17.998212 C -11.398406 19.134931 -10.859344 20.142744 -10.074187 21.025556 C -9.292937 21.908369 -8.335906 22.349775 -7.199187 22.349775 C -6.433562 22.349775 -5.816375 22.20915 -5.351531 21.923994 C -4.882781 21.642744 -4.5195 21.201337 -4.249969 20.599775 C -3.984344 19.998212 -3.808562 19.224775 -3.726531 18.275556 C -3.6445 17.326337 -3.601531 16.181806 -3.601531 14.849775 L -3.601531 -0.0017875 Z M 0.00003125 -0.0017875 " transform="matrix(1, 0, 0, -1, 7226.707, 3301.9279)"/>
<path xmlns="http://www.w3.org/2000/svg" fill="none" stroke-width="9" stroke-linecap="butt" stroke-linejoin="round" stroke="rgb(100%, 100%, 100%)" stroke-opacity="1" stroke-miterlimit="4" d="M 0.00003125 0.00015625 C 0.726594 0.43375 1.63675 0.789219 2.726594 1.074375 C 3.816437 1.355625 4.820344 1.500156 5.746125 1.500156 C 7.234406 1.500156 8.257844 1.117344 8.820344 0.351719 C 9.378937 -0.417812 9.660187 -1.749844 9.660187 -3.648281 C 9.660187 -4.449062 9.609406 -5.367031 9.51175 -6.398281 C 9.148469 -6.367031 8.800812 -6.351406 8.472687 -6.351406 L 7.4805 -6.351406 C 5.992219 -6.351406 4.644562 -6.476406 3.437531 -6.726406 C 2.2305 -6.976406 1.187531 -7.398281 0.312531 -7.999844 C -0.562469 -8.601406 -1.23825 -9.382656 -1.718719 -10.351406 C -2.199188 -11.31625 -2.437469 -12.519375 -2.437469 -13.949062 C -2.437469 -16.148281 -1.867156 -17.874844 -0.726531 -19.124844 C 0.414094 -20.374844 1.878937 -20.999844 3.664094 -20.999844 C 5.285187 -20.999844 6.578156 -20.683437 7.535187 -20.050625 C 8.496125 -19.417812 9.222687 -18.667812 9.718781 -17.800625 L 9.918 -17.800625 L 10.793 -20.749844 L 13.609406 -20.749844 C 13.378937 -19.785 13.218781 -18.757656 13.132844 -17.675625 C 13.046906 -16.593594 13.003937 -15.417812 13.003937 -14.148281 C 13.003937 -12.449062 13.046906 -10.648281 13.132844 -8.749844 C 13.218781 -6.851406 13.26175 -4.898281 13.26175 -2.898281 C 13.26175 -1.898281 13.187531 -0.94125 13.035187 -0.0232812 C 12.88675 0.890781 12.570344 1.707188 12.085969 2.425938 C 11.601594 3.140781 10.937531 3.707188 10.085969 4.125156 C 9.234406 4.539219 8.109406 4.750156 6.710969 4.750156 C 5.179719 4.750156 3.718781 4.582188 2.335969 4.250156 C 0.953156 3.914219 -0.222625 3.449375 -1.187469 2.851719 Z M 9.562531 -14.550625 C 9.265656 -15.351406 8.738312 -16.085781 7.9805 -16.749844 C 7.222687 -17.417812 6.152375 -17.749844 4.769562 -17.749844 C 3.746125 -17.749844 2.918 -17.382656 2.273469 -16.648281 C 1.632844 -15.917812 1.312531 -14.882656 1.312531 -13.550625 C 1.312531 -12.683437 1.484406 -11.968594 1.828156 -11.398281 C 2.175812 -10.835781 2.644562 -10.382656 3.238312 -10.050625 C 3.828156 -9.718594 4.503937 -9.484219 5.26175 -9.351406 C 6.019562 -9.218594 6.796906 -9.148281 7.585969 -9.148281 C 7.914094 -9.148281 8.242219 -9.16 8.57425 -9.175625 C 8.902375 -9.19125 9.2305 -9.218594 9.562531 -9.249844 Z M 9.562531 -14.550625 " transform="matrix(1, 0, 0, -1, 7244.8945, 3281.2775)"/>
<path xmlns="http://www.w3.org/2000/svg" fill="none" stroke-width="9" stroke-linecap="butt" stroke-linejoin="round" stroke="rgb(100%, 100%, 100%)" stroke-opacity="1" stroke-miterlimit="4" d="M 0.00093125 0.0011375 C 0.7314 -0.467613 1.633744 -0.842613 2.70015 -1.123863 C 3.766556 -1.409019 5.032181 -1.549644 6.500931 -1.549644 C 7.7314 -1.549644 8.809525 -1.36605 9.723587 -0.998863 C 10.641556 -0.635581 11.407181 -0.143394 12.024369 0.473794 C 12.641556 1.090981 13.098587 1.817544 13.399369 2.649575 C 13.70015 3.481606 13.848587 4.364419 13.848587 5.301919 C 13.848587 6.731606 13.614212 7.926919 13.149369 8.876137 C 12.684525 9.825356 12.090775 10.641762 11.375931 11.325356 C 10.657181 12.00895 9.883744 12.598794 9.051712 13.098794 C 8.215775 13.598794 7.442337 14.090981 6.723587 14.575356 C 6.008744 15.059731 5.414994 15.590981 4.95015 16.176919 C 4.4814 16.75895 4.250931 17.465981 4.250931 18.301919 C 4.250931 19.364419 4.524369 20.149575 5.07515 20.649575 C 5.625931 21.149575 6.500931 21.399575 7.70015 21.399575 C 8.567337 21.399575 9.414994 21.2902 10.250931 21.075356 C 11.082962 20.856606 11.817337 20.583169 12.45015 20.251137 L 13.399369 23.251137 C 12.664994 23.684731 11.801712 24.024575 10.801712 24.274575 C 9.801712 24.524575 8.614212 24.649575 7.250931 24.649575 C 5.149369 24.649575 3.524369 24.110512 2.375931 23.028481 C 1.223587 21.950356 0.649369 20.348794 0.649369 18.223794 C 0.649369 16.895669 0.883744 15.798012 1.348587 14.934731 C 1.817337 14.067544 2.407181 13.32145 3.125931 12.692544 C 3.840775 12.059731 4.614212 11.520669 5.45015 11.07145 C 6.282181 10.622231 7.059525 10.130044 7.774369 9.594887 C 8.489212 9.059731 9.082962 8.454262 9.551712 7.782387 C 10.016556 7.114419 10.250931 6.25895 10.250931 5.219887 C 10.250931 3.9777 9.864212 3.083169 9.098587 2.528481 C 8.332962 1.9777 7.399369 1.700356 6.301712 1.700356 C 5.332962 1.700356 4.391556 1.840981 3.473587 2.126137 C 2.559525 2.407387 1.766556 2.751137 1.098587 3.149575 Z M 0.00093125 0.0011375 " transform="matrix(1, 0, 0, -1, 7262.4561, 3300.9777)"/>
<path xmlns="http://www.w3.org/2000/svg" fill="none" stroke-width="0.5" stroke-linecap="round" stroke-linejoin="round" stroke="rgb(10.572815%, 9.655762%, 10.258484%)" stroke-opacity="1" stroke-dasharray="9.997 4.999" stroke-miterlimit="4" d="M 0.0015 0.00009375 L 0.0015 -6070.855375 " transform="matrix(1, 0, 0, -1, 7494.9985, 638.254)"/>
<path xmlns="http://www.w3.org/2000/svg" fill="none" stroke-width="0.5" stroke-linecap="round" stroke-linejoin="round" stroke="rgb(10.572815%, 9.655762%, 10.258484%)" stroke-opacity="1" stroke-dasharray="9.997 4.999" stroke-miterlimit="4" d="M -0.001175 -0.001325 L 8590.1707 -0.001325 " transform="matrix(1, 0, 0, -1, 29.3293, 1692.5768)"/>
<path xmlns="http://www.w3.org/2000/svg" fill="none" stroke-width="0.5" stroke-linecap="round" stroke-linejoin="round" stroke="rgb(10.572815%, 9.655762%, 10.258484%)" stroke-opacity="1" stroke-miterlimit="4" d="M 0 -0.001325 L 5 -0.001325 " transform="matrix(1, 0, 0, -1, 8622, 1692.5768)"/>
<path xmlns="http://www.w3.org/2000/svg" fill="none" stroke-width="0.5" stroke-linecap="round" stroke-linejoin="round" stroke="rgb(10.572815%, 9.655762%, 10.258484%)" stroke-opacity="1" stroke-dasharray="9.997 4.999" stroke-miterlimit="4" d="M -0.001175 0.00085 L 8590.1707 0.00085 " transform="matrix(1, 0, 0, -1, 29.3293, 2660.4696)"/>
<path xmlns="http://www.w3.org/2000/svg" fill="none" stroke-width="0.5" stroke-linecap="round" stroke-linejoin="round" stroke="rgb(10.572815%, 9.655762%, 10.258484%)" stroke-opacity="1" stroke-miterlimit="4" d="M 0 0.00085 L 5 0.00085 " transform="matrix(1, 0, 0, -1, 8622, 2660.4696)"/>
<path xmlns="http://www.w3.org/2000/svg" fill="none" stroke-width="0.5" stroke-linecap="round" stroke-linejoin="round" stroke="rgb(10.572815%, 9.655762%, 10.258484%)" stroke-opacity="1" stroke-dasharray="9.997 4.999" stroke-miterlimit="4" d="M -0.00195 0.00009375 L -0.00195 -6070.855375 " transform="matrix(1, 0, 0, -1, 8552.4082, 638.254)"/>
<g xmlns="http://www.w3.org/2000/svg" clip-path="url(#clip-2692)"><path fill-rule="nonzero" fill="rgb(100%, 100%, 100%)" fill-opacity="1" d="M 8627 626.714844 L 0.253906 626.714844 L 0.253906 6726.714844 L 8627 6726.714844 Z M 8552.207031 6651.945312 L 75.042969 6651.945312 L 75.042969 701.484375 L 8552.207031 701.484375 Z M 8552.207031 6651.945312 "/></g>
<g xmlns="http://www.w3.org/2000/svg" clip-path="url(#clip-2693)"><path fill="none" stroke-width="0.373" stroke-linecap="butt" stroke-linejoin="miter" stroke="rgb(10.572815%, 9.655762%, 10.258484%)" stroke-opacity="1" stroke-miterlimit="10" d="M 8627 6100.165156 L 0.253906 6100.165156 L 0.253906 0.165156 L 8627 0.165156 Z M 8552.207031 74.934688 L 75.042969 74.934688 L 75.042969 6025.395625 L 8552.207031 6025.395625 Z M 8552.207031 74.934688 " transform="matrix(1, 0, 0, -1, 0, 6726.88)"/></g>
<path xmlns="http://www.w3.org/2000/svg" fill-rule="nonzero" fill="rgb(27.389526%, 16.140747%, 37.92572%)" fill-opacity="1" d="M 7432.109375 3086.878906 L 7388.855469 3086.878906 C 7377.261719 3086.878906 7367.867188 3077.484375 7367.867188 3065.890625 C 7367.867188 3054.300781 7377.261719 3044.902344 7388.855469 3044.902344 L 7432.109375 3044.902344 C 7443.703125 3044.902344 7453.097656 3054.300781 7453.097656 3065.890625 C 7453.097656 3077.484375 7443.703125 3086.878906 7432.109375 3086.878906 "/>
<path xmlns="http://www.w3.org/2000/svg" fill-rule="nonzero" fill="rgb(27.389526%, 16.140747%, 37.92572%)" fill-opacity="1" d="M 7522.375 3087.515625 L 7479.121094 3087.515625 C 7467.527344 3087.515625 7458.132812 3078.117188 7458.132812 3066.527344 C 7458.132812 3054.933594 7467.527344 3045.539062 7479.121094 3045.539062 L 7522.375 3045.539062 C 7533.96875 3045.539062 7543.367188 3054.933594 7543.367188 3066.527344 C 7543.367188 3078.117188 7533.96875 3087.515625 7522.375 3087.515625 "/>
<path xmlns="http://www.w3.org/2000/svg" fill-rule="nonzero" fill="rgb(100%, 100%, 100%)" fill-opacity="1" d="M 7606.730469 3052.222656 L 7606.730469 3059.859375 C 7606.730469 3060.734375 7606.035156 3061.597656 7605.179688 3061.785156 C 7605.179688 3061.785156 7600.089844 3062.675781 7592.976562 3062.675781 C 7585.855469 3062.675781 7580.769531 3061.773438 7580.769531 3061.773438 C 7579.917969 3061.597656 7579.21875 3060.734375 7579.21875 3059.859375 L 7579.21875 3043.925781 C 7579.21875 3043.054688 7579.917969 3042.1875 7580.769531 3042 C 7580.769531 3042 7585.695312 3041.109375 7592.8125 3041.109375 C 7599.929688 3041.109375 7605.179688 3042.011719 7605.179688 3042.011719 C 7606.035156 3042.191406 7606.730469 3043.054688 7606.730469 3043.925781 Z M 7604.207031 3068.660156 C 7603.027344 3068.660156 7602.074219 3067.703125 7602.074219 3066.527344 C 7602.074219 3065.347656 7603.027344 3064.394531 7604.207031 3064.394531 C 7605.382812 3064.394531 7606.339844 3065.347656 7606.339844 3066.527344 C 7606.339844 3067.703125 7605.382812 3068.660156 7604.207031 3068.660156 M 7581.910156 3068.660156 C 7580.730469 3068.660156 7579.777344 3067.703125 7579.777344 3066.527344 C 7579.777344 3065.347656 7580.730469 3064.394531 7581.910156 3064.394531 C 7583.089844 3064.394531 7584.042969 3065.347656 7584.042969 3066.527344 C 7584.042969 3067.703125 7583.089844 3068.660156 7581.910156 3068.660156 M 7610.460938 3044.660156 L 7608.675781 3044.660156 L 7608.675781 3039.375 C 7608.675781 3038.816406 7608.246094 3038.214844 7607.714844 3038.039062 C 7607.714844 3038.039062 7602.75 3036.40625 7592.976562 3036.40625 C 7583.199219 3036.40625 7578.234375 3038.039062 7578.234375 3038.039062 C 7577.707031 3038.214844 7577.273438 3038.816406 7577.273438 3039.375 L 7577.273438 3044.660156 L 7575.488281 3044.660156 C 7574.929688 3044.660156 7574.476562 3045.117188 7574.476562 3045.675781 L 7574.476562 3053.421875 C 7574.476562 3053.980469 7574.929688 3054.4375 7575.488281 3054.4375 L 7577.273438 3054.4375 L 7577.273438 3072.636719 C 7577.273438 3073.191406 7577.730469 3073.648438 7578.285156 3073.648438 L 7580.488281 3073.648438 L 7580.488281 3076.855469 C 7580.488281 3077.4375 7581.046875 3077.910156 7581.726562 3077.910156 L 7584.03125 3077.910156 C 7584.710938 3077.910156 7585.269531 3077.4375 7585.269531 3076.855469 L 7585.269531 3073.648438 L 7600.886719 3073.648438 L 7600.886719 3076.855469 C 7600.886719 3077.4375 7601.445312 3077.910156 7602.125 3077.910156 L 7604.425781 3077.910156 C 7605.109375 3077.910156 7605.667969 3077.4375 7605.667969 3076.855469 L 7605.667969 3073.648438 L 7607.664062 3073.648438 C 7608.222656 3073.648438 7608.675781 3073.191406 7608.675781 3072.636719 L 7608.675781 3054.4375 L 7610.460938 3054.4375 C 7611.019531 3054.4375 7611.476562 3053.980469 7611.476562 3053.421875 L 7611.476562 3045.675781 C 7611.476562 3045.117188 7611.019531 3044.660156 7610.460938 3044.660156 "/>
</svg>
