<?xml version="1.0" encoding="UTF-8"?>
<svg xmlns="http://www.w3.org/2000/svg" xmlns:xlink="http://www.w3.org/1999/xlink" viewBox="0 3363.44 2378.3925 1681.72" width="2378.3925" height="1681.72">
<path xmlns="http://www.w3.org/2000/svg" fill="none" stroke-width="15" stroke-linecap="butt" stroke-linejoin="miter" stroke="rgb(43.496704%, 18.121338%, 51.213074%)" stroke-opacity="1" stroke-miterlimit="10" d="M -0.0018125 0.0001 L 218.455219 -218.456931 " transform="matrix(1, 0, 0, -1, 844.0565, 4494.1251)"/>
<path xmlns="http://www.w3.org/2000/svg" fill="none" stroke-width="15" stroke-linecap="butt" stroke-linejoin="miter" stroke="rgb(43.496704%, 18.121338%, 51.213074%)" stroke-opacity="1" stroke-miterlimit="10" d="M 0.00174375 -0.00181875 L 47.587681 47.588025 C 62.540806 62.537244 86.747837 62.650525 101.833775 47.834119 L 108.529087 41.2599 " transform="matrix(1, 0, 0, -1, 804.7131, 4604.5724)"/>
<path xmlns="http://www.w3.org/2000/svg" fill="none" stroke-width="15" stroke-linecap="butt" stroke-linejoin="miter" stroke="rgb(43.496704%, 18.121338%, 51.213074%)" stroke-opacity="1" stroke-miterlimit="10" d="M -0.001625 -0.0000875 L 272.838219 -272.839931 " transform="matrix(1, 0, 0, -1, 789.6735, 4439.7421)"/>
<path xmlns="http://www.w3.org/2000/svg" fill="none" stroke-width="15" stroke-linecap="butt" stroke-linejoin="miter" stroke="rgb(82.23114%, 14.726257%, 60.897827%)" stroke-opacity="1" stroke-miterlimit="10" d="M -0.00048125 0.00108125 L -0.00048125 931.860456 C -0.00048125 971.645613 -15.801263 1009.797956 -43.934075 1037.926863 L -523.066888 1517.059675 C -551.195794 1545.192488 -567.000481 1583.344831 -567.000481 1623.126081 L -567.000481 2381.415144 " transform="matrix(1, 0, 0, -1, 2481.1997, 5446.7628)"/>
<path xmlns="http://www.w3.org/2000/svg" fill="none" stroke-width="15" stroke-linecap="butt" stroke-linejoin="miter" stroke="rgb(43.496704%, 18.121338%, 51.213074%)" stroke-opacity="1" stroke-miterlimit="10" d="M -0.00145625 -0.00106875 L -0.00145625 -47.403412 C -0.00145625 -65.344819 -14.544425 -79.891694 -32.485831 -79.891694 L -623.294425 -79.891694 C -662.075675 -79.891694 -699.263175 -64.485444 -726.68505 -37.063569 L -763.181144 -0.571381 L -926.606925 162.8544 C -945.360831 181.608306 -970.794425 192.143463 -997.317863 192.143463 L -3153.536613 192.143463 C -3165.794425 192.143463 -3177.548331 197.014556 -3186.2163 205.682525 L -3187.243644 206.705963 L -3200.899894 219.897369 L -3230.638175 219.897369 " transform="matrix(1, 0, 0, -1, 4560.3413, 4987.6669)"/>
<path xmlns="http://www.w3.org/2000/svg" fill="none" stroke-width="15" stroke-linecap="butt" stroke-linejoin="miter" stroke="rgb(43.496704%, 18.121338%, 51.213074%)" stroke-opacity="1" stroke-miterlimit="10" d="M 0.00001875 -0.00173125 L 25.898456 -25.900169 C 44.652362 -44.650169 70.089862 -55.189231 96.609394 -55.189231 L 2511.265644 -55.189231 C 2537.789081 -55.189231 2563.222675 -65.724388 2581.976581 -84.478294 L 2795.433612 -297.935325 C 2814.187519 -316.689231 2839.621112 -327.224388 2866.14455 -327.224388 L 3148.722675 -327.224388 " transform="matrix(1, 0, 0, -1, 1062.5117, 4712.5803)"/>
<path xmlns="http://www.w3.org/2000/svg" fill="none" stroke-width="25" stroke-linecap="butt" stroke-linejoin="miter" stroke="rgb(52.000427%, 81.07605%, 24.971008%)" stroke-opacity="1" stroke-miterlimit="10" d="M -0.00089375 -0.00113125 L 1510.956137 -0.00113125 C 1564.331137 -0.00113125 1615.522544 21.2059 1653.268637 58.948087 L 2063.385825 469.065275 C 2091.514731 497.194181 2107.319419 535.350431 2107.319419 575.131681 L 2107.319419 1073.135587 C 2107.319419 1126.514494 2128.522544 1177.7059 2166.268637 1215.448087 L 2485.27645 1534.459806 C 2523.077231 1572.260587 2544.288169 1623.545744 2544.225669 1677.002775 L 2543.819419 2029.498869 L 2543.819419 2142.744962 " transform="matrix(1, 0, 0, -1, 333.3798, 5415.7684)"/>
<path xmlns="http://www.w3.org/2000/svg" fill-rule="nonzero" fill="rgb(43.496704%, 18.121338%, 51.213074%)" fill-opacity="1" d="M 513.011719 4668.070312 L 469.757812 4668.070312 C 458.164062 4668.070312 448.769531 4658.671875 448.769531 4647.082031 C 448.769531 4635.488281 458.164062 4626.089844 469.757812 4626.089844 L 513.011719 4626.089844 C 524.605469 4626.089844 534.003906 4635.488281 534.003906 4647.082031 C 534.003906 4658.671875 524.605469 4668.070312 513.011719 4668.070312 "/>
<path xmlns="http://www.w3.org/2000/svg" fill-rule="nonzero" fill="rgb(43.496704%, 18.121338%, 51.213074%)" fill-opacity="1" d="M 476.402344 4453.921875 L 433.148438 4453.921875 C 421.554688 4453.921875 412.160156 4444.523438 412.160156 4432.933594 C 412.160156 4421.339844 421.554688 4411.945312 433.148438 4411.945312 L 476.402344 4411.945312 C 487.996094 4411.945312 497.390625 4421.339844 497.390625 4432.933594 C 497.390625 4444.523438 487.996094 4453.921875 476.402344 4453.921875 "/>
<path xmlns="http://www.w3.org/2000/svg" fill-rule="nonzero" fill="rgb(43.496704%, 18.121338%, 51.213074%)" fill-opacity="1" d="M 421.246094 4620.859375 L 377.988281 4620.859375 C 366.398438 4620.859375 357 4611.464844 357 4599.871094 C 357 4588.28125 366.398438 4578.882812 377.988281 4578.882812 L 421.246094 4578.882812 C 432.835938 4578.882812 442.234375 4588.28125 442.234375 4599.871094 C 442.234375 4611.464844 432.835938 4620.859375 421.246094 4620.859375 "/>
<path xmlns="http://www.w3.org/2000/svg" fill-rule="nonzero" fill="rgb(43.496704%, 18.121338%, 51.213074%)" fill-opacity="1" d="M 513.011719 4620.859375 L 469.757812 4620.859375 C 458.164062 4620.859375 448.769531 4611.464844 448.769531 4599.871094 C 448.769531 4588.28125 458.164062 4578.882812 469.757812 4578.882812 L 513.011719 4578.882812 C 524.605469 4578.882812 534.003906 4588.28125 534.003906 4599.871094 C 534.003906 4611.464844 524.605469 4620.859375 513.011719 4620.859375 "/>
</svg>
