<?xml version="1.0" encoding="UTF-8"?>
<svg xmlns="http://www.w3.org/2000/svg" xmlns:xlink="http://www.w3.org/1999/xlink" viewBox="0 5045.16 2378.3925 1681.72" width="2378.3925" height="1681.72">
<path xmlns="http://www.w3.org/2000/svg" fill="none" stroke-width="15" stroke-linecap="butt" stroke-linejoin="miter" stroke="rgb(82.23114%, 14.726257%, 60.897827%)" stroke-opacity="1" stroke-miterlimit="10" d="M -0.00048125 0.00108125 L -0.00048125 931.860456 C -0.00048125 971.645613 -15.801263 1009.797956 -43.934075 1037.926863 L -523.066888 1517.059675 C -551.195794 1545.192488 -567.000481 1583.344831 -567.000481 1623.126081 L -567.000481 2381.415144 " transform="matrix(1, 0, 0, -1, 2481.1997, 5446.7628)"/>
<path xmlns="http://www.w3.org/2000/svg" fill="none" stroke-width="15" stroke-linecap="butt" stroke-linejoin="miter" stroke="rgb(43.496704%, 18.121338%, 51.213074%)" stroke-opacity="1" stroke-miterlimit="10" d="M -0.00145625 -0.00106875 L -0.00145625 -47.403412 C -0.00145625 -65.344819 -14.544425 -79.891694 -32.485831 -79.891694 L -623.294425 -79.891694 C -662.075675 -79.891694 -699.263175 -64.485444 -726.68505 -37.063569 L -763.181144 -0.571381 L -926.606925 162.8544 C -945.360831 181.608306 -970.794425 192.143463 -997.317863 192.143463 L -3153.536613 192.143463 C -3165.794425 192.143463 -3177.548331 197.014556 -3186.2163 205.682525 L -3187.243644 206.705963 L -3200.899894 219.897369 L -3230.638175 219.897369 " transform="matrix(1, 0, 0, -1, 4560.3413, 4987.6669)"/>
<path xmlns="http://www.w3.org/2000/svg" fill="none" stroke-width="25" stroke-linecap="butt" stroke-linejoin="miter" stroke="rgb(52.000427%, 81.07605%, 24.971008%)" stroke-opacity="1" stroke-miterlimit="10" d="M -0.00089375 -0.00113125 L 1510.956137 -0.00113125 C 1564.331137 -0.00113125 1615.522544 21.2059 1653.268637 58.948087 L 2063.385825 469.065275 C 2091.514731 497.194181 2107.319419 535.350431 2107.319419 575.131681 L 2107.319419 1073.135587 C 2107.319419 1126.514494 2128.522544 1177.7059 2166.268637 1215.448087 L 2485.27645 1534.459806 C 2523.077231 1572.260587 2544.288169 1623.545744 2544.225669 1677.002775 L 2543.819419 2029.498869 L 2543.819419 2142.744962 " transform="matrix(1, 0, 0, -1, 333.3798, 5415.7684)"/>
<path xmlns="http://www.w3.org/2000/svg" fill-rule="nonzero" fill="rgb(51.600647%, 80.970764%, 25.404358%)" fill-opacity="1" d="M 2185.757812 5132.511719 C 2173.628906 5132.511719 2163.757812 5142.382812 2163.757812 5154.511719 C 2163.757812 5166.644531 2173.628906 5176.511719 2185.757812 5176.511719 C 2197.886719 5176.511719 2207.757812 5166.644531 2207.757812 5154.511719 C 2207.757812 5142.382812 2197.886719 5132.511719 2185.757812 5132.511719 M 2185.757812 5136.511719 C 2195.699219 5136.511719 2203.757812 5144.570312 2203.757812 5154.511719 C 2203.757812 5164.453125 2195.699219 5172.511719 2185.757812 5172.511719 C 2175.816406 5172.511719 2167.757812 5164.453125 2167.757812 5154.511719 C 2167.757812 5144.570312 2175.816406 5136.511719 2185.757812 5136.511719 "/>
<path xmlns="http://www.w3.org/2000/svg" fill-rule="nonzero" fill="rgb(51.600647%, 80.970764%, 25.404358%)" fill-opacity="1" d="M 2098.253906 5220.019531 C 2086.121094 5220.019531 2076.253906 5229.886719 2076.253906 5242.019531 C 2076.253906 5254.148438 2086.121094 5264.019531 2098.253906 5264.019531 C 2110.382812 5264.019531 2120.253906 5254.148438 2120.253906 5242.019531 C 2120.253906 5229.886719 2110.382812 5220.019531 2098.253906 5220.019531 M 2098.253906 5224.019531 C 2108.191406 5224.019531 2116.253906 5232.078125 2116.253906 5242.019531 C 2116.253906 5251.957031 2108.191406 5260.019531 2098.253906 5260.019531 C 2088.3125 5260.019531 2080.253906 5251.957031 2080.253906 5242.019531 C 2080.253906 5232.078125 2088.3125 5224.019531 2098.253906 5224.019531 "/>
<path xmlns="http://www.w3.org/2000/svg" fill-rule="nonzero" fill="rgb(51.600647%, 80.970764%, 25.404358%)" fill-opacity="1" d="M 1996.617188 5321.652344 C 1984.484375 5321.652344 1974.617188 5331.523438 1974.617188 5343.652344 C 1974.617188 5355.785156 1984.484375 5365.652344 1996.617188 5365.652344 C 2008.746094 5365.652344 2018.617188 5355.785156 2018.617188 5343.652344 C 2018.617188 5331.523438 2008.746094 5321.652344 1996.617188 5321.652344 M 1996.617188 5325.652344 C 2006.558594 5325.652344 2014.617188 5333.710938 2014.617188 5343.652344 C 2014.617188 5353.59375 2006.558594 5361.652344 1996.617188 5361.652344 C 1986.675781 5361.652344 1978.617188 5353.59375 1978.617188 5343.652344 C 1978.617188 5333.710938 1986.675781 5325.652344 1996.617188 5325.652344 "/>
<path xmlns="http://www.w3.org/2000/svg" fill-rule="nonzero" fill="rgb(51.600647%, 80.970764%, 25.404358%)" fill-opacity="1" d="M 1855.085938 5393.308594 C 1842.953125 5393.308594 1833.085938 5403.179688 1833.085938 5415.308594 C 1833.085938 5427.441406 1842.953125 5437.308594 1855.085938 5437.308594 C 1867.214844 5437.308594 1877.085938 5427.441406 1877.085938 5415.308594 C 1877.085938 5403.179688 1867.214844 5393.308594 1855.085938 5393.308594 M 1855.085938 5397.308594 C 1865.027344 5397.308594 1873.085938 5405.367188 1873.085938 5415.308594 C 1873.085938 5425.25 1865.027344 5433.308594 1855.085938 5433.308594 C 1845.144531 5433.308594 1837.085938 5425.25 1837.085938 5415.308594 C 1837.085938 5405.367188 1845.144531 5397.308594 1855.085938 5397.308594 "/>
<path xmlns="http://www.w3.org/2000/svg" fill-rule="nonzero" fill="rgb(51.600647%, 80.970764%, 25.404358%)" fill-opacity="1" d="M 1854.085938 5393.308594 C 1841.953125 5393.308594 1832.085938 5403.179688 1832.085938 5415.308594 C 1832.085938 5427.441406 1841.953125 5437.308594 1854.085938 5437.308594 C 1866.214844 5437.308594 1876.085938 5427.441406 1876.085938 5415.308594 C 1876.085938 5403.179688 1866.214844 5393.308594 1854.085938 5393.308594 M 1854.085938 5397.308594 C 1864.027344 5397.308594 1872.085938 5405.367188 1872.085938 5415.308594 C 1872.085938 5425.25 1864.027344 5433.308594 1854.085938 5433.308594 C 1844.144531 5433.308594 1836.085938 5425.25 1836.085938 5415.308594 C 1836.085938 5405.367188 1844.144531 5397.308594 1854.085938 5397.308594 "/>
<path xmlns="http://www.w3.org/2000/svg" fill-rule="nonzero" fill="rgb(51.600647%, 80.970764%, 25.404358%)" fill-opacity="1" d="M 1737.109375 5393.308594 C 1724.976562 5393.308594 1715.109375 5403.179688 1715.109375 5415.308594 C 1715.109375 5427.441406 1724.976562 5437.308594 1737.109375 5437.308594 C 1749.238281 5437.308594 1759.109375 5427.441406 1759.109375 5415.308594 C 1759.109375 5403.179688 1749.238281 5393.308594 1737.109375 5393.308594 M 1737.109375 5397.308594 C 1747.046875 5397.308594 1755.109375 5405.367188 1755.109375 5415.308594 C 1755.109375 5425.25 1747.046875 5433.308594 1737.109375 5433.308594 C 1727.167969 5433.308594 1719.109375 5425.25 1719.109375 5415.308594 C 1719.109375 5405.367188 1727.167969 5397.308594 1737.109375 5397.308594 "/>
<path xmlns="http://www.w3.org/2000/svg" fill-rule="nonzero" fill="rgb(51.600647%, 80.970764%, 25.404358%)" fill-opacity="1" d="M 1620.128906 5393.308594 C 1608 5393.308594 1598.128906 5403.179688 1598.128906 5415.308594 C 1598.128906 5427.441406 1608 5437.308594 1620.128906 5437.308594 C 1632.261719 5437.308594 1642.128906 5427.441406 1642.128906 5415.308594 C 1642.128906 5403.179688 1632.261719 5393.308594 1620.128906 5393.308594 M 1620.128906 5397.308594 C 1630.070312 5397.308594 1638.128906 5405.367188 1638.128906 5415.308594 C 1638.128906 5425.25 1630.070312 5433.308594 1620.128906 5433.308594 C 1610.1875 5433.308594 1602.128906 5425.25 1602.128906 5415.308594 C 1602.128906 5405.367188 1610.1875 5397.308594 1620.128906 5397.308594 "/>
<path xmlns="http://www.w3.org/2000/svg" fill-rule="nonzero" fill="rgb(51.600647%, 80.970764%, 25.404358%)" fill-opacity="1" d="M 1503.152344 5393.308594 C 1491.023438 5393.308594 1481.152344 5403.179688 1481.152344 5415.308594 C 1481.152344 5427.441406 1491.023438 5437.308594 1503.152344 5437.308594 C 1515.285156 5437.308594 1525.152344 5427.441406 1525.152344 5415.308594 C 1525.152344 5403.179688 1515.285156 5393.308594 1503.152344 5393.308594 M 1503.152344 5397.308594 C 1513.09375 5397.308594 1521.152344 5405.367188 1521.152344 5415.308594 C 1521.152344 5425.25 1513.09375 5433.308594 1503.152344 5433.308594 C 1493.210938 5433.308594 1485.152344 5425.25 1485.152344 5415.308594 C 1485.152344 5405.367188 1493.210938 5397.308594 1503.152344 5397.308594 "/>
<path xmlns="http://www.w3.org/2000/svg" fill-rule="nonzero" fill="rgb(51.600647%, 80.970764%, 25.404358%)" fill-opacity="1" d="M 1386.175781 5393.308594 C 1374.042969 5393.308594 1364.175781 5403.179688 1364.175781 5415.308594 C 1364.175781 5427.441406 1374.042969 5437.308594 1386.175781 5437.308594 C 1398.304688 5437.308594 1408.175781 5427.441406 1408.175781 5415.308594 C 1408.175781 5403.179688 1398.304688 5393.308594 1386.175781 5393.308594 M 1386.175781 5397.308594 C 1396.117188 5397.308594 1404.175781 5405.367188 1404.175781 5415.308594 C 1404.175781 5425.25 1396.117188 5433.308594 1386.175781 5433.308594 C 1376.234375 5433.308594 1368.175781 5425.25 1368.175781 5415.308594 C 1368.175781 5405.367188 1376.234375 5397.308594 1386.175781 5397.308594 "/>
<path xmlns="http://www.w3.org/2000/svg" fill-rule="nonzero" fill="rgb(51.600647%, 80.970764%, 25.404358%)" fill-opacity="1" d="M 1269.199219 5393.308594 C 1257.066406 5393.308594 1247.199219 5403.179688 1247.199219 5415.308594 C 1247.199219 5427.441406 1257.066406 5437.308594 1269.199219 5437.308594 C 1281.328125 5437.308594 1291.199219 5427.441406 1291.199219 5415.308594 C 1291.199219 5403.179688 1281.328125 5393.308594 1269.199219 5393.308594 M 1269.199219 5397.308594 C 1279.140625 5397.308594 1287.199219 5405.367188 1287.199219 5415.308594 C 1287.199219 5425.25 1279.140625 5433.308594 1269.199219 5433.308594 C 1259.257812 5433.308594 1251.199219 5425.25 1251.199219 5415.308594 C 1251.199219 5405.367188 1259.257812 5397.308594 1269.199219 5397.308594 "/>
<path xmlns="http://www.w3.org/2000/svg" fill-rule="nonzero" fill="rgb(51.600647%, 80.970764%, 25.404358%)" fill-opacity="1" d="M 1152.222656 5393.308594 C 1140.089844 5393.308594 1130.222656 5403.179688 1130.222656 5415.308594 C 1130.222656 5427.441406 1140.089844 5437.308594 1152.222656 5437.308594 C 1164.351562 5437.308594 1174.222656 5427.441406 1174.222656 5415.308594 C 1174.222656 5403.179688 1164.351562 5393.308594 1152.222656 5393.308594 M 1152.222656 5397.308594 C 1162.160156 5397.308594 1170.222656 5405.367188 1170.222656 5415.308594 C 1170.222656 5425.25 1162.160156 5433.308594 1152.222656 5433.308594 C 1142.28125 5433.308594 1134.222656 5425.25 1134.222656 5415.308594 C 1134.222656 5405.367188 1142.28125 5397.308594 1152.222656 5397.308594 "/>
<path xmlns="http://www.w3.org/2000/svg" fill-rule="nonzero" fill="rgb(51.600647%, 80.970764%, 25.404358%)" fill-opacity="1" d="M 1035.242188 5393.308594 C 1023.113281 5393.308594 1013.242188 5403.179688 1013.242188 5415.308594 C 1013.242188 5427.441406 1023.113281 5437.308594 1035.242188 5437.308594 C 1047.375 5437.308594 1057.242188 5427.441406 1057.242188 5415.308594 C 1057.242188 5403.179688 1047.375 5393.308594 1035.242188 5393.308594 M 1035.242188 5397.308594 C 1045.183594 5397.308594 1053.242188 5405.367188 1053.242188 5415.308594 C 1053.242188 5425.25 1045.183594 5433.308594 1035.242188 5433.308594 C 1025.304688 5433.308594 1017.242188 5425.25 1017.242188 5415.308594 C 1017.242188 5405.367188 1025.304688 5397.308594 1035.242188 5397.308594 "/>
<path xmlns="http://www.w3.org/2000/svg" fill-rule="nonzero" fill="rgb(51.600647%, 80.970764%, 25.404358%)" fill-opacity="1" d="M 918.265625 5393.308594 C 906.136719 5393.308594 896.265625 5403.179688 896.265625 5415.308594 C 896.265625 5427.441406 906.136719 5437.308594 918.265625 5437.308594 C 930.398438 5437.308594 940.265625 5427.441406 940.265625 5415.308594 C 940.265625 5403.179688 930.398438 5393.308594 918.265625 5393.308594 M 918.265625 5397.308594 C 928.207031 5397.308594 936.265625 5405.367188 936.265625 5415.308594 C 936.265625 5425.25 928.207031 5433.308594 918.265625 5433.308594 C 908.324219 5433.308594 900.265625 5425.25 900.265625 5415.308594 C 900.265625 5405.367188 908.324219 5397.308594 918.265625 5397.308594 "/>
<path xmlns="http://www.w3.org/2000/svg" fill-rule="nonzero" fill="rgb(51.600647%, 80.970764%, 25.404358%)" fill-opacity="1" d="M 801.289062 5393.308594 C 789.15625 5393.308594 779.289062 5403.179688 779.289062 5415.308594 C 779.289062 5427.441406 789.15625 5437.308594 801.289062 5437.308594 C 813.417969 5437.308594 823.289062 5427.441406 823.289062 5415.308594 C 823.289062 5403.179688 813.417969 5393.308594 801.289062 5393.308594 M 801.289062 5397.308594 C 811.230469 5397.308594 819.289062 5405.367188 819.289062 5415.308594 C 819.289062 5425.25 811.230469 5433.308594 801.289062 5433.308594 C 791.347656 5433.308594 783.289062 5425.25 783.289062 5415.308594 C 783.289062 5405.367188 791.347656 5397.308594 801.289062 5397.308594 "/>
<path xmlns="http://www.w3.org/2000/svg" fill-rule="nonzero" fill="rgb(51.600647%, 80.970764%, 25.404358%)" fill-opacity="1" d="M 684.3125 5393.308594 C 672.179688 5393.308594 662.3125 5403.179688 662.3125 5415.308594 C 662.3125 5427.441406 672.179688 5437.308594 684.3125 5437.308594 C 696.441406 5437.308594 706.3125 5427.441406 706.3125 5415.308594 C 706.3125 5403.179688 696.441406 5393.308594 684.3125 5393.308594 M 684.3125 5397.308594 C 694.253906 5397.308594 702.3125 5405.367188 702.3125 5415.308594 C 702.3125 5425.25 694.253906 5433.308594 684.3125 5433.308594 C 674.371094 5433.308594 666.3125 5425.25 666.3125 5415.308594 C 666.3125 5405.367188 674.371094 5397.308594 684.3125 5397.308594 "/>
<path xmlns="http://www.w3.org/2000/svg" fill-rule="nonzero" fill="rgb(51.600647%, 80.970764%, 25.404358%)" fill-opacity="1" d="M 567.335938 5393.308594 C 555.203125 5393.308594 545.335938 5403.179688 545.335938 5415.308594 C 545.335938 5427.441406 555.203125 5437.308594 567.335938 5437.308594 C 579.464844 5437.308594 589.335938 5427.441406 589.335938 5415.308594 C 589.335938 5403.179688 579.464844 5393.308594 567.335938 5393.308594 M 567.335938 5397.308594 C 577.277344 5397.308594 585.335938 5405.367188 585.335938 5415.308594 C 585.335938 5425.25 577.277344 5433.308594 567.335938 5433.308594 C 557.394531 5433.308594 549.335938 5425.25 549.335938 5415.308594 C 549.335938 5405.367188 557.394531 5397.308594 567.335938 5397.308594 "/>
<path xmlns="http://www.w3.org/2000/svg" fill-rule="nonzero" fill="rgb(51.600647%, 80.970764%, 25.404358%)" fill-opacity="1" d="M 450.355469 5393.308594 C 438.226562 5393.308594 428.355469 5403.179688 428.355469 5415.308594 C 428.355469 5427.441406 438.226562 5437.308594 450.355469 5437.308594 C 462.488281 5437.308594 472.355469 5427.441406 472.355469 5415.308594 C 472.355469 5403.179688 462.488281 5393.308594 450.355469 5393.308594 M 450.355469 5397.308594 C 460.296875 5397.308594 468.355469 5405.367188 468.355469 5415.308594 C 468.355469 5425.25 460.296875 5433.308594 450.355469 5433.308594 C 440.417969 5433.308594 432.355469 5425.25 432.355469 5415.308594 C 432.355469 5405.367188 440.417969 5397.308594 450.355469 5397.308594 "/>
<path xmlns="http://www.w3.org/2000/svg" fill-rule="nonzero" fill="rgb(51.600647%, 80.970764%, 25.404358%)" fill-opacity="1" d="M 333.378906 5393.308594 C 321.25 5393.308594 311.378906 5403.179688 311.378906 5415.308594 C 311.378906 5427.441406 321.25 5437.308594 333.378906 5437.308594 C 345.511719 5437.308594 355.378906 5427.441406 355.378906 5415.308594 C 355.378906 5403.179688 345.511719 5393.308594 333.378906 5393.308594 M 333.378906 5397.308594 C 343.320312 5397.308594 351.378906 5405.367188 351.378906 5415.308594 C 351.378906 5425.25 343.320312 5433.308594 333.378906 5433.308594 C 323.4375 5433.308594 315.378906 5425.25 315.378906 5415.308594 C 315.378906 5405.367188 323.4375 5397.308594 333.378906 5397.308594 "/>
<path xmlns="http://www.w3.org/2000/svg" fill="none" stroke-width="20" stroke-linecap="butt" stroke-linejoin="miter" stroke="rgb(17.422485%, 59.93042%, 31.144714%)" stroke-opacity="1" stroke-miterlimit="10" d="M -0.00038125 -0.00134375 L 254.382431 -0.00134375 " transform="matrix(1, 0, 0, -1, 74.5746, 5373.901)"/>
<path xmlns="http://www.w3.org/2000/svg" fill-rule="nonzero" fill="rgb(17.422485%, 59.93042%, 31.144714%)" fill-opacity="1" d="M 343.277344 5352.046875 L 323.277344 5352.046875 C 317.109375 5352.046875 312.089844 5357.066406 312.089844 5363.238281 L 312.089844 5384.5625 C 312.089844 5390.734375 317.109375 5395.753906 323.277344 5395.753906 L 343.277344 5395.753906 C 349.449219 5395.753906 354.46875 5390.734375 354.46875 5384.5625 L 354.46875 5363.238281 C 354.46875 5357.066406 349.449219 5352.046875 343.277344 5352.046875 M 343.277344 5355.902344 C 347.3125 5355.902344 350.617188 5359.203125 350.617188 5363.238281 L 350.617188 5384.5625 C 350.617188 5388.597656 347.3125 5391.902344 343.277344 5391.902344 L 323.277344 5391.902344 C 319.242188 5391.902344 315.941406 5388.597656 315.941406 5384.5625 L 315.941406 5363.238281 C 315.941406 5359.203125 319.242188 5355.902344 323.277344 5355.902344 Z M 343.277344 5355.902344 "/>
<path xmlns="http://www.w3.org/2000/svg" fill-rule="nonzero" fill="rgb(82.23114%, 14.726257%, 60.897827%)" fill-opacity="1" d="M 2435.328125 5774.417969 L 2392.070312 5774.417969 C 2380.480469 5774.417969 2371.082031 5765.023438 2371.082031 5753.429688 C 2371.082031 5741.839844 2380.480469 5732.441406 2392.070312 5732.441406 L 2435.328125 5732.441406 C 2446.917969 5732.441406 2456.316406 5741.839844 2456.316406 5753.429688 C 2456.316406 5765.023438 2446.917969 5774.417969 2435.328125 5774.417969 "/>
<path xmlns="http://www.w3.org/2000/svg" fill-rule="nonzero" fill="rgb(79.86145%, 11.026001%, 30.502319%)" fill-opacity="1" d="M 2382.609375 5814.746094 C 2357.175781 5814.746094 2336.480469 5835.441406 2336.480469 5860.875 C 2336.480469 5886.3125 2357.175781 5907.003906 2382.609375 5907.003906 C 2408.046875 5907.003906 2428.738281 5886.3125 2428.738281 5860.875 C 2428.738281 5835.441406 2408.046875 5814.746094 2382.609375 5814.746094 M 2382.609375 5827.28125 C 2401.164062 5827.28125 2416.203125 5842.324219 2416.203125 5860.875 C 2416.203125 5879.429688 2401.164062 5894.46875 2382.609375 5894.46875 C 2364.058594 5894.46875 2349.015625 5879.429688 2349.015625 5860.875 C 2349.015625 5842.324219 2364.058594 5827.28125 2382.609375 5827.28125 "/>
<path xmlns="http://www.w3.org/2000/svg" fill-rule="nonzero" fill="rgb(63.301086%, 84.458923%, 21.595764%)" fill-opacity="1" d="M 334.882812 5248.839844 C 309.46875 5248.839844 288.789062 5269.515625 288.789062 5294.933594 C 288.789062 5320.347656 309.46875 5341.027344 334.882812 5341.027344 C 360.300781 5341.027344 380.976562 5320.347656 380.976562 5294.933594 C 380.976562 5269.515625 360.300781 5248.839844 334.882812 5248.839844 M 334.882812 5261.339844 C 353.4375 5261.339844 368.476562 5276.378906 368.476562 5294.933594 C 368.476562 5313.484375 353.4375 5328.527344 334.882812 5328.527344 C 316.328125 5328.527344 301.289062 5313.484375 301.289062 5294.933594 C 301.289062 5276.378906 316.328125 5261.339844 334.882812 5261.339844 "/>
</svg>
