<?xml version="1.0" encoding="UTF-8"?>
<svg xmlns="http://www.w3.org/2000/svg" xmlns:xlink="http://www.w3.org/1999/xlink" viewBox="0 5045.16 2378.3925 1681.72" width="2378.3925" height="1681.72">
<path xmlns="http://www.w3.org/2000/svg" fill-rule="nonzero" fill="rgb(100%, 100%, 100%)" fill-opacity="1" d="M 2185.757812 5174.511719 C 2174.730469 5174.511719 2165.757812 5165.539062 2165.757812 5154.511719 C 2165.757812 5143.484375 2174.730469 5134.511719 2185.757812 5134.511719 C 2196.785156 5134.511719 2205.757812 5143.484375 2205.757812 5154.511719 C 2205.757812 5165.539062 2196.785156 5174.511719 2185.757812 5174.511719 "/>
<path xmlns="http://www.w3.org/2000/svg" fill-rule="nonzero" fill="rgb(100%, 100%, 100%)" fill-opacity="1" d="M 2098.253906 5262.015625 C 2087.222656 5262.015625 2078.253906 5253.046875 2078.253906 5242.015625 C 2078.253906 5230.992188 2087.222656 5222.015625 2098.253906 5222.015625 C 2109.28125 5222.015625 2118.253906 5230.992188 2118.253906 5242.015625 C 2118.253906 5253.046875 2109.28125 5262.015625 2098.253906 5262.015625 "/>
<path xmlns="http://www.w3.org/2000/svg" fill-rule="nonzero" fill="rgb(100%, 100%, 100%)" fill-opacity="1" d="M 1996.617188 5363.652344 C 1985.589844 5363.652344 1976.617188 5354.679688 1976.617188 5343.652344 C 1976.617188 5332.625 1985.589844 5323.652344 1996.617188 5323.652344 C 2007.644531 5323.652344 2016.617188 5332.625 2016.617188 5343.652344 C 2016.617188 5354.679688 2007.644531 5363.652344 1996.617188 5363.652344 "/>
<path xmlns="http://www.w3.org/2000/svg" fill-rule="nonzero" fill="rgb(100%, 100%, 100%)" fill-opacity="1" d="M 1855.085938 5435.308594 C 1844.058594 5435.308594 1835.085938 5426.335938 1835.085938 5415.308594 C 1835.085938 5404.28125 1844.058594 5395.308594 1855.085938 5395.308594 C 1866.113281 5395.308594 1875.085938 5404.28125 1875.085938 5415.308594 C 1875.085938 5426.335938 1866.113281 5435.308594 1855.085938 5435.308594 "/>
<path xmlns="http://www.w3.org/2000/svg" fill-rule="nonzero" fill="rgb(100%, 100%, 100%)" fill-opacity="1" d="M 1854.085938 5435.308594 C 1843.058594 5435.308594 1834.085938 5426.335938 1834.085938 5415.308594 C 1834.085938 5404.28125 1843.058594 5395.308594 1854.085938 5395.308594 C 1865.113281 5395.308594 1874.085938 5404.28125 1874.085938 5415.308594 C 1874.085938 5426.335938 1865.113281 5435.308594 1854.085938 5435.308594 "/>
<path xmlns="http://www.w3.org/2000/svg" fill-rule="nonzero" fill="rgb(100%, 100%, 100%)" fill-opacity="1" d="M 1737.109375 5435.308594 C 1726.078125 5435.308594 1717.109375 5426.335938 1717.109375 5415.308594 C 1717.109375 5404.28125 1726.078125 5395.308594 1737.109375 5395.308594 C 1748.136719 5395.308594 1757.109375 5404.28125 1757.109375 5415.308594 C 1757.109375 5426.335938 1748.136719 5435.308594 1737.109375 5435.308594 "/>
<path xmlns="http://www.w3.org/2000/svg" fill-rule="nonzero" fill="rgb(100%, 100%, 100%)" fill-opacity="1" d="M 1620.128906 5435.308594 C 1609.101562 5435.308594 1600.128906 5426.335938 1600.128906 5415.308594 C 1600.128906 5404.28125 1609.101562 5395.308594 1620.128906 5395.308594 C 1631.15625 5395.308594 1640.128906 5404.28125 1640.128906 5415.308594 C 1640.128906 5426.335938 1631.15625 5435.308594 1620.128906 5435.308594 "/>
<path xmlns="http://www.w3.org/2000/svg" fill-rule="nonzero" fill="rgb(100%, 100%, 100%)" fill-opacity="1" d="M 1503.152344 5435.308594 C 1492.125 5435.308594 1483.152344 5426.335938 1483.152344 5415.308594 C 1483.152344 5404.28125 1492.125 5395.308594 1503.152344 5395.308594 C 1514.179688 5395.308594 1523.152344 5404.28125 1523.152344 5415.308594 C 1523.152344 5426.335938 1514.179688 5435.308594 1503.152344 5435.308594 "/>
<path xmlns="http://www.w3.org/2000/svg" fill-rule="nonzero" fill="rgb(100%, 100%, 100%)" fill-opacity="1" d="M 1386.175781 5435.308594 C 1375.148438 5435.308594 1366.175781 5426.335938 1366.175781 5415.308594 C 1366.175781 5404.28125 1375.148438 5395.308594 1386.175781 5395.308594 C 1397.203125 5395.308594 1406.175781 5404.28125 1406.175781 5415.308594 C 1406.175781 5426.335938 1397.203125 5435.308594 1386.175781 5435.308594 "/>
<path xmlns="http://www.w3.org/2000/svg" fill-rule="nonzero" fill="rgb(100%, 100%, 100%)" fill-opacity="1" d="M 1269.199219 5435.308594 C 1258.171875 5435.308594 1249.199219 5426.335938 1249.199219 5415.308594 C 1249.199219 5404.28125 1258.171875 5395.308594 1269.199219 5395.308594 C 1280.226562 5395.308594 1289.199219 5404.28125 1289.199219 5415.308594 C 1289.199219 5426.335938 1280.226562 5435.308594 1269.199219 5435.308594 "/>
<path xmlns="http://www.w3.org/2000/svg" fill-rule="nonzero" fill="rgb(100%, 100%, 100%)" fill-opacity="1" d="M 1152.222656 5435.308594 C 1141.191406 5435.308594 1132.222656 5426.335938 1132.222656 5415.308594 C 1132.222656 5404.28125 1141.191406 5395.308594 1152.222656 5395.308594 C 1163.25 5395.308594 1172.222656 5404.28125 1172.222656 5415.308594 C 1172.222656 5426.335938 1163.25 5435.308594 1152.222656 5435.308594 "/>
<path xmlns="http://www.w3.org/2000/svg" fill-rule="nonzero" fill="rgb(100%, 100%, 100%)" fill-opacity="1" d="M 1035.242188 5435.308594 C 1024.214844 5435.308594 1015.242188 5426.335938 1015.242188 5415.308594 C 1015.242188 5404.28125 1024.214844 5395.308594 1035.242188 5395.308594 C 1046.273438 5395.308594 1055.242188 5404.28125 1055.242188 5415.308594 C 1055.242188 5426.335938 1046.273438 5435.308594 1035.242188 5435.308594 "/>
<path xmlns="http://www.w3.org/2000/svg" fill-rule="nonzero" fill="rgb(100%, 100%, 100%)" fill-opacity="1" d="M 918.265625 5435.308594 C 907.238281 5435.308594 898.265625 5426.335938 898.265625 5415.308594 C 898.265625 5404.28125 907.238281 5395.308594 918.265625 5395.308594 C 929.292969 5395.308594 938.265625 5404.28125 938.265625 5415.308594 C 938.265625 5426.335938 929.292969 5435.308594 918.265625 5435.308594 "/>
<path xmlns="http://www.w3.org/2000/svg" fill-rule="nonzero" fill="rgb(100%, 100%, 100%)" fill-opacity="1" d="M 801.289062 5435.308594 C 790.261719 5435.308594 781.289062 5426.335938 781.289062 5415.308594 C 781.289062 5404.28125 790.261719 5395.308594 801.289062 5395.308594 C 812.316406 5395.308594 821.289062 5404.28125 821.289062 5415.308594 C 821.289062 5426.335938 812.316406 5435.308594 801.289062 5435.308594 "/>
<path xmlns="http://www.w3.org/2000/svg" fill-rule="nonzero" fill="rgb(100%, 100%, 100%)" fill-opacity="1" d="M 684.3125 5435.308594 C 673.285156 5435.308594 664.3125 5426.335938 664.3125 5415.308594 C 664.3125 5404.28125 673.285156 5395.308594 684.3125 5395.308594 C 695.339844 5395.308594 704.3125 5404.28125 704.3125 5415.308594 C 704.3125 5426.335938 695.339844 5435.308594 684.3125 5435.308594 "/>
<path xmlns="http://www.w3.org/2000/svg" fill-rule="nonzero" fill="rgb(100%, 100%, 100%)" fill-opacity="1" d="M 567.335938 5435.308594 C 556.304688 5435.308594 547.335938 5426.335938 547.335938 5415.308594 C 547.335938 5404.28125 556.304688 5395.308594 567.335938 5395.308594 C 578.363281 5395.308594 587.335938 5404.28125 587.335938 5415.308594 C 587.335938 5426.335938 578.363281 5435.308594 567.335938 5435.308594 "/>
<path xmlns="http://www.w3.org/2000/svg" fill-rule="nonzero" fill="rgb(100%, 100%, 100%)" fill-opacity="1" d="M 450.355469 5435.308594 C 439.328125 5435.308594 430.355469 5426.335938 430.355469 5415.308594 C 430.355469 5404.28125 439.328125 5395.308594 450.355469 5395.308594 C 461.386719 5395.308594 470.355469 5404.28125 470.355469 5415.308594 C 470.355469 5426.335938 461.386719 5435.308594 450.355469 5435.308594 "/>
<path xmlns="http://www.w3.org/2000/svg" fill-rule="nonzero" fill="rgb(100%, 100%, 100%)" fill-opacity="1" d="M 333.378906 5435.308594 C 322.351562 5435.308594 313.378906 5426.335938 313.378906 5415.308594 C 313.378906 5404.28125 322.351562 5395.308594 333.378906 5395.308594 C 344.40625 5395.308594 353.378906 5404.28125 353.378906 5415.308594 C 353.378906 5426.335938 344.40625 5435.308594 333.378906 5435.308594 "/>
<path xmlns="http://www.w3.org/2000/svg" fill-rule="nonzero" fill="rgb(100%, 100%, 100%)" fill-opacity="1" d="M 323.277344 5393.828125 C 318.171875 5393.828125 314.015625 5389.671875 314.015625 5384.5625 L 314.015625 5363.238281 C 314.015625 5358.128906 318.171875 5353.972656 323.277344 5353.972656 L 343.277344 5353.972656 C 348.386719 5353.972656 352.542969 5358.128906 352.542969 5363.238281 L 352.542969 5384.5625 C 352.542969 5389.671875 348.386719 5393.828125 343.277344 5393.828125 Z M 323.277344 5393.828125 "/>
<path xmlns="http://www.w3.org/2000/svg" fill-rule="nonzero" fill="rgb(100%, 100%, 100%)" fill-opacity="1" d="M 2382.609375 5900.738281 C 2360.628906 5900.738281 2342.75 5882.855469 2342.75 5860.875 C 2342.75 5838.894531 2360.628906 5821.015625 2382.609375 5821.015625 C 2404.589844 5821.015625 2422.472656 5838.894531 2422.472656 5860.875 C 2422.472656 5882.855469 2404.589844 5900.738281 2382.609375 5900.738281 "/>
<path xmlns="http://www.w3.org/2000/svg" fill-rule="nonzero" fill="rgb(100%, 100%, 100%)" fill-opacity="1" d="M 334.882812 5334.773438 C 312.914062 5334.773438 295.039062 5316.902344 295.039062 5294.933594 C 295.039062 5272.960938 312.914062 5255.089844 334.882812 5255.089844 C 356.851562 5255.089844 374.726562 5272.960938 374.726562 5294.933594 C 374.726562 5316.902344 356.851562 5334.773438 334.882812 5334.773438 "/>
</svg>
