<?xml version="1.0" encoding="UTF-8"?>
<svg xmlns="http://www.w3.org/2000/svg" xmlns:xlink="http://www.w3.org/1999/xlink" viewBox="7135.1775 1681.72 2378.3925 1681.72" width="2378.3925" height="1681.72">
<path xmlns="http://www.w3.org/2000/svg" fill-rule="nonzero" fill="rgb(10.572815%, 9.655762%, 10.258484%)" fill-opacity="1" d="M 7203.425781 3170.269531 C 7195.984375 3170.269531 7189.925781 3176.324219 7189.925781 3183.769531 C 7189.925781 3191.210938 7195.984375 3197.269531 7203.425781 3197.269531 C 7210.871094 3197.269531 7216.925781 3191.210938 7216.925781 3183.769531 C 7216.925781 3176.324219 7210.871094 3170.269531 7203.425781 3170.269531 M 7203.425781 3174.769531 C 7208.398438 3174.769531 7212.425781 3178.796875 7212.425781 3183.769531 C 7212.425781 3188.738281 7208.398438 3192.769531 7203.425781 3192.769531 C 7198.457031 3192.769531 7194.425781 3188.738281 7194.425781 3183.769531 C 7194.425781 3178.796875 7198.457031 3174.769531 7203.425781 3174.769531 "/>
<path xmlns="http://www.w3.org/2000/svg" fill-rule="nonzero" fill="rgb(10.572815%, 9.655762%, 10.258484%)" fill-opacity="1" d="M 7383.367188 3170.269531 C 7379.761719 3170.269531 7376.371094 3171.671875 7373.820312 3174.222656 C 7371.273438 3176.773438 7369.867188 3180.164062 7369.867188 3183.769531 C 7369.867188 3187.375 7371.273438 3190.765625 7373.820312 3193.3125 C 7376.371094 3195.863281 7379.761719 3197.269531 7383.367188 3197.269531 C 7386.972656 3197.269531 7390.363281 3195.863281 7392.914062 3193.3125 C 7395.464844 3190.765625 7396.867188 3187.375 7396.867188 3183.769531 C 7396.867188 3180.164062 7395.464844 3176.773438 7392.914062 3174.222656 C 7390.363281 3171.671875 7386.972656 3170.269531 7383.367188 3170.269531 M 7383.367188 3174.769531 C 7385.671875 3174.769531 7387.972656 3175.648438 7389.730469 3177.40625 C 7393.246094 3180.917969 7393.246094 3186.617188 7389.730469 3190.132812 C 7387.972656 3191.890625 7385.671875 3192.769531 7383.367188 3192.769531 C 7381.066406 3192.769531 7378.761719 3191.890625 7377.003906 3190.132812 C 7373.488281 3186.617188 7373.488281 3180.917969 7377.003906 3177.40625 C 7378.761719 3175.648438 7381.066406 3174.769531 7383.367188 3174.769531 "/>
<path xmlns="http://www.w3.org/2000/svg" fill-rule="nonzero" fill="rgb(10.572815%, 9.655762%, 10.258484%)" fill-opacity="1" d="M 7383.367188 3143.308594 C 7379.761719 3143.308594 7376.371094 3144.710938 7373.820312 3147.261719 C 7371.273438 3149.8125 7369.867188 3153.199219 7369.867188 3156.808594 C 7369.867188 3160.414062 7371.273438 3163.804688 7373.820312 3166.351562 C 7376.371094 3168.902344 7379.761719 3170.308594 7383.367188 3170.308594 C 7386.972656 3170.308594 7390.363281 3168.902344 7392.914062 3166.351562 C 7395.464844 3163.804688 7396.867188 3160.414062 7396.867188 3156.808594 C 7396.867188 3153.199219 7395.464844 3149.8125 7392.914062 3147.261719 C 7390.363281 3144.710938 7386.972656 3143.308594 7383.367188 3143.308594 M 7383.367188 3147.808594 C 7385.671875 3147.808594 7387.972656 3148.6875 7389.730469 3150.441406 C 7393.246094 3153.957031 7393.246094 3159.65625 7389.730469 3163.171875 C 7387.972656 3164.929688 7385.671875 3165.808594 7383.367188 3165.808594 C 7381.066406 3165.808594 7378.761719 3164.929688 7377.003906 3163.171875 C 7373.488281 3159.65625 7373.488281 3153.957031 7377.003906 3150.441406 C 7378.761719 3148.6875 7381.066406 3147.808594 7383.367188 3147.808594 "/>
<path xmlns="http://www.w3.org/2000/svg" fill-rule="nonzero" fill="rgb(10.572815%, 9.655762%, 10.258484%)" fill-opacity="1" d="M 7429.371094 3352.582031 C 7421.929688 3352.582031 7415.871094 3358.636719 7415.871094 3366.082031 C 7415.871094 3373.527344 7421.929688 3379.582031 7429.371094 3379.582031 C 7436.816406 3379.582031 7442.871094 3373.527344 7442.871094 3366.082031 C 7442.871094 3358.636719 7436.816406 3352.582031 7429.371094 3352.582031 M 7429.371094 3357.082031 C 7434.34375 3357.082031 7438.371094 3361.113281 7438.371094 3366.082031 C 7438.371094 3371.050781 7434.34375 3375.082031 7429.371094 3375.082031 C 7424.402344 3375.082031 7420.371094 3371.050781 7420.371094 3366.082031 C 7420.371094 3361.113281 7424.402344 3357.082031 7429.371094 3357.082031 "/>
<path xmlns="http://www.w3.org/2000/svg" fill-rule="nonzero" fill="rgb(100%, 100%, 100%)" fill-opacity="1" d="M 7276.339844 2427.300781 C 7264.484375 2427.300781 7254.839844 2417.65625 7254.839844 2405.800781 C 7254.839844 2393.945312 7264.484375 2384.300781 7276.339844 2384.300781 C 7288.195312 2384.300781 7297.839844 2393.945312 7297.839844 2405.800781 C 7297.839844 2417.65625 7288.195312 2427.300781 7276.339844 2427.300781 "/>
<path xmlns="http://www.w3.org/2000/svg" fill-rule="nonzero" fill="rgb(10.580444%, 9.895325%, 9.506226%)" fill-opacity="1" d="M 7148.558594 2647.582031 C 7148.558594 2650.097656 7147.699219 2652.164062 7145.949219 2653.785156 C 7144.199219 2655.410156 7142.003906 2656.238281 7139.300781 2656.238281 C 7136.148438 2656.238281 7133.730469 2655.695312 7132.078125 2654.613281 L 7133.574219 2650.097656 C 7134.8125 2650.957031 7136.308594 2651.367188 7138.027344 2651.367188 C 7139.140625 2651.367188 7140.03125 2651.082031 7140.699219 2650.480469 C 7141.367188 2649.875 7141.6875 2649.078125 7141.6875 2648.09375 C 7141.6875 2647.199219 7141.398438 2646.46875 7140.796875 2645.898438 C 7140.222656 2645.292969 7139.238281 2644.65625 7137.835938 2644.019531 C 7134.175781 2642.398438 7132.332031 2639.851562 7132.332031 2636.414062 C 7132.332031 2634.027344 7133.128906 2631.992188 7134.75 2630.371094 C 7136.371094 2628.75 7138.472656 2627.921875 7141.082031 2627.921875 C 7143.785156 2627.921875 7145.917969 2628.460938 7147.539062 2629.511719 L 7146.171875 2633.457031 C 7144.898438 2632.660156 7143.5 2632.246094 7142.035156 2632.246094 C 7139.808594 2632.246094 7138.695312 2633.296875 7138.695312 2635.398438 C 7138.695312 2636.320312 7139.011719 2637.113281 7139.679688 2637.753906 C 7140.222656 2638.292969 7141.113281 2638.832031 7142.417969 2639.4375 C 7144.835938 2640.519531 7146.523438 2641.824219 7147.476562 2643.351562 C 7148.207031 2644.496094 7148.558594 2645.898438 7148.558594 2647.582031 "/>
<path xmlns="http://www.w3.org/2000/svg" fill-rule="nonzero" fill="rgb(10.580444%, 9.895325%, 9.506226%)" fill-opacity="1" d="M 7167.488281 2654.742188 C 7165.359375 2655.792969 7162.527344 2656.332031 7158.996094 2656.332031 C 7153.300781 2656.332031 7150.46875 2653.976562 7150.46875 2649.300781 L 7150.46875 2635.652344 L 7156.355469 2635.652344 L 7156.355469 2649.714844 C 7156.355469 2651.496094 7157.277344 2652.386719 7159.152344 2652.386719 C 7160.171875 2652.386719 7160.96875 2652.226562 7161.605469 2651.910156 L 7161.605469 2635.683594 L 7167.488281 2635.683594 Z M 7167.488281 2654.742188 "/>
<path xmlns="http://www.w3.org/2000/svg" fill-rule="nonzero" fill="rgb(10.580444%, 9.895325%, 9.506226%)" fill-opacity="1" d="M 7198.703125 2656.046875 L 7192.785156 2656.046875 L 7192.785156 2641.761719 C 7192.785156 2639.914062 7191.796875 2638.992188 7189.824219 2638.992188 C 7188.773438 2638.992188 7187.917969 2639.308594 7187.25 2639.976562 L 7187.25 2656.046875 L 7181.332031 2656.046875 L 7181.332031 2641.699219 C 7181.332031 2639.914062 7180.28125 2639.023438 7178.148438 2639.023438 C 7177.226562 2639.023438 7176.429688 2639.152344 7175.761719 2639.40625 L 7175.761719 2656.078125 L 7169.84375 2656.078125 L 7169.84375 2636.828125 C 7172.101562 2635.808594 7174.839844 2635.300781 7178.117188 2635.300781 C 7181.011719 2635.300781 7183.175781 2635.96875 7184.605469 2637.339844 C 7186.199219 2635.96875 7188.457031 2635.300781 7191.351562 2635.300781 C 7193.707031 2635.300781 7195.519531 2635.9375 7196.855469 2637.179688 C 7198.097656 2638.324219 7198.703125 2639.851562 7198.703125 2641.761719 Z M 7198.703125 2656.046875 "/>
<path xmlns="http://www.w3.org/2000/svg" fill-rule="nonzero" fill="rgb(10.580444%, 9.895325%, 9.506226%)" fill-opacity="1" d="M 7242.640625 2652.800781 L 7242.640625 2645.417969 C 7240.667969 2645.609375 7239.269531 2645.992188 7238.378906 2646.53125 C 7237.328125 2647.199219 7236.785156 2648.316406 7236.785156 2649.808594 C 7236.785156 2652.070312 7238.027344 2653.183594 7240.476562 2653.183594 C 7241.367188 2653.214844 7242.101562 2653.054688 7242.640625 2652.800781 M 7248.144531 2654.933594 C 7246.269531 2655.949219 7243.597656 2656.429688 7240.191406 2656.429688 C 7234.273438 2656.429688 7231.28125 2654.296875 7231.28125 2650.03125 C 7231.28125 2647.613281 7232.429688 2645.832031 7234.6875 2644.625 C 7236.46875 2643.671875 7239.109375 2643.03125 7242.640625 2642.714844 L 7242.640625 2641.761719 C 7242.640625 2639.945312 7241.433594 2639.054688 7239.046875 2639.054688 C 7237.328125 2639.054688 7235.578125 2639.46875 7233.765625 2640.296875 L 7232.492188 2636.957031 C 7234.941406 2635.9375 7237.488281 2635.429688 7240.160156 2635.429688 C 7245.503906 2635.429688 7248.144531 2637.910156 7248.144531 2642.84375 Z M 7248.144531 2654.933594 "/>
<path xmlns="http://www.w3.org/2000/svg" fill-rule="nonzero" fill="rgb(10.580444%, 9.895325%, 9.506226%)" fill-opacity="1" d="M 7261.476562 2635.492188 L 7260.394531 2639.628906 C 7259.664062 2639.34375 7258.933594 2639.183594 7258.199219 2639.183594 C 7257.53125 2639.183594 7256.960938 2639.3125 7256.449219 2639.535156 L 7256.449219 2656.078125 L 7250.5625 2656.078125 L 7250.5625 2636.925781 C 7252.632812 2635.90625 7255.464844 2635.429688 7259.058594 2635.429688 C 7259.820312 2635.429688 7260.617188 2635.429688 7261.476562 2635.492188 "/>
<path xmlns="http://www.w3.org/2000/svg" fill-rule="nonzero" fill="rgb(10.580444%, 9.895325%, 9.506226%)" fill-opacity="1" d="M 7272.964844 2644.050781 C 7272.964844 2640.582031 7271.847656 2638.867188 7269.621094 2638.867188 C 7268.382812 2638.867188 7267.457031 2639.375 7266.789062 2640.390625 C 7266.089844 2641.507812 7265.773438 2643.066406 7265.898438 2645.101562 Z M 7278.433594 2646.246094 L 7266.25 2647.964844 C 7266.664062 2650.925781 7268.285156 2652.386719 7271.148438 2652.386719 C 7273.25 2652.386719 7275.03125 2652.039062 7276.429688 2651.304688 L 7277.734375 2654.964844 C 7275.761719 2655.953125 7273.34375 2656.429688 7270.449219 2656.429688 C 7267.363281 2656.429688 7264.945312 2655.472656 7263.195312 2653.597656 C 7261.476562 2651.6875 7260.617188 2649.109375 7260.617188 2645.867188 C 7260.617188 2642.652344 7261.414062 2640.105469 7263.035156 2638.230469 C 7264.660156 2636.351562 7266.886719 2635.398438 7269.78125 2635.398438 C 7272.707031 2635.398438 7274.871094 2636.351562 7276.335938 2638.230469 C 7277.863281 2640.105469 7278.5625 2642.78125 7278.433594 2646.246094 "/>
<path xmlns="http://www.w3.org/2000/svg" fill-rule="nonzero" fill="rgb(10.580444%, 9.895325%, 9.506226%)" fill-opacity="1" d="M 7292.785156 2654.964844 C 7291.765625 2655.949219 7290.078125 2656.429688 7287.820312 2656.429688 C 7285.339844 2656.429688 7283.335938 2655.503906 7281.839844 2653.691406 C 7280.25 2651.78125 7279.453125 2649.171875 7279.453125 2645.863281 C 7279.453125 2642.585938 7280.28125 2639.980469 7281.933594 2638.070312 C 7283.429688 2636.289062 7285.402344 2635.398438 7287.789062 2635.398438 C 7289.921875 2635.398438 7291.574219 2635.875 7292.753906 2636.859375 L 7291.542969 2640.105469 C 7290.875 2639.566406 7290.046875 2639.3125 7289.125 2639.3125 C 7286.613281 2639.3125 7285.339844 2641.476562 7285.339844 2645.769531 C 7285.339844 2647.835938 7285.65625 2649.429688 7286.324219 2650.542969 C 7286.992188 2651.65625 7287.882812 2652.230469 7289.09375 2652.230469 C 7290.113281 2652.230469 7290.90625 2651.941406 7291.542969 2651.402344 Z M 7292.785156 2654.964844 "/>
<path xmlns="http://www.w3.org/2000/svg" fill-rule="nonzero" fill="rgb(10.580444%, 9.895325%, 9.506226%)" fill-opacity="1" d="M 7304.589844 2645.832031 C 7304.589844 2641.316406 7303.539062 2639.054688 7301.472656 2639.054688 C 7299.371094 2639.054688 7298.351562 2641.316406 7298.351562 2645.832031 C 7298.351562 2650.257812 7299.402344 2652.449219 7301.472656 2652.449219 C 7303.570312 2652.449219 7304.589844 2650.257812 7304.589844 2645.832031 M 7310.441406 2645.898438 C 7310.441406 2649.015625 7309.679688 2651.527344 7308.183594 2653.40625 C 7306.5625 2655.410156 7304.335938 2656.429688 7301.472656 2656.429688 C 7298.609375 2656.429688 7296.378906 2655.410156 7294.789062 2653.40625 C 7293.261719 2651.527344 7292.5 2649.015625 7292.5 2645.898438 C 7292.5 2642.777344 7293.261719 2640.265625 7294.757812 2638.386719 C 7296.378906 2636.414062 7298.609375 2635.429688 7301.4375 2635.429688 C 7304.300781 2635.429688 7306.53125 2636.414062 7308.152344 2638.386719 C 7309.679688 2640.265625 7310.441406 2642.777344 7310.441406 2645.898438 "/>
<path xmlns="http://www.w3.org/2000/svg" fill-rule="nonzero" fill="rgb(10.580444%, 9.895325%, 9.506226%)" fill-opacity="1" d="M 7329.4375 2656.046875 L 7323.550781 2656.046875 L 7323.550781 2641.855469 C 7323.550781 2639.976562 7322.535156 2639.023438 7320.527344 2639.023438 C 7319.703125 2639.023438 7318.875 2639.152344 7318.046875 2639.4375 L 7318.046875 2656.015625 L 7312.160156 2656.015625 L 7312.160156 2636.859375 C 7314.421875 2635.84375 7317.253906 2635.367188 7320.6875 2635.367188 C 7326.511719 2635.367188 7329.4375 2637.496094 7329.4375 2641.792969 Z M 7329.4375 2656.046875 "/>
<path xmlns="http://www.w3.org/2000/svg" fill-rule="nonzero" fill="rgb(10.580444%, 9.895325%, 9.506226%)" fill-opacity="1" d="M 7368.730469 2655.886719 L 7362.84375 2655.886719 C 7362.78125 2655.285156 7362.367188 2650.222656 7361.542969 2640.773438 C 7361.476562 2639.757812 7361.414062 2638.675781 7361.414062 2637.5625 L 7361.351562 2637.5625 C 7361.253906 2638.070312 7360.96875 2639.152344 7360.554688 2640.773438 L 7356.101562 2655.886719 L 7352.980469 2655.886719 C 7352.726562 2655.1875 7351.230469 2650.160156 7348.527344 2640.773438 C 7348.210938 2639.722656 7347.957031 2638.675781 7347.730469 2637.5625 L 7347.667969 2637.5625 C 7347.730469 2638.640625 7347.699219 2639.722656 7347.605469 2640.773438 L 7346.269531 2655.886719 L 7341.144531 2655.886719 L 7343.945312 2629.605469 L 7349.992188 2629.605469 L 7354.09375 2644.304688 C 7354.382812 2645.292969 7354.605469 2646.277344 7354.796875 2647.234375 L 7354.859375 2647.234375 C 7354.921875 2646.789062 7355.175781 2645.800781 7355.589844 2644.304688 L 7359.917969 2629.605469 L 7365.929688 2629.605469 Z M 7368.730469 2655.886719 "/>
<path xmlns="http://www.w3.org/2000/svg" fill-rule="nonzero" fill="rgb(10.580444%, 9.895325%, 9.506226%)" fill-opacity="1" d="M 7381.011719 2652.738281 L 7381.011719 2645.355469 C 7379.039062 2645.546875 7377.640625 2645.929688 7376.75 2646.5 C 7375.699219 2647.167969 7375.160156 2648.285156 7375.160156 2649.777344 C 7375.160156 2652.039062 7376.398438 2653.183594 7378.847656 2653.183594 C 7379.742188 2653.152344 7380.441406 2653.023438 7381.011719 2652.738281 M 7386.515625 2654.902344 C 7384.640625 2655.917969 7381.96875 2656.394531 7378.53125 2656.394531 C 7372.582031 2656.394531 7369.621094 2654.265625 7369.621094 2650 C 7369.621094 2647.582031 7370.769531 2645.769531 7373.027344 2644.59375 C 7374.808594 2643.636719 7377.480469 2643 7381.011719 2642.683594 L 7381.011719 2641.726562 C 7381.011719 2639.914062 7379.804688 2639.023438 7377.417969 2639.023438 C 7375.699219 2639.023438 7373.949219 2639.4375 7372.136719 2640.265625 L 7370.863281 2636.925781 C 7373.3125 2635.90625 7375.859375 2635.367188 7378.53125 2635.367188 C 7383.875 2635.367188 7386.550781 2637.847656 7386.550781 2642.78125 L 7386.550781 2654.902344 Z M 7386.515625 2654.902344 "/>
<path xmlns="http://www.w3.org/2000/svg" fill-rule="nonzero" fill="rgb(10.580444%, 9.895325%, 9.506226%)" fill-opacity="1" d="M 7394.917969 2655.949219 L 7389.03125 2655.949219 L 7389.03125 2626.457031 L 7394.917969 2626.457031 Z M 7394.917969 2655.949219 "/>
<path xmlns="http://www.w3.org/2000/svg" fill-rule="nonzero" fill="rgb(10.580444%, 9.895325%, 9.506226%)" fill-opacity="1" d="M 7229.785156 2656.046875 L 7223.867188 2656.046875 L 7223.867188 2641.761719 C 7223.867188 2639.914062 7222.882812 2638.992188 7220.910156 2638.992188 C 7219.859375 2638.992188 7219 2639.308594 7218.332031 2639.976562 L 7218.332031 2656.046875 L 7212.414062 2656.046875 L 7212.414062 2641.699219 C 7212.414062 2639.914062 7211.363281 2639.023438 7209.234375 2639.023438 C 7208.3125 2639.023438 7207.515625 2639.152344 7206.847656 2639.40625 L 7206.847656 2656.078125 L 7200.929688 2656.078125 L 7200.929688 2636.828125 C 7203.1875 2635.808594 7205.925781 2635.300781 7209.203125 2635.300781 C 7212.097656 2635.300781 7214.261719 2635.96875 7215.691406 2637.339844 C 7217.28125 2635.96875 7219.542969 2635.300781 7222.4375 2635.300781 C 7224.792969 2635.300781 7226.605469 2635.9375 7227.941406 2637.179688 C 7229.183594 2638.324219 7229.785156 2639.851562 7229.785156 2641.761719 Z M 7229.785156 2656.046875 "/>
<path xmlns="http://www.w3.org/2000/svg" fill-rule="nonzero" fill="rgb(10.580444%, 9.895325%, 9.506226%)" fill-opacity="1" d="M 7403.761719 2655.949219 L 7397.875 2655.949219 L 7397.875 2626.457031 L 7403.761719 2626.457031 Z M 7403.761719 2655.949219 "/>
<path xmlns="http://www.w3.org/2000/svg" fill-rule="nonzero" fill="rgb(100%, 100%, 100%)" fill-opacity="1" d="M 7364.425781 2530.429688 C 7342.457031 2530.429688 7324.582031 2512.554688 7324.582031 2490.585938 C 7324.582031 2468.617188 7342.457031 2450.742188 7364.425781 2450.742188 C 7386.398438 2450.742188 7404.269531 2468.617188 7404.269531 2490.585938 C 7404.269531 2512.554688 7386.398438 2530.429688 7364.425781 2530.429688 "/>
</svg>
