<?xml version="1.0" encoding="UTF-8"?>
<svg xmlns="http://www.w3.org/2000/svg" xmlns:xlink="http://www.w3.org/1999/xlink" viewBox="7135.1775 3363.44 2378.3925 1681.72" width="2378.3925" height="1681.72">
<path xmlns="http://www.w3.org/2000/svg" fill="none" stroke-width="15" stroke-linecap="butt" stroke-linejoin="miter" stroke="rgb(18.229675%, 23.951721%, 61.04126%)" stroke-opacity="1" stroke-miterlimit="10" d="M -0.00048125 -0.00113125 L 1336.921394 -0.00113125 " transform="matrix(1, 0, 0, -1, 6018.1997, 4200.7684)"/>
<path xmlns="http://www.w3.org/2000/svg" fill="none" stroke-width="15" stroke-linecap="butt" stroke-linejoin="miter" stroke="rgb(18.229675%, 23.951721%, 61.04126%)" stroke-opacity="1" stroke-miterlimit="10" d="M 0.00145 -0.00113125 L 95.00145 -0.00113125 C 117.091294 -0.00113125 135.00145 17.909025 135.00145 39.998869 L 135.00145 255.041837 C 135.00145 285.670744 159.829575 310.498869 190.458481 310.498869 L 319.50145 310.498869 L 313.067856 310.498869 " transform="matrix(1, 0, 0, -1, 7278.0923, 4200.7684)"/>
<path xmlns="http://www.w3.org/2000/svg" fill="none" stroke-width="25" stroke-linecap="butt" stroke-linejoin="miter" stroke="rgb(31.402588%, 76.568604%, 94.60907%)" stroke-opacity="1" stroke-miterlimit="10" d="M -0.0012625 -0.00113125 L -0.0012625 -411.579256 L 0.104206 -540.184725 C 0.154987 -651.301913 90.248737 -741.352694 201.365925 -741.352694 L 470.119831 -741.352694 L 665.998737 -741.270663 L 859.498737 -741.270663 L 1622.362019 -744.860506 L 1642.498737 -744.860506 C 1695.873737 -744.860506 1747.065144 -766.063631 1784.807331 -803.809725 L 2113.362019 -1132.364413 C 2151.315144 -1170.313631 2202.854206 -1191.536288 2256.526081 -1191.309725 L 3037.498737 -1188.001131 L 5118.033894 -1188.016756 L 5341.526081 -1188.016756 " transform="matrix(1, 0, 0, -1, 2958.3997, 2931.7684)"/>
<path xmlns="http://www.w3.org/2000/svg" fill="none" stroke-width="25" stroke-linecap="butt" stroke-linejoin="miter" stroke="rgb(94.920349%, 34.173584%, 16.610718%)" stroke-opacity="1" stroke-miterlimit="10" d="M -0.00099375 -0.00088125 C -99.41115 -0.00088125 -180.000994 -80.590725 -180.000994 -180.000881 L -180.000994 -1181.114163 " transform="matrix(1, 0, 0, -1, 7272.8799, 2405.7999)"/>
<path xmlns="http://www.w3.org/2000/svg" fill="none" stroke-width="25" stroke-linecap="butt" stroke-linejoin="miter" stroke="rgb(31.402588%, 76.568604%, 94.60907%)" stroke-opacity="1" stroke-miterlimit="10" d="M 0.00098125 -0.00113125 L 190.915044 -0.00113125 " transform="matrix(1, 0, 0, -1, 8074.7998, 4119.7684)"/>
<path xmlns="http://www.w3.org/2000/svg" fill="none" stroke-width="25" stroke-linecap="butt" stroke-linejoin="miter" stroke="rgb(12.625122%, 41.371155%, 23.204041%)" stroke-opacity="1" stroke-miterlimit="10" d="M 0.0005375 -0.00193125 L -3662.530712 -0.00193125 C -3754.456494 -0.00193125 -3828.979931 74.521506 -3828.979931 166.447288 L -3828.979931 753.138694 C -3828.979931 864.291038 -3919.0854 954.400413 -4030.237744 954.400413 L -4326.7104 954.400413 " transform="matrix(1, 0, 0, -1, 8163.2104, 4809.0176)"/>
<path xmlns="http://www.w3.org/2000/svg" fill-rule="nonzero" fill="rgb(12.625122%, 41.371155%, 23.204041%)" fill-opacity="1" d="M 8163.210938 4836.582031 C 8137.796875 4836.582031 8117.117188 4857.257812 8117.117188 4882.675781 C 8117.117188 4908.089844 8137.796875 4928.769531 8163.210938 4928.769531 C 8188.628906 4928.769531 8209.304688 4908.089844 8209.304688 4882.675781 C 8209.304688 4857.257812 8188.628906 4836.582031 8163.210938 4836.582031 M 8163.210938 4849.082031 C 8181.765625 4849.082031 8196.804688 4864.121094 8196.804688 4882.675781 C 8196.804688 4901.226562 8181.765625 4916.269531 8163.210938 4916.269531 C 8144.660156 4916.269531 8129.617188 4901.226562 8129.617188 4882.675781 C 8129.617188 4864.121094 8144.660156 4849.082031 8163.210938 4849.082031 "/>
<path xmlns="http://www.w3.org/2000/svg" fill-rule="nonzero" fill="rgb(12.625122%, 41.371155%, 23.204041%)" fill-opacity="1" d="M 7713.824219 4787.019531 C 7701.695312 4787.019531 7691.824219 4796.890625 7691.824219 4809.019531 C 7691.824219 4821.152344 7701.695312 4831.019531 7713.824219 4831.019531 C 7725.953125 4831.019531 7735.824219 4821.152344 7735.824219 4809.019531 C 7735.824219 4796.890625 7725.953125 4787.019531 7713.824219 4787.019531 M 7713.824219 4791.019531 C 7723.765625 4791.019531 7731.824219 4799.078125 7731.824219 4809.019531 C 7731.824219 4818.960938 7723.765625 4827.019531 7713.824219 4827.019531 C 7703.882812 4827.019531 7695.824219 4818.960938 7695.824219 4809.019531 C 7695.824219 4799.078125 7703.882812 4791.019531 7713.824219 4791.019531 "/>
<path xmlns="http://www.w3.org/2000/svg" fill-rule="nonzero" fill="rgb(12.625122%, 41.371155%, 23.204041%)" fill-opacity="1" d="M 7825.921875 4787.019531 C 7813.792969 4787.019531 7803.921875 4796.890625 7803.921875 4809.019531 C 7803.921875 4821.152344 7813.792969 4831.019531 7825.921875 4831.019531 C 7838.054688 4831.019531 7847.921875 4821.152344 7847.921875 4809.019531 C 7847.921875 4796.890625 7838.054688 4787.019531 7825.921875 4787.019531 M 7825.921875 4791.019531 C 7835.863281 4791.019531 7843.921875 4799.078125 7843.921875 4809.019531 C 7843.921875 4818.960938 7835.863281 4827.019531 7825.921875 4827.019531 C 7815.980469 4827.019531 7807.921875 4818.960938 7807.921875 4809.019531 C 7807.921875 4799.078125 7815.980469 4791.019531 7825.921875 4791.019531 "/>
<path xmlns="http://www.w3.org/2000/svg" fill-rule="nonzero" fill="rgb(12.625122%, 41.371155%, 23.204041%)" fill-opacity="1" d="M 7938.019531 4787.019531 C 7925.890625 4787.019531 7916.019531 4796.890625 7916.019531 4809.019531 C 7916.019531 4821.152344 7925.890625 4831.019531 7938.019531 4831.019531 C 7950.152344 4831.019531 7960.019531 4821.152344 7960.019531 4809.019531 C 7960.019531 4796.890625 7950.152344 4787.019531 7938.019531 4787.019531 M 7938.019531 4791.019531 C 7947.960938 4791.019531 7956.019531 4799.078125 7956.019531 4809.019531 C 7956.019531 4818.960938 7947.960938 4827.019531 7938.019531 4827.019531 C 7928.078125 4827.019531 7920.019531 4818.960938 7920.019531 4809.019531 C 7920.019531 4799.078125 7928.078125 4791.019531 7938.019531 4791.019531 "/>
<path xmlns="http://www.w3.org/2000/svg" fill-rule="nonzero" fill="rgb(12.625122%, 41.371155%, 23.204041%)" fill-opacity="1" d="M 8050.199219 4787.019531 C 8038.066406 4787.019531 8028.199219 4796.890625 8028.199219 4809.019531 C 8028.199219 4821.152344 8038.066406 4831.019531 8050.199219 4831.019531 C 8062.328125 4831.019531 8072.199219 4821.152344 8072.199219 4809.019531 C 8072.199219 4796.890625 8062.328125 4787.019531 8050.199219 4787.019531 M 8050.199219 4791.019531 C 8060.136719 4791.019531 8068.199219 4799.078125 8068.199219 4809.019531 C 8068.199219 4818.960938 8060.136719 4827.019531 8050.199219 4827.019531 C 8040.257812 4827.019531 8032.199219 4818.960938 8032.199219 4809.019531 C 8032.199219 4799.078125 8040.257812 4791.019531 8050.199219 4791.019531 "/>
<path xmlns="http://www.w3.org/2000/svg" fill-rule="nonzero" fill="rgb(12.625122%, 41.371155%, 23.204041%)" fill-opacity="1" d="M 8163.175781 4787.019531 C 8151.042969 4787.019531 8141.175781 4796.890625 8141.175781 4809.019531 C 8141.175781 4821.152344 8151.042969 4831.019531 8163.175781 4831.019531 C 8175.308594 4831.019531 8185.175781 4821.152344 8185.175781 4809.019531 C 8185.175781 4796.890625 8175.308594 4787.019531 8163.175781 4787.019531 M 8163.175781 4791.019531 C 8173.117188 4791.019531 8181.175781 4799.078125 8181.175781 4809.019531 C 8181.175781 4818.960938 8173.117188 4827.019531 8163.175781 4827.019531 C 8153.234375 4827.019531 8145.175781 4818.960938 8145.175781 4809.019531 C 8145.175781 4799.078125 8153.234375 4791.019531 8163.175781 4791.019531 "/>
<path xmlns="http://www.w3.org/2000/svg" fill-rule="nonzero" fill="rgb(31.829834%, 76.496887%, 94.515991%)" fill-opacity="1" d="M 7224.078125 4097.894531 C 7211.945312 4097.894531 7202.078125 4107.761719 7202.078125 4119.894531 C 7202.078125 4132.023438 7211.945312 4141.894531 7224.078125 4141.894531 C 7236.207031 4141.894531 7246.078125 4132.023438 7246.078125 4119.894531 C 7246.078125 4107.761719 7236.207031 4097.894531 7224.078125 4097.894531 M 7224.078125 4101.894531 C 7234.019531 4101.894531 7242.078125 4109.953125 7242.078125 4119.894531 C 7242.078125 4129.832031 7234.019531 4137.894531 7224.078125 4137.894531 C 7214.136719 4137.894531 7206.078125 4129.832031 7206.078125 4119.894531 C 7206.078125 4109.953125 7214.136719 4101.894531 7224.078125 4101.894531 "/>
<path xmlns="http://www.w3.org/2000/svg" fill-rule="nonzero" fill="rgb(31.829834%, 76.496887%, 94.515991%)" fill-opacity="1" d="M 7476.550781 4098.078125 C 7464.417969 4098.078125 7454.550781 4107.949219 7454.550781 4120.078125 C 7454.550781 4132.210938 7464.417969 4142.078125 7476.550781 4142.078125 C 7488.679688 4142.078125 7498.550781 4132.210938 7498.550781 4120.078125 C 7498.550781 4107.949219 7488.679688 4098.078125 7476.550781 4098.078125 M 7476.550781 4102.078125 C 7486.492188 4102.078125 7494.550781 4110.140625 7494.550781 4120.078125 C 7494.550781 4130.019531 7486.492188 4138.078125 7476.550781 4138.078125 C 7466.609375 4138.078125 7458.550781 4130.019531 7458.550781 4120.078125 C 7458.550781 4110.140625 7466.609375 4102.078125 7476.550781 4102.078125 "/>
<path xmlns="http://www.w3.org/2000/svg" fill-rule="nonzero" fill="rgb(31.829834%, 76.496887%, 94.515991%)" fill-opacity="1" d="M 7594.660156 4097.894531 C 7582.527344 4097.894531 7572.660156 4107.761719 7572.660156 4119.894531 C 7572.660156 4132.023438 7582.527344 4141.894531 7594.660156 4141.894531 C 7606.789062 4141.894531 7616.660156 4132.023438 7616.660156 4119.894531 C 7616.660156 4107.761719 7606.789062 4097.894531 7594.660156 4097.894531 M 7594.660156 4101.894531 C 7604.601562 4101.894531 7612.660156 4109.953125 7612.660156 4119.894531 C 7612.660156 4129.832031 7604.601562 4137.894531 7594.660156 4137.894531 C 7584.71875 4137.894531 7576.660156 4129.832031 7576.660156 4119.894531 C 7576.660156 4109.953125 7584.71875 4101.894531 7594.660156 4101.894531 "/>
<path xmlns="http://www.w3.org/2000/svg" fill-rule="nonzero" fill="rgb(31.829834%, 76.496887%, 94.515991%)" fill-opacity="1" d="M 7809.96875 4097.894531 C 7797.835938 4097.894531 7787.96875 4107.761719 7787.96875 4119.894531 C 7787.96875 4132.023438 7797.835938 4141.894531 7809.96875 4141.894531 C 7822.097656 4141.894531 7831.96875 4132.023438 7831.96875 4119.894531 C 7831.96875 4107.761719 7822.097656 4097.894531 7809.96875 4097.894531 M 7809.96875 4101.894531 C 7819.90625 4101.894531 7827.96875 4109.953125 7827.96875 4119.894531 C 7827.96875 4129.832031 7819.90625 4137.894531 7809.96875 4137.894531 C 7800.027344 4137.894531 7791.96875 4129.832031 7791.96875 4119.894531 C 7791.96875 4109.953125 7800.027344 4101.894531 7809.96875 4101.894531 "/>
<path xmlns="http://www.w3.org/2000/svg" fill-rule="nonzero" fill="rgb(31.829834%, 76.496887%, 94.515991%)" fill-opacity="1" d="M 7712.769531 4097.894531 C 7700.636719 4097.894531 7690.769531 4107.761719 7690.769531 4119.894531 C 7690.769531 4132.023438 7700.636719 4141.894531 7712.769531 4141.894531 C 7724.902344 4141.894531 7734.769531 4132.023438 7734.769531 4119.894531 C 7734.769531 4107.761719 7724.902344 4097.894531 7712.769531 4097.894531 M 7712.769531 4101.894531 C 7722.710938 4101.894531 7730.769531 4109.953125 7730.769531 4119.894531 C 7730.769531 4129.832031 7722.710938 4137.894531 7712.769531 4137.894531 C 7702.828125 4137.894531 7694.769531 4129.832031 7694.769531 4119.894531 C 7694.769531 4109.953125 7702.828125 4101.894531 7712.769531 4101.894531 "/>
<path xmlns="http://www.w3.org/2000/svg" fill-rule="nonzero" fill="rgb(31.829834%, 76.496887%, 94.515991%)" fill-opacity="1" d="M 7907.164062 4097.894531 C 7895.03125 4097.894531 7885.164062 4107.761719 7885.164062 4119.894531 C 7885.164062 4132.023438 7895.03125 4141.894531 7907.164062 4141.894531 C 7919.292969 4141.894531 7929.164062 4132.023438 7929.164062 4119.894531 C 7929.164062 4107.761719 7919.292969 4097.894531 7907.164062 4097.894531 M 7907.164062 4101.894531 C 7917.105469 4101.894531 7925.164062 4109.953125 7925.164062 4119.894531 C 7925.164062 4129.832031 7917.105469 4137.894531 7907.164062 4137.894531 C 7897.222656 4137.894531 7889.164062 4129.832031 7889.164062 4119.894531 C 7889.164062 4109.953125 7897.222656 4101.894531 7907.164062 4101.894531 "/>
<path xmlns="http://www.w3.org/2000/svg" fill-rule="nonzero" fill="rgb(31.829834%, 76.496887%, 94.515991%)" fill-opacity="1" d="M 8004.359375 4097.894531 C 7992.230469 4097.894531 7982.359375 4107.761719 7982.359375 4119.894531 C 7982.359375 4132.023438 7992.230469 4141.894531 8004.359375 4141.894531 C 8016.492188 4141.894531 8026.359375 4132.023438 8026.359375 4119.894531 C 8026.359375 4107.761719 8016.492188 4097.894531 8004.359375 4097.894531 M 8004.359375 4101.894531 C 8014.300781 4101.894531 8022.359375 4109.953125 8022.359375 4119.894531 C 8022.359375 4129.832031 8014.300781 4137.894531 8004.359375 4137.894531 C 7994.421875 4137.894531 7986.359375 4129.832031 7986.359375 4119.894531 C 7986.359375 4109.953125 7994.421875 4101.894531 8004.359375 4101.894531 "/>
<path xmlns="http://www.w3.org/2000/svg" fill-rule="nonzero" fill="rgb(31.829834%, 76.496887%, 94.515991%)" fill-opacity="1" d="M 8101.558594 4097.894531 C 8089.429688 4097.894531 8079.558594 4107.761719 8079.558594 4119.894531 C 8079.558594 4132.023438 8089.429688 4141.894531 8101.558594 4141.894531 C 8113.6875 4141.894531 8123.558594 4132.023438 8123.558594 4119.894531 C 8123.558594 4107.761719 8113.6875 4097.894531 8101.558594 4097.894531 M 8101.558594 4101.894531 C 8111.5 4101.894531 8119.558594 4109.953125 8119.558594 4119.894531 C 8119.558594 4129.832031 8111.5 4137.894531 8101.558594 4137.894531 C 8091.617188 4137.894531 8083.558594 4129.832031 8083.558594 4119.894531 C 8083.558594 4109.953125 8091.617188 4101.894531 8101.558594 4101.894531 "/>
<path xmlns="http://www.w3.org/2000/svg" fill-rule="nonzero" fill="rgb(31.829834%, 76.496887%, 94.515991%)" fill-opacity="1" d="M 8198.757812 4097.894531 C 8186.625 4097.894531 8176.757812 4107.761719 8176.757812 4119.894531 C 8176.757812 4132.023438 8186.625 4141.894531 8198.757812 4141.894531 C 8210.886719 4141.894531 8220.757812 4132.023438 8220.757812 4119.894531 C 8220.757812 4107.761719 8210.886719 4097.894531 8198.757812 4097.894531 M 8198.757812 4101.894531 C 8208.695312 4101.894531 8216.757812 4109.953125 8216.757812 4119.894531 C 8216.757812 4129.832031 8208.695312 4137.894531 8198.757812 4137.894531 C 8188.816406 4137.894531 8180.757812 4129.832031 8180.757812 4119.894531 C 8180.757812 4109.953125 8188.816406 4101.894531 8198.757812 4101.894531 "/>
<path xmlns="http://www.w3.org/2000/svg" fill-rule="nonzero" fill="rgb(31.829834%, 76.496887%, 94.515991%)" fill-opacity="1" d="M 8295.953125 4097.894531 C 8283.820312 4097.894531 8273.953125 4107.761719 8273.953125 4119.894531 C 8273.953125 4132.023438 8283.820312 4141.894531 8295.953125 4141.894531 C 8308.085938 4141.894531 8317.953125 4132.023438 8317.953125 4119.894531 C 8317.953125 4107.761719 8308.085938 4097.894531 8295.953125 4097.894531 M 8295.953125 4101.894531 C 8305.894531 4101.894531 8313.953125 4109.953125 8313.953125 4119.894531 C 8313.953125 4129.832031 8305.894531 4137.894531 8295.953125 4137.894531 C 8286.011719 4137.894531 8277.953125 4129.832031 8277.953125 4119.894531 C 8277.953125 4109.953125 8286.011719 4101.894531 8295.953125 4101.894531 "/>
<path xmlns="http://www.w3.org/2000/svg" fill-rule="nonzero" fill="rgb(18.229675%, 23.951721%, 61.04126%)" fill-opacity="1" d="M 7612.007812 3951.9375 L 7568.753906 3951.9375 C 7557.160156 3951.9375 7547.765625 3942.542969 7547.765625 3930.949219 C 7547.765625 3919.355469 7557.160156 3909.960938 7568.753906 3909.960938 L 7612.007812 3909.960938 C 7623.601562 3909.960938 7632.996094 3919.355469 7632.996094 3930.949219 C 7632.996094 3942.542969 7623.601562 3951.9375 7612.007812 3951.9375 "/>
<path xmlns="http://www.w3.org/2000/svg" fill-rule="nonzero" fill="rgb(94.920349%, 34.173584%, 16.610718%)" fill-opacity="1" d="M 7235.394531 3469.804688 C 7209.976562 3469.804688 7189.300781 3490.480469 7189.300781 3515.898438 C 7189.300781 3541.3125 7209.976562 3561.992188 7235.394531 3561.992188 C 7260.808594 3561.992188 7281.488281 3541.3125 7281.488281 3515.898438 C 7281.488281 3490.480469 7260.808594 3469.804688 7235.394531 3469.804688 M 7235.394531 3482.304688 C 7253.949219 3482.304688 7268.988281 3497.34375 7268.988281 3515.898438 C 7268.988281 3534.449219 7253.949219 3549.492188 7235.394531 3549.492188 C 7216.839844 3549.492188 7201.800781 3534.449219 7201.800781 3515.898438 C 7201.800781 3497.34375 7216.839844 3482.304688 7235.394531 3482.304688 "/>
<path xmlns="http://www.w3.org/2000/svg" fill-rule="nonzero" fill="rgb(31.402588%, 76.568604%, 94.60907%)" fill-opacity="1" d="M 8298.910156 4246.503906 C 8273.492188 4246.503906 8252.816406 4267.179688 8252.816406 4292.597656 C 8252.816406 4318.011719 8273.492188 4338.691406 8298.910156 4338.691406 C 8324.324219 4338.691406 8345.003906 4318.011719 8345.003906 4292.597656 C 8345.003906 4267.179688 8324.324219 4246.503906 8298.910156 4246.503906 M 8298.910156 4259.003906 C 8317.464844 4259.003906 8332.503906 4274.042969 8332.503906 4292.597656 C 8332.503906 4311.148438 8317.464844 4326.191406 8298.910156 4326.191406 C 8280.355469 4326.191406 8265.316406 4311.148438 8265.316406 4292.597656 C 8265.316406 4274.042969 8280.355469 4259.003906 8298.910156 4259.003906 "/>
</svg>
