<?xml version="1.0" encoding="UTF-8"?>
<svg xmlns="http://www.w3.org/2000/svg" xmlns:xlink="http://www.w3.org/1999/xlink" viewBox="2378.3925 0 2378.3925 1681.72" width="2378.3925" height="1681.72">
<path xmlns="http://www.w3.org/2000/svg" fill="none" stroke-width="15" stroke-linecap="butt" stroke-linejoin="miter" stroke="rgb(30.001831%, 64.794922%, 59.94873%)" stroke-opacity="1" stroke-miterlimit="10" d="M -0.00048125 -0.00083125 L 37.999519 -0.00083125 C 76.659675 -0.00083125 107.999519 -31.340675 107.999519 -70.000831 L 107.999519 -1298.360206 " transform="matrix(1, 0, 0, -1, 2346.1997, 1401.7687)"/>
<path xmlns="http://www.w3.org/2000/svg" fill="none" stroke-width="15" stroke-linecap="butt" stroke-linejoin="miter" stroke="rgb(42.337036%, 77.964783%, 45.454407%)" stroke-opacity="1" stroke-miterlimit="10" d="M -0.00048125 -0.0008375 L -0.00048125 21.003069 " transform="matrix(1, 0, 0, -1, 3138.1997, 1470.2726)"/>
<path xmlns="http://www.w3.org/2000/svg" fill="none" stroke-width="15" stroke-linecap="butt" stroke-linejoin="miter" stroke="rgb(42.337036%, 77.964783%, 45.454407%)" stroke-opacity="1" stroke-miterlimit="10" d="M 0.000525 -0.00039375 L -343.245569 -0.00039375 C -370.862756 -0.00039375 -393.245569 22.386325 -393.245569 49.999606 L -387.878381 75.288669 L -387.878381 119.538669 C -387.878381 158.198825 -419.218225 189.538669 -457.878381 189.538669 L -1179.878381 189.538669 L -1132.476038 189.538669 C -1086.581506 189.538669 -1049.378381 152.335544 -1049.378381 106.441013 L -1049.378381 -256.937894 C -1049.378381 -307.769925 -1008.167444 -348.980862 -957.335413 -348.980862 L 1481.621619 -348.980862 C 1520.281775 -348.980862 1551.621619 -380.320706 1551.621619 -418.980862 L 1551.621619 -801.328519 " transform="matrix(1, 0, 0, -1, 3526.0776, 1568.8082)"/>
<path xmlns="http://www.w3.org/2000/svg" fill="none" stroke-width="15" stroke-linecap="butt" stroke-linejoin="miter" stroke="rgb(42.337036%, 77.964783%, 45.454407%)" stroke-opacity="1" stroke-miterlimit="10" d="M -0.0017 0.00161875 L -0.0017 90.743806 C -0.0017 134.9274 -35.818106 170.743806 -80.0017 170.743806 L -256.529044 170.743806 " transform="matrix(1, 0, 0, -1, 3743.5017, 1739.5524)"/>
<path xmlns="http://www.w3.org/2000/svg" fill="none" stroke-width="15" stroke-linecap="butt" stroke-linejoin="miter" stroke="rgb(83.486938%, 13.348389%, 19.581604%)" stroke-opacity="1" stroke-miterlimit="10" d="M 0.00144375 -0.00181875 L -231.490744 -0.00181875 C -249.373556 -0.00181875 -263.86965 -14.494006 -263.86965 -32.376819 L -263.86965 -55.900256 L -264.678244 -105.068225 L -264.678244 -176.0526 L -265.342306 -189.45885 L -265.342306 -212.126819 C -265.342306 -232.286975 -248.998556 -248.626819 -228.842306 -248.626819 L -131.93215 -248.626819 " transform="matrix(1, 0, 0, -1, 3624.8384, 1619.6974)"/>
<path xmlns="http://www.w3.org/2000/svg" fill="none" stroke-width="15" stroke-linecap="butt" stroke-linejoin="miter" stroke="rgb(83.486938%, 13.348389%, 19.581604%)" stroke-opacity="1" stroke-miterlimit="10" d="M -0.00048125 -0.00058125 L -0.00048125 1380.983794 C -0.00048125 1401.761138 -16.840325 1418.604888 -37.617669 1418.604888 L -82.703606 1418.604888 " transform="matrix(1, 0, 0, -1, 3696.1997, 3038.3002)"/>
<path xmlns="http://www.w3.org/2000/svg" fill="none" stroke-width="15.001" stroke-linecap="butt" stroke-linejoin="miter" stroke="rgb(96.542358%, 75.915527%, 12.031555%)" stroke-opacity="1" stroke-miterlimit="10" d="M -0.000975 -0.001825 L 122.57715 -0.001825 C 155.717775 -0.001825 182.57715 26.861456 182.57715 59.998175 L 180.573244 802.978644 C 180.573244 836.115363 153.713869 862.978644 120.573244 862.978644 L -143.7666 862.978644 C -176.903319 862.978644 -203.7666 889.841925 -203.7666 922.978644 L -203.7666 1100.935675 C -203.7666 1134.072394 -176.903319 1160.935675 -143.7666 1160.935675 L 120.377931 1160.935675 C 153.495119 1160.935675 180.350588 1134.103644 180.377931 1100.986456 L 180.573244 862.978644 L 180.573244 766.869269 " transform="matrix(1, 0, 0, -1, 3539.2666, 2755.7638)"/>
<path xmlns="http://www.w3.org/2000/svg" fill="none" stroke-width="25" stroke-linecap="butt" stroke-linejoin="miter" stroke="rgb(31.402588%, 76.568604%, 94.60907%)" stroke-opacity="1" stroke-miterlimit="10" d="M 0.0005375 -0.0004125 L -79.311962 -0.0004125 C -150.972119 -0.0004125 -209.061962 58.093338 -209.061962 129.753494 L -209.503369 354.804275 C -209.604931 406.6949 -230.261181 456.429275 -266.952587 493.116775 L -690.8979 917.062088 C -728.604931 954.769119 -749.80415 1005.901931 -749.843212 1059.22615 L -750.261181 1626.91365 L -750.261181 1698.015213 C -750.261181 1809.741775 -840.831494 1900.312088 -952.558056 1900.312088 L -1024.292431 1900.312088 C -1160.577587 1900.312088 -1271.05415 2010.792556 -1271.05415 2147.073806 L -1271.05415 2468.456619 C -1271.05415 2562.386306 -1347.202587 2638.534744 -1441.132275 2638.534744 L -2929.183056 2638.534744 C -3023.112744 2638.534744 -3099.261181 2562.386306 -3099.261181 2468.456619 L -3099.261181 1187.925369 " transform="matrix(1, 0, 0, -1, 6057.4604, 4119.6949)"/>
<path xmlns="http://www.w3.org/2000/svg" fill="none" stroke-width="25" stroke-linecap="butt" stroke-linejoin="miter" stroke="rgb(93.395996%, 19.972229%, 63.879395%)" stroke-opacity="1" stroke-miterlimit="10" d="M -0.00025625 0.00063125 L 1953.605212 0.00063125 C 2064.757556 0.00063125 2154.866931 90.1061 2154.866931 201.258444 L 2154.866931 284.469381 " transform="matrix(1, 0, 0, -1, 3909.5901, 1779.2936)"/>
<path xmlns="http://www.w3.org/2000/svg" fill-rule="nonzero" fill="rgb(83.486938%, 13.348389%, 19.581604%)" fill-opacity="1" d="M 3914.734375 1658.355469 L 3871.480469 1658.355469 C 3859.886719 1658.355469 3850.488281 1648.957031 3850.488281 1637.367188 C 3850.488281 1625.773438 3859.886719 1616.375 3871.480469 1616.375 L 3914.734375 1616.375 C 3926.328125 1616.375 3935.722656 1625.773438 3935.722656 1637.367188 C 3935.722656 1648.957031 3926.328125 1658.355469 3914.734375 1658.355469 "/>
<path xmlns="http://www.w3.org/2000/svg" fill-rule="nonzero" fill="rgb(96.514893%, 75.584412%, 12.493896%)" fill-opacity="1" d="M 3914.734375 1706.558594 L 3871.480469 1706.558594 C 3859.886719 1706.558594 3850.488281 1697.164062 3850.488281 1685.570312 C 3850.488281 1673.976562 3859.886719 1664.582031 3871.480469 1664.582031 L 3914.734375 1664.582031 C 3926.328125 1664.582031 3935.722656 1673.976562 3935.722656 1685.570312 C 3935.722656 1697.164062 3926.328125 1706.558594 3914.734375 1706.558594 "/>
<path xmlns="http://www.w3.org/2000/svg" fill-rule="nonzero" fill="rgb(93.370056%, 15.119934%, 21.038818%)" fill-opacity="1" d="M 4291.121094 1650.207031 C 4265.707031 1650.207031 4245.027344 1670.882812 4245.027344 1696.300781 C 4245.027344 1721.714844 4265.707031 1742.394531 4291.121094 1742.394531 C 4316.539062 1742.394531 4337.214844 1721.714844 4337.214844 1696.300781 C 4337.214844 1670.882812 4316.539062 1650.207031 4291.121094 1650.207031 M 4291.121094 1662.707031 C 4309.675781 1662.707031 4324.714844 1677.746094 4324.714844 1696.300781 C 4324.714844 1714.851562 4309.675781 1729.894531 4291.121094 1729.894531 C 4272.570312 1729.894531 4257.527344 1714.851562 4257.527344 1696.300781 C 4257.527344 1677.746094 4272.570312 1662.707031 4291.121094 1662.707031 "/>
<path xmlns="http://www.w3.org/2000/svg" fill-rule="nonzero" fill="rgb(90.957642%, 6.632996%, 57.745361%)" fill-opacity="1" d="M 4397.394531 1650.207031 C 4371.976562 1650.207031 4351.300781 1670.882812 4351.300781 1696.300781 C 4351.300781 1721.714844 4371.976562 1742.394531 4397.394531 1742.394531 C 4422.808594 1742.394531 4443.488281 1721.714844 4443.488281 1696.300781 C 4443.488281 1670.882812 4422.808594 1650.207031 4397.394531 1650.207031 M 4397.394531 1662.707031 C 4415.945312 1662.707031 4430.988281 1677.746094 4430.988281 1696.300781 C 4430.988281 1714.851562 4415.945312 1729.894531 4397.394531 1729.894531 C 4378.839844 1729.894531 4363.800781 1714.851562 4363.800781 1696.300781 C 4363.800781 1677.746094 4378.839844 1662.707031 4397.394531 1662.707031 "/>
</svg>
