<?xml version="1.0" encoding="UTF-8"?>
<svg xmlns="http://www.w3.org/2000/svg" xmlns:xlink="http://www.w3.org/1999/xlink" viewBox="7135.1775 1681.72 2378.3925 1681.72" width="2378.3925" height="1681.72">
<path xmlns="http://www.w3.org/2000/svg" fill="none" stroke-width="15" stroke-linecap="butt" stroke-linejoin="miter" stroke="rgb(18.84613%, 31.185913%, 65.649414%)" stroke-opacity="1" stroke-miterlimit="10" d="M -0.00195 -0.00183125 L -2601.486325 -0.00183125 L -2729.279294 -1.001831 L -3579.060544 -1.001831 C -3612.451169 -1.001831 -3639.521481 26.068481 -3639.521481 59.459106 L -3639.521481 374.513794 C -3639.521481 416.213012 -3674.052731 450.744262 -3715.75195 450.744262 L -3743.572263 450.744262 " transform="matrix(1, 0, 0, -1, 7385.1582, 3182.7677)"/>
<path xmlns="http://www.w3.org/2000/svg" fill="none" stroke-width="25" stroke-linecap="butt" stroke-linejoin="miter" stroke="rgb(31.402588%, 76.568604%, 94.60907%)" stroke-opacity="1" stroke-miterlimit="10" d="M -0.0012625 -0.00113125 L -0.0012625 -411.579256 L 0.104206 -540.184725 C 0.154987 -651.301913 90.248737 -741.352694 201.365925 -741.352694 L 470.119831 -741.352694 L 665.998737 -741.270663 L 859.498737 -741.270663 L 1622.362019 -744.860506 L 1642.498737 -744.860506 C 1695.873737 -744.860506 1747.065144 -766.063631 1784.807331 -803.809725 L 2113.362019 -1132.364413 C 2151.315144 -1170.313631 2202.854206 -1191.536288 2256.526081 -1191.309725 L 3037.498737 -1188.001131 L 5118.033894 -1188.016756 L 5341.526081 -1188.016756 " transform="matrix(1, 0, 0, -1, 2958.3997, 2931.7684)"/>
<path xmlns="http://www.w3.org/2000/svg" fill="none" stroke-width="25" stroke-linecap="butt" stroke-linejoin="miter" stroke="rgb(94.920349%, 34.173584%, 16.610718%)" stroke-opacity="1" stroke-miterlimit="10" d="M -0.00099375 -0.00088125 C -99.41115 -0.00088125 -180.000994 -80.590725 -180.000994 -180.000881 L -180.000994 -1181.114163 " transform="matrix(1, 0, 0, -1, 7272.8799, 2405.7999)"/>
<path xmlns="http://www.w3.org/2000/svg" fill-rule="nonzero" fill="rgb(94.920349%, 34.173584%, 16.610718%)" fill-opacity="1" d="M 7276.339844 2380.800781 C 7262.554688 2380.800781 7251.339844 2392.015625 7251.339844 2405.800781 C 7251.339844 2419.585938 7262.554688 2430.800781 7276.339844 2430.800781 C 7290.125 2430.800781 7301.339844 2419.585938 7301.339844 2405.800781 C 7301.339844 2392.015625 7290.125 2380.800781 7276.339844 2380.800781 M 7276.339844 2387.800781 C 7286.28125 2387.800781 7294.339844 2395.859375 7294.339844 2405.800781 C 7294.339844 2415.742188 7286.28125 2423.800781 7276.339844 2423.800781 C 7266.398438 2423.800781 7258.339844 2415.742188 7258.339844 2405.800781 C 7258.339844 2395.859375 7266.398438 2387.800781 7276.339844 2387.800781 "/>
<path xmlns="http://www.w3.org/2000/svg" fill-rule="nonzero" fill="rgb(18.84613%, 31.185913%, 65.649414%)" fill-opacity="1" d="M 7521.375 3040.878906 L 7478.121094 3040.878906 C 7466.527344 3040.878906 7457.132812 3031.484375 7457.132812 3019.890625 C 7457.132812 3008.300781 7466.527344 2998.902344 7478.121094 2998.902344 L 7521.375 2998.902344 C 7532.96875 2998.902344 7542.367188 3008.300781 7542.367188 3019.890625 C 7542.367188 3031.484375 7532.96875 3040.878906 7521.375 3040.878906 "/>
<path xmlns="http://www.w3.org/2000/svg" fill-rule="nonzero" fill="rgb(18.84613%, 31.185913%, 65.649414%)" fill-opacity="1" d="M 7432.109375 3040.878906 L 7388.855469 3040.878906 C 7377.261719 3040.878906 7367.867188 3031.484375 7367.867188 3019.890625 C 7367.867188 3008.300781 7377.261719 2998.902344 7388.855469 2998.902344 L 7432.109375 2998.902344 C 7443.703125 2998.902344 7453.097656 3008.300781 7453.097656 3019.890625 C 7453.097656 3031.484375 7443.703125 3040.878906 7432.109375 3040.878906 "/>
<path xmlns="http://www.w3.org/2000/svg" fill-rule="nonzero" fill="rgb(94.920349%, 34.173584%, 16.610718%)" fill-opacity="1" d="M 7364.425781 2444.492188 C 7339.011719 2444.492188 7318.335938 2465.171875 7318.335938 2490.585938 C 7318.335938 2516.003906 7339.011719 2536.679688 7364.425781 2536.679688 C 7389.84375 2536.679688 7410.519531 2516.003906 7410.519531 2490.585938 C 7410.519531 2465.171875 7389.84375 2444.492188 7364.425781 2444.492188 M 7364.425781 2456.992188 C 7382.980469 2456.992188 7398.019531 2472.035156 7398.019531 2490.585938 C 7398.019531 2509.140625 7382.980469 2524.179688 7364.425781 2524.179688 C 7345.875 2524.179688 7330.835938 2509.140625 7330.835938 2490.585938 C 7330.835938 2472.035156 7345.875 2456.992188 7364.425781 2456.992188 "/>
</svg>
