<?xml version="1.0" encoding="UTF-8"?>
<svg xmlns="http://www.w3.org/2000/svg" xmlns:xlink="http://www.w3.org/1999/xlink" viewBox="2378.3925 1681.72 2378.3925 1681.72" width="2378.3925" height="1681.72">
<path xmlns="http://www.w3.org/2000/svg" fill-rule="nonzero" fill="rgb(10.572815%, 9.655762%, 10.258484%)" fill-opacity="1" d="M 3721.84375 2492.355469 C 3714.402344 2492.355469 3708.34375 2498.410156 3708.34375 2505.855469 C 3708.34375 2513.296875 3714.402344 2519.355469 3721.84375 2519.355469 C 3729.289062 2519.355469 3735.34375 2513.296875 3735.34375 2505.855469 C 3735.34375 2498.410156 3729.289062 2492.355469 3721.84375 2492.355469 M 3721.84375 2496.855469 C 3726.816406 2496.855469 3730.84375 2500.882812 3730.84375 2505.855469 C 3730.84375 2510.824219 3726.816406 2514.855469 3721.84375 2514.855469 C 3716.875 2514.855469 3712.84375 2510.824219 3712.84375 2505.855469 C 3712.84375 2500.882812 3716.875 2496.855469 3721.84375 2496.855469 "/>
<path xmlns="http://www.w3.org/2000/svg" fill-rule="nonzero" fill="rgb(10.572815%, 9.655762%, 10.258484%)" fill-opacity="1" d="M 3721.84375 2368.367188 C 3714.402344 2368.367188 3708.34375 2374.425781 3708.34375 2381.867188 C 3708.34375 2389.3125 3714.402344 2395.367188 3721.84375 2395.367188 C 3729.289062 2395.367188 3735.34375 2389.3125 3735.34375 2381.867188 C 3735.34375 2374.425781 3729.289062 2368.367188 3721.84375 2368.367188 M 3721.84375 2372.867188 C 3726.816406 2372.867188 3730.84375 2376.898438 3730.84375 2381.867188 C 3730.84375 2386.839844 3726.816406 2390.867188 3721.84375 2390.867188 C 3716.875 2390.867188 3712.84375 2386.839844 3712.84375 2381.867188 C 3712.84375 2376.898438 3716.875 2372.867188 3721.84375 2372.867188 "/>
<path xmlns="http://www.w3.org/2000/svg" fill-rule="nonzero" fill="rgb(10.572815%, 9.655762%, 10.258484%)" fill-opacity="1" d="M 3721.84375 2246.261719 C 3714.402344 2246.261719 3708.34375 2252.320312 3708.34375 2259.761719 C 3708.34375 2267.207031 3714.402344 2273.261719 3721.84375 2273.261719 C 3729.289062 2273.261719 3735.34375 2267.207031 3735.34375 2259.761719 C 3735.34375 2252.320312 3729.289062 2246.261719 3721.84375 2246.261719 M 3721.84375 2250.761719 C 3726.816406 2250.761719 3730.84375 2254.792969 3730.84375 2259.761719 C 3730.84375 2264.734375 3726.816406 2268.761719 3721.84375 2268.761719 C 3716.875 2268.761719 3712.84375 2264.734375 3712.84375 2259.761719 C 3712.84375 2254.792969 3716.875 2250.761719 3721.84375 2250.761719 "/>
<path xmlns="http://www.w3.org/2000/svg" fill-rule="nonzero" fill="rgb(10.572815%, 9.655762%, 10.258484%)" fill-opacity="1" d="M 3721.84375 2120.320312 C 3714.402344 2120.320312 3708.34375 2126.378906 3708.34375 2133.820312 C 3708.34375 2141.265625 3714.402344 2147.320312 3721.84375 2147.320312 C 3729.289062 2147.320312 3735.34375 2141.265625 3735.34375 2133.820312 C 3735.34375 2126.378906 3729.289062 2120.320312 3721.84375 2120.320312 M 3721.84375 2124.820312 C 3726.816406 2124.820312 3730.84375 2128.851562 3730.84375 2133.820312 C 3730.84375 2138.792969 3726.816406 2142.820312 3721.84375 2142.820312 C 3716.875 2142.820312 3712.84375 2138.792969 3712.84375 2133.820312 C 3712.84375 2128.851562 3716.875 2124.820312 3721.84375 2124.820312 "/>
<path xmlns="http://www.w3.org/2000/svg" fill-rule="nonzero" fill="rgb(10.572815%, 9.655762%, 10.258484%)" fill-opacity="1" d="M 3721.84375 2619.039062 C 3714.402344 2619.039062 3708.34375 2625.09375 3708.34375 2632.539062 C 3708.34375 2639.984375 3714.402344 2646.039062 3721.84375 2646.039062 C 3729.289062 2646.039062 3735.34375 2639.984375 3735.34375 2632.539062 C 3735.34375 2625.09375 3729.289062 2619.039062 3721.84375 2619.039062 M 3721.84375 2623.539062 C 3726.816406 2623.539062 3730.84375 2627.570312 3730.84375 2632.539062 C 3730.84375 2637.507812 3726.816406 2641.539062 3721.84375 2641.539062 C 3716.875 2641.539062 3712.84375 2637.507812 3712.84375 2632.539062 C 3712.84375 2627.570312 3716.875 2623.539062 3721.84375 2623.539062 "/>
<path xmlns="http://www.w3.org/2000/svg" fill-rule="nonzero" fill="rgb(10.572815%, 9.655762%, 10.258484%)" fill-opacity="1" d="M 3696.199219 3025.988281 C 3688.757812 3025.988281 3682.699219 3032.046875 3682.699219 3039.488281 C 3682.699219 3046.933594 3688.757812 3052.988281 3696.199219 3052.988281 C 3703.644531 3052.988281 3709.699219 3046.933594 3709.699219 3039.488281 C 3709.699219 3032.046875 3703.644531 3025.988281 3696.199219 3025.988281 M 3696.199219 3030.488281 C 3701.171875 3030.488281 3705.199219 3034.519531 3705.199219 3039.488281 C 3705.199219 3044.460938 3701.171875 3048.488281 3696.199219 3048.488281 C 3691.230469 3048.488281 3687.199219 3044.460938 3687.199219 3039.488281 C 3687.199219 3034.519531 3691.230469 3030.488281 3696.199219 3030.488281 "/>
<path xmlns="http://www.w3.org/2000/svg" fill-rule="nonzero" fill="rgb(10.572815%, 9.655762%, 10.258484%)" fill-opacity="1" d="M 3673.699219 3025.988281 C 3666.253906 3025.988281 3660.199219 3032.046875 3660.199219 3039.488281 C 3660.199219 3046.933594 3666.253906 3052.988281 3673.699219 3052.988281 C 3681.144531 3052.988281 3687.199219 3046.933594 3687.199219 3039.488281 C 3687.199219 3032.046875 3681.144531 3025.988281 3673.699219 3025.988281 M 3673.699219 3030.488281 C 3678.667969 3030.488281 3682.699219 3034.519531 3682.699219 3039.488281 C 3682.699219 3044.460938 3678.667969 3048.488281 3673.699219 3048.488281 C 3668.730469 3048.488281 3664.699219 3044.460938 3664.699219 3039.488281 C 3664.699219 3034.519531 3668.730469 3030.488281 3673.699219 3030.488281 "/>
<path xmlns="http://www.w3.org/2000/svg" fill-rule="nonzero" fill="rgb(10.572815%, 9.655762%, 10.258484%)" fill-opacity="1" d="M 3696.199219 3276.679688 C 3688.757812 3276.679688 3682.699219 3282.734375 3682.699219 3290.179688 C 3682.699219 3297.625 3688.757812 3303.679688 3696.199219 3303.679688 C 3703.644531 3303.679688 3709.699219 3297.625 3709.699219 3290.179688 C 3709.699219 3282.734375 3703.644531 3276.679688 3696.199219 3276.679688 M 3696.199219 3281.179688 C 3701.171875 3281.179688 3705.199219 3285.210938 3705.199219 3290.179688 C 3705.199219 3295.148438 3701.171875 3299.179688 3696.199219 3299.179688 C 3691.230469 3299.179688 3687.199219 3295.148438 3687.199219 3290.179688 C 3687.199219 3285.210938 3691.230469 3281.179688 3696.199219 3281.179688 "/>
<path xmlns="http://www.w3.org/2000/svg" fill-rule="nonzero" fill="rgb(10.572815%, 9.655762%, 10.258484%)" fill-opacity="1" d="M 3717.800781 3276.679688 C 3710.355469 3276.679688 3704.300781 3282.734375 3704.300781 3290.179688 C 3704.300781 3297.625 3710.355469 3303.679688 3717.800781 3303.679688 C 3725.242188 3303.679688 3731.300781 3297.625 3731.300781 3290.179688 C 3731.300781 3282.734375 3725.242188 3276.679688 3717.800781 3276.679688 M 3717.800781 3281.179688 C 3722.769531 3281.179688 3726.800781 3285.210938 3726.800781 3290.179688 C 3726.800781 3295.148438 3722.769531 3299.179688 3717.800781 3299.179688 C 3712.828125 3299.179688 3708.800781 3295.148438 3708.800781 3290.179688 C 3708.800781 3285.210938 3712.828125 3281.179688 3717.800781 3281.179688 "/>
<path xmlns="http://www.w3.org/2000/svg" fill-rule="nonzero" fill="rgb(10.572815%, 9.655762%, 10.258484%)" fill-opacity="1" d="M 3696.199219 2492.355469 C 3688.757812 2492.355469 3682.699219 2498.410156 3682.699219 2505.855469 C 3682.699219 2513.296875 3688.757812 2519.355469 3696.199219 2519.355469 C 3703.644531 2519.355469 3709.699219 2513.296875 3709.699219 2505.855469 C 3709.699219 2498.410156 3703.644531 2492.355469 3696.199219 2492.355469 M 3696.199219 2496.855469 C 3701.171875 2496.855469 3705.199219 2500.882812 3705.199219 2505.855469 C 3705.199219 2510.824219 3701.171875 2514.855469 3696.199219 2514.855469 C 3691.230469 2514.855469 3687.199219 2510.824219 3687.199219 2505.855469 C 3687.199219 2500.882812 3691.230469 2496.855469 3696.199219 2496.855469 "/>
<path xmlns="http://www.w3.org/2000/svg" fill-rule="nonzero" fill="rgb(10.572815%, 9.655762%, 10.258484%)" fill-opacity="1" d="M 3696.199219 2368.367188 C 3688.757812 2368.367188 3682.699219 2374.425781 3682.699219 2381.867188 C 3682.699219 2389.3125 3688.757812 2395.367188 3696.199219 2395.367188 C 3703.644531 2395.367188 3709.699219 2389.3125 3709.699219 2381.867188 C 3709.699219 2374.425781 3703.644531 2368.367188 3696.199219 2368.367188 M 3696.199219 2372.867188 C 3701.171875 2372.867188 3705.199219 2376.898438 3705.199219 2381.867188 C 3705.199219 2386.839844 3701.171875 2390.867188 3696.199219 2390.867188 C 3691.230469 2390.867188 3687.199219 2386.839844 3687.199219 2381.867188 C 3687.199219 2376.898438 3691.230469 2372.867188 3696.199219 2372.867188 "/>
<path xmlns="http://www.w3.org/2000/svg" fill-rule="nonzero" fill="rgb(10.572815%, 9.655762%, 10.258484%)" fill-opacity="1" d="M 3696.199219 2246.261719 C 3688.757812 2246.261719 3682.699219 2252.320312 3682.699219 2259.761719 C 3682.699219 2267.207031 3688.757812 2273.261719 3696.199219 2273.261719 C 3703.644531 2273.261719 3709.699219 2267.207031 3709.699219 2259.761719 C 3709.699219 2252.320312 3703.644531 2246.261719 3696.199219 2246.261719 M 3696.199219 2250.761719 C 3701.171875 2250.761719 3705.199219 2254.792969 3705.199219 2259.761719 C 3705.199219 2264.734375 3701.171875 2268.761719 3696.199219 2268.761719 C 3691.230469 2268.761719 3687.199219 2264.734375 3687.199219 2259.761719 C 3687.199219 2254.792969 3691.230469 2250.761719 3696.199219 2250.761719 "/>
<path xmlns="http://www.w3.org/2000/svg" fill-rule="nonzero" fill="rgb(10.572815%, 9.655762%, 10.258484%)" fill-opacity="1" d="M 3696.199219 2120.320312 C 3688.757812 2120.320312 3682.699219 2126.378906 3682.699219 2133.820312 C 3682.699219 2141.265625 3688.757812 2147.320312 3696.199219 2147.320312 C 3703.644531 2147.320312 3709.699219 2141.265625 3709.699219 2133.820312 C 3709.699219 2126.378906 3703.644531 2120.320312 3696.199219 2120.320312 M 3696.199219 2124.820312 C 3701.171875 2124.820312 3705.199219 2128.851562 3705.199219 2133.820312 C 3705.199219 2138.792969 3701.171875 2142.820312 3696.199219 2142.820312 C 3691.230469 2142.820312 3687.199219 2138.792969 3687.199219 2133.820312 C 3687.199219 2128.851562 3691.230469 2124.820312 3696.199219 2124.820312 "/>
<path xmlns="http://www.w3.org/2000/svg" fill-rule="nonzero" fill="rgb(10.572815%, 9.655762%, 10.258484%)" fill-opacity="1" d="M 3909.589844 1904.289062 C 3902.148438 1904.289062 3896.089844 1910.34375 3896.089844 1917.789062 C 3896.089844 1925.230469 3902.148438 1931.289062 3909.589844 1931.289062 C 3917.035156 1931.289062 3923.089844 1925.230469 3923.089844 1917.789062 C 3923.089844 1910.34375 3917.035156 1904.289062 3909.589844 1904.289062 M 3909.589844 1908.789062 C 3914.5625 1908.789062 3918.589844 1912.816406 3918.589844 1917.789062 C 3918.589844 1922.757812 3914.5625 1926.789062 3909.589844 1926.789062 C 3904.621094 1926.789062 3900.589844 1922.757812 3900.589844 1917.789062 C 3900.589844 1912.816406 3904.621094 1908.789062 3909.589844 1908.789062 "/>
<path xmlns="http://www.w3.org/2000/svg" fill-rule="nonzero" fill="rgb(10.572815%, 9.655762%, 10.258484%)" fill-opacity="1" d="M 4551.199219 1904.289062 C 4543.753906 1904.289062 4537.699219 1910.34375 4537.699219 1917.789062 C 4537.699219 1925.230469 4543.753906 1931.289062 4551.199219 1931.289062 C 4558.644531 1931.289062 4564.699219 1925.230469 4564.699219 1917.789062 C 4564.699219 1910.34375 4558.644531 1904.289062 4551.199219 1904.289062 M 4551.199219 1908.789062 C 4556.171875 1908.789062 4560.199219 1912.816406 4560.199219 1917.789062 C 4560.199219 1922.757812 4556.171875 1926.789062 4551.199219 1926.789062 C 4546.230469 1926.789062 4542.199219 1922.757812 4542.199219 1917.789062 C 4542.199219 1912.816406 4546.230469 1908.789062 4551.199219 1908.789062 "/>
<path xmlns="http://www.w3.org/2000/svg" fill-rule="nonzero" fill="rgb(10.572815%, 9.655762%, 10.258484%)" fill-opacity="1" d="M 4262.757812 2791.789062 C 4255.316406 2791.789062 4249.257812 2797.847656 4249.257812 2805.289062 C 4249.257812 2812.734375 4255.316406 2818.789062 4262.757812 2818.789062 C 4270.203125 2818.789062 4276.257812 2812.734375 4276.257812 2805.289062 C 4276.257812 2797.847656 4270.203125 2791.789062 4262.757812 2791.789062 M 4262.757812 2796.289062 C 4267.730469 2796.289062 4271.757812 2800.320312 4271.757812 2805.289062 C 4271.757812 2810.261719 4267.730469 2814.289062 4262.757812 2814.289062 C 4257.789062 2814.289062 4253.757812 2810.261719 4253.757812 2805.289062 C 4253.757812 2800.320312 4257.789062 2796.289062 4262.757812 2796.289062 "/>
<path xmlns="http://www.w3.org/2000/svg" fill-rule="nonzero" fill="rgb(10.572815%, 9.655762%, 10.258484%)" fill-opacity="1" d="M 4654.253906 2792.269531 C 4646.8125 2792.269531 4640.753906 2798.324219 4640.753906 2805.769531 C 4640.753906 2813.210938 4646.8125 2819.269531 4654.253906 2819.269531 C 4661.699219 2819.269531 4667.753906 2813.210938 4667.753906 2805.769531 C 4667.753906 2798.324219 4661.699219 2792.269531 4654.253906 2792.269531 M 4654.253906 2796.769531 C 4659.226562 2796.769531 4663.253906 2800.796875 4663.253906 2805.769531 C 4663.253906 2810.738281 4659.226562 2814.769531 4654.253906 2814.769531 C 4649.285156 2814.769531 4645.253906 2810.738281 4645.253906 2805.769531 C 4645.253906 2800.796875 4649.285156 2796.769531 4654.253906 2796.769531 "/>
<path xmlns="http://www.w3.org/2000/svg" fill-rule="nonzero" fill="rgb(10.572815%, 9.655762%, 10.258484%)" fill-opacity="1" d="M 4262.757812 2769.769531 C 4255.316406 2769.769531 4249.257812 2775.824219 4249.257812 2783.269531 C 4249.257812 2790.710938 4255.316406 2796.769531 4262.757812 2796.769531 C 4270.203125 2796.769531 4276.257812 2790.710938 4276.257812 2783.269531 C 4276.257812 2775.824219 4270.203125 2769.769531 4262.757812 2769.769531 M 4262.757812 2774.269531 C 4267.730469 2774.269531 4271.757812 2778.296875 4271.757812 2783.269531 C 4271.757812 2788.238281 4267.730469 2792.269531 4262.757812 2792.269531 C 4257.789062 2792.269531 4253.757812 2788.238281 4253.757812 2783.269531 C 4253.757812 2778.296875 4257.789062 2774.269531 4262.757812 2774.269531 "/>
<path xmlns="http://www.w3.org/2000/svg" fill-rule="nonzero" fill="rgb(10.572815%, 9.655762%, 10.258484%)" fill-opacity="1" d="M 4016.199219 2766.699219 C 4008.753906 2766.699219 4002.699219 2772.753906 4002.699219 2780.199219 C 4002.699219 2787.640625 4008.753906 2793.699219 4016.199219 2793.699219 C 4023.640625 2793.699219 4029.699219 2787.640625 4029.699219 2780.199219 C 4029.699219 2772.753906 4023.640625 2766.699219 4016.199219 2766.699219 M 4016.199219 2771.199219 C 4021.167969 2771.199219 4025.199219 2775.226562 4025.199219 2780.199219 C 4025.199219 2785.167969 4021.167969 2789.199219 4016.199219 2789.199219 C 4011.226562 2789.199219 4007.199219 2785.167969 4007.199219 2780.199219 C 4007.199219 2775.226562 4011.226562 2771.199219 4016.199219 2771.199219 "/>
<path xmlns="http://www.w3.org/2000/svg" fill-rule="nonzero" fill="rgb(10.572815%, 9.655762%, 10.258484%)" fill-opacity="1" d="M 4016.199219 2791.789062 C 4008.753906 2791.789062 4002.699219 2797.847656 4002.699219 2805.289062 C 4002.699219 2812.734375 4008.753906 2818.789062 4016.199219 2818.789062 C 4023.640625 2818.789062 4029.699219 2812.734375 4029.699219 2805.289062 C 4029.699219 2797.847656 4023.640625 2791.789062 4016.199219 2791.789062 M 4016.199219 2796.289062 C 4021.167969 2796.289062 4025.199219 2800.320312 4025.199219 2805.289062 C 4025.199219 2810.261719 4021.167969 2814.289062 4016.199219 2814.289062 C 4011.226562 2814.289062 4007.199219 2810.261719 4007.199219 2805.289062 C 4007.199219 2800.320312 4011.226562 2796.289062 4016.199219 2796.289062 "/>
<path xmlns="http://www.w3.org/2000/svg" fill-rule="nonzero" fill="rgb(10.572815%, 9.655762%, 10.258484%)" fill-opacity="1" d="M 2453.699219 2959.609375 C 2446.253906 2959.609375 2440.199219 2965.667969 2440.199219 2973.109375 C 2440.199219 2980.554688 2446.253906 2986.609375 2453.699219 2986.609375 C 2461.140625 2986.609375 2467.199219 2980.554688 2467.199219 2973.109375 C 2467.199219 2965.667969 2461.140625 2959.609375 2453.699219 2959.609375 M 2453.699219 2964.109375 C 2458.667969 2964.109375 2462.699219 2968.140625 2462.699219 2973.109375 C 2462.699219 2978.082031 2458.667969 2982.109375 2453.699219 2982.109375 C 2448.726562 2982.109375 2444.699219 2978.082031 2444.699219 2973.109375 C 2444.699219 2968.140625 2448.726562 2964.109375 2453.699219 2964.109375 "/>
<path xmlns="http://www.w3.org/2000/svg" fill-rule="nonzero" fill="rgb(10.572815%, 9.655762%, 10.258484%)" fill-opacity="1" d="M 2431.199219 2959.609375 C 2423.753906 2959.609375 2417.699219 2965.667969 2417.699219 2973.109375 C 2417.699219 2980.554688 2423.753906 2986.609375 2431.199219 2986.609375 C 2438.640625 2986.609375 2444.699219 2980.554688 2444.699219 2973.109375 C 2444.699219 2965.667969 2438.640625 2959.609375 2431.199219 2959.609375 M 2431.199219 2964.109375 C 2436.167969 2964.109375 2440.199219 2968.140625 2440.199219 2973.109375 C 2440.199219 2978.082031 2436.167969 2982.109375 2431.199219 2982.109375 C 2426.226562 2982.109375 2422.199219 2978.082031 2422.199219 2973.109375 C 2422.199219 2968.140625 2426.226562 2964.109375 2431.199219 2964.109375 "/>
<path xmlns="http://www.w3.org/2000/svg" fill-rule="nonzero" fill="rgb(10.572815%, 9.655762%, 10.258484%)" fill-opacity="1" d="M 2454.199219 3331.226562 C 2446.753906 3331.226562 2440.699219 3337.28125 2440.699219 3344.726562 C 2440.699219 3352.167969 2446.753906 3358.226562 2454.199219 3358.226562 C 2461.644531 3358.226562 2467.699219 3352.167969 2467.699219 3344.726562 C 2467.699219 3337.28125 2461.644531 3331.226562 2454.199219 3331.226562 M 2454.199219 3335.726562 C 2459.171875 3335.726562 2463.199219 3339.753906 2463.199219 3344.726562 C 2463.199219 3349.695312 2459.171875 3353.726562 2454.199219 3353.726562 C 2449.230469 3353.726562 2445.199219 3349.695312 2445.199219 3344.726562 C 2445.199219 3339.753906 2449.230469 3335.726562 2454.199219 3335.726562 "/>
<path xmlns="http://www.w3.org/2000/svg" fill-rule="nonzero" fill="rgb(10.572815%, 9.655762%, 10.258484%)" fill-opacity="1" d="M 2431.699219 3331.226562 C 2424.257812 3331.226562 2418.199219 3337.28125 2418.199219 3344.726562 C 2418.199219 3352.167969 2424.257812 3358.226562 2431.699219 3358.226562 C 2439.144531 3358.226562 2445.199219 3352.167969 2445.199219 3344.726562 C 2445.199219 3337.28125 2439.144531 3331.226562 2431.699219 3331.226562 M 2431.699219 3335.726562 C 2436.671875 3335.726562 2440.699219 3339.753906 2440.699219 3344.726562 C 2440.699219 3349.695312 2436.671875 3353.726562 2431.699219 3353.726562 C 2426.730469 3353.726562 2422.699219 3349.695312 2422.699219 3344.726562 C 2422.699219 3339.753906 2426.730469 3335.726562 2431.699219 3335.726562 "/>
<path xmlns="http://www.w3.org/2000/svg" fill-rule="nonzero" fill="rgb(10.572815%, 9.655762%, 10.258484%)" fill-opacity="1" d="M 2407.699219 3331.226562 C 2400.253906 3331.226562 2394.199219 3337.28125 2394.199219 3344.726562 C 2394.199219 3352.167969 2400.253906 3358.226562 2407.699219 3358.226562 C 2415.140625 3358.226562 2421.199219 3352.167969 2421.199219 3344.726562 C 2421.199219 3337.28125 2415.140625 3331.226562 2407.699219 3331.226562 M 2407.699219 3335.726562 C 2412.667969 3335.726562 2416.699219 3339.753906 2416.699219 3344.726562 C 2416.699219 3349.695312 2412.667969 3353.726562 2407.699219 3353.726562 C 2402.726562 3353.726562 2398.699219 3349.695312 2398.699219 3344.726562 C 2398.699219 3339.753906 2402.726562 3335.726562 2407.699219 3335.726562 "/>
<path xmlns="http://www.w3.org/2000/svg" fill-rule="nonzero" fill="rgb(10.572815%, 9.655762%, 10.258484%)" fill-opacity="1" d="M 2513.75 2740.613281 C 2506.308594 2740.613281 2500.25 2746.667969 2500.25 2754.113281 C 2500.25 2761.554688 2506.308594 2767.613281 2513.75 2767.613281 C 2521.195312 2767.613281 2527.25 2761.554688 2527.25 2754.113281 C 2527.25 2746.667969 2521.195312 2740.613281 2513.75 2740.613281 M 2513.75 2745.113281 C 2518.722656 2745.113281 2522.75 2749.140625 2522.75 2754.113281 C 2522.75 2759.082031 2518.722656 2763.113281 2513.75 2763.113281 C 2508.78125 2763.113281 2504.75 2759.082031 2504.75 2754.113281 C 2504.75 2749.140625 2508.78125 2745.113281 2513.75 2745.113281 "/>
<path xmlns="http://www.w3.org/2000/svg" fill-rule="nonzero" fill="rgb(10.572815%, 9.655762%, 10.258484%)" fill-opacity="1" d="M 2513.75 2718.113281 C 2506.308594 2718.113281 2500.25 2724.167969 2500.25 2731.613281 C 2500.25 2739.054688 2506.308594 2745.113281 2513.75 2745.113281 C 2521.195312 2745.113281 2527.25 2739.054688 2527.25 2731.613281 C 2527.25 2724.167969 2521.195312 2718.113281 2513.75 2718.113281 M 2513.75 2722.613281 C 2518.722656 2722.613281 2522.75 2726.640625 2522.75 2731.613281 C 2522.75 2736.582031 2518.722656 2740.613281 2513.75 2740.613281 C 2508.78125 2740.613281 2504.75 2736.582031 2504.75 2731.613281 C 2504.75 2726.640625 2508.78125 2722.613281 2513.75 2722.613281 "/>
<path xmlns="http://www.w3.org/2000/svg" fill-rule="nonzero" fill="rgb(10.572815%, 9.655762%, 10.258484%)" fill-opacity="1" d="M 2827.195312 2740.613281 C 2819.753906 2740.613281 2813.695312 2746.667969 2813.695312 2754.113281 C 2813.695312 2761.554688 2819.753906 2767.613281 2827.195312 2767.613281 C 2834.640625 2767.613281 2840.695312 2761.554688 2840.695312 2754.113281 C 2840.695312 2746.667969 2834.640625 2740.613281 2827.195312 2740.613281 M 2827.195312 2745.113281 C 2832.167969 2745.113281 2836.195312 2749.140625 2836.195312 2754.113281 C 2836.195312 2759.082031 2832.167969 2763.113281 2827.195312 2763.113281 C 2822.226562 2763.113281 2818.195312 2759.082031 2818.195312 2754.113281 C 2818.195312 2749.140625 2822.226562 2745.113281 2827.195312 2745.113281 "/>
<path xmlns="http://www.w3.org/2000/svg" fill-rule="nonzero" fill="rgb(10.572815%, 9.655762%, 10.258484%)" fill-opacity="1" d="M 2697.199219 3026.269531 C 2689.757812 3026.269531 2683.699219 3032.324219 2683.699219 3039.769531 C 2683.699219 3047.210938 2689.757812 3053.269531 2697.199219 3053.269531 C 2704.644531 3053.269531 2710.699219 3047.210938 2710.699219 3039.769531 C 2710.699219 3032.324219 2704.644531 3026.269531 2697.199219 3026.269531 M 2697.199219 3030.769531 C 2702.171875 3030.769531 2706.199219 3034.796875 2706.199219 3039.769531 C 2706.199219 3044.738281 2702.171875 3048.769531 2697.199219 3048.769531 C 2692.230469 3048.769531 2688.199219 3044.738281 2688.199219 3039.769531 C 2688.199219 3034.796875 2692.230469 3030.769531 2697.199219 3030.769531 "/>
<path xmlns="http://www.w3.org/2000/svg" fill-rule="nonzero" fill="rgb(10.572815%, 9.655762%, 10.258484%)" fill-opacity="1" d="M 3029.695312 3026.269531 C 3022.253906 3026.269531 3016.195312 3032.324219 3016.195312 3039.769531 C 3016.195312 3047.210938 3022.253906 3053.269531 3029.695312 3053.269531 C 3037.140625 3053.269531 3043.195312 3047.210938 3043.195312 3039.769531 C 3043.195312 3032.324219 3037.140625 3026.269531 3029.695312 3026.269531 M 3029.695312 3030.769531 C 3034.667969 3030.769531 3038.695312 3034.796875 3038.695312 3039.769531 C 3038.695312 3044.738281 3034.667969 3048.769531 3029.695312 3048.769531 C 3024.726562 3048.769531 3020.695312 3044.738281 3020.695312 3039.769531 C 3020.695312 3034.796875 3024.726562 3030.769531 3029.695312 3030.769531 "/>
<path xmlns="http://www.w3.org/2000/svg" fill-rule="nonzero" fill="rgb(10.572815%, 9.655762%, 10.258484%)" fill-opacity="1" d="M 2697.199219 3048.269531 C 2689.757812 3048.269531 2683.699219 3054.324219 2683.699219 3061.769531 C 2683.699219 3069.214844 2689.757812 3075.269531 2697.199219 3075.269531 C 2704.644531 3075.269531 2710.699219 3069.214844 2710.699219 3061.769531 C 2710.699219 3054.324219 2704.644531 3048.269531 2697.199219 3048.269531 M 2697.199219 3052.769531 C 2702.171875 3052.769531 2706.199219 3056.800781 2706.199219 3061.769531 C 2706.199219 3066.738281 2702.171875 3070.769531 2697.199219 3070.769531 C 2692.230469 3070.769531 2688.199219 3066.738281 2688.199219 3061.769531 C 2688.199219 3056.800781 2692.230469 3052.769531 2697.199219 3052.769531 "/>
<path xmlns="http://www.w3.org/2000/svg" fill-rule="nonzero" fill="rgb(10.572815%, 9.655762%, 10.258484%)" fill-opacity="1" d="M 3029.695312 3048.269531 C 3022.253906 3048.269531 3016.195312 3054.324219 3016.195312 3061.769531 C 3016.195312 3069.214844 3022.253906 3075.269531 3029.695312 3075.269531 C 3037.140625 3075.269531 3043.195312 3069.214844 3043.195312 3061.769531 C 3043.195312 3054.324219 3037.140625 3048.269531 3029.695312 3048.269531 M 3029.695312 3052.769531 C 3034.667969 3052.769531 3038.695312 3056.800781 3038.695312 3061.769531 C 3038.695312 3066.738281 3034.667969 3070.769531 3029.695312 3070.769531 C 3024.726562 3070.769531 3020.695312 3066.738281 3020.695312 3061.769531 C 3020.695312 3056.800781 3024.726562 3052.769531 3029.695312 3052.769531 "/>
<path xmlns="http://www.w3.org/2000/svg" fill-rule="nonzero" fill="rgb(10.572815%, 9.655762%, 10.258484%)" fill-opacity="1" d="M 3484.816406 2769.171875 C 3481.210938 2769.171875 3477.820312 2770.574219 3475.269531 2773.125 C 3470.007812 2778.386719 3470.007812 2786.953125 3475.269531 2792.21875 C 3477.820312 2794.765625 3481.210938 2796.171875 3484.816406 2796.171875 C 3488.421875 2796.171875 3491.8125 2794.765625 3494.363281 2792.21875 C 3496.914062 2789.667969 3498.316406 2786.277344 3498.316406 2782.671875 C 3498.316406 2779.066406 3496.914062 2775.675781 3494.363281 2773.125 C 3491.8125 2770.574219 3488.421875 2769.171875 3484.816406 2769.171875 M 3484.816406 2773.671875 C 3487.121094 2773.671875 3489.421875 2774.550781 3491.179688 2776.308594 C 3494.695312 2779.820312 3494.695312 2785.519531 3491.179688 2789.035156 C 3489.421875 2790.792969 3487.121094 2791.671875 3484.816406 2791.671875 C 3482.515625 2791.671875 3480.210938 2790.792969 3478.453125 2789.035156 C 3474.9375 2785.519531 3474.9375 2779.820312 3478.453125 2776.308594 C 3480.210938 2774.550781 3482.515625 2773.671875 3484.816406 2773.671875 "/>
<path xmlns="http://www.w3.org/2000/svg" fill-rule="nonzero" fill="rgb(10.572815%, 9.655762%, 10.258484%)" fill-opacity="1" d="M 3484.816406 2742.738281 C 3481.210938 2742.738281 3477.820312 2744.140625 3475.269531 2746.691406 C 3470.007812 2751.953125 3470.007812 2760.519531 3475.269531 2765.78125 C 3477.820312 2768.332031 3481.210938 2769.738281 3484.816406 2769.738281 C 3488.421875 2769.738281 3491.8125 2768.332031 3494.363281 2765.78125 C 3499.625 2760.519531 3499.625 2751.953125 3494.363281 2746.691406 C 3491.8125 2744.140625 3488.421875 2742.738281 3484.816406 2742.738281 M 3484.816406 2747.238281 C 3487.121094 2747.238281 3489.421875 2748.117188 3491.179688 2749.871094 C 3494.695312 2753.386719 3494.695312 2759.085938 3491.179688 2762.601562 C 3489.421875 2764.359375 3487.121094 2765.238281 3484.816406 2765.238281 C 3482.515625 2765.238281 3480.210938 2764.359375 3478.453125 2762.601562 C 3474.9375 2759.085938 3474.9375 2753.386719 3478.453125 2749.871094 C 3480.210938 2748.117188 3482.515625 2747.238281 3484.816406 2747.238281 "/>
<path xmlns="http://www.w3.org/2000/svg" fill-rule="nonzero" fill="rgb(10.572815%, 9.655762%, 10.258484%)" fill-opacity="1" d="M 3484.816406 2718.347656 C 3481.210938 2718.347656 3477.820312 2719.753906 3475.269531 2722.300781 C 3470.007812 2727.566406 3470.007812 2736.128906 3475.269531 2741.394531 C 3477.820312 2743.945312 3481.210938 2745.347656 3484.816406 2745.347656 C 3488.421875 2745.347656 3491.8125 2743.945312 3494.363281 2741.394531 C 3499.625 2736.128906 3499.625 2727.566406 3494.363281 2722.300781 C 3491.8125 2719.753906 3488.421875 2718.347656 3484.816406 2718.347656 M 3484.816406 2722.847656 C 3487.121094 2722.847656 3489.421875 2723.726562 3491.179688 2725.484375 C 3494.695312 2729 3494.695312 2734.695312 3491.179688 2738.210938 C 3489.421875 2739.96875 3487.121094 2740.847656 3484.816406 2740.847656 C 3482.515625 2740.847656 3480.210938 2739.96875 3478.453125 2738.210938 C 3474.9375 2734.695312 3474.9375 2729 3478.453125 2725.484375 C 3480.210938 2723.726562 3482.515625 2722.847656 3484.816406 2722.847656 "/>
<path xmlns="http://www.w3.org/2000/svg" fill-rule="nonzero" fill="rgb(10.572815%, 9.655762%, 10.258484%)" fill-opacity="1" d="M 3484.828125 2793.917969 C 3483.785156 2793.917969 3482.738281 2794.042969 3481.714844 2794.28125 C 3478.207031 2795.109375 3475.230469 2797.253906 3473.335938 2800.324219 C 3471.441406 2803.390625 3470.851562 2807.015625 3471.679688 2810.523438 C 3473.125 2816.648438 3478.523438 2820.921875 3484.8125 2820.921875 C 3485.855469 2820.921875 3486.898438 2820.800781 3487.921875 2820.558594 C 3495.164062 2818.851562 3499.667969 2811.566406 3497.957031 2804.320312 C 3496.511719 2798.195312 3491.113281 2793.917969 3484.828125 2793.917969 M 3484.828125 2798.417969 C 3488.90625 2798.417969 3492.601562 2801.210938 3493.578125 2805.355469 C 3494.71875 2810.191406 3491.722656 2815.039062 3486.886719 2816.179688 C 3486.191406 2816.34375 3485.496094 2816.421875 3484.8125 2816.421875 C 3480.730469 2816.421875 3477.039062 2813.632812 3476.058594 2809.488281 C 3474.917969 2804.652344 3477.914062 2799.804688 3482.75 2798.664062 C 3483.445312 2798.5 3484.140625 2798.417969 3484.828125 2798.417969 "/>
<path xmlns="http://www.w3.org/2000/svg" fill-rule="nonzero" fill="rgb(10.572815%, 9.655762%, 10.258484%)" fill-opacity="1" d="M 2827.195312 2718.113281 C 2819.753906 2718.113281 2813.695312 2724.167969 2813.695312 2731.613281 C 2813.695312 2739.054688 2819.753906 2745.113281 2827.195312 2745.113281 C 2834.640625 2745.113281 2840.695312 2739.054688 2840.695312 2731.613281 C 2840.695312 2724.167969 2834.640625 2718.113281 2827.195312 2718.113281 M 2827.195312 2722.613281 C 2832.167969 2722.613281 2836.195312 2726.640625 2836.195312 2731.613281 C 2836.195312 2736.582031 2832.167969 2740.613281 2827.195312 2740.613281 C 2822.226562 2740.613281 2818.195312 2736.582031 2818.195312 2731.613281 C 2818.195312 2726.640625 2822.226562 2722.613281 2827.195312 2722.613281 "/>
<path xmlns="http://www.w3.org/2000/svg" fill-rule="nonzero" fill="rgb(10.572815%, 9.655762%, 10.258484%)" fill-opacity="1" d="M 2453.699219 2803.613281 C 2446.253906 2803.613281 2440.199219 2809.667969 2440.199219 2817.113281 C 2440.199219 2824.554688 2446.253906 2830.613281 2453.699219 2830.613281 C 2461.140625 2830.613281 2467.199219 2824.554688 2467.199219 2817.113281 C 2467.199219 2809.667969 2461.140625 2803.613281 2453.699219 2803.613281 M 2453.699219 2808.113281 C 2458.667969 2808.113281 2462.699219 2812.140625 2462.699219 2817.113281 C 2462.699219 2822.082031 2458.667969 2826.113281 2453.699219 2826.113281 C 2448.726562 2826.113281 2444.699219 2822.082031 2444.699219 2817.113281 C 2444.699219 2812.140625 2448.726562 2808.113281 2453.699219 2808.113281 "/>
<path xmlns="http://www.w3.org/2000/svg" fill-rule="nonzero" fill="rgb(10.572815%, 9.655762%, 10.258484%)" fill-opacity="1" d="M 2408.699219 2959.609375 C 2401.253906 2959.609375 2395.199219 2965.667969 2395.199219 2973.109375 C 2395.199219 2980.554688 2401.253906 2986.609375 2408.699219 2986.609375 C 2416.140625 2986.609375 2422.199219 2980.554688 2422.199219 2973.109375 C 2422.199219 2965.667969 2416.140625 2959.609375 2408.699219 2959.609375 M 2408.699219 2964.109375 C 2413.667969 2964.109375 2417.699219 2968.140625 2417.699219 2973.109375 C 2417.699219 2978.082031 2413.667969 2982.109375 2408.699219 2982.109375 C 2403.726562 2982.109375 2399.699219 2978.082031 2399.699219 2973.109375 C 2399.699219 2968.140625 2403.726562 2964.109375 2408.699219 2964.109375 "/>
<path xmlns="http://www.w3.org/2000/svg" fill-rule="nonzero" fill="rgb(10.572815%, 9.655762%, 10.258484%)" fill-opacity="1" d="M 2454.199219 1739.484375 C 2446.757812 1739.484375 2440.699219 1745.539062 2440.699219 1752.984375 C 2440.699219 1760.425781 2446.757812 1766.484375 2454.199219 1766.484375 C 2461.644531 1766.484375 2467.699219 1760.425781 2467.699219 1752.984375 C 2467.699219 1745.539062 2461.644531 1739.484375 2454.199219 1739.484375 M 2454.199219 1743.984375 C 2459.171875 1743.984375 2463.199219 1748.011719 2463.199219 1752.984375 C 2463.199219 1757.953125 2459.171875 1761.984375 2454.199219 1761.984375 C 2449.230469 1761.984375 2445.199219 1757.953125 2445.199219 1752.984375 C 2445.199219 1748.011719 2449.230469 1743.984375 2454.199219 1743.984375 "/>
<path xmlns="http://www.w3.org/2000/svg" fill-rule="nonzero" fill="rgb(10.572815%, 9.655762%, 10.258484%)" fill-opacity="1" d="M 2454.199219 2225.910156 C 2446.757812 2225.910156 2440.699219 2231.96875 2440.699219 2239.410156 C 2440.699219 2246.855469 2446.757812 2252.910156 2454.199219 2252.910156 C 2461.644531 2252.910156 2467.699219 2246.855469 2467.699219 2239.410156 C 2467.699219 2231.96875 2461.644531 2225.910156 2454.199219 2225.910156 M 2454.199219 2230.410156 C 2459.171875 2230.410156 2463.199219 2234.441406 2463.199219 2239.410156 C 2463.199219 2244.382812 2459.171875 2248.410156 2454.199219 2248.410156 C 2449.230469 2248.410156 2445.199219 2244.382812 2445.199219 2239.410156 C 2445.199219 2234.441406 2449.230469 2230.410156 2454.199219 2230.410156 "/>
<path xmlns="http://www.w3.org/2000/svg" fill-rule="nonzero" fill="rgb(10.572815%, 9.655762%, 10.258484%)" fill-opacity="1" d="M 2454.199219 1982.695312 C 2446.757812 1982.695312 2440.699219 1988.753906 2440.699219 1996.195312 C 2440.699219 2003.640625 2446.757812 2009.695312 2454.199219 2009.695312 C 2461.644531 2009.695312 2467.699219 2003.640625 2467.699219 1996.195312 C 2467.699219 1988.753906 2461.644531 1982.695312 2454.199219 1982.695312 M 2454.199219 1987.195312 C 2459.171875 1987.195312 2463.199219 1991.226562 2463.199219 1996.195312 C 2463.199219 2001.167969 2459.171875 2005.195312 2454.199219 2005.195312 C 2449.230469 2005.195312 2445.199219 2001.167969 2445.199219 1996.195312 C 2445.199219 1991.226562 2449.230469 1987.195312 2454.199219 1987.195312 "/>
<path xmlns="http://www.w3.org/2000/svg" fill-rule="nonzero" fill="rgb(10.572815%, 9.655762%, 10.258484%)" fill-opacity="1" d="M 2454.199219 2525.253906 C 2446.757812 2525.253906 2440.699219 2531.308594 2440.699219 2538.753906 C 2440.699219 2546.199219 2446.757812 2552.253906 2454.199219 2552.253906 C 2461.644531 2552.253906 2467.699219 2546.199219 2467.699219 2538.753906 C 2467.699219 2531.308594 2461.644531 2525.253906 2454.199219 2525.253906 M 2454.199219 2529.753906 C 2459.171875 2529.753906 2463.199219 2533.785156 2463.199219 2538.753906 C 2463.199219 2543.726562 2459.171875 2547.753906 2454.199219 2547.753906 C 2449.230469 2547.753906 2445.199219 2543.726562 2445.199219 2538.753906 C 2445.199219 2533.785156 2449.230469 2529.753906 2454.199219 2529.753906 "/>
<path xmlns="http://www.w3.org/2000/svg" fill-rule="nonzero" fill="rgb(10.572815%, 9.655762%, 10.258484%)" fill-opacity="1" d="M 3115.652344 1905.375 C 3114.957031 1905.375 3114.28125 1905.507812 3113.636719 1905.765625 L 3094.546875 1913.398438 C 3092.480469 1914.226562 3091.140625 1916.203125 3091.140625 1918.433594 C 3091.136719 1920.664062 3092.476562 1922.644531 3094.546875 1923.472656 L 3113.636719 1931.109375 C 3114.28125 1931.367188 3114.960938 1931.496094 3115.652344 1931.496094 C 3118.640625 1931.496094 3121.074219 1929.0625 3121.074219 1926.070312 L 3121.074219 1910.800781 C 3121.074219 1907.8125 3118.640625 1905.375 3115.652344 1905.375 M 3115.652344 1909.875 C 3116.140625 1909.875 3116.574219 1910.269531 3116.574219 1910.800781 L 3116.574219 1926.070312 C 3116.574219 1926.601562 3116.140625 1926.996094 3115.652344 1926.996094 C 3115.539062 1926.996094 3115.421875 1926.976562 3115.308594 1926.929688 L 3096.21875 1919.292969 C 3095.445312 1918.984375 3095.445312 1917.886719 3096.21875 1917.578125 L 3115.308594 1909.945312 C 3115.421875 1909.898438 3115.539062 1909.875 3115.652344 1909.875 "/>
<path xmlns="http://www.w3.org/2000/svg" fill-rule="nonzero" fill="rgb(10.572815%, 9.655762%, 10.258484%)" fill-opacity="1" d="M 3727.226562 1702.378906 L 3711.960938 1702.378906 C 3710.15625 1702.378906 3708.476562 1703.269531 3707.46875 1704.761719 C 3706.457031 1706.253906 3706.253906 1708.144531 3706.921875 1709.820312 L 3714.558594 1728.90625 C 3715.386719 1730.976562 3717.363281 1732.316406 3719.59375 1732.316406 C 3721.824219 1732.316406 3723.800781 1730.976562 3724.628906 1728.90625 L 3732.265625 1709.816406 C 3732.933594 1708.144531 3732.730469 1706.253906 3731.71875 1704.761719 C 3730.710938 1703.269531 3729.03125 1702.378906 3727.226562 1702.378906 M 3727.226562 1706.878906 C 3727.882812 1706.878906 3728.328125 1707.539062 3728.085938 1708.148438 L 3720.453125 1727.234375 C 3720.296875 1727.621094 3719.945312 1727.816406 3719.59375 1727.816406 C 3719.242188 1727.816406 3718.890625 1727.621094 3718.734375 1727.234375 L 3711.101562 1708.148438 C 3710.855469 1707.539062 3711.304688 1706.878906 3711.960938 1706.878906 Z M 3727.226562 1706.878906 "/>
<path xmlns="http://www.w3.org/2000/svg" fill-rule="nonzero" fill="rgb(10.572815%, 9.655762%, 10.258484%)" fill-opacity="1" d="M 3751.175781 1702.378906 L 3735.90625 1702.378906 C 3734.101562 1702.378906 3732.425781 1703.269531 3731.414062 1704.761719 C 3730.402344 1706.253906 3730.199219 1708.144531 3730.871094 1709.820312 L 3738.503906 1728.90625 C 3739.332031 1730.976562 3741.308594 1732.316406 3743.539062 1732.316406 C 3745.773438 1732.316406 3747.75 1730.976562 3748.578125 1728.902344 L 3756.210938 1709.816406 C 3756.882812 1708.144531 3756.675781 1706.253906 3755.667969 1704.761719 C 3754.65625 1703.269531 3752.976562 1702.378906 3751.175781 1702.378906 M 3751.175781 1706.878906 C 3751.828125 1706.878906 3752.277344 1707.539062 3752.03125 1708.148438 L 3744.398438 1727.234375 C 3744.242188 1727.621094 3743.890625 1727.816406 3743.539062 1727.816406 C 3743.1875 1727.816406 3742.835938 1727.621094 3742.683594 1727.234375 L 3735.046875 1708.148438 C 3734.804688 1707.539062 3735.253906 1706.878906 3735.90625 1706.878906 Z M 3751.175781 1706.878906 "/>
<path xmlns="http://www.w3.org/2000/svg" fill-rule="nonzero" fill="rgb(10.572815%, 9.655762%, 10.258484%)" fill-opacity="1" d="M 3703.28125 1702.378906 L 3688.011719 1702.378906 C 3686.210938 1702.378906 3684.53125 1703.269531 3683.519531 1704.761719 C 3682.507812 1706.253906 3682.304688 1708.144531 3682.976562 1709.820312 L 3690.609375 1728.90625 C 3691.4375 1730.976562 3693.414062 1732.316406 3695.648438 1732.316406 C 3697.878906 1732.316406 3699.855469 1730.976562 3700.683594 1728.90625 L 3708.316406 1709.816406 C 3708.988281 1708.144531 3708.785156 1706.253906 3707.773438 1704.761719 C 3706.761719 1703.269531 3705.082031 1702.378906 3703.28125 1702.378906 M 3703.28125 1706.878906 C 3703.933594 1706.878906 3704.382812 1707.539062 3704.140625 1708.148438 L 3696.503906 1727.234375 C 3696.351562 1727.621094 3696 1727.816406 3695.648438 1727.816406 C 3695.296875 1727.816406 3694.945312 1727.621094 3694.789062 1727.234375 L 3687.152344 1708.148438 C 3686.910156 1707.539062 3687.359375 1706.878906 3688.011719 1706.878906 Z M 3703.28125 1706.878906 "/>
<path xmlns="http://www.w3.org/2000/svg" fill-rule="nonzero" fill="rgb(10.572815%, 9.655762%, 10.258484%)" fill-opacity="1" d="M 3435.714844 1904.1875 C 3435.023438 1904.1875 3434.34375 1904.316406 3433.699219 1904.574219 L 3414.613281 1912.210938 C 3412.539062 1913.039062 3411.203125 1915.015625 3411.203125 1917.25 C 3411.203125 1919.480469 3412.542969 1921.457031 3414.613281 1922.285156 L 3433.699219 1929.917969 C 3434.339844 1930.175781 3435.019531 1930.304688 3435.714844 1930.304688 C 3438.703125 1930.304688 3441.136719 1927.871094 3441.136719 1924.882812 L 3441.136719 1909.613281 C 3441.136719 1906.621094 3438.703125 1904.1875 3435.714844 1904.1875 M 3435.714844 1908.6875 C 3436.203125 1908.6875 3436.636719 1909.082031 3436.636719 1909.613281 L 3436.636719 1924.882812 C 3436.636719 1925.414062 3436.203125 1925.804688 3435.714844 1925.804688 C 3435.601562 1925.804688 3435.484375 1925.785156 3435.371094 1925.738281 L 3416.28125 1918.105469 C 3415.507812 1917.792969 3415.507812 1916.699219 3416.28125 1916.386719 L 3435.371094 1908.753906 C 3435.484375 1908.707031 3435.597656 1908.6875 3435.714844 1908.6875 "/>
<path xmlns="http://www.w3.org/2000/svg" fill-rule="nonzero" fill="rgb(10.572815%, 9.655762%, 10.258484%)" fill-opacity="1" d="M 3435.714844 1879.726562 C 3435.023438 1879.726562 3434.34375 1879.855469 3433.699219 1880.113281 L 3414.613281 1887.75 C 3412.539062 1888.578125 3411.203125 1890.554688 3411.203125 1892.789062 C 3411.203125 1895.019531 3412.542969 1896.996094 3414.613281 1897.824219 L 3433.699219 1905.457031 C 3434.339844 1905.714844 3435.019531 1905.847656 3435.714844 1905.847656 C 3438.703125 1905.847656 3441.136719 1903.414062 3441.136719 1900.421875 L 3441.136719 1885.152344 C 3441.136719 1882.160156 3438.703125 1879.726562 3435.714844 1879.726562 M 3435.714844 1884.226562 C 3436.203125 1884.226562 3436.636719 1884.621094 3436.636719 1885.152344 L 3436.636719 1900.421875 C 3436.636719 1900.953125 3436.203125 1901.347656 3435.714844 1901.347656 C 3435.601562 1901.347656 3435.484375 1901.324219 3435.371094 1901.277344 L 3416.28125 1893.644531 C 3415.507812 1893.335938 3415.507812 1892.238281 3416.28125 1891.929688 L 3435.371094 1884.292969 C 3435.484375 1884.246094 3435.597656 1884.226562 3435.714844 1884.226562 "/>
<path xmlns="http://www.w3.org/2000/svg" fill-rule="nonzero" fill="rgb(10.572815%, 9.655762%, 10.258484%)" fill-opacity="1" d="M 3435.714844 1855.265625 C 3435.023438 1855.265625 3434.34375 1855.398438 3433.699219 1855.65625 L 3414.613281 1863.289062 C 3412.542969 1864.117188 3411.203125 1866.09375 3411.203125 1868.324219 C 3411.203125 1870.554688 3412.539062 1872.53125 3414.613281 1873.363281 L 3433.699219 1880.996094 C 3434.34375 1881.253906 3435.023438 1881.386719 3435.714844 1881.386719 C 3438.703125 1881.386719 3441.136719 1878.953125 3441.136719 1875.960938 L 3441.136719 1860.691406 C 3441.136719 1857.699219 3438.703125 1855.265625 3435.714844 1855.265625 M 3435.714844 1859.765625 C 3436.203125 1859.765625 3436.636719 1860.160156 3436.636719 1860.691406 L 3436.636719 1875.960938 C 3436.636719 1876.492188 3436.203125 1876.886719 3435.714844 1876.886719 C 3435.601562 1876.886719 3435.484375 1876.863281 3435.371094 1876.820312 L 3416.28125 1869.183594 C 3415.507812 1868.875 3415.507812 1867.777344 3416.28125 1867.46875 L 3435.371094 1859.832031 C 3435.484375 1859.785156 3435.597656 1859.765625 3435.714844 1859.765625 "/>
<path xmlns="http://www.w3.org/2000/svg" fill-rule="nonzero" fill="rgb(10.572815%, 9.655762%, 10.258484%)" fill-opacity="1" d="M 4253.214844 2744.695312 C 4250.222656 2744.695312 4247.789062 2747.128906 4247.789062 2750.117188 L 4247.789062 2765.386719 C 4247.789062 2768.378906 4250.222656 2770.8125 4253.214844 2770.8125 C 4253.90625 2770.8125 4254.585938 2770.683594 4255.230469 2770.421875 L 4274.316406 2762.789062 C 4276.386719 2761.960938 4277.726562 2759.984375 4277.726562 2757.753906 C 4277.726562 2755.523438 4276.390625 2753.546875 4274.316406 2752.71875 L 4255.230469 2745.082031 C 4254.582031 2744.824219 4253.90625 2744.695312 4253.214844 2744.695312 M 4253.214844 2749.195312 C 4253.328125 2749.195312 4253.445312 2749.214844 4253.558594 2749.261719 L 4272.644531 2756.894531 C 4273.417969 2757.207031 4273.417969 2758.300781 4272.644531 2758.613281 L 4253.558594 2766.246094 C 4253.445312 2766.292969 4253.328125 2766.3125 4253.214844 2766.3125 C 4252.726562 2766.3125 4252.289062 2765.917969 4252.289062 2765.386719 L 4252.289062 2750.117188 C 4252.289062 2749.589844 4252.726562 2749.195312 4253.214844 2749.195312 "/>
<path xmlns="http://www.w3.org/2000/svg" fill-rule="nonzero" fill="rgb(10.572815%, 9.655762%, 10.258484%)" fill-opacity="1" d="M 4644.710938 2695.601562 C 4641.71875 2695.601562 4639.289062 2698.035156 4639.289062 2701.027344 L 4639.289062 2716.296875 C 4639.289062 2719.289062 4641.71875 2721.722656 4644.710938 2721.722656 C 4645.402344 2721.722656 4646.082031 2721.589844 4646.726562 2721.332031 L 4665.8125 2713.699219 C 4667.886719 2712.871094 4669.222656 2710.894531 4669.222656 2708.660156 C 4669.222656 2706.433594 4667.886719 2704.453125 4665.8125 2703.625 L 4646.726562 2695.992188 C 4646.082031 2695.734375 4645.40625 2695.601562 4644.710938 2695.601562 M 4644.710938 2700.101562 C 4644.824219 2700.101562 4644.941406 2700.121094 4645.054688 2700.167969 L 4664.140625 2707.804688 C 4664.917969 2708.113281 4664.917969 2709.210938 4664.140625 2709.519531 L 4645.054688 2717.15625 C 4644.941406 2717.199219 4644.824219 2717.222656 4644.710938 2717.222656 C 4644.222656 2717.222656 4643.789062 2716.828125 4643.789062 2716.296875 L 4643.789062 2701.027344 C 4643.789062 2700.496094 4644.222656 2700.101562 4644.710938 2700.101562 "/>
<path xmlns="http://www.w3.org/2000/svg" fill-rule="nonzero" fill="rgb(10.572815%, 9.655762%, 10.258484%)" fill-opacity="1" d="M 4253.214844 2695.511719 C 4250.222656 2695.511719 4247.789062 2697.945312 4247.789062 2700.9375 L 4247.789062 2716.207031 C 4247.789062 2719.199219 4250.222656 2721.632812 4253.214844 2721.632812 C 4253.90625 2721.632812 4254.585938 2721.503906 4255.230469 2721.242188 L 4274.316406 2713.609375 C 4276.386719 2712.78125 4277.726562 2710.804688 4277.726562 2708.574219 C 4277.726562 2706.34375 4276.386719 2704.367188 4274.316406 2703.535156 L 4255.230469 2695.902344 C 4254.582031 2695.644531 4253.90625 2695.511719 4253.214844 2695.511719 M 4253.214844 2700.011719 C 4253.328125 2700.011719 4253.445312 2700.035156 4253.558594 2700.082031 L 4272.644531 2707.714844 C 4273.417969 2708.023438 4273.417969 2709.121094 4272.644531 2709.429688 L 4253.558594 2717.066406 C 4253.445312 2717.113281 4253.328125 2717.132812 4253.214844 2717.132812 C 4252.726562 2717.132812 4252.289062 2716.738281 4252.289062 2716.207031 L 4252.289062 2700.9375 C 4252.289062 2700.40625 4252.726562 2700.011719 4253.214844 2700.011719 "/>
<path xmlns="http://www.w3.org/2000/svg" fill-rule="nonzero" fill="rgb(10.572815%, 9.655762%, 10.258484%)" fill-opacity="1" d="M 4009.1875 2744.695312 C 4006.195312 2744.695312 4003.761719 2747.128906 4003.761719 2750.117188 L 4003.761719 2765.390625 C 4003.761719 2768.378906 4006.195312 2770.8125 4009.1875 2770.8125 C 4009.878906 2770.8125 4010.558594 2770.683594 4011.203125 2770.421875 L 4030.289062 2762.789062 C 4032.359375 2761.960938 4033.695312 2759.984375 4033.699219 2757.753906 C 4033.699219 2755.523438 4032.359375 2753.546875 4030.289062 2752.71875 L 4011.199219 2745.082031 C 4010.554688 2744.824219 4009.878906 2744.695312 4009.1875 2744.695312 M 4009.1875 2749.195312 C 4009.296875 2749.195312 4009.414062 2749.214844 4009.53125 2749.261719 L 4028.617188 2756.894531 C 4029.390625 2757.207031 4029.390625 2758.300781 4028.617188 2758.613281 L 4009.53125 2766.246094 C 4009.414062 2766.292969 4009.296875 2766.3125 4009.1875 2766.3125 C 4008.695312 2766.3125 4008.261719 2765.917969 4008.261719 2765.390625 L 4008.261719 2750.117188 C 4008.261719 2749.585938 4008.695312 2749.195312 4009.1875 2749.195312 "/>
<path xmlns="http://www.w3.org/2000/svg" fill-rule="nonzero" fill="rgb(10.572815%, 9.655762%, 10.258484%)" fill-opacity="1" d="M 4009.1875 2695.511719 C 4006.195312 2695.511719 4003.761719 2697.945312 4003.761719 2700.9375 L 4003.761719 2716.207031 C 4003.761719 2719.199219 4006.195312 2721.632812 4009.1875 2721.632812 C 4009.878906 2721.632812 4010.558594 2721.503906 4011.203125 2721.242188 L 4030.289062 2713.609375 C 4032.359375 2712.78125 4033.695312 2710.804688 4033.699219 2708.574219 C 4033.699219 2706.34375 4032.359375 2704.367188 4030.289062 2703.535156 L 4011.199219 2695.902344 C 4010.554688 2695.644531 4009.878906 2695.511719 4009.1875 2695.511719 M 4009.1875 2700.011719 C 4009.300781 2700.011719 4009.414062 2700.035156 4009.53125 2700.082031 L 4028.617188 2707.714844 C 4029.390625 2708.023438 4029.390625 2709.121094 4028.617188 2709.429688 L 4009.53125 2717.066406 C 4009.414062 2717.113281 4009.300781 2717.132812 4009.1875 2717.132812 C 4008.695312 2717.132812 4008.261719 2716.738281 4008.261719 2716.207031 L 4008.261719 2700.9375 C 4008.261719 2700.40625 4008.695312 2700.011719 4009.1875 2700.011719 "/>
<path xmlns="http://www.w3.org/2000/svg" fill-rule="nonzero" fill="rgb(10.572815%, 9.655762%, 10.258484%)" fill-opacity="1" d="M 4026.273438 2719.6875 C 4025.582031 2719.6875 4024.902344 2719.820312 4024.257812 2720.078125 L 4005.171875 2727.710938 C 4003.101562 2728.539062 4001.761719 2730.515625 4001.761719 2732.746094 C 4001.761719 2734.976562 4003.097656 2736.957031 4005.171875 2737.785156 L 4024.257812 2745.417969 C 4024.902344 2745.675781 4025.582031 2745.808594 4026.273438 2745.808594 C 4029.265625 2745.808594 4031.695312 2743.375 4031.695312 2740.382812 L 4031.695312 2725.113281 C 4031.695312 2722.121094 4029.265625 2719.6875 4026.273438 2719.6875 M 4026.273438 2724.1875 C 4026.761719 2724.1875 4027.195312 2724.582031 4027.195312 2725.113281 L 4027.195312 2740.382812 C 4027.195312 2740.914062 4026.761719 2741.308594 4026.273438 2741.308594 C 4026.160156 2741.308594 4026.042969 2741.289062 4025.929688 2741.242188 L 4006.84375 2733.605469 C 4006.066406 2733.296875 4006.066406 2732.199219 4006.84375 2731.890625 L 4025.929688 2724.253906 C 4026.042969 2724.210938 4026.160156 2724.1875 4026.273438 2724.1875 "/>
<path xmlns="http://www.w3.org/2000/svg" fill-rule="nonzero" fill="rgb(10.572815%, 9.655762%, 10.258484%)" fill-opacity="1" d="M 4270.300781 2719.6875 C 4269.609375 2719.6875 4268.929688 2719.820312 4268.285156 2720.078125 L 4249.199219 2727.710938 C 4247.128906 2728.539062 4245.792969 2730.515625 4245.789062 2732.746094 C 4245.789062 2734.976562 4247.128906 2736.957031 4249.199219 2737.785156 L 4268.285156 2745.417969 C 4268.933594 2745.675781 4269.609375 2745.808594 4270.300781 2745.808594 C 4273.292969 2745.808594 4275.726562 2743.375 4275.726562 2740.382812 L 4275.726562 2725.113281 C 4275.726562 2722.121094 4273.292969 2719.6875 4270.300781 2719.6875 M 4270.300781 2724.1875 C 4270.789062 2724.1875 4271.226562 2724.582031 4271.226562 2725.113281 L 4271.226562 2740.382812 C 4271.226562 2740.914062 4270.789062 2741.308594 4270.300781 2741.308594 C 4270.1875 2741.308594 4270.074219 2741.289062 4269.957031 2741.242188 L 4250.871094 2733.605469 C 4250.097656 2733.296875 4250.097656 2732.199219 4250.871094 2731.890625 L 4269.957031 2724.253906 C 4270.074219 2724.210938 4270.1875 2724.1875 4270.300781 2724.1875 "/>
<path xmlns="http://www.w3.org/2000/svg" fill-rule="nonzero" fill="rgb(10.572815%, 9.655762%, 10.258484%)" fill-opacity="1" d="M 3720.464844 3024.519531 C 3718.234375 3024.519531 3716.257812 3025.859375 3715.429688 3027.929688 L 3707.792969 3047.019531 C 3707.125 3048.691406 3707.328125 3050.582031 3708.339844 3052.074219 C 3709.347656 3053.566406 3711.027344 3054.457031 3712.832031 3054.457031 L 3728.101562 3054.457031 C 3729.902344 3054.457031 3731.582031 3053.566406 3732.59375 3052.074219 C 3733.601562 3050.582031 3733.804688 3048.691406 3733.136719 3047.015625 L 3725.5 3027.929688 C 3724.671875 3025.859375 3722.695312 3024.519531 3720.464844 3024.519531 M 3720.464844 3029.019531 C 3720.816406 3029.019531 3721.167969 3029.214844 3721.324219 3029.601562 L 3728.957031 3048.6875 C 3729.203125 3049.296875 3728.753906 3049.957031 3728.101562 3049.957031 L 3712.832031 3049.957031 C 3712.175781 3049.957031 3711.730469 3049.296875 3711.972656 3048.6875 L 3719.605469 3029.601562 C 3719.761719 3029.214844 3720.113281 3029.019531 3720.464844 3029.019531 "/>
<path xmlns="http://www.w3.org/2000/svg" fill-rule="nonzero" fill="rgb(10.572815%, 9.655762%, 10.258484%)" fill-opacity="1" d="M 3767.761719 3024.519531 C 3765.53125 3024.519531 3763.554688 3025.859375 3762.726562 3027.929688 L 3755.09375 3047.019531 C 3754.421875 3048.691406 3754.625 3050.582031 3755.636719 3052.074219 C 3756.648438 3053.566406 3758.324219 3054.457031 3760.128906 3054.457031 L 3775.398438 3054.457031 C 3777.199219 3054.457031 3778.878906 3053.566406 3779.890625 3052.074219 C 3780.898438 3050.582031 3781.101562 3048.691406 3780.433594 3047.015625 L 3772.800781 3027.929688 C 3771.972656 3025.859375 3769.992188 3024.519531 3767.761719 3024.519531 M 3767.761719 3029.019531 C 3768.113281 3029.019531 3768.464844 3029.214844 3768.621094 3029.601562 L 3776.257812 3048.6875 C 3776.5 3049.296875 3776.050781 3049.957031 3775.398438 3049.957031 L 3760.128906 3049.957031 C 3759.472656 3049.957031 3759.027344 3049.296875 3759.269531 3048.6875 L 3766.90625 3029.601562 C 3767.058594 3029.214844 3767.410156 3029.019531 3767.761719 3029.019531 "/>
<path xmlns="http://www.w3.org/2000/svg" fill-rule="nonzero" fill="rgb(10.572815%, 9.655762%, 10.258484%)" fill-opacity="1" d="M 4006.210938 3193.1875 C 4005.519531 3193.1875 4004.839844 3193.316406 4004.195312 3193.574219 L 3985.109375 3201.210938 C 3983.039062 3202.039062 3981.699219 3204.015625 3981.699219 3206.246094 C 3981.699219 3208.476562 3983.039062 3210.453125 3985.109375 3211.28125 L 4004.195312 3218.917969 C 4004.839844 3219.175781 4005.519531 3219.304688 4006.210938 3219.304688 C 4009.203125 3219.304688 4011.636719 3216.871094 4011.636719 3213.882812 L 4011.636719 3198.613281 C 4011.636719 3195.621094 4009.203125 3193.1875 4006.210938 3193.1875 M 4006.210938 3197.6875 C 4006.699219 3197.6875 4007.136719 3198.082031 4007.136719 3198.613281 L 4007.136719 3213.882812 C 4007.136719 3214.410156 4006.699219 3214.804688 4006.210938 3214.804688 C 4006.097656 3214.804688 4005.980469 3214.785156 4005.867188 3214.738281 L 3986.78125 3207.105469 C 3986.003906 3206.792969 3986.003906 3205.699219 3986.78125 3205.386719 L 4005.867188 3197.753906 C 4005.980469 3197.707031 4006.097656 3197.6875 4006.210938 3197.6875 "/>
<path xmlns="http://www.w3.org/2000/svg" fill-rule="nonzero" fill="rgb(10.572815%, 9.655762%, 10.258484%)" fill-opacity="1" d="M 4235.699219 3170.726562 C 4232.71875 3170.726562 4230.296875 3173.152344 4230.296875 3176.128906 L 4230.296875 3191.339844 C 4230.296875 3194.320312 4232.71875 3196.742188 4235.699219 3196.742188 C 4236.386719 3196.742188 4237.0625 3196.613281 4237.703125 3196.355469 L 4256.714844 3188.75 C 4258.78125 3187.925781 4260.113281 3185.957031 4260.113281 3183.738281 C 4260.113281 3181.515625 4258.78125 3179.542969 4256.71875 3178.71875 L 4237.703125 3171.113281 C 4237.0625 3170.855469 4236.386719 3170.726562 4235.699219 3170.726562 M 4235.699219 3175.207031 C 4235.808594 3175.207031 4235.925781 3175.230469 4236.039062 3175.277344 L 4255.050781 3182.878906 C 4255.824219 3183.1875 4255.824219 3184.28125 4255.050781 3184.589844 L 4236.039062 3192.195312 C 4235.925781 3192.242188 4235.808594 3192.261719 4235.699219 3192.261719 C 4235.210938 3192.261719 4234.777344 3191.867188 4234.777344 3191.339844 L 4234.777344 3176.128906 C 4234.777344 3175.601562 4235.210938 3175.207031 4235.699219 3175.207031 "/>
<path xmlns="http://www.w3.org/2000/svg" fill-rule="nonzero" fill="rgb(10.572815%, 9.655762%, 10.258484%)" fill-opacity="1" d="M 4006.210938 3144.222656 C 4005.519531 3144.222656 4004.839844 3144.355469 4004.195312 3144.613281 L 3985.109375 3152.246094 C 3983.039062 3153.078125 3981.699219 3155.054688 3981.699219 3157.285156 C 3981.699219 3159.515625 3983.039062 3161.492188 3985.109375 3162.320312 L 4004.195312 3169.957031 C 4004.839844 3170.214844 4005.519531 3170.34375 4006.210938 3170.34375 C 4009.203125 3170.34375 4011.632812 3167.910156 4011.632812 3164.917969 L 4011.632812 3149.648438 C 4011.632812 3146.660156 4009.203125 3144.222656 4006.210938 3144.222656 M 4006.210938 3148.722656 C 4006.699219 3148.722656 4007.132812 3149.121094 4007.132812 3149.648438 L 4007.132812 3164.917969 C 4007.132812 3165.449219 4006.699219 3165.84375 4006.210938 3165.84375 C 4006.097656 3165.84375 4005.980469 3165.824219 4005.867188 3165.777344 L 3986.78125 3158.140625 C 3986.003906 3157.832031 3986.003906 3156.738281 3986.78125 3156.425781 L 4005.867188 3148.792969 C 4005.980469 3148.746094 4006.097656 3148.722656 4006.210938 3148.722656 "/>
<path xmlns="http://www.w3.org/2000/svg" fill-rule="nonzero" fill="rgb(10.572815%, 9.655762%, 10.258484%)" fill-opacity="1" d="M 4507.40625 3145.402344 C 4506.714844 3145.402344 4506.035156 3145.53125 4505.390625 3145.789062 L 4486.304688 3153.425781 C 4484.234375 3154.25 4482.894531 3156.230469 4482.894531 3158.460938 C 4482.894531 3160.691406 4484.230469 3162.667969 4486.304688 3163.496094 L 4505.390625 3171.132812 C 4506.035156 3171.390625 4506.714844 3171.519531 4507.40625 3171.519531 C 4510.398438 3171.519531 4512.828125 3169.085938 4512.828125 3166.097656 L 4512.828125 3150.824219 C 4512.828125 3147.835938 4510.398438 3145.402344 4507.40625 3145.402344 M 4507.40625 3149.902344 C 4507.894531 3149.902344 4508.328125 3150.296875 4508.328125 3150.824219 L 4508.328125 3166.097656 C 4508.328125 3166.625 4507.894531 3167.019531 4507.40625 3167.019531 C 4507.292969 3167.019531 4507.175781 3167 4507.0625 3166.953125 L 4487.976562 3159.320312 C 4487.199219 3159.007812 4487.199219 3157.914062 4487.976562 3157.601562 L 4507.0625 3149.96875 C 4507.175781 3149.921875 4507.292969 3149.902344 4507.40625 3149.902344 "/>
<path xmlns="http://www.w3.org/2000/svg" fill-rule="nonzero" fill="rgb(10.572815%, 9.655762%, 10.258484%)" fill-opacity="1" d="M 4582.628906 2924.941406 C 4580.398438 2924.941406 4578.421875 2926.28125 4577.589844 2928.351562 L 4569.957031 2947.441406 C 4569.285156 2949.113281 4569.488281 2951.003906 4570.5 2952.496094 C 4571.511719 2953.988281 4573.191406 2954.878906 4574.992188 2954.878906 L 4590.261719 2954.878906 C 4592.0625 2954.878906 4593.742188 2953.988281 4594.753906 2952.496094 C 4595.765625 2951.003906 4595.96875 2949.113281 4595.296875 2947.441406 L 4587.664062 2928.351562 C 4586.835938 2926.28125 4584.859375 2924.941406 4582.628906 2924.941406 M 4582.628906 2929.441406 C 4582.980469 2929.441406 4583.332031 2929.636719 4583.484375 2930.023438 L 4591.121094 2949.109375 C 4591.363281 2949.71875 4590.914062 2950.378906 4590.261719 2950.378906 L 4574.992188 2950.378906 C 4574.339844 2950.378906 4573.890625 2949.71875 4574.132812 2949.109375 L 4581.769531 2930.023438 C 4581.925781 2929.636719 4582.273438 2929.441406 4582.628906 2929.441406 "/>
<path xmlns="http://www.w3.org/2000/svg" fill-rule="nonzero" fill="rgb(10.572815%, 9.655762%, 10.258484%)" fill-opacity="1" d="M 4582.628906 3011.210938 C 4580.398438 3011.210938 4578.417969 3012.550781 4577.589844 3014.621094 L 4569.957031 3033.707031 C 4569.285156 3035.382812 4569.492188 3037.273438 4570.503906 3038.765625 C 4571.511719 3040.257812 4573.191406 3041.148438 4574.992188 3041.148438 L 4590.261719 3041.148438 C 4592.0625 3041.148438 4593.742188 3040.257812 4594.753906 3038.765625 C 4595.761719 3037.273438 4595.96875 3035.382812 4595.300781 3033.710938 L 4587.664062 3014.621094 C 4586.835938 3012.550781 4584.859375 3011.210938 4582.628906 3011.210938 M 4582.628906 3015.710938 C 4582.980469 3015.710938 4583.332031 3015.90625 4583.484375 3016.292969 L 4591.121094 3035.378906 C 4591.363281 3035.988281 4590.914062 3036.648438 4590.261719 3036.648438 L 4574.992188 3036.648438 C 4574.339844 3036.648438 4573.890625 3035.988281 4574.132812 3035.378906 L 4581.769531 3016.292969 C 4581.925781 3015.90625 4582.273438 3015.710938 4582.628906 3015.710938 "/>
<path xmlns="http://www.w3.org/2000/svg" fill-rule="nonzero" fill="rgb(10.572815%, 9.655762%, 10.258484%)" fill-opacity="1" d="M 4582.628906 3095.4375 C 4580.398438 3095.4375 4578.421875 3096.777344 4577.589844 3098.847656 L 4569.957031 3117.933594 C 4569.285156 3119.609375 4569.488281 3121.496094 4570.5 3122.992188 C 4571.511719 3124.484375 4573.191406 3125.375 4574.992188 3125.375 L 4590.261719 3125.375 C 4592.0625 3125.375 4593.742188 3124.484375 4594.753906 3122.992188 C 4595.765625 3121.496094 4595.96875 3119.609375 4595.296875 3117.933594 L 4587.664062 3098.847656 C 4586.835938 3096.777344 4584.859375 3095.4375 4582.628906 3095.4375 M 4582.628906 3099.9375 C 4582.980469 3099.9375 4583.332031 3100.132812 4583.484375 3100.519531 L 4591.121094 3119.605469 C 4591.363281 3120.214844 4590.914062 3120.875 4590.261719 3120.875 L 4574.992188 3120.875 C 4574.339844 3120.875 4573.890625 3120.214844 4574.132812 3119.605469 L 4581.769531 3100.519531 C 4581.925781 3100.132812 4582.273438 3099.9375 4582.628906 3099.9375 "/>
<path xmlns="http://www.w3.org/2000/svg" fill-rule="nonzero" fill="rgb(10.572815%, 9.655762%, 10.258484%)" fill-opacity="1" d="M 4582.628906 2838.675781 C 4580.398438 2838.675781 4578.417969 2840.011719 4577.589844 2842.082031 L 4569.957031 2861.171875 C 4569.285156 2862.84375 4569.492188 2864.734375 4570.503906 2866.226562 C 4571.511719 2867.71875 4573.191406 2868.609375 4574.992188 2868.609375 L 4590.261719 2868.609375 C 4592.0625 2868.609375 4593.742188 2867.71875 4594.753906 2866.226562 C 4595.761719 2864.734375 4595.96875 2862.84375 4595.300781 2861.171875 L 4587.664062 2842.085938 C 4586.835938 2840.011719 4584.859375 2838.675781 4582.628906 2838.675781 M 4582.628906 2843.175781 C 4582.980469 2843.175781 4583.332031 2843.367188 4583.484375 2843.753906 L 4591.121094 2862.839844 C 4591.363281 2863.449219 4590.914062 2864.109375 4590.261719 2864.109375 L 4574.992188 2864.109375 C 4574.339844 2864.109375 4573.890625 2863.449219 4574.132812 2862.839844 L 4581.769531 2843.753906 C 4581.925781 2843.367188 4582.273438 2843.175781 4582.628906 2843.175781 "/>
<path xmlns="http://www.w3.org/2000/svg" fill-rule="nonzero" fill="rgb(10.572815%, 9.655762%, 10.258484%)" fill-opacity="1" d="M 3696.199219 2619.039062 C 3688.757812 2619.039062 3682.699219 2625.09375 3682.699219 2632.539062 C 3682.699219 2639.984375 3688.757812 2646.039062 3696.199219 2646.039062 C 3703.644531 2646.039062 3709.699219 2639.984375 3709.699219 2632.539062 C 3709.699219 2625.09375 3703.644531 2619.039062 3696.199219 2619.039062 M 3696.199219 2623.539062 C 3701.171875 2623.539062 3705.199219 2627.570312 3705.199219 2632.539062 C 3705.199219 2637.507812 3701.171875 2641.539062 3696.199219 2641.539062 C 3691.230469 2641.539062 3687.199219 2637.507812 3687.199219 2632.539062 C 3687.199219 2627.570312 3691.230469 2623.539062 3696.199219 2623.539062 "/>
<path xmlns="http://www.w3.org/2000/svg" fill-rule="nonzero" fill="rgb(10.572815%, 9.655762%, 10.258484%)" fill-opacity="1" d="M 2416.332031 2802.160156 L 2401.0625 2802.160156 C 2399.261719 2802.160156 2397.582031 2803.054688 2396.570312 2804.546875 C 2395.5625 2806.039062 2395.359375 2807.929688 2396.027344 2809.601562 L 2403.664062 2828.6875 C 2404.492188 2830.757812 2406.46875 2832.097656 2408.699219 2832.097656 C 2410.929688 2832.097656 2412.90625 2830.757812 2413.734375 2828.6875 L 2421.371094 2809.601562 C 2422.039062 2807.925781 2421.835938 2806.035156 2420.824219 2804.542969 C 2419.8125 2803.050781 2418.136719 2802.160156 2416.332031 2802.160156 M 2416.332031 2806.660156 C 2416.988281 2806.660156 2417.433594 2807.320312 2417.191406 2807.929688 L 2409.558594 2827.015625 C 2409.402344 2827.402344 2409.050781 2827.597656 2408.699219 2827.597656 C 2408.347656 2827.597656 2407.996094 2827.402344 2407.839844 2827.015625 L 2400.207031 2807.929688 C 2399.960938 2807.320312 2400.410156 2806.660156 2401.0625 2806.660156 Z M 2416.332031 2806.660156 "/>
<path xmlns="http://www.w3.org/2000/svg" fill-rule="nonzero" fill="rgb(10.572815%, 9.655762%, 10.258484%)" fill-opacity="1" d="M 2438.074219 2802.160156 L 2422.804688 2802.160156 C 2421 2802.160156 2419.324219 2803.050781 2418.3125 2804.542969 C 2417.300781 2806.035156 2417.097656 2807.925781 2417.765625 2809.597656 L 2425.402344 2828.6875 C 2426.226562 2830.757812 2428.207031 2832.097656 2430.4375 2832.097656 C 2432.667969 2832.097656 2434.644531 2830.757812 2435.472656 2828.6875 L 2443.109375 2809.601562 C 2443.777344 2807.925781 2443.574219 2806.035156 2442.566406 2804.542969 C 2441.554688 2803.050781 2439.875 2802.160156 2438.074219 2802.160156 M 2438.074219 2806.660156 C 2438.726562 2806.660156 2439.171875 2807.320312 2438.929688 2807.929688 L 2431.296875 2827.015625 C 2431.140625 2827.402344 2430.789062 2827.597656 2430.4375 2827.597656 C 2430.085938 2827.597656 2429.734375 2827.402344 2429.578125 2827.015625 L 2421.945312 2807.929688 C 2421.703125 2807.320312 2422.148438 2806.660156 2422.804688 2806.660156 Z M 2438.074219 2806.660156 "/>
<path xmlns="http://www.w3.org/2000/svg" fill-rule="nonzero" fill="rgb(10.572815%, 9.655762%, 10.258484%)" fill-opacity="1" d="M 3743.40625 3025.988281 C 3735.960938 3025.988281 3729.90625 3032.046875 3729.90625 3039.488281 C 3729.90625 3046.933594 3735.960938 3052.988281 3743.40625 3052.988281 C 3750.847656 3052.988281 3756.90625 3046.933594 3756.90625 3039.488281 C 3756.90625 3032.046875 3750.847656 3025.988281 3743.40625 3025.988281 M 3743.40625 3030.488281 C 3748.375 3030.488281 3752.40625 3034.519531 3752.40625 3039.488281 C 3752.40625 3044.460938 3748.375 3048.488281 3743.40625 3048.488281 C 3738.433594 3048.488281 3734.40625 3044.460938 3734.40625 3039.488281 C 3734.40625 3034.519531 3738.433594 3030.488281 3743.40625 3030.488281 "/>
<path xmlns="http://www.w3.org/2000/svg" fill-rule="nonzero" fill="rgb(10.572815%, 9.655762%, 10.258484%)" fill-opacity="1" d="M 4498.386719 3192.769531 C 4490.941406 3192.769531 4484.886719 3198.824219 4484.886719 3206.269531 C 4484.886719 3213.714844 4490.941406 3219.769531 4498.386719 3219.769531 C 4505.832031 3219.769531 4511.886719 3213.714844 4511.886719 3206.269531 C 4511.886719 3198.824219 4505.832031 3192.769531 4498.386719 3192.769531 M 4498.386719 3197.269531 C 4503.359375 3197.269531 4507.386719 3201.300781 4507.386719 3206.269531 C 4507.386719 3211.238281 4503.359375 3215.269531 4498.386719 3215.269531 C 4493.417969 3215.269531 4489.386719 3211.238281 4489.386719 3206.269531 C 4489.386719 3201.300781 4493.417969 3197.269531 4498.386719 3197.269531 "/>
<path xmlns="http://www.w3.org/2000/svg" fill-rule="nonzero" fill="rgb(10.572815%, 9.655762%, 10.258484%)" fill-opacity="1" d="M 4498.386719 3169.96875 C 4490.941406 3169.96875 4484.886719 3176.023438 4484.886719 3183.46875 C 4484.886719 3190.910156 4490.941406 3196.96875 4498.386719 3196.96875 C 4505.832031 3196.96875 4511.886719 3190.910156 4511.886719 3183.46875 C 4511.886719 3176.023438 4505.832031 3169.96875 4498.386719 3169.96875 M 4498.386719 3174.46875 C 4503.359375 3174.46875 4507.386719 3178.496094 4507.386719 3183.46875 C 4507.386719 3188.4375 4503.359375 3192.46875 4498.386719 3192.46875 C 4493.417969 3192.46875 4489.386719 3188.4375 4489.386719 3183.46875 C 4489.386719 3178.496094 4493.417969 3174.46875 4498.386719 3174.46875 "/>
<path xmlns="http://www.w3.org/2000/svg" fill-rule="nonzero" fill="rgb(10.572815%, 9.655762%, 10.258484%)" fill-opacity="1" d="M 3996.667969 3169.269531 C 3989.222656 3169.269531 3983.167969 3175.324219 3983.167969 3182.769531 C 3983.167969 3190.210938 3989.222656 3196.269531 3996.667969 3196.269531 C 4004.109375 3196.269531 4010.167969 3190.210938 4010.167969 3182.769531 C 4010.167969 3175.324219 4004.109375 3169.269531 3996.667969 3169.269531 M 3996.667969 3173.769531 C 4001.636719 3173.769531 4005.667969 3177.796875 4005.667969 3182.769531 C 4005.667969 3187.738281 4001.636719 3191.769531 3996.667969 3191.769531 C 3991.695312 3191.769531 3987.667969 3187.738281 3987.667969 3182.769531 C 3987.667969 3177.796875 3991.695312 3173.769531 3996.667969 3173.769531 "/>
<path xmlns="http://www.w3.org/2000/svg" fill-rule="nonzero" fill="rgb(10.572815%, 9.655762%, 10.258484%)" fill-opacity="1" d="M 3996.667969 3217.617188 C 3989.222656 3217.617188 3983.167969 3223.671875 3983.167969 3231.117188 C 3983.167969 3238.558594 3989.222656 3244.617188 3996.667969 3244.617188 C 4004.109375 3244.617188 4010.167969 3238.558594 4010.167969 3231.117188 C 4010.167969 3223.671875 4004.109375 3217.617188 3996.667969 3217.617188 M 3996.667969 3222.117188 C 4001.636719 3222.117188 4005.667969 3226.144531 4005.667969 3231.117188 C 4005.667969 3236.085938 4001.636719 3240.117188 3996.667969 3240.117188 C 3991.695312 3240.117188 3987.667969 3236.085938 3987.667969 3231.117188 C 3987.667969 3226.144531 3991.695312 3222.117188 3996.667969 3222.117188 "/>
<path xmlns="http://www.w3.org/2000/svg" fill-rule="nonzero" fill="rgb(100%, 100%, 100%)" fill-opacity="1" d="M 2958.398438 3293.449219 C 2947.367188 3293.449219 2938.398438 3284.480469 2938.398438 3273.449219 C 2938.398438 3262.421875 2947.367188 3253.449219 2958.398438 3253.449219 C 2969.425781 3253.449219 2978.398438 3262.421875 2978.398438 3273.449219 C 2978.398438 3284.480469 2969.425781 3293.449219 2958.398438 3293.449219 "/>
<path xmlns="http://www.w3.org/2000/svg" fill-rule="nonzero" fill="rgb(100%, 100%, 100%)" fill-opacity="1" d="M 2877.199219 3293.449219 C 2866.171875 3293.449219 2857.199219 3284.480469 2857.199219 3273.449219 C 2857.199219 3262.421875 2866.171875 3253.449219 2877.199219 3253.449219 C 2888.226562 3253.449219 2897.199219 3262.421875 2897.199219 3273.449219 C 2897.199219 3284.480469 2888.226562 3293.449219 2877.199219 3293.449219 "/>
<path xmlns="http://www.w3.org/2000/svg" fill-rule="nonzero" fill="rgb(100%, 100%, 100%)" fill-opacity="1" d="M 2958.433594 2564.921875 C 2947.402344 2564.921875 2938.433594 2555.949219 2938.433594 2544.921875 C 2938.433594 2533.894531 2947.402344 2524.921875 2958.433594 2524.921875 C 2969.460938 2524.921875 2978.433594 2533.894531 2978.433594 2544.921875 C 2978.433594 2555.949219 2969.460938 2564.921875 2958.433594 2564.921875 "/>
<path xmlns="http://www.w3.org/2000/svg" fill-rule="nonzero" fill="rgb(100%, 100%, 100%)" fill-opacity="1" d="M 2958.433594 2189.867188 C 2947.402344 2189.867188 2938.433594 2180.894531 2938.433594 2169.867188 C 2938.433594 2158.839844 2947.402344 2149.867188 2958.433594 2149.867188 C 2969.460938 2149.867188 2978.433594 2158.839844 2978.433594 2169.867188 C 2978.433594 2180.894531 2969.460938 2189.867188 2958.433594 2189.867188 "/>
<path xmlns="http://www.w3.org/2000/svg" fill-rule="nonzero" fill="rgb(100%, 100%, 100%)" fill-opacity="1" d="M 2877.199219 2564.921875 C 2866.171875 2564.921875 2857.199219 2555.949219 2857.199219 2544.921875 C 2857.199219 2533.894531 2866.171875 2524.921875 2877.199219 2524.921875 C 2888.226562 2524.921875 2897.199219 2533.894531 2897.199219 2544.921875 C 2897.199219 2555.949219 2888.226562 2564.921875 2877.199219 2564.921875 "/>
<path xmlns="http://www.w3.org/2000/svg" fill-rule="nonzero" fill="rgb(100%, 100%, 100%)" fill-opacity="1" d="M 3909.589844 1799.804688 C 3898.5625 1799.804688 3889.589844 1790.832031 3889.589844 1779.804688 C 3889.589844 1768.777344 3898.5625 1759.804688 3909.589844 1759.804688 C 3920.617188 1759.804688 3929.589844 1768.777344 3929.589844 1779.804688 C 3929.589844 1790.832031 3920.617188 1799.804688 3909.589844 1799.804688 "/>
<path xmlns="http://www.w3.org/2000/svg" fill-rule="nonzero" fill="rgb(100%, 100%, 100%)" fill-opacity="1" d="M 3909.589844 1842.167969 C 3898.5625 1842.167969 3889.589844 1833.195312 3889.589844 1822.167969 C 3889.589844 1811.140625 3898.5625 1802.167969 3909.589844 1802.167969 C 3920.617188 1802.167969 3929.589844 1811.140625 3929.589844 1822.167969 C 3929.589844 1833.195312 3920.617188 1842.167969 3909.589844 1842.167969 "/>
<path xmlns="http://www.w3.org/2000/svg" fill-rule="nonzero" fill="rgb(100%, 100%, 100%)" fill-opacity="1" d="M 4325.710938 2051.769531 C 4314.683594 2051.769531 4305.710938 2042.796875 4305.710938 2031.769531 C 4305.710938 2020.742188 4314.683594 2011.769531 4325.710938 2011.769531 C 4336.738281 2011.769531 4345.710938 2020.742188 4345.710938 2031.769531 C 4345.710938 2042.796875 4336.738281 2051.769531 4325.710938 2051.769531 "/>
<path xmlns="http://www.w3.org/2000/svg" fill-rule="nonzero" fill="rgb(100%, 100%, 100%)" fill-opacity="1" d="M 4325.710938 2235.117188 C 4314.683594 2235.117188 4305.710938 2226.144531 4305.710938 2215.117188 C 4305.710938 2204.085938 4314.683594 2195.117188 4325.710938 2195.117188 C 4336.738281 2195.117188 4345.710938 2204.085938 4345.710938 2215.117188 C 4345.710938 2226.144531 4336.738281 2235.117188 4325.710938 2235.117188 "/>
<path xmlns="http://www.w3.org/2000/svg" fill-rule="nonzero" fill="rgb(100%, 100%, 100%)" fill-opacity="1" d="M 4325.710938 2431.160156 C 4314.683594 2431.160156 4305.710938 2422.1875 4305.710938 2411.160156 C 4305.710938 2400.132812 4314.683594 2391.160156 4325.710938 2391.160156 C 4336.738281 2391.160156 4345.710938 2400.132812 4345.710938 2411.160156 C 4345.710938 2422.1875 4336.738281 2431.160156 4325.710938 2431.160156 "/>
<path xmlns="http://www.w3.org/2000/svg" fill-rule="nonzero" fill="rgb(100%, 100%, 100%)" fill-opacity="1" d="M 4325.710938 2664.695312 C 4314.683594 2664.695312 4305.710938 2655.722656 4305.710938 2644.695312 C 4305.710938 2633.667969 4314.683594 2624.695312 4325.710938 2624.695312 C 4336.738281 2624.695312 4345.710938 2633.667969 4345.710938 2644.695312 C 4345.710938 2655.722656 4336.738281 2664.695312 4325.710938 2664.695312 "/>
<path xmlns="http://www.w3.org/2000/svg" fill-rule="nonzero" fill="rgb(100%, 100%, 100%)" fill-opacity="1" d="M 2413.53125 2495.113281 C 2402.503906 2495.113281 2393.53125 2486.140625 2393.53125 2475.113281 C 2393.53125 2464.082031 2402.503906 2455.113281 2413.53125 2455.113281 C 2424.558594 2455.113281 2433.53125 2464.082031 2433.53125 2475.113281 C 2433.53125 2486.140625 2424.558594 2495.113281 2413.53125 2495.113281 "/>
<path xmlns="http://www.w3.org/2000/svg" fill-rule="nonzero" fill="rgb(100%, 100%, 100%)" fill-opacity="1" d="M 2792.949219 3411.613281 C 2770.980469 3411.613281 2753.105469 3393.738281 2753.105469 3371.769531 C 2753.105469 3349.796875 2770.980469 3331.925781 2792.949219 3331.925781 C 2814.917969 3331.925781 2832.792969 3349.796875 2832.792969 3371.769531 C 2832.792969 3393.738281 2814.917969 3411.613281 2792.949219 3411.613281 "/>
</svg>
