<?xml version="1.0" encoding="UTF-8"?>
<svg xmlns="http://www.w3.org/2000/svg" xmlns:xlink="http://www.w3.org/1999/xlink" viewBox="4756.785 1681.72 2378.3925 1681.72" width="2378.3925" height="1681.72">
<path xmlns="http://www.w3.org/2000/svg" fill-rule="nonzero" fill="rgb(78.900146%, 91.56189%, 65.628052%)" fill-opacity="1" d="M 5597.964844 2846.269531 L 5421.433594 2846.269531 C 5403.15625 2846.269531 5388.199219 2831.3125 5388.199219 2813.035156 L 5388.199219 1885.957031 C 5388.199219 1867.675781 5403.15625 1852.722656 5421.433594 1852.722656 L 5597.964844 1852.722656 C 5616.246094 1852.722656 5631.199219 1867.675781 5631.199219 1885.957031 L 5631.199219 2813.035156 C 5631.199219 2831.3125 5616.246094 2846.269531 5597.964844 2846.269531 "/>
<path xmlns="http://www.w3.org/2000/svg" fill-rule="nonzero" fill="rgb(78.900146%, 91.56189%, 65.628052%)" fill-opacity="1" d="M 6105.101562 2021.289062 L 5893.34375 2021.289062 C 5884.753906 2021.289062 5877.722656 2014.261719 5877.722656 2005.667969 L 5877.722656 1817.378906 C 5877.722656 1808.789062 5884.753906 1801.757812 5893.34375 1801.757812 L 6105.101562 1801.757812 C 6113.691406 1801.757812 6120.722656 1808.789062 6120.722656 1817.378906 L 6120.722656 2005.667969 C 6120.722656 2014.261719 6113.691406 2021.289062 6105.101562 2021.289062 "/>
<path xmlns="http://www.w3.org/2000/svg" fill-rule="nonzero" fill="rgb(78.900146%, 91.56189%, 65.628052%)" fill-opacity="1" d="M 4933.699219 2867.949219 L 4933.699219 3022.589844 C 4933.699219 3029.59375 4928.023438 3035.269531 4921.019531 3035.269531 L 4626.742188 3035.269531 C 4618.574219 3035.269531 4611.949219 3028.644531 4611.949219 3020.476562 L 4611.949219 2867.949219 C 4611.949219 2860.945312 4617.625 2855.269531 4624.628906 2855.269531 L 4921.019531 2855.269531 C 4928.023438 2855.269531 4933.699219 2860.945312 4933.699219 2867.949219 "/>
<path xmlns="http://www.w3.org/2000/svg" fill-rule="nonzero" fill="rgb(78.900146%, 91.56189%, 65.628052%)" fill-opacity="1" d="M 7078.214844 3460.898438 L 6743.28125 3460.898438 C 6736.070312 3460.898438 6730.226562 3455.050781 6730.226562 3447.835938 L 6730.226562 3267.574219 C 6730.226562 3260.363281 6736.070312 3254.515625 6743.28125 3254.515625 L 7078.214844 3254.515625 C 7085.429688 3254.515625 7091.273438 3260.363281 7091.273438 3267.574219 L 7091.273438 3447.835938 C 7091.273438 3455.050781 7085.429688 3460.898438 7078.214844 3460.898438 "/>
</svg>
