<?xml version="1.0" encoding="UTF-8"?>
<svg xmlns="http://www.w3.org/2000/svg" xmlns:xlink="http://www.w3.org/1999/xlink" viewBox="4756.785 5045.16 2378.3925 1681.72" width="2378.3925" height="1681.72">
<path xmlns="http://www.w3.org/2000/svg" fill-rule="nonzero" fill="rgb(78.900146%, 91.56189%, 65.628052%)" fill-opacity="1" d="M 7305.867188 5480.5625 L 6914.148438 5480.5625 C 6901.78125 5480.5625 6891.757812 5490.589844 6891.757812 5502.957031 L 6891.757812 5683.171875 C 6891.757812 5695.539062 6901.78125 5705.5625 6914.148438 5705.5625 L 7305.867188 5705.5625 C 7318.234375 5705.5625 7328.257812 5695.539062 7328.257812 5683.171875 L 7328.257812 5502.957031 C 7328.257812 5490.589844 7318.234375 5480.5625 7305.867188 5480.5625 "/>
<path xmlns="http://www.w3.org/2000/svg" fill-rule="nonzero" fill="rgb(61.990356%, 77.619934%, 91.73584%)" fill-opacity="1" d="M 7218.996094 5638.089844 L 6998.757812 5638.089844 C 6994.355469 5638.089844 6990.757812 5634.492188 6990.757812 5630.089844 L 6990.757812 5548.28125 C 6990.757812 5543.882812 6994.355469 5540.28125 6998.757812 5540.28125 L 7218.996094 5540.28125 C 7223.394531 5540.28125 7226.996094 5543.882812 7226.996094 5548.28125 L 7226.996094 5630.089844 C 7226.996094 5634.492188 7223.394531 5638.089844 7218.996094 5638.089844 "/>
<path xmlns="http://www.w3.org/2000/svg" fill-rule="nonzero" fill="rgb(78.900146%, 91.56189%, 65.628052%)" fill-opacity="1" d="M 6996.621094 5553.800781 C 6996.15625 5553.050781 6995.882812 5552.347656 6995.933594 5551.550781 C 6995.949219 5551.296875 6996.015625 5550.28125 6996.621094 5549.988281 C 6997.03125 5549.789062 6997.5 5550.023438 6998.871094 5550.800781 C 7001.121094 5552.082031 7000.957031 5552.132812 7001.433594 5552.300781 C 7002.011719 5552.503906 7004.648438 5552.207031 7005.433594 5552.175781 C 7005.5625 5552.171875 7007.242188 5552.125 7008.683594 5553.144531 C 7009.628906 5553.808594 7010.109375 5554.679688 7010.871094 5556.050781 C 7011.683594 5557.515625 7011.421875 5557.546875 7011.933594 5558.300781 C 7012.753906 5559.515625 7013.503906 5559.546875 7016.246094 5561.300781 C 7017.816406 5562.308594 7018.601562 5562.8125 7019.4375 5563.671875 C 7020.535156 5564.804688 7021.085938 5565.375 7021.539062 5566.265625 C 7021.921875 5567.015625 7022.046875 5567.570312 7022.496094 5567.675781 C 7023.191406 5567.84375 7023.566406 5566.621094 7024.371094 5566.675781 C 7025.457031 5566.75 7025.453125 5568.738281 7027.308594 5569.800781 C 7028.242188 5570.339844 7028.492188 5569.976562 7029.246094 5570.550781 C 7030.441406 5571.46875 7029.953125 5572.507812 7031.058594 5573.488281 C 7031.898438 5574.238281 7032.273438 5573.71875 7034.058594 5574.675781 C 7035.324219 5575.359375 7035.207031 5575.65625 7036.371094 5576.175781 C 7037.679688 5576.757812 7038.359375 5576.617188 7038.621094 5577.175781 C 7038.792969 5577.542969 7038.570312 5578.09375 7038.121094 5579.175781 C 7037.492188 5580.691406 7037.164062 5580.925781 7037.246094 5581.550781 C 7037.351562 5582.382812 7038.054688 5582.910156 7038.246094 5583.050781 C 7038.621094 5583.332031 7039.261719 5583.386719 7040.496094 5583.550781 C 7041.25 5583.652344 7041.472656 5583.648438 7041.683594 5583.863281 C 7042.015625 5584.207031 7041.859375 5584.632812 7041.996094 5585.363281 C 7042.082031 5585.832031 7042.324219 5586.261719 7042.808594 5587.113281 C 7043.554688 5588.429688 7043.925781 5589.089844 7044.433594 5589.425781 C 7045.230469 5589.960938 7045.613281 5589.644531 7046.558594 5590.300781 C 7046.867188 5590.519531 7047.140625 5590.820312 7047.683594 5591.425781 C 7048.519531 5592.363281 7048.421875 5592.445312 7049.308594 5593.488281 C 7049.914062 5594.203125 7050.074219 5594.296875 7050.058594 5594.550781 C 7050.015625 5595.226562 7048.847656 5595.308594 7048.683594 5596.113281 C 7048.574219 5596.648438 7049.050781 5596.785156 7049.183594 5597.6875 C 7049.300781 5598.496094 7048.964844 5598.71875 7048.933594 5599.613281 C 7048.898438 5600.605469 7049.300781 5600.691406 7049.496094 5601.863281 C 7049.625 5602.632812 7049.460938 5602.65625 7049.246094 5605.050781 C 7049.089844 5606.777344 7049.125 5607.300781 7048.746094 5607.488281 C 7048.234375 5607.742188 7047.414062 5607.171875 7047.246094 5607.050781 C 7046.492188 5606.527344 7046.308594 5605.863281 7046.058594 5605.925781 C 7045.726562 5606.007812 7045.972656 5607.167969 7045.558594 5607.363281 C 7044.921875 5607.664062 7043.402344 5605.40625 7043.058594 5605.613281 C 7042.726562 5605.8125 7043.941406 5607.964844 7043.496094 5608.300781 C 7043.050781 5608.636719 7041.273438 5606.949219 7041.183594 5606.863281 C 7039.957031 5605.691406 7039.910156 5605.128906 7038.996094 5604.113281 C 7038.152344 5603.179688 7038.058594 5603.507812 7035.246094 5601.550781 C 7032.753906 5599.820312 7032.132812 5599.078125 7031.820312 5598.675781 C 7031.140625 5597.789062 7031.269531 5597.628906 7030.558594 5596.800781 C 7029.433594 5595.496094 7028.867188 5595.601562 7027.746094 5594.425781 C 7026.589844 5593.210938 7027.136719 5593.035156 7025.871094 5591.613281 C 7024.792969 5590.402344 7023.863281 5589.933594 7023.808594 5588.863281 C 7023.78125 5588.386719 7023.964844 5588.378906 7023.996094 5587.863281 C 7024.074219 5586.550781 7022.933594 5586.058594 7021.683594 5584.050781 C 7020.625 5582.351562 7021.03125 5582.042969 7020.058594 5580.988281 C 7019.46875 5580.351562 7018.953125 5580.070312 7018.371094 5579.113281 C 7017.96875 5578.457031 7017.992188 5578.230469 7017.621094 5577.800781 C 7016.882812 5576.960938 7016.261719 5577.238281 7015.558594 5576.675781 C 7014.679688 5575.976562 7014.964844 5574.988281 7014.074219 5570.910156 C 7013.878906 5570.011719 7013.816406 5569.832031 7013.683594 5569.613281 C 7013.003906 5568.488281 7011.554688 5568.027344 7009.996094 5567.550781 C 7008.765625 5567.175781 7008.558594 5567.265625 7008.246094 5566.925781 C 7007.476562 5566.105469 7008.265625 5565.140625 7007.621094 5563.800781 C 7007.125 5562.773438 7006.566406 5563.148438 7005.371094 5561.613281 C 7004.574219 5560.597656 7004.53125 5560.058594 7003.808594 5559.738281 C 7003.085938 5559.421875 7002.734375 5559.785156 7001.996094 5559.550781 C 7001.09375 5559.265625 7000.976562 5558.519531 7000.058594 5557.300781 C 6998.640625 5555.421875 6997.792969 5555.707031 6996.621094 5553.800781 "/>
<path xmlns="http://www.w3.org/2000/svg" fill-rule="nonzero" fill="rgb(78.900146%, 91.56189%, 65.628052%)" fill-opacity="1" d="M 7045.871094 5612.488281 C 7045.816406 5612.253906 7046.199219 5611.859375 7046.558594 5611.863281 C 7046.882812 5611.867188 7046.957031 5612.1875 7047.246094 5612.175781 C 7047.433594 5612.167969 7047.558594 5612.023438 7048.058594 5611.363281 C 7048.40625 5610.902344 7048.582031 5610.675781 7048.621094 5610.613281 C 7049.007812 5610.023438 7049.058594 5609.765625 7049.558594 5608.863281 C 7049.96875 5608.125 7050.089844 5608.015625 7050.246094 5607.988281 C 7050.570312 5607.933594 7050.679688 5608.296875 7051.246094 5608.550781 C 7052.011719 5608.894531 7052.820312 5608.675781 7053.058594 5608.613281 C 7053.671875 5608.449219 7053.703125 5608.226562 7054.183594 5608.113281 C 7055 5607.925781 7055.75 5608.378906 7056.058594 5608.550781 C 7057.03125 5609.105469 7057.019531 5609.679688 7057.746094 5609.800781 C 7058.226562 5609.882812 7058.289062 5609.640625 7059.058594 5609.675781 C 7059.714844 5609.707031 7059.738281 5609.890625 7060.371094 5609.925781 C 7061.257812 5609.980469 7061.503906 5609.640625 7061.871094 5609.863281 C 7062.03125 5609.964844 7062.097656 5610.097656 7062.433594 5611.175781 C 7062.773438 5612.261719 7062.820312 5612.488281 7063.058594 5612.613281 C 7063.359375 5612.773438 7063.523438 5612.527344 7064.183594 5612.488281 C 7065.027344 5612.4375 7065.273438 5612.8125 7066.183594 5612.863281 C 7066.960938 5612.910156 7066.917969 5612.605469 7067.558594 5612.675781 C 7068.402344 5612.769531 7068.539062 5613.242188 7069.308594 5613.238281 C 7069.84375 5613.238281 7069.867188 5613.011719 7070.496094 5612.988281 C 7071.308594 5612.960938 7071.433594 5613.335938 7071.871094 5613.238281 C 7072.730469 5613.050781 7072.523438 5611.542969 7073.683594 5610.925781 C 7073.753906 5610.886719 7074.527344 5610.488281 7075.121094 5610.800781 C 7075.679688 5611.097656 7075.609375 5611.777344 7076.121094 5611.925781 C 7076.550781 5612.050781 7076.722656 5611.613281 7077.308594 5611.675781 C 7077.8125 5611.730469 7077.804688 5612.078125 7078.496094 5612.300781 C 7079.011719 5612.46875 7079.078125 5612.296875 7079.683594 5612.488281 C 7080.171875 5612.644531 7080.195312 5612.78125 7080.621094 5612.863281 C 7080.960938 5612.929688 7081.019531 5612.859375 7081.621094 5612.863281 C 7082.632812 5612.875 7082.800781 5612.984375 7082.871094 5613.050781 C 7083.066406 5613.234375 7083.125 5613.511719 7083.167969 5613.738281 C 7083.222656 5614.011719 7083.207031 5614.242188 7083.183594 5614.394531 C 7083.257812 5614.464844 7083.378906 5614.566406 7083.554688 5614.640625 C 7083.761719 5614.726562 7083.828125 5614.683594 7083.933594 5614.738281 C 7084.246094 5614.902344 7083.988281 5615.507812 7084.308594 5616.050781 C 7084.457031 5616.308594 7084.644531 5616.4375 7084.996094 5616.675781 C 7085.585938 5617.082031 7086.148438 5617.207031 7086.308594 5617.238281 C 7086.550781 5617.289062 7086.972656 5617.273438 7087.808594 5617.238281 C 7088.558594 5617.210938 7088.9375 5617.191406 7089.183594 5617.113281 C 7089.730469 5616.9375 7089.800781 5616.726562 7090.183594 5616.738281 C 7090.519531 5616.75 7090.558594 5616.914062 7091.1875 5617.136719 C 7091.832031 5617.363281 7091.960938 5617.25 7092.121094 5617.425781 C 7092.308594 5617.636719 7092.261719 5617.933594 7091.996094 5619.238281 C 7091.742188 5620.472656 7091.699219 5620.644531 7091.808594 5620.925781 C 7091.90625 5621.183594 7092.101562 5621.433594 7092.496094 5621.925781 C 7092.859375 5622.386719 7093.042969 5622.535156 7092.996094 5622.613281 C 7092.921875 5622.738281 7092.402344 5622.476562 7091.496094 5622.238281 C 7090.457031 5621.96875 7090.375 5622.113281 7089.621094 5621.863281 C 7089.171875 5621.714844 7088.785156 5621.503906 7088.007812 5621.074219 C 7086.953125 5620.492188 7086.8125 5620.308594 7086.246094 5620.175781 C 7085.890625 5620.09375 7085.394531 5619.976562 7084.871094 5620.175781 C 7084.292969 5620.398438 7084.304688 5620.765625 7083.808594 5620.925781 C 7083.421875 5621.050781 7083.167969 5620.910156 7082.121094 5620.550781 C 7081.027344 5620.179688 7080.480469 5619.992188 7080.183594 5619.988281 C 7079.050781 5619.972656 7078.136719 5620.6875 7078.058594 5620.550781 C 7078.007812 5620.464844 7078.433594 5620.191406 7078.371094 5620.050781 C 7078.292969 5619.878906 7077.582031 5620.117188 7076.808594 5620.175781 C 7075.921875 5620.242188 7075.269531 5620.046875 7074.246094 5619.738281 C 7073.316406 5619.460938 7073.359375 5619.355469 7071.933594 5618.800781 C 7070.726562 5618.335938 7069.730469 5618.035156 7069.121094 5617.863281 C 7068.160156 5617.597656 7067.578125 5617.421875 7066.746094 5617.300781 C 7065.984375 5617.191406 7065.34375 5617.167969 7064.894531 5617.167969 C 7064.359375 5617.289062 7063.992188 5617.246094 7063.746094 5617.175781 C 7063.59375 5617.132812 7063.265625 5617.050781 7062.882812 5617.128906 C 7062.839844 5617.136719 7062.792969 5617.152344 7062.746094 5617.175781 C 7062.386719 5617.363281 7062.457031 5617.71875 7062.183594 5617.925781 C 7061.898438 5618.144531 7061.421875 5617.882812 7059.933594 5617.363281 C 7059.046875 5617.054688 7059.03125 5617.089844 7058.636719 5616.910156 C 7057.785156 5616.53125 7057.671875 5616.296875 7057.121094 5616.050781 C 7056.484375 5615.769531 7055.90625 5615.789062 7054.746094 5615.800781 C 7053.171875 5615.820312 7052.511719 5616.1875 7052.058594 5615.738281 C 7051.730469 5615.417969 7051.644531 5614.800781 7051.808594 5614.363281 C 7051.988281 5613.882812 7052.421875 5613.78125 7052.371094 5613.550781 C 7052.316406 5613.308594 7051.808594 5613.292969 7050.808594 5613.050781 C 7049.785156 5612.804688 7049.953125 5612.734375 7049.496094 5612.675781 C 7048.503906 5612.550781 7048.222656 5612.949219 7047.058594 5612.863281 C 7046.683594 5612.839844 7045.9375 5612.785156 7045.871094 5612.488281 "/>
<path xmlns="http://www.w3.org/2000/svg" fill-rule="nonzero" fill="rgb(78.900146%, 91.56189%, 65.628052%)" fill-opacity="1" d="M 7095.417969 5622.863281 C 7095.386719 5622.769531 7095.523438 5622.710938 7095.621094 5622.457031 C 7095.640625 5622.40625 7095.714844 5622.191406 7095.683594 5621.988281 C 7095.632812 5621.675781 7095.339844 5621.484375 7095.058594 5621.300781 C 7094.738281 5621.097656 7094.449219 5621.007812 7094.183594 5620.925781 C 7093.730469 5620.789062 7093.707031 5620.855469 7093.433594 5620.738281 C 7092.996094 5620.554688 7092.742188 5620.261719 7092.621094 5620.113281 C 7092.441406 5619.902344 7092.160156 5619.566406 7092.261719 5619.390625 C 7092.382812 5619.175781 7093.015625 5619.3125 7093.261719 5619.363281 C 7093.644531 5619.445312 7093.746094 5619.542969 7094.199219 5619.613281 C 7094.476562 5619.65625 7094.617188 5619.679688 7094.777344 5619.644531 C 7095.023438 5619.59375 7095.078125 5619.480469 7095.574219 5619.175781 C 7095.863281 5619 7096.011719 5618.910156 7096.136719 5618.894531 C 7096.269531 5618.882812 7096.402344 5618.90625 7096.964844 5619.238281 C 7097.398438 5619.496094 7097.339844 5619.496094 7097.949219 5619.894531 C 7098.355469 5620.164062 7098.527344 5620.261719 7098.574219 5620.472656 C 7098.617188 5620.6875 7098.503906 5620.867188 7098.496094 5620.878906 C 7098.351562 5621.105469 7098.128906 5621.058594 7097.605469 5621.269531 C 7097.445312 5621.335938 7097.265625 5621.4375 7096.902344 5621.644531 C 7096.667969 5621.777344 7096.542969 5621.859375 7096.433594 5622.003906 C 7096.332031 5622.140625 7096.269531 5622.292969 7096.246094 5622.347656 C 7096.210938 5622.4375 7096.179688 5622.511719 7096.167969 5622.613281 C 7096.144531 5622.785156 7096.199219 5622.832031 7096.167969 5622.894531 C 7096.074219 5623.078125 7095.476562 5623.046875 7095.417969 5622.863281 "/>
<path xmlns="http://www.w3.org/2000/svg" fill-rule="nonzero" fill="rgb(78.900146%, 91.56189%, 65.628052%)" fill-opacity="1" d="M 7099.160156 5622.59375 C 7099.199219 5622.460938 7099.898438 5622.75 7100.160156 5622.425781 C 7100.441406 5622.082031 7099.863281 5621.488281 7100.160156 5620.882812 C 7100.21875 5620.773438 7100.402344 5620.617188 7100.777344 5620.304688 C 7101.230469 5619.921875 7101.457031 5619.734375 7101.660156 5619.675781 C 7102.0625 5619.566406 7102.417969 5619.699219 7102.910156 5619.882812 C 7103.390625 5620.066406 7103.632812 5620.15625 7103.703125 5620.34375 C 7103.851562 5620.730469 7103.238281 5620.949219 7102.910156 5621.96875 C 7102.804688 5622.308594 7102.78125 5622.5625 7102.535156 5622.800781 C 7102.351562 5622.980469 7102.144531 5623.054688 7101.910156 5623.132812 C 7101.414062 5623.308594 7100.996094 5623.304688 7100.910156 5623.300781 C 7099.960938 5623.28125 7099.117188 5622.742188 7099.160156 5622.59375 "/>
<path xmlns="http://www.w3.org/2000/svg" fill-rule="nonzero" fill="rgb(78.900146%, 91.56189%, 65.628052%)" fill-opacity="1" d="M 7103.660156 5623.175781 C 7103.484375 5622.445312 7104.039062 5621.796875 7104.285156 5621.507812 C 7104.429688 5621.34375 7104.714844 5621.019531 7105.203125 5620.800781 C 7105.265625 5620.773438 7106.316406 5620.324219 7107.285156 5620.800781 C 7107.839844 5621.074219 7107.765625 5621.359375 7108.578125 5621.800781 C 7109.164062 5622.121094 7109.492188 5622.132812 7109.578125 5622.132812 C 7109.941406 5622.140625 7109.992188 5622.011719 7110.453125 5622.007812 C 7110.933594 5622.007812 7111.140625 5622.148438 7111.285156 5622.007812 C 7111.417969 5621.886719 7111.421875 5621.617188 7111.328125 5621.425781 C 7111.199219 5621.164062 7110.914062 5621.109375 7109.996094 5620.84375 C 7109.097656 5620.582031 7108.90625 5620.503906 7108.785156 5620.300781 C 7108.632812 5620.039062 7108.65625 5619.667969 7108.828125 5619.425781 C 7109.113281 5619.03125 7109.777344 5619.015625 7110.203125 5619.21875 C 7110.789062 5619.5 7110.664062 5620.070312 7111.203125 5620.257812 C 7111.449219 5620.34375 7111.492188 5620.234375 7112.535156 5620.175781 C 7113.113281 5620.144531 7113.234375 5620.171875 7113.328125 5620.257812 C 7113.640625 5620.558594 7113.339844 5621.324219 7113.410156 5621.34375 C 7113.484375 5621.363281 7113.601562 5620.472656 7114.160156 5620.21875 C 7114.453125 5620.085938 7114.890625 5620.113281 7115.078125 5620.34375 C 7115.335938 5620.660156 7114.941406 5621.132812 7115.246094 5621.59375 C 7115.394531 5621.820312 7115.597656 5621.867188 7115.578125 5622.007812 C 7115.554688 5622.195312 7115.191406 5622.289062 7114.996094 5622.34375 C 7114.449219 5622.488281 7114.050781 5622.402344 7114.035156 5622.46875 C 7114.015625 5622.5625 7114.800781 5622.78125 7114.785156 5622.84375 C 7114.773438 5622.898438 7114.203125 5622.660156 7113.535156 5622.800781 C 7112.941406 5622.925781 7112.742188 5623.253906 7112.496094 5623.132812 C 7112.160156 5622.972656 7112.335938 5622.277344 7112.035156 5622.175781 C 7111.789062 5622.09375 7111.429688 5622.484375 7111.328125 5622.59375 C 7111.113281 5622.828125 7111.117188 5622.945312 7110.996094 5623.09375 C 7110.664062 5623.492188 7110.125 5623.234375 7109.121094 5623.382812 C 7108.152344 5623.53125 7108.203125 5623.84375 7107.328125 5623.882812 C 7106.914062 5623.90625 7106.640625 5623.847656 7106.121094 5623.96875 C 7105.726562 5624.0625 7105.6875 5624.140625 7105.371094 5624.175781 C 7105.140625 5624.203125 7104.609375 5624.265625 7104.160156 5623.925781 C 7104.09375 5623.875 7103.769531 5623.621094 7103.660156 5623.175781 "/>
<path xmlns="http://www.w3.org/2000/svg" fill-rule="nonzero" fill="rgb(78.900146%, 91.56189%, 65.628052%)" fill-opacity="1" d="M 7083.441406 5614.253906 C 7083.367188 5614.136719 7083.460938 5613.9375 7083.523438 5613.84375 C 7083.652344 5613.65625 7083.792969 5613.6875 7083.972656 5613.488281 C 7084.121094 5613.324219 7084.066406 5613.253906 7084.175781 5613.140625 C 7084.367188 5612.945312 7084.679688 5613 7085.171875 5613.03125 C 7085.515625 5613.050781 7085.859375 5613.027344 7086.203125 5613.039062 C 7086.945312 5613.066406 7087.519531 5613.035156 7087.996094 5613.007812 C 7087.996094 5613.007812 7088.820312 5612.960938 7089.996094 5613.042969 C 7090.125 5613.050781 7090.398438 5613.074219 7090.476562 5613.242188 C 7090.515625 5613.320312 7090.507812 5613.433594 7090.453125 5613.515625 C 7090.339844 5613.683594 7090.125 5613.554688 7089.820312 5613.726562 C 7089.65625 5613.816406 7089.511719 5613.96875 7089.441406 5614.042969 C 7089.320312 5614.171875 7089.308594 5614.214844 7089.230469 5614.253906 C 7089.101562 5614.320312 7088.996094 5614.273438 7088.726562 5614.226562 C 7088.332031 5614.15625 7088.128906 5614.125 7087.988281 5614.230469 C 7087.871094 5614.316406 7087.902344 5614.417969 7087.804688 5614.535156 C 7087.632812 5614.75 7087.289062 5614.722656 7086.902344 5614.703125 C 7085.503906 5614.632812 7085.453125 5614.816406 7084.925781 5614.617188 C 7084.621094 5614.507812 7084.523438 5614.402344 7084.203125 5614.359375 C 7083.800781 5614.296875 7083.535156 5614.398438 7083.441406 5614.253906 "/>
<path xmlns="http://www.w3.org/2000/svg" fill-rule="nonzero" fill="rgb(78.900146%, 91.56189%, 65.628052%)" fill-opacity="1" d="M 7069.410156 5587.800781 C 7069.414062 5587.511719 7069.507812 5587.507812 7069.828125 5586.382812 C 7070.0625 5585.566406 7070.082031 5585.324219 7070.078125 5585.132812 C 7070.078125 5584.9375 7070.070312 5584.046875 7069.660156 5583.882812 C 7069.382812 5583.773438 7069.15625 5584.097656 7068.410156 5584.46875 C 7067.777344 5584.785156 7066.878906 5585.082031 7066.746094 5584.882812 C 7066.558594 5584.613281 7067.992188 5583.628906 7067.746094 5583.050781 C 7067.578125 5582.65625 7066.839844 5582.9375 7066.246094 5582.382812 C 7065.75 5581.925781 7065.699219 5581.210938 7065.660156 5580.632812 C 7065.597656 5579.707031 7065.882812 5579.554688 7065.828125 5578.382812 C 7065.785156 5577.457031 7065.59375 5577.171875 7065.496094 5577.050781 C 7065.144531 5576.621094 7064.785156 5576.730469 7064.496094 5576.382812 C 7064.175781 5576 7064.296875 5575.484375 7064.578125 5574.132812 C 7065.101562 5571.613281 7065.046875 5571.628906 7065.246094 5571.132812 C 7065.378906 5570.804688 7065.765625 5569.914062 7066.578125 5569.050781 C 7067.140625 5568.453125 7067.417969 5568.394531 7067.578125 5568.382812 C 7068.144531 5568.355469 7068.324219 5568.917969 7069.078125 5569.382812 C 7070.015625 5569.964844 7070.308594 5569.445312 7071.828125 5569.96875 C 7072.886719 5570.332031 7073.125 5570.714844 7073.996094 5570.71875 C 7074.335938 5570.71875 7074.851562 5570.722656 7075.246094 5570.382812 C 7075.65625 5570.03125 7075.558594 5569.628906 7075.828125 5568.300781 C 7075.929688 5567.8125 7076.105469 5566.957031 7076.496094 5566.050781 C 7076.78125 5565.378906 7076.976562 5564.921875 7077.328125 5564.550781 C 7078.183594 5563.644531 7079.285156 5563.957031 7081.328125 5563.632812 C 7082.808594 5563.398438 7084.320312 5563.160156 7085.578125 5562.132812 C 7087 5560.980469 7086.316406 5560.277344 7088.078125 5558.632812 C 7088.945312 5557.828125 7089.796875 5557.359375 7089.996094 5556.300781 C 7090.09375 5555.777344 7089.96875 5555.441406 7090.246094 5555.132812 C 7090.703125 5554.628906 7091.394531 5555.144531 7092.328125 5554.800781 C 7093.570312 5554.34375 7093.527344 5552.992188 7094.496094 5552.882812 C 7095.175781 5552.8125 7095.339844 5553.460938 7096.328125 5553.46875 C 7096.894531 5553.472656 7097.675781 5553.265625 7097.828125 5552.800781 C 7097.925781 5552.511719 7097.699219 5552.351562 7097.410156 5551.382812 C 7097.25 5550.835938 7097.167969 5550.5625 7097.246094 5550.382812 C 7097.472656 5549.871094 7098.316406 5550.175781 7099.246094 5549.632812 C 7099.980469 5549.203125 7100.351562 5548.488281 7100.660156 5547.882812 C 7101.246094 5546.746094 7101.011719 5546.269531 7101.578125 5545.882812 C 7102 5545.601562 7102.382812 5545.695312 7102.910156 5545.21875 C 7103.175781 5544.980469 7103.324219 5544.738281 7103.382812 5544.636719 C 7103.820312 5543.878906 7103.707031 5543.050781 7103.746094 5543.050781 C 7103.804688 5543.050781 7103.636719 5544.867188 7104.160156 5545.050781 C 7104.480469 5545.164062 7105.09375 5544.683594 7105.246094 5544.132812 C 7105.359375 5543.714844 7105.164062 5543.425781 7105.328125 5543.300781 C 7105.519531 5543.15625 7106.046875 5543.363281 7106.289062 5543.742188 C 7106.53125 5544.128906 7106.28125 5544.367188 7106.496094 5544.71875 C 7106.707031 5545.0625 7107.027344 5544.960938 7107.828125 5545.382812 C 7108.363281 5545.667969 7108.683594 5545.835938 7108.746094 5546.132812 C 7108.824219 5546.519531 7108.382812 5546.675781 7108.160156 5547.382812 C 7108.015625 5547.855469 7107.96875 5548.566406 7108.246094 5548.71875 C 7108.601562 5548.917969 7109.144531 5547.976562 7109.996094 5548.050781 C 7110.300781 5548.078125 7110.433594 5548.21875 7110.996094 5548.632812 C 7112.410156 5549.679688 7112.320312 5549.355469 7113.757812 5550.40625 C 7114.417969 5550.886719 7114.640625 5551.109375 7115.078125 5551.132812 C 7115.628906 5551.167969 7115.929688 5550.867188 7116.246094 5551.050781 C 7116.582031 5551.246094 7116.6875 5551.835938 7116.578125 5552.21875 C 7116.320312 5553.113281 7114.53125 5553.378906 7113.496094 5553.382812 C 7112.402344 5553.390625 7111.726562 5553.09375 7111.246094 5553.550781 C 7111.226562 5553.570312 7110.839844 5553.945312 7110.910156 5554.382812 C 7111.066406 5555.355469 7113.246094 5555.4375 7113.246094 5555.96875 C 7113.246094 5556.398438 7111.820312 5557.023438 7110.410156 5556.96875 C 7109.546875 5556.933594 7109.089844 5556.65625 7108.496094 5556.96875 C 7108.113281 5557.167969 7107.640625 5557.628906 7107.660156 5558.132812 C 7107.695312 5559.023438 7109.199219 5559.28125 7109.160156 5559.96875 C 7109.125 5560.65625 7107.589844 5560.753906 7107.410156 5561.71875 C 7107.351562 5562.058594 7107.484375 5562.339844 7107.746094 5562.882812 C 7108.046875 5563.511719 7108.347656 5563.804688 7108.828125 5564.382812 C 7109.820312 5565.582031 7110.316406 5566.183594 7110.246094 5566.71875 C 7110.15625 5567.378906 7109.503906 5567.445312 7109.410156 5568.132812 C 7109.324219 5568.804688 7109.855469 5569.382812 7110.328125 5569.882812 C 7111.316406 5570.929688 7111.957031 5570.867188 7113.328125 5571.96875 C 7114.027344 5572.527344 7114.902344 5573.230469 7114.746094 5573.632812 C 7114.496094 5574.277344 7111.660156 5574.15625 7110.496094 5574.050781 C 7110.054688 5574.011719 7109.597656 5573.953125 7109.160156 5574.21875 C 7108.730469 5574.484375 7108.613281 5574.882812 7108.246094 5576.132812 C 7107.328125 5579.238281 7107.195312 5579.609375 7107.410156 5580.21875 C 7107.53125 5580.550781 7107.710938 5580.839844 7107.578125 5581.132812 C 7107.355469 5581.621094 7106.613281 5581.367188 7106.160156 5581.882812 C 7105.707031 5582.40625 7106.210938 5582.945312 7105.730469 5583.886719 C 7105.632812 5584.085938 7105.335938 5584.664062 7104.746094 5584.882812 C 7104.175781 5585.097656 7103.941406 5584.742188 7103.496094 5584.96875 C 7103.207031 5585.113281 7102.992188 5585.59375 7102.578125 5586.550781 C 7102.375 5587.023438 7102.273438 5587.253906 7102.246094 5587.382812 C 7102.09375 5588.066406 7102.339844 5588.332031 7102.496094 5589.46875 C 7102.621094 5590.394531 7102.683594 5590.894531 7102.410156 5591.382812 C 7102.167969 5591.824219 7101.925781 5591.777344 7101.660156 5592.21875 C 7101.5 5592.488281 7101.347656 5592.914062 7101.496094 5594.050781 C 7101.710938 5595.734375 7102.191406 5595.90625 7102.078125 5596.71875 C 7101.917969 5597.875 7100.769531 5598.808594 7100.410156 5598.632812 C 7099.929688 5598.40625 7100.902344 5596.214844 7100.246094 5595.800781 C 7099.863281 5595.5625 7099.203125 5596.085938 7097.910156 5596.96875 C 7095.191406 5598.828125 7093.804688 5599.761719 7093.246094 5599.382812 C 7092.609375 5598.953125 7093.714844 5597.273438 7092.746094 5596.050781 C 7092.335938 5595.535156 7091.523438 5595.0625 7090.746094 5595.132812 C 7090.089844 5595.195312 7089.855469 5595.609375 7088.910156 5595.632812 C 7088.578125 5595.644531 7088.175781 5595.648438 7087.910156 5595.382812 C 7087.640625 5595.113281 7087.75 5594.792969 7087.496094 5594.632812 C 7087.183594 5594.441406 7086.867188 5594.824219 7086.496094 5594.71875 C 7085.808594 5594.523438 7085.910156 5592.941406 7085.496094 5592.882812 C 7085.230469 5592.847656 7085.070312 5593.488281 7084.410156 5594.382812 C 7084.054688 5594.871094 7083.195312 5596.035156 7082.496094 5595.882812 C 7082.0625 5595.792969 7082.109375 5595.289062 7081.660156 5595.132812 C 7080.78125 5594.828125 7079.753906 5596.472656 7079.246094 5596.21875 C 7078.660156 5595.925781 7079.625 5593.558594 7078.828125 5593.050781 C 7078.601562 5592.90625 7078.46875 5593.066406 7077.410156 5593.132812 C 7076.308594 5593.207031 7076.3125 5593.042969 7075.660156 5593.132812 C 7074.40625 5593.3125 7073.925781 5593.992188 7073.496094 5593.71875 C 7073.117188 5593.476562 7073.367188 5592.867188 7072.996094 5592.632812 C 7072.4375 5592.285156 7071.53125 5593.414062 7070.996094 5593.132812 C 7070.363281 5592.804688 7071.382812 5591.125 7070.496094 5589.550781 C 7070.039062 5588.742188 7069.40625 5588.546875 7069.410156 5587.800781 "/>
<path xmlns="http://www.w3.org/2000/svg" fill-rule="nonzero" fill="rgb(78.900146%, 91.56189%, 65.628052%)" fill-opacity="1" d="M 7114.746094 5595.800781 C 7114.382812 5595.503906 7114.320312 5594.949219 7114.246094 5594.300781 C 7114.210938 5593.992188 7114.25 5593.59375 7114.328125 5592.800781 C 7114.394531 5592.132812 7114.445312 5591.957031 7114.578125 5591.800781 C 7114.863281 5591.464844 7115.15625 5591.628906 7115.496094 5591.382812 C 7116.09375 5590.949219 7115.769531 5590.101562 7116.246094 5588.550781 C 7116.539062 5587.59375 7116.71875 5587.761719 7116.863281 5587.042969 C 7117.140625 5585.675781 7116.445312 5585.242188 7116.828125 5584.382812 C 7117.132812 5583.707031 7117.621094 5583.855469 7118.328125 5582.800781 C 7118.390625 5582.707031 7118.707031 5582.234375 7118.929688 5581.578125 C 7119.25 5580.628906 7119.132812 5580.046875 7119.160156 5579.050781 C 7119.207031 5577.574219 7119.234375 5576.304688 7120.078125 5575.382812 C 7120.214844 5575.238281 7120.96875 5574.414062 7122.078125 5574.300781 C 7122.84375 5574.222656 7123.148438 5574.546875 7123.578125 5574.300781 C 7124.234375 5573.925781 7123.824219 5573 7124.496094 5572.300781 C 7125.148438 5571.621094 7126.347656 5571.65625 7127.078125 5571.882812 C 7127.820312 5572.117188 7127.792969 5572.457031 7128.578125 5572.882812 C 7129.65625 5573.46875 7130.28125 5573.136719 7132.078125 5573.382812 C 7133.726562 5573.613281 7133.695312 5574.054688 7134.996094 5574.132812 C 7136.101562 5574.203125 7136.191406 5573.933594 7137.613281 5573.902344 C 7139.675781 5573.855469 7139.75 5574.410156 7140.667969 5574.125 C 7141.433594 5573.886719 7142.230469 5572.945312 7143.828125 5571.050781 C 7144.410156 5570.359375 7144.773438 5569.882812 7145.328125 5569.882812 C 7145.949219 5569.886719 7146.609375 5570.484375 7146.578125 5570.96875 C 7146.554688 5571.332031 7146.15625 5571.453125 7145.328125 5572.132812 C 7145.328125 5572.132812 7144.988281 5572.414062 7144.132812 5573.285156 C 7142.816406 5574.621094 7143.042969 5575.097656 7142.246094 5575.800781 C 7140.742188 5577.125 7138.367188 5576.8125 7137.660156 5576.71875 C 7136.808594 5576.605469 7137.035156 5576.492188 7135.410156 5576.132812 C 7133.847656 5575.792969 7132.941406 5575.589844 7131.746094 5575.632812 C 7130.582031 5575.675781 7130.425781 5575.902344 7128.746094 5575.96875 C 7128.570312 5575.976562 7128.625 5575.96875 7126.996094 5575.96875 C 7123.914062 5575.964844 7124.199219 5575.980469 7123.910156 5575.96875 C 7122.484375 5575.90625 7122.363281 5575.792969 7121.996094 5575.96875 C 7121.101562 5576.394531 7120.8125 5577.53125 7120.578125 5578.46875 C 7120.320312 5579.492188 7120.101562 5580.359375 7120.496094 5581.21875 C 7120.980469 5582.285156 7121.835938 5582.089844 7122.578125 5583.382812 C 7123.109375 5584.3125 7122.886719 5584.78125 7123.410156 5585.132812 C 7124.070312 5585.578125 7125.140625 5585.328125 7125.828125 5584.882812 C 7126.890625 5584.199219 7126.605469 5583.335938 7127.496094 5582.882812 C 7128.375 5582.441406 7128.808594 5583.203125 7130.496094 5582.96875 C 7131.117188 5582.882812 7130.929688 5582.796875 7132.746094 5582.300781 C 7134.007812 5581.957031 7133.90625 5582.050781 7134.746094 5581.800781 C 7136.183594 5581.371094 7136.5 5581.09375 7136.828125 5581.300781 C 7137.375 5581.648438 7137.367188 5582.953125 7136.910156 5583.21875 C 7136.582031 5583.410156 7136.246094 5582.914062 7135.410156 5582.882812 C 7134.585938 5582.855469 7133.960938 5583.289062 7133.828125 5583.382812 C 7133.023438 5583.972656 7133.355469 5584.550781 7132.667969 5585.332031 C 7131.722656 5586.410156 7130.71875 5585.746094 7129.496094 5586.96875 C 7129.011719 5587.453125 7128.855469 5587.867188 7128.328125 5587.96875 C 7127.613281 5588.105469 7127.015625 5587.503906 7126.910156 5587.632812 C 7126.800781 5587.769531 7127.382812 5588.484375 7128.078125 5589.132812 C 7129.152344 5590.140625 7129.457031 5590.019531 7129.996094 5590.71875 C 7130.617188 5591.527344 7130.308594 5591.8125 7130.996094 5592.71875 C 7131.675781 5593.617188 7132.191406 5593.613281 7132.246094 5594.132812 C 7132.332031 5594.957031 7131.085938 5595.285156 7131.160156 5596.132812 C 7131.171875 5596.253906 7131.207031 5596.328125 7132.496094 5597.71875 C 7133.207031 5598.488281 7133.308594 5598.582031 7133.496094 5598.71875 C 7134.148438 5599.195312 7134.523438 5599.1875 7134.578125 5599.46875 C 7134.652344 5599.859375 7134.03125 5600.460938 7133.328125 5600.632812 C 7132.433594 5600.855469 7132 5600.226562 7131.328125 5600.550781 C 7130.800781 5600.804688 7130.566406 5601.441406 7130.496094 5601.632812 C 7130.242188 5602.320312 7130.503906 5602.625 7130.246094 5602.882812 C 7129.835938 5603.296875 7128.769531 5602.921875 7128.160156 5602.550781 C 7127.785156 5602.320312 7127.082031 5601.890625 7127.078125 5601.300781 C 7127.074219 5600.539062 7128.242188 5600.308594 7128.246094 5599.550781 C 7128.246094 5599.449219 7128.226562 5599.175781 7127.246094 5598.300781 C 7125.945312 5597.140625 7125.375 5597.085938 7124.996094 5596.300781 C 7124.734375 5595.761719 7124.738281 5595.25 7124.746094 5594.882812 C 7124.765625 5593.5 7125.519531 5593.046875 7125.246094 5592.382812 C 7124.980469 5591.75 7124.023438 5591.53125 7123.410156 5591.550781 C 7122.644531 5591.578125 7121.765625 5592.003906 7121.496094 5592.71875 C 7121.347656 5593.113281 7121.480469 5593.332031 7121.746094 5594.632812 C 7121.808594 5594.949219 7121.992188 5595.851562 7122.078125 5596.632812 C 7122.1875 5597.625 7122.0625 5597.675781 7122.078125 5599.46875 C 7122.09375 5601.304688 7122.226562 5601.339844 7122.078125 5601.96875 C 7121.78125 5603.222656 7121.191406 5603.339844 7121.246094 5604.132812 C 7121.324219 5605.363281 7122.785156 5606.019531 7122.578125 5606.382812 C 7122.480469 5606.554688 7122.144531 5606.441406 7120.496094 5606.382812 C 7119.640625 5606.355469 7119.425781 5606.375 7119.160156 5606.46875 C 7118.476562 5606.710938 7118.375 5607.144531 7117.996094 5607.132812 C 7117.460938 5607.125 7116.882812 5606.25 7116.746094 5605.382812 C 7116.507812 5603.867188 7117.800781 5603.511719 7117.996094 5601.632812 C 7118.144531 5600.183594 7117.402344 5600.074219 7117.496094 5598.132812 C 7117.558594 5596.78125 7117.953125 5596.148438 7117.578125 5595.800781 C 7116.980469 5595.246094 7115.539062 5596.453125 7114.746094 5595.800781 "/>
<path xmlns="http://www.w3.org/2000/svg" fill-rule="nonzero" fill="rgb(78.900146%, 91.56189%, 65.628052%)" fill-opacity="1" d="M 7131.578125 5605.21875 C 7131.433594 5604.953125 7131.859375 5604.707031 7131.996094 5604.09375 C 7132.171875 5603.304688 7131.652344 5602.863281 7131.953125 5602.46875 C 7132.058594 5602.332031 7132.113281 5602.398438 7132.703125 5602.09375 C 7133.277344 5601.796875 7133.34375 5601.675781 7133.496094 5601.71875 C 7133.820312 5601.808594 7134.035156 5602.5 7133.871094 5603.050781 C 7133.757812 5603.425781 7133.574219 5603.378906 7133.328125 5603.882812 C 7133.054688 5604.449219 7133.207031 5604.65625 7132.910156 5605.007812 C 7132.847656 5605.085938 7132.582031 5605.40625 7132.160156 5605.425781 C 7132.089844 5605.429688 7131.699219 5605.4375 7131.578125 5605.21875 "/>
<path xmlns="http://www.w3.org/2000/svg" fill-rule="nonzero" fill="rgb(78.900146%, 91.56189%, 65.628052%)" fill-opacity="1" d="M 7133.121094 5606.757812 C 7132.769531 5606.402344 7132.894531 5605.835938 7132.910156 5605.757812 C 7132.921875 5605.714844 7132.921875 5605.734375 7133.078125 5605.261719 C 7133.160156 5605.011719 7133.191406 5604.921875 7133.203125 5604.882812 C 7133.367188 5604.414062 7133.839844 5604.242188 7134.121094 5603.84375 C 7134.226562 5603.691406 7134.269531 5603.199219 7134.347656 5602.222656 C 7134.414062 5601.433594 7134.417969 5601.164062 7134.578125 5600.757812 C 7134.683594 5600.5 7134.890625 5599.980469 7135.203125 5599.96875 C 7135.492188 5599.957031 7135.714844 5600.382812 7135.871094 5600.675781 C 7136.027344 5600.972656 7136.464844 5601.808594 7136.121094 5602.300781 C 7135.851562 5602.683594 7135.394531 5602.457031 7135.078125 5602.882812 C 7134.808594 5603.246094 7134.816406 5603.847656 7135.078125 5604.132812 C 7135.207031 5604.277344 7135.292969 5604.230469 7135.578125 5604.425781 C 7135.730469 5604.53125 7136.167969 5604.832031 7136.121094 5605.050781 C 7136.058594 5605.339844 7135.234375 5605.121094 7134.828125 5605.632812 C 7134.589844 5605.9375 7134.765625 5606.152344 7134.453125 5606.550781 C 7134.355469 5606.675781 7134.101562 5607.003906 7133.703125 5607.007812 C 7133.375 5607.011719 7133.152344 5606.792969 7133.121094 5606.757812 "/>
<path xmlns="http://www.w3.org/2000/svg" fill-rule="nonzero" fill="rgb(78.900146%, 91.56189%, 65.628052%)" fill-opacity="1" d="M 7119.121094 5621.425781 C 7119.140625 5621.375 7119.328125 5620.949219 7119.777344 5620.769531 C 7120.183594 5620.605469 7120.347656 5620.828125 7120.714844 5620.675781 C 7121.148438 5620.496094 7121.058594 5620.125 7121.464844 5619.925781 C 7121.574219 5619.871094 7121.726562 5619.824219 7122.839844 5620.050781 C 7123.0625 5620.097656 7123.460938 5620.179688 7124.058594 5620.332031 C 7125.042969 5620.582031 7125.300781 5620.695312 7125.402344 5620.738281 C 7125.679688 5620.863281 7125.640625 5620.875 7126.214844 5621.175781 C 7126.90625 5621.539062 7127.257812 5621.722656 7127.464844 5621.675781 C 7127.890625 5621.585938 7127.851562 5621.144531 7128.382812 5620.953125 C 7128.714844 5620.835938 7129.023438 5620.90625 7129.402344 5620.988281 C 7129.632812 5621.039062 7129.914062 5621.160156 7130.464844 5621.394531 C 7131.167969 5621.699219 7131.160156 5621.71875 7131.308594 5621.738281 C 7131.949219 5621.824219 7132.484375 5621.445312 7132.582031 5621.375 C 7132.957031 5621.109375 7132.847656 5620.988281 7133.183594 5620.769531 C 7133.734375 5620.410156 7134.160156 5620.664062 7134.464844 5620.300781 C 7134.65625 5620.074219 7134.695312 5619.734375 7134.589844 5619.644531 C 7134.570312 5619.632812 7134.53125 5619.609375 7134.121094 5619.675781 C 7133.886719 5619.714844 7133.855469 5619.730469 7133.839844 5619.707031 C 7133.769531 5619.617188 7134.09375 5618.980469 7134.558594 5619.019531 C 7134.835938 5619.042969 7135.050781 5619.300781 7135.121094 5619.519531 C 7135.183594 5619.730469 7135.097656 5619.84375 7135.183594 5619.925781 C 7135.304688 5620.046875 7135.523438 5619.859375 7135.964844 5619.863281 C 7136.140625 5619.867188 7136.449219 5619.871094 7136.621094 5620.082031 C 7136.707031 5620.1875 7136.792969 5620.390625 7136.714844 5620.519531 C 7136.597656 5620.714844 7136.253906 5620.523438 7135.839844 5620.738281 C 7135.679688 5620.824219 7135.574219 5620.941406 7135.371094 5621.175781 C 7135.011719 5621.585938 7134.898438 5621.886719 7134.839844 5621.863281 C 7134.753906 5621.832031 7134.902344 5621.203125 7134.933594 5621.082031 C 7135.03125 5620.667969 7135.125 5620.46875 7135.058594 5620.425781 C 7134.996094 5620.382812 7134.882812 5620.550781 7134.558594 5620.707031 C 7134.265625 5620.847656 7134.113281 5620.832031 7134.089844 5620.925781 C 7134.050781 5621.085938 7134.453125 5621.207031 7134.464844 5621.457031 C 7134.472656 5621.6875 7134.148438 5621.875 7134.058594 5621.925781 C 7133.628906 5622.171875 7133.398438 5622.003906 7132.683594 5622.113281 C 7132.023438 5622.214844 7132 5622.386719 7131.433594 5622.394531 C 7131.078125 5622.402344 7131 5622.332031 7130.714844 5622.394531 C 7130.613281 5622.417969 7130.496094 5622.453125 7129.871094 5622.769531 C 7129.347656 5623.035156 7129.351562 5623.050781 7129.277344 5623.050781 C 7128.84375 5623.054688 7128.738281 5622.527344 7128.246094 5622.488281 C 7128.121094 5622.480469 7127.964844 5622.535156 7127.652344 5622.644531 C 7127.316406 5622.761719 7127.226562 5622.835938 7126.871094 5622.988281 C 7126.441406 5623.171875 7126.226562 5623.265625 7126.027344 5623.269531 C 7125.625 5623.28125 7125.59375 5623.066406 7125.058594 5622.925781 C 7124.488281 5622.777344 7124.421875 5622.996094 7123.683594 5622.863281 C 7123.195312 5622.777344 7123.183594 5622.675781 7122.746094 5622.644531 C 7122.375 5622.621094 7122.308594 5622.6875 7121.871094 5622.644531 C 7121.519531 5622.613281 7121.46875 5622.5625 7121.152344 5622.550781 C 7120.90625 5622.542969 7120.703125 5622.539062 7120.464844 5622.613281 C 7120.023438 5622.753906 7119.972656 5623.007812 7119.714844 5622.988281 C 7119.402344 5622.964844 7119.207031 5622.566406 7119.152344 5622.457031 C 7118.902344 5621.957031 7119.101562 5621.46875 7119.121094 5621.425781 "/>
<path xmlns="http://www.w3.org/2000/svg" fill-rule="nonzero" fill="rgb(78.900146%, 91.56189%, 65.628052%)" fill-opacity="1" d="M 7114.578125 5626.550781 C 7114.542969 5626.175781 7115.128906 5625.714844 7115.722656 5625.574219 C 7116.222656 5625.453125 7116.25 5625.671875 7117.453125 5625.71875 C 7118.027344 5625.742188 7118.367188 5625.703125 7118.660156 5625.632812 C 7118.964844 5625.5625 7119.117188 5625.527344 7119.328125 5625.425781 C 7119.585938 5625.304688 7119.640625 5625.21875 7119.765625 5625.238281 C 7120.003906 5625.273438 7119.972656 5625.597656 7120.285156 5625.84375 C 7120.628906 5626.109375 7120.964844 5625.964844 7121.078125 5626.199219 C 7121.171875 5626.390625 7120.96875 5626.542969 7121.078125 5626.757812 C 7121.191406 5626.988281 7121.515625 5627.027344 7121.535156 5627.03125 C 7121.804688 5627.0625 7121.878906 5626.898438 7122.160156 5626.882812 C 7122.476562 5626.871094 7122.726562 5627.058594 7122.828125 5627.132812 C 7122.964844 5627.238281 7122.964844 5627.28125 7123.390625 5627.90625 C 7123.734375 5628.410156 7123.789062 5628.460938 7123.847656 5628.507812 C 7124.035156 5628.65625 7124.175781 5628.6875 7124.222656 5628.84375 C 7124.28125 5629.019531 7124.167969 5629.199219 7124.121094 5629.28125 C 7124.007812 5629.460938 7123.851562 5629.582031 7123.496094 5629.757812 C 7123.003906 5630.003906 7122.757812 5630.125 7122.453125 5630.15625 C 7122.019531 5630.199219 7121.6875 5630.085938 7121.453125 5630.007812 C 7121.195312 5629.925781 7120.933594 5629.835938 7120.683594 5629.613281 C 7120.277344 5629.25 7120.4375 5629.003906 7120.078125 5628.699219 C 7119.699219 5628.375 7119.449219 5628.582031 7119.015625 5628.199219 C 7118.828125 5628.03125 7118.800781 5627.921875 7118.558594 5627.757812 C 7118.417969 5627.664062 7118.21875 5627.53125 7117.953125 5627.507812 C 7117.644531 5627.484375 7117.574219 5627.644531 7117.183594 5627.71875 C 7116.800781 5627.789062 7116.488281 5627.714844 7116.328125 5627.675781 C 7115.941406 5627.582031 7116.03125 5627.492188 7115.390625 5627.238281 C 7115.113281 5627.128906 7114.921875 5627.078125 7114.75 5626.875 C 7114.683594 5626.796875 7114.59375 5626.6875 7114.578125 5626.550781 "/>
<path xmlns="http://www.w3.org/2000/svg" fill-rule="nonzero" fill="rgb(78.900146%, 91.56189%, 65.628052%)" fill-opacity="1" d="M 7057.933594 5594.300781 C 7057.71875 5594.128906 7057.683594 5593.851562 7057.621094 5593.300781 C 7057.5625 5592.800781 7057.535156 5592.550781 7057.621094 5592.300781 C 7057.835938 5591.667969 7058.46875 5591.402344 7058.558594 5591.363281 C 7059.265625 5591.078125 7059.910156 5591.386719 7060.121094 5591.488281 C 7060.355469 5591.601562 7060.808594 5591.820312 7060.996094 5592.300781 C 7061.121094 5592.625 7061.070312 5592.910156 7060.996094 5593.300781 C 7060.9375 5593.613281 7060.863281 5593.988281 7060.558594 5594.300781 C 7060.421875 5594.4375 7060.234375 5594.632812 7059.996094 5594.613281 C 7059.671875 5594.589844 7059.335938 5594.191406 7059.328125 5593.886719 C 7059.328125 5593.859375 7059.328125 5593.8125 7059.308594 5593.800781 C 7059.226562 5593.765625 7059.066406 5594.277344 7058.683594 5594.425781 C 7058.441406 5594.523438 7058.128906 5594.460938 7057.933594 5594.300781 "/>
<path xmlns="http://www.w3.org/2000/svg" fill-rule="nonzero" fill="rgb(78.900146%, 91.56189%, 65.628052%)" fill-opacity="1" d="M 7054.496094 5593.925781 C 7054.46875 5594.109375 7053.832031 5594.25 7053.246094 5594.113281 C 7052.914062 5594.035156 7052.847656 5593.929688 7052.121094 5593.488281 C 7051.394531 5593.050781 7051.035156 5592.832031 7050.683594 5592.738281 C 7050.011719 5592.5625 7049.730469 5592.75 7049.496094 5592.488281 C 7049.277344 5592.25 7049.476562 5592.023438 7049.371094 5591.363281 C 7049.25 5590.617188 7048.941406 5590.59375 7048.839844 5589.863281 C 7048.75 5589.226562 7048.941406 5588.957031 7048.746094 5588.800781 C 7048.554688 5588.652344 7048.308594 5588.859375 7047.433594 5588.988281 C 7047.035156 5589.046875 7046.800781 5589.082031 7046.496094 5589.050781 C 7046.027344 5589.007812 7045.386719 5588.820312 7045.378906 5588.585938 C 7045.367188 5588.375 7045.875 5588.390625 7046.371094 5587.863281 C 7046.699219 5587.511719 7046.871094 5587.082031 7046.933594 5586.925781 C 7046.933594 5586.925781 7046.964844 5586.84375 7047.183594 5586.175781 C 7047.183594 5586.175781 7047.699219 5587.121094 7048.246094 5587.113281 C 7048.480469 5587.109375 7048.703125 5586.925781 7048.808594 5586.738281 C 7048.832031 5586.695312 7048.9375 5586.492188 7048.890625 5586.257812 C 7048.855469 5586.097656 7048.78125 5586.054688 7048.808594 5585.988281 C 7048.863281 5585.855469 7049.28125 5585.800781 7049.558594 5585.988281 C 7049.558594 5585.988281 7049.730469 5586.105469 7049.996094 5586.800781 C 7050.617188 5587.617188 7050.671875 5587.765625 7050.671875 5587.765625 C 7050.90625 5588.378906 7050.472656 5588.597656 7050.621094 5589.363281 C 7050.632812 5589.433594 7050.832031 5590.410156 7051.433594 5590.589844 C 7051.929688 5590.738281 7052.265625 5590.214844 7052.808594 5590.425781 C 7053.019531 5590.511719 7053.226562 5590.695312 7053.308594 5590.925781 C 7053.355469 5591.066406 7053.335938 5591.167969 7053.246094 5591.675781 C 7053.160156 5592.15625 7053.117188 5592.394531 7053.121094 5592.425781 C 7053.175781 5592.851562 7053.550781 5593.160156 7053.871094 5593.425781 C 7054.273438 5593.761719 7054.511719 5593.8125 7054.496094 5593.925781 "/>
<path xmlns="http://www.w3.org/2000/svg" fill-rule="nonzero" fill="rgb(78.900146%, 91.56189%, 65.628052%)" fill-opacity="1" d="M 7030.089844 5570.519531 C 7030.210938 5570.375 7030.59375 5570.695312 7031.464844 5570.832031 C 7031.964844 5570.914062 7032.144531 5570.855469 7032.277344 5571.019531 C 7032.449219 5571.242188 7032.355469 5571.625 7032.246094 5572.050781 C 7032.117188 5572.558594 7031.953125 5572.785156 7032.058594 5572.894531 C 7032.144531 5572.984375 7032.28125 5572.863281 7032.652344 5572.894531 C 7032.984375 5572.925781 7033.019531 5573.035156 7033.246094 5573.019531 C 7033.585938 5572.996094 7033.613281 5572.738281 7033.902344 5572.707031 C 7034.148438 5572.679688 7034.382812 5572.886719 7034.839844 5573.300781 C 7035.117188 5573.554688 7035.527344 5573.925781 7035.464844 5574.019531 C 7035.375 5574.15625 7034.417969 5573.558594 7034.308594 5573.707031 C 7034.238281 5573.800781 7034.570312 5574.167969 7034.652344 5574.257812 C 7034.867188 5574.5 7035.015625 5574.574219 7034.996094 5574.613281 C 7034.964844 5574.679688 7034.566406 5574.535156 7033.746094 5574.300781 C 7033.316406 5574.179688 7032.894531 5574.046875 7032.460938 5573.933594 C 7032.109375 5573.84375 7031.984375 5573.820312 7031.808594 5573.707031 C 7031.6875 5573.632812 7031.351562 5573.402344 7031.214844 5572.988281 C 7031.058594 5572.519531 7031.335938 5572.292969 7031.152344 5571.925781 C 7030.980469 5571.582031 7030.679688 5571.660156 7030.339844 5571.207031 C 7030.207031 5571.035156 7029.976562 5570.65625 7030.089844 5570.519531 "/>
<path xmlns="http://www.w3.org/2000/svg" fill-rule="nonzero" fill="rgb(78.900146%, 91.56189%, 65.628052%)" fill-opacity="1" d="M 7016.367188 5540.070312 C 7016.132812 5540.609375 7016.660156 5541.695312 7017.402344 5542.050781 C 7017.800781 5542.242188 7018.195312 5542.203125 7018.339844 5542.488281 C 7018.472656 5542.753906 7018.191406 5542.960938 7018.246094 5543.425781 C 7018.28125 5543.746094 7018.453125 5543.96875 7018.621094 5544.175781 C 7019.125 5544.808594 7019.507812 5544.710938 7020.058594 5545.207031 C 7020.496094 5545.601562 7020.683594 5546.0625 7021.058594 5546.988281 C 7021.316406 5547.625 7021.429688 5548.125 7021.464844 5548.269531 C 7021.632812 5549.019531 7021.644531 5549.613281 7021.652344 5549.957031 C 7021.664062 5550.585938 7021.609375 5551.195312 7021.589844 5551.457031 C 7021.527344 5552.175781 7021.480469 5552.207031 7021.527344 5552.425781 C 7021.632812 5552.949219 7021.945312 5553.070312 7022.402344 5553.738281 C 7022.695312 5554.171875 7022.972656 5554.578125 7023.058594 5555.113281 C 7023.203125 5556.039062 7022.613281 5556.332031 7022.839844 5557.019531 C 7023.066406 5557.714844 7024.03125 5557.847656 7023.964844 5558.238281 C 7023.929688 5558.445312 7023.667969 5558.445312 7023.632812 5558.652344 C 7023.582031 5558.980469 7024.191406 5559.125 7024.714844 5559.800781 C 7025.054688 5560.246094 7024.90625 5560.347656 7025.316406 5560.921875 C 7025.808594 5561.613281 7026.03125 5561.527344 7026.191406 5561.933594 C 7026.480469 5562.664062 7025.820312 5563.089844 7026.089844 5563.800781 C 7026.285156 5564.316406 7026.820312 5564.597656 7027.277344 5564.832031 C 7027.90625 5565.160156 7028.066406 5565.007812 7028.558594 5565.332031 C 7029.070312 5565.675781 7028.992188 5565.910156 7029.527344 5566.332031 C 7029.914062 5566.640625 7030.101562 5566.632812 7030.902344 5566.988281 C 7031.40625 5567.214844 7031.964844 5567.464844 7032.496094 5567.832031 C 7033.496094 5568.527344 7033.316406 5568.894531 7034.183594 5569.425781 C 7035.035156 5569.953125 7035.273438 5569.636719 7035.964844 5570.175781 C 7036.703125 5570.753906 7036.757812 5571.402344 7037.246094 5571.425781 C 7037.617188 5571.445312 7037.652344 5571.074219 7038.3125 5570.828125 C 7038.484375 5570.765625 7039.246094 5570.484375 7039.832031 5570.816406 C 7040.234375 5571.042969 7040.261719 5571.386719 7040.632812 5571.445312 C 7040.851562 5571.484375 7041.164062 5571.414062 7041.304688 5571.222656 C 7041.65625 5570.746094 7040.660156 5569.898438 7039.964844 5568.082031 C 7039.382812 5566.5625 7039.695312 5566.191406 7039.089844 5565.488281 C 7038.273438 5564.546875 7037.394531 5564.949219 7036.996094 5564.144531 C 7036.578125 5563.308594 7037.464844 5562.738281 7037.089844 5561.269531 C 7036.953125 5560.746094 7036.769531 5560.542969 7036.714844 5559.894531 C 7036.699219 5559.730469 7036.660156 5559.171875 7036.839844 5558.457031 C 7037.015625 5557.753906 7037.226562 5557.613281 7037.371094 5557.144531 C 7037.578125 5556.464844 7037.398438 5555.890625 7037.058594 5554.832031 C 7036.851562 5554.195312 7036.46875 5553.042969 7035.527344 5551.800781 C 7034.921875 5551.003906 7034.378906 5550.289062 7033.464844 5549.738281 C 7033.054688 5549.496094 7032.664062 5549.335938 7032.339844 5548.863281 C 7032.097656 5548.507812 7032.066406 5548.234375 7031.683594 5547.738281 C 7031.609375 5547.648438 7031.417969 5547.40625 7031.152344 5547.175781 C 7030.578125 5546.679688 7030.152344 5546.667969 7029.714844 5546.425781 C 7028.566406 5545.800781 7029.007812 5544.550781 7027.871094 5543.925781 C 7027.296875 5543.613281 7026.648438 5543.632812 7026.339844 5543.644531 C 7025.425781 5543.675781 7025.261719 5544.042969 7024.652344 5543.925781 C 7024.136719 5543.828125 7023.789062 5543.511719 7023.089844 5542.675781 C 7021.515625 5540.796875 7021.625 5540.570312 7021.089844 5540.132812 C 7019.558594 5538.875 7016.753906 5539.183594 7016.367188 5540.070312 "/>
<path xmlns="http://www.w3.org/2000/svg" fill-rule="nonzero" fill="rgb(78.900146%, 91.56189%, 65.628052%)" fill-opacity="1" d="M 6998.214844 5564.394531 C 6998.253906 5564.1875 6998.394531 5563.890625 6998.652344 5563.800781 C 6998.800781 5563.75 6998.980469 5563.769531 6999.371094 5563.988281 C 6999.886719 5564.277344 7000.007812 5564.480469 7000.402344 5564.769531 C 7001.113281 5565.292969 7001.40625 5565.136719 7001.808594 5565.613281 C 7002.066406 5565.914062 7002.28125 5566.375 7002.148438 5566.515625 C 7001.980469 5566.707031 7001.253906 5566.339844 7000.78125 5566.101562 C 7000.359375 5565.890625 7000.300781 5565.804688 6999.902344 5565.644531 C 6999.585938 5565.519531 6999.519531 5565.53125 6999.089844 5565.363281 C 6998.429688 5565.109375 6998.304688 5564.972656 6998.246094 5564.832031 C 6998.164062 5564.648438 6998.199219 5564.472656 6998.214844 5564.394531 "/>
<path xmlns="http://www.w3.org/2000/svg" fill-rule="nonzero" fill="rgb(78.900146%, 91.56189%, 65.628052%)" fill-opacity="1" d="M 7005.371094 5571.300781 C 7005.46875 5571.144531 7006.183594 5571.53125 7006.402344 5571.269531 C 7006.503906 5571.148438 7006.394531 5571.003906 7006.496094 5570.894531 C 7006.664062 5570.710938 7007.25 5570.8125 7007.621094 5571.144531 C 7008.105469 5571.582031 7007.8125 5572.039062 7008.277344 5572.519531 C 7008.707031 5572.964844 7009.128906 5572.75 7009.402344 5573.175781 C 7009.597656 5573.484375 7009.527344 5573.832031 7009.402344 5574.488281 C 7009.28125 5575.113281 7009.15625 5575.753906 7008.820312 5575.824219 C 7008.421875 5575.90625 7007.953125 5575.132812 7007.902344 5575.050781 C 7007.433594 5574.289062 7007.628906 5573.6875 7007.160156 5573.410156 C 7006.917969 5573.273438 7006.8125 5573.402344 7006.5625 5573.230469 C 7006.253906 5573.015625 7006.300781 5572.738281 7006.027344 5572.238281 C 7005.699219 5571.644531 7005.296875 5571.421875 7005.371094 5571.300781 "/>
<path xmlns="http://www.w3.org/2000/svg" fill-rule="nonzero" fill="rgb(78.900146%, 91.56189%, 65.628052%)" fill-opacity="1" d="M 7013.183594 5583.425781 C 7013.40625 5583.214844 7013.769531 5583.199219 7014.027344 5583.300781 C 7014.226562 5583.382812 7014.28125 5583.507812 7014.621094 5583.988281 C 7015.199219 5584.8125 7015.21875 5584.707031 7015.339844 5584.988281 C 7015.566406 5585.519531 7015.429688 5585.742188 7015.714844 5586.019531 C 7015.90625 5586.210938 7016.070312 5586.207031 7016.183594 5586.425781 C 7016.277344 5586.609375 7016.300781 5586.875 7016.183594 5587.050781 C 7015.949219 5587.398438 7015.152344 5587.375 7014.683594 5587.019531 C 7014.28125 5586.71875 7014.464844 5586.4375 7013.980469 5585.867188 C 7013.5625 5585.382812 7013.296875 5585.441406 7013.089844 5584.988281 C 7012.902344 5584.589844 7012.949219 5584.195312 7012.964844 5584.050781 C 7012.992188 5583.792969 7013.015625 5583.585938 7013.183594 5583.425781 "/>
<path xmlns="http://www.w3.org/2000/svg" fill-rule="nonzero" fill="rgb(78.900146%, 91.56189%, 65.628052%)" fill-opacity="1" d="M 7019.558594 5590.988281 C 7019.734375 5590.882812 7020.1875 5591.171875 7020.4375 5591.558594 C 7020.652344 5591.890625 7020.535156 5592.023438 7020.746094 5592.300781 C 7020.988281 5592.621094 7021.199219 5592.519531 7021.589844 5592.863281 C 7021.699219 5592.960938 7022.167969 5593.371094 7022.121094 5593.832031 C 7022.097656 5594.0625 7021.96875 5594.070312 7021.902344 5594.363281 C 7021.792969 5594.824219 7022.011719 5595.1875 7021.964844 5595.207031 C 7021.910156 5595.230469 7021.753906 5594.769531 7021.371094 5594.269531 C 7020.953125 5593.726562 7020.714844 5593.71875 7020.605469 5593.328125 C 7020.496094 5592.9375 7020.667969 5592.710938 7020.496094 5592.550781 C 7020.28125 5592.355469 7019.933594 5592.632812 7019.683594 5592.425781 C 7019.539062 5592.308594 7019.527344 5592.089844 7019.496094 5591.644531 C 7019.46875 5591.25 7019.453125 5591.050781 7019.558594 5590.988281 "/>
<path xmlns="http://www.w3.org/2000/svg" fill-rule="nonzero" fill="rgb(68.000793%, 87.19635%, 47.155762%)" fill-opacity="1" d="M 6376.699219 6534.816406 L 6356.699219 6534.816406 C 6350.527344 6534.816406 6345.507812 6539.835938 6345.507812 6546.003906 L 6345.507812 6567.332031 C 6345.507812 6573.5 6350.527344 6578.519531 6356.699219 6578.519531 L 6376.699219 6578.519531 C 6382.867188 6578.519531 6387.886719 6573.5 6387.886719 6567.332031 L 6387.886719 6546.003906 C 6387.886719 6539.835938 6382.867188 6534.816406 6376.699219 6534.816406 M 6376.699219 6538.667969 C 6380.734375 6538.667969 6384.035156 6541.96875 6384.035156 6546.003906 L 6384.035156 6567.332031 C 6384.035156 6571.367188 6380.734375 6574.667969 6376.699219 6574.667969 L 6356.699219 6574.667969 C 6352.664062 6574.667969 6349.359375 6571.367188 6349.359375 6567.332031 L 6349.359375 6546.003906 C 6349.359375 6541.96875 6352.664062 6538.667969 6356.699219 6538.667969 Z M 6376.699219 6538.667969 "/>
</svg>
