<?xml version="1.0" encoding="UTF-8"?>
<svg xmlns="http://www.w3.org/2000/svg" xmlns:xlink="http://www.w3.org/1999/xlink" viewBox="0 1681.72 2378.3925 1681.72" width="2378.3925" height="1681.72">
<path xmlns="http://www.w3.org/2000/svg" fill="none" stroke-width="15" stroke-linecap="butt" stroke-linejoin="miter" stroke="rgb(96.514893%, 75.584412%, 12.493896%)" stroke-opacity="1" stroke-miterlimit="10" d="M -0.00028125 -0.0010875 L -0.00028125 36.162975 C -0.00028125 55.495006 -15.672156 71.166881 -35.000281 71.166881 L -101.695594 71.166881 L -1241.9495 72.932506 L -1318.246375 72.932506 " transform="matrix(1, 0, 0, -1, 3673.6995, 2826.9286)"/>
<path xmlns="http://www.w3.org/2000/svg" fill="none" stroke-width="15" stroke-linecap="butt" stroke-linejoin="miter" stroke="rgb(30.001831%, 64.794922%, 59.94873%)" stroke-opacity="1" stroke-miterlimit="10" d="M -0.00048125 -0.00083125 L 37.999519 -0.00083125 C 76.659675 -0.00083125 107.999519 -31.340675 107.999519 -70.000831 L 107.999519 -1298.360206 " transform="matrix(1, 0, 0, -1, 2346.1997, 1401.7687)"/>
<path xmlns="http://www.w3.org/2000/svg" fill="none" stroke-width="15" stroke-linecap="butt" stroke-linejoin="miter" stroke="rgb(82.23114%, 14.726257%, 60.897827%)" stroke-opacity="1" stroke-miterlimit="10" d="M -0.00058125 0.0018 L -0.00058125 66.079925 L 0.0541063 135.622894 C 0.0697313 154.759613 7.6752 173.107269 21.20645 186.638519 L 149.491606 314.923675 C 163.038481 328.466644 181.409575 336.079925 200.565825 336.079925 L 476.495513 336.079925 C 498.952544 336.079925 517.245513 318.03305 517.5502 295.579925 L 517.5502 165.1268 " transform="matrix(1, 0, 0, -1, 1914.1998, 3112.6893)"/>
<path xmlns="http://www.w3.org/2000/svg" fill="none" stroke-width="15" stroke-linecap="butt" stroke-linejoin="miter" stroke="rgb(82.23114%, 14.726257%, 60.897827%)" stroke-opacity="1" stroke-miterlimit="10" d="M -0.00048125 0.00108125 L -0.00048125 931.860456 C -0.00048125 971.645613 -15.801263 1009.797956 -43.934075 1037.926863 L -523.066888 1517.059675 C -551.195794 1545.192488 -567.000481 1583.344831 -567.000481 1623.126081 L -567.000481 2381.415144 " transform="matrix(1, 0, 0, -1, 2481.1997, 5446.7628)"/>
<path xmlns="http://www.w3.org/2000/svg" fill="none" stroke-width="15" stroke-linecap="butt" stroke-linejoin="miter" stroke="rgb(18.84613%, 31.185913%, 65.649414%)" stroke-opacity="1" stroke-miterlimit="10" d="M -0.001575 -0.00158125 L 1676.603894 -0.00158125 L 2054.924206 -0.337519 L 2268.9203 -0.337519 " transform="matrix(1, 0, 0, -1, 1373.3922, 2731.6117)"/>
<path xmlns="http://www.w3.org/2000/svg" fill="none" stroke-width="15" stroke-linecap="butt" stroke-linejoin="miter" stroke="rgb(42.337036%, 77.964783%, 45.454407%)" stroke-opacity="1" stroke-miterlimit="10" d="M 0.000525 -0.00039375 L -343.245569 -0.00039375 C -370.862756 -0.00039375 -393.245569 22.386325 -393.245569 49.999606 L -387.878381 75.288669 L -387.878381 119.538669 C -387.878381 158.198825 -419.218225 189.538669 -457.878381 189.538669 L -1179.878381 189.538669 L -1132.476038 189.538669 C -1086.581506 189.538669 -1049.378381 152.335544 -1049.378381 106.441013 L -1049.378381 -256.937894 C -1049.378381 -307.769925 -1008.167444 -348.980862 -957.335413 -348.980862 L 1481.621619 -348.980862 C 1520.281775 -348.980862 1551.621619 -380.320706 1551.621619 -418.980862 L 1551.621619 -801.328519 " transform="matrix(1, 0, 0, -1, 3526.0776, 1568.8082)"/>
<path xmlns="http://www.w3.org/2000/svg" fill="none" stroke-width="15" stroke-linecap="butt" stroke-linejoin="miter" stroke="rgb(96.514893%, 75.584412%, 12.493896%)" stroke-opacity="1" stroke-miterlimit="10" d="M 0.00071875 -0.0006625 L 0.00071875 76.479806 C 0.00071875 104.093087 -22.386 126.479806 -49.999281 126.479806 L -1415.999281 126.479806 " transform="matrix(1, 0, 0, -1, 2407.6985, 2880.4759)"/>
<path xmlns="http://www.w3.org/2000/svg" fill="none" stroke-width="15" stroke-linecap="butt" stroke-linejoin="miter" stroke="rgb(96.514893%, 75.584412%, 12.493896%)" stroke-opacity="1" stroke-miterlimit="10" d="M -0.00125 0.00040625 L -57.766875 0.00040625 " transform="matrix(1, 0, 0, -1, 2413.22, 2753.9965)"/>
<path xmlns="http://www.w3.org/2000/svg" fill="none" stroke-width="25" stroke-linecap="butt" stroke-linejoin="miter" stroke="rgb(52.000427%, 81.07605%, 24.971008%)" stroke-opacity="1" stroke-miterlimit="10" d="M -0.00089375 -0.00113125 L 1510.956137 -0.00113125 C 1564.331137 -0.00113125 1615.522544 21.2059 1653.268637 58.948087 L 2063.385825 469.065275 C 2091.514731 497.194181 2107.319419 535.350431 2107.319419 575.131681 L 2107.319419 1073.135587 C 2107.319419 1126.514494 2128.522544 1177.7059 2166.268637 1215.448087 L 2485.27645 1534.459806 C 2523.077231 1572.260587 2544.288169 1623.545744 2544.225669 1677.002775 L 2543.819419 2029.498869 L 2543.819419 2142.744962 " transform="matrix(1, 0, 0, -1, 333.3798, 5415.7684)"/>
<path xmlns="http://www.w3.org/2000/svg" fill="none" stroke-width="25" stroke-linecap="butt" stroke-linejoin="miter" stroke="rgb(74.504089%, 33.46405%, 16.555786%)" stroke-opacity="1" stroke-miterlimit="10" d="M -0.00058125 -0.00158125 L 1669.651763 -0.00158125 C 1704.128325 -0.00158125 1737.194731 13.697638 1761.577544 38.076544 L 2090.210356 366.709356 C 2108.964263 385.463263 2134.401763 395.998419 2160.921294 395.998419 L 2606.464263 395.998419 C 2630.784575 395.998419 2650.499419 376.283575 2650.499419 351.963263 L 2650.499419 319.498419 " transform="matrix(1, 0, 0, -1, 226.6998, 2871.1117)"/>
<path xmlns="http://www.w3.org/2000/svg" fill-rule="nonzero" fill="rgb(75.085449%, 33.602905%, 16.574097%)" fill-opacity="1" d="M 675.023438 2849.234375 C 662.894531 2849.234375 653.023438 2859.105469 653.023438 2871.234375 C 653.023438 2883.367188 662.894531 2893.234375 675.023438 2893.234375 C 687.15625 2893.234375 697.023438 2883.367188 697.023438 2871.234375 C 697.023438 2859.105469 687.15625 2849.234375 675.023438 2849.234375 M 675.023438 2853.234375 C 684.964844 2853.234375 693.023438 2861.296875 693.023438 2871.234375 C 693.023438 2881.175781 684.964844 2889.234375 675.023438 2889.234375 C 665.082031 2889.234375 657.023438 2881.175781 657.023438 2871.234375 C 657.023438 2861.296875 665.082031 2853.234375 675.023438 2853.234375 "/>
<path xmlns="http://www.w3.org/2000/svg" fill-rule="nonzero" fill="rgb(75.085449%, 33.602905%, 16.574097%)" fill-opacity="1" d="M 452.574219 2849.234375 C 440.441406 2849.234375 430.574219 2859.105469 430.574219 2871.234375 C 430.574219 2883.367188 440.441406 2893.234375 452.574219 2893.234375 C 464.703125 2893.234375 474.574219 2883.367188 474.574219 2871.234375 C 474.574219 2859.105469 464.703125 2849.234375 452.574219 2849.234375 M 452.574219 2853.234375 C 462.515625 2853.234375 470.574219 2861.296875 470.574219 2871.234375 C 470.574219 2881.175781 462.515625 2889.234375 452.574219 2889.234375 C 442.632812 2889.234375 434.574219 2881.175781 434.574219 2871.234375 C 434.574219 2861.296875 442.632812 2853.234375 452.574219 2853.234375 "/>
<path xmlns="http://www.w3.org/2000/svg" fill-rule="nonzero" fill="rgb(75.085449%, 33.602905%, 16.574097%)" fill-opacity="1" d="M 896.757812 2849.234375 C 884.628906 2849.234375 874.757812 2859.105469 874.757812 2871.234375 C 874.757812 2883.367188 884.628906 2893.234375 896.757812 2893.234375 C 908.890625 2893.234375 918.757812 2883.367188 918.757812 2871.234375 C 918.757812 2859.105469 908.890625 2849.234375 896.757812 2849.234375 M 896.757812 2853.234375 C 906.699219 2853.234375 914.757812 2861.296875 914.757812 2871.234375 C 914.757812 2881.175781 906.699219 2889.234375 896.757812 2889.234375 C 886.820312 2889.234375 878.757812 2881.175781 878.757812 2871.234375 C 878.757812 2861.296875 886.820312 2853.234375 896.757812 2853.234375 "/>
<path xmlns="http://www.w3.org/2000/svg" fill-rule="nonzero" fill="rgb(75.085449%, 33.602905%, 16.574097%)" fill-opacity="1" d="M 1140.257812 2849.234375 C 1128.125 2849.234375 1118.257812 2859.105469 1118.257812 2871.234375 C 1118.257812 2883.367188 1128.125 2893.234375 1140.257812 2893.234375 C 1152.386719 2893.234375 1162.257812 2883.367188 1162.257812 2871.234375 C 1162.257812 2859.105469 1152.386719 2849.234375 1140.257812 2849.234375 M 1140.257812 2853.234375 C 1150.199219 2853.234375 1158.257812 2861.296875 1158.257812 2871.234375 C 1158.257812 2881.175781 1150.199219 2889.234375 1140.257812 2889.234375 C 1130.316406 2889.234375 1122.257812 2881.175781 1122.257812 2871.234375 C 1122.257812 2861.296875 1130.316406 2853.234375 1140.257812 2853.234375 "/>
<path xmlns="http://www.w3.org/2000/svg" fill-rule="nonzero" fill="rgb(75.085449%, 33.602905%, 16.574097%)" fill-opacity="1" d="M 1357.941406 2849.234375 C 1345.808594 2849.234375 1335.941406 2859.105469 1335.941406 2871.234375 C 1335.941406 2883.367188 1345.808594 2893.234375 1357.941406 2893.234375 C 1370.070312 2893.234375 1379.941406 2883.367188 1379.941406 2871.234375 C 1379.941406 2859.105469 1370.070312 2849.234375 1357.941406 2849.234375 M 1357.941406 2853.234375 C 1367.882812 2853.234375 1375.941406 2861.296875 1375.941406 2871.234375 C 1375.941406 2881.175781 1367.882812 2889.234375 1357.941406 2889.234375 C 1348 2889.234375 1339.941406 2881.175781 1339.941406 2871.234375 C 1339.941406 2861.296875 1348 2853.234375 1357.941406 2853.234375 "/>
<path xmlns="http://www.w3.org/2000/svg" fill-rule="nonzero" fill="rgb(75.085449%, 33.602905%, 16.574097%)" fill-opacity="1" d="M 1581.203125 2849.234375 C 1569.070312 2849.234375 1559.203125 2859.105469 1559.203125 2871.234375 C 1559.203125 2883.367188 1569.070312 2893.234375 1581.203125 2893.234375 C 1593.332031 2893.234375 1603.203125 2883.367188 1603.203125 2871.234375 C 1603.203125 2859.105469 1593.332031 2849.234375 1581.203125 2849.234375 M 1581.203125 2853.234375 C 1591.144531 2853.234375 1599.203125 2861.296875 1599.203125 2871.234375 C 1599.203125 2881.175781 1591.144531 2889.234375 1581.203125 2889.234375 C 1571.261719 2889.234375 1563.203125 2881.175781 1563.203125 2871.234375 C 1563.203125 2861.296875 1571.261719 2853.234375 1581.203125 2853.234375 "/>
<path xmlns="http://www.w3.org/2000/svg" fill-rule="nonzero" fill="rgb(75.085449%, 33.602905%, 16.574097%)" fill-opacity="1" d="M 1799.453125 2849.234375 C 1787.320312 2849.234375 1777.453125 2859.105469 1777.453125 2871.234375 C 1777.453125 2883.367188 1787.320312 2893.234375 1799.453125 2893.234375 C 1811.582031 2893.234375 1821.453125 2883.367188 1821.453125 2871.234375 C 1821.453125 2859.105469 1811.582031 2849.234375 1799.453125 2849.234375 M 1799.453125 2853.234375 C 1809.394531 2853.234375 1817.453125 2861.296875 1817.453125 2871.234375 C 1817.453125 2881.175781 1809.394531 2889.234375 1799.453125 2889.234375 C 1789.511719 2889.234375 1781.453125 2881.175781 1781.453125 2871.234375 C 1781.453125 2861.296875 1789.511719 2853.234375 1799.453125 2853.234375 "/>
<path xmlns="http://www.w3.org/2000/svg" fill-rule="nonzero" fill="rgb(75.085449%, 33.602905%, 16.574097%)" fill-opacity="1" d="M 232.289062 2849.234375 C 220.15625 2849.234375 210.289062 2859.105469 210.289062 2871.234375 C 210.289062 2883.367188 220.15625 2893.234375 232.289062 2893.234375 C 244.417969 2893.234375 254.289062 2883.367188 254.289062 2871.234375 C 254.289062 2859.105469 244.417969 2849.234375 232.289062 2849.234375 M 232.289062 2853.234375 C 242.230469 2853.234375 250.289062 2861.296875 250.289062 2871.234375 C 250.289062 2881.175781 242.230469 2889.234375 232.289062 2889.234375 C 222.347656 2889.234375 214.289062 2881.175781 214.289062 2871.234375 C 214.289062 2861.296875 222.347656 2853.234375 232.289062 2853.234375 "/>
<path xmlns="http://www.w3.org/2000/svg" fill-rule="nonzero" fill="rgb(75.085449%, 33.602905%, 16.574097%)" fill-opacity="1" d="M 2172.832031 2622.394531 C 2160.703125 2622.394531 2150.832031 2632.261719 2150.832031 2644.394531 C 2150.832031 2656.523438 2160.703125 2666.394531 2172.832031 2666.394531 C 2184.964844 2666.394531 2194.832031 2656.523438 2194.832031 2644.394531 C 2194.832031 2632.261719 2184.964844 2622.394531 2172.832031 2622.394531 M 2172.832031 2626.394531 C 2182.773438 2626.394531 2190.832031 2634.453125 2190.832031 2644.394531 C 2190.832031 2654.335938 2182.773438 2662.394531 2172.832031 2662.394531 C 2162.890625 2662.394531 2154.832031 2654.335938 2154.832031 2644.394531 C 2154.832031 2634.453125 2162.890625 2626.394531 2172.832031 2626.394531 "/>
<path xmlns="http://www.w3.org/2000/svg" fill-rule="nonzero" fill="rgb(96.514893%, 75.584412%, 12.493896%)" fill-opacity="1" d="M 935.625 2730.101562 L 892.367188 2730.101562 C 880.777344 2730.101562 871.378906 2720.703125 871.378906 2709.113281 C 871.378906 2697.519531 880.777344 2688.121094 892.367188 2688.121094 L 935.625 2688.121094 C 947.214844 2688.121094 956.613281 2697.519531 956.613281 2709.113281 C 956.613281 2720.703125 947.214844 2730.101562 935.625 2730.101562 "/>
<path xmlns="http://www.w3.org/2000/svg" fill-rule="nonzero" fill="rgb(96.514893%, 75.584412%, 12.493896%)" fill-opacity="1" d="M 935.625 2775.023438 L 892.367188 2775.023438 C 880.777344 2775.023438 871.378906 2765.628906 871.378906 2754.035156 C 871.378906 2742.445312 880.777344 2733.046875 892.367188 2733.046875 L 935.625 2733.046875 C 947.214844 2733.046875 956.613281 2742.445312 956.613281 2754.035156 C 956.613281 2765.628906 947.214844 2775.023438 935.625 2775.023438 "/>
<path xmlns="http://www.w3.org/2000/svg" fill-rule="nonzero" fill="rgb(18.84613%, 31.185913%, 65.649414%)" fill-opacity="1" d="M 1564.5 2517.089844 L 1521.242188 2517.089844 C 1509.652344 2517.089844 1500.253906 2507.691406 1500.253906 2496.101562 C 1500.253906 2484.507812 1509.652344 2475.113281 1521.242188 2475.113281 L 1564.5 2475.113281 C 1576.089844 2475.113281 1585.488281 2484.507812 1585.488281 2496.101562 C 1585.488281 2507.691406 1576.089844 2517.089844 1564.5 2517.089844 "/>
<path xmlns="http://www.w3.org/2000/svg" fill-rule="nonzero" fill="rgb(96.514893%, 75.584412%, 12.493896%)" fill-opacity="1" d="M 2154.996094 2954.53125 L 2111.742188 2954.53125 C 2100.148438 2954.53125 2090.75 2945.132812 2090.75 2933.539062 C 2090.75 2921.949219 2100.148438 2912.550781 2111.742188 2912.550781 L 2154.996094 2912.550781 C 2166.589844 2912.550781 2175.984375 2921.949219 2175.984375 2933.539062 C 2175.984375 2945.132812 2166.589844 2954.53125 2154.996094 2954.53125 "/>
<path xmlns="http://www.w3.org/2000/svg" fill-rule="nonzero" fill="rgb(75.085449%, 33.602905%, 16.574097%)" fill-opacity="1" d="M 226.699219 2743.515625 C 201.28125 2743.515625 180.605469 2764.191406 180.605469 2789.605469 C 180.605469 2815.023438 201.28125 2835.699219 226.699219 2835.699219 C 252.113281 2835.699219 272.792969 2815.023438 272.792969 2789.605469 C 272.792969 2764.191406 252.113281 2743.515625 226.699219 2743.515625 M 226.699219 2756.015625 C 245.25 2756.015625 260.292969 2771.054688 260.292969 2789.605469 C 260.292969 2808.160156 245.25 2823.199219 226.699219 2823.199219 C 208.144531 2823.199219 193.105469 2808.160156 193.105469 2789.605469 C 193.105469 2771.054688 208.144531 2756.015625 226.699219 2756.015625 "/>
</svg>
