<?xml version="1.0" encoding="UTF-8"?>
<svg xmlns="http://www.w3.org/2000/svg" xmlns:xlink="http://www.w3.org/1999/xlink" viewBox="7135.1775 3363.44 2378.3925 1681.72" width="2378.3925" height="1681.72">
<path xmlns="http://www.w3.org/2000/svg" fill-rule="nonzero" fill="rgb(100%, 100%, 100%)" fill-opacity="1" d="M 8163.210938 4922.519531 C 8141.242188 4922.519531 8123.367188 4904.644531 8123.367188 4882.675781 C 8123.367188 4860.703125 8141.242188 4842.832031 8163.210938 4842.832031 C 8185.179688 4842.832031 8203.054688 4860.703125 8203.054688 4882.675781 C 8203.054688 4904.644531 8185.179688 4922.519531 8163.210938 4922.519531 "/>
<path xmlns="http://www.w3.org/2000/svg" fill-rule="nonzero" fill="rgb(100%, 100%, 100%)" fill-opacity="1" d="M 7713.824219 4829.019531 C 7702.796875 4829.019531 7693.824219 4820.046875 7693.824219 4809.019531 C 7693.824219 4797.992188 7702.796875 4789.019531 7713.824219 4789.019531 C 7724.851562 4789.019531 7733.824219 4797.992188 7733.824219 4809.019531 C 7733.824219 4820.046875 7724.851562 4829.019531 7713.824219 4829.019531 "/>
<path xmlns="http://www.w3.org/2000/svg" fill-rule="nonzero" fill="rgb(100%, 100%, 100%)" fill-opacity="1" d="M 7825.921875 4829.019531 C 7814.894531 4829.019531 7805.921875 4820.046875 7805.921875 4809.019531 C 7805.921875 4797.992188 7814.894531 4789.019531 7825.921875 4789.019531 C 7836.949219 4789.019531 7845.921875 4797.992188 7845.921875 4809.019531 C 7845.921875 4820.046875 7836.949219 4829.019531 7825.921875 4829.019531 "/>
<path xmlns="http://www.w3.org/2000/svg" fill-rule="nonzero" fill="rgb(100%, 100%, 100%)" fill-opacity="1" d="M 7938.019531 4829.019531 C 7926.992188 4829.019531 7918.019531 4820.046875 7918.019531 4809.019531 C 7918.019531 4797.992188 7926.992188 4789.019531 7938.019531 4789.019531 C 7949.046875 4789.019531 7958.019531 4797.992188 7958.019531 4809.019531 C 7958.019531 4820.046875 7949.046875 4829.019531 7938.019531 4829.019531 "/>
<path xmlns="http://www.w3.org/2000/svg" fill-rule="nonzero" fill="rgb(100%, 100%, 100%)" fill-opacity="1" d="M 8050.195312 4829.019531 C 8039.167969 4829.019531 8030.195312 4820.046875 8030.195312 4809.019531 C 8030.195312 4797.992188 8039.167969 4789.019531 8050.195312 4789.019531 C 8061.226562 4789.019531 8070.195312 4797.992188 8070.195312 4809.019531 C 8070.195312 4820.046875 8061.226562 4829.019531 8050.195312 4829.019531 "/>
<path xmlns="http://www.w3.org/2000/svg" fill-rule="nonzero" fill="rgb(100%, 100%, 100%)" fill-opacity="1" d="M 8163.175781 4829.019531 C 8152.148438 4829.019531 8143.175781 4820.046875 8143.175781 4809.019531 C 8143.175781 4797.992188 8152.148438 4789.019531 8163.175781 4789.019531 C 8174.203125 4789.019531 8183.175781 4797.992188 8183.175781 4809.019531 C 8183.175781 4820.046875 8174.203125 4829.019531 8163.175781 4829.019531 "/>
<path xmlns="http://www.w3.org/2000/svg" fill-rule="nonzero" fill="rgb(10.572815%, 9.655762%, 10.258484%)" fill-opacity="1" d="M 7157.117188 3669.769531 C 7149.675781 3669.769531 7143.617188 3675.824219 7143.617188 3683.269531 C 7143.617188 3690.710938 7149.675781 3696.769531 7157.117188 3696.769531 C 7164.5625 3696.769531 7170.617188 3690.710938 7170.617188 3683.269531 C 7170.617188 3675.824219 7164.5625 3669.769531 7157.117188 3669.769531 M 7157.117188 3674.269531 C 7162.089844 3674.269531 7166.117188 3678.296875 7166.117188 3683.269531 C 7166.117188 3688.238281 7162.089844 3692.269531 7157.117188 3692.269531 C 7152.148438 3692.269531 7148.117188 3688.238281 7148.117188 3683.269531 C 7148.117188 3678.296875 7152.148438 3674.269531 7157.117188 3674.269531 "/>
<path xmlns="http://www.w3.org/2000/svg" fill-rule="nonzero" fill="rgb(10.572815%, 9.655762%, 10.258484%)" fill-opacity="1" d="M 7343.355469 3669.769531 C 7335.914062 3669.769531 7329.855469 3675.824219 7329.855469 3683.269531 C 7329.855469 3690.710938 7335.914062 3696.769531 7343.355469 3696.769531 C 7350.800781 3696.769531 7356.855469 3690.710938 7356.855469 3683.269531 C 7356.855469 3675.824219 7350.800781 3669.769531 7343.355469 3669.769531 M 7343.355469 3674.269531 C 7348.328125 3674.269531 7352.355469 3678.296875 7352.355469 3683.269531 C 7352.355469 3688.238281 7348.328125 3692.269531 7343.355469 3692.269531 C 7338.386719 3692.269531 7334.355469 3688.238281 7334.355469 3683.269531 C 7334.355469 3678.296875 7338.386719 3674.269531 7343.355469 3674.269531 "/>
<path xmlns="http://www.w3.org/2000/svg" fill-rule="nonzero" fill="rgb(10.572815%, 9.655762%, 10.258484%)" fill-opacity="1" d="M 7222.972656 4187.269531 C 7215.527344 4187.269531 7209.472656 4193.324219 7209.472656 4200.769531 C 7209.472656 4208.210938 7215.527344 4214.269531 7222.972656 4214.269531 C 7230.417969 4214.269531 7236.472656 4208.210938 7236.472656 4200.769531 C 7236.472656 4193.324219 7230.417969 4187.269531 7222.972656 4187.269531 M 7222.972656 4191.769531 C 7227.941406 4191.769531 7231.972656 4195.796875 7231.972656 4200.769531 C 7231.972656 4205.738281 7227.941406 4209.769531 7222.972656 4209.769531 C 7218.003906 4209.769531 7213.972656 4205.738281 7213.972656 4200.769531 C 7213.972656 4195.796875 7218.003906 4191.769531 7222.972656 4191.769531 "/>
<path xmlns="http://www.w3.org/2000/svg" fill-rule="nonzero" fill="rgb(10.572815%, 9.655762%, 10.258484%)" fill-opacity="1" d="M 7328.066406 4187.269531 C 7320.625 4187.269531 7314.566406 4193.324219 7314.566406 4200.769531 C 7314.566406 4208.210938 7320.625 4214.269531 7328.066406 4214.269531 C 7335.511719 4214.269531 7341.566406 4208.210938 7341.566406 4200.769531 C 7341.566406 4193.324219 7335.511719 4187.269531 7328.066406 4187.269531 M 7328.066406 4191.769531 C 7333.039062 4191.769531 7337.066406 4195.796875 7337.066406 4200.769531 C 7337.066406 4205.738281 7333.039062 4209.769531 7328.066406 4209.769531 C 7323.097656 4209.769531 7319.066406 4205.738281 7319.066406 4200.769531 C 7319.066406 4195.796875 7323.097656 4191.769531 7328.066406 4191.769531 "/>
<path xmlns="http://www.w3.org/2000/svg" fill-rule="nonzero" fill="rgb(10.572815%, 9.655762%, 10.258484%)" fill-opacity="1" d="M 7479.265625 3876.769531 C 7471.820312 3876.769531 7465.765625 3882.824219 7465.765625 3890.269531 C 7465.765625 3897.710938 7471.820312 3903.769531 7479.265625 3903.769531 C 7486.707031 3903.769531 7492.765625 3897.710938 7492.765625 3890.269531 C 7492.765625 3882.824219 7486.707031 3876.769531 7479.265625 3876.769531 M 7479.265625 3881.269531 C 7484.234375 3881.269531 7488.265625 3885.296875 7488.265625 3890.269531 C 7488.265625 3895.238281 7484.234375 3899.269531 7479.265625 3899.269531 C 7474.292969 3899.269531 7470.265625 3895.238281 7470.265625 3890.269531 C 7470.265625 3885.296875 7474.292969 3881.269531 7479.265625 3881.269531 "/>
<path xmlns="http://www.w3.org/2000/svg" fill-rule="nonzero" fill="rgb(10.572815%, 9.655762%, 10.258484%)" fill-opacity="1" d="M 7413.09375 3975.769531 C 7405.648438 3975.769531 7399.59375 3981.824219 7399.59375 3989.269531 C 7399.59375 3996.710938 7405.648438 4002.769531 7413.09375 4002.769531 C 7420.535156 4002.769531 7426.59375 3996.710938 7426.59375 3989.269531 C 7426.59375 3981.824219 7420.535156 3975.769531 7413.09375 3975.769531 M 7413.09375 3980.269531 C 7418.0625 3980.269531 7422.09375 3984.296875 7422.09375 3989.269531 C 7422.09375 3994.238281 7418.0625 3998.269531 7413.09375 3998.269531 C 7408.121094 3998.269531 7404.09375 3994.238281 7404.09375 3989.269531 C 7404.09375 3984.296875 7408.121094 3980.269531 7413.09375 3980.269531 "/>
<path xmlns="http://www.w3.org/2000/svg" fill-rule="nonzero" fill="rgb(10.572815%, 9.655762%, 10.258484%)" fill-opacity="1" d="M 7591.0625 3876.769531 C 7583.617188 3876.769531 7577.5625 3882.824219 7577.5625 3890.269531 C 7577.5625 3897.710938 7583.617188 3903.769531 7591.0625 3903.769531 C 7598.503906 3903.769531 7604.5625 3897.710938 7604.5625 3890.269531 C 7604.5625 3882.824219 7598.503906 3876.769531 7591.0625 3876.769531 M 7591.0625 3881.269531 C 7596.03125 3881.269531 7600.0625 3885.296875 7600.0625 3890.269531 C 7600.0625 3895.238281 7596.03125 3899.269531 7591.0625 3899.269531 C 7586.089844 3899.269531 7582.0625 3895.238281 7582.0625 3890.269531 C 7582.0625 3885.296875 7586.089844 3881.269531 7591.0625 3881.269531 "/>
<path xmlns="http://www.w3.org/2000/svg" fill-rule="nonzero" fill="rgb(10.572815%, 9.655762%, 10.258484%)" fill-opacity="1" d="M 7429.371094 3352.582031 C 7421.929688 3352.582031 7415.871094 3358.636719 7415.871094 3366.082031 C 7415.871094 3373.527344 7421.929688 3379.582031 7429.371094 3379.582031 C 7436.816406 3379.582031 7442.871094 3373.527344 7442.871094 3366.082031 C 7442.871094 3358.636719 7436.816406 3352.582031 7429.371094 3352.582031 M 7429.371094 3357.082031 C 7434.34375 3357.082031 7438.371094 3361.113281 7438.371094 3366.082031 C 7438.371094 3371.050781 7434.34375 3375.082031 7429.371094 3375.082031 C 7424.402344 3375.082031 7420.371094 3371.050781 7420.371094 3366.082031 C 7420.371094 3361.113281 7424.402344 3357.082031 7429.371094 3357.082031 "/>
<path xmlns="http://www.w3.org/2000/svg" fill-rule="nonzero" fill="rgb(10.572815%, 9.655762%, 10.258484%)" fill-opacity="1" d="M 7429.371094 3519.15625 C 7421.929688 3519.15625 7415.871094 3525.214844 7415.871094 3532.65625 C 7415.871094 3540.101562 7421.929688 3546.15625 7429.371094 3546.15625 C 7436.816406 3546.15625 7442.871094 3540.101562 7442.871094 3532.65625 C 7442.871094 3525.214844 7436.816406 3519.15625 7429.371094 3519.15625 M 7429.371094 3523.65625 C 7434.34375 3523.65625 7438.371094 3527.6875 7438.371094 3532.65625 C 7438.371094 3537.625 7434.34375 3541.65625 7429.371094 3541.65625 C 7424.402344 3541.65625 7420.371094 3537.625 7420.371094 3532.65625 C 7420.371094 3527.6875 7424.402344 3523.65625 7429.371094 3523.65625 "/>
<path xmlns="http://www.w3.org/2000/svg" fill-rule="nonzero" fill="rgb(100%, 100%, 100%)" fill-opacity="1" d="M 7224.078125 4139.890625 C 7213.046875 4139.890625 7204.078125 4130.921875 7204.078125 4119.890625 C 7204.078125 4108.863281 7213.046875 4099.890625 7224.078125 4099.890625 C 7235.105469 4099.890625 7244.078125 4108.863281 7244.078125 4119.890625 C 7244.078125 4130.921875 7235.105469 4139.890625 7224.078125 4139.890625 "/>
<path xmlns="http://www.w3.org/2000/svg" fill-rule="nonzero" fill="rgb(100%, 100%, 100%)" fill-opacity="1" d="M 7476.550781 4140.078125 C 7465.519531 4140.078125 7456.550781 4131.109375 7456.550781 4120.078125 C 7456.550781 4109.050781 7465.519531 4100.078125 7476.550781 4100.078125 C 7487.578125 4100.078125 7496.550781 4109.050781 7496.550781 4120.078125 C 7496.550781 4131.109375 7487.578125 4140.078125 7476.550781 4140.078125 "/>
<path xmlns="http://www.w3.org/2000/svg" fill-rule="nonzero" fill="rgb(100%, 100%, 100%)" fill-opacity="1" d="M 7594.660156 4139.890625 C 7583.632812 4139.890625 7574.660156 4130.921875 7574.660156 4119.890625 C 7574.660156 4108.863281 7583.632812 4099.890625 7594.660156 4099.890625 C 7605.6875 4099.890625 7614.660156 4108.863281 7614.660156 4119.890625 C 7614.660156 4130.921875 7605.6875 4139.890625 7594.660156 4139.890625 "/>
<path xmlns="http://www.w3.org/2000/svg" fill-rule="nonzero" fill="rgb(100%, 100%, 100%)" fill-opacity="1" d="M 7809.964844 4139.890625 C 7798.9375 4139.890625 7789.964844 4130.921875 7789.964844 4119.890625 C 7789.964844 4108.863281 7798.9375 4099.890625 7809.964844 4099.890625 C 7820.996094 4099.890625 7829.964844 4108.863281 7829.964844 4119.890625 C 7829.964844 4130.921875 7820.996094 4139.890625 7809.964844 4139.890625 "/>
<path xmlns="http://www.w3.org/2000/svg" fill-rule="nonzero" fill="rgb(100%, 100%, 100%)" fill-opacity="1" d="M 7712.769531 4139.890625 C 7701.742188 4139.890625 7692.769531 4130.921875 7692.769531 4119.890625 C 7692.769531 4108.863281 7701.742188 4099.890625 7712.769531 4099.890625 C 7723.796875 4099.890625 7732.769531 4108.863281 7732.769531 4119.890625 C 7732.769531 4130.921875 7723.796875 4139.890625 7712.769531 4139.890625 "/>
<path xmlns="http://www.w3.org/2000/svg" fill-rule="nonzero" fill="rgb(100%, 100%, 100%)" fill-opacity="1" d="M 7907.164062 4139.890625 C 7896.136719 4139.890625 7887.164062 4130.921875 7887.164062 4119.890625 C 7887.164062 4108.863281 7896.136719 4099.890625 7907.164062 4099.890625 C 7918.191406 4099.890625 7927.164062 4108.863281 7927.164062 4119.890625 C 7927.164062 4130.921875 7918.191406 4139.890625 7907.164062 4139.890625 "/>
<path xmlns="http://www.w3.org/2000/svg" fill-rule="nonzero" fill="rgb(100%, 100%, 100%)" fill-opacity="1" d="M 8004.359375 4139.890625 C 7993.332031 4139.890625 7984.359375 4130.921875 7984.359375 4119.890625 C 7984.359375 4108.863281 7993.332031 4099.890625 8004.359375 4099.890625 C 8015.390625 4099.890625 8024.359375 4108.863281 8024.359375 4119.890625 C 8024.359375 4130.921875 8015.390625 4139.890625 8004.359375 4139.890625 "/>
<path xmlns="http://www.w3.org/2000/svg" fill-rule="nonzero" fill="rgb(100%, 100%, 100%)" fill-opacity="1" d="M 8101.558594 4139.890625 C 8090.53125 4139.890625 8081.558594 4130.921875 8081.558594 4119.890625 C 8081.558594 4108.863281 8090.53125 4099.890625 8101.558594 4099.890625 C 8112.585938 4099.890625 8121.558594 4108.863281 8121.558594 4119.890625 C 8121.558594 4130.921875 8112.585938 4139.890625 8101.558594 4139.890625 "/>
<path xmlns="http://www.w3.org/2000/svg" fill-rule="nonzero" fill="rgb(100%, 100%, 100%)" fill-opacity="1" d="M 8198.757812 4139.890625 C 8187.726562 4139.890625 8178.757812 4130.921875 8178.757812 4119.890625 C 8178.757812 4108.863281 8187.726562 4099.890625 8198.757812 4099.890625 C 8209.785156 4099.890625 8218.757812 4108.863281 8218.757812 4119.890625 C 8218.757812 4130.921875 8209.785156 4139.890625 8198.757812 4139.890625 "/>
<path xmlns="http://www.w3.org/2000/svg" fill-rule="nonzero" fill="rgb(100%, 100%, 100%)" fill-opacity="1" d="M 8295.953125 4139.890625 C 8284.925781 4139.890625 8275.953125 4130.921875 8275.953125 4119.890625 C 8275.953125 4108.863281 8284.925781 4099.890625 8295.953125 4099.890625 C 8306.980469 4099.890625 8315.953125 4108.863281 8315.953125 4119.890625 C 8315.953125 4130.921875 8306.980469 4139.890625 8295.953125 4139.890625 "/>
<path xmlns="http://www.w3.org/2000/svg" fill-rule="nonzero" fill="rgb(100%, 100%, 100%)" fill-opacity="1" d="M 7235.394531 3555.742188 C 7213.425781 3555.742188 7195.550781 3537.867188 7195.550781 3515.898438 C 7195.550781 3493.925781 7213.425781 3476.054688 7235.394531 3476.054688 C 7257.363281 3476.054688 7275.238281 3493.925781 7275.238281 3515.898438 C 7275.238281 3537.867188 7257.363281 3555.742188 7235.394531 3555.742188 "/>
<path xmlns="http://www.w3.org/2000/svg" fill-rule="nonzero" fill="rgb(100%, 100%, 100%)" fill-opacity="1" d="M 8298.910156 4332.4375 C 8276.941406 4332.4375 8259.066406 4314.566406 8259.066406 4292.597656 C 8259.066406 4270.625 8276.941406 4252.753906 8298.910156 4252.753906 C 8320.878906 4252.753906 8338.753906 4270.625 8338.753906 4292.597656 C 8338.753906 4314.566406 8320.878906 4332.4375 8298.910156 4332.4375 "/>
</svg>
