<?xml version="1.0" encoding="UTF-8"?>
<svg xmlns="http://www.w3.org/2000/svg" xmlns:xlink="http://www.w3.org/1999/xlink" viewBox="4756.785 0 2378.3925 1681.72" width="2378.3925" height="1681.72">
<path xmlns="http://www.w3.org/2000/svg" fill-rule="nonzero" fill="rgb(10.572815%, 9.655762%, 10.258484%)" fill-opacity="1" d="M 5100.199219 1550.269531 C 5092.757812 1550.269531 5086.699219 1556.324219 5086.699219 1563.769531 C 5086.699219 1571.210938 5092.757812 1577.269531 5100.199219 1577.269531 C 5107.644531 1577.269531 5113.699219 1571.210938 5113.699219 1563.769531 C 5113.699219 1556.324219 5107.644531 1550.269531 5100.199219 1550.269531 M 5100.199219 1554.769531 C 5105.171875 1554.769531 5109.199219 1558.796875 5109.199219 1563.769531 C 5109.199219 1568.738281 5105.171875 1572.769531 5100.199219 1572.769531 C 5095.230469 1572.769531 5091.199219 1568.738281 5091.199219 1563.769531 C 5091.199219 1558.796875 5095.230469 1554.769531 5100.199219 1554.769531 "/>
<path xmlns="http://www.w3.org/2000/svg" fill-rule="nonzero" fill="rgb(10.572815%, 9.655762%, 10.258484%)" fill-opacity="1" d="M 6144.199219 1407.765625 C 6136.753906 1407.765625 6130.699219 1413.824219 6130.699219 1421.265625 C 6130.699219 1428.710938 6136.753906 1434.765625 6144.199219 1434.765625 C 6151.644531 1434.765625 6157.699219 1428.710938 6157.699219 1421.265625 C 6157.699219 1413.824219 6151.644531 1407.765625 6144.199219 1407.765625 M 6144.199219 1412.265625 C 6149.171875 1412.265625 6153.199219 1416.296875 6153.199219 1421.265625 C 6153.199219 1426.238281 6149.171875 1430.265625 6144.199219 1430.265625 C 6139.230469 1430.265625 6135.199219 1426.238281 6135.199219 1421.265625 C 6135.199219 1416.296875 6139.230469 1412.265625 6144.199219 1412.265625 "/>
<path xmlns="http://www.w3.org/2000/svg" fill-rule="nonzero" fill="rgb(10.572815%, 9.655762%, 10.258484%)" fill-opacity="1" d="M 5977.027344 1478.863281 C 5969.582031 1478.863281 5963.527344 1484.921875 5963.527344 1492.363281 C 5963.527344 1499.808594 5969.582031 1505.863281 5977.027344 1505.863281 C 5984.472656 1505.863281 5990.527344 1499.808594 5990.527344 1492.363281 C 5990.527344 1484.921875 5984.472656 1478.863281 5977.027344 1478.863281 M 5977.027344 1483.363281 C 5982 1483.363281 5986.027344 1487.394531 5986.027344 1492.363281 C 5986.027344 1497.335938 5982 1501.363281 5977.027344 1501.363281 C 5972.058594 1501.363281 5968.027344 1497.335938 5968.027344 1492.363281 C 5968.027344 1487.394531 5972.058594 1483.363281 5977.027344 1483.363281 "/>
<path xmlns="http://www.w3.org/2000/svg" fill-rule="nonzero" fill="rgb(10.572815%, 9.655762%, 10.258484%)" fill-opacity="1" d="M 6306.199219 1406.269531 C 6298.757812 1406.269531 6292.699219 1412.324219 6292.699219 1419.769531 C 6292.699219 1427.210938 6298.757812 1433.269531 6306.199219 1433.269531 C 6313.644531 1433.269531 6319.699219 1427.210938 6319.699219 1419.769531 C 6319.699219 1412.324219 6313.644531 1406.269531 6306.199219 1406.269531 M 6306.199219 1410.769531 C 6311.171875 1410.769531 6315.199219 1414.796875 6315.199219 1419.769531 C 6315.199219 1424.738281 6311.171875 1428.769531 6306.199219 1428.769531 C 6301.230469 1428.769531 6297.199219 1424.738281 6297.199219 1419.769531 C 6297.199219 1414.796875 6301.230469 1410.769531 6306.199219 1410.769531 "/>
<path xmlns="http://www.w3.org/2000/svg" fill-rule="nonzero" fill="rgb(10.572815%, 9.655762%, 10.258484%)" fill-opacity="1" d="M 6144.199219 1433.601562 C 6136.753906 1433.601562 6130.699219 1439.65625 6130.699219 1447.101562 C 6130.699219 1454.542969 6136.753906 1460.601562 6144.199219 1460.601562 C 6151.644531 1460.601562 6157.699219 1454.542969 6157.699219 1447.101562 C 6157.699219 1439.65625 6151.644531 1433.601562 6144.199219 1433.601562 M 6144.199219 1438.101562 C 6149.171875 1438.101562 6153.199219 1442.128906 6153.199219 1447.101562 C 6153.199219 1452.070312 6149.171875 1456.101562 6144.199219 1456.101562 C 6139.230469 1456.101562 6135.199219 1452.070312 6135.199219 1447.101562 C 6135.199219 1442.128906 6139.230469 1438.101562 6144.199219 1438.101562 "/>
<path xmlns="http://www.w3.org/2000/svg" fill-rule="nonzero" fill="rgb(10.572815%, 9.655762%, 10.258484%)" fill-opacity="1" d="M 6306.199219 1432.101562 C 6298.757812 1432.101562 6292.699219 1438.15625 6292.699219 1445.601562 C 6292.699219 1453.046875 6298.757812 1459.101562 6306.199219 1459.101562 C 6313.644531 1459.101562 6319.699219 1453.046875 6319.699219 1445.601562 C 6319.699219 1438.15625 6313.644531 1432.101562 6306.199219 1432.101562 M 6306.199219 1436.601562 C 6311.171875 1436.601562 6315.199219 1440.632812 6315.199219 1445.601562 C 6315.199219 1450.574219 6311.171875 1454.601562 6306.199219 1454.601562 C 6301.230469 1454.601562 6297.199219 1450.574219 6297.199219 1445.601562 C 6297.199219 1440.632812 6301.230469 1436.601562 6306.199219 1436.601562 "/>
<path xmlns="http://www.w3.org/2000/svg" fill-rule="nonzero" fill="rgb(10.572815%, 9.655762%, 10.258484%)" fill-opacity="1" d="M 6438.199219 1572.769531 C 6430.753906 1572.769531 6424.699219 1578.824219 6424.699219 1586.269531 C 6424.699219 1593.710938 6430.753906 1599.769531 6438.199219 1599.769531 C 6445.640625 1599.769531 6451.699219 1593.710938 6451.699219 1586.269531 C 6451.699219 1578.824219 6445.640625 1572.769531 6438.199219 1572.769531 M 6438.199219 1577.269531 C 6443.167969 1577.269531 6447.199219 1581.296875 6447.199219 1586.269531 C 6447.199219 1591.238281 6443.167969 1595.269531 6438.199219 1595.269531 C 6433.226562 1595.269531 6429.199219 1591.238281 6429.199219 1586.269531 C 6429.199219 1581.296875 6433.226562 1577.269531 6438.199219 1577.269531 "/>
<path xmlns="http://www.w3.org/2000/svg" fill-rule="nonzero" fill="rgb(10.572815%, 9.655762%, 10.258484%)" fill-opacity="1" d="M 6415.195312 1572.769531 C 6407.753906 1572.769531 6401.695312 1578.824219 6401.695312 1586.269531 C 6401.695312 1593.710938 6407.753906 1599.769531 6415.195312 1599.769531 C 6422.640625 1599.769531 6428.695312 1593.710938 6428.695312 1586.269531 C 6428.695312 1578.824219 6422.640625 1572.769531 6415.195312 1572.769531 M 6415.195312 1577.269531 C 6420.167969 1577.269531 6424.195312 1581.296875 6424.195312 1586.269531 C 6424.195312 1591.238281 6420.167969 1595.269531 6415.195312 1595.269531 C 6410.226562 1595.269531 6406.195312 1591.238281 6406.195312 1586.269531 C 6406.195312 1581.296875 6410.226562 1577.269531 6415.195312 1577.269531 "/>
<path xmlns="http://www.w3.org/2000/svg" fill-rule="nonzero" fill="rgb(100%, 100%, 100%)" fill-opacity="1" d="M 6064.457031 1514.824219 C 6053.425781 1514.824219 6044.457031 1505.855469 6044.457031 1494.824219 C 6044.457031 1483.796875 6053.425781 1474.824219 6064.457031 1474.824219 C 6075.484375 1474.824219 6084.457031 1483.796875 6084.457031 1494.824219 C 6084.457031 1505.855469 6075.484375 1514.824219 6064.457031 1514.824219 "/>
</svg>
