<?xml version="1.0" encoding="UTF-8"?>
<svg xmlns="http://www.w3.org/2000/svg" xmlns:xlink="http://www.w3.org/1999/xlink" viewBox="7135.1775 5045.16 2378.3925 1681.72" width="2378.3925" height="1681.72">
<path xmlns="http://www.w3.org/2000/svg" fill-rule="nonzero" fill="rgb(17.26532%, 35.693359%, 53.373718%)" fill-opacity="1" d="M 8155.953125 6563.617188 L 8138.570312 6563.617188 C 8137.21875 6563.617188 8136.113281 6562.792969 8136.113281 6561.78125 L 8136.574219 6552.292969 C 8136.574219 6551.402344 8137.632812 6550.675781 8138.929688 6550.675781 L 8155.59375 6550.675781 C 8156.890625 6550.675781 8157.953125 6551.402344 8157.953125 6552.292969 L 8158.410156 6561.78125 C 8158.410156 6562.792969 8157.304688 6563.617188 8155.953125 6563.617188 M 8158.121094 6569.300781 C 8158.121094 6569.96875 8157.582031 6570.519531 8156.921875 6570.519531 L 8153.664062 6570.519531 C 8153.003906 6570.519531 8152.460938 6569.96875 8152.460938 6569.300781 L 8152.460938 6568.964844 C 8152.460938 6568.296875 8153.003906 6567.746094 8153.664062 6567.746094 L 8156.921875 6567.746094 C 8157.582031 6567.746094 8158.121094 6568.296875 8158.121094 6568.964844 Z M 8142.117188 6569.300781 C 8142.117188 6569.96875 8141.578125 6570.519531 8140.917969 6570.519531 L 8137.660156 6570.519531 C 8137 6570.519531 8136.460938 6569.96875 8136.460938 6569.300781 L 8136.460938 6568.964844 C 8136.460938 6568.296875 8137 6567.746094 8137.660156 6567.746094 L 8140.917969 6567.746094 C 8141.578125 6567.746094 8142.117188 6568.296875 8142.117188 6568.964844 Z M 8138.570312 6548.34375 C 8138.570312 6547.671875 8139.109375 6547.121094 8139.769531 6547.121094 L 8154.8125 6547.121094 C 8155.472656 6547.121094 8156.011719 6547.671875 8156.011719 6548.34375 C 8156.011719 6549.011719 8155.472656 6549.5625 8154.8125 6549.5625 L 8139.769531 6549.5625 C 8139.109375 6549.5625 8138.570312 6549.011719 8138.570312 6548.34375 M 8159.292969 6547.0625 C 8159.132812 6546.050781 8158.007812 6545.261719 8156.65625 6545.261719 L 8137.867188 6545.265625 C 8136.515625 6545.265625 8135.390625 6546.054688 8135.230469 6547.070312 L 8134.429688 6562.296875 L 8134.429688 6570.628906 C 8134.429688 6572.210938 8135.703125 6573.503906 8137.261719 6573.503906 L 8137.269531 6573.503906 L 8137.269531 6575.773438 C 8137.269531 6576.902344 8138.175781 6577.828125 8139.289062 6577.828125 C 8140.398438 6577.828125 8141.308594 6576.902344 8141.308594 6575.773438 L 8141.308594 6573.503906 L 8153.269531 6573.503906 L 8153.269531 6575.773438 C 8153.269531 6576.902344 8154.179688 6577.828125 8155.292969 6577.828125 C 8156.402344 6577.828125 8157.3125 6576.902344 8157.3125 6575.773438 L 8157.3125 6573.503906 C 8158.847656 6573.476562 8160.09375 6572.195312 8160.09375 6570.628906 L 8160.09375 6562.296875 Z M 8159.292969 6547.0625 "/>
<path xmlns="http://www.w3.org/2000/svg" fill-rule="nonzero" fill="rgb(17.26532%, 35.693359%, 53.373718%)" fill-opacity="1" d="M 8212.210938 6549.6875 C 8212.210938 6547.121094 8213.953125 6545.242188 8216.75 6545.242188 L 8231.417969 6545.242188 C 8233.207031 6545.242188 8234.625 6546.570312 8234.625 6548.269531 C 8234.625 6549.964844 8233.113281 6551.382812 8231.417969 6551.382812 L 8218.492188 6551.382812 L 8218.492188 6559.222656 L 8230.777344 6559.222656 C 8232.472656 6559.222656 8233.800781 6560.597656 8233.800781 6562.292969 C 8233.800781 6563.898438 8232.382812 6565.320312 8230.777344 6565.320312 L 8218.492188 6565.320312 L 8218.492188 6574.578125 C 8218.492188 6576.367188 8217.117188 6577.785156 8215.328125 6577.785156 C 8213.632812 6577.785156 8212.210938 6576.273438 8212.210938 6574.578125 Z M 8212.210938 6549.6875 "/>
<path xmlns="http://www.w3.org/2000/svg" fill-rule="nonzero" fill="rgb(17.26532%, 35.693359%, 53.373718%)" fill-opacity="1" d="M 8260.433594 6559.726562 C 8260.113281 6554.179688 8257.175781 6551.386719 8251.632812 6551.386719 L 8246.222656 6551.386719 L 8246.222656 6571.460938 L 8251.632812 6571.460938 C 8257.132812 6571.460938 8260.066406 6568.804688 8260.386719 6563.484375 C 8260.480469 6562.292969 8260.480469 6561.054688 8260.433594 6559.726562 M 8244.480469 6577.601562 C 8241.683594 6577.601562 8239.945312 6575.722656 8239.945312 6573.15625 L 8239.945312 6549.644531 C 8239.945312 6547.03125 8241.59375 6545.242188 8244.480469 6545.242188 L 8251.496094 6545.242188 C 8261.074219 6545.242188 8266.117188 6550.46875 8266.664062 6558.765625 C 8266.804688 6560.367188 8266.804688 6562.019531 8266.710938 6563.714844 C 8266.117188 6572.195312 8261.210938 6577.601562 8251.496094 6577.601562 Z M 8244.480469 6577.601562 "/>
<path xmlns="http://www.w3.org/2000/svg" fill-rule="nonzero" fill="rgb(17.26532%, 35.693359%, 53.373718%)" fill-opacity="1" d="M 8278.675781 6551.382812 L 8271.339844 6551.382812 C 8269.554688 6551.382812 8268.132812 6550.007812 8268.132812 6548.3125 C 8268.132812 6546.527344 8269.507812 6545.242188 8271.339844 6545.242188 L 8292.289062 6545.242188 C 8294.121094 6545.242188 8295.496094 6546.527344 8295.496094 6548.3125 C 8295.496094 6549.964844 8293.984375 6551.382812 8292.289062 6551.382812 L 8284.953125 6551.382812 L 8284.953125 6574.578125 C 8284.953125 6576.367188 8283.578125 6577.785156 8281.882812 6577.785156 C 8280.097656 6577.785156 8278.675781 6576.273438 8278.675781 6574.578125 Z M 8278.675781 6551.382812 "/>
<path xmlns="http://www.w3.org/2000/svg" fill-rule="nonzero" fill="rgb(17.26532%, 35.693359%, 53.373718%)" fill-opacity="1" d="M 8292.472656 6570.910156 C 8292.472656 6569.261719 8293.707031 6567.933594 8295.359375 6567.933594 C 8296.550781 6567.933594 8297.46875 6568.480469 8298.15625 6569.582031 C 8299.207031 6571.277344 8300.628906 6572.101562 8302.371094 6572.101562 C 8304.753906 6572.101562 8306.589844 6570.40625 8306.589844 6567.289062 L 8306.589844 6548.269531 C 8306.589844 6546.480469 8308.054688 6545.058594 8309.707031 6545.058594 C 8311.539062 6545.058594 8312.867188 6546.433594 8312.867188 6548.269531 L 8312.867188 6567.0625 C 8312.867188 6570.316406 8311.859375 6572.972656 8309.796875 6575.035156 C 8307.78125 6577.097656 8305.257812 6578.152344 8302.28125 6578.152344 C 8298.019531 6578.152344 8294.488281 6575.859375 8292.835938 6572.515625 C 8292.609375 6571.964844 8292.472656 6571.414062 8292.472656 6570.910156 "/>
<path xmlns="http://www.w3.org/2000/svg" fill-rule="nonzero" fill="rgb(17.26532%, 35.693359%, 53.373718%)" fill-opacity="1" d="M 8174.238281 6561.03125 C 8174.214844 6567.714844 8179.59375 6573.175781 8186.238281 6573.324219 C 8193.105469 6573.480469 8198.703125 6568.007812 8198.816406 6561.253906 C 8198.933594 6554.328125 8193.351562 6548.75 8186.574219 6548.746094 C 8179.730469 6548.742188 8174.238281 6554.214844 8174.238281 6561.03125 M 8187.753906 6577.601562 L 8185.257812 6577.601562 C 8185.21875 6577.515625 8185.140625 6577.554688 8185.078125 6577.550781 C 8184.546875 6577.496094 8184.015625 6577.433594 8183.492188 6577.332031 C 8179.871094 6576.632812 8176.789062 6574.945312 8174.300781 6572.21875 C 8171.539062 6569.1875 8170.105469 6565.597656 8169.957031 6561.5 L 8169.957031 6560.578125 C 8169.976562 6559.972656 8170.023438 6559.375 8170.109375 6558.777344 C 8170.648438 6554.988281 8172.265625 6551.738281 8175.039062 6549.105469 C 8178.894531 6545.449219 8183.503906 6543.964844 8188.773438 6544.625 C 8192.429688 6545.085938 8195.574219 6546.671875 8198.1875 6549.261719 C 8200.976562 6552.035156 8202.589844 6555.394531 8203.003906 6559.3125 C 8203.34375 6562.542969 8202.820312 6565.636719 8201.308594 6568.511719 C 8198.628906 6573.601562 8194.414062 6576.589844 8188.714844 6577.460938 C 8188.398438 6577.511719 8188.066406 6577.488281 8187.753906 6577.601562 "/>
<path xmlns="http://www.w3.org/2000/svg" fill-rule="nonzero" fill="rgb(17.26532%, 35.693359%, 53.373718%)" fill-opacity="1" d="M 8169.960938 6561.5 L 8169.9375 6561.5 L 8169.914062 6561.496094 L 8169.914062 6560.578125 C 8169.929688 6560.578125 8169.945312 6560.574219 8169.960938 6560.578125 Z M 8169.960938 6561.5 "/>
<path xmlns="http://www.w3.org/2000/svg" fill-rule="nonzero" fill="rgb(17.26532%, 35.693359%, 53.373718%)" fill-opacity="1" d="M 8182.425781 6565.878906 C 8182.945312 6566.339844 8183.46875 6566.742188 8184.125 6566.917969 C 8184.523438 6567.027344 8184.929688 6567.070312 8185.335938 6567.039062 C 8186.148438 6566.980469 8186.613281 6566.5 8186.734375 6565.621094 C 8186.769531 6565.351562 8186.789062 6565.082031 8186.789062 6564.808594 C 8186.785156 6560.757812 8186.789062 6556.707031 8186.78125 6552.65625 C 8186.78125 6552.421875 8186.839844 6552.363281 8187.070312 6552.367188 C 8188.175781 6552.378906 8189.277344 6552.378906 8190.382812 6552.367188 C 8190.566406 6552.367188 8190.621094 6552.40625 8190.621094 6552.601562 C 8190.617188 6556.703125 8190.621094 6560.804688 8190.617188 6564.910156 C 8190.617188 6565.714844 8190.53125 6566.515625 8190.304688 6567.296875 C 8189.867188 6568.796875 8188.878906 6569.753906 8187.371094 6570.101562 C 8185.648438 6570.503906 8183.949219 6570.417969 8182.324219 6569.648438 C 8181.832031 6569.417969 8181.378906 6569.117188 8180.949219 6568.785156 C 8180.855469 6568.714844 8180.820312 6568.660156 8180.890625 6568.539062 C 8181.402344 6567.660156 8181.90625 6566.777344 8182.425781 6565.878906 "/>
<path xmlns="http://www.w3.org/2000/svg" fill="none" stroke-width="15" stroke-linecap="butt" stroke-linejoin="miter" stroke="rgb(30.001831%, 64.794922%, 59.94873%)" stroke-opacity="1" stroke-miterlimit="10" d="M 0.0000125 0.0019 L -606.863269 0.0019 " transform="matrix(1, 0, 0, -1, 7157.2578, 5422.0644)"/>
<path xmlns="http://www.w3.org/2000/svg" fill-rule="nonzero" fill="rgb(30.001831%, 64.794922%, 59.94873%)" fill-opacity="1" d="M 7248.769531 5468.542969 L 7205.511719 5468.542969 C 7193.921875 5468.542969 7184.523438 5459.144531 7184.523438 5447.554688 C 7184.523438 5435.960938 7193.921875 5426.566406 7205.511719 5426.566406 L 7248.769531 5426.566406 C 7260.359375 5426.566406 7269.757812 5435.960938 7269.757812 5447.554688 C 7269.757812 5459.144531 7260.359375 5468.542969 7248.769531 5468.542969 "/>
<path xmlns="http://www.w3.org/2000/svg" fill-rule="nonzero" fill="rgb(30.001831%, 64.794922%, 59.94873%)" fill-opacity="1" d="M 7338.496094 5468.542969 L 7295.242188 5468.542969 C 7283.648438 5468.542969 7274.25 5459.144531 7274.25 5447.554688 C 7274.25 5435.960938 7283.648438 5426.566406 7295.242188 5426.566406 L 7338.496094 5426.566406 C 7350.089844 5426.566406 7359.484375 5435.960938 7359.484375 5447.554688 C 7359.484375 5459.144531 7350.089844 5468.542969 7338.496094 5468.542969 "/>
<path xmlns="http://www.w3.org/2000/svg" fill-rule="nonzero" fill="rgb(30.001831%, 64.794922%, 59.94873%)" fill-opacity="1" d="M 7431.191406 5468.542969 L 7387.933594 5468.542969 C 7376.34375 5468.542969 7366.945312 5459.144531 7366.945312 5447.554688 C 7366.945312 5435.960938 7376.34375 5426.566406 7387.933594 5426.566406 L 7431.191406 5426.566406 C 7442.78125 5426.566406 7452.179688 5435.960938 7452.179688 5447.554688 C 7452.179688 5459.144531 7442.78125 5468.542969 7431.191406 5468.542969 "/>
</svg>
