<?xml version="1.0" encoding="UTF-8"?>
<svg xmlns="http://www.w3.org/2000/svg" xmlns:xlink="http://www.w3.org/1999/xlink" viewBox="2378.3925 3363.44 2378.3925 1681.72" width="2378.3925" height="1681.72">
<path xmlns="http://www.w3.org/2000/svg" fill="none" stroke-width="15" stroke-linecap="butt" stroke-linejoin="miter" stroke="rgb(43.496704%, 18.121338%, 51.213074%)" stroke-opacity="1" stroke-miterlimit="10" d="M -0.00141875 0.0013 L -0.00141875 103.47005 L 0.459519 180.165362 L 0.459519 1195.235675 C 0.459519 1210.802081 13.080613 1223.423175 28.650925 1223.423175 L 126.545456 1223.423175 " transform="matrix(1, 0, 0, -1, 4235.7397, 4859.1263)"/>
<path xmlns="http://www.w3.org/2000/svg" fill="none" stroke-width="15" stroke-linecap="butt" stroke-linejoin="miter" stroke="rgb(56.92749%, 10.435486%, 16.130066%)" stroke-opacity="1" stroke-miterlimit="10" d="M 0.00195 -0.00088125 L -1118.689456 -0.00088125 L -1161.181644 -0.227444 L -1304.130863 0.147556 L -1562.958988 -0.336819 C -1589.416019 -0.3876 -1614.775394 -10.91885 -1633.482425 -29.629787 L -1839.455081 -235.598537 C -1854.458988 -250.602444 -1874.806644 -259.032131 -1896.025394 -259.032131 L -2445.794925 -259.032131 L -2526.009769 -259.082912 C -2568.228519 -259.082912 -2602.455081 -293.309475 -2602.455081 -335.528225 L -2602.455081 -882.653225 C -2602.455081 -932.836819 -2582.517581 -980.965725 -2547.033206 -1016.4501 L -2507.955081 -1055.532131 L -2371.162113 -1192.3251 C -2331.970706 -1231.5126 -2278.818363 -1253.532131 -2223.396488 -1253.532131 L -1842.099613 -1253.532131 C -1804.548831 -1253.532131 -1768.537113 -1268.446194 -1741.986331 -1295.000881 L -1661.955081 -1375.032131 L -1616.49805 -1420.485256 C -1583.197269 -1453.786037 -1583.197269 -1507.774319 -1616.49805 -1541.0751 L -1771.814456 -1696.391506 " transform="matrix(1, 0, 0, -1, 5033.1543, 2780.7374)"/>
<path xmlns="http://www.w3.org/2000/svg" fill="none" stroke-width="15" stroke-linecap="butt" stroke-linejoin="miter" stroke="rgb(30.001831%, 64.794922%, 59.94873%)" stroke-opacity="1" stroke-miterlimit="10" d="M -0.00048125 -0.00083125 L -0.00048125 -760.368019 C -0.00048125 -800.149269 15.804206 -838.301613 43.933112 -866.434425 L 239.565925 -1062.067238 C 267.698737 -1090.196144 305.851081 -1106.000831 345.632331 -1106.000831 L 743.366706 -1106.000831 C 783.151862 -1106.000831 821.304206 -1121.801613 849.433112 -1149.934425 L 1394.999519 -1695.500831 L 1573.526862 -1874.024269 L 1663.030769 -1963.532081 C 1672.440925 -1972.938331 1685.210456 -1978.207863 1698.515144 -1978.176613 L 1791.015144 -1977.938331 L 3597.511237 -1977.938331 " transform="matrix(1, 0, 0, -1, 2454.1997, 2905.7687)"/>
<path xmlns="http://www.w3.org/2000/svg" fill="none" stroke-width="15" stroke-linecap="butt" stroke-linejoin="miter" stroke="rgb(83.486938%, 13.348389%, 19.581604%)" stroke-opacity="1" stroke-miterlimit="10" d="M -0.00048125 -0.00058125 L -0.00048125 -990.906831 C -0.00048125 -1020.078706 -11.590325 -1048.059175 -32.219231 -1068.688081 L -416.598138 -1453.066987 C -426.461419 -1462.926362 -432.000481 -1476.301362 -432.000481 -1490.246675 L -432.000481 -1976.027925 C -432.000481 -1989.832612 -420.805169 -2001.027925 -407.000481 -2001.027925 L -343.836419 -2001.027925 C -329.996575 -2001.027925 -318.777825 -1989.805269 -318.777825 -1975.965425 L -318.777825 -1830.676362 C -318.777825 -1814.422456 -331.988763 -1801.2623 -348.242669 -1801.320894 L -408.801263 -1801.547456 C -421.598138 -1801.594331 -432.000481 -1791.234956 -432.000481 -1778.434175 L -432.000481 -1778.191987 " transform="matrix(1, 0, 0, -1, 3696.1997, 3038.3002)"/>
<path xmlns="http://www.w3.org/2000/svg" fill="none" stroke-width="15" stroke-linecap="butt" stroke-linejoin="miter" stroke="rgb(22.758484%, 71.983337%, 31.451416%)" stroke-opacity="1" stroke-miterlimit="10" d="M -0.00048125 0.00063125 L -0.00048125 -945.975931 " transform="matrix(1, 0, 0, -1, 4213.6997, 4105.2936)"/>
<path xmlns="http://www.w3.org/2000/svg" fill="none" stroke-width="15" stroke-linecap="butt" stroke-linejoin="miter" stroke="rgb(22.758484%, 71.983337%, 31.451416%)" stroke-opacity="1" stroke-miterlimit="10" d="M -0.00001875 0.0014375 C 21.273419 0.0014375 38.519513 -17.244656 38.519513 -38.518094 L 38.519513 -42.572781 C 38.519513 -63.846219 21.273419 -81.092312 -0.00001875 -81.092312 " transform="matrix(1, 0, 0, -1, 4500.7383, 5014.603)"/>
<path xmlns="http://www.w3.org/2000/svg" fill="none" stroke-width="15" stroke-linecap="butt" stroke-linejoin="miter" stroke="rgb(22.758484%, 71.983337%, 31.451416%)" stroke-opacity="1" stroke-miterlimit="10" d="M -0.001425 0.0014375 L 114.377481 0.0014375 " transform="matrix(1, 0, 0, -1, 4386.3608, 5014.603)"/>
<path xmlns="http://www.w3.org/2000/svg" fill="none" stroke-width="15" stroke-linecap="butt" stroke-linejoin="miter" stroke="rgb(82.23114%, 14.726257%, 60.897827%)" stroke-opacity="1" stroke-miterlimit="10" d="M -0.00048125 0.00108125 L -0.00048125 931.860456 C -0.00048125 971.645613 -15.801263 1009.797956 -43.934075 1037.926863 L -523.066888 1517.059675 C -551.195794 1545.192488 -567.000481 1583.344831 -567.000481 1623.126081 L -567.000481 2381.415144 " transform="matrix(1, 0, 0, -1, 2481.1997, 5446.7628)"/>
<path xmlns="http://www.w3.org/2000/svg" fill="none" stroke-width="15" stroke-linecap="butt" stroke-linejoin="miter" stroke="rgb(22.758484%, 71.983337%, 31.451416%)" stroke-opacity="1" stroke-miterlimit="10" d="M 0.00170625 0.0005875 L 35.634519 -35.636131 L 314.634519 -314.636131 L 450.282956 -450.280662 L 587.798581 -587.796287 C 611.861081 -611.862694 625.380613 -644.499412 625.380613 -678.534569 " transform="matrix(1, 0, 0, -1, 3588.5647, 4309.1334)"/>
<path xmlns="http://www.w3.org/2000/svg" fill="none" stroke-width="15" stroke-linecap="butt" stroke-linejoin="miter" stroke="rgb(22.758484%, 71.983337%, 31.451416%)" stroke-opacity="1" stroke-miterlimit="10" d="M 0.00170625 0.0005875 L -18.365481 18.363869 L -43.760012 43.7584 C -63.287356 63.285744 -63.287356 94.9459 -43.760012 114.469338 L 65.876706 224.106056 C 86.833738 245.063088 98.583738 273.504494 98.525144 303.145119 L 97.736081 704.719338 L 97.736081 828.219338 " transform="matrix(1, 0, 0, -1, 3620.0647, 4340.6334)"/>
<path xmlns="http://www.w3.org/2000/svg" fill="none" stroke-width="15" stroke-linecap="butt" stroke-linejoin="miter" stroke="rgb(30.001831%, 64.794922%, 59.94873%)" stroke-opacity="1" stroke-miterlimit="10" d="M -0.00048125 -0.00113125 L -29.754388 29.752775 C -51.844231 51.842619 -87.656731 51.842619 -109.746575 29.752775 L -298.004388 -158.505038 " transform="matrix(1, 0, 0, -1, 3594.9497, 4347.0184)"/>
<path xmlns="http://www.w3.org/2000/svg" fill="none" stroke-width="15" stroke-linecap="butt" stroke-linejoin="miter" stroke="rgb(30.001831%, 64.794922%, 59.94873%)" stroke-opacity="1" stroke-miterlimit="10" d="M 0.00099375 0.0011 L -73.045881 73.044069 L -79.569319 79.567506 " transform="matrix(1, 0, 0, -1, 3580.2451, 4332.3136)"/>
<path xmlns="http://www.w3.org/2000/svg" fill="none" stroke-width="15" stroke-linecap="butt" stroke-linejoin="miter" stroke="rgb(22.758484%, 71.983337%, 31.451416%)" stroke-opacity="1" stroke-miterlimit="10" d="M -0.0011875 0.00134375 L -180.520719 0.00134375 C -208.137906 0.00134375 -230.520719 22.384156 -230.520719 50.001344 L -230.520719 277.044313 C -230.520719 304.6615 -208.137906 327.044313 -180.520719 327.044313 L 50.166781 327.044313 " transform="matrix(1, 0, 0, -1, 3948.3215, 3558.1615)"/>
<path xmlns="http://www.w3.org/2000/svg" fill="none" stroke-width="15" stroke-linecap="butt" stroke-linejoin="miter" stroke="rgb(22.758484%, 71.983337%, 31.451416%)" stroke-opacity="1" stroke-miterlimit="10" d="M 0.00148125 0.00031875 L 0.00148125 -76.98015 " transform="matrix(1, 0, 0, -1, 3717.7993, 3490.1136)"/>
<path xmlns="http://www.w3.org/2000/svg" fill="none" stroke-width="15" stroke-linecap="butt" stroke-linejoin="miter" stroke="rgb(22.758484%, 71.983337%, 31.451416%)" stroke-opacity="1" stroke-miterlimit="10" d="M -0.00048125 -0.000225 L -0.00048125 -128.691631 " transform="matrix(1, 0, 0, -1, 4213.6997, 4733.5779)"/>
<path xmlns="http://www.w3.org/2000/svg" fill="none" stroke-width="15" stroke-linecap="butt" stroke-linejoin="miter" stroke="rgb(43.496704%, 18.121338%, 51.213074%)" stroke-opacity="1" stroke-miterlimit="10" d="M -0.0014875 0.001175 L -115.653831 0.001175 " transform="matrix(1, 0, 0, -1, 3435.3218, 4767.7668)"/>
<path xmlns="http://www.w3.org/2000/svg" fill="none" stroke-width="15" stroke-linecap="butt" stroke-linejoin="miter" stroke="rgb(96.514893%, 75.584412%, 12.493896%)" stroke-opacity="1" stroke-miterlimit="10" d="M 0.00071875 -0.00085 L 0.00071875 -504.051631 L 0.496813 -766.133662 C 0.606188 -823.50085 23.442125 -878.485225 64.004625 -919.047725 L 205.485094 -1060.528194 L 254.078844 -1104.957881 C 291.434313 -1139.110225 340.215563 -1158.051631 390.83275 -1158.051631 L 753.375719 -1158.051631 L 788.574938 -1158.43835 C 816.89525 -1158.746944 843.969469 -1170.133662 863.996813 -1190.161006 L 887.246813 -1213.4071 L 993.883531 -1323.043819 C 1015.528063 -1345.297725 1015.281969 -1380.809444 993.33275 -1402.762569 L 921.02025 -1475.071162 " transform="matrix(1, 0, 0, -1, 2407.6985, 2900.2179)"/>
<path xmlns="http://www.w3.org/2000/svg" fill="none" stroke-width="15" stroke-linecap="butt" stroke-linejoin="miter" stroke="rgb(22.758484%, 71.983337%, 31.451416%)" stroke-opacity="1" stroke-miterlimit="10" d="M -0.00048125 0.0010625 L -0.00048125 -88.264563 " transform="matrix(1, 0, 0, -1, 4213.6997, 4906.962)"/>
<path xmlns="http://www.w3.org/2000/svg" fill="none" stroke-width="15" stroke-linecap="butt" stroke-linejoin="miter" stroke="rgb(43.496704%, 18.121338%, 51.213074%)" stroke-opacity="1" stroke-miterlimit="10" d="M -0.001025 -0.0009875 L 286.409131 -0.0009875 " transform="matrix(1, 0, 0, -1, 4211.2354, 5039.8037)"/>
<path xmlns="http://www.w3.org/2000/svg" fill="none" stroke-width="15" stroke-linecap="butt" stroke-linejoin="miter" stroke="rgb(22.758484%, 71.983337%, 31.451416%)" stroke-opacity="1" stroke-miterlimit="10" d="M -0.0009375 -0.0001375 L -0.0009375 -130.554825 " transform="matrix(1, 0, 0, -1, 4213.665, 3898.8358)"/>
<path xmlns="http://www.w3.org/2000/svg" fill="none" stroke-width="15" stroke-linecap="butt" stroke-linejoin="miter" stroke="rgb(43.496704%, 18.121338%, 51.213074%)" stroke-opacity="1" stroke-miterlimit="10" d="M -0.00145625 -0.00106875 L -0.00145625 -47.403412 C -0.00145625 -65.344819 -14.544425 -79.891694 -32.485831 -79.891694 L -623.294425 -79.891694 C -662.075675 -79.891694 -699.263175 -64.485444 -726.68505 -37.063569 L -763.181144 -0.571381 L -926.606925 162.8544 C -945.360831 181.608306 -970.794425 192.143463 -997.317863 192.143463 L -3153.536613 192.143463 C -3165.794425 192.143463 -3177.548331 197.014556 -3186.2163 205.682525 L -3187.243644 206.705963 L -3200.899894 219.897369 L -3230.638175 219.897369 " transform="matrix(1, 0, 0, -1, 4560.3413, 4987.6669)"/>
<path xmlns="http://www.w3.org/2000/svg" fill="none" stroke-width="15" stroke-linecap="butt" stroke-linejoin="miter" stroke="rgb(22.758484%, 71.983337%, 31.451416%)" stroke-opacity="1" stroke-miterlimit="10" d="M -0.001425 0.00059375 L -33.466269 -33.468156 L -97.376425 -97.374406 C -104.915487 -104.913469 -109.130331 -115.15175 -109.091269 -125.811906 L -108.970175 -157.323625 L -108.970175 -191.323625 L -108.700644 -261.479875 C -108.618612 -283.511125 -90.731894 -301.327531 -68.700644 -301.327531 L 124.60795 -301.327531 L 170.064981 -302.022844 C 206.447794 -302.577531 241.186075 -317.280656 266.916544 -343.011125 L 295.291544 -371.386125 L 475.424356 -551.515031 C 490.416544 -566.511125 510.748575 -574.936906 531.955606 -574.948625 L 1008.623575 -575.159562 " transform="matrix(1, 0, 0, -1, 3397.7358, 4439.442)"/>
<path xmlns="http://www.w3.org/2000/svg" fill="none" stroke-width="15" stroke-linecap="butt" stroke-linejoin="miter" stroke="rgb(43.496704%, 18.121338%, 51.213074%)" stroke-opacity="1" stroke-miterlimit="10" d="M 0.00001875 -0.00173125 L 25.898456 -25.900169 C 44.652362 -44.650169 70.089862 -55.189231 96.609394 -55.189231 L 2511.265644 -55.189231 C 2537.789081 -55.189231 2563.222675 -65.724388 2581.976581 -84.478294 L 2795.433612 -297.935325 C 2814.187519 -316.689231 2839.621112 -327.224388 2866.14455 -327.224388 L 3148.722675 -327.224388 " transform="matrix(1, 0, 0, -1, 1062.5117, 4712.5803)"/>
<path xmlns="http://www.w3.org/2000/svg" fill="none" stroke-width="14.984" stroke-linecap="butt" stroke-linejoin="miter" stroke="rgb(43.496704%, 18.121338%, 51.213074%)" stroke-opacity="1" stroke-miterlimit="10" d="M 0.00001875 0.00144375 L 0.00001875 25.548319 C 0.00001875 57.50535 25.960956 83.4116 57.9883 83.4116 L 126.000019 83.4116 " transform="matrix(1, 0, 0, -1, 4560.1992, 4991.9741)"/>
<path xmlns="http://www.w3.org/2000/svg" fill="none" stroke-width="14.984" stroke-linecap="butt" stroke-linejoin="miter" stroke="rgb(43.496704%, 18.121338%, 51.213074%)" stroke-opacity="1" stroke-miterlimit="10" d="M 0.00098125 -0.0009875 L 64.653325 -0.0009875 C 91.125981 -0.0009875 112.586919 21.413075 112.586919 47.831044 " transform="matrix(1, 0, 0, -1, 4447.6123, 5039.8037)"/>
<path xmlns="http://www.w3.org/2000/svg" fill="none" stroke-width="14.984" stroke-linecap="butt" stroke-linejoin="miter" stroke="rgb(43.496704%, 18.121338%, 51.213074%)" stroke-opacity="1" stroke-miterlimit="10" d="M -0.00044375 -0.00025 L -0.00044375 13.105219 C -0.00044375 45.06225 -25.961381 70.9685 -57.988725 70.9685 L -255.687944 70.9685 C -293.094194 70.9685 -324.234819 105.034906 -324.234819 143.359125 " transform="matrix(1, 0, 0, -1, 4559.9731, 4979.531)"/>
<path xmlns="http://www.w3.org/2000/svg" fill="none" stroke-width="14.984" stroke-linecap="butt" stroke-linejoin="miter" stroke="rgb(43.496704%, 18.121338%, 51.213074%)" stroke-opacity="1" stroke-miterlimit="10" d="M 0.00001875 0.00144375 L 0.00001875 25.548319 C 0.00001875 57.50535 25.960956 83.4116 57.9883 83.4116 L 126.000019 83.4116 " transform="matrix(1, 0, 0, -1, 4560.1992, 4991.9741)"/>
<path xmlns="http://www.w3.org/2000/svg" fill="none" stroke-width="15" stroke-linecap="butt" stroke-linejoin="miter" stroke="rgb(43.496704%, 18.121338%, 51.213074%)" stroke-opacity="1" stroke-miterlimit="10" d="M -0.00145625 -0.00106875 L -0.00145625 -47.403412 " transform="matrix(1, 0, 0, -1, 4560.3413, 4987.6669)"/>
<path xmlns="http://www.w3.org/2000/svg" fill="none" stroke-width="15" stroke-linecap="butt" stroke-linejoin="miter" stroke="rgb(22.758484%, 71.983337%, 31.451416%)" stroke-opacity="1" stroke-miterlimit="10" d="M -0.0009375 0.0010625 L -0.0009375 180.559656 C -0.0009375 205.165125 19.944375 225.110437 44.55375 225.110437 L 234.588906 225.110437 C 259.194375 225.110437 279.143594 205.165125 279.143594 180.559656 L 279.143594 -66.428625 C 279.143594 -98.682531 252.995156 -124.827063 220.74125 -124.827063 L -76.786094 -124.827063 " transform="matrix(1, 0, 0, -1, 4213.665, 3832.3995)"/>
<path xmlns="http://www.w3.org/2000/svg" fill="none" stroke-width="15" stroke-linecap="butt" stroke-linejoin="miter" stroke="rgb(22.758484%, 71.983337%, 31.451416%)" stroke-opacity="1" stroke-miterlimit="10" d="M -0.00048125 -0.00154375 L -0.00048125 150.549237 C -0.00048125 188.642987 -30.883294 219.5258 -68.977044 219.5258 L -378.000481 219.5258 " transform="matrix(1, 0, 0, -1, 4213.6997, 4176.3383)"/>
<path xmlns="http://www.w3.org/2000/svg" fill="none" stroke-width="15" stroke-linecap="butt" stroke-linejoin="miter" stroke="rgb(22.758484%, 71.983337%, 31.451416%)" stroke-opacity="1" stroke-miterlimit="10" d="M -0.0014375 0.0006 L 123.197781 0.0006 " transform="matrix(1, 0, 0, -1, 4112.5405, 3956.8131)"/>
<path xmlns="http://www.w3.org/2000/svg" fill="none" stroke-width="15" stroke-linecap="butt" stroke-linejoin="miter" stroke="rgb(22.758484%, 71.983337%, 31.451416%)" stroke-opacity="1" stroke-miterlimit="10" d="M -0.0000375 -0.0001 L -0.0000375 -123.199319 " transform="matrix(1, 0, 0, -1, 4213.6641, 3983.4374)"/>
<path xmlns="http://www.w3.org/2000/svg" fill="none" stroke-width="15" stroke-linecap="butt" stroke-linejoin="miter" stroke="rgb(22.758484%, 71.983337%, 31.451416%)" stroke-opacity="1" stroke-miterlimit="10" d="M 0.00075625 -0.0001625 L 259.477319 -0.0001625 C 287.0906 -0.0001625 309.477319 -22.386881 309.477319 -50.000162 L 309.477319 -538.890787 " transform="matrix(1, 0, 0, -1, 3904.2219, 3557.9764)"/>
<path xmlns="http://www.w3.org/2000/svg" fill="none" stroke-width="15" stroke-linecap="butt" stroke-linejoin="miter" stroke="rgb(22.758484%, 71.983337%, 31.451416%)" stroke-opacity="1" stroke-miterlimit="10" d="M -0.00048125 -0.00154375 L -0.00048125 147.346112 C -0.00048125 187.209394 -32.316888 219.5258 -72.180169 219.5258 L -378.000481 219.5258 " transform="matrix(1, 0, 0, -1, 4213.6997, 4176.3383)"/>
<path xmlns="http://www.w3.org/2000/svg" fill="none" stroke-width="25" stroke-linecap="butt" stroke-linejoin="miter" stroke="rgb(79.86145%, 11.026001%, 30.502319%)" stroke-opacity="1" stroke-miterlimit="10" d="M 0.00073125 0.0017875 L 282.508544 282.5096 C 313.442137 313.443194 330.69995 355.474444 330.434325 399.220537 L 329.63745 528.958819 L 329.63745 856.298662 " transform="matrix(1, 0, 0, -1, 3305.9563, 4348.5096)"/>
<path xmlns="http://www.w3.org/2000/svg" fill="none" stroke-width="25" stroke-linecap="butt" stroke-linejoin="miter" stroke="rgb(31.402588%, 76.568604%, 94.60907%)" stroke-opacity="1" stroke-miterlimit="10" d="M -0.0012625 -0.00113125 L -0.0012625 -411.579256 L 0.104206 -540.184725 C 0.154987 -651.301913 90.248737 -741.352694 201.365925 -741.352694 L 470.119831 -741.352694 L 665.998737 -741.270663 L 859.498737 -741.270663 L 1622.362019 -744.860506 L 1642.498737 -744.860506 C 1695.873737 -744.860506 1747.065144 -766.063631 1784.807331 -803.809725 L 2113.362019 -1132.364413 C 2151.315144 -1170.313631 2202.854206 -1191.536288 2256.526081 -1191.309725 L 3037.498737 -1188.001131 L 5118.033894 -1188.016756 L 5341.526081 -1188.016756 " transform="matrix(1, 0, 0, -1, 2958.3997, 2931.7684)"/>
<path xmlns="http://www.w3.org/2000/svg" fill="none" stroke-width="25" stroke-linecap="butt" stroke-linejoin="miter" stroke="rgb(31.402588%, 76.568604%, 94.60907%)" stroke-opacity="1" stroke-miterlimit="10" d="M 0.0005375 -0.0004125 L -79.311962 -0.0004125 C -150.972119 -0.0004125 -209.061962 58.093338 -209.061962 129.753494 L -209.503369 354.804275 C -209.604931 406.6949 -230.261181 456.429275 -266.952587 493.116775 L -690.8979 917.062088 C -728.604931 954.769119 -749.80415 1005.901931 -749.843212 1059.22615 L -750.261181 1626.91365 L -750.261181 1698.015213 C -750.261181 1809.741775 -840.831494 1900.312088 -952.558056 1900.312088 L -1024.292431 1900.312088 C -1160.577587 1900.312088 -1271.05415 2010.792556 -1271.05415 2147.073806 L -1271.05415 2468.456619 C -1271.05415 2562.386306 -1347.202587 2638.534744 -1441.132275 2638.534744 L -2929.183056 2638.534744 C -3023.112744 2638.534744 -3099.261181 2562.386306 -3099.261181 2468.456619 L -3099.261181 1187.925369 " transform="matrix(1, 0, 0, -1, 6057.4604, 4119.6949)"/>
<path xmlns="http://www.w3.org/2000/svg" fill="none" stroke-width="25" stroke-linecap="butt" stroke-linejoin="miter" stroke="rgb(52.000427%, 81.07605%, 24.971008%)" stroke-opacity="1" stroke-miterlimit="10" d="M -0.00089375 -0.00113125 L 1510.956137 -0.00113125 C 1564.331137 -0.00113125 1615.522544 21.2059 1653.268637 58.948087 L 2063.385825 469.065275 C 2091.514731 497.194181 2107.319419 535.350431 2107.319419 575.131681 L 2107.319419 1073.135587 C 2107.319419 1126.514494 2128.522544 1177.7059 2166.268637 1215.448087 L 2485.27645 1534.459806 C 2523.077231 1572.260587 2544.288169 1623.545744 2544.225669 1677.002775 L 2543.819419 2029.498869 L 2543.819419 2142.744962 " transform="matrix(1, 0, 0, -1, 333.3798, 5415.7684)"/>
<path xmlns="http://www.w3.org/2000/svg" fill="none" stroke-width="25" stroke-linecap="butt" stroke-linejoin="miter" stroke="rgb(93.347168%, 14.932251%, 20.336914%)" stroke-opacity="1" stroke-miterlimit="10" d="M -0.00048125 0.0018375 L -0.00048125 355.845587 C -0.00048125 409.224494 -21.203606 460.4159 -58.9497 498.158087 L -894.582513 1333.7909 C -932.2622 1371.470587 -953.457513 1422.552619 -953.527825 1475.841681 L -954.000481 1834.208869 L -954.000481 2636.451056 C -954.000481 2747.6034 -1044.10595 2837.708869 -1155.258294 2837.708869 L -1370.609856 2837.708869 " transform="matrix(1, 0, 0, -1, 5280.1997, 4657.9784)"/>
<path xmlns="http://www.w3.org/2000/svg" fill="none" stroke-width="25" stroke-linecap="butt" stroke-linejoin="miter" stroke="rgb(79.86145%, 11.026001%, 30.502319%)" stroke-opacity="1" stroke-miterlimit="10" d="M -0.000975 -0.00181875 C 99.374025 -0.00181875 179.932619 80.556775 179.932619 179.931775 L 179.932619 1288.752088 C 179.932619 1342.127088 201.135744 1393.3224 238.877931 1431.064588 L 275.686525 1467.873181 L 315.690431 1507.873181 " transform="matrix(1, 0, 0, -1, 2990.2666, 5856.3849)"/>
<path xmlns="http://www.w3.org/2000/svg" fill="none" stroke-width="25" stroke-linecap="butt" stroke-linejoin="miter" stroke="rgb(12.625122%, 41.371155%, 23.204041%)" stroke-opacity="1" stroke-miterlimit="10" d="M 0.0005375 -0.00193125 L -3662.530712 -0.00193125 C -3754.456494 -0.00193125 -3828.979931 74.521506 -3828.979931 166.447288 L -3828.979931 753.138694 C -3828.979931 864.291038 -3919.0854 954.400413 -4030.237744 954.400413 L -4326.7104 954.400413 " transform="matrix(1, 0, 0, -1, 8163.2104, 4809.0176)"/>
<path xmlns="http://www.w3.org/2000/svg" fill="none" stroke-width="25" stroke-linecap="butt" stroke-linejoin="miter" stroke="rgb(16.210938%, 29.866028%, 64.877319%)" stroke-opacity="1" stroke-miterlimit="10" d="M 0.00101875 0.0015625 L 0.00101875 1198.247656 C 0.00101875 1309.4 -90.108356 1399.505469 -201.2607 1399.505469 L -2342.588825 1399.505469 C -2453.741169 1399.505469 -2543.846637 1489.614844 -2543.846637 1600.767187 L -2543.846637 2188.314062 C -2543.846637 2280.454687 -2618.54195 2355.146094 -2710.682575 2355.146094 L -3001.873981 2355.146094 " transform="matrix(1, 0, 0, -1, 6837.5732, 6249.025)"/>
<path xmlns="http://www.w3.org/2000/svg" fill-rule="nonzero" fill="rgb(16.629028%, 30.575562%, 64.790344%)" fill-opacity="1" d="M 3835.679688 3871.882812 C 3823.546875 3871.882812 3813.679688 3881.753906 3813.679688 3893.882812 C 3813.679688 3906.015625 3823.546875 3915.882812 3835.679688 3915.882812 C 3847.808594 3915.882812 3857.679688 3906.015625 3857.679688 3893.882812 C 3857.679688 3881.753906 3847.808594 3871.882812 3835.679688 3871.882812 M 3835.679688 3875.882812 C 3845.617188 3875.882812 3853.679688 3883.941406 3853.679688 3893.882812 C 3853.679688 3903.824219 3845.617188 3911.882812 3835.679688 3911.882812 C 3825.738281 3911.882812 3817.679688 3903.824219 3817.679688 3893.882812 C 3817.679688 3883.941406 3825.738281 3875.882812 3835.679688 3875.882812 "/>
<path xmlns="http://www.w3.org/2000/svg" fill-rule="nonzero" fill="rgb(12.625122%, 41.371155%, 23.204041%)" fill-opacity="1" d="M 3958.140625 3735.4375 C 3932.722656 3735.4375 3912.046875 3756.117188 3912.046875 3781.53125 C 3912.046875 3806.949219 3932.722656 3827.625 3958.140625 3827.625 C 3983.554688 3827.625 4004.234375 3806.949219 4004.234375 3781.53125 C 4004.234375 3756.117188 3983.554688 3735.4375 3958.140625 3735.4375 M 3958.140625 3747.9375 C 3976.691406 3747.9375 3991.734375 3762.980469 3991.734375 3781.53125 C 3991.734375 3800.085938 3976.691406 3815.125 3958.140625 3815.125 C 3939.585938 3815.125 3924.546875 3800.085938 3924.546875 3781.53125 C 3924.546875 3762.980469 3939.585938 3747.9375 3958.140625 3747.9375 "/>
<path xmlns="http://www.w3.org/2000/svg" fill-rule="nonzero" fill="rgb(16.210938%, 29.866028%, 64.877319%)" fill-opacity="1" d="M 3861.039062 3737.128906 C 3835.625 3737.128906 3814.949219 3757.804688 3814.949219 3783.222656 C 3814.949219 3808.636719 3835.625 3829.3125 3861.039062 3829.3125 C 3886.457031 3829.3125 3907.132812 3808.636719 3907.132812 3783.222656 C 3907.132812 3757.804688 3886.457031 3737.128906 3861.039062 3737.128906 M 3861.039062 3749.628906 C 3879.59375 3749.628906 3894.632812 3764.667969 3894.632812 3783.222656 C 3894.632812 3801.773438 3879.59375 3816.8125 3861.039062 3816.8125 C 3842.488281 3816.8125 3827.449219 3801.773438 3827.449219 3783.222656 C 3827.449219 3764.667969 3842.488281 3749.628906 3861.039062 3749.628906 "/>
<path xmlns="http://www.w3.org/2000/svg" fill-rule="nonzero" fill="rgb(12.625122%, 41.371155%, 23.204041%)" fill-opacity="1" d="M 3834.574219 3832.617188 C 3822.441406 3832.617188 3812.574219 3842.488281 3812.574219 3854.617188 C 3812.574219 3866.75 3822.441406 3876.617188 3834.574219 3876.617188 C 3846.703125 3876.617188 3856.574219 3866.75 3856.574219 3854.617188 C 3856.574219 3842.488281 3846.703125 3832.617188 3834.574219 3832.617188 M 3834.574219 3836.617188 C 3844.515625 3836.617188 3852.574219 3844.679688 3852.574219 3854.617188 C 3852.574219 3864.558594 3844.515625 3872.617188 3834.574219 3872.617188 C 3824.632812 3872.617188 3816.574219 3864.558594 3816.574219 3854.617188 C 3816.574219 3844.679688 3824.632812 3836.617188 3834.574219 3836.617188 "/>
<path xmlns="http://www.w3.org/2000/svg" fill-rule="nonzero" fill="rgb(16.629028%, 30.575562%, 64.790344%)" fill-opacity="1" d="M 4294.34375 4119.65625 C 4282.214844 4119.65625 4272.34375 4129.523438 4272.34375 4141.65625 C 4272.34375 4153.785156 4282.214844 4163.65625 4294.34375 4163.65625 C 4306.476562 4163.65625 4316.34375 4153.785156 4316.34375 4141.65625 C 4316.34375 4129.523438 4306.476562 4119.65625 4294.34375 4119.65625 M 4294.34375 4123.65625 C 4304.285156 4123.65625 4312.34375 4131.714844 4312.34375 4141.65625 C 4312.34375 4151.597656 4304.285156 4159.65625 4294.34375 4159.65625 C 4284.402344 4159.65625 4276.34375 4151.597656 4276.34375 4141.65625 C 4276.34375 4131.714844 4284.402344 4123.65625 4294.34375 4123.65625 "/>
<path xmlns="http://www.w3.org/2000/svg" fill-rule="nonzero" fill="rgb(12.625122%, 41.371155%, 23.204041%)" fill-opacity="1" d="M 4334.222656 4119.65625 C 4322.089844 4119.65625 4312.222656 4129.523438 4312.222656 4141.65625 C 4312.222656 4153.785156 4322.089844 4163.65625 4334.222656 4163.65625 C 4346.351562 4163.65625 4356.222656 4153.785156 4356.222656 4141.65625 C 4356.222656 4129.523438 4346.351562 4119.65625 4334.222656 4119.65625 M 4334.222656 4123.65625 C 4344.164062 4123.65625 4352.222656 4131.714844 4352.222656 4141.65625 C 4352.222656 4151.597656 4344.164062 4159.65625 4334.222656 4159.65625 C 4324.28125 4159.65625 4316.222656 4151.597656 4316.222656 4141.65625 C 4316.222656 4131.714844 4324.28125 4123.65625 4334.222656 4123.65625 "/>
<path xmlns="http://www.w3.org/2000/svg" fill-rule="nonzero" fill="rgb(16.629028%, 30.575562%, 64.790344%)" fill-opacity="1" d="M 4294.34375 4403.453125 C 4282.214844 4403.453125 4272.34375 4413.320312 4272.34375 4425.453125 C 4272.34375 4437.585938 4282.214844 4447.453125 4294.34375 4447.453125 C 4306.476562 4447.453125 4316.34375 4437.585938 4316.34375 4425.453125 C 4316.34375 4413.320312 4306.476562 4403.453125 4294.34375 4403.453125 M 4294.34375 4407.453125 C 4304.285156 4407.453125 4312.34375 4415.511719 4312.34375 4425.453125 C 4312.34375 4435.394531 4304.285156 4443.453125 4294.34375 4443.453125 C 4284.402344 4443.453125 4276.34375 4435.394531 4276.34375 4425.453125 C 4276.34375 4415.511719 4284.402344 4407.453125 4294.34375 4407.453125 "/>
<path xmlns="http://www.w3.org/2000/svg" fill-rule="nonzero" fill="rgb(12.625122%, 41.371155%, 23.204041%)" fill-opacity="1" d="M 4334.222656 4403.453125 C 4322.089844 4403.453125 4312.222656 4413.320312 4312.222656 4425.453125 C 4312.222656 4437.585938 4322.089844 4447.453125 4334.222656 4447.453125 C 4346.351562 4447.453125 4356.222656 4437.585938 4356.222656 4425.453125 C 4356.222656 4413.320312 4346.351562 4403.453125 4334.222656 4403.453125 M 4334.222656 4407.453125 C 4344.164062 4407.453125 4352.222656 4415.511719 4352.222656 4425.453125 C 4352.222656 4435.394531 4344.164062 4443.453125 4334.222656 4443.453125 C 4324.28125 4443.453125 4316.222656 4435.394531 4316.222656 4425.453125 C 4316.222656 4415.511719 4324.28125 4407.453125 4334.222656 4407.453125 "/>
<path xmlns="http://www.w3.org/2000/svg" fill-rule="nonzero" fill="rgb(16.629028%, 30.575562%, 64.790344%)" fill-opacity="1" d="M 4294.34375 4497.898438 C 4282.214844 4497.898438 4272.34375 4507.769531 4272.34375 4519.898438 C 4272.34375 4532.03125 4282.214844 4541.898438 4294.34375 4541.898438 C 4306.476562 4541.898438 4316.34375 4532.03125 4316.34375 4519.898438 C 4316.34375 4507.769531 4306.476562 4497.898438 4294.34375 4497.898438 M 4294.34375 4501.898438 C 4304.285156 4501.898438 4312.34375 4509.957031 4312.34375 4519.898438 C 4312.34375 4529.839844 4304.285156 4537.898438 4294.34375 4537.898438 C 4284.402344 4537.898438 4276.34375 4529.839844 4276.34375 4519.898438 C 4276.34375 4509.957031 4284.402344 4501.898438 4294.34375 4501.898438 "/>
<path xmlns="http://www.w3.org/2000/svg" fill-rule="nonzero" fill="rgb(12.625122%, 41.371155%, 23.204041%)" fill-opacity="1" d="M 4334.222656 4497.898438 C 4322.089844 4497.898438 4312.222656 4507.769531 4312.222656 4519.898438 C 4312.222656 4532.03125 4322.089844 4541.898438 4334.222656 4541.898438 C 4346.351562 4541.898438 4356.222656 4532.03125 4356.222656 4519.898438 C 4356.222656 4507.769531 4346.351562 4497.898438 4334.222656 4497.898438 M 4334.222656 4501.898438 C 4344.164062 4501.898438 4352.222656 4509.957031 4352.222656 4519.898438 C 4352.222656 4529.839844 4344.164062 4537.898438 4334.222656 4537.898438 C 4324.28125 4537.898438 4316.222656 4529.839844 4316.222656 4519.898438 C 4316.222656 4509.957031 4324.28125 4501.898438 4334.222656 4501.898438 "/>
<path xmlns="http://www.w3.org/2000/svg" fill-rule="nonzero" fill="rgb(16.629028%, 30.575562%, 64.790344%)" fill-opacity="1" d="M 4687.144531 4825.683594 C 4675.011719 4825.683594 4665.144531 4835.550781 4665.144531 4847.683594 C 4665.144531 4859.8125 4675.011719 4869.683594 4687.144531 4869.683594 C 4699.273438 4869.683594 4709.144531 4859.8125 4709.144531 4847.683594 C 4709.144531 4835.550781 4699.273438 4825.683594 4687.144531 4825.683594 M 4687.144531 4829.683594 C 4697.085938 4829.683594 4705.144531 4837.742188 4705.144531 4847.683594 C 4705.144531 4857.625 4697.085938 4865.683594 4687.144531 4865.683594 C 4677.203125 4865.683594 4669.144531 4857.625 4669.144531 4847.683594 C 4669.144531 4837.742188 4677.203125 4829.683594 4687.144531 4829.683594 "/>
<path xmlns="http://www.w3.org/2000/svg" fill-rule="nonzero" fill="rgb(12.625122%, 41.371155%, 23.204041%)" fill-opacity="1" d="M 4686.039062 4786.417969 C 4673.90625 4786.417969 4664.039062 4796.289062 4664.039062 4808.417969 C 4664.039062 4820.550781 4673.90625 4830.417969 4686.039062 4830.417969 C 4698.167969 4830.417969 4708.039062 4820.550781 4708.039062 4808.417969 C 4708.039062 4796.289062 4698.167969 4786.417969 4686.039062 4786.417969 M 4686.039062 4790.417969 C 4695.980469 4790.417969 4704.039062 4798.476562 4704.039062 4808.417969 C 4704.039062 4818.359375 4695.980469 4826.417969 4686.039062 4826.417969 C 4676.097656 4826.417969 4668.039062 4818.359375 4668.039062 4808.417969 C 4668.039062 4798.476562 4676.097656 4790.417969 4686.039062 4790.417969 "/>
<path xmlns="http://www.w3.org/2000/svg" fill-rule="nonzero" fill="rgb(79.86145%, 11.026001%, 30.502319%)" fill-opacity="1" d="M 3632.414062 3570.269531 C 3618.628906 3570.269531 3607.414062 3581.488281 3607.414062 3595.269531 C 3607.414062 3609.054688 3618.628906 3620.269531 3632.414062 3620.269531 C 3646.199219 3620.269531 3657.414062 3609.054688 3657.414062 3595.269531 C 3657.414062 3581.488281 3646.199219 3570.269531 3632.414062 3570.269531 M 3632.414062 3577.269531 C 3642.355469 3577.269531 3650.414062 3585.332031 3650.414062 3595.269531 C 3650.414062 3605.210938 3642.355469 3613.269531 3632.414062 3613.269531 C 3622.472656 3613.269531 3614.414062 3605.210938 3614.414062 3595.269531 C 3614.414062 3585.332031 3622.472656 3577.269531 3632.414062 3577.269531 "/>
<path xmlns="http://www.w3.org/2000/svg" fill-rule="nonzero" fill="rgb(79.86145%, 11.026001%, 30.502319%)" fill-opacity="1" d="M 3635.199219 3468.574219 C 3621.414062 3468.574219 3610.199219 3479.789062 3610.199219 3493.574219 C 3610.199219 3507.359375 3621.414062 3518.574219 3635.199219 3518.574219 C 3648.984375 3518.574219 3660.199219 3507.359375 3660.199219 3493.574219 C 3660.199219 3479.789062 3648.984375 3468.574219 3635.199219 3468.574219 M 3635.199219 3475.574219 C 3645.140625 3475.574219 3653.199219 3483.632812 3653.199219 3493.574219 C 3653.199219 3503.515625 3645.140625 3511.574219 3635.199219 3511.574219 C 3625.261719 3511.574219 3617.199219 3503.515625 3617.199219 3493.574219 C 3617.199219 3483.632812 3625.261719 3475.574219 3635.199219 3475.574219 "/>
<path xmlns="http://www.w3.org/2000/svg" fill-rule="nonzero" fill="rgb(79.86145%, 11.026001%, 30.502319%)" fill-opacity="1" d="M 3595.972656 4027.316406 C 3582.1875 4027.316406 3570.972656 4038.53125 3570.972656 4052.316406 C 3570.972656 4066.101562 3582.1875 4077.316406 3595.972656 4077.316406 C 3609.757812 4077.316406 3620.972656 4066.101562 3620.972656 4052.316406 C 3620.972656 4038.53125 3609.757812 4027.316406 3595.972656 4027.316406 M 3595.972656 4034.316406 C 3605.914062 4034.316406 3613.972656 4042.375 3613.972656 4052.316406 C 3613.972656 4062.257812 3605.914062 4070.316406 3595.972656 4070.316406 C 3586.035156 4070.316406 3577.972656 4062.257812 3577.972656 4052.316406 C 3577.972656 4042.375 3586.035156 4034.316406 3595.972656 4034.316406 "/>
<path xmlns="http://www.w3.org/2000/svg" fill-rule="nonzero" fill="rgb(79.86145%, 11.026001%, 30.502319%)" fill-opacity="1" d="M 3501.382812 4126.46875 C 3487.597656 4126.46875 3476.382812 4137.683594 3476.382812 4151.46875 C 3476.382812 4165.253906 3487.597656 4176.46875 3501.382812 4176.46875 C 3515.167969 4176.46875 3526.382812 4165.253906 3526.382812 4151.46875 C 3526.382812 4137.683594 3515.167969 4126.46875 3501.382812 4126.46875 M 3501.382812 4133.46875 C 3511.324219 4133.46875 3519.382812 4141.527344 3519.382812 4151.46875 C 3519.382812 4161.410156 3511.324219 4169.46875 3501.382812 4169.46875 C 3491.441406 4169.46875 3483.382812 4161.410156 3483.382812 4151.46875 C 3483.382812 4141.527344 3491.441406 4133.46875 3501.382812 4133.46875 "/>
<path xmlns="http://www.w3.org/2000/svg" fill-rule="nonzero" fill="rgb(79.86145%, 11.026001%, 30.502319%)" fill-opacity="1" d="M 3367.945312 4256.769531 C 3354.160156 4256.769531 3342.945312 4267.984375 3342.945312 4281.769531 C 3342.945312 4295.554688 3354.160156 4306.769531 3367.945312 4306.769531 C 3381.730469 4306.769531 3392.945312 4295.554688 3392.945312 4281.769531 C 3392.945312 4267.984375 3381.730469 4256.769531 3367.945312 4256.769531 M 3367.945312 4263.769531 C 3377.886719 4263.769531 3385.945312 4271.828125 3385.945312 4281.769531 C 3385.945312 4291.710938 3377.886719 4299.769531 3367.945312 4299.769531 C 3358.003906 4299.769531 3349.945312 4291.710938 3349.945312 4281.769531 C 3349.945312 4271.828125 3358.003906 4263.769531 3367.945312 4263.769531 "/>
<path xmlns="http://www.w3.org/2000/svg" fill-rule="nonzero" fill="rgb(79.86145%, 11.026001%, 30.502319%)" fill-opacity="1" d="M 3217.636719 4407.035156 C 3203.851562 4407.035156 3192.636719 4418.25 3192.636719 4432.035156 C 3192.636719 4445.820312 3203.851562 4457.035156 3217.636719 4457.035156 C 3231.421875 4457.035156 3242.636719 4445.820312 3242.636719 4432.035156 C 3242.636719 4418.25 3231.421875 4407.035156 3217.636719 4407.035156 M 3217.636719 4414.035156 C 3227.578125 4414.035156 3235.636719 4422.09375 3235.636719 4432.035156 C 3235.636719 4441.976562 3227.578125 4450.035156 3217.636719 4450.035156 C 3207.695312 4450.035156 3199.636719 4441.976562 3199.636719 4432.035156 C 3199.636719 4422.09375 3207.695312 4414.035156 3217.636719 4414.035156 "/>
<path xmlns="http://www.w3.org/2000/svg" fill-rule="nonzero" fill="rgb(79.86145%, 11.026001%, 30.502319%)" fill-opacity="1" d="M 3170.695312 4853.847656 C 3156.910156 4853.847656 3145.695312 4865.0625 3145.695312 4878.847656 C 3145.695312 4892.632812 3156.910156 4903.847656 3170.695312 4903.847656 C 3184.480469 4903.847656 3195.695312 4892.632812 3195.695312 4878.847656 C 3195.695312 4865.0625 3184.480469 4853.847656 3170.695312 4853.847656 M 3170.695312 4860.847656 C 3180.636719 4860.847656 3188.695312 4868.90625 3188.695312 4878.847656 C 3188.695312 4888.789062 3180.636719 4896.847656 3170.695312 4896.847656 C 3160.753906 4896.847656 3152.695312 4888.789062 3152.695312 4878.847656 C 3152.695312 4868.90625 3160.753906 4860.847656 3170.695312 4860.847656 "/>
<path xmlns="http://www.w3.org/2000/svg" fill-rule="nonzero" fill="rgb(79.86145%, 11.026001%, 30.502319%)" fill-opacity="1" d="M 3170.195312 4995.976562 C 3156.410156 4995.976562 3145.195312 5007.191406 3145.195312 5020.976562 C 3145.195312 5034.761719 3156.410156 5045.976562 3170.195312 5045.976562 C 3183.980469 5045.976562 3195.195312 5034.761719 3195.195312 5020.976562 C 3195.195312 5007.191406 3183.980469 4995.976562 3170.195312 4995.976562 M 3170.195312 5002.976562 C 3180.136719 5002.976562 3188.195312 5011.039062 3188.195312 5020.976562 C 3188.195312 5030.917969 3180.136719 5038.976562 3170.195312 5038.976562 C 3160.253906 5038.976562 3152.195312 5030.917969 3152.195312 5020.976562 C 3152.195312 5011.039062 3160.253906 5002.976562 3170.195312 5002.976562 "/>
<path xmlns="http://www.w3.org/2000/svg" fill-rule="nonzero" fill="rgb(31.829834%, 76.496887%, 94.515991%)" fill-opacity="1" d="M 3585.363281 3655.238281 C 3573.234375 3655.238281 3563.363281 3665.105469 3563.363281 3677.238281 C 3563.363281 3689.371094 3573.234375 3699.238281 3585.363281 3699.238281 C 3597.496094 3699.238281 3607.363281 3689.371094 3607.363281 3677.238281 C 3607.363281 3665.105469 3597.496094 3655.238281 3585.363281 3655.238281 M 3585.363281 3659.238281 C 3595.304688 3659.238281 3603.363281 3667.296875 3603.363281 3677.238281 C 3603.363281 3687.179688 3595.304688 3695.238281 3585.363281 3695.238281 C 3575.421875 3695.238281 3567.363281 3687.179688 3567.363281 3677.238281 C 3567.363281 3667.296875 3575.421875 3659.238281 3585.363281 3659.238281 "/>
<path xmlns="http://www.w3.org/2000/svg" fill-rule="nonzero" fill="rgb(31.829834%, 76.496887%, 94.515991%)" fill-opacity="1" d="M 3225.277344 3645.28125 C 3213.144531 3645.28125 3203.277344 3655.152344 3203.277344 3667.28125 C 3203.277344 3679.414062 3213.144531 3689.28125 3225.277344 3689.28125 C 3237.40625 3689.28125 3247.277344 3679.414062 3247.277344 3667.28125 C 3247.277344 3655.152344 3237.40625 3645.28125 3225.277344 3645.28125 M 3225.277344 3649.28125 C 3235.21875 3649.28125 3243.277344 3657.34375 3243.277344 3667.28125 C 3243.277344 3677.222656 3235.21875 3685.28125 3225.277344 3685.28125 C 3215.335938 3685.28125 3207.277344 3677.222656 3207.277344 3667.28125 C 3207.277344 3657.34375 3215.335938 3649.28125 3225.277344 3649.28125 "/>
<path xmlns="http://www.w3.org/2000/svg" fill-rule="nonzero" fill="rgb(31.829834%, 76.496887%, 94.515991%)" fill-opacity="1" d="M 3835.660156 3650.109375 C 3823.53125 3650.109375 3813.660156 3659.976562 3813.660156 3672.109375 C 3813.660156 3684.238281 3823.53125 3694.109375 3835.660156 3694.109375 C 3847.792969 3694.109375 3857.660156 3684.238281 3857.660156 3672.109375 C 3857.660156 3659.976562 3847.792969 3650.109375 3835.660156 3650.109375 M 3835.660156 3654.109375 C 3845.601562 3654.109375 3853.660156 3662.167969 3853.660156 3672.109375 C 3853.660156 3682.046875 3845.601562 3690.109375 3835.660156 3690.109375 C 3825.722656 3690.109375 3817.660156 3682.046875 3817.660156 3672.109375 C 3817.660156 3662.167969 3825.722656 3654.109375 3835.660156 3654.109375 "/>
<path xmlns="http://www.w3.org/2000/svg" fill-rule="nonzero" fill="rgb(93.370056%, 15.119934%, 21.038818%)" fill-opacity="1" d="M 4450.550781 3369.945312 C 4438.417969 3369.945312 4428.550781 3379.816406 4428.550781 3391.945312 C 4428.550781 3404.078125 4438.417969 3413.945312 4450.550781 3413.945312 C 4462.679688 3413.945312 4472.550781 3404.078125 4472.550781 3391.945312 C 4472.550781 3379.816406 4462.679688 3369.945312 4450.550781 3369.945312 M 4450.550781 3373.945312 C 4460.492188 3373.945312 4468.550781 3382.003906 4468.550781 3391.945312 C 4468.550781 3401.886719 4460.492188 3409.945312 4450.550781 3409.945312 C 4440.609375 3409.945312 4432.550781 3401.886719 4432.550781 3391.945312 C 4432.550781 3382.003906 4440.609375 3373.945312 4450.550781 3373.945312 "/>
<path xmlns="http://www.w3.org/2000/svg" fill-rule="nonzero" fill="rgb(93.370056%, 15.119934%, 21.038818%)" fill-opacity="1" d="M 4604.234375 3520.359375 C 4592.101562 3520.359375 4582.234375 3530.226562 4582.234375 3542.359375 C 4582.234375 3554.488281 4592.101562 3564.359375 4604.234375 3564.359375 C 4616.363281 3564.359375 4626.234375 3554.488281 4626.234375 3542.359375 C 4626.234375 3530.226562 4616.363281 3520.359375 4604.234375 3520.359375 M 4604.234375 3524.359375 C 4614.175781 3524.359375 4622.234375 3532.417969 4622.234375 3542.359375 C 4622.234375 3552.296875 4614.175781 3560.359375 4604.234375 3560.359375 C 4594.292969 3560.359375 4586.234375 3552.296875 4586.234375 3542.359375 C 4586.234375 3532.417969 4594.292969 3524.359375 4604.234375 3524.359375 "/>
<path xmlns="http://www.w3.org/2000/svg" fill-rule="nonzero" fill="rgb(51.600647%, 80.970764%, 25.404358%)" fill-opacity="1" d="M 2596.648438 4078.261719 C 2584.519531 4078.261719 2574.648438 4088.128906 2574.648438 4100.261719 C 2574.648438 4112.394531 2584.519531 4122.261719 2596.648438 4122.261719 C 2608.78125 4122.261719 2618.648438 4112.394531 2618.648438 4100.261719 C 2618.648438 4088.128906 2608.78125 4078.261719 2596.648438 4078.261719 M 2596.648438 4082.261719 C 2606.589844 4082.261719 2614.648438 4090.320312 2614.648438 4100.261719 C 2614.648438 4110.203125 2606.589844 4118.261719 2596.648438 4118.261719 C 2586.707031 4118.261719 2578.648438 4110.203125 2578.648438 4100.261719 C 2578.648438 4090.320312 2586.707031 4082.261719 2596.648438 4082.261719 "/>
<path xmlns="http://www.w3.org/2000/svg" fill-rule="nonzero" fill="rgb(51.600647%, 80.970764%, 25.404358%)" fill-opacity="1" d="M 2440.148438 4690.582031 C 2428.015625 4690.582031 2418.148438 4700.449219 2418.148438 4712.582031 C 2418.148438 4724.710938 2428.015625 4734.582031 2440.148438 4734.582031 C 2452.277344 4734.582031 2462.148438 4724.710938 2462.148438 4712.582031 C 2462.148438 4700.449219 2452.277344 4690.582031 2440.148438 4690.582031 M 2440.148438 4694.582031 C 2450.089844 4694.582031 2458.148438 4702.640625 2458.148438 4712.582031 C 2458.148438 4722.519531 2450.089844 4730.582031 2440.148438 4730.582031 C 2430.207031 4730.582031 2422.148438 4722.519531 2422.148438 4712.582031 C 2422.148438 4702.640625 2430.207031 4694.582031 2440.148438 4694.582031 "/>
<path xmlns="http://www.w3.org/2000/svg" fill-rule="nonzero" fill="rgb(22.758484%, 71.983337%, 31.451416%)" fill-opacity="1" d="M 3891.835938 3369.441406 L 3848.578125 3369.441406 C 3836.988281 3369.441406 3827.589844 3360.042969 3827.589844 3348.453125 C 3827.589844 3336.859375 3836.988281 3327.464844 3848.578125 3327.464844 L 3891.835938 3327.464844 C 3903.425781 3327.464844 3912.824219 3336.859375 3912.824219 3348.453125 C 3912.824219 3360.042969 3903.425781 3369.441406 3891.835938 3369.441406 "/>
<path xmlns="http://www.w3.org/2000/svg" fill-rule="nonzero" fill="rgb(22.758484%, 71.983337%, 31.451416%)" fill-opacity="1" d="M 3981.835938 3369.441406 L 3938.578125 3369.441406 C 3926.988281 3369.441406 3917.589844 3360.042969 3917.589844 3348.453125 C 3917.589844 3336.859375 3926.988281 3327.464844 3938.578125 3327.464844 L 3981.835938 3327.464844 C 3993.425781 3327.464844 4002.824219 3336.859375 4002.824219 3348.453125 C 4002.824219 3360.042969 3993.425781 3369.441406 3981.835938 3369.441406 "/>
<path xmlns="http://www.w3.org/2000/svg" fill-rule="nonzero" fill="rgb(22.758484%, 71.983337%, 31.451416%)" fill-opacity="1" d="M 3908.667969 4147.472656 L 3865.410156 4147.472656 C 3853.820312 4147.472656 3844.421875 4138.074219 3844.421875 4126.484375 C 3844.421875 4114.890625 3853.820312 4105.496094 3865.410156 4105.496094 L 3908.667969 4105.496094 C 3920.257812 4105.496094 3929.65625 4114.890625 3929.65625 4126.484375 C 3929.65625 4138.074219 3920.257812 4147.472656 3908.667969 4147.472656 "/>
<path xmlns="http://www.w3.org/2000/svg" fill-rule="nonzero" fill="rgb(43.496704%, 18.121338%, 51.213074%)" fill-opacity="1" d="M 4307.386719 3564.417969 L 4264.429688 3564.417969 C 4252.914062 3564.417969 4243.582031 3555.082031 4243.582031 3543.570312 C 4243.582031 3532.058594 4252.914062 3522.722656 4264.429688 3522.722656 L 4307.386719 3522.722656 C 4318.902344 3522.722656 4328.234375 3532.058594 4328.234375 3543.570312 C 4328.234375 3555.082031 4318.902344 3564.417969 4307.386719 3564.417969 "/>
<path xmlns="http://www.w3.org/2000/svg" fill-rule="nonzero" fill="rgb(43.496704%, 18.121338%, 51.213074%)" fill-opacity="1" d="M 4708.144531 5053.386719 L 4664.886719 5053.386719 C 4653.296875 5053.386719 4643.898438 5043.988281 4643.898438 5032.398438 C 4643.898438 5020.804688 4653.296875 5011.40625 4664.886719 5011.40625 L 4708.144531 5011.40625 C 4719.734375 5011.40625 4729.132812 5020.804688 4729.132812 5032.398438 C 4729.132812 5043.988281 4719.734375 5053.386719 4708.144531 5053.386719 "/>
<path xmlns="http://www.w3.org/2000/svg" fill-rule="nonzero" fill="rgb(30.001831%, 64.794922%, 59.94873%)" fill-opacity="1" d="M 3386.175781 4623.039062 L 3342.917969 4623.039062 C 3331.328125 4623.039062 3321.929688 4613.640625 3321.929688 4602.050781 C 3321.929688 4590.457031 3331.328125 4581.0625 3342.917969 4581.0625 L 3386.175781 4581.0625 C 3397.765625 4581.0625 3407.164062 4590.457031 3407.164062 4602.050781 C 3407.164062 4613.640625 3397.765625 4623.039062 3386.175781 4623.039062 "/>
<path xmlns="http://www.w3.org/2000/svg" fill-rule="nonzero" fill="rgb(56.92749%, 10.435486%, 16.130066%)" fill-opacity="1" d="M 3475.355469 4623.132812 L 3432.097656 4623.132812 C 3420.507812 4623.132812 3411.109375 4613.738281 3411.109375 4602.144531 C 3411.109375 4590.554688 3420.507812 4581.15625 3432.097656 4581.15625 L 3475.355469 4581.15625 C 3486.945312 4581.15625 3496.34375 4590.554688 3496.34375 4602.144531 C 3496.34375 4613.738281 3486.945312 4623.132812 3475.355469 4623.132812 "/>
<path xmlns="http://www.w3.org/2000/svg" fill-rule="nonzero" fill="rgb(96.514893%, 75.584412%, 12.493896%)" fill-opacity="1" d="M 3458.203125 4535.578125 L 3414.945312 4535.578125 C 3403.351562 4535.578125 3393.957031 4526.179688 3393.957031 4514.589844 C 3393.957031 4502.996094 3403.351562 4493.597656 3414.945312 4493.597656 L 3458.203125 4493.597656 C 3469.792969 4493.597656 3479.191406 4502.996094 3479.191406 4514.589844 C 3479.191406 4526.179688 3469.792969 4535.578125 3458.203125 4535.578125 "/>
<path xmlns="http://www.w3.org/2000/svg" fill-rule="nonzero" fill="rgb(22.758484%, 71.983337%, 31.451416%)" fill-opacity="1" d="M 3547.457031 4535.285156 L 3504.199219 4535.285156 C 3492.609375 4535.285156 3483.210938 4525.886719 3483.210938 4514.296875 C 3483.210938 4502.703125 3492.609375 4493.308594 3504.199219 4493.308594 L 3547.457031 4493.308594 C 3559.046875 4493.308594 3568.445312 4502.703125 3568.445312 4514.296875 C 3568.445312 4525.886719 3559.046875 4535.285156 3547.457031 4535.285156 "/>
<path xmlns="http://www.w3.org/2000/svg" fill-rule="nonzero" fill="rgb(43.496704%, 18.121338%, 51.213074%)" fill-opacity="1" d="M 4307.386719 3517.210938 L 4264.429688 3517.210938 C 4252.914062 3517.210938 4243.582031 3507.878906 4243.582031 3496.363281 C 4243.582031 3484.851562 4252.914062 3475.519531 4264.429688 3475.519531 L 4307.386719 3475.519531 C 4318.902344 3475.519531 4328.234375 3484.851562 4328.234375 3496.363281 C 4328.234375 3507.878906 4318.902344 3517.210938 4307.386719 3517.210938 "/>
<path xmlns="http://www.w3.org/2000/svg" fill-rule="nonzero" fill="rgb(79.86145%, 11.026001%, 30.502319%)" fill-opacity="1" d="M 3561.328125 3365.84375 C 3535.890625 3365.84375 3515.199219 3386.539062 3515.199219 3411.972656 C 3515.199219 3437.410156 3535.890625 3458.105469 3561.328125 3458.105469 C 3586.761719 3458.105469 3607.457031 3437.410156 3607.457031 3411.972656 C 3607.457031 3386.539062 3586.761719 3365.84375 3561.328125 3365.84375 M 3561.328125 3378.382812 C 3579.878906 3378.382812 3594.917969 3393.421875 3594.917969 3411.972656 C 3594.917969 3430.527344 3579.878906 3445.566406 3561.328125 3445.566406 C 3542.773438 3445.566406 3527.734375 3430.527344 3527.734375 3411.972656 C 3527.734375 3393.421875 3542.773438 3378.382812 3561.328125 3378.382812 "/>
<path xmlns="http://www.w3.org/2000/svg" fill-rule="nonzero" fill="rgb(63.301086%, 84.458923%, 21.595764%)" fill-opacity="1" d="M 2792.949219 3325.675781 C 2767.535156 3325.675781 2746.855469 3346.351562 2746.855469 3371.769531 C 2746.855469 3397.183594 2767.535156 3417.863281 2792.949219 3417.863281 C 2818.367188 3417.863281 2839.042969 3397.183594 2839.042969 3371.769531 C 2839.042969 3346.351562 2818.367188 3325.675781 2792.949219 3325.675781 M 2792.949219 3338.175781 C 2811.503906 3338.175781 2826.542969 3353.214844 2826.542969 3371.769531 C 2826.542969 3390.320312 2811.503906 3405.363281 2792.949219 3405.363281 C 2774.398438 3405.363281 2759.355469 3390.320312 2759.355469 3371.769531 C 2759.355469 3353.214844 2774.398438 3338.175781 2792.949219 3338.175781 "/>
</svg>
