<?xml version="1.0" encoding="UTF-8"?>
<svg xmlns="http://www.w3.org/2000/svg" xmlns:xlink="http://www.w3.org/1999/xlink" viewBox="2378.3925 1681.72 2378.3925 1681.72" width="2378.3925" height="1681.72">
<path xmlns="http://www.w3.org/2000/svg" fill="none" stroke-width="15" stroke-linecap="butt" stroke-linejoin="miter" stroke="rgb(96.514893%, 75.584412%, 12.493896%)" stroke-opacity="1" stroke-miterlimit="10" d="M -0.00048125 -0.0018125 L -0.00048125 214.138812 " transform="matrix(1, 0, 0, -1, 3673.6997, 3041.0685)"/>
<path xmlns="http://www.w3.org/2000/svg" fill="none" stroke-width="15" stroke-linecap="butt" stroke-linejoin="miter" stroke="rgb(96.514893%, 75.584412%, 12.493896%)" stroke-opacity="1" stroke-miterlimit="10" d="M -0.00028125 -0.0010875 L -0.00028125 36.162975 C -0.00028125 55.495006 -15.672156 71.166881 -35.000281 71.166881 L -101.695594 71.166881 " transform="matrix(1, 0, 0, -1, 3673.6995, 2826.9286)"/>
<path xmlns="http://www.w3.org/2000/svg" fill="none" stroke-width="14.908" stroke-linecap="butt" stroke-linejoin="miter" stroke="rgb(18.84613%, 31.185913%, 65.649414%)" stroke-opacity="1" stroke-miterlimit="10" d="M 0.00094375 -0.0011 L 0.00094375 24.670775 C 0.00094375 74.537963 -40.862337 114.963744 -91.272494 114.963744 L -746.342806 114.963744 C -795.9014 114.963744 -836.077181 75.21765 -836.077181 26.190306 L -836.077181 -46.899537 " transform="matrix(1, 0, 0, -1, 4581.7139, 2846.8114)"/>
<path xmlns="http://www.w3.org/2000/svg" fill="none" stroke-width="15" stroke-linecap="butt" stroke-linejoin="miter" stroke="rgb(93.244934%, 11.296082%, 40.261841%)" stroke-opacity="1" stroke-miterlimit="10" d="M -0.00095625 -0.0003875 L -104.336894 -0.0003875 C -131.961894 -0.0003875 -154.352519 22.405862 -154.336894 50.030862 L -154.301737 100.394144 L -154.301737 156.050394 C -154.301737 196.515237 -121.49705 229.319925 -81.032206 229.319925 L 44.639669 229.319925 C 84.956075 229.319925 117.639669 262.003519 117.639669 302.319925 L 117.639669 424.792581 C 117.639669 465.112894 84.956075 497.792581 44.639669 497.792581 L -782.30955 497.792581 C -843.969706 497.792581 -893.954081 447.808206 -893.954081 386.14805 L -893.954081 79.784769 C -893.954081 35.718362 -858.235331 -0.0003875 -814.172831 -0.0003875 L -71.676737 -0.0003875 " transform="matrix(1, 0, 0, -1, 4614.1533, 3206.3668)"/>
<path xmlns="http://www.w3.org/2000/svg" fill="none" stroke-width="15" stroke-linecap="butt" stroke-linejoin="miter" stroke="rgb(18.84613%, 31.185913%, 65.649414%)" stroke-opacity="1" stroke-miterlimit="10" d="M 0.00193125 -0.00183125 L 62.814431 -0.00183125 " transform="matrix(1, 0, 0, -1, 4584.2676, 3183.7677)"/>
<path xmlns="http://www.w3.org/2000/svg" fill="none" stroke-width="15" stroke-linecap="butt" stroke-linejoin="miter" stroke="rgb(96.514893%, 75.584412%, 12.493896%)" stroke-opacity="1" stroke-miterlimit="10" d="M -0.00028125 -0.0010875 L -0.00028125 36.162975 C -0.00028125 55.495006 -15.672156 71.166881 -35.000281 71.166881 L -101.695594 71.166881 L -1241.9495 72.932506 L -1318.246375 72.932506 " transform="matrix(1, 0, 0, -1, 3673.6995, 2826.9286)"/>
<path xmlns="http://www.w3.org/2000/svg" fill="none" stroke-width="15" stroke-linecap="butt" stroke-linejoin="miter" stroke="rgb(18.84613%, 31.185913%, 65.649414%)" stroke-opacity="1" stroke-miterlimit="10" d="M -0.00195 -0.00183125 L -2601.486325 -0.00183125 L -2729.279294 -1.001831 L -3579.060544 -1.001831 C -3612.451169 -1.001831 -3639.521481 26.068481 -3639.521481 59.459106 L -3639.521481 374.513794 C -3639.521481 416.213012 -3674.052731 450.744262 -3715.75195 450.744262 L -3743.572263 450.744262 " transform="matrix(1, 0, 0, -1, 7385.1582, 3182.7677)"/>
<path xmlns="http://www.w3.org/2000/svg" fill="none" stroke-width="15" stroke-linecap="butt" stroke-linejoin="miter" stroke="rgb(56.92749%, 10.435486%, 16.130066%)" stroke-opacity="1" stroke-miterlimit="10" d="M 0.00195 -0.00088125 L -1118.689456 -0.00088125 L -1161.181644 -0.227444 L -1304.130863 0.147556 L -1562.958988 -0.336819 C -1589.416019 -0.3876 -1614.775394 -10.91885 -1633.482425 -29.629787 L -1839.455081 -235.598537 C -1854.458988 -250.602444 -1874.806644 -259.032131 -1896.025394 -259.032131 L -2445.794925 -259.032131 L -2526.009769 -259.082912 C -2568.228519 -259.082912 -2602.455081 -293.309475 -2602.455081 -335.528225 L -2602.455081 -882.653225 C -2602.455081 -932.836819 -2582.517581 -980.965725 -2547.033206 -1016.4501 L -2507.955081 -1055.532131 L -2371.162113 -1192.3251 C -2331.970706 -1231.5126 -2278.818363 -1253.532131 -2223.396488 -1253.532131 L -1842.099613 -1253.532131 C -1804.548831 -1253.532131 -1768.537113 -1268.446194 -1741.986331 -1295.000881 L -1661.955081 -1375.032131 L -1616.49805 -1420.485256 C -1583.197269 -1453.786037 -1583.197269 -1507.774319 -1616.49805 -1541.0751 L -1771.814456 -1696.391506 " transform="matrix(1, 0, 0, -1, 5033.1543, 2780.7374)"/>
<path xmlns="http://www.w3.org/2000/svg" fill="none" stroke-width="15" stroke-linecap="butt" stroke-linejoin="miter" stroke="rgb(30.001831%, 64.794922%, 59.94873%)" stroke-opacity="1" stroke-miterlimit="10" d="M -0.00048125 -0.00083125 L -0.00048125 -760.368019 C -0.00048125 -800.149269 15.804206 -838.301613 43.933112 -866.434425 L 239.565925 -1062.067238 C 267.698737 -1090.196144 305.851081 -1106.000831 345.632331 -1106.000831 L 743.366706 -1106.000831 C 783.151862 -1106.000831 821.304206 -1121.801613 849.433112 -1149.934425 L 1394.999519 -1695.500831 L 1573.526862 -1874.024269 L 1663.030769 -1963.532081 C 1672.440925 -1972.938331 1685.210456 -1978.207863 1698.515144 -1978.176613 L 1791.015144 -1977.938331 L 3597.511237 -1977.938331 " transform="matrix(1, 0, 0, -1, 2454.1997, 2905.7687)"/>
<path xmlns="http://www.w3.org/2000/svg" fill="none" stroke-width="15" stroke-linecap="butt" stroke-linejoin="miter" stroke="rgb(30.001831%, 64.794922%, 59.94873%)" stroke-opacity="1" stroke-miterlimit="10" d="M -0.00048125 -0.00158125 L -0.00048125 -136.001581 " transform="matrix(1, 0, 0, -1, 2454.1997, 2817.1117)"/>
<path xmlns="http://www.w3.org/2000/svg" fill="none" stroke-width="15" stroke-linecap="butt" stroke-linejoin="miter" stroke="rgb(83.486938%, 13.348389%, 19.581604%)" stroke-opacity="1" stroke-miterlimit="10" d="M -0.00048125 -0.00058125 L -0.00048125 -990.906831 C -0.00048125 -1020.078706 -11.590325 -1048.059175 -32.219231 -1068.688081 L -416.598138 -1453.066987 C -426.461419 -1462.926362 -432.000481 -1476.301362 -432.000481 -1490.246675 L -432.000481 -1976.027925 C -432.000481 -1989.832612 -420.805169 -2001.027925 -407.000481 -2001.027925 L -343.836419 -2001.027925 C -329.996575 -2001.027925 -318.777825 -1989.805269 -318.777825 -1975.965425 L -318.777825 -1830.676362 C -318.777825 -1814.422456 -331.988763 -1801.2623 -348.242669 -1801.320894 L -408.801263 -1801.547456 C -421.598138 -1801.594331 -432.000481 -1791.234956 -432.000481 -1778.434175 L -432.000481 -1778.191987 " transform="matrix(1, 0, 0, -1, 3696.1997, 3038.3002)"/>
<path xmlns="http://www.w3.org/2000/svg" fill="none" stroke-width="15" stroke-linecap="butt" stroke-linejoin="miter" stroke="rgb(30.001831%, 64.794922%, 59.94873%)" stroke-opacity="1" stroke-miterlimit="10" d="M -0.00048125 -0.00083125 L 37.999519 -0.00083125 C 76.659675 -0.00083125 107.999519 -31.340675 107.999519 -70.000831 L 107.999519 -1298.360206 " transform="matrix(1, 0, 0, -1, 2346.1997, 1401.7687)"/>
<path xmlns="http://www.w3.org/2000/svg" fill="none" stroke-width="15" stroke-linecap="butt" stroke-linejoin="miter" stroke="rgb(82.23114%, 14.726257%, 60.897827%)" stroke-opacity="1" stroke-miterlimit="10" d="M 0 -0.00136875 L 0 -101.497462 C 0 -134.634181 26.863281 -161.497462 60 -161.497462 L 158.898438 -161.497462 L 228.671875 -161.434962 L 707.96875 -161.126369 C 734.46875 -161.110744 759.875 -150.575587 778.613281 -131.837306 L 981.9375 71.486913 C 996.945312 86.490819 1017.296875 94.920506 1038.515625 94.9166 L 1297.273438 94.889256 L 1441.222656 95.002538 L 2222.382812 95.002538 " transform="matrix(1, 0, 0, -1, 2431.75, 2900.2916)"/>
<path xmlns="http://www.w3.org/2000/svg" fill="none" stroke-width="15" stroke-linecap="butt" stroke-linejoin="miter" stroke="rgb(82.23114%, 14.726257%, 60.897827%)" stroke-opacity="1" stroke-miterlimit="10" d="M -0.00058125 0.0018 L -0.00058125 66.079925 L 0.0541063 135.622894 C 0.0697313 154.759613 7.6752 173.107269 21.20645 186.638519 L 149.491606 314.923675 C 163.038481 328.466644 181.409575 336.079925 200.565825 336.079925 L 476.495513 336.079925 C 498.952544 336.079925 517.245513 318.03305 517.5502 295.579925 L 517.5502 165.1268 " transform="matrix(1, 0, 0, -1, 1914.1998, 3112.6893)"/>
<path xmlns="http://www.w3.org/2000/svg" fill="none" stroke-width="15" stroke-linecap="butt" stroke-linejoin="miter" stroke="rgb(82.23114%, 14.726257%, 60.897827%)" stroke-opacity="1" stroke-miterlimit="10" d="M -0.00048125 0.00108125 L -0.00048125 931.860456 C -0.00048125 971.645613 -15.801263 1009.797956 -43.934075 1037.926863 L -523.066888 1517.059675 C -551.195794 1545.192488 -567.000481 1583.344831 -567.000481 1623.126081 L -567.000481 2381.415144 " transform="matrix(1, 0, 0, -1, 2481.1997, 5446.7628)"/>
<path xmlns="http://www.w3.org/2000/svg" fill="none" stroke-width="15" stroke-linecap="butt" stroke-linejoin="miter" stroke="rgb(18.84613%, 31.185913%, 65.649414%)" stroke-opacity="1" stroke-miterlimit="10" d="M -0.001575 -0.00158125 L 1676.603894 -0.00158125 L 2054.924206 -0.337519 L 2268.9203 -0.337519 " transform="matrix(1, 0, 0, -1, 1373.3922, 2731.6117)"/>
<path xmlns="http://www.w3.org/2000/svg" fill="none" stroke-width="15" stroke-linecap="butt" stroke-linejoin="miter" stroke="rgb(42.337036%, 77.964783%, 45.454407%)" stroke-opacity="1" stroke-miterlimit="10" d="M 0.000525 -0.00039375 L -343.245569 -0.00039375 C -370.862756 -0.00039375 -393.245569 22.386325 -393.245569 49.999606 L -387.878381 75.288669 L -387.878381 119.538669 C -387.878381 158.198825 -419.218225 189.538669 -457.878381 189.538669 L -1179.878381 189.538669 L -1132.476038 189.538669 C -1086.581506 189.538669 -1049.378381 152.335544 -1049.378381 106.441013 L -1049.378381 -256.937894 C -1049.378381 -307.769925 -1008.167444 -348.980862 -957.335413 -348.980862 L 1481.621619 -348.980862 C 1520.281775 -348.980862 1551.621619 -380.320706 1551.621619 -418.980862 L 1551.621619 -801.328519 " transform="matrix(1, 0, 0, -1, 3526.0776, 1568.8082)"/>
<path xmlns="http://www.w3.org/2000/svg" fill="none" stroke-width="15" stroke-linecap="butt" stroke-linejoin="miter" stroke="rgb(42.337036%, 77.964783%, 45.454407%)" stroke-opacity="1" stroke-miterlimit="10" d="M -0.0017 0.00161875 L -0.0017 90.743806 C -0.0017 134.9274 -35.818106 170.743806 -80.0017 170.743806 L -256.529044 170.743806 " transform="matrix(1, 0, 0, -1, 3743.5017, 1739.5524)"/>
<path xmlns="http://www.w3.org/2000/svg" fill="none" stroke-width="15" stroke-linecap="butt" stroke-linejoin="miter" stroke="rgb(42.337036%, 77.964783%, 45.454407%)" stroke-opacity="1" stroke-miterlimit="10" d="M 0.00050625 -0.0018625 L -59.870588 -0.0018625 C -88.468244 -0.0018625 -111.651838 23.185637 -111.651838 51.783294 L -111.651838 229.709075 " transform="matrix(1, 0, 0, -1, 3855.1909, 1917.7872)"/>
<path xmlns="http://www.w3.org/2000/svg" fill="none" stroke-width="15" stroke-linecap="butt" stroke-linejoin="miter" stroke="rgb(93.244934%, 11.296082%, 40.261841%)" stroke-opacity="1" stroke-miterlimit="10" d="M 0.00100625 -0.00113125 L -27.151338 -0.00113125 " transform="matrix(1, 0, 0, -1, 4569.6279, 3206.2684)"/>
<path xmlns="http://www.w3.org/2000/svg" fill="none" stroke-width="15" stroke-linecap="butt" stroke-linejoin="miter" stroke="rgb(22.758484%, 71.983337%, 31.451416%)" stroke-opacity="1" stroke-miterlimit="10" d="M -0.0011875 0.00134375 L -180.520719 0.00134375 C -208.137906 0.00134375 -230.520719 22.384156 -230.520719 50.001344 L -230.520719 277.044313 C -230.520719 304.6615 -208.137906 327.044313 -180.520719 327.044313 L 50.166781 327.044313 " transform="matrix(1, 0, 0, -1, 3948.3215, 3558.1615)"/>
<path xmlns="http://www.w3.org/2000/svg" fill="none" stroke-width="15" stroke-linecap="butt" stroke-linejoin="miter" stroke="rgb(30.001831%, 64.794922%, 59.94873%)" stroke-opacity="1" stroke-miterlimit="10" d="M -0.00048125 0.00039375 L -0.00048125 -116.980075 " transform="matrix(1, 0, 0, -1, 2454.1997, 2700.1293)"/>
<path xmlns="http://www.w3.org/2000/svg" fill="none" stroke-width="15" stroke-linecap="butt" stroke-linejoin="miter" stroke="rgb(83.486938%, 13.348389%, 19.581604%)" stroke-opacity="1" stroke-miterlimit="10" d="M 0.0009625 0.00158125 L 186.348619 0.00158125 C 201.157212 0.00158125 213.161119 -12.006231 213.161119 -26.814825 L 213.161119 -16.51795 " transform="matrix(1, 0, 0, -1, 3483.0381, 1868.3258)"/>
<path xmlns="http://www.w3.org/2000/svg" fill="none" stroke-width="15" stroke-linecap="butt" stroke-linejoin="miter" stroke="rgb(83.486938%, 13.348389%, 19.581604%)" stroke-opacity="1" stroke-miterlimit="10" d="M 0.00144375 -0.00181875 L -231.490744 -0.00181875 C -249.373556 -0.00181875 -263.86965 -14.494006 -263.86965 -32.376819 L -263.86965 -55.900256 L -264.678244 -105.068225 L -264.678244 -176.0526 L -265.342306 -189.45885 L -265.342306 -212.126819 C -265.342306 -232.286975 -248.998556 -248.626819 -228.842306 -248.626819 L -131.93215 -248.626819 " transform="matrix(1, 0, 0, -1, 3624.8384, 1619.6974)"/>
<path xmlns="http://www.w3.org/2000/svg" fill="none" stroke-width="15" stroke-linecap="butt" stroke-linejoin="miter" stroke="rgb(83.486938%, 13.348389%, 19.581604%)" stroke-opacity="1" stroke-miterlimit="10" d="M -0.00048125 -0.00058125 L -0.00048125 1380.983794 C -0.00048125 1401.761138 -16.840325 1418.604888 -37.617669 1418.604888 L -82.703606 1418.604888 " transform="matrix(1, 0, 0, -1, 3696.1997, 3038.3002)"/>
<path xmlns="http://www.w3.org/2000/svg" fill="none" stroke-width="15" stroke-linecap="butt" stroke-linejoin="miter" stroke="rgb(96.514893%, 75.584412%, 12.493896%)" stroke-opacity="1" stroke-miterlimit="10" d="M 0.00071875 -0.00085 L 0.00071875 -504.051631 L 0.496813 -766.133662 C 0.606188 -823.50085 23.442125 -878.485225 64.004625 -919.047725 L 205.485094 -1060.528194 L 254.078844 -1104.957881 C 291.434313 -1139.110225 340.215563 -1158.051631 390.83275 -1158.051631 L 753.375719 -1158.051631 L 788.574938 -1158.43835 C 816.89525 -1158.746944 843.969469 -1170.133662 863.996813 -1190.161006 L 887.246813 -1213.4071 L 993.883531 -1323.043819 C 1015.528063 -1345.297725 1015.281969 -1380.809444 993.33275 -1402.762569 L 921.02025 -1475.071162 " transform="matrix(1, 0, 0, -1, 2407.6985, 2900.2179)"/>
<path xmlns="http://www.w3.org/2000/svg" fill="none" stroke-width="15" stroke-linecap="butt" stroke-linejoin="miter" stroke="rgb(96.514893%, 75.584412%, 12.493896%)" stroke-opacity="1" stroke-miterlimit="10" d="M 0.00071875 0.00135625 L 0.00071875 -89.4713 " transform="matrix(1, 0, 0, -1, 2407.6985, 2858.0912)"/>
<path xmlns="http://www.w3.org/2000/svg" fill="none" stroke-width="15" stroke-linecap="butt" stroke-linejoin="miter" stroke="rgb(96.514893%, 75.584412%, 12.493896%)" stroke-opacity="1" stroke-miterlimit="10" d="M 0.00071875 -0.0006625 L 0.00071875 76.479806 C 0.00071875 104.093087 -22.386 126.479806 -49.999281 126.479806 L -1415.999281 126.479806 " transform="matrix(1, 0, 0, -1, 2407.6985, 2880.4759)"/>
<path xmlns="http://www.w3.org/2000/svg" fill="none" stroke-width="15" stroke-linecap="butt" stroke-linejoin="miter" stroke="rgb(93.244934%, 11.296082%, 40.261841%)" stroke-opacity="1" stroke-miterlimit="10" d="M -0.0014875 -0.00063125 L 67.705544 -0.00063125 " transform="matrix(1, 0, 0, -1, 4423.6968, 3206.2689)"/>
<path xmlns="http://www.w3.org/2000/svg" fill="none" stroke-width="15" stroke-linecap="butt" stroke-linejoin="miter" stroke="rgb(42.337036%, 77.964783%, 45.454407%)" stroke-opacity="1" stroke-miterlimit="10" d="M -0.0002875 0.00113125 L -85.215131 0.00113125 " transform="matrix(1, 0, 0, -1, 3802.9456, 1917.8566)"/>
<path xmlns="http://www.w3.org/2000/svg" fill="none" stroke-width="15" stroke-linecap="butt" stroke-linejoin="miter" stroke="rgb(18.84613%, 31.185913%, 65.649414%)" stroke-opacity="1" stroke-miterlimit="10" d="M 0.0017 0.00034375 L -19.814706 0.00034375 C -46.607675 0.00034375 -70.65455 -11.616844 -87.099862 -30.034813 " transform="matrix(1, 0, 0, -1, 3856.1858, 2731.848)"/>
<path xmlns="http://www.w3.org/2000/svg" fill="none" stroke-width="15" stroke-linecap="butt" stroke-linejoin="miter" stroke="rgb(18.84613%, 31.185913%, 65.649414%)" stroke-opacity="1" stroke-miterlimit="10" d="M 0.00094375 -0.0011 L 0.00094375 24.670775 C 0.00094375 74.537963 -40.862337 114.963744 -91.272494 114.963744 L -726.5264 114.963744 " transform="matrix(1, 0, 0, -1, 4581.7139, 2846.8114)"/>
<path xmlns="http://www.w3.org/2000/svg" fill="none" stroke-width="15" stroke-linecap="butt" stroke-linejoin="miter" stroke="rgb(93.244934%, 11.296082%, 40.261841%)" stroke-opacity="1" stroke-miterlimit="10" d="M 0.00045 -0.00113125 L -1716.151894 -0.00113125 " transform="matrix(1, 0, 0, -1, 6285.7808, 3206.2684)"/>
<path xmlns="http://www.w3.org/2000/svg" fill="none" stroke-width="15" stroke-linecap="butt" stroke-linejoin="miter" stroke="rgb(79.408264%, 34.082031%, 16.569519%)" stroke-opacity="1" stroke-miterlimit="10" d="M -0.00143125 -0.00106875 L 684.404819 -0.00106875 L 701.834506 -0.352631 L 1050.2056 -0.352631 C 1104.162631 -0.352631 1147.904819 -44.094819 1147.904819 -98.05185 L 1147.904819 -476.856537 L 1147.904819 -470.356537 C 1147.904819 -431.696381 1116.564975 -400.356537 1077.904819 -400.356537 L -144.563931 -400.356537 C -166.454556 -400.356537 -184.20065 -382.610444 -184.20065 -360.719819 L -184.20065 -61.258881 C -184.20065 -27.42685 -156.774869 -0.00106875 -122.946744 -0.00106875 Z M -0.00143125 -0.00106875 " transform="matrix(1, 0, 0, -1, 3952.2944, 2756.8544)"/>
<path xmlns="http://www.w3.org/2000/svg" fill="none" stroke-width="15" stroke-linecap="butt" stroke-linejoin="miter" stroke="rgb(18.84613%, 31.185913%, 65.649414%)" stroke-opacity="1" stroke-miterlimit="10" d="M 0.00094375 0.00159375 L -111.999056 0.00159375 C -139.612337 0.00159375 -161.999056 22.384406 -161.999056 50.001594 L -161.999056 337.501594 " transform="matrix(1, 0, 0, -1, 4743.7139, 3183.068)"/>
<path xmlns="http://www.w3.org/2000/svg" fill="none" stroke-width="15" stroke-linecap="butt" stroke-linejoin="miter" stroke="rgb(18.84613%, 31.185913%, 65.649414%)" stroke-opacity="1" stroke-miterlimit="10" d="M 0.00144375 -0.00084375 L -6.93215 -0.0555312 L -125.482931 -0.0555312 " transform="matrix(1, 0, 0, -1, 4662.7134, 3183.714)"/>
<path xmlns="http://www.w3.org/2000/svg" fill="none" stroke-width="15" stroke-linecap="butt" stroke-linejoin="miter" stroke="rgb(96.514893%, 75.584412%, 12.493896%)" stroke-opacity="1" stroke-miterlimit="10" d="M -0.00125 0.00040625 L -57.766875 0.00040625 " transform="matrix(1, 0, 0, -1, 2413.22, 2753.9965)"/>
<path xmlns="http://www.w3.org/2000/svg" fill="none" stroke-width="15" stroke-linecap="butt" stroke-linejoin="miter" stroke="rgb(83.486938%, 13.348389%, 19.581604%)" stroke-opacity="1" stroke-miterlimit="10" d="M 0.00071875 0.00158125 C 14.809313 0.00158125 26.813219 -12.006231 26.813219 -26.814825 " transform="matrix(1, 0, 0, -1, 3669.386, 1868.3258)"/>
<path xmlns="http://www.w3.org/2000/svg" fill="none" stroke-width="15.001" stroke-linecap="butt" stroke-linejoin="miter" stroke="rgb(96.542358%, 75.915527%, 12.031555%)" stroke-opacity="1" stroke-miterlimit="10" d="M -0.000975 -0.001825 L 122.57715 -0.001825 C 155.717775 -0.001825 182.57715 26.861456 182.57715 59.998175 L 180.573244 802.978644 C 180.573244 836.115363 153.713869 862.978644 120.573244 862.978644 L -143.7666 862.978644 C -176.903319 862.978644 -203.7666 889.841925 -203.7666 922.978644 L -203.7666 1100.935675 C -203.7666 1134.072394 -176.903319 1160.935675 -143.7666 1160.935675 L 120.377931 1160.935675 C 153.495119 1160.935675 180.350588 1134.103644 180.377931 1100.986456 L 180.573244 862.978644 L 180.573244 766.869269 " transform="matrix(1, 0, 0, -1, 3539.2666, 2755.7638)"/>
<path xmlns="http://www.w3.org/2000/svg" fill="none" stroke-width="25" stroke-linecap="butt" stroke-linejoin="miter" stroke="rgb(31.402588%, 76.568604%, 94.60907%)" stroke-opacity="1" stroke-miterlimit="10" d="M -0.0012625 -0.00113125 L -0.0012625 -411.579256 L 0.104206 -540.184725 C 0.154987 -651.301913 90.248737 -741.352694 201.365925 -741.352694 L 470.119831 -741.352694 L 665.998737 -741.270663 L 859.498737 -741.270663 L 1622.362019 -744.860506 L 1642.498737 -744.860506 C 1695.873737 -744.860506 1747.065144 -766.063631 1784.807331 -803.809725 L 2113.362019 -1132.364413 C 2151.315144 -1170.313631 2202.854206 -1191.536288 2256.526081 -1191.309725 L 3037.498737 -1188.001131 L 5118.033894 -1188.016756 L 5341.526081 -1188.016756 " transform="matrix(1, 0, 0, -1, 2958.3997, 2931.7684)"/>
<path xmlns="http://www.w3.org/2000/svg" fill="none" stroke-width="25" stroke-linecap="butt" stroke-linejoin="miter" stroke="rgb(31.402588%, 76.568604%, 94.60907%)" stroke-opacity="1" stroke-miterlimit="10" d="M 0.0005375 -0.0004125 L -79.311962 -0.0004125 C -150.972119 -0.0004125 -209.061962 58.093338 -209.061962 129.753494 L -209.503369 354.804275 C -209.604931 406.6949 -230.261181 456.429275 -266.952587 493.116775 L -690.8979 917.062088 C -728.604931 954.769119 -749.80415 1005.901931 -749.843212 1059.22615 L -750.261181 1626.91365 L -750.261181 1698.015213 C -750.261181 1809.741775 -840.831494 1900.312088 -952.558056 1900.312088 L -1024.292431 1900.312088 C -1160.577587 1900.312088 -1271.05415 2010.792556 -1271.05415 2147.073806 L -1271.05415 2468.456619 C -1271.05415 2562.386306 -1347.202587 2638.534744 -1441.132275 2638.534744 L -2929.183056 2638.534744 C -3023.112744 2638.534744 -3099.261181 2562.386306 -3099.261181 2468.456619 L -3099.261181 1187.925369 " transform="matrix(1, 0, 0, -1, 6057.4604, 4119.6949)"/>
<path xmlns="http://www.w3.org/2000/svg" fill="none" stroke-width="25" stroke-linecap="butt" stroke-linejoin="miter" stroke="rgb(52.000427%, 81.07605%, 24.971008%)" stroke-opacity="1" stroke-miterlimit="10" d="M -0.00089375 -0.00113125 L 1510.956137 -0.00113125 C 1564.331137 -0.00113125 1615.522544 21.2059 1653.268637 58.948087 L 2063.385825 469.065275 C 2091.514731 497.194181 2107.319419 535.350431 2107.319419 575.131681 L 2107.319419 1073.135587 C 2107.319419 1126.514494 2128.522544 1177.7059 2166.268637 1215.448087 L 2485.27645 1534.459806 C 2523.077231 1572.260587 2544.288169 1623.545744 2544.225669 1677.002775 L 2543.819419 2029.498869 L 2543.819419 2142.744962 " transform="matrix(1, 0, 0, -1, 333.3798, 5415.7684)"/>
<path xmlns="http://www.w3.org/2000/svg" fill="none" stroke-width="25" stroke-linecap="butt" stroke-linejoin="miter" stroke="rgb(74.504089%, 33.46405%, 16.555786%)" stroke-opacity="1" stroke-miterlimit="10" d="M -0.00058125 -0.00158125 L 1669.651763 -0.00158125 C 1704.128325 -0.00158125 1737.194731 13.697638 1761.577544 38.076544 L 2090.210356 366.709356 C 2108.964263 385.463263 2134.401763 395.998419 2160.921294 395.998419 L 2606.464263 395.998419 C 2630.784575 395.998419 2650.499419 376.283575 2650.499419 351.963263 L 2650.499419 319.498419 " transform="matrix(1, 0, 0, -1, 226.6998, 2871.1117)"/>
<path xmlns="http://www.w3.org/2000/svg" fill="none" stroke-width="25" stroke-linecap="butt" stroke-linejoin="miter" stroke="rgb(93.395996%, 19.972229%, 63.879395%)" stroke-opacity="1" stroke-miterlimit="10" d="M -0.00025625 0.00063125 L 1953.605212 0.00063125 C 2064.757556 0.00063125 2154.866931 90.1061 2154.866931 201.258444 L 2154.866931 284.469381 " transform="matrix(1, 0, 0, -1, 3909.5901, 1779.2936)"/>
<path xmlns="http://www.w3.org/2000/svg" fill="none" stroke-width="25" stroke-linecap="butt" stroke-linejoin="miter" stroke="rgb(93.347168%, 14.932251%, 20.336914%)" stroke-opacity="1" stroke-miterlimit="10" d="M -0.00048125 0.0018375 L -0.00048125 355.845587 C -0.00048125 409.224494 -21.203606 460.4159 -58.9497 498.158087 L -894.582513 1333.7909 C -932.2622 1371.470587 -953.457513 1422.552619 -953.527825 1475.841681 L -954.000481 1834.208869 L -954.000481 2636.451056 C -954.000481 2747.6034 -1044.10595 2837.708869 -1155.258294 2837.708869 L -1370.609856 2837.708869 " transform="matrix(1, 0, 0, -1, 5280.1997, 4657.9784)"/>
<path xmlns="http://www.w3.org/2000/svg" fill="none" stroke-width="5.98" stroke-linecap="butt" stroke-linejoin="miter" stroke="rgb(89.706421%, 13.204956%, 19.743347%)" stroke-opacity="1" stroke-miterlimit="10" d="M -0.00004375 0.0016 L -21.046919 -21.045275 " transform="matrix(1, 0, 0, -1, 4336.7227, 2929.3766)"/>
<path xmlns="http://www.w3.org/2000/svg" fill="none" stroke-width="5.98" stroke-linecap="butt" stroke-linejoin="miter" stroke="rgb(89.706421%, 13.204956%, 19.743347%)" stroke-opacity="1" stroke-miterlimit="10" d="M -0.00004375 0.001125 L -21.046919 21.044094 " transform="matrix(1, 0, 0, -1, 4336.7227, 2950.423)"/>
<path xmlns="http://www.w3.org/2000/svg" fill-rule="nonzero" fill="rgb(31.829834%, 76.496887%, 94.515991%)" fill-opacity="1" d="M 2958.398438 3251.449219 C 2946.265625 3251.449219 2936.398438 3261.320312 2936.398438 3273.449219 C 2936.398438 3285.582031 2946.265625 3295.449219 2958.398438 3295.449219 C 2970.527344 3295.449219 2980.398438 3285.582031 2980.398438 3273.449219 C 2980.398438 3261.320312 2970.527344 3251.449219 2958.398438 3251.449219 M 2958.398438 3255.449219 C 2968.335938 3255.449219 2976.398438 3263.511719 2976.398438 3273.449219 C 2976.398438 3283.390625 2968.335938 3291.449219 2958.398438 3291.449219 C 2948.457031 3291.449219 2940.398438 3283.390625 2940.398438 3273.449219 C 2940.398438 3263.511719 2948.457031 3255.449219 2958.398438 3255.449219 "/>
<path xmlns="http://www.w3.org/2000/svg" fill-rule="nonzero" fill="rgb(51.600647%, 80.970764%, 25.404358%)" fill-opacity="1" d="M 2877.199219 3251.449219 C 2865.070312 3251.449219 2855.199219 3261.320312 2855.199219 3273.449219 C 2855.199219 3285.582031 2865.070312 3295.449219 2877.199219 3295.449219 C 2889.332031 3295.449219 2899.199219 3285.582031 2899.199219 3273.449219 C 2899.199219 3261.320312 2889.332031 3251.449219 2877.199219 3251.449219 M 2877.199219 3255.449219 C 2887.140625 3255.449219 2895.199219 3263.511719 2895.199219 3273.449219 C 2895.199219 3283.390625 2887.140625 3291.449219 2877.199219 3291.449219 C 2867.257812 3291.449219 2859.199219 3283.390625 2859.199219 3273.449219 C 2859.199219 3263.511719 2867.257812 3255.449219 2877.199219 3255.449219 "/>
<path xmlns="http://www.w3.org/2000/svg" fill-rule="nonzero" fill="rgb(31.829834%, 76.496887%, 94.515991%)" fill-opacity="1" d="M 2958.433594 2522.921875 C 2946.300781 2522.921875 2936.433594 2532.789062 2936.433594 2544.921875 C 2936.433594 2557.050781 2946.300781 2566.921875 2958.433594 2566.921875 C 2970.5625 2566.921875 2980.433594 2557.050781 2980.433594 2544.921875 C 2980.433594 2532.789062 2970.5625 2522.921875 2958.433594 2522.921875 M 2958.433594 2526.921875 C 2968.371094 2526.921875 2976.433594 2534.980469 2976.433594 2544.921875 C 2976.433594 2554.863281 2968.371094 2562.921875 2958.433594 2562.921875 C 2948.492188 2562.921875 2940.433594 2554.863281 2940.433594 2544.921875 C 2940.433594 2534.980469 2948.492188 2526.921875 2958.433594 2526.921875 "/>
<path xmlns="http://www.w3.org/2000/svg" fill-rule="nonzero" fill="rgb(31.829834%, 76.496887%, 94.515991%)" fill-opacity="1" d="M 2958.433594 2147.867188 C 2946.300781 2147.867188 2936.433594 2157.738281 2936.433594 2169.867188 C 2936.433594 2182 2946.300781 2191.867188 2958.433594 2191.867188 C 2970.5625 2191.867188 2980.433594 2182 2980.433594 2169.867188 C 2980.433594 2157.738281 2970.5625 2147.867188 2958.433594 2147.867188 M 2958.433594 2151.867188 C 2968.371094 2151.867188 2976.433594 2159.925781 2976.433594 2169.867188 C 2976.433594 2179.808594 2968.371094 2187.867188 2958.433594 2187.867188 C 2948.492188 2187.867188 2940.433594 2179.808594 2940.433594 2169.867188 C 2940.433594 2159.925781 2948.492188 2151.867188 2958.433594 2151.867188 "/>
<path xmlns="http://www.w3.org/2000/svg" fill-rule="nonzero" fill="rgb(75.085449%, 33.602905%, 16.574097%)" fill-opacity="1" d="M 2877.199219 2522.921875 C 2865.066406 2522.921875 2855.199219 2532.789062 2855.199219 2544.921875 C 2855.199219 2557.050781 2865.066406 2566.921875 2877.199219 2566.921875 C 2889.328125 2566.921875 2899.199219 2557.050781 2899.199219 2544.921875 C 2899.199219 2532.789062 2889.328125 2522.921875 2877.199219 2522.921875 M 2877.199219 2526.921875 C 2887.140625 2526.921875 2895.199219 2534.980469 2895.199219 2544.921875 C 2895.199219 2554.863281 2887.140625 2562.921875 2877.199219 2562.921875 C 2867.257812 2562.921875 2859.199219 2554.863281 2859.199219 2544.921875 C 2859.199219 2534.980469 2867.257812 2526.921875 2877.199219 2526.921875 "/>
<path xmlns="http://www.w3.org/2000/svg" fill-rule="nonzero" fill="rgb(94.032288%, 19.900513%, 63.874817%)" fill-opacity="1" d="M 3909.589844 1757.804688 C 3897.460938 1757.804688 3887.589844 1767.671875 3887.589844 1779.804688 C 3887.589844 1791.933594 3897.460938 1801.804688 3909.589844 1801.804688 C 3921.722656 1801.804688 3931.589844 1791.933594 3931.589844 1779.804688 C 3931.589844 1767.671875 3921.722656 1757.804688 3909.589844 1757.804688 M 3909.589844 1761.804688 C 3919.53125 1761.804688 3927.589844 1769.863281 3927.589844 1779.804688 C 3927.589844 1789.746094 3919.53125 1797.804688 3909.589844 1797.804688 C 3899.648438 1797.804688 3891.589844 1789.746094 3891.589844 1779.804688 C 3891.589844 1769.863281 3899.648438 1761.804688 3909.589844 1761.804688 "/>
<path xmlns="http://www.w3.org/2000/svg" fill-rule="nonzero" fill="rgb(93.370056%, 15.119934%, 21.038818%)" fill-opacity="1" d="M 3909.589844 1800.167969 C 3897.460938 1800.167969 3887.589844 1810.035156 3887.589844 1822.167969 C 3887.589844 1834.296875 3897.460938 1844.167969 3909.589844 1844.167969 C 3921.722656 1844.167969 3931.589844 1834.296875 3931.589844 1822.167969 C 3931.589844 1810.035156 3921.722656 1800.167969 3909.589844 1800.167969 M 3909.589844 1804.167969 C 3919.53125 1804.167969 3927.589844 1812.226562 3927.589844 1822.167969 C 3927.589844 1832.109375 3919.53125 1840.167969 3909.589844 1840.167969 C 3899.648438 1840.167969 3891.589844 1832.109375 3891.589844 1822.167969 C 3891.589844 1812.226562 3899.648438 1804.167969 3909.589844 1804.167969 "/>
<path xmlns="http://www.w3.org/2000/svg" fill-rule="nonzero" fill="rgb(93.370056%, 15.119934%, 21.038818%)" fill-opacity="1" d="M 4325.710938 2009.769531 C 4313.578125 2009.769531 4303.710938 2019.640625 4303.710938 2031.769531 C 4303.710938 2043.902344 4313.578125 2053.769531 4325.710938 2053.769531 C 4337.839844 2053.769531 4347.710938 2043.902344 4347.710938 2031.769531 C 4347.710938 2019.640625 4337.839844 2009.769531 4325.710938 2009.769531 M 4325.710938 2013.769531 C 4335.652344 2013.769531 4343.710938 2021.828125 4343.710938 2031.769531 C 4343.710938 2041.710938 4335.652344 2049.769531 4325.710938 2049.769531 C 4315.769531 2049.769531 4307.710938 2041.710938 4307.710938 2031.769531 C 4307.710938 2021.828125 4315.769531 2013.769531 4325.710938 2013.769531 "/>
<path xmlns="http://www.w3.org/2000/svg" fill-rule="nonzero" fill="rgb(93.370056%, 15.119934%, 21.038818%)" fill-opacity="1" d="M 4325.710938 2193.117188 C 4313.578125 2193.117188 4303.710938 2202.984375 4303.710938 2215.117188 C 4303.710938 2227.246094 4313.578125 2237.117188 4325.710938 2237.117188 C 4337.839844 2237.117188 4347.710938 2227.246094 4347.710938 2215.117188 C 4347.710938 2202.984375 4337.839844 2193.117188 4325.710938 2193.117188 M 4325.710938 2197.117188 C 4335.652344 2197.117188 4343.710938 2205.175781 4343.710938 2215.117188 C 4343.710938 2225.058594 4335.652344 2233.117188 4325.710938 2233.117188 C 4315.769531 2233.117188 4307.710938 2225.058594 4307.710938 2215.117188 C 4307.710938 2205.175781 4315.769531 2197.117188 4325.710938 2197.117188 "/>
<path xmlns="http://www.w3.org/2000/svg" fill-rule="nonzero" fill="rgb(93.370056%, 15.119934%, 21.038818%)" fill-opacity="1" d="M 4325.710938 2389.160156 C 4313.578125 2389.160156 4303.710938 2399.03125 4303.710938 2411.160156 C 4303.710938 2423.289062 4313.578125 2433.160156 4325.710938 2433.160156 C 4337.839844 2433.160156 4347.710938 2423.289062 4347.710938 2411.160156 C 4347.710938 2399.03125 4337.839844 2389.160156 4325.710938 2389.160156 M 4325.710938 2393.160156 C 4335.652344 2393.160156 4343.710938 2401.21875 4343.710938 2411.160156 C 4343.710938 2421.101562 4335.652344 2429.160156 4325.710938 2429.160156 C 4315.769531 2429.160156 4307.710938 2421.101562 4307.710938 2411.160156 C 4307.710938 2401.21875 4315.769531 2393.160156 4325.710938 2393.160156 "/>
<path xmlns="http://www.w3.org/2000/svg" fill-rule="nonzero" fill="rgb(93.370056%, 15.119934%, 21.038818%)" fill-opacity="1" d="M 4325.710938 2622.695312 C 4313.578125 2622.695312 4303.710938 2632.5625 4303.710938 2644.695312 C 4303.710938 2656.828125 4313.578125 2666.695312 4325.710938 2666.695312 C 4337.839844 2666.695312 4347.710938 2656.828125 4347.710938 2644.695312 C 4347.710938 2632.5625 4337.839844 2622.695312 4325.710938 2622.695312 M 4325.710938 2626.695312 C 4335.652344 2626.695312 4343.710938 2634.753906 4343.710938 2644.695312 C 4343.710938 2654.636719 4335.652344 2662.695312 4325.710938 2662.695312 C 4315.769531 2662.695312 4307.710938 2654.636719 4307.710938 2644.695312 C 4307.710938 2634.753906 4315.769531 2626.695312 4325.710938 2626.695312 "/>
<path xmlns="http://www.w3.org/2000/svg" fill-rule="nonzero" fill="rgb(75.085449%, 33.602905%, 16.574097%)" fill-opacity="1" d="M 2413.53125 2453.113281 C 2401.402344 2453.113281 2391.53125 2462.980469 2391.53125 2475.113281 C 2391.53125 2487.242188 2401.402344 2497.113281 2413.53125 2497.113281 C 2425.664062 2497.113281 2435.53125 2487.242188 2435.53125 2475.113281 C 2435.53125 2462.980469 2425.664062 2453.113281 2413.53125 2453.113281 M 2413.53125 2457.113281 C 2423.472656 2457.113281 2431.53125 2465.171875 2431.53125 2475.113281 C 2431.53125 2485.054688 2423.472656 2493.113281 2413.53125 2493.113281 C 2403.589844 2493.113281 2395.53125 2485.054688 2395.53125 2475.113281 C 2395.53125 2465.171875 2403.589844 2457.113281 2413.53125 2457.113281 "/>
<path xmlns="http://www.w3.org/2000/svg" fill-rule="nonzero" fill="rgb(30.001831%, 64.794922%, 59.94873%)" fill-opacity="1" d="M 2696.351562 2925.683594 L 2653.097656 2925.683594 C 2641.503906 2925.683594 2632.109375 2916.285156 2632.109375 2904.695312 C 2632.109375 2893.101562 2641.503906 2883.707031 2653.097656 2883.707031 L 2696.351562 2883.707031 C 2707.945312 2883.707031 2717.34375 2893.101562 2717.34375 2904.695312 C 2717.34375 2916.285156 2707.945312 2925.683594 2696.351562 2925.683594 "/>
<path xmlns="http://www.w3.org/2000/svg" fill-rule="nonzero" fill="rgb(22.758484%, 71.983337%, 31.451416%)" fill-opacity="1" d="M 3891.835938 3369.441406 L 3848.578125 3369.441406 C 3836.988281 3369.441406 3827.589844 3360.042969 3827.589844 3348.453125 C 3827.589844 3336.859375 3836.988281 3327.464844 3848.578125 3327.464844 L 3891.835938 3327.464844 C 3903.425781 3327.464844 3912.824219 3336.859375 3912.824219 3348.453125 C 3912.824219 3360.042969 3903.425781 3369.441406 3891.835938 3369.441406 "/>
<path xmlns="http://www.w3.org/2000/svg" fill-rule="nonzero" fill="rgb(22.758484%, 71.983337%, 31.451416%)" fill-opacity="1" d="M 3981.835938 3369.441406 L 3938.578125 3369.441406 C 3926.988281 3369.441406 3917.589844 3360.042969 3917.589844 3348.453125 C 3917.589844 3336.859375 3926.988281 3327.464844 3938.578125 3327.464844 L 3981.835938 3327.464844 C 3993.425781 3327.464844 4002.824219 3336.859375 4002.824219 3348.453125 C 4002.824219 3360.042969 3993.425781 3369.441406 3981.835938 3369.441406 "/>
<path xmlns="http://www.w3.org/2000/svg" fill-rule="nonzero" fill="rgb(82.23114%, 14.726257%, 60.897827%)" fill-opacity="1" d="M 4677.292969 2589.089844 L 4631.402344 2589.089844 C 4620.660156 2589.089844 4611.949219 2580.382812 4611.949219 2569.636719 L 4611.949219 2566.246094 C 4611.949219 2555.5 4620.660156 2546.792969 4631.402344 2546.792969 L 4677.292969 2546.792969 C 4688.039062 2546.792969 4696.746094 2555.5 4696.746094 2566.246094 L 4696.746094 2569.636719 C 4696.746094 2580.382812 4688.039062 2589.089844 4677.292969 2589.089844 "/>
<path xmlns="http://www.w3.org/2000/svg" fill-rule="nonzero" fill="rgb(96.514893%, 75.584412%, 12.493896%)" fill-opacity="1" d="M 3578.703125 3185.933594 L 3535.449219 3185.933594 C 3523.855469 3185.933594 3514.460938 3176.535156 3514.460938 3164.945312 C 3514.460938 3153.351562 3523.855469 3143.953125 3535.449219 3143.953125 L 3578.703125 3143.953125 C 3590.296875 3143.953125 3599.695312 3153.351562 3599.695312 3164.945312 C 3599.695312 3176.535156 3590.296875 3185.933594 3578.703125 3185.933594 "/>
<path xmlns="http://www.w3.org/2000/svg" fill-rule="nonzero" fill="rgb(79.408264%, 34.082031%, 16.569519%)" fill-opacity="1" d="M 4260.070312 2540.988281 L 4216.816406 2540.988281 C 4205.222656 2540.988281 4195.824219 2531.589844 4195.824219 2519.996094 C 4195.824219 2508.40625 4205.222656 2499.007812 4216.816406 2499.007812 L 4260.070312 2499.007812 C 4271.664062 2499.007812 4281.058594 2508.40625 4281.058594 2519.996094 C 4281.058594 2531.589844 4271.664062 2540.988281 4260.070312 2540.988281 "/>
<path xmlns="http://www.w3.org/2000/svg" fill-rule="nonzero" fill="rgb(93.244934%, 11.296082%, 40.261841%)" fill-opacity="1" d="M 4260.070312 2587.171875 L 4216.816406 2587.171875 C 4205.222656 2587.171875 4195.824219 2577.773438 4195.824219 2566.179688 C 4195.824219 2554.589844 4205.222656 2545.191406 4216.816406 2545.191406 L 4260.070312 2545.191406 C 4271.664062 2545.191406 4281.058594 2554.589844 4281.058594 2566.179688 C 4281.058594 2577.773438 4271.664062 2587.171875 4260.070312 2587.171875 "/>
<path xmlns="http://www.w3.org/2000/svg" fill-rule="nonzero" fill="rgb(18.84613%, 31.185913%, 65.649414%)" fill-opacity="1" d="M 3481.898438 3185.832031 L 3438.644531 3185.832031 C 3427.050781 3185.832031 3417.65625 3176.4375 3417.65625 3164.84375 C 3417.65625 3153.25 3427.050781 3143.855469 3438.644531 3143.855469 L 3481.898438 3143.855469 C 3493.492188 3143.855469 3502.886719 3153.25 3502.886719 3164.84375 C 3502.886719 3176.4375 3493.492188 3185.832031 3481.898438 3185.832031 "/>
<path xmlns="http://www.w3.org/2000/svg" fill-rule="nonzero" fill="rgb(96.514893%, 75.584412%, 12.493896%)" fill-opacity="1" d="M 3914.734375 1706.558594 L 3871.480469 1706.558594 C 3859.886719 1706.558594 3850.488281 1697.164062 3850.488281 1685.570312 C 3850.488281 1673.976562 3859.886719 1664.582031 3871.480469 1664.582031 L 3914.734375 1664.582031 C 3926.328125 1664.582031 3935.722656 1673.976562 3935.722656 1685.570312 C 3935.722656 1697.164062 3926.328125 1706.558594 3914.734375 1706.558594 "/>
<path xmlns="http://www.w3.org/2000/svg" fill-rule="nonzero" fill="rgb(63.301086%, 84.458923%, 21.595764%)" fill-opacity="1" d="M 2792.949219 3325.675781 C 2767.535156 3325.675781 2746.855469 3346.351562 2746.855469 3371.769531 C 2746.855469 3397.183594 2767.535156 3417.863281 2792.949219 3417.863281 C 2818.367188 3417.863281 2839.042969 3397.183594 2839.042969 3371.769531 C 2839.042969 3346.351562 2818.367188 3325.675781 2792.949219 3325.675781 M 2792.949219 3338.175781 C 2811.503906 3338.175781 2826.542969 3353.214844 2826.542969 3371.769531 C 2826.542969 3390.320312 2811.503906 3405.363281 2792.949219 3405.363281 C 2774.398438 3405.363281 2759.355469 3390.320312 2759.355469 3371.769531 C 2759.355469 3353.214844 2774.398438 3338.175781 2792.949219 3338.175781 "/>
<path xmlns="http://www.w3.org/2000/svg" fill-rule="nonzero" fill="rgb(75.085449%, 33.602905%, 16.574097%)" fill-opacity="1" d="M 3134.242188 2499.058594 C 3108.828125 2499.058594 3088.148438 2519.734375 3088.148438 2545.152344 C 3088.148438 2570.566406 3108.828125 2591.246094 3134.242188 2591.246094 C 3159.660156 2591.246094 3180.335938 2570.566406 3180.335938 2545.152344 C 3180.335938 2519.734375 3159.660156 2499.058594 3134.242188 2499.058594 M 3134.242188 2511.558594 C 3152.796875 2511.558594 3167.835938 2526.597656 3167.835938 2545.152344 C 3167.835938 2563.707031 3152.796875 2578.746094 3134.242188 2578.746094 C 3115.691406 2578.746094 3100.648438 2563.707031 3100.648438 2545.152344 C 3100.648438 2526.597656 3115.691406 2511.558594 3134.242188 2511.558594 "/>
<path xmlns="http://www.w3.org/2000/svg" fill-rule="nonzero" fill="rgb(93.370056%, 15.119934%, 21.038818%)" fill-opacity="1" d="M 4291.121094 1650.207031 C 4265.707031 1650.207031 4245.027344 1670.882812 4245.027344 1696.300781 C 4245.027344 1721.714844 4265.707031 1742.394531 4291.121094 1742.394531 C 4316.539062 1742.394531 4337.214844 1721.714844 4337.214844 1696.300781 C 4337.214844 1670.882812 4316.539062 1650.207031 4291.121094 1650.207031 M 4291.121094 1662.707031 C 4309.675781 1662.707031 4324.714844 1677.746094 4324.714844 1696.300781 C 4324.714844 1714.851562 4309.675781 1729.894531 4291.121094 1729.894531 C 4272.570312 1729.894531 4257.527344 1714.851562 4257.527344 1696.300781 C 4257.527344 1677.746094 4272.570312 1662.707031 4291.121094 1662.707031 "/>
<path xmlns="http://www.w3.org/2000/svg" fill-rule="nonzero" fill="rgb(90.957642%, 6.632996%, 57.745361%)" fill-opacity="1" d="M 4397.394531 1650.207031 C 4371.976562 1650.207031 4351.300781 1670.882812 4351.300781 1696.300781 C 4351.300781 1721.714844 4371.976562 1742.394531 4397.394531 1742.394531 C 4422.808594 1742.394531 4443.488281 1721.714844 4443.488281 1696.300781 C 4443.488281 1670.882812 4422.808594 1650.207031 4397.394531 1650.207031 M 4397.394531 1662.707031 C 4415.945312 1662.707031 4430.988281 1677.746094 4430.988281 1696.300781 C 4430.988281 1714.851562 4415.945312 1729.894531 4397.394531 1729.894531 C 4378.839844 1729.894531 4363.800781 1714.851562 4363.800781 1696.300781 C 4363.800781 1677.746094 4378.839844 1662.707031 4397.394531 1662.707031 "/>
</svg>
