<?xml version="1.0" encoding="UTF-8"?>
<svg xmlns="http://www.w3.org/2000/svg" xmlns:xlink="http://www.w3.org/1999/xlink" viewBox="4756.785 5045.16 2378.3925 1681.72" width="2378.3925" height="1681.72">
<defs>
<clipPath xmlns="http://www.w3.org/2000/svg" id="clip-2684">
<path clip-rule="nonzero" d="M 4926 4367 L 6588 4367 L 6588 6726.878906 L 4926 6726.878906 Z M 4926 4367 "/>
</clipPath>
<clipPath xmlns="http://www.w3.org/2000/svg" id="clip-2686">
<path clip-rule="nonzero" d="M 5110 5979 L 6452 5979 L 6452 6726.878906 L 5110 6726.878906 Z M 5110 5979 "/>
</clipPath>
</defs>
<path xmlns="http://www.w3.org/2000/svg" fill="none" stroke-width="15" stroke-linecap="butt" stroke-linejoin="miter" stroke="rgb(30.001831%, 64.794922%, 59.94873%)" stroke-opacity="1" stroke-miterlimit="10" d="M 0.0000125 0.0019 L -606.863269 0.0019 " transform="matrix(1, 0, 0, -1, 7157.2578, 5422.0644)"/>
<path xmlns="http://www.w3.org/2000/svg" fill="none" stroke-width="15" stroke-linecap="butt" stroke-linejoin="miter" stroke="rgb(56.92749%, 10.435486%, 16.130066%)" stroke-opacity="1" stroke-miterlimit="10" d="M -0.00048125 0.0006 L -0.00048125 -146.081431 " transform="matrix(1, 0, 0, -1, 6216.1997, 5076.1881)"/>
<path xmlns="http://www.w3.org/2000/svg" fill="none" stroke-width="15" stroke-linecap="butt" stroke-linejoin="miter" stroke="rgb(93.244934%, 11.296082%, 40.261841%)" stroke-opacity="1" stroke-miterlimit="10" d="M -0.00048125 -0.00113125 L -0.00048125 -12.579256 C -0.00048125 -39.098788 10.534675 -64.536288 29.288581 -83.290194 L 275.565925 -329.567538 C 303.698737 -357.696444 319.499519 -395.848788 319.499519 -435.633944 L 319.499519 -1042.411288 " transform="matrix(1, 0, 0, -1, 5874.1997, 4484.2684)"/>
<path xmlns="http://www.w3.org/2000/svg" fill="none" stroke-width="15" stroke-linecap="butt" stroke-linejoin="miter" stroke="rgb(30.001831%, 64.794922%, 59.94873%)" stroke-opacity="1" stroke-miterlimit="10" d="M -0.00048125 0.00136875 L -0.00048125 -366.361912 " transform="matrix(1, 0, 0, -1, 6148.6997, 5104.2084)"/>
<path xmlns="http://www.w3.org/2000/svg" fill="none" stroke-width="15" stroke-linecap="butt" stroke-linejoin="miter" stroke="rgb(93.244934%, 11.296082%, 40.261841%)" stroke-opacity="1" stroke-miterlimit="10" d="M 0.00101875 -0.00145625 L 0.00101875 889.334481 " transform="matrix(1, 0, 0, -1, 6265.5732, 5669.5337)"/>
<path xmlns="http://www.w3.org/2000/svg" fill="none" stroke-width="15" stroke-linecap="butt" stroke-linejoin="miter" stroke="rgb(93.244934%, 11.296082%, 40.261841%)" stroke-opacity="1" stroke-miterlimit="10" d="M 0.001425 0.00059375 L -27.936075 0.00059375 L -358.2017 -0.0033125 C -425.506388 -0.0033125 -480.064981 54.555281 -480.064981 121.859969 L -480.064981 192.969344 " transform="matrix(1, 0, 0, -1, 6745.6392, 5862.5045)"/>
<path xmlns="http://www.w3.org/2000/svg" fill="none" stroke-width="15" stroke-linecap="butt" stroke-linejoin="miter" stroke="rgb(93.244934%, 11.296082%, 40.261841%)" stroke-opacity="1" stroke-miterlimit="10" d="M -0.0014875 0.0018375 L -0.0014875 -104.173944 " transform="matrix(1, 0, 0, -1, 6193.6968, 5218.8534)"/>
<path xmlns="http://www.w3.org/2000/svg" fill="none" stroke-width="15" stroke-linecap="butt" stroke-linejoin="miter" stroke="rgb(56.92749%, 10.435486%, 16.130066%)" stroke-opacity="1" stroke-miterlimit="10" d="M -0.00049375 -0.00155625 L -0.00049375 40.029694 L -0.03565 212.764069 L 1.124506 272.967194 L 1.124506 889.334381 " transform="matrix(1, 0, 0, -1, 6290.4419, 5669.5336)"/>
<path xmlns="http://www.w3.org/2000/svg" fill="none" stroke-width="15" stroke-linecap="butt" stroke-linejoin="miter" stroke="rgb(56.92749%, 10.435486%, 16.130066%)" stroke-opacity="1" stroke-miterlimit="10" d="M 0.0000125 0.0018125 L -369.363269 0.0018125 C -422.425769 0.0018125 -465.441394 43.013531 -465.441394 96.076031 L -465.441394 167.833844 " transform="matrix(1, 0, 0, -1, 6755.8828, 5837.369)"/>
<path xmlns="http://www.w3.org/2000/svg" fill="none" stroke-width="15" stroke-linecap="butt" stroke-linejoin="miter" stroke="rgb(79.408264%, 34.082031%, 16.569519%)" stroke-opacity="1" stroke-miterlimit="10" d="M 0.00094375 -0.000125 L 123.329069 -0.000125 C 141.364225 -0.000125 155.985319 14.620969 155.985319 32.656125 L 155.985319 72.17175 " transform="matrix(1, 0, 0, -1, 6015.2139, 5399.453)"/>
<path xmlns="http://www.w3.org/2000/svg" fill="none" stroke-width="15" stroke-linecap="butt" stroke-linejoin="miter" stroke="rgb(79.408264%, 34.082031%, 16.569519%)" stroke-opacity="1" stroke-miterlimit="10" d="M -0.00048125 0.0013375 L -0.00048125 -125.526006 " transform="matrix(1, 0, 0, -1, 6171.1997, 5352.9779)"/>
<path xmlns="http://www.w3.org/2000/svg" fill="none" stroke-width="15" stroke-linecap="butt" stroke-linejoin="miter" stroke="rgb(79.408264%, 34.082031%, 16.569519%)" stroke-opacity="1" stroke-miterlimit="10" d="M 0.00096875 -0.000125 C 18.036125 -0.000125 32.657219 14.620969 32.657219 32.656125 " transform="matrix(1, 0, 0, -1, 6138.542, 5399.453)"/>
<path xmlns="http://www.w3.org/2000/svg" fill="none" stroke-width="15" stroke-linecap="butt" stroke-linejoin="miter" stroke="rgb(79.408264%, 34.082031%, 16.569519%)" stroke-opacity="1" stroke-miterlimit="10" d="M 0.00193125 0.0001625 L 10.654275 -10.656087 C 44.849587 -44.847494 64.056619 -91.222494 64.056619 -139.581869 L 64.056619 -552.249837 " transform="matrix(1, 0, 0, -1, 6107.1426, 4802.7111)"/>
<path xmlns="http://www.w3.org/2000/svg" fill="none" stroke-width="15" stroke-linecap="butt" stroke-linejoin="miter" stroke="rgb(79.408264%, 34.082031%, 16.569519%)" stroke-opacity="1" stroke-miterlimit="10" d="M -0.00098125 -0.00049375 L -0.00098125 -124.391119 " transform="matrix(1, 0, 0, -1, 6171.2002, 5158.4331)"/>
<path xmlns="http://www.w3.org/2000/svg" fill="none" stroke-width="15" stroke-linecap="butt" stroke-linejoin="miter" stroke="rgb(56.92749%, 10.435486%, 16.130066%)" stroke-opacity="1" stroke-miterlimit="10" d="M -0.00048125 0.0006 L -0.00048125 -146.081431 " transform="matrix(1, 0, 0, -1, 6216.1997, 5076.1881)"/>
<path xmlns="http://www.w3.org/2000/svg" fill="none" stroke-width="15" stroke-linecap="butt" stroke-linejoin="miter" stroke="rgb(30.001831%, 64.794922%, 59.94873%)" stroke-opacity="1" stroke-miterlimit="10" d="M -0.000000000000909495 0.0019 L -292.460938 0.0019 C -325.304688 0.0019 -351.929688 26.622994 -351.929688 59.466744 L -351.929688 478.611275 C -351.929688 511.451119 -378.550781 538.076119 -411.394531 538.076119 L -495.21875 538.076119 " transform="matrix(1, 0, 0, -1, 6591.5625, 5422.0644)"/>
<path xmlns="http://www.w3.org/2000/svg" fill="none" stroke-width="15" stroke-linecap="butt" stroke-linejoin="miter" stroke="rgb(30.001831%, 64.794922%, 59.94873%)" stroke-opacity="1" stroke-miterlimit="10" d="M -0.000000000000909495 0.0019 L -292.460938 0.0019 C -325.304688 0.0019 -351.929688 26.622994 -351.929688 59.466744 L -351.929688 478.611275 C -351.929688 511.451119 -378.550781 538.076119 -411.394531 538.076119 L -586.953125 538.076119 " transform="matrix(1, 0, 0, -1, 6591.5625, 5422.0644)"/>
<path xmlns="http://www.w3.org/2000/svg" fill="none" stroke-width="15" stroke-linecap="butt" stroke-linejoin="miter" stroke="rgb(30.001831%, 64.794922%, 59.94873%)" stroke-opacity="1" stroke-miterlimit="10" d="M -0.00048125 -0.00048125 L 110.722175 -0.00048125 C 126.616706 -0.00048125 139.499519 -12.883294 139.499519 -28.777825 L 139.499519 -349.531731 " transform="matrix(1, 0, 0, -1, 6009.1997, 4883.9878)"/>
<path xmlns="http://www.w3.org/2000/svg" fill="none" stroke-width="15" stroke-linecap="butt" stroke-linejoin="miter" stroke="rgb(93.244934%, 11.296082%, 40.261841%)" stroke-opacity="1" stroke-miterlimit="10" d="M 0.0015125 0.00095625 L 25.009325 -25.010763 C 40.013231 -40.014669 48.442919 -60.362325 48.442919 -81.577169 L 48.442919 -105.834981 " transform="matrix(1, 0, 0, -1, 6217.1313, 5589.5283)"/>
<path xmlns="http://www.w3.org/2000/svg" fill="none" stroke-width="15" stroke-linecap="butt" stroke-linejoin="miter" stroke="rgb(93.244934%, 11.296082%, 40.261841%)" stroke-opacity="1" stroke-miterlimit="10" d="M -0.00048125 -0.00085625 L -0.00048125 -142.364137 C -0.00048125 -163.578981 8.429206 -183.930544 23.433112 -198.930544 " transform="matrix(1, 0, 0, -1, 6193.6997, 5390.5968)"/>
<path xmlns="http://www.w3.org/2000/svg" fill="none" stroke-width="15" stroke-linecap="butt" stroke-linejoin="miter" stroke="rgb(93.244934%, 11.296082%, 40.261841%)" stroke-opacity="1" stroke-miterlimit="10" d="M 0.00101875 -0.0014625 L 0.00101875 -77.063962 " transform="matrix(1, 0, 0, -1, 6265.5732, 5608.5376)"/>
<path xmlns="http://www.w3.org/2000/svg" fill="none" stroke-width="15" stroke-linecap="butt" stroke-linejoin="miter" stroke="rgb(56.92749%, 10.435486%, 16.130066%)" stroke-opacity="1" stroke-miterlimit="10" d="M -0.00048125 0.0006 L -0.00048125 708.785756 L -1.465325 833.141225 C -1.781731 860.070913 8.776862 885.988881 27.819831 905.03185 L 190.878425 1068.090444 C 212.226081 1089.4381 224.179206 1118.422475 224.089362 1148.613881 L 224.085456 1149.758413 L 223.390144 1248.586538 L 223.390144 3558.606069 C 223.390144 3612.6256 179.597175 3656.418569 125.573737 3656.418569 L -72.000481 3656.418569 " transform="matrix(1, 0, 0, -1, 6216.1997, 5076.1881)"/>
<path xmlns="http://www.w3.org/2000/svg" fill="none" stroke-width="15" stroke-linecap="butt" stroke-linejoin="miter" stroke="rgb(56.92749%, 10.435486%, 16.130066%)" stroke-opacity="1" stroke-miterlimit="10" d="M -0.00048125 -0.00113125 L -0.00048125 -170.411288 C -0.00048125 -190.571444 -16.340325 -206.915194 -36.500481 -206.915194 L -200.984856 -206.915194 " transform="matrix(1, 0, 0, -1, 6216.1997, 5222.2684)"/>
<path xmlns="http://www.w3.org/2000/svg" fill="none" stroke-width="15" stroke-linecap="butt" stroke-linejoin="miter" stroke="rgb(93.244934%, 11.296082%, 40.261841%)" stroke-opacity="1" stroke-miterlimit="10" d="M -0.00048125 0.00036875 C -0.00048125 -13.26135 5.26905 -25.9801 14.64405 -35.3551 L 57.460456 -78.171506 C 66.839362 -87.550412 72.108894 -100.265256 72.108894 -113.526975 L 72.108894 -137.13635 " transform="matrix(1, 0, 0, -1, 6193.6997, 5146.3949)"/>
<path xmlns="http://www.w3.org/2000/svg" fill="none" stroke-width="15" stroke-linecap="butt" stroke-linejoin="miter" stroke="rgb(93.244934%, 11.296082%, 40.261841%)" stroke-opacity="1" stroke-miterlimit="10" d="M -0.00098125 0.00143125 L -0.00098125 -96.682163 " transform="matrix(1, 0, 0, -1, 6193.7002, 5122.1694)"/>
<g xmlns="http://www.w3.org/2000/svg" clip-path="url(#clip-2684)"><path fill="none" stroke-width="25" stroke-linecap="butt" stroke-linejoin="miter" stroke="rgb(93.347168%, 14.932251%, 20.336914%)" stroke-opacity="1" stroke-miterlimit="10" d="M -0.00048125 0.00125 L -0.00048125 -1748.506562 C -0.00048125 -1797.791719 39.952644 -1837.744844 89.2378 -1837.744844 L 953.780769 -1837.744844 " transform="matrix(1, 0, 0, -1, 5280.1997, 4720.97)"/></g>
<g xmlns="http://www.w3.org/2000/svg" clip-path="url(#clip-2686)"><path fill="none" stroke-width="25" stroke-linecap="butt" stroke-linejoin="miter" stroke="rgb(93.347168%, 14.932251%, 20.336914%)" stroke-opacity="1" stroke-miterlimit="10" d="M -0.0005125 -0.0017 L -342.098169 -0.0017 C -373.406762 -0.0017 -398.789575 -25.380606 -398.789575 -56.693106 L -398.789575 -168.646231 C -398.789575 -199.958731 -424.172387 -225.341544 -455.484887 -225.341544 L -634.020044 -225.341544 " transform="matrix(1, 0, 0, -1, 6097.6177, 6333.3733)"/></g>
<path xmlns="http://www.w3.org/2000/svg" fill="none" stroke-width="25" stroke-linecap="butt" stroke-linejoin="miter" stroke="rgb(93.347168%, 14.932251%, 20.336914%)" stroke-opacity="1" stroke-miterlimit="10" d="M 0.00191875 -0.00044375 L -178.537144 -0.00044375 " transform="matrix(1, 0, 0, -1, 5742.1348, 6558.7144)"/>
<path xmlns="http://www.w3.org/2000/svg" fill="none" stroke-width="25" stroke-linecap="butt" stroke-linejoin="miter" stroke="rgb(93.347168%, 14.932251%, 20.336914%)" stroke-opacity="1" stroke-miterlimit="10" d="M 0.00001875 0.0001 L 0.00001875 -67.425681 " transform="matrix(1, 0, 0, -1, 5280.1992, 6215.3126)"/>
<path xmlns="http://www.w3.org/2000/svg" fill="none" stroke-width="25" stroke-linecap="butt" stroke-linejoin="miter" stroke="rgb(16.210938%, 29.866028%, 64.877319%)" stroke-opacity="1" stroke-miterlimit="10" d="M 0.00101875 0.0015625 L 0.00101875 1198.247656 C 0.00101875 1309.4 -90.108356 1399.505469 -201.2607 1399.505469 L -2342.588825 1399.505469 C -2453.741169 1399.505469 -2543.846637 1489.614844 -2543.846637 1600.767187 L -2543.846637 2188.314062 C -2543.846637 2280.454687 -2618.54195 2355.146094 -2710.682575 2355.146094 L -3001.873981 2355.146094 " transform="matrix(1, 0, 0, -1, 6837.5732, 6249.025)"/>
<path xmlns="http://www.w3.org/2000/svg" fill-rule="nonzero" fill="rgb(16.210938%, 29.866028%, 64.877319%)" fill-opacity="1" d="M 6758.746094 6210.019531 C 6733.332031 6210.019531 6712.652344 6230.695312 6712.652344 6256.113281 C 6712.652344 6281.527344 6733.332031 6302.207031 6758.746094 6302.207031 C 6784.164062 6302.207031 6804.839844 6281.527344 6804.839844 6256.113281 C 6804.839844 6230.695312 6784.164062 6210.019531 6758.746094 6210.019531 M 6758.746094 6222.519531 C 6777.300781 6222.519531 6792.339844 6237.558594 6792.339844 6256.113281 C 6792.339844 6274.664062 6777.300781 6289.707031 6758.746094 6289.707031 C 6740.195312 6289.707031 6725.152344 6274.664062 6725.152344 6256.113281 C 6725.152344 6237.558594 6740.195312 6222.519531 6758.746094 6222.519531 "/>
<path xmlns="http://www.w3.org/2000/svg" fill-rule="nonzero" fill="rgb(16.629028%, 30.575562%, 64.790344%)" fill-opacity="1" d="M 6837.570312 5474.324219 C 6825.4375 5474.324219 6815.570312 5484.195312 6815.570312 5496.324219 C 6815.570312 5508.457031 6825.4375 5518.324219 6837.570312 5518.324219 C 6849.703125 5518.324219 6859.570312 5508.457031 6859.570312 5496.324219 C 6859.570312 5484.195312 6849.703125 5474.324219 6837.570312 5474.324219 M 6837.570312 5478.324219 C 6847.511719 5478.324219 6855.570312 5486.382812 6855.570312 5496.324219 C 6855.570312 5506.265625 6847.511719 5514.324219 6837.570312 5514.324219 C 6827.628906 5514.324219 6819.570312 5506.265625 6819.570312 5496.324219 C 6819.570312 5486.382812 6827.628906 5478.324219 6837.570312 5478.324219 "/>
<path xmlns="http://www.w3.org/2000/svg" fill-rule="nonzero" fill="rgb(16.629028%, 30.575562%, 64.790344%)" fill-opacity="1" d="M 6837.570312 5741.9375 C 6825.4375 5741.9375 6815.570312 5751.804688 6815.570312 5763.9375 C 6815.570312 5776.066406 6825.4375 5785.9375 6837.570312 5785.9375 C 6849.703125 5785.9375 6859.570312 5776.066406 6859.570312 5763.9375 C 6859.570312 5751.804688 6849.703125 5741.9375 6837.570312 5741.9375 M 6837.570312 5745.9375 C 6847.511719 5745.9375 6855.570312 5753.996094 6855.570312 5763.9375 C 6855.570312 5773.878906 6847.511719 5781.9375 6837.570312 5781.9375 C 6827.628906 5781.9375 6819.570312 5773.878906 6819.570312 5763.9375 C 6819.570312 5753.996094 6827.628906 5745.9375 6837.570312 5745.9375 "/>
<path xmlns="http://www.w3.org/2000/svg" fill-rule="nonzero" fill="rgb(16.629028%, 30.575562%, 64.790344%)" fill-opacity="1" d="M 6837.570312 5985.847656 C 6825.4375 5985.847656 6815.570312 5995.714844 6815.570312 6007.847656 C 6815.570312 6019.976562 6825.4375 6029.847656 6837.570312 6029.847656 C 6849.703125 6029.847656 6859.570312 6019.976562 6859.570312 6007.847656 C 6859.570312 5995.714844 6849.703125 5985.847656 6837.570312 5985.847656 M 6837.570312 5989.847656 C 6847.511719 5989.847656 6855.570312 5997.90625 6855.570312 6007.847656 C 6855.570312 6017.789062 6847.511719 6025.847656 6837.570312 6025.847656 C 6827.628906 6025.847656 6819.570312 6017.789062 6819.570312 6007.847656 C 6819.570312 5997.90625 6827.628906 5989.847656 6837.570312 5989.847656 "/>
<path xmlns="http://www.w3.org/2000/svg" fill-rule="nonzero" fill="rgb(16.629028%, 30.575562%, 64.790344%)" fill-opacity="1" d="M 6837.570312 6230.507812 C 6825.4375 6230.507812 6815.570312 6240.375 6815.570312 6252.507812 C 6815.570312 6264.636719 6825.4375 6274.507812 6837.570312 6274.507812 C 6849.703125 6274.507812 6859.570312 6264.636719 6859.570312 6252.507812 C 6859.570312 6240.375 6849.703125 6230.507812 6837.570312 6230.507812 M 6837.570312 6234.507812 C 6847.511719 6234.507812 6855.570312 6242.566406 6855.570312 6252.507812 C 6855.570312 6262.445312 6847.511719 6270.507812 6837.570312 6270.507812 C 6827.628906 6270.507812 6819.570312 6262.445312 6819.570312 6252.507812 C 6819.570312 6242.566406 6827.628906 6234.507812 6837.570312 6234.507812 "/>
<path xmlns="http://www.w3.org/2000/svg" fill-rule="nonzero" fill="rgb(93.370056%, 15.119934%, 21.038818%)" fill-opacity="1" d="M 5280.238281 5113.09375 C 5268.105469 5113.09375 5258.238281 5122.964844 5258.238281 5135.09375 C 5258.238281 5147.226562 5268.105469 5157.09375 5280.238281 5157.09375 C 5292.367188 5157.09375 5302.238281 5147.226562 5302.238281 5135.09375 C 5302.238281 5122.964844 5292.367188 5113.09375 5280.238281 5113.09375 M 5280.238281 5117.09375 C 5290.179688 5117.09375 5298.238281 5125.152344 5298.238281 5135.09375 C 5298.238281 5145.035156 5290.179688 5153.09375 5280.238281 5153.09375 C 5270.296875 5153.09375 5262.238281 5145.035156 5262.238281 5135.09375 C 5262.238281 5125.152344 5270.296875 5117.09375 5280.238281 5117.09375 "/>
<path xmlns="http://www.w3.org/2000/svg" fill-rule="nonzero" fill="rgb(93.370056%, 15.119934%, 21.038818%)" fill-opacity="1" d="M 5280.238281 5346.902344 C 5268.105469 5346.902344 5258.238281 5356.769531 5258.238281 5368.902344 C 5258.238281 5381.03125 5268.105469 5390.902344 5280.238281 5390.902344 C 5292.367188 5390.902344 5302.238281 5381.03125 5302.238281 5368.902344 C 5302.238281 5356.769531 5292.367188 5346.902344 5280.238281 5346.902344 M 5280.238281 5350.902344 C 5290.179688 5350.902344 5298.238281 5358.960938 5298.238281 5368.902344 C 5298.238281 5378.84375 5290.179688 5386.902344 5280.238281 5386.902344 C 5270.296875 5386.902344 5262.238281 5378.84375 5262.238281 5368.902344 C 5262.238281 5358.960938 5270.296875 5350.902344 5280.238281 5350.902344 "/>
<path xmlns="http://www.w3.org/2000/svg" fill-rule="nonzero" fill="rgb(93.370056%, 15.119934%, 21.038818%)" fill-opacity="1" d="M 5280.238281 5580.707031 C 5268.105469 5580.707031 5258.238281 5590.578125 5258.238281 5602.707031 C 5258.238281 5614.839844 5268.105469 5624.707031 5280.238281 5624.707031 C 5292.367188 5624.707031 5302.238281 5614.839844 5302.238281 5602.707031 C 5302.238281 5590.578125 5292.367188 5580.707031 5280.238281 5580.707031 M 5280.238281 5584.707031 C 5290.179688 5584.707031 5298.238281 5592.765625 5298.238281 5602.707031 C 5298.238281 5612.648438 5290.179688 5620.707031 5280.238281 5620.707031 C 5270.296875 5620.707031 5262.238281 5612.648438 5262.238281 5602.707031 C 5262.238281 5592.765625 5270.296875 5584.707031 5280.238281 5584.707031 "/>
<path xmlns="http://www.w3.org/2000/svg" fill-rule="nonzero" fill="rgb(93.370056%, 15.119934%, 21.038818%)" fill-opacity="1" d="M 5280.238281 5814.515625 C 5268.105469 5814.515625 5258.238281 5824.382812 5258.238281 5836.515625 C 5258.238281 5848.644531 5268.105469 5858.515625 5280.238281 5858.515625 C 5292.367188 5858.515625 5302.238281 5848.644531 5302.238281 5836.515625 C 5302.238281 5824.382812 5292.367188 5814.515625 5280.238281 5814.515625 M 5280.238281 5818.515625 C 5290.179688 5818.515625 5298.238281 5826.574219 5298.238281 5836.515625 C 5298.238281 5846.457031 5290.179688 5854.515625 5280.238281 5854.515625 C 5270.296875 5854.515625 5262.238281 5846.457031 5262.238281 5836.515625 C 5262.238281 5826.574219 5270.296875 5818.515625 5280.238281 5818.515625 "/>
<path xmlns="http://www.w3.org/2000/svg" fill-rule="nonzero" fill="rgb(93.370056%, 15.119934%, 21.038818%)" fill-opacity="1" d="M 5280.238281 5961.417969 C 5268.105469 5961.417969 5258.238281 5971.285156 5258.238281 5983.417969 C 5258.238281 5995.546875 5268.105469 6005.417969 5280.238281 6005.417969 C 5292.367188 6005.417969 5302.238281 5995.546875 5302.238281 5983.417969 C 5302.238281 5971.285156 5292.367188 5961.417969 5280.238281 5961.417969 M 5280.238281 5965.417969 C 5290.179688 5965.417969 5298.238281 5973.476562 5298.238281 5983.417969 C 5298.238281 5993.359375 5290.179688 6001.417969 5280.238281 6001.417969 C 5270.296875 6001.417969 5262.238281 5993.359375 5262.238281 5983.417969 C 5262.238281 5973.476562 5270.296875 5965.417969 5280.238281 5965.417969 "/>
<path xmlns="http://www.w3.org/2000/svg" fill-rule="nonzero" fill="rgb(93.370056%, 15.119934%, 21.038818%)" fill-opacity="1" d="M 5280.238281 6061.890625 C 5268.105469 6061.890625 5258.238281 6071.757812 5258.238281 6083.890625 C 5258.238281 6096.019531 5268.105469 6105.890625 5280.238281 6105.890625 C 5292.367188 6105.890625 5302.238281 6096.019531 5302.238281 6083.890625 C 5302.238281 6071.757812 5292.367188 6061.890625 5280.238281 6061.890625 M 5280.238281 6065.890625 C 5290.179688 6065.890625 5298.238281 6073.949219 5298.238281 6083.890625 C 5298.238281 6093.832031 5290.179688 6101.890625 5280.238281 6101.890625 C 5270.296875 6101.890625 5262.238281 6093.832031 5262.238281 6083.890625 C 5262.238281 6073.949219 5270.296875 6065.890625 5280.238281 6065.890625 "/>
<path xmlns="http://www.w3.org/2000/svg" fill-rule="nonzero" fill="rgb(93.370056%, 15.119934%, 21.038818%)" fill-opacity="1" d="M 5280.207031 6174.363281 C 5268.074219 6174.363281 5258.207031 6184.234375 5258.207031 6196.363281 C 5258.207031 6208.496094 5268.074219 6218.363281 5280.207031 6218.363281 C 5292.335938 6218.363281 5302.207031 6208.496094 5302.207031 6196.363281 C 5302.207031 6184.234375 5292.335938 6174.363281 5280.207031 6174.363281 M 5280.207031 6178.363281 C 5290.148438 6178.363281 5298.207031 6186.421875 5298.207031 6196.363281 C 5298.207031 6206.304688 5290.148438 6214.363281 5280.207031 6214.363281 C 5270.265625 6214.363281 5262.207031 6206.304688 5262.207031 6196.363281 C 5262.207031 6186.421875 5270.265625 6178.363281 5280.207031 6178.363281 "/>
<path xmlns="http://www.w3.org/2000/svg" fill-rule="nonzero" fill="rgb(93.370056%, 15.119934%, 21.038818%)" fill-opacity="1" d="M 5280.207031 6271.835938 C 5268.074219 6271.835938 5258.207031 6281.707031 5258.207031 6293.835938 C 5258.207031 6305.96875 5268.074219 6315.835938 5280.207031 6315.835938 C 5292.335938 6315.835938 5302.207031 6305.96875 5302.207031 6293.835938 C 5302.207031 6281.707031 5292.335938 6271.835938 5280.207031 6271.835938 M 5280.207031 6275.835938 C 5290.148438 6275.835938 5298.207031 6283.898438 5298.207031 6293.835938 C 5298.207031 6303.777344 5290.148438 6311.835938 5280.207031 6311.835938 C 5270.265625 6311.835938 5262.207031 6303.777344 5262.207031 6293.835938 C 5262.207031 6283.898438 5270.265625 6275.835938 5280.207031 6275.835938 "/>
<path xmlns="http://www.w3.org/2000/svg" fill-rule="nonzero" fill="rgb(93.370056%, 15.119934%, 21.038818%)" fill-opacity="1" d="M 5280.207031 6379.835938 C 5268.074219 6379.835938 5258.207031 6389.707031 5258.207031 6401.835938 C 5258.207031 6413.96875 5268.074219 6423.835938 5280.207031 6423.835938 C 5292.335938 6423.835938 5302.207031 6413.96875 5302.207031 6401.835938 C 5302.207031 6389.707031 5292.335938 6379.835938 5280.207031 6379.835938 M 5280.207031 6383.835938 C 5290.148438 6383.835938 5298.207031 6391.898438 5298.207031 6401.835938 C 5298.207031 6411.777344 5290.148438 6419.835938 5280.207031 6419.835938 C 5270.265625 6419.835938 5262.207031 6411.777344 5262.207031 6401.835938 C 5262.207031 6391.898438 5270.265625 6383.835938 5280.207031 6383.835938 "/>
<path xmlns="http://www.w3.org/2000/svg" fill-rule="nonzero" fill="rgb(93.370056%, 15.119934%, 21.038818%)" fill-opacity="1" d="M 6236.484375 6534.667969 C 6224.355469 6534.667969 6214.484375 6544.535156 6214.484375 6556.667969 C 6214.484375 6568.800781 6224.355469 6578.667969 6236.484375 6578.667969 C 6248.617188 6578.667969 6258.484375 6568.800781 6258.484375 6556.667969 C 6258.484375 6544.535156 6248.617188 6534.667969 6236.484375 6534.667969 M 6236.484375 6538.667969 C 6246.425781 6538.667969 6254.484375 6546.726562 6254.484375 6556.667969 C 6254.484375 6566.609375 6246.425781 6574.667969 6236.484375 6574.667969 C 6226.542969 6574.667969 6218.484375 6566.609375 6218.484375 6556.667969 C 6218.484375 6546.726562 6226.542969 6538.667969 6236.484375 6538.667969 "/>
<path xmlns="http://www.w3.org/2000/svg" fill-rule="nonzero" fill="rgb(93.370056%, 15.119934%, 21.038818%)" fill-opacity="1" d="M 6022.777344 6534.667969 C 6010.648438 6534.667969 6000.777344 6544.535156 6000.777344 6556.667969 C 6000.777344 6568.800781 6010.648438 6578.667969 6022.777344 6578.667969 C 6034.910156 6578.667969 6044.777344 6568.800781 6044.777344 6556.667969 C 6044.777344 6544.535156 6034.910156 6534.667969 6022.777344 6534.667969 M 6022.777344 6538.667969 C 6032.71875 6538.667969 6040.777344 6546.726562 6040.777344 6556.667969 C 6040.777344 6566.609375 6032.71875 6574.667969 6022.777344 6574.667969 C 6012.835938 6574.667969 6004.777344 6566.609375 6004.777344 6556.667969 C 6004.777344 6546.726562 6012.835938 6538.667969 6022.777344 6538.667969 "/>
<path xmlns="http://www.w3.org/2000/svg" fill-rule="nonzero" fill="rgb(93.370056%, 15.119934%, 21.038818%)" fill-opacity="1" d="M 5809.070312 6534.667969 C 5796.941406 6534.667969 5787.070312 6544.535156 5787.070312 6556.667969 C 5787.070312 6568.800781 5796.941406 6578.667969 5809.070312 6578.667969 C 5821.203125 6578.667969 5831.070312 6568.800781 5831.070312 6556.667969 C 5831.070312 6544.535156 5821.203125 6534.667969 5809.070312 6534.667969 M 5809.070312 6538.667969 C 5819.011719 6538.667969 5827.070312 6546.726562 5827.070312 6556.667969 C 5827.070312 6566.609375 5819.011719 6574.667969 5809.070312 6574.667969 C 5799.128906 6574.667969 5791.070312 6566.609375 5791.070312 6556.667969 C 5791.070312 6546.726562 5799.128906 6538.667969 5809.070312 6538.667969 "/>
<path xmlns="http://www.w3.org/2000/svg" fill-rule="nonzero" fill="rgb(93.370056%, 15.119934%, 21.038818%)" fill-opacity="1" d="M 6093.199219 6311.394531 C 6081.066406 6311.394531 6071.199219 6321.265625 6071.199219 6333.394531 C 6071.199219 6345.527344 6081.066406 6355.394531 6093.199219 6355.394531 C 6105.328125 6355.394531 6115.199219 6345.527344 6115.199219 6333.394531 C 6115.199219 6321.265625 6105.328125 6311.394531 6093.199219 6311.394531 M 6093.199219 6315.394531 C 6103.136719 6315.394531 6111.199219 6323.457031 6111.199219 6333.394531 C 6111.199219 6343.335938 6103.136719 6351.394531 6093.199219 6351.394531 C 6083.257812 6351.394531 6075.199219 6343.335938 6075.199219 6333.394531 C 6075.199219 6323.457031 6083.257812 6315.394531 6093.199219 6315.394531 "/>
<path xmlns="http://www.w3.org/2000/svg" fill-rule="nonzero" fill="rgb(93.370056%, 15.119934%, 21.038818%)" fill-opacity="1" d="M 5808.890625 6311.394531 C 5796.761719 6311.394531 5786.890625 6321.265625 5786.890625 6333.394531 C 5786.890625 6345.527344 5796.761719 6355.394531 5808.890625 6355.394531 C 5821.023438 6355.394531 5830.890625 6345.527344 5830.890625 6333.394531 C 5830.890625 6321.265625 5821.023438 6311.394531 5808.890625 6311.394531 M 5808.890625 6315.394531 C 5818.832031 6315.394531 5826.890625 6323.457031 5826.890625 6333.394531 C 5826.890625 6343.335938 5818.832031 6351.394531 5808.890625 6351.394531 C 5798.949219 6351.394531 5790.890625 6343.335938 5790.890625 6333.394531 C 5790.890625 6323.457031 5798.949219 6315.394531 5808.890625 6315.394531 "/>
<path xmlns="http://www.w3.org/2000/svg" fill-rule="nonzero" fill="rgb(93.370056%, 15.119934%, 21.038818%)" fill-opacity="1" d="M 5945.960938 6311.394531 C 5933.832031 6311.394531 5923.960938 6321.265625 5923.960938 6333.394531 C 5923.960938 6345.527344 5933.832031 6355.394531 5945.960938 6355.394531 C 5958.089844 6355.394531 5967.960938 6345.527344 5967.960938 6333.394531 C 5967.960938 6321.265625 5958.089844 6311.394531 5945.960938 6311.394531 M 5945.960938 6315.394531 C 5955.902344 6315.394531 5963.960938 6323.457031 5963.960938 6333.394531 C 5963.960938 6343.335938 5955.902344 6351.394531 5945.960938 6351.394531 C 5936.019531 6351.394531 5927.960938 6343.335938 5927.960938 6333.394531 C 5927.960938 6323.457031 5936.019531 6315.394531 5945.960938 6315.394531 "/>
<path xmlns="http://www.w3.org/2000/svg" fill-rule="nonzero" fill="rgb(93.370056%, 15.119934%, 21.038818%)" fill-opacity="1" d="M 5534.984375 6534.667969 C 5522.851562 6534.667969 5512.984375 6544.535156 5512.984375 6556.667969 C 5512.984375 6568.800781 5522.851562 6578.667969 5534.984375 6578.667969 C 5547.113281 6578.667969 5556.984375 6568.800781 5556.984375 6556.667969 C 5556.984375 6544.535156 5547.113281 6534.667969 5534.984375 6534.667969 M 5534.984375 6538.667969 C 5544.925781 6538.667969 5552.984375 6546.726562 5552.984375 6556.667969 C 5552.984375 6566.609375 5544.925781 6574.667969 5534.984375 6574.667969 C 5525.042969 6574.667969 5516.984375 6566.609375 5516.984375 6556.667969 C 5516.984375 6546.726562 5525.042969 6538.667969 5534.984375 6538.667969 "/>
<path xmlns="http://www.w3.org/2000/svg" fill-rule="nonzero" fill="rgb(93.370056%, 15.119934%, 21.038818%)" fill-opacity="1" d="M 5386.921875 6534.667969 C 5374.792969 6534.667969 5364.921875 6544.535156 5364.921875 6556.667969 C 5364.921875 6568.800781 5374.792969 6578.667969 5386.921875 6578.667969 C 5399.054688 6578.667969 5408.921875 6568.800781 5408.921875 6556.667969 C 5408.921875 6544.535156 5399.054688 6534.667969 5386.921875 6534.667969 M 5386.921875 6538.667969 C 5396.863281 6538.667969 5404.921875 6546.726562 5404.921875 6556.667969 C 5404.921875 6566.609375 5396.863281 6574.667969 5386.921875 6574.667969 C 5376.984375 6574.667969 5368.921875 6566.609375 5368.921875 6556.667969 C 5368.921875 6546.726562 5376.984375 6538.667969 5386.921875 6538.667969 "/>
<path xmlns="http://www.w3.org/2000/svg" fill-rule="nonzero" fill="rgb(56.92749%, 10.435486%, 16.130066%)" fill-opacity="1" d="M 5903.757812 5384.355469 L 5860.503906 5384.355469 C 5848.910156 5384.355469 5839.511719 5374.960938 5839.511719 5363.367188 C 5839.511719 5351.777344 5848.910156 5342.378906 5860.503906 5342.378906 L 5903.757812 5342.378906 C 5915.351562 5342.378906 5924.746094 5351.777344 5924.746094 5363.367188 C 5924.746094 5374.960938 5915.351562 5384.355469 5903.757812 5384.355469 "/>
<path xmlns="http://www.w3.org/2000/svg" fill-rule="nonzero" fill="rgb(30.001831%, 64.794922%, 59.94873%)" fill-opacity="1" d="M 5930.582031 5490.785156 L 5887.324219 5490.785156 C 5875.730469 5490.785156 5866.335938 5481.386719 5866.335938 5469.792969 C 5866.335938 5458.203125 5875.730469 5448.804688 5887.324219 5448.804688 L 5930.582031 5448.804688 C 5942.171875 5448.804688 5951.570312 5458.203125 5951.570312 5469.792969 C 5951.570312 5481.386719 5942.171875 5490.785156 5930.582031 5490.785156 "/>
<path xmlns="http://www.w3.org/2000/svg" fill-rule="nonzero" fill="rgb(79.408264%, 34.082031%, 16.569519%)" fill-opacity="1" d="M 5835.441406 5490.785156 L 5792.1875 5490.785156 C 5780.59375 5490.785156 5771.195312 5481.386719 5771.195312 5469.792969 C 5771.195312 5458.203125 5780.59375 5448.804688 5792.1875 5448.804688 L 5835.441406 5448.804688 C 5847.03125 5448.804688 5856.429688 5458.203125 5856.429688 5469.792969 C 5856.429688 5481.386719 5847.03125 5490.785156 5835.441406 5490.785156 "/>
<path xmlns="http://www.w3.org/2000/svg" fill-rule="nonzero" fill="rgb(93.244934%, 11.296082%, 40.261841%)" fill-opacity="1" d="M 6941.753906 5905.878906 L 6898.496094 5905.878906 C 6886.90625 5905.878906 6877.507812 5896.480469 6877.507812 5884.886719 C 6877.507812 5873.296875 6886.90625 5863.898438 6898.496094 5863.898438 L 6941.753906 5863.898438 C 6953.34375 5863.898438 6962.742188 5873.296875 6962.742188 5884.886719 C 6962.742188 5896.480469 6953.34375 5905.878906 6941.753906 5905.878906 "/>
<path xmlns="http://www.w3.org/2000/svg" fill-rule="nonzero" fill="rgb(93.244934%, 11.296082%, 40.261841%)" fill-opacity="1" d="M 6941.753906 5952.15625 L 6898.496094 5952.15625 C 6886.90625 5952.15625 6877.507812 5942.757812 6877.507812 5931.167969 C 6877.507812 5919.574219 6886.90625 5910.179688 6898.496094 5910.179688 L 6941.753906 5910.179688 C 6953.34375 5910.179688 6962.742188 5919.574219 6962.742188 5931.167969 C 6962.742188 5942.757812 6953.34375 5952.15625 6941.753906 5952.15625 "/>
<path xmlns="http://www.w3.org/2000/svg" fill-rule="nonzero" fill="rgb(93.244934%, 11.296082%, 40.261841%)" fill-opacity="1" d="M 7031.484375 5905.878906 L 6988.230469 5905.878906 C 6976.636719 5905.878906 6967.242188 5896.480469 6967.242188 5884.886719 C 6967.242188 5873.296875 6976.636719 5863.898438 6988.230469 5863.898438 L 7031.484375 5863.898438 C 7043.078125 5863.898438 7052.476562 5873.296875 7052.476562 5884.886719 C 7052.476562 5896.480469 7043.078125 5905.878906 7031.484375 5905.878906 "/>
<path xmlns="http://www.w3.org/2000/svg" fill-rule="nonzero" fill="rgb(56.92749%, 10.435486%, 16.130066%)" fill-opacity="1" d="M 7031.484375 5952.15625 L 6988.230469 5952.15625 C 6976.636719 5952.15625 6967.242188 5942.757812 6967.242188 5931.167969 C 6967.242188 5919.574219 6976.636719 5910.179688 6988.230469 5910.179688 L 7031.484375 5910.179688 C 7043.078125 5910.179688 7052.476562 5919.574219 7052.476562 5931.167969 C 7052.476562 5942.757812 7043.078125 5952.15625 7031.484375 5952.15625 "/>
<path xmlns="http://www.w3.org/2000/svg" fill-rule="nonzero" fill="rgb(93.370056%, 15.119934%, 21.038818%)" fill-opacity="1" d="M 6328.292969 6338.890625 C 6302.875 6338.890625 6282.199219 6359.566406 6282.199219 6384.984375 C 6282.199219 6410.398438 6302.875 6431.078125 6328.292969 6431.078125 C 6353.707031 6431.078125 6374.382812 6410.398438 6374.382812 6384.984375 C 6374.382812 6359.566406 6353.707031 6338.890625 6328.292969 6338.890625 M 6328.292969 6351.390625 C 6346.84375 6351.390625 6361.882812 6366.429688 6361.882812 6384.984375 C 6361.882812 6403.535156 6346.84375 6418.578125 6328.292969 6418.578125 C 6309.738281 6418.578125 6294.699219 6403.535156 6294.699219 6384.984375 C 6294.699219 6366.429688 6309.738281 6351.390625 6328.292969 6351.390625 "/>
<path xmlns="http://www.w3.org/2000/svg" fill-rule="nonzero" fill="rgb(93.370056%, 15.119934%, 21.038818%)" fill-opacity="1" d="M 6171.625 6287.304688 C 6146.210938 6287.304688 6125.53125 6307.980469 6125.53125 6333.394531 C 6125.53125 6358.8125 6146.210938 6379.488281 6171.625 6379.488281 C 6197.039062 6379.488281 6217.71875 6358.8125 6217.71875 6333.394531 C 6217.71875 6307.980469 6197.039062 6287.304688 6171.625 6287.304688 M 6171.625 6299.804688 C 6190.179688 6299.804688 6205.21875 6314.84375 6205.21875 6333.394531 C 6205.21875 6351.949219 6190.179688 6366.988281 6171.625 6366.988281 C 6153.070312 6366.988281 6138.03125 6351.949219 6138.03125 6333.394531 C 6138.03125 6314.84375 6153.070312 6299.804688 6171.625 6299.804688 "/>
</svg>
