<?xml version="1.0" encoding="UTF-8"?>
<svg xmlns="http://www.w3.org/2000/svg" xmlns:xlink="http://www.w3.org/1999/xlink" viewBox="0 3363.44 2378.3925 1681.72" width="2378.3925" height="1681.72">
<path xmlns="http://www.w3.org/2000/svg" fill-rule="nonzero" fill="rgb(10.572815%, 9.655762%, 10.258484%)" fill-opacity="1" d="M 1905.199219 4754.269531 C 1897.753906 4754.269531 1891.699219 4760.324219 1891.699219 4767.769531 C 1891.699219 4775.210938 1897.753906 4781.269531 1905.199219 4781.269531 C 1912.644531 4781.269531 1918.699219 4775.210938 1918.699219 4767.769531 C 1918.699219 4760.324219 1912.644531 4754.269531 1905.199219 4754.269531 M 1905.199219 4758.769531 C 1910.171875 4758.769531 1914.199219 4762.796875 1914.199219 4767.769531 C 1914.199219 4772.738281 1910.171875 4776.769531 1905.199219 4776.769531 C 1900.230469 4776.769531 1896.199219 4772.738281 1896.199219 4767.769531 C 1896.199219 4762.796875 1900.230469 4758.769531 1905.199219 4758.769531 "/>
<path xmlns="http://www.w3.org/2000/svg" fill-rule="nonzero" fill="rgb(10.572815%, 9.655762%, 10.258484%)" fill-opacity="1" d="M 2310.199219 4754.269531 C 2302.757812 4754.269531 2296.699219 4760.324219 2296.699219 4767.769531 C 2296.699219 4775.210938 2302.757812 4781.269531 2310.199219 4781.269531 C 2317.644531 4781.269531 2323.699219 4775.210938 2323.699219 4767.769531 C 2323.699219 4760.324219 2317.644531 4754.269531 2310.199219 4754.269531 M 2310.199219 4758.769531 C 2315.171875 4758.769531 2319.199219 4762.796875 2319.199219 4767.769531 C 2319.199219 4772.738281 2315.171875 4776.769531 2310.199219 4776.769531 C 2305.230469 4776.769531 2301.199219 4772.738281 2301.199219 4767.769531 C 2301.199219 4762.796875 2305.230469 4758.769531 2310.199219 4758.769531 "/>
<path xmlns="http://www.w3.org/2000/svg" fill-rule="nonzero" fill="rgb(10.572815%, 9.655762%, 10.258484%)" fill-opacity="1" d="M 1500.199219 4754.269531 C 1492.753906 4754.269531 1486.699219 4760.324219 1486.699219 4767.769531 C 1486.699219 4775.210938 1492.753906 4781.269531 1500.199219 4781.269531 C 1507.644531 4781.269531 1513.699219 4775.210938 1513.699219 4767.769531 C 1513.699219 4760.324219 1507.644531 4754.269531 1500.199219 4754.269531 M 1500.199219 4758.769531 C 1505.171875 4758.769531 1509.199219 4762.796875 1509.199219 4767.769531 C 1509.199219 4772.738281 1505.171875 4776.769531 1500.199219 4776.769531 C 1495.230469 4776.769531 1491.199219 4772.738281 1491.199219 4767.769531 C 1491.199219 4762.796875 1495.230469 4758.769531 1500.199219 4758.769531 "/>
<path xmlns="http://www.w3.org/2000/svg" fill-rule="nonzero" fill="rgb(10.572815%, 9.655762%, 10.258484%)" fill-opacity="1" d="M 2107.699219 4754.269531 C 2100.257812 4754.269531 2094.199219 4760.324219 2094.199219 4767.769531 C 2094.199219 4775.210938 2100.257812 4781.269531 2107.699219 4781.269531 C 2115.144531 4781.269531 2121.199219 4775.210938 2121.199219 4767.769531 C 2121.199219 4760.324219 2115.144531 4754.269531 2107.699219 4754.269531 M 2107.699219 4758.769531 C 2112.671875 4758.769531 2116.699219 4762.796875 2116.699219 4767.769531 C 2116.699219 4772.738281 2112.671875 4776.769531 2107.699219 4776.769531 C 2102.730469 4776.769531 2098.699219 4772.738281 2098.699219 4767.769531 C 2098.699219 4762.796875 2102.730469 4758.769531 2107.699219 4758.769531 "/>
<path xmlns="http://www.w3.org/2000/svg" fill-rule="nonzero" fill="rgb(10.572815%, 9.655762%, 10.258484%)" fill-opacity="1" d="M 1702.699219 4754.269531 C 1695.253906 4754.269531 1689.199219 4760.324219 1689.199219 4767.769531 C 1689.199219 4775.210938 1695.253906 4781.269531 1702.699219 4781.269531 C 1710.144531 4781.269531 1716.199219 4775.210938 1716.199219 4767.769531 C 1716.199219 4760.324219 1710.144531 4754.269531 1702.699219 4754.269531 M 1702.699219 4758.769531 C 1707.671875 4758.769531 1711.699219 4762.796875 1711.699219 4767.769531 C 1711.699219 4772.738281 1707.671875 4776.769531 1702.699219 4776.769531 C 1697.730469 4776.769531 1693.699219 4772.738281 1693.699219 4767.769531 C 1693.699219 4762.796875 1697.730469 4758.769531 1702.699219 4758.769531 "/>
<path xmlns="http://www.w3.org/2000/svg" fill-rule="nonzero" fill="rgb(10.572815%, 9.655762%, 10.258484%)" fill-opacity="1" d="M 790.984375 4427.324219 C 787.378906 4427.324219 783.988281 4428.726562 781.4375 4431.277344 C 776.175781 4436.539062 776.175781 4445.105469 781.4375 4450.367188 C 783.988281 4452.917969 787.378906 4454.324219 790.984375 4454.324219 C 794.589844 4454.324219 797.980469 4452.917969 800.53125 4450.367188 C 805.796875 4445.105469 805.796875 4436.539062 800.53125 4431.277344 C 797.980469 4428.726562 794.589844 4427.324219 790.984375 4427.324219 M 790.984375 4431.824219 C 793.289062 4431.824219 795.589844 4432.703125 797.347656 4434.457031 C 800.863281 4437.972656 800.863281 4443.671875 797.347656 4447.1875 C 795.589844 4448.945312 793.289062 4449.824219 790.984375 4449.824219 C 788.683594 4449.824219 786.378906 4448.945312 784.621094 4447.1875 C 781.105469 4443.671875 781.105469 4437.972656 784.621094 4434.457031 C 786.378906 4432.703125 788.683594 4431.824219 790.984375 4431.824219 "/>
<path xmlns="http://www.w3.org/2000/svg" fill-rule="nonzero" fill="rgb(10.572815%, 9.655762%, 10.258484%)" fill-opacity="1" d="M 809.65625 4589.246094 C 806.050781 4589.246094 802.660156 4590.648438 800.109375 4593.199219 C 794.847656 4598.464844 794.847656 4607.027344 800.109375 4612.289062 C 802.660156 4614.839844 806.050781 4616.246094 809.65625 4616.246094 C 813.261719 4616.246094 816.652344 4614.839844 819.203125 4612.289062 C 821.75 4609.742188 823.15625 4606.351562 823.15625 4602.746094 C 823.15625 4599.140625 821.75 4595.75 819.203125 4593.199219 C 816.652344 4590.648438 813.261719 4589.246094 809.65625 4589.246094 M 809.65625 4593.746094 C 811.960938 4593.746094 814.261719 4594.625 816.019531 4596.382812 C 819.535156 4599.894531 819.535156 4605.59375 816.019531 4609.109375 C 814.261719 4610.867188 811.960938 4611.746094 809.65625 4611.746094 C 807.351562 4611.746094 805.050781 4610.867188 803.292969 4609.109375 C 799.777344 4605.59375 799.777344 4599.894531 803.292969 4596.382812 C 805.050781 4594.625 807.351562 4593.746094 809.65625 4593.746094 "/>
<path xmlns="http://www.w3.org/2000/svg" fill-rule="nonzero" fill="rgb(10.572815%, 9.655762%, 10.258484%)" fill-opacity="1" d="M 1297.699219 4754.269531 C 1290.253906 4754.269531 1284.199219 4760.324219 1284.199219 4767.769531 C 1284.199219 4775.210938 1290.253906 4781.269531 1297.699219 4781.269531 C 1305.144531 4781.269531 1311.199219 4775.210938 1311.199219 4767.769531 C 1311.199219 4760.324219 1305.144531 4754.269531 1297.699219 4754.269531 M 1297.699219 4758.769531 C 1302.671875 4758.769531 1306.699219 4762.796875 1306.699219 4767.769531 C 1306.699219 4772.738281 1302.671875 4776.769531 1297.699219 4776.769531 C 1292.730469 4776.769531 1288.699219 4772.738281 1288.699219 4767.769531 C 1288.699219 4762.796875 1292.730469 4758.769531 1297.699219 4758.769531 "/>
<path xmlns="http://www.w3.org/2000/svg" fill-rule="nonzero" fill="rgb(10.572815%, 9.655762%, 10.258484%)" fill-opacity="1" d="M 1914.199219 3480.984375 C 1906.753906 3480.984375 1900.699219 3487.039062 1900.699219 3494.484375 C 1900.699219 3501.925781 1906.753906 3507.984375 1914.199219 3507.984375 C 1921.644531 3507.984375 1927.699219 3501.925781 1927.699219 3494.484375 C 1927.699219 3487.039062 1921.644531 3480.984375 1914.199219 3480.984375 M 1914.199219 3485.484375 C 1919.171875 3485.484375 1923.199219 3489.511719 1923.199219 3494.484375 C 1923.199219 3499.453125 1919.171875 3503.484375 1914.199219 3503.484375 C 1909.230469 3503.484375 1905.199219 3499.453125 1905.199219 3494.484375 C 1905.199219 3489.511719 1909.230469 3485.484375 1914.199219 3485.484375 "/>
<path xmlns="http://www.w3.org/2000/svg" fill-rule="nonzero" fill="rgb(10.572815%, 9.655762%, 10.258484%)" fill-opacity="1" d="M 1954.699219 3912.125 C 1947.253906 3912.125 1941.199219 3918.183594 1941.199219 3925.625 C 1941.199219 3933.070312 1947.253906 3939.125 1954.699219 3939.125 C 1962.144531 3939.125 1968.199219 3933.070312 1968.199219 3925.625 C 1968.199219 3918.183594 1962.144531 3912.125 1954.699219 3912.125 M 1954.699219 3916.625 C 1959.671875 3916.625 1963.699219 3920.65625 1963.699219 3925.625 C 1963.699219 3930.597656 1959.671875 3934.625 1954.699219 3934.625 C 1949.730469 3934.625 1945.699219 3930.597656 1945.699219 3925.625 C 1945.699219 3920.65625 1949.730469 3916.625 1954.699219 3916.625 "/>
<path xmlns="http://www.w3.org/2000/svg" fill-rule="nonzero" fill="rgb(10.572815%, 9.655762%, 10.258484%)" fill-opacity="1" d="M 1914.199219 3681.554688 C 1906.753906 3681.554688 1900.699219 3687.609375 1900.699219 3695.054688 C 1900.699219 3702.5 1906.753906 3708.554688 1914.199219 3708.554688 C 1921.644531 3708.554688 1927.699219 3702.5 1927.699219 3695.054688 C 1927.699219 3687.609375 1921.644531 3681.554688 1914.199219 3681.554688 M 1914.199219 3686.054688 C 1919.171875 3686.054688 1923.199219 3690.082031 1923.199219 3695.054688 C 1923.199219 3700.023438 1919.171875 3704.054688 1914.199219 3704.054688 C 1909.230469 3704.054688 1905.199219 3700.023438 1905.199219 3695.054688 C 1905.199219 3690.082031 1909.230469 3686.054688 1914.199219 3686.054688 "/>
<path xmlns="http://www.w3.org/2000/svg" fill-rule="nonzero" fill="rgb(10.572815%, 9.655762%, 10.258484%)" fill-opacity="1" d="M 2157.199219 4112.699219 C 2149.753906 4112.699219 2143.699219 4118.753906 2143.699219 4126.199219 C 2143.699219 4133.640625 2149.753906 4139.699219 2157.199219 4139.699219 C 2164.644531 4139.699219 2170.699219 4133.640625 2170.699219 4126.199219 C 2170.699219 4118.753906 2164.644531 4112.699219 2157.199219 4112.699219 M 2157.199219 4117.199219 C 2162.171875 4117.199219 2166.199219 4121.226562 2166.199219 4126.199219 C 2166.199219 4131.167969 2162.171875 4135.199219 2157.199219 4135.199219 C 2152.230469 4135.199219 2148.199219 4131.167969 2148.199219 4126.199219 C 2148.199219 4121.226562 2152.230469 4117.199219 2157.199219 4117.199219 "/>
<path xmlns="http://www.w3.org/2000/svg" fill-rule="nonzero" fill="rgb(10.572815%, 9.655762%, 10.258484%)" fill-opacity="1" d="M 2355.199219 4313.269531 C 2347.753906 4313.269531 2341.699219 4319.324219 2341.699219 4326.769531 C 2341.699219 4334.210938 2347.753906 4340.269531 2355.199219 4340.269531 C 2362.644531 4340.269531 2368.699219 4334.210938 2368.699219 4326.769531 C 2368.699219 4319.324219 2362.644531 4313.269531 2355.199219 4313.269531 M 2355.199219 4317.769531 C 2360.171875 4317.769531 2364.199219 4321.796875 2364.199219 4326.769531 C 2364.199219 4331.738281 2360.171875 4335.769531 2355.199219 4335.769531 C 2350.230469 4335.769531 2346.199219 4331.738281 2346.199219 4326.769531 C 2346.199219 4321.796875 2350.230469 4317.769531 2355.199219 4317.769531 "/>
<path xmlns="http://www.w3.org/2000/svg" fill-rule="nonzero" fill="rgb(10.572815%, 9.655762%, 10.258484%)" fill-opacity="1" d="M 1033.722656 4668.324219 C 1032.277344 4668.324219 1030.914062 4668.886719 1029.890625 4669.910156 L 1019.09375 4680.707031 C 1017.820312 4681.984375 1017.261719 4683.800781 1017.601562 4685.570312 C 1017.945312 4687.339844 1019.136719 4688.820312 1020.792969 4689.53125 L 1039.6875 4697.628906 C 1040.371094 4697.921875 1041.089844 4698.070312 1041.828125 4698.070312 C 1043.652344 4698.070312 1045.347656 4697.15625 1046.355469 4695.625 C 1047.359375 4694.101562 1047.53125 4692.1875 1046.808594 4690.503906 L 1038.710938 4671.609375 C 1037.855469 4669.613281 1035.898438 4668.324219 1033.722656 4668.324219 M 1033.722656 4672.824219 C 1034.074219 4672.824219 1034.421875 4673.019531 1034.578125 4673.382812 L 1042.675781 4692.277344 C 1042.949219 4692.921875 1042.449219 4693.570312 1041.828125 4693.570312 C 1041.710938 4693.570312 1041.585938 4693.542969 1041.460938 4693.492188 L 1022.566406 4685.394531 C 1021.964844 4685.136719 1021.8125 4684.351562 1022.277344 4683.890625 L 1033.074219 4673.09375 C 1033.257812 4672.910156 1033.492188 4672.824219 1033.722656 4672.824219 "/>
</svg>
