<?xml version="1.0" encoding="UTF-8"?>
<svg xmlns="http://www.w3.org/2000/svg" xmlns:xlink="http://www.w3.org/1999/xlink" viewBox="0 1681.72 2378.3925 1681.72" width="2378.3925" height="1681.72">
<path xmlns="http://www.w3.org/2000/svg" fill-rule="nonzero" fill="rgb(10.572815%, 9.655762%, 10.258484%)" fill-opacity="1" d="M 1237.804688 2034.972656 C 1233.390625 2037.515625 1229.550781 2030.878906 1234.082031 2028.25 L 1252.550781 2017.574219 L 1253.175781 1982.707031 L 1259.984375 1978.769531 L 1266.40625 2009.398438 L 1280.210938 2001.417969 L 1281.441406 1992.785156 L 1286.820312 1989.675781 L 1289.292969 2000.480469 L 1297.441406 2008.046875 L 1292.0625 2011.160156 L 1283.984375 2007.949219 L 1270.183594 2015.925781 L 1293.515625 2036.78125 L 1286.707031 2040.714844 L 1256.394531 2024.226562 Z M 1237.804688 2034.972656 "/>
<path xmlns="http://www.w3.org/2000/svg" fill-rule="nonzero" fill="rgb(10.572815%, 9.655762%, 10.258484%)" fill-opacity="1" d="M 1914.199219 2996.636719 C 1906.753906 2996.636719 1900.699219 3002.691406 1900.699219 3010.136719 C 1900.699219 3017.578125 1906.753906 3023.636719 1914.199219 3023.636719 C 1921.644531 3023.636719 1927.699219 3017.578125 1927.699219 3010.136719 C 1927.699219 3002.691406 1921.644531 2996.636719 1914.199219 2996.636719 M 1914.199219 3001.136719 C 1919.171875 3001.136719 1923.199219 3005.164062 1923.199219 3010.136719 C 1923.199219 3015.105469 1919.171875 3019.136719 1914.199219 3019.136719 C 1909.230469 3019.136719 1905.199219 3015.105469 1905.199219 3010.136719 C 1905.199219 3005.164062 1909.230469 3001.136719 1914.199219 3001.136719 "/>
<path xmlns="http://www.w3.org/2000/svg" fill-rule="nonzero" fill="rgb(10.572815%, 9.655762%, 10.258484%)" fill-opacity="1" d="M 1914.199219 3110.851562 C 1906.753906 3110.851562 1900.699219 3116.910156 1900.699219 3124.351562 C 1900.699219 3131.796875 1906.753906 3137.851562 1914.199219 3137.851562 C 1921.644531 3137.851562 1927.699219 3131.796875 1927.699219 3124.351562 C 1927.699219 3116.910156 1921.644531 3110.851562 1914.199219 3110.851562 M 1914.199219 3115.351562 C 1919.171875 3115.351562 1923.199219 3119.382812 1923.199219 3124.351562 C 1923.199219 3129.324219 1919.171875 3133.351562 1914.199219 3133.351562 C 1909.230469 3133.351562 1905.199219 3129.324219 1905.199219 3124.351562 C 1905.199219 3119.382812 1909.230469 3115.351562 1914.199219 3115.351562 "/>
<path xmlns="http://www.w3.org/2000/svg" fill-rule="nonzero" fill="rgb(10.572815%, 9.655762%, 10.258484%)" fill-opacity="1" d="M 1914.199219 3230.410156 C 1906.753906 3230.410156 1900.699219 3236.46875 1900.699219 3243.910156 C 1900.699219 3251.355469 1906.753906 3257.410156 1914.199219 3257.410156 C 1921.644531 3257.410156 1927.699219 3251.355469 1927.699219 3243.910156 C 1927.699219 3236.46875 1921.644531 3230.410156 1914.199219 3230.410156 M 1914.199219 3234.910156 C 1919.171875 3234.910156 1923.199219 3238.941406 1923.199219 3243.910156 C 1923.199219 3248.882812 1919.171875 3252.910156 1914.199219 3252.910156 C 1909.230469 3252.910156 1905.199219 3248.882812 1905.199219 3243.910156 C 1905.199219 3238.941406 1909.230469 3234.910156 1914.199219 3234.910156 "/>
<path xmlns="http://www.w3.org/2000/svg" fill-rule="nonzero" fill="rgb(10.572815%, 9.655762%, 10.258484%)" fill-opacity="1" d="M 2314.699219 2740.613281 C 2307.257812 2740.613281 2301.199219 2746.667969 2301.199219 2754.113281 C 2301.199219 2761.554688 2307.257812 2767.613281 2314.699219 2767.613281 C 2322.144531 2767.613281 2328.199219 2761.554688 2328.199219 2754.113281 C 2328.199219 2746.667969 2322.144531 2740.613281 2314.699219 2740.613281 M 2314.699219 2745.113281 C 2319.671875 2745.113281 2323.699219 2749.140625 2323.699219 2754.113281 C 2323.699219 2759.082031 2319.671875 2763.113281 2314.699219 2763.113281 C 2309.730469 2763.113281 2305.699219 2759.082031 2305.699219 2754.113281 C 2305.699219 2749.140625 2309.730469 2745.113281 2314.699219 2745.113281 "/>
<path xmlns="http://www.w3.org/2000/svg" fill-rule="nonzero" fill="rgb(10.572815%, 9.655762%, 10.258484%)" fill-opacity="1" d="M 2314.699219 2718.113281 C 2307.257812 2718.113281 2301.199219 2724.167969 2301.199219 2731.613281 C 2301.199219 2739.054688 2307.257812 2745.113281 2314.699219 2745.113281 C 2322.144531 2745.113281 2328.199219 2739.054688 2328.199219 2731.613281 C 2328.199219 2724.167969 2322.144531 2718.113281 2314.699219 2718.113281 M 2314.699219 2722.613281 C 2319.671875 2722.613281 2323.699219 2726.640625 2323.699219 2731.613281 C 2323.699219 2736.582031 2319.671875 2740.613281 2314.699219 2740.613281 C 2309.730469 2740.613281 2305.699219 2736.582031 2305.699219 2731.613281 C 2305.699219 2726.640625 2309.730469 2722.613281 2314.699219 2722.613281 "/>
<path xmlns="http://www.w3.org/2000/svg" fill-rule="nonzero" fill="rgb(10.572815%, 9.655762%, 10.258484%)" fill-opacity="1" d="M 2179.699219 2740.613281 C 2172.257812 2740.613281 2166.199219 2746.667969 2166.199219 2754.113281 C 2166.199219 2761.554688 2172.257812 2767.613281 2179.699219 2767.613281 C 2187.144531 2767.613281 2193.199219 2761.554688 2193.199219 2754.113281 C 2193.199219 2746.667969 2187.144531 2740.613281 2179.699219 2740.613281 M 2179.699219 2745.113281 C 2184.671875 2745.113281 2188.699219 2749.140625 2188.699219 2754.113281 C 2188.699219 2759.082031 2184.671875 2763.113281 2179.699219 2763.113281 C 2174.730469 2763.113281 2170.699219 2759.082031 2170.699219 2754.113281 C 2170.699219 2749.140625 2174.730469 2745.113281 2179.699219 2745.113281 "/>
<path xmlns="http://www.w3.org/2000/svg" fill-rule="nonzero" fill="rgb(10.572815%, 9.655762%, 10.258484%)" fill-opacity="1" d="M 2179.699219 2763.113281 C 2172.257812 2763.113281 2166.199219 2769.167969 2166.199219 2776.613281 C 2166.199219 2784.054688 2172.257812 2790.113281 2179.699219 2790.113281 C 2187.144531 2790.113281 2193.199219 2784.054688 2193.199219 2776.613281 C 2193.199219 2769.167969 2187.144531 2763.113281 2179.699219 2763.113281 M 2179.699219 2767.613281 C 2184.671875 2767.613281 2188.699219 2771.640625 2188.699219 2776.613281 C 2188.699219 2781.582031 2184.671875 2785.613281 2179.699219 2785.613281 C 2174.730469 2785.613281 2170.699219 2781.582031 2170.699219 2776.613281 C 2170.699219 2771.640625 2174.730469 2767.613281 2179.699219 2767.613281 "/>
<path xmlns="http://www.w3.org/2000/svg" fill-rule="nonzero" fill="rgb(10.572815%, 9.655762%, 10.258484%)" fill-opacity="1" d="M 2179.699219 2718.113281 C 2172.257812 2718.113281 2166.199219 2724.167969 2166.199219 2731.613281 C 2166.199219 2739.054688 2172.257812 2745.113281 2179.699219 2745.113281 C 2187.144531 2745.113281 2193.199219 2739.054688 2193.199219 2731.613281 C 2193.199219 2724.167969 2187.144531 2718.113281 2179.699219 2718.113281 M 2179.699219 2722.613281 C 2184.671875 2722.613281 2188.699219 2726.640625 2188.699219 2731.613281 C 2188.699219 2736.582031 2184.671875 2740.613281 2179.699219 2740.613281 C 2174.730469 2740.613281 2170.699219 2736.582031 2170.699219 2731.613281 C 2170.699219 2726.640625 2174.730469 2722.613281 2179.699219 2722.613281 "/>
<path xmlns="http://www.w3.org/2000/svg" fill-rule="nonzero" fill="rgb(10.572815%, 9.655762%, 10.258484%)" fill-opacity="1" d="M 2314.699219 2763.113281 C 2307.257812 2763.113281 2301.199219 2769.167969 2301.199219 2776.613281 C 2301.199219 2784.054688 2307.257812 2790.113281 2314.699219 2790.113281 C 2322.144531 2790.113281 2328.199219 2784.054688 2328.199219 2776.613281 C 2328.199219 2769.167969 2322.144531 2763.113281 2314.699219 2763.113281 M 2314.699219 2767.613281 C 2319.671875 2767.613281 2323.699219 2771.640625 2323.699219 2776.613281 C 2323.699219 2781.582031 2319.671875 2785.613281 2314.699219 2785.613281 C 2309.730469 2785.613281 2305.699219 2781.582031 2305.699219 2776.613281 C 2305.699219 2771.640625 2309.730469 2767.613281 2314.699219 2767.613281 "/>
<path xmlns="http://www.w3.org/2000/svg" fill-rule="nonzero" fill="rgb(10.572815%, 9.655762%, 10.258484%)" fill-opacity="1" d="M 1751.558594 2718.113281 C 1744.113281 2718.113281 1738.058594 2724.167969 1738.058594 2731.613281 C 1738.058594 2739.054688 1744.113281 2745.113281 1751.558594 2745.113281 C 1759 2745.113281 1765.058594 2739.054688 1765.058594 2731.613281 C 1765.058594 2724.167969 1759 2718.113281 1751.558594 2718.113281 M 1751.558594 2722.613281 C 1756.527344 2722.613281 1760.558594 2726.640625 1760.558594 2731.613281 C 1760.558594 2736.582031 1756.527344 2740.613281 1751.558594 2740.613281 C 1746.585938 2740.613281 1742.558594 2736.582031 1742.558594 2731.613281 C 1742.558594 2726.640625 1746.585938 2722.613281 1751.558594 2722.613281 "/>
<path xmlns="http://www.w3.org/2000/svg" fill-rule="nonzero" fill="rgb(10.572815%, 9.655762%, 10.258484%)" fill-opacity="1" d="M 1624.914062 2718.113281 C 1617.46875 2718.113281 1611.414062 2724.167969 1611.414062 2731.613281 C 1611.414062 2739.054688 1617.46875 2745.113281 1624.914062 2745.113281 C 1632.359375 2745.113281 1638.414062 2739.054688 1638.414062 2731.613281 C 1638.414062 2724.167969 1632.359375 2718.113281 1624.914062 2718.113281 M 1624.914062 2722.613281 C 1629.886719 2722.613281 1633.914062 2726.640625 1633.914062 2731.613281 C 1633.914062 2736.582031 1629.886719 2740.613281 1624.914062 2740.613281 C 1619.941406 2740.613281 1615.914062 2736.582031 1615.914062 2731.613281 C 1615.914062 2726.640625 1619.941406 2722.613281 1624.914062 2722.613281 "/>
<path xmlns="http://www.w3.org/2000/svg" fill-rule="nonzero" fill="rgb(10.572815%, 9.655762%, 10.258484%)" fill-opacity="1" d="M 1371.628906 2718.113281 C 1364.183594 2718.113281 1358.128906 2724.167969 1358.128906 2731.613281 C 1358.128906 2739.054688 1364.183594 2745.113281 1371.628906 2745.113281 C 1379.070312 2745.113281 1385.128906 2739.054688 1385.128906 2731.613281 C 1385.128906 2724.167969 1379.070312 2718.113281 1371.628906 2718.113281 M 1371.628906 2722.613281 C 1376.597656 2722.613281 1380.628906 2726.640625 1380.628906 2731.613281 C 1380.628906 2736.582031 1376.597656 2740.613281 1371.628906 2740.613281 C 1366.65625 2740.613281 1362.628906 2736.582031 1362.628906 2731.613281 C 1362.628906 2726.640625 1366.65625 2722.613281 1371.628906 2722.613281 "/>
<path xmlns="http://www.w3.org/2000/svg" fill-rule="nonzero" fill="rgb(10.572815%, 9.655762%, 10.258484%)" fill-opacity="1" d="M 1878.199219 2718.113281 C 1870.753906 2718.113281 1864.699219 2724.167969 1864.699219 2731.613281 C 1864.699219 2739.054688 1870.753906 2745.113281 1878.199219 2745.113281 C 1885.644531 2745.113281 1891.699219 2739.054688 1891.699219 2731.613281 C 1891.699219 2724.167969 1885.644531 2718.113281 1878.199219 2718.113281 M 1878.199219 2722.613281 C 1883.171875 2722.613281 1887.199219 2726.640625 1887.199219 2731.613281 C 1887.199219 2736.582031 1883.171875 2740.613281 1878.199219 2740.613281 C 1873.230469 2740.613281 1869.199219 2736.582031 1869.199219 2731.613281 C 1869.199219 2726.640625 1873.230469 2722.613281 1878.199219 2722.613281 "/>
<path xmlns="http://www.w3.org/2000/svg" fill-rule="nonzero" fill="rgb(10.572815%, 9.655762%, 10.258484%)" fill-opacity="1" d="M 1498.269531 2718.113281 C 1490.828125 2718.113281 1484.769531 2724.167969 1484.769531 2731.613281 C 1484.769531 2739.054688 1490.828125 2745.113281 1498.269531 2745.113281 C 1505.714844 2745.113281 1511.769531 2739.054688 1511.769531 2731.613281 C 1511.769531 2724.167969 1505.714844 2718.113281 1498.269531 2718.113281 M 1498.269531 2722.613281 C 1503.242188 2722.613281 1507.269531 2726.640625 1507.269531 2731.613281 C 1507.269531 2736.582031 1503.242188 2740.613281 1498.269531 2740.613281 C 1493.300781 2740.613281 1489.269531 2736.582031 1489.269531 2731.613281 C 1489.269531 2726.640625 1493.300781 2722.613281 1498.269531 2722.613281 "/>
<path xmlns="http://www.w3.org/2000/svg" fill-rule="nonzero" fill="rgb(10.572815%, 9.655762%, 10.258484%)" fill-opacity="1" d="M 1751.558594 2740.613281 C 1744.113281 2740.613281 1738.058594 2746.667969 1738.058594 2754.113281 C 1738.058594 2761.554688 1744.113281 2767.613281 1751.558594 2767.613281 C 1759 2767.613281 1765.058594 2761.554688 1765.058594 2754.113281 C 1765.058594 2746.667969 1759 2740.613281 1751.558594 2740.613281 M 1751.558594 2745.113281 C 1756.527344 2745.113281 1760.558594 2749.140625 1760.558594 2754.113281 C 1760.558594 2759.082031 1756.527344 2763.113281 1751.558594 2763.113281 C 1746.585938 2763.113281 1742.558594 2759.082031 1742.558594 2754.113281 C 1742.558594 2749.140625 1746.585938 2745.113281 1751.558594 2745.113281 "/>
<path xmlns="http://www.w3.org/2000/svg" fill-rule="nonzero" fill="rgb(10.572815%, 9.655762%, 10.258484%)" fill-opacity="1" d="M 1624.914062 2740.613281 C 1617.46875 2740.613281 1611.414062 2746.667969 1611.414062 2754.113281 C 1611.414062 2761.554688 1617.46875 2767.613281 1624.914062 2767.613281 C 1632.359375 2767.613281 1638.414062 2761.554688 1638.414062 2754.113281 C 1638.414062 2746.667969 1632.359375 2740.613281 1624.914062 2740.613281 M 1624.914062 2745.113281 C 1629.886719 2745.113281 1633.914062 2749.140625 1633.914062 2754.113281 C 1633.914062 2759.082031 1629.886719 2763.113281 1624.914062 2763.113281 C 1619.941406 2763.113281 1615.914062 2759.082031 1615.914062 2754.113281 C 1615.914062 2749.140625 1619.941406 2745.113281 1624.914062 2745.113281 "/>
<path xmlns="http://www.w3.org/2000/svg" fill-rule="nonzero" fill="rgb(10.572815%, 9.655762%, 10.258484%)" fill-opacity="1" d="M 1371.628906 2740.613281 C 1364.183594 2740.613281 1358.128906 2746.667969 1358.128906 2754.113281 C 1358.128906 2761.554688 1364.183594 2767.613281 1371.628906 2767.613281 C 1379.070312 2767.613281 1385.128906 2761.554688 1385.128906 2754.113281 C 1385.128906 2746.667969 1379.070312 2740.613281 1371.628906 2740.613281 M 1371.628906 2745.113281 C 1376.597656 2745.113281 1380.628906 2749.140625 1380.628906 2754.113281 C 1380.628906 2759.082031 1376.597656 2763.113281 1371.628906 2763.113281 C 1366.65625 2763.113281 1362.628906 2759.082031 1362.628906 2754.113281 C 1362.628906 2749.140625 1366.65625 2745.113281 1371.628906 2745.113281 "/>
<path xmlns="http://www.w3.org/2000/svg" fill-rule="nonzero" fill="rgb(10.572815%, 9.655762%, 10.258484%)" fill-opacity="1" d="M 1878.199219 2740.613281 C 1870.753906 2740.613281 1864.699219 2746.667969 1864.699219 2754.113281 C 1864.699219 2761.554688 1870.753906 2767.613281 1878.199219 2767.613281 C 1885.644531 2767.613281 1891.699219 2761.554688 1891.699219 2754.113281 C 1891.699219 2746.667969 1885.644531 2740.613281 1878.199219 2740.613281 M 1878.199219 2745.113281 C 1883.171875 2745.113281 1887.199219 2749.140625 1887.199219 2754.113281 C 1887.199219 2759.082031 1883.171875 2763.113281 1878.199219 2763.113281 C 1873.230469 2763.113281 1869.199219 2759.082031 1869.199219 2754.113281 C 1869.199219 2749.140625 1873.230469 2745.113281 1878.199219 2745.113281 "/>
<path xmlns="http://www.w3.org/2000/svg" fill-rule="nonzero" fill="rgb(10.572815%, 9.655762%, 10.258484%)" fill-opacity="1" d="M 1244.984375 2740.613281 C 1237.542969 2740.613281 1231.484375 2746.667969 1231.484375 2754.113281 C 1231.484375 2761.554688 1237.542969 2767.613281 1244.984375 2767.613281 C 1252.429688 2767.613281 1258.484375 2761.554688 1258.484375 2754.113281 C 1258.484375 2746.667969 1252.429688 2740.613281 1244.984375 2740.613281 M 1244.984375 2745.113281 C 1249.957031 2745.113281 1253.984375 2749.140625 1253.984375 2754.113281 C 1253.984375 2759.082031 1249.957031 2763.113281 1244.984375 2763.113281 C 1240.015625 2763.113281 1235.984375 2759.082031 1235.984375 2754.113281 C 1235.984375 2749.140625 1240.015625 2745.113281 1244.984375 2745.113281 "/>
<path xmlns="http://www.w3.org/2000/svg" fill-rule="nonzero" fill="rgb(10.572815%, 9.655762%, 10.258484%)" fill-opacity="1" d="M 1118.34375 2740.613281 C 1110.898438 2740.613281 1104.84375 2746.667969 1104.84375 2754.113281 C 1104.84375 2761.554688 1110.898438 2767.613281 1118.34375 2767.613281 C 1125.785156 2767.613281 1131.84375 2761.554688 1131.84375 2754.113281 C 1131.84375 2746.667969 1125.785156 2740.613281 1118.34375 2740.613281 M 1118.34375 2745.113281 C 1123.3125 2745.113281 1127.34375 2749.140625 1127.34375 2754.113281 C 1127.34375 2759.082031 1123.3125 2763.113281 1118.34375 2763.113281 C 1113.371094 2763.113281 1109.34375 2759.082031 1109.34375 2754.113281 C 1109.34375 2749.140625 1113.371094 2745.113281 1118.34375 2745.113281 "/>
<path xmlns="http://www.w3.org/2000/svg" fill-rule="nonzero" fill="rgb(10.572815%, 9.655762%, 10.258484%)" fill-opacity="1" d="M 991.699219 2740.613281 C 984.253906 2740.613281 978.199219 2746.667969 978.199219 2754.113281 C 978.199219 2761.554688 984.253906 2767.613281 991.699219 2767.613281 C 999.144531 2767.613281 1005.199219 2761.554688 1005.199219 2754.113281 C 1005.199219 2746.667969 999.144531 2740.613281 991.699219 2740.613281 M 991.699219 2745.113281 C 996.671875 2745.113281 1000.699219 2749.140625 1000.699219 2754.113281 C 1000.699219 2759.082031 996.671875 2763.113281 991.699219 2763.113281 C 986.730469 2763.113281 982.699219 2759.082031 982.699219 2754.113281 C 982.699219 2749.140625 986.730469 2745.113281 991.699219 2745.113281 "/>
<path xmlns="http://www.w3.org/2000/svg" fill-rule="nonzero" fill="rgb(10.572815%, 9.655762%, 10.258484%)" fill-opacity="1" d="M 1498.269531 2740.613281 C 1490.828125 2740.613281 1484.769531 2746.667969 1484.769531 2754.113281 C 1484.769531 2761.554688 1490.828125 2767.613281 1498.269531 2767.613281 C 1505.714844 2767.613281 1511.769531 2761.554688 1511.769531 2754.113281 C 1511.769531 2746.667969 1505.714844 2740.613281 1498.269531 2740.613281 M 1498.269531 2745.113281 C 1503.242188 2745.113281 1507.269531 2749.140625 1507.269531 2754.113281 C 1507.269531 2759.082031 1503.242188 2763.113281 1498.269531 2763.113281 C 1493.300781 2763.113281 1489.269531 2759.082031 1489.269531 2754.113281 C 1489.269531 2749.140625 1493.300781 2745.113281 1498.269531 2745.113281 "/>
<path xmlns="http://www.w3.org/2000/svg" fill-rule="nonzero" fill="rgb(100%, 100%, 100%)" fill-opacity="1" d="M 675.023438 2891.234375 C 663.996094 2891.234375 655.023438 2882.265625 655.023438 2871.234375 C 655.023438 2860.207031 663.996094 2851.234375 675.023438 2851.234375 C 686.050781 2851.234375 695.023438 2860.207031 695.023438 2871.234375 C 695.023438 2882.265625 686.050781 2891.234375 675.023438 2891.234375 "/>
<path xmlns="http://www.w3.org/2000/svg" fill-rule="nonzero" fill="rgb(100%, 100%, 100%)" fill-opacity="1" d="M 452.574219 2891.234375 C 441.546875 2891.234375 432.574219 2882.265625 432.574219 2871.234375 C 432.574219 2860.207031 441.546875 2851.234375 452.574219 2851.234375 C 463.601562 2851.234375 472.574219 2860.207031 472.574219 2871.234375 C 472.574219 2882.265625 463.601562 2891.234375 452.574219 2891.234375 "/>
<path xmlns="http://www.w3.org/2000/svg" fill-rule="nonzero" fill="rgb(100%, 100%, 100%)" fill-opacity="1" d="M 896.757812 2891.234375 C 885.730469 2891.234375 876.757812 2882.265625 876.757812 2871.234375 C 876.757812 2860.207031 885.730469 2851.234375 896.757812 2851.234375 C 907.789062 2851.234375 916.757812 2860.207031 916.757812 2871.234375 C 916.757812 2882.265625 907.789062 2891.234375 896.757812 2891.234375 "/>
<path xmlns="http://www.w3.org/2000/svg" fill-rule="nonzero" fill="rgb(100%, 100%, 100%)" fill-opacity="1" d="M 1140.257812 2891.234375 C 1129.230469 2891.234375 1120.257812 2882.265625 1120.257812 2871.234375 C 1120.257812 2860.207031 1129.230469 2851.234375 1140.257812 2851.234375 C 1151.285156 2851.234375 1160.257812 2860.207031 1160.257812 2871.234375 C 1160.257812 2882.265625 1151.285156 2891.234375 1140.257812 2891.234375 "/>
<path xmlns="http://www.w3.org/2000/svg" fill-rule="nonzero" fill="rgb(100%, 100%, 100%)" fill-opacity="1" d="M 1357.941406 2891.234375 C 1346.910156 2891.234375 1337.941406 2882.265625 1337.941406 2871.234375 C 1337.941406 2860.207031 1346.910156 2851.234375 1357.941406 2851.234375 C 1368.96875 2851.234375 1377.941406 2860.207031 1377.941406 2871.234375 C 1377.941406 2882.265625 1368.96875 2891.234375 1357.941406 2891.234375 "/>
<path xmlns="http://www.w3.org/2000/svg" fill-rule="nonzero" fill="rgb(100%, 100%, 100%)" fill-opacity="1" d="M 1581.203125 2891.234375 C 1570.175781 2891.234375 1561.203125 2882.265625 1561.203125 2871.234375 C 1561.203125 2860.207031 1570.175781 2851.234375 1581.203125 2851.234375 C 1592.230469 2851.234375 1601.203125 2860.207031 1601.203125 2871.234375 C 1601.203125 2882.265625 1592.230469 2891.234375 1581.203125 2891.234375 "/>
<path xmlns="http://www.w3.org/2000/svg" fill-rule="nonzero" fill="rgb(100%, 100%, 100%)" fill-opacity="1" d="M 1799.453125 2891.234375 C 1788.421875 2891.234375 1779.453125 2882.265625 1779.453125 2871.234375 C 1779.453125 2860.207031 1788.421875 2851.234375 1799.453125 2851.234375 C 1810.480469 2851.234375 1819.453125 2860.207031 1819.453125 2871.234375 C 1819.453125 2882.265625 1810.480469 2891.234375 1799.453125 2891.234375 "/>
<path xmlns="http://www.w3.org/2000/svg" fill-rule="nonzero" fill="rgb(100%, 100%, 100%)" fill-opacity="1" d="M 232.289062 2891.234375 C 221.261719 2891.234375 212.289062 2882.265625 212.289062 2871.234375 C 212.289062 2860.207031 221.261719 2851.234375 232.289062 2851.234375 C 243.316406 2851.234375 252.289062 2860.207031 252.289062 2871.234375 C 252.289062 2882.265625 243.316406 2891.234375 232.289062 2891.234375 "/>
<path xmlns="http://www.w3.org/2000/svg" fill-rule="nonzero" fill="rgb(100%, 100%, 100%)" fill-opacity="1" d="M 2172.832031 2664.394531 C 2161.804688 2664.394531 2152.832031 2655.421875 2152.832031 2644.394531 C 2152.832031 2633.367188 2161.804688 2624.394531 2172.832031 2624.394531 C 2183.859375 2624.394531 2192.832031 2633.367188 2192.832031 2644.394531 C 2192.832031 2655.421875 2183.859375 2664.394531 2172.832031 2664.394531 "/>
<path xmlns="http://www.w3.org/2000/svg" fill-rule="nonzero" fill="rgb(100%, 100%, 100%)" fill-opacity="1" d="M 226.699219 2829.449219 C 204.730469 2829.449219 186.855469 2811.578125 186.855469 2789.609375 C 186.855469 2767.636719 204.730469 2749.761719 226.699219 2749.761719 C 248.667969 2749.761719 266.542969 2767.636719 266.542969 2789.609375 C 266.542969 2811.578125 248.667969 2829.449219 226.699219 2829.449219 "/>
<path xmlns="http://www.w3.org/2000/svg" fill-rule="nonzero" fill="rgb(10.572815%, 9.655762%, 10.258484%)" fill-opacity="1" d="M 1022.984375 1968.65625 C 1023.03125 1965.445312 1027.855469 1965.507812 1027.820312 1968.804688 L 1027.65625 1982.226562 L 1046.320312 1993.78125 L 1046.257812 1998.730469 L 1027.621094 1992.355469 L 1027.5 2002.390625 L 1031.773438 2005.832031 L 1031.726562 2009.742188 L 1025.085938 2007.605469 L 1018.371094 2009.578125 L 1018.417969 2005.667969 L 1022.753906 2002.332031 L 1022.875 1992.296875 L 1004.089844 1998.214844 L 1004.148438 1993.265625 L 1022.820312 1982.167969 Z M 1022.984375 1968.65625 "/>
</svg>
