<?xml version="1.0" encoding="UTF-8"?>
<svg xmlns="http://www.w3.org/2000/svg" xmlns:xlink="http://www.w3.org/1999/xlink" viewBox="4756.785 1681.72 2378.3925 1681.72" width="2378.3925" height="1681.72">
<path xmlns="http://www.w3.org/2000/svg" fill="none" stroke-width="15" stroke-linecap="butt" stroke-linejoin="miter" stroke="rgb(18.84613%, 31.185913%, 65.649414%)" stroke-opacity="1" stroke-miterlimit="10" d="M -0.00195 -0.00183125 L -2601.486325 -0.00183125 L -2729.279294 -1.001831 L -3579.060544 -1.001831 C -3612.451169 -1.001831 -3639.521481 26.068481 -3639.521481 59.459106 L -3639.521481 374.513794 C -3639.521481 416.213012 -3674.052731 450.744262 -3715.75195 450.744262 L -3743.572263 450.744262 " transform="matrix(1, 0, 0, -1, 7385.1582, 3182.7677)"/>
<path xmlns="http://www.w3.org/2000/svg" fill="none" stroke-width="15" stroke-linecap="butt" stroke-linejoin="miter" stroke="rgb(79.408264%, 34.082031%, 16.569519%)" stroke-opacity="1" stroke-miterlimit="10" d="M -0.00048125 0.000125 L -0.00048125 235.3595 " transform="matrix(1, 0, 0, -1, 5100.1997, 3316.672)"/>
<path xmlns="http://www.w3.org/2000/svg" fill="none" stroke-width="15" stroke-linecap="butt" stroke-linejoin="miter" stroke="rgb(56.92749%, 10.435486%, 16.130066%)" stroke-opacity="1" stroke-miterlimit="10" d="M 0.00195 -0.00088125 L -1118.689456 -0.00088125 L -1161.181644 -0.227444 L -1304.130863 0.147556 L -1562.958988 -0.336819 C -1589.416019 -0.3876 -1614.775394 -10.91885 -1633.482425 -29.629787 L -1839.455081 -235.598537 C -1854.458988 -250.602444 -1874.806644 -259.032131 -1896.025394 -259.032131 L -2445.794925 -259.032131 L -2526.009769 -259.082912 C -2568.228519 -259.082912 -2602.455081 -293.309475 -2602.455081 -335.528225 L -2602.455081 -882.653225 C -2602.455081 -932.836819 -2582.517581 -980.965725 -2547.033206 -1016.4501 L -2507.955081 -1055.532131 L -2371.162113 -1192.3251 C -2331.970706 -1231.5126 -2278.818363 -1253.532131 -2223.396488 -1253.532131 L -1842.099613 -1253.532131 C -1804.548831 -1253.532131 -1768.537113 -1268.446194 -1741.986331 -1295.000881 L -1661.955081 -1375.032131 L -1616.49805 -1420.485256 C -1583.197269 -1453.786037 -1583.197269 -1507.774319 -1616.49805 -1541.0751 L -1771.814456 -1696.391506 " transform="matrix(1, 0, 0, -1, 5033.1543, 2780.7374)"/>
<path xmlns="http://www.w3.org/2000/svg" fill="none" stroke-width="15" stroke-linecap="butt" stroke-linejoin="miter" stroke="rgb(79.408264%, 34.082031%, 16.569519%)" stroke-opacity="1" stroke-miterlimit="10" d="M 0.00191875 -0.001825 L 0.00191875 -149.744012 " transform="matrix(1, 0, 0, -1, 5100.1973, 3115.7638)"/>
<path xmlns="http://www.w3.org/2000/svg" fill="none" stroke-width="15" stroke-linecap="butt" stroke-linejoin="miter" stroke="rgb(30.001831%, 64.794922%, 59.94873%)" stroke-opacity="1" stroke-miterlimit="10" d="M -0.00048125 -0.00083125 L -0.00048125 -760.368019 C -0.00048125 -800.149269 15.804206 -838.301613 43.933112 -866.434425 L 239.565925 -1062.067238 C 267.698737 -1090.196144 305.851081 -1106.000831 345.632331 -1106.000831 L 743.366706 -1106.000831 C 783.151862 -1106.000831 821.304206 -1121.801613 849.433112 -1149.934425 L 1394.999519 -1695.500831 L 1573.526862 -1874.024269 L 1663.030769 -1963.532081 C 1672.440925 -1972.938331 1685.210456 -1978.207863 1698.515144 -1978.176613 L 1791.015144 -1977.938331 L 3597.511237 -1977.938331 " transform="matrix(1, 0, 0, -1, 2454.1997, 2905.7687)"/>
<path xmlns="http://www.w3.org/2000/svg" fill="none" stroke-width="15" stroke-linecap="butt" stroke-linejoin="miter" stroke="rgb(42.337036%, 77.964783%, 45.454407%)" stroke-opacity="1" stroke-miterlimit="10" d="M 0.000525 -0.00039375 L -343.245569 -0.00039375 C -370.862756 -0.00039375 -393.245569 22.386325 -393.245569 49.999606 L -387.878381 75.288669 L -387.878381 119.538669 C -387.878381 158.198825 -419.218225 189.538669 -457.878381 189.538669 L -1179.878381 189.538669 L -1132.476038 189.538669 C -1086.581506 189.538669 -1049.378381 152.335544 -1049.378381 106.441013 L -1049.378381 -256.937894 C -1049.378381 -307.769925 -1008.167444 -348.980862 -957.335413 -348.980862 L 1481.621619 -348.980862 C 1520.281775 -348.980862 1551.621619 -380.320706 1551.621619 -418.980862 L 1551.621619 -801.328519 " transform="matrix(1, 0, 0, -1, 3526.0776, 1568.8082)"/>
<path xmlns="http://www.w3.org/2000/svg" fill="none" stroke-width="15" stroke-linecap="butt" stroke-linejoin="miter" stroke="rgb(42.337036%, 77.964783%, 45.454407%)" stroke-opacity="1" stroke-miterlimit="10" d="M -0.00048125 -0.0018 L -0.00048125 289.791169 " transform="matrix(1, 0, 0, -1, 5077.6997, 2563.4357)"/>
<path xmlns="http://www.w3.org/2000/svg" fill="none" stroke-width="15" stroke-linecap="butt" stroke-linejoin="miter" stroke="rgb(42.337036%, 77.964783%, 45.454407%)" stroke-opacity="1" stroke-miterlimit="10" d="M -0.00044375 -0.00113125 L -67.961381 -0.00113125 C -90.051225 -0.00113125 -107.961381 17.909025 -107.961381 39.998869 L -107.961381 75.834806 " transform="matrix(1, 0, 0, -1, 5185.6606, 2639.2684)"/>
<path xmlns="http://www.w3.org/2000/svg" fill="none" stroke-width="15" stroke-linecap="butt" stroke-linejoin="miter" stroke="rgb(42.337036%, 77.964783%, 45.454407%)" stroke-opacity="1" stroke-miterlimit="10" d="M -0.00095 0.00063125 L 337.069362 0.00063125 C 369.913112 0.00063125 396.542019 26.625631 396.542019 59.469381 L 396.542019 876.567037 C 396.542019 916.813131 363.913112 949.442037 323.667019 949.442037 L 119.682644 949.442037 " transform="matrix(1, 0, 0, -1, 6019.1572, 2395.7936)"/>
<path xmlns="http://www.w3.org/2000/svg" fill="none" stroke-width="15" stroke-linecap="butt" stroke-linejoin="miter" stroke="rgb(42.337036%, 77.964783%, 45.454407%)" stroke-opacity="1" stroke-miterlimit="10" d="M -0.00004375 -0.0001625 L 220.539019 -0.0001625 L 408.886675 0.656088 L 551.18355 0.656088 C 596.742144 0.656088 633.55855 37.812338 633.140581 83.370931 L 632.2148 184.003744 C 632.2148 216.847494 658.843706 243.4764 691.687456 243.4764 L 836.49605 243.4764 " transform="matrix(1, 0, 0, -1, 5184.6602, 2638.8514)"/>
<path xmlns="http://www.w3.org/2000/svg" fill="none" stroke-width="15" stroke-linecap="butt" stroke-linejoin="miter" stroke="rgb(79.408264%, 34.082031%, 16.569519%)" stroke-opacity="1" stroke-miterlimit="10" d="M -0.00048125 0.0018 L -0.00048125 1517.544769 " transform="matrix(1, 0, 0, -1, 5100.1997, 3081.3143)"/>
<path xmlns="http://www.w3.org/2000/svg" fill="none" stroke-width="15" stroke-linecap="butt" stroke-linejoin="miter" stroke="rgb(79.408264%, 34.082031%, 16.569519%)" stroke-opacity="1" stroke-miterlimit="10" d="M 0.0010125 0.00108125 L -28.706019 28.704206 C -47.459925 47.458113 -57.995081 72.895613 -57.995081 99.415144 L -57.995081 367.48155 C -57.995081 388.297956 -66.264613 408.2628 -80.983363 422.985456 L -462.995081 804.993269 L -743.061488 1085.059675 C -771.190394 1113.192488 -786.995081 1151.344831 -786.995081 1191.126081 L -786.995081 1266.090925 " transform="matrix(1, 0, 0, -1, 5887.1943, 4582.7628)"/>
<path xmlns="http://www.w3.org/2000/svg" fill="none" stroke-width="15" stroke-linecap="butt" stroke-linejoin="miter" stroke="rgb(79.408264%, 34.082031%, 16.569519%)" stroke-opacity="1" stroke-miterlimit="10" d="M 0.00101875 0.00056875 L 0.00101875 -160.515056 " transform="matrix(1, 0, 0, -1, 5100.1982, 1851.7701)"/>
<path xmlns="http://www.w3.org/2000/svg" fill="none" stroke-width="15" stroke-linecap="butt" stroke-linejoin="miter" stroke="rgb(56.92749%, 10.435486%, 16.130066%)" stroke-opacity="1" stroke-miterlimit="10" d="M -0.00099375 -0.00088125 L 2.96385 -0.00088125 C 52.694319 -0.00088125 93.010725 40.315525 93.010725 90.045994 L 93.010725 1051.335056 C 93.010725 1072.780369 110.393537 1090.163181 131.834944 1090.163181 L 846.737287 1090.163181 C 902.018537 1090.163181 946.834944 1134.979588 946.834944 1190.260838 L 946.834944 1286.374119 " transform="matrix(1, 0, 0, -1, 5030.1924, 2780.7374)"/>
<path xmlns="http://www.w3.org/2000/svg" fill="none" stroke-width="15" stroke-linecap="butt" stroke-linejoin="miter" stroke="rgb(18.84613%, 31.185913%, 65.649414%)" stroke-opacity="1" stroke-miterlimit="10" d="M -0.00050625 -0.00183125 L 62.8159 -0.00183125 " transform="matrix(1, 0, 0, -1, 5138.9966, 3182.7677)"/>
<path xmlns="http://www.w3.org/2000/svg" fill="none" stroke-width="15" stroke-linecap="butt" stroke-linejoin="miter" stroke="rgb(79.408264%, 34.082031%, 16.569519%)" stroke-opacity="1" stroke-miterlimit="10" d="M 0.00096875 -0.00163125 L 30.3955 -0.00163125 C 84.352531 -0.00163125 128.094719 -43.743819 128.094719 -97.70085 L 128.094719 -130.0446 " transform="matrix(1, 0, 0, -1, 4972.1045, 2757.2054)"/>
<path xmlns="http://www.w3.org/2000/svg" fill="none" stroke-width="15" stroke-linecap="butt" stroke-linejoin="miter" stroke="rgb(94.7052%, 47.77832%, 15.682983%)" stroke-opacity="1" stroke-miterlimit="10" d="M -0.000475 0.00040625 L -0.000475 -65.542562 C -0.000475 -112.714437 -38.238756 -150.952719 -85.410631 -150.952719 L -316.531725 -150.952719 C -323.477038 -150.952719 -329.113756 -145.327719 -329.121569 -138.3785 C -329.129381 -131.433187 -334.7661 -125.804281 -341.711413 -125.804281 L -616.793444 -125.804281 C -633.35985 -125.804281 -646.793444 -112.374594 -646.793444 -95.804281 L -646.793444 -48.84725 C -646.793444 -32.280844 -633.35985 -18.84725 -616.793444 -18.84725 L -359.246569 -18.84725 C -342.676256 -18.84725 -329.246569 -32.280844 -329.246569 -48.84725 L -329.121569 -138.308187 C -329.113756 -145.261312 -323.473131 -150.886312 -316.523913 -150.882406 L -226.059069 -150.827719 " transform="matrix(1, 0, 0, -1, 5456.0161, 3006.6215)"/>
<path xmlns="http://www.w3.org/2000/svg" fill="none" stroke-width="15" stroke-linecap="butt" stroke-linejoin="miter" stroke="rgb(93.244934%, 11.296082%, 40.261841%)" stroke-opacity="1" stroke-miterlimit="10" d="M 0.00045 -0.00113125 L -1716.151894 -0.00113125 " transform="matrix(1, 0, 0, -1, 6285.7808, 3206.2684)"/>
<path xmlns="http://www.w3.org/2000/svg" fill="none" stroke-width="15" stroke-linecap="butt" stroke-linejoin="miter" stroke="rgb(93.244934%, 11.296082%, 40.261841%)" stroke-opacity="1" stroke-miterlimit="10" d="M -0.00141875 -0.0013625 L -0.00141875 142.768169 C -0.00141875 181.979106 -31.786575 213.768169 -71.001419 213.768169 L -153.919388 213.768169 " transform="matrix(1, 0, 0, -1, 6414.9272, 3420.0377)"/>
<path xmlns="http://www.w3.org/2000/svg" fill="none" stroke-width="15" stroke-linecap="butt" stroke-linejoin="miter" stroke="rgb(56.92749%, 10.435486%, 16.130066%)" stroke-opacity="1" stroke-miterlimit="10" d="M -0.00048125 0.0006 L -0.00048125 708.785756 L -1.465325 833.141225 C -1.781731 860.070913 8.776862 885.988881 27.819831 905.03185 L 190.878425 1068.090444 C 212.226081 1089.4381 224.179206 1118.422475 224.089362 1148.613881 L 224.085456 1149.758413 L 223.390144 1248.586538 L 223.390144 3558.606069 C 223.390144 3612.6256 179.597175 3656.418569 125.573737 3656.418569 L -72.000481 3656.418569 " transform="matrix(1, 0, 0, -1, 6216.1997, 5076.1881)"/>
<path xmlns="http://www.w3.org/2000/svg" fill="none" stroke-width="15" stroke-linecap="butt" stroke-linejoin="miter" stroke="rgb(79.408264%, 34.082031%, 16.569519%)" stroke-opacity="1" stroke-miterlimit="10" d="M -0.00143125 -0.00106875 L 684.404819 -0.00106875 L 701.834506 -0.352631 L 1050.2056 -0.352631 C 1104.162631 -0.352631 1147.904819 -44.094819 1147.904819 -98.05185 L 1147.904819 -476.856537 L 1147.904819 -470.356537 C 1147.904819 -431.696381 1116.564975 -400.356537 1077.904819 -400.356537 L -144.563931 -400.356537 C -166.454556 -400.356537 -184.20065 -382.610444 -184.20065 -360.719819 L -184.20065 -61.258881 C -184.20065 -27.42685 -156.774869 -0.00106875 -122.946744 -0.00106875 Z M -0.00143125 -0.00106875 " transform="matrix(1, 0, 0, -1, 3952.2944, 2756.8544)"/>
<path xmlns="http://www.w3.org/2000/svg" fill="none" stroke-width="15" stroke-linecap="butt" stroke-linejoin="miter" stroke="rgb(79.408264%, 34.082031%, 16.569519%)" stroke-opacity="1" stroke-miterlimit="10" d="M -0.00048125 0.00064375 L -0.00048125 -90.229825 " transform="matrix(1, 0, 0, -1, 5100.1997, 2774.2858)"/>
<path xmlns="http://www.w3.org/2000/svg" fill="none" stroke-width="15" stroke-linecap="butt" stroke-linejoin="miter" stroke="rgb(79.408264%, 34.082031%, 16.569519%)" stroke-opacity="1" stroke-miterlimit="10" d="M 0 -0.00163125 C 53.957031 -0.00163125 97.699219 -43.743819 97.699219 -97.70085 " transform="matrix(1, 0, 0, -1, 5002.5, 2757.2054)"/>
<path xmlns="http://www.w3.org/2000/svg" fill="none" stroke-width="25" stroke-linecap="butt" stroke-linejoin="miter" stroke="rgb(31.402588%, 76.568604%, 94.60907%)" stroke-opacity="1" stroke-miterlimit="10" d="M -0.0012625 -0.00113125 L -0.0012625 -411.579256 L 0.104206 -540.184725 C 0.154987 -651.301913 90.248737 -741.352694 201.365925 -741.352694 L 470.119831 -741.352694 L 665.998737 -741.270663 L 859.498737 -741.270663 L 1622.362019 -744.860506 L 1642.498737 -744.860506 C 1695.873737 -744.860506 1747.065144 -766.063631 1784.807331 -803.809725 L 2113.362019 -1132.364413 C 2151.315144 -1170.313631 2202.854206 -1191.536288 2256.526081 -1191.309725 L 3037.498737 -1188.001131 L 5118.033894 -1188.016756 L 5341.526081 -1188.016756 " transform="matrix(1, 0, 0, -1, 2958.3997, 2931.7684)"/>
<path xmlns="http://www.w3.org/2000/svg" fill="none" stroke-width="25" stroke-linecap="butt" stroke-linejoin="miter" stroke="rgb(31.402588%, 76.568604%, 94.60907%)" stroke-opacity="1" stroke-miterlimit="10" d="M 0.0005375 -0.0004125 L -79.311962 -0.0004125 C -150.972119 -0.0004125 -209.061962 58.093338 -209.061962 129.753494 L -209.503369 354.804275 C -209.604931 406.6949 -230.261181 456.429275 -266.952587 493.116775 L -690.8979 917.062088 C -728.604931 954.769119 -749.80415 1005.901931 -749.843212 1059.22615 L -750.261181 1626.91365 L -750.261181 1698.015213 C -750.261181 1809.741775 -840.831494 1900.312088 -952.558056 1900.312088 L -1024.292431 1900.312088 C -1160.577587 1900.312088 -1271.05415 2010.792556 -1271.05415 2147.073806 L -1271.05415 2468.456619 C -1271.05415 2562.386306 -1347.202587 2638.534744 -1441.132275 2638.534744 L -2929.183056 2638.534744 C -3023.112744 2638.534744 -3099.261181 2562.386306 -3099.261181 2468.456619 L -3099.261181 1187.925369 " transform="matrix(1, 0, 0, -1, 6057.4604, 4119.6949)"/>
<path xmlns="http://www.w3.org/2000/svg" fill="none" stroke-width="25" stroke-linecap="butt" stroke-linejoin="miter" stroke="rgb(93.395996%, 19.972229%, 63.879395%)" stroke-opacity="1" stroke-miterlimit="10" d="M -0.00025625 0.00063125 L 1953.605212 0.00063125 C 2064.757556 0.00063125 2154.866931 90.1061 2154.866931 201.258444 L 2154.866931 284.469381 " transform="matrix(1, 0, 0, -1, 3909.5901, 1779.2936)"/>
<path xmlns="http://www.w3.org/2000/svg" fill="none" stroke-width="25" stroke-linecap="butt" stroke-linejoin="miter" stroke="rgb(93.347168%, 14.932251%, 20.336914%)" stroke-opacity="1" stroke-miterlimit="10" d="M -0.00048125 0.0018375 L -0.00048125 355.845587 C -0.00048125 409.224494 -21.203606 460.4159 -58.9497 498.158087 L -894.582513 1333.7909 C -932.2622 1371.470587 -953.457513 1422.552619 -953.527825 1475.841681 L -954.000481 1834.208869 L -954.000481 2636.451056 C -954.000481 2747.6034 -1044.10595 2837.708869 -1155.258294 2837.708869 L -1370.609856 2837.708869 " transform="matrix(1, 0, 0, -1, 5280.1997, 4657.9784)"/>
<path xmlns="http://www.w3.org/2000/svg" fill="none" stroke-width="25" stroke-linecap="butt" stroke-linejoin="miter" stroke="rgb(94.920349%, 34.173584%, 16.610718%)" stroke-opacity="1" stroke-miterlimit="10" d="M -0.00099375 -0.00088125 C -99.41115 -0.00088125 -180.000994 -80.590725 -180.000994 -180.000881 L -180.000994 -1181.114163 " transform="matrix(1, 0, 0, -1, 7272.8799, 2405.7999)"/>
<path xmlns="http://www.w3.org/2000/svg" fill-rule="nonzero" fill="rgb(31.829834%, 76.496887%, 94.515991%)" fill-opacity="1" d="M 5306.089844 2396.769531 C 5293.960938 2396.769531 5284.089844 2406.636719 5284.089844 2418.769531 C 5284.089844 2430.898438 5293.960938 2440.769531 5306.089844 2440.769531 C 5318.21875 2440.769531 5328.089844 2430.898438 5328.089844 2418.769531 C 5328.089844 2406.636719 5318.21875 2396.769531 5306.089844 2396.769531 M 5306.089844 2400.769531 C 5316.03125 2400.769531 5324.089844 2408.828125 5324.089844 2418.769531 C 5324.089844 2428.710938 5316.03125 2436.769531 5306.089844 2436.769531 C 5296.148438 2436.769531 5288.089844 2428.710938 5288.089844 2418.769531 C 5288.089844 2408.828125 5296.148438 2400.769531 5306.089844 2400.769531 "/>
<path xmlns="http://www.w3.org/2000/svg" fill="none" stroke-width="15" stroke-linecap="butt" stroke-linejoin="miter" stroke="rgb(94.7052%, 47.77832%, 15.682983%)" stroke-opacity="1" stroke-miterlimit="10" d="M -0.000475 -0.0001 L -0.000475 478.992087 C -0.000475 510.144431 -25.254381 535.402244 -56.406725 535.402244 C -87.562975 535.402244 -112.816881 510.144431 -112.816881 478.992087 L -112.816881 475.179587 C -112.816881 444.023337 -87.562975 418.769431 -56.406725 418.769431 L 105.179212 418.769431 " transform="matrix(1, 0, 0, -1, 5456.0161, 3031.7499)"/>
<path xmlns="http://www.w3.org/2000/svg" fill="none" stroke-width="15" stroke-linecap="butt" stroke-linejoin="miter" stroke="rgb(94.7052%, 47.77832%, 15.682983%)" stroke-opacity="1" stroke-miterlimit="10" d="M -0.000475 0.0001625 L -0.000475 43.11735 C -0.000475 85.24235 34.147962 119.394694 76.276869 119.394694 L 271.144056 119.394694 C 307.519056 119.394694 337.007337 148.879069 337.007337 185.254069 L 337.007337 860.254069 " transform="matrix(1, 0, 0, -1, 5456.0161, 2732.0236)"/>
<path xmlns="http://www.w3.org/2000/svg" fill="none" stroke-width="15" stroke-linecap="butt" stroke-linejoin="miter" stroke="rgb(94.7052%, 47.77832%, 15.682983%)" stroke-opacity="1" stroke-miterlimit="10" d="M -0.000475 0.001325 L -0.000475 -99.037738 " transform="matrix(1, 0, 0, -1, 5456.0161, 2632.9857)"/>
<path xmlns="http://www.w3.org/2000/svg" fill="none" stroke-width="15" stroke-linecap="butt" stroke-linejoin="miter" stroke="rgb(94.7052%, 47.77832%, 15.682983%)" stroke-opacity="1" stroke-miterlimit="10" d="M 0.00194375 0.00158125 L -99.037119 0.00158125 " transform="matrix(1, 0, 0, -1, 5563.1504, 2612.7008)"/>
<path xmlns="http://www.w3.org/2000/svg" fill-rule="nonzero" fill="rgb(94.367981%, 47.764587%, 15.480042%)" fill-opacity="1" d="M 5747.292969 2004.921875 L 5704.039062 2004.921875 C 5692.445312 2004.921875 5683.046875 1995.527344 5683.046875 1983.933594 C 5683.046875 1972.34375 5692.445312 1962.945312 5704.039062 1962.945312 L 5747.292969 1962.945312 C 5758.886719 1962.945312 5768.28125 1972.34375 5768.28125 1983.933594 C 5768.28125 1995.527344 5758.886719 2004.921875 5747.292969 2004.921875 "/>
<path xmlns="http://www.w3.org/2000/svg" fill-rule="nonzero" fill="rgb(94.367981%, 47.764587%, 15.480042%)" fill-opacity="1" d="M 5368.027344 3268.328125 L 5324.773438 3268.328125 C 5313.179688 3268.328125 5303.78125 3258.929688 5303.78125 3247.339844 C 5303.78125 3235.746094 5313.179688 3226.347656 5324.773438 3226.347656 L 5368.027344 3226.347656 C 5379.621094 3226.347656 5389.015625 3235.746094 5389.015625 3247.339844 C 5389.015625 3258.929688 5379.621094 3268.328125 5368.027344 3268.328125 "/>
<path xmlns="http://www.w3.org/2000/svg" fill-rule="nonzero" fill="rgb(94.920349%, 34.173584%, 16.610718%)" fill-opacity="1" d="M 7092.878906 2599.15625 C 7079.09375 2599.15625 7067.878906 2610.371094 7067.878906 2624.15625 C 7067.878906 2637.941406 7079.09375 2649.15625 7092.878906 2649.15625 C 7106.664062 2649.15625 7117.878906 2637.941406 7117.878906 2624.15625 C 7117.878906 2610.371094 7106.664062 2599.15625 7092.878906 2599.15625 M 7092.878906 2606.15625 C 7102.820312 2606.15625 7110.878906 2614.214844 7110.878906 2624.15625 C 7110.878906 2634.097656 7102.820312 2642.15625 7092.878906 2642.15625 C 7082.9375 2642.15625 7074.878906 2634.097656 7074.878906 2624.15625 C 7074.878906 2614.214844 7082.9375 2606.15625 7092.878906 2606.15625 "/>
<path xmlns="http://www.w3.org/2000/svg" fill-rule="nonzero" fill="rgb(94.920349%, 34.173584%, 16.610718%)" fill-opacity="1" d="M 7092.882812 2837.234375 C 7079.097656 2837.234375 7067.882812 2848.449219 7067.882812 2862.234375 C 7067.882812 2876.019531 7079.097656 2887.234375 7092.882812 2887.234375 C 7106.667969 2887.234375 7117.882812 2876.019531 7117.882812 2862.234375 C 7117.882812 2848.449219 7106.667969 2837.234375 7092.882812 2837.234375 M 7092.882812 2844.234375 C 7102.824219 2844.234375 7110.882812 2852.292969 7110.882812 2862.234375 C 7110.882812 2872.175781 7102.824219 2880.234375 7092.882812 2880.234375 C 7082.941406 2880.234375 7074.882812 2872.175781 7074.882812 2862.234375 C 7074.882812 2852.292969 7082.941406 2844.234375 7092.882812 2844.234375 "/>
<path xmlns="http://www.w3.org/2000/svg" fill-rule="nonzero" fill="rgb(94.920349%, 34.173584%, 16.610718%)" fill-opacity="1" d="M 7092.613281 3261.800781 C 7078.828125 3261.800781 7067.613281 3273.015625 7067.613281 3286.800781 C 7067.613281 3300.585938 7078.828125 3311.800781 7092.613281 3311.800781 C 7106.398438 3311.800781 7117.613281 3300.585938 7117.613281 3286.800781 C 7117.613281 3273.015625 7106.398438 3261.800781 7092.613281 3261.800781 M 7092.613281 3268.800781 C 7102.554688 3268.800781 7110.613281 3276.859375 7110.613281 3286.800781 C 7110.613281 3296.738281 7102.554688 3304.800781 7092.613281 3304.800781 C 7082.671875 3304.800781 7074.613281 3296.738281 7074.613281 3286.800781 C 7074.613281 3276.859375 7082.671875 3268.800781 7092.613281 3268.800781 "/>
<path xmlns="http://www.w3.org/2000/svg" fill-rule="nonzero" fill="rgb(31.829834%, 76.496887%, 94.515991%)" fill-opacity="1" d="M 4785.761719 1803.628906 C 4773.632812 1803.628906 4763.761719 1813.496094 4763.761719 1825.628906 C 4763.761719 1837.757812 4773.632812 1847.628906 4785.761719 1847.628906 C 4797.894531 1847.628906 4807.761719 1837.757812 4807.761719 1825.628906 C 4807.761719 1813.496094 4797.894531 1803.628906 4785.761719 1803.628906 M 4785.761719 1807.628906 C 4795.703125 1807.628906 4803.761719 1815.6875 4803.761719 1825.628906 C 4803.761719 1835.570312 4795.703125 1843.628906 4785.761719 1843.628906 C 4775.820312 1843.628906 4767.761719 1835.570312 4767.761719 1825.628906 C 4767.761719 1815.6875 4775.820312 1807.628906 4785.761719 1807.628906 "/>
<path xmlns="http://www.w3.org/2000/svg" fill-rule="nonzero" fill="rgb(94.032288%, 19.900513%, 63.874817%)" fill-opacity="1" d="M 4846.882812 1758.8125 C 4834.75 1758.8125 4824.882812 1768.679688 4824.882812 1780.8125 C 4824.882812 1792.941406 4834.75 1802.8125 4846.882812 1802.8125 C 4859.011719 1802.8125 4868.882812 1792.941406 4868.882812 1780.8125 C 4868.882812 1768.679688 4859.011719 1758.8125 4846.882812 1758.8125 M 4846.882812 1762.8125 C 4856.820312 1762.8125 4864.882812 1770.871094 4864.882812 1780.8125 C 4864.882812 1790.753906 4856.820312 1798.8125 4846.882812 1798.8125 C 4836.941406 1798.8125 4828.882812 1790.753906 4828.882812 1780.8125 C 4828.882812 1770.871094 4836.941406 1762.8125 4846.882812 1762.8125 "/>
<path xmlns="http://www.w3.org/2000/svg" fill-rule="nonzero" fill="rgb(31.829834%, 76.496887%, 94.515991%)" fill-opacity="1" d="M 5307.125 2747.769531 C 5294.996094 2747.769531 5285.125 2757.636719 5285.125 2769.769531 C 5285.125 2781.898438 5294.996094 2791.769531 5307.125 2791.769531 C 5319.257812 2791.769531 5329.125 2781.898438 5329.125 2769.769531 C 5329.125 2757.636719 5319.257812 2747.769531 5307.125 2747.769531 M 5307.125 2751.769531 C 5317.066406 2751.769531 5325.125 2759.828125 5325.125 2769.769531 C 5325.125 2779.710938 5317.066406 2787.769531 5307.125 2787.769531 C 5297.183594 2787.769531 5289.125 2779.710938 5289.125 2769.769531 C 5289.125 2759.828125 5297.183594 2751.769531 5307.125 2751.769531 "/>
<path xmlns="http://www.w3.org/2000/svg" fill-rule="nonzero" fill="rgb(31.829834%, 76.496887%, 94.515991%)" fill-opacity="1" d="M 5307.160156 3060.050781 C 5295.03125 3060.050781 5285.160156 3069.921875 5285.160156 3082.050781 C 5285.160156 3094.183594 5295.03125 3104.050781 5307.160156 3104.050781 C 5319.292969 3104.050781 5329.160156 3094.183594 5329.160156 3082.050781 C 5329.160156 3069.921875 5319.292969 3060.050781 5307.160156 3060.050781 M 5307.160156 3064.050781 C 5317.101562 3064.050781 5325.160156 3072.109375 5325.160156 3082.050781 C 5325.160156 3091.992188 5317.101562 3100.050781 5307.160156 3100.050781 C 5297.21875 3100.050781 5289.160156 3091.992188 5289.160156 3082.050781 C 5289.160156 3072.109375 5297.21875 3064.050781 5307.160156 3064.050781 "/>
<path xmlns="http://www.w3.org/2000/svg" fill-rule="nonzero" fill="rgb(31.829834%, 76.496887%, 94.515991%)" fill-opacity="1" d="M 5509.574219 3323.769531 C 5497.441406 3323.769531 5487.574219 3333.636719 5487.574219 3345.769531 C 5487.574219 3357.898438 5497.441406 3367.769531 5509.574219 3367.769531 C 5521.703125 3367.769531 5531.574219 3357.898438 5531.574219 3345.769531 C 5531.574219 3333.636719 5521.703125 3323.769531 5509.574219 3323.769531 M 5509.574219 3327.769531 C 5519.511719 3327.769531 5527.574219 3335.828125 5527.574219 3345.769531 C 5527.574219 3355.710938 5519.511719 3363.769531 5509.574219 3363.769531 C 5499.632812 3363.769531 5491.574219 3355.710938 5491.574219 3345.769531 C 5491.574219 3335.828125 5499.632812 3327.769531 5509.574219 3327.769531 "/>
<path xmlns="http://www.w3.org/2000/svg" fill-rule="nonzero" fill="rgb(94.032288%, 19.900513%, 63.874817%)" fill-opacity="1" d="M 5474.046875 1757.292969 C 5461.917969 1757.292969 5452.046875 1767.164062 5452.046875 1779.292969 C 5452.046875 1791.421875 5461.917969 1801.292969 5474.046875 1801.292969 C 5486.179688 1801.292969 5496.046875 1791.421875 5496.046875 1779.292969 C 5496.046875 1767.164062 5486.179688 1757.292969 5474.046875 1757.292969 M 5474.046875 1761.292969 C 5483.988281 1761.292969 5492.046875 1769.351562 5492.046875 1779.292969 C 5492.046875 1789.234375 5483.988281 1797.292969 5474.046875 1797.292969 C 5464.105469 1797.292969 5456.046875 1789.234375 5456.046875 1779.292969 C 5456.046875 1769.351562 5464.105469 1761.292969 5474.046875 1761.292969 "/>
<path xmlns="http://www.w3.org/2000/svg" fill-rule="nonzero" fill="rgb(42.337036%, 77.964783%, 45.454407%)" fill-opacity="1" d="M 6280.542969 1713.875 L 6237.289062 1713.875 C 6225.695312 1713.875 6216.296875 1704.480469 6216.296875 1692.886719 C 6216.296875 1681.292969 6225.695312 1671.898438 6237.289062 1671.898438 L 6280.542969 1671.898438 C 6292.136719 1671.898438 6301.53125 1681.292969 6301.53125 1692.886719 C 6301.53125 1704.480469 6292.136719 1713.875 6280.542969 1713.875 "/>
</svg>
