<?xml version="1.0" encoding="UTF-8"?>
<svg xmlns="http://www.w3.org/2000/svg" xmlns:xlink="http://www.w3.org/1999/xlink" viewBox="2378.3925 1681.72 2378.3925 1681.72" width="2378.3925" height="1681.72">
<path xmlns="http://www.w3.org/2000/svg" fill-rule="nonzero" fill="rgb(78.900146%, 91.56189%, 65.628052%)" fill-opacity="1" d="M 4523.339844 3152.460938 L 4411.84375 3152.460938 C 4404.339844 3152.460938 4398.199219 3146.324219 4398.199219 3138.820312 L 4398.199219 2872.90625 C 4398.199219 2865.402344 4404.339844 2859.261719 4411.84375 2859.261719 L 4523.339844 2859.261719 C 4530.84375 2859.261719 4536.984375 2865.402344 4536.984375 2872.90625 L 4536.984375 3138.820312 C 4536.984375 3146.324219 4530.84375 3152.460938 4523.339844 3152.460938 "/>
<path xmlns="http://www.w3.org/2000/svg" fill-rule="nonzero" fill="rgb(78.900146%, 91.56189%, 65.628052%)" fill-opacity="1" d="M 4249.648438 3152.460938 L 3825.203125 3152.460938 C 3811.074219 3152.460938 3799.621094 3141.007812 3799.621094 3126.878906 L 3799.621094 2875.578125 C 3799.621094 2861.449219 3811.074219 2849.992188 3825.203125 2849.992188 L 4249.648438 2849.992188 C 4263.777344 2849.992188 4275.230469 2861.449219 4275.230469 2875.578125 L 4275.230469 3126.878906 C 4275.230469 3141.007812 4263.777344 3152.460938 4249.648438 3152.460938 "/>
<path xmlns="http://www.w3.org/2000/svg" fill-rule="nonzero" fill="rgb(78.900146%, 91.56189%, 65.628052%)" fill-opacity="1" d="M 4933.699219 2867.949219 L 4933.699219 3022.589844 C 4933.699219 3029.59375 4928.023438 3035.269531 4921.019531 3035.269531 L 4626.742188 3035.269531 C 4618.574219 3035.269531 4611.949219 3028.644531 4611.949219 3020.476562 L 4611.949219 2867.949219 C 4611.949219 2860.945312 4617.625 2855.269531 4624.628906 2855.269531 L 4921.019531 2855.269531 C 4928.023438 2855.269531 4933.699219 2860.945312 4933.699219 2867.949219 "/>
</svg>
