<?xml version="1.0" encoding="UTF-8"?>
<svg xmlns="http://www.w3.org/2000/svg" xmlns:xlink="http://www.w3.org/1999/xlink" viewBox="1189.19625 5886.02 1189.19625 840.86" width="1189.19625" height="840.86">
<defs>
<g xmlns="http://www.w3.org/2000/svg" id="glyph-21-31">
<path d="M 20.546875 -27.046875 C 20.546875 -26.179688 20.445312 -25.316406 20.25 -24.453125 C 20.050781 -23.585938 19.734375 -22.769531 19.296875 -22 C 18.867188 -21.226562 18.328125 -20.539062 17.671875 -19.9375 C 17.023438 -19.34375 16.234375 -18.894531 15.296875 -18.59375 L 15.296875 -18.40625 C 16.097656 -18.238281 16.863281 -17.960938 17.59375 -17.578125 C 18.332031 -17.191406 18.984375 -16.65625 19.546875 -15.96875 C 20.117188 -15.289062 20.570312 -14.457031 20.90625 -13.46875 C 21.238281 -12.488281 21.40625 -11.316406 21.40625 -9.953125 C 21.40625 -8.148438 21.117188 -6.585938 20.546875 -5.265625 C 19.984375 -3.953125 19.207031 -2.878906 18.21875 -2.046875 C 17.238281 -1.210938 16.109375 -0.59375 14.828125 -0.1875 C 13.546875 0.207031 12.1875 0.40625 10.75 0.40625 C 10.28125 0.40625 9.738281 0.40625 9.125 0.40625 C 8.507812 0.40625 7.847656 0.378906 7.140625 0.328125 C 6.441406 0.273438 5.75 0.207031 5.0625 0.125 C 4.382812 0.0390625 3.765625 -0.0820312 3.203125 -0.25 L 3.203125 -34.703125 C 4.203125 -34.898438 5.375 -35.066406 6.71875 -35.203125 C 8.070312 -35.335938 9.53125 -35.40625 11.09375 -35.40625 C 12.226562 -35.40625 13.363281 -35.296875 14.5 -35.078125 C 15.632812 -34.859375 16.648438 -34.445312 17.546875 -33.84375 C 18.453125 -33.25 19.175781 -32.410156 19.71875 -31.328125 C 20.269531 -30.242188 20.546875 -28.816406 20.546875 -27.046875 Z M 11.046875 -3.046875 C 11.953125 -3.046875 12.785156 -3.1875 13.546875 -3.46875 C 14.316406 -3.757812 14.992188 -4.1875 15.578125 -4.75 C 16.160156 -5.3125 16.617188 -6 16.953125 -6.8125 C 17.285156 -7.632812 17.453125 -8.597656 17.453125 -9.703125 C 17.453125 -11.066406 17.242188 -12.171875 16.828125 -13.015625 C 16.410156 -13.867188 15.867188 -14.53125 15.203125 -15 C 14.535156 -15.46875 13.773438 -15.785156 12.921875 -15.953125 C 12.078125 -16.117188 11.203125 -16.203125 10.296875 -16.203125 L 6.953125 -16.203125 L 6.953125 -3.40625 C 7.148438 -3.332031 7.40625 -3.28125 7.71875 -3.25 C 8.039062 -3.21875 8.390625 -3.179688 8.765625 -3.140625 C 9.148438 -3.109375 9.539062 -3.082031 9.9375 -3.0625 C 10.34375 -3.050781 10.710938 -3.046875 11.046875 -3.046875 Z M 9 -19.453125 C 9.46875 -19.453125 10 -19.46875 10.59375 -19.5 C 11.195312 -19.53125 11.695312 -19.582031 12.09375 -19.65625 C 13.332031 -20.15625 14.390625 -20.960938 15.265625 -22.078125 C 16.148438 -23.191406 16.59375 -24.566406 16.59375 -26.203125 C 16.59375 -27.296875 16.441406 -28.21875 16.140625 -28.96875 C 15.847656 -29.71875 15.441406 -30.3125 14.921875 -30.75 C 14.410156 -31.1875 13.800781 -31.492188 13.09375 -31.671875 C 12.394531 -31.859375 11.664062 -31.953125 10.90625 -31.953125 C 10.03125 -31.953125 9.242188 -31.925781 8.546875 -31.875 C 7.847656 -31.820312 7.316406 -31.765625 6.953125 -31.703125 L 6.953125 -19.453125 Z M 9 -19.453125 "/>
</g>
<g xmlns="http://www.w3.org/2000/svg" id="glyph-21-1">
<path d="M 2.703125 -23.5 C 3.671875 -24.101562 4.84375 -24.570312 6.21875 -24.90625 C 7.601562 -25.238281 9.0625 -25.40625 10.59375 -25.40625 C 12 -25.40625 13.125 -25.195312 13.96875 -24.78125 C 14.820312 -24.363281 15.488281 -23.796875 15.96875 -23.078125 C 16.457031 -22.359375 16.773438 -21.539062 16.921875 -20.625 C 17.078125 -19.707031 17.15625 -18.75 17.15625 -17.75 C 17.15625 -15.75 17.113281 -13.796875 17.03125 -11.890625 C 16.945312 -9.992188 16.90625 -8.195312 16.90625 -6.5 C 16.90625 -5.226562 16.945312 -4.050781 17.03125 -2.96875 C 17.113281 -1.882812 17.269531 -0.863281 17.5 0.09375 L 14.75 0.09375 L 13.90625 -2.84375 L 13.703125 -2.84375 C 13.203125 -1.976562 12.46875 -1.226562 11.5 -0.59375 C 10.53125 0.03125 9.226562 0.34375 7.59375 0.34375 C 5.800781 0.34375 4.328125 -0.28125 3.171875 -1.53125 C 2.023438 -2.78125 1.453125 -4.503906 1.453125 -6.703125 C 1.453125 -8.128906 1.691406 -9.328125 2.171875 -10.296875 C 2.660156 -11.265625 3.34375 -12.046875 4.21875 -12.640625 C 5.101562 -13.242188 6.15625 -13.671875 7.375 -13.921875 C 8.59375 -14.171875 9.953125 -14.296875 11.453125 -14.296875 C 11.785156 -14.296875 12.117188 -14.296875 12.453125 -14.296875 C 12.785156 -14.296875 13.132812 -14.28125 13.5 -14.25 C 13.601562 -15.28125 13.65625 -16.195312 13.65625 -17 C 13.65625 -18.894531 13.367188 -20.226562 12.796875 -21 C 12.234375 -21.769531 11.203125 -22.15625 9.703125 -22.15625 C 8.765625 -22.15625 7.742188 -22.007812 6.640625 -21.71875 C 5.546875 -21.4375 4.632812 -21.082031 3.90625 -20.65625 Z M 13.546875 -11.40625 C 13.210938 -11.4375 12.878906 -11.457031 12.546875 -11.46875 C 12.210938 -11.488281 11.878906 -11.5 11.546875 -11.5 C 10.742188 -11.5 9.957031 -11.429688 9.1875 -11.296875 C 8.425781 -11.160156 7.742188 -10.925781 7.140625 -10.59375 C 6.546875 -10.257812 6.070312 -9.8125 5.71875 -9.25 C 5.375 -8.6875 5.203125 -7.96875 5.203125 -7.09375 C 5.203125 -5.757812 5.523438 -4.726562 6.171875 -4 C 6.828125 -3.269531 7.671875 -2.90625 8.703125 -2.90625 C 10.097656 -2.90625 11.175781 -3.238281 11.9375 -3.90625 C 12.707031 -4.570312 13.242188 -5.300781 13.546875 -6.09375 Z M 13.546875 -11.40625 "/>
</g>
<g xmlns="http://www.w3.org/2000/svg" id="glyph-49-1">
<path d="M 24.8125 -27.625 C 24.8125 -25.851562 24.488281 -24.0625 23.84375 -22.25 C 23.195312 -20.4375 22.378906 -18.660156 21.390625 -16.921875 C 20.398438 -15.179688 19.300781 -13.5 18.09375 -11.875 C 16.894531 -10.257812 15.722656 -8.773438 14.578125 -7.421875 L 11.8125 -5.28125 L 11.8125 -5.015625 L 15.5625 -5.75 L 25.59375 -5.75 L 25.59375 0 L 3.609375 0 L 3.609375 -3.5 C 4.441406 -4.375 5.378906 -5.394531 6.421875 -6.5625 C 7.460938 -7.726562 8.515625 -8.960938 9.578125 -10.265625 C 10.640625 -11.566406 11.675781 -12.914062 12.6875 -14.3125 C 13.695312 -15.707031 14.601562 -17.109375 15.40625 -18.515625 C 16.207031 -19.921875 16.84375 -21.285156 17.3125 -22.609375 C 17.78125 -23.941406 18.015625 -25.195312 18.015625 -26.375 C 18.015625 -27.800781 17.601562 -28.972656 16.78125 -29.890625 C 15.96875 -30.816406 14.675781 -31.28125 12.90625 -31.28125 C 11.789062 -31.28125 10.648438 -31.046875 9.484375 -30.578125 C 8.316406 -30.109375 7.332031 -29.507812 6.53125 -28.78125 L 3.8125 -33.59375 C 5.164062 -34.707031 6.703125 -35.601562 8.421875 -36.28125 C 10.148438 -36.957031 12.179688 -37.296875 14.515625 -37.296875 C 16.015625 -37.296875 17.390625 -37.085938 18.640625 -36.671875 C 19.898438 -36.253906 20.984375 -35.644531 21.890625 -34.84375 C 22.796875 -34.039062 23.507812 -33.035156 24.03125 -31.828125 C 24.550781 -30.628906 24.8125 -29.226562 24.8125 -27.625 Z M 24.8125 -27.625 "/>
</g>
<g xmlns="http://www.w3.org/2000/svg" id="glyph-93-5">
<path d="M 3.734375 -19.84375 L 6.90625 -19.84375 L 6.90625 0 L 3.734375 0 Z M 3.0625 -25.875 C 3.0625 -26.476562 3.265625 -27 3.671875 -27.4375 C 4.078125 -27.875 4.597656 -28.09375 5.234375 -28.09375 C 5.867188 -28.09375 6.410156 -27.875 6.859375 -27.4375 C 7.316406 -27 7.546875 -26.476562 7.546875 -25.875 C 7.546875 -25.269531 7.316406 -24.765625 6.859375 -24.359375 C 6.410156 -23.960938 5.867188 -23.765625 5.234375 -23.765625 C 4.597656 -23.765625 4.078125 -23.960938 3.671875 -24.359375 C 3.265625 -24.765625 3.0625 -25.269531 3.0625 -25.875 Z M 3.0625 -25.875 "/>
</g>
<g xmlns="http://www.w3.org/2000/svg" id="glyph-93-8">
<path d="M 6.59375 -4.875 C 6.59375 -3.957031 6.75 -3.296875 7.0625 -2.890625 C 7.382812 -2.492188 7.832031 -2.296875 8.40625 -2.296875 C 8.75 -2.296875 9.117188 -2.320312 9.515625 -2.375 C 9.921875 -2.425781 10.375 -2.546875 10.875 -2.734375 L 11.234375 -0.234375 C 10.804688 -0.0234375 10.210938 0.140625 9.453125 0.265625 C 8.703125 0.398438 8.050781 0.46875 7.5 0.46875 C 6.3125 0.46875 5.332031 0.132812 4.5625 -0.53125 C 3.789062 -1.207031 3.40625 -2.351562 3.40625 -3.96875 L 3.40625 -27.78125 L 6.59375 -27.78125 Z M 6.59375 -4.875 "/>
</g>
<g xmlns="http://www.w3.org/2000/svg" id="glyph-93-3">
<path d="M 2.734375 -18.375 C 3.742188 -18.976562 4.914062 -19.425781 6.25 -19.71875 C 7.582031 -20.007812 8.976562 -20.15625 10.4375 -20.15625 C 11.8125 -20.15625 12.914062 -19.96875 13.75 -19.59375 C 14.582031 -19.226562 15.21875 -18.75 15.65625 -18.15625 C 16.09375 -17.5625 16.382812 -16.90625 16.53125 -16.1875 C 16.675781 -15.476562 16.75 -14.765625 16.75 -14.046875 C 16.75 -12.460938 16.707031 -10.914062 16.625 -9.40625 C 16.550781 -7.894531 16.515625 -6.46875 16.515625 -5.125 C 16.515625 -4.144531 16.550781 -3.21875 16.625 -2.34375 C 16.707031 -1.46875 16.851562 -0.660156 17.0625 0.078125 L 14.71875 0.078125 L 13.890625 -2.703125 L 13.6875 -2.703125 C 13.445312 -2.328125 13.148438 -1.960938 12.796875 -1.609375 C 12.441406 -1.253906 12.007812 -0.9375 11.5 -0.65625 C 11 -0.375 10.414062 -0.144531 9.75 0.03125 C 9.09375 0.21875 8.34375 0.3125 7.5 0.3125 C 6.65625 0.3125 5.867188 0.179688 5.140625 -0.078125 C 4.410156 -0.335938 3.78125 -0.710938 3.25 -1.203125 C 2.71875 -1.691406 2.300781 -2.28125 2 -2.96875 C 1.695312 -3.664062 1.546875 -4.445312 1.546875 -5.3125 C 1.546875 -6.476562 1.78125 -7.453125 2.25 -8.234375 C 2.726562 -9.015625 3.398438 -9.632812 4.265625 -10.09375 C 5.128906 -10.5625 6.160156 -10.894531 7.359375 -11.09375 C 8.566406 -11.289062 9.894531 -11.390625 11.34375 -11.390625 C 11.71875 -11.390625 12.082031 -11.390625 12.4375 -11.390625 C 12.800781 -11.390625 13.164062 -11.363281 13.53125 -11.3125 C 13.613281 -12.101562 13.65625 -12.816406 13.65625 -13.453125 C 13.65625 -14.910156 13.363281 -15.929688 12.78125 -16.515625 C 12.195312 -17.097656 11.140625 -17.390625 9.609375 -17.390625 C 9.148438 -17.390625 8.660156 -17.351562 8.140625 -17.28125 C 7.628906 -17.21875 7.101562 -17.125 6.5625 -17 C 6.019531 -16.882812 5.503906 -16.738281 5.015625 -16.5625 C 4.523438 -16.394531 4.097656 -16.207031 3.734375 -16 Z M 8.375 -2.453125 C 9.113281 -2.453125 9.773438 -2.550781 10.359375 -2.75 C 10.941406 -2.957031 11.441406 -3.210938 11.859375 -3.515625 C 12.285156 -3.816406 12.632812 -4.148438 12.90625 -4.515625 C 13.1875 -4.890625 13.394531 -5.25 13.53125 -5.59375 L 13.53125 -8.890625 C 13.164062 -8.910156 12.789062 -8.925781 12.40625 -8.9375 C 12.019531 -8.957031 11.640625 -8.96875 11.265625 -8.96875 C 10.453125 -8.96875 9.65625 -8.921875 8.875 -8.828125 C 8.09375 -8.734375 7.398438 -8.5625 6.796875 -8.3125 C 6.203125 -8.0625 5.726562 -7.71875 5.375 -7.28125 C 5.019531 -6.84375 4.84375 -6.296875 4.84375 -5.640625 C 4.84375 -4.710938 5.171875 -3.945312 5.828125 -3.34375 C 6.492188 -2.75 7.34375 -2.453125 8.375 -2.453125 Z M 8.375 -2.453125 "/>
</g>
<g xmlns="http://www.w3.org/2000/svg" id="glyph-93-31">
<path d="M 12.421875 -16.78125 C 11.628906 -17.050781 10.875 -17.1875 10.15625 -17.1875 C 9.019531 -17.1875 8.117188 -16.875 7.453125 -16.25 C 6.796875 -15.625 6.390625 -14.835938 6.234375 -13.890625 L 6.234375 0 L 3.0625 0 L 3.0625 -19.84375 L 5.28125 -19.84375 L 5.875 -17.421875 L 6.03125 -17.421875 C 6.53125 -18.316406 7.128906 -19.007812 7.828125 -19.5 C 8.535156 -19.988281 9.429688 -20.234375 10.515625 -20.234375 C 11.285156 -20.234375 12.144531 -20.101562 13.09375 -19.84375 Z M 12.421875 -16.78125 "/>
</g>
<g xmlns="http://www.w3.org/2000/svg" id="glyph-93-6">
<path d="M 15.796875 0 L 15.796875 -11.3125 C 15.796875 -13.375 15.5 -14.925781 14.90625 -15.96875 C 14.3125 -17.019531 13.21875 -17.546875 11.625 -17.546875 C 10.226562 -17.546875 9.070312 -17.164062 8.15625 -16.40625 C 7.238281 -15.65625 6.597656 -14.710938 6.234375 -13.578125 L 6.234375 0 L 3.0625 0 L 3.0625 -19.84375 L 5.28125 -19.84375 L 5.875 -17.421875 L 6.03125 -17.421875 C 6.664062 -18.265625 7.519531 -18.957031 8.59375 -19.5 C 9.664062 -20.039062 10.941406 -20.3125 12.421875 -20.3125 C 13.503906 -20.3125 14.457031 -20.1875 15.28125 -19.9375 C 16.101562 -19.6875 16.785156 -19.242188 17.328125 -18.609375 C 17.867188 -17.972656 18.273438 -17.117188 18.546875 -16.046875 C 18.828125 -14.984375 18.96875 -13.628906 18.96875 -11.984375 L 18.96875 0 Z M 15.796875 0 "/>
</g>
<g xmlns="http://www.w3.org/2000/svg" id="glyph-93-10">
<path d="M 18.25 0.90625 C 18.25 3.476562 17.566406 5.367188 16.203125 6.578125 C 14.847656 7.796875 12.832031 8.40625 10.15625 8.40625 C 8.570312 8.40625 7.296875 8.304688 6.328125 8.109375 C 5.359375 7.910156 4.53125 7.65625 3.84375 7.34375 L 4.6875 4.640625 C 5.289062 4.878906 5.960938 5.101562 6.703125 5.3125 C 7.441406 5.53125 8.410156 5.640625 9.609375 5.640625 C 10.710938 5.640625 11.613281 5.539062 12.3125 5.34375 C 13.019531 5.144531 13.582031 4.8125 14 4.34375 C 14.425781 3.882812 14.71875 3.289062 14.875 2.5625 C 15.039062 1.832031 15.125 0.960938 15.125 -0.046875 L 15.125 -1.9375 L 14.96875 -1.9375 C 14.4375 -1.175781 13.757812 -0.585938 12.9375 -0.171875 C 12.113281 0.234375 11.039062 0.4375 9.71875 0.4375 C 7.050781 0.4375 5.085938 -0.394531 3.828125 -2.0625 C 2.566406 -3.726562 1.9375 -6.320312 1.9375 -9.84375 C 1.9375 -13.226562 2.742188 -15.800781 4.359375 -17.5625 C 5.972656 -19.320312 8.359375 -20.203125 11.515625 -20.203125 C 13.015625 -20.203125 14.300781 -20.082031 15.375 -19.84375 C 16.445312 -19.601562 17.40625 -19.328125 18.25 -19.015625 Z M 10.28125 -2.34375 C 11.625 -2.34375 12.679688 -2.675781 13.453125 -3.34375 C 14.222656 -4.019531 14.765625 -5.078125 15.078125 -6.515625 L 15.078125 -16.671875 C 14.023438 -17.171875 12.675781 -17.421875 11.03125 -17.421875 C 9.226562 -17.421875 7.8125 -16.8125 6.78125 -15.59375 C 5.75 -14.375 5.234375 -12.46875 5.234375 -9.875 C 5.234375 -8.769531 5.328125 -7.753906 5.515625 -6.828125 C 5.703125 -5.898438 5.992188 -5.101562 6.390625 -4.4375 C 6.785156 -3.78125 7.300781 -3.265625 7.9375 -2.890625 C 8.570312 -2.523438 9.351562 -2.34375 10.28125 -2.34375 Z M 10.28125 -2.34375 "/>
</g>
<g xmlns="http://www.w3.org/2000/svg" id="glyph-93-18">
<path d="M 1.9375 -1.828125 C 1.9375 -2.535156 2.140625 -3.09375 2.546875 -3.5 C 2.960938 -3.914062 3.515625 -4.125 4.203125 -4.125 C 4.921875 -4.125 5.488281 -3.914062 5.90625 -3.5 C 6.332031 -3.09375 6.546875 -2.535156 6.546875 -1.828125 C 6.546875 -1.140625 6.332031 -0.582031 5.90625 -0.15625 C 5.488281 0.257812 4.921875 0.46875 4.203125 0.46875 C 3.515625 0.46875 2.960938 0.257812 2.546875 -0.15625 C 2.140625 -0.582031 1.9375 -1.140625 1.9375 -1.828125 Z M 1.9375 -1.828125 "/>
</g>
<clipPath xmlns="http://www.w3.org/2000/svg" id="clip-2805">
<path clip-rule="nonzero" d="M 0 626 L 8627 626 L 8627 6726.878906 L 0 6726.878906 Z M 0 626 "/>
</clipPath>
<clipPath xmlns="http://www.w3.org/2000/svg" id="clip-2806">
<path clip-rule="nonzero" d="M 0 626 L 8628 626 L 8628 6726.878906 L 0 6726.878906 Z M 0 626 "/>
</clipPath>
</defs>
<path xmlns="http://www.w3.org/2000/svg" fill-rule="nonzero" fill="rgb(95.294189%, 95.68634%, 95.294189%)" fill-opacity="1" d="M 8553.738281 6718.390625 L 76.574219 6718.390625 L 76.574219 769.433594 L 8553.738281 769.433594 Z M 8553.738281 6718.390625 "/>
<path xmlns="http://www.w3.org/2000/svg" fill-rule="nonzero" fill="rgb(100%, 100%, 100%)" fill-opacity="1" stroke-width="22.677" stroke-linecap="butt" stroke-linejoin="miter" stroke="rgb(78.039551%, 79.216003%, 80.000305%)" stroke-opacity="1" stroke-miterlimit="10" d="M 0.0005 -0.00010625 L 0.0005 -2301.347763 C 0.0005 -2403.1212 -82.507313 -2485.629013 -184.284656 -2485.629013 L -5203.979969 -2485.629013 C -5305.753406 -2485.629013 -5388.261219 -2403.1212 -5388.261219 -2301.347763 L -5388.261219 -1509.390731 C -5388.261219 -1407.613388 -5470.769031 -1325.105575 -5572.542469 -1325.105575 L -6282.558094 -1325.105575 C -6384.335438 -1325.105575 -6466.839344 -1242.601669 -6466.839344 -1140.824325 L -6466.839344 -729.484481 C -6466.839344 -680.609481 -6486.257313 -633.734481 -6520.815906 -599.175888 L -6656.077625 -463.914169 C -6690.636219 -429.355575 -6710.050281 -382.480575 -6710.050281 -333.609481 L -6710.050281 1191.9413 C -6710.050281 1257.574112 -6675.140125 1318.257706 -6618.401844 1351.249894 L -5760.171375 1850.292862 C -5703.433094 1883.28505 -5668.522938 1943.968644 -5668.522938 2009.601456 L -5668.522938 2484.339737 C -5668.522938 2586.023331 -5586.159656 2668.492081 -5484.472156 2668.620987 L -184.515125 2675.281144 C -82.647938 2675.406144 0.0005 2592.863175 0.0005 2490.999894 L 0.0005 996.523331 C 0.0005 958.015519 15.297375 921.085831 42.527844 893.855362 L 213.063 723.3163 C 240.238781 696.144425 255.504406 659.288956 255.504406 620.859269 L 255.504406 400.863175 C 255.504406 354.124894 236.934094 309.296769 203.883312 276.242081 L 51.941906 124.300675 C 18.953625 91.312394 0.289562 46.652237 0.0005 -0.00010625 Z M 0.0005 -0.00010625 " transform="matrix(1, 0, 0, -1, 7625.062, 3658.6288)"/>
<path xmlns="http://www.w3.org/2000/svg" fill-rule="nonzero" fill="rgb(94.117737%, 96.862793%, 91.764832%)" fill-opacity="1" d="M 1028.292969 6069.789062 L 74.792969 6069.789062 L 74.792969 6650.511719 L 1609.015625 6650.511719 C 1609.015625 6329.785156 1349.015625 6069.789062 1028.292969 6069.789062 "/>
<path xmlns="http://www.w3.org/2000/svg" fill="none" stroke-width="9" stroke-linecap="butt" stroke-linejoin="round" stroke="rgb(100%, 100%, 100%)" stroke-opacity="1" stroke-miterlimit="4" d="M 0.000225 -0.00085 C -0.550556 1.081181 -1.273213 1.924931 -2.175556 2.522587 C -3.073994 3.12415 -4.093525 3.5304 -5.226338 3.74915 C -6.35915 3.9679 -7.491963 4.073369 -8.624775 4.073369 C -10.191181 4.073369 -11.648213 4.006962 -12.999775 3.87415 C -14.351338 3.741337 -15.523213 3.573369 -16.523213 3.37415 L -16.523213 -31.075069 C -15.956806 -31.243038 -15.331806 -31.364131 -14.648213 -31.450069 C -13.968525 -31.5321 -13.273213 -31.602413 -12.573994 -31.649288 C -11.874775 -31.700069 -11.218525 -31.727413 -10.601338 -31.727413 L -8.976338 -31.727413 C -7.542744 -31.727413 -6.183369 -31.524288 -4.898213 -31.12585 C -3.616963 -30.727413 -2.48415 -30.106319 -1.499775 -29.274288 C -0.5154 -28.442256 0.258037 -27.368038 0.824444 -26.051631 C 1.39085 -24.731319 1.676006 -23.176631 1.676006 -21.37585 C 1.676006 -20.008663 1.508037 -18.832881 1.176006 -17.852413 C 0.840069 -16.868038 0.39085 -16.0321 -0.175556 -15.352413 C -0.741963 -14.668819 -1.3904 -14.133663 -2.124775 -13.75085 C -2.85915 -13.368038 -3.624775 -13.0946 -4.425556 -12.926631 L -4.425556 -12.727413 C -3.491963 -12.426631 -2.698994 -11.977413 -2.050556 -11.37585 C -1.398213 -10.774288 -0.85915 -10.0946 -0.425556 -9.325069 C 0.0080375 -8.559444 0.324444 -7.743038 0.523662 -6.87585 C 0.726787 -6.008663 0.824444 -5.141475 0.824444 -4.274288 C 0.824444 -2.508663 0.551006 -1.082881 0.000225 -0.00085 Z M -9.773213 -28.25085 C -10.175556 -28.231319 -10.566181 -28.207881 -10.948994 -28.176631 C -11.331806 -28.141475 -11.683369 -28.106319 -11.999775 -28.075069 C -12.316181 -28.043819 -12.573994 -27.993038 -12.773213 -27.926631 L -12.773213 -15.12585 L -9.425556 -15.12585 C -8.523213 -15.12585 -7.648213 -15.207881 -6.800556 -15.37585 C -5.948994 -15.543819 -5.191181 -15.856319 -4.523213 -16.325069 C -3.85915 -16.793819 -3.316181 -17.450069 -2.898213 -18.301631 C -2.48415 -19.149288 -2.273213 -20.258663 -2.273213 -21.62585 C -2.273213 -22.727413 -2.441181 -23.684444 -2.773213 -24.50085 C -3.10915 -25.317256 -3.566181 -26.008663 -4.148213 -26.575069 C -4.73415 -27.141475 -5.409931 -27.567256 -6.175556 -27.852413 C -6.941181 -28.133663 -7.773213 -28.274288 -8.675556 -28.274288 C -9.007588 -28.274288 -9.374775 -28.266475 -9.773213 -28.25085 Z M -12.773213 -11.87585 L -12.773213 0.37415 C -12.409931 0.440556 -11.874775 0.49915 -11.175556 0.549931 C -10.476338 0.600712 -9.691181 0.62415 -8.823994 0.62415 C -8.058369 0.62415 -7.323994 0.5304 -6.624775 0.350712 C -5.925556 0.167119 -5.316181 -0.141475 -4.800556 -0.575069 C -4.284931 -1.008663 -3.874775 -1.602413 -3.573994 -2.352413 C -3.273213 -3.102413 -3.124775 -4.024288 -3.124775 -5.12585 C -3.124775 -6.758663 -3.566181 -8.133663 -4.448994 -9.25085 C -5.331806 -10.368038 -6.3904 -11.176631 -7.624775 -11.676631 C -8.023213 -11.743038 -8.523213 -11.793819 -9.124775 -11.825069 C -9.726338 -11.856319 -10.257588 -11.87585 -10.726338 -11.87585 Z M -12.773213 -11.87585 " transform="matrix(1, 0, 0, -1, 2369.9529, 5951.2804)"/>
<path xmlns="http://www.w3.org/2000/svg" fill="none" stroke-width="9" stroke-linecap="butt" stroke-linejoin="round" stroke="rgb(100%, 100%, 100%)" stroke-opacity="1" stroke-miterlimit="4" d="M 0.00126875 -0.00183125 C 0.727831 0.431763 1.634081 0.791138 2.723925 1.072388 C 3.813769 1.357544 4.821581 1.498169 5.747363 1.498169 C 7.231738 1.498169 8.255175 1.115356 8.817675 0.349731 C 9.380175 -0.4198 9.661425 -1.751831 9.661425 -3.650269 C 9.661425 -4.45105 9.610644 -5.365112 9.512988 -6.400269 C 9.149706 -6.365112 8.80205 -6.349487 8.470019 -6.349487 L 7.477831 -6.349487 C 5.98955 -6.349487 4.6458 -6.474487 3.438769 -6.724487 C 2.231738 -6.974487 1.188769 -7.400269 0.313769 -8.001831 C -0.561231 -8.599487 -1.240919 -9.384644 -1.721387 -10.349487 C -2.201856 -11.318237 -2.440137 -12.517456 -2.440137 -13.95105 C -2.440137 -16.150269 -1.869825 -17.876831 -0.7292 -19.126831 C 0.415331 -20.376831 1.876269 -21.001831 3.665331 -21.001831 C 5.286425 -21.001831 6.575488 -20.685425 7.536425 -20.052612 C 8.493456 -19.4198 9.223925 -18.6698 9.720019 -17.802612 L 9.919238 -17.802612 L 10.790331 -20.751831 L 13.610644 -20.751831 C 13.376269 -19.783081 13.216113 -18.759644 13.130175 -17.677612 C 13.044238 -16.591675 13.005175 -15.4198 13.005175 -14.150269 C 13.005175 -12.45105 13.044238 -10.650269 13.130175 -8.751831 C 13.216113 -6.849487 13.259081 -4.900269 13.259081 -2.900269 C 13.259081 -1.900269 13.184863 -0.943237 13.036425 -0.0252687 C 12.884081 0.8927 12.567675 1.7052 12.087206 2.42395 C 11.602831 3.1427 10.934863 3.7052 10.087206 4.123169 C 9.235644 4.541138 8.110644 4.748169 6.712206 4.748169 C 5.17705 4.748169 3.720019 4.5802 2.337206 4.248169 C 0.950488 3.916138 -0.221387 3.447388 -1.190137 2.849731 Z M 9.559863 -14.552612 C 9.262988 -15.349487 8.735644 -16.083862 7.977831 -16.751831 C 7.223925 -17.4198 6.149706 -17.751831 4.7708 -17.751831 C 3.747363 -17.751831 2.915331 -17.384644 2.274706 -16.650269 C 1.630175 -15.9198 1.309863 -14.884644 1.309863 -13.552612 C 1.309863 -12.685425 1.481738 -11.966675 1.829394 -11.400269 C 2.173144 -10.833862 2.6458 -10.384644 3.235644 -10.052612 C 3.829394 -9.716675 4.505175 -9.4823 5.262988 -9.349487 C 6.0208 -9.216675 6.794238 -9.150269 7.5833 -9.150269 C 7.915331 -9.150269 8.243456 -9.158081 8.571581 -9.177612 C 8.903613 -9.193237 9.231738 -9.216675 9.559863 -9.251831 Z M 9.559863 -14.552612 " transform="matrix(1, 0, 0, -1, 2377.6667, 5961.9552)"/>
<g xmlns="http://www.w3.org/2000/svg" fill="rgb(9.803772%, 9.411621%, 10.980225%)" fill-opacity="1"><use xmlns:xlink="http://www.w3.org/1999/xlink" xlink:href="#glyph-21-31" x="2350.251" y="5982.6011"/><use xmlns:xlink="http://www.w3.org/1999/xlink" xlink:href="#glyph-21-1" x="2373.801" y="5982.6011"/></g>
<path xmlns="http://www.w3.org/2000/svg" fill="none" stroke-width="0.5" stroke-linecap="round" stroke-linejoin="round" stroke="rgb(9.803772%, 9.411621%, 10.980225%)" stroke-opacity="1" stroke-dasharray="9.997 4.999" stroke-miterlimit="4" d="M -0.0001 0.00009375 L -0.0001 -6070.855375 " transform="matrix(1, 0, 0, -1, 1201.0626, 638.254)"/>
<path xmlns="http://www.w3.org/2000/svg" fill="none" stroke-width="0.5" stroke-linecap="round" stroke-linejoin="round" stroke="rgb(9.803772%, 9.411621%, 10.980225%)" stroke-opacity="1" stroke-miterlimit="4" d="M -0.0001 0.00143125 L -0.0001 -4.998569 " transform="matrix(1, 0, 0, -1, 1201.0626, 6711.6069)"/>
<path xmlns="http://www.w3.org/2000/svg" fill="none" stroke-width="0.5" stroke-linecap="round" stroke-linejoin="round" stroke="rgb(9.803772%, 9.411621%, 10.980225%)" stroke-opacity="1" stroke-dasharray="9.997 4.999" stroke-miterlimit="4" d="M -0.00075625 0.00009375 L -0.00075625 -6070.855375 " transform="matrix(1, 0, 0, -1, 2278.4031, 638.254)"/>
<path xmlns="http://www.w3.org/2000/svg" fill="none" stroke-width="0.5" stroke-linecap="round" stroke-linejoin="round" stroke="rgb(9.803772%, 9.411621%, 10.980225%)" stroke-opacity="1" stroke-miterlimit="4" d="M -0.00075625 0.00143125 L -0.00075625 -4.998569 " transform="matrix(1, 0, 0, -1, 2278.4031, 6711.6069)"/>
<path xmlns="http://www.w3.org/2000/svg" fill="none" stroke-width="0.5" stroke-linecap="round" stroke-linejoin="round" stroke="rgb(9.803772%, 9.411621%, 10.980225%)" stroke-opacity="1" stroke-dasharray="9.997 4.999" stroke-miterlimit="4" d="M -0.001175 -0.001275 L 8590.1707 -0.001275 " transform="matrix(1, 0, 0, -1, 29.3293, 6660.2956)"/>
<g xmlns="http://www.w3.org/2000/svg" clip-path="url(#clip-2805)"><path fill-rule="nonzero" fill="rgb(100%, 100%, 100%)" fill-opacity="1" d="M 8627 626.714844 L 0.253906 626.714844 L 0.253906 6726.714844 L 8627 6726.714844 Z M 8552.207031 6651.945312 L 75.042969 6651.945312 L 75.042969 701.484375 L 8552.207031 701.484375 Z M 8552.207031 6651.945312 "/></g>
<g xmlns="http://www.w3.org/2000/svg" clip-path="url(#clip-2806)"><path fill="none" stroke-width="0.373" stroke-linecap="butt" stroke-linejoin="miter" stroke="rgb(9.803772%, 9.411621%, 10.980225%)" stroke-opacity="1" stroke-miterlimit="10" d="M 8627 6100.165156 L 0.253906 6100.165156 L 0.253906 0.165156 L 8627 0.165156 Z M 8552.207031 74.934688 L 75.042969 74.934688 L 75.042969 6025.395625 L 8552.207031 6025.395625 Z M 8552.207031 74.934688 " transform="matrix(1, 0, 0, -1, 0, 6726.88)"/></g>
<g xmlns="http://www.w3.org/2000/svg" fill="rgb(9.803772%, 9.411621%, 10.980225%)" fill-opacity="1"><use xmlns:xlink="http://www.w3.org/1999/xlink" xlink:href="#glyph-49-1" x="1664.397564" y="6710.383354"/></g>
<path xmlns="http://www.w3.org/2000/svg" fill-rule="nonzero" fill="rgb(100%, 100%, 100%)" fill-opacity="1" d="M 2382.609375 5900.738281 C 2360.628906 5900.738281 2342.75 5882.855469 2342.75 5860.875 C 2342.75 5838.894531 2360.628906 5821.015625 2382.609375 5821.015625 C 2404.589844 5821.015625 2422.472656 5838.894531 2422.472656 5860.875 C 2422.472656 5882.855469 2404.589844 5900.738281 2382.609375 5900.738281 "/>
<path xmlns="http://www.w3.org/2000/svg" fill-rule="nonzero" fill="rgb(79.216003%, 16.862488%, 31.764221%)" fill-opacity="1" d="M 2382.609375 5814.746094 C 2357.175781 5814.746094 2336.480469 5835.441406 2336.480469 5860.875 C 2336.480469 5886.3125 2357.175781 5907.003906 2382.609375 5907.003906 C 2408.046875 5907.003906 2428.738281 5886.3125 2428.738281 5860.875 C 2428.738281 5835.441406 2408.046875 5814.746094 2382.609375 5814.746094 M 2382.609375 5827.28125 C 2401.164062 5827.28125 2416.203125 5842.324219 2416.203125 5860.875 C 2416.203125 5879.429688 2401.164062 5894.46875 2382.609375 5894.46875 C 2364.058594 5894.46875 2349.015625 5879.429688 2349.015625 5860.875 C 2349.015625 5842.324219 2364.058594 5827.28125 2382.609375 5827.28125 "/>
<path xmlns="http://www.w3.org/2000/svg" fill="none" stroke-width="2.835" stroke-linecap="butt" stroke-linejoin="miter" stroke="rgb(100%, 100%, 100%)" stroke-opacity="1" stroke-miterlimit="4" d="M 1188.925781 100.419063 L 1192.101562 100.419063 L 1192.101562 120.262813 L 1188.925781 120.262813 Z M 1188.867188 124.78625 C 1189.277344 124.391719 1189.800781 124.1925 1190.433594 124.1925 C 1191.070312 124.1925 1191.613281 124.391719 1192.0625 124.78625 C 1192.511719 125.184688 1192.734375 125.688594 1192.734375 126.294063 C 1192.734375 126.903438 1192.511719 127.426875 1192.0625 127.864375 C 1191.613281 128.301875 1191.070312 128.516719 1190.433594 128.516719 C 1189.800781 128.516719 1189.277344 128.301875 1188.867188 127.864375 C 1188.457031 127.426875 1188.253906 126.903438 1188.253906 126.294063 C 1188.253906 125.688594 1188.457031 125.184688 1188.867188 124.78625 Z M 1188.867188 124.78625 " transform="matrix(1, 0, 0, -1, 0, 6726.88)"/>
<path xmlns="http://www.w3.org/2000/svg" fill="none" stroke-width="2.835" stroke-linecap="butt" stroke-linejoin="miter" stroke="rgb(100%, 100%, 100%)" stroke-opacity="1" stroke-miterlimit="4" d="M -0.00123125 0.0001125 L -3.173106 0.0001125 L -3.173106 -23.812388 C -3.173106 -25.425669 -2.790294 -26.5702 -2.024669 -27.242075 C -1.255138 -27.917856 -0.278575 -28.2577 0.912831 -28.2577 C 1.467519 -28.2577 2.123769 -28.187388 2.877675 -28.058481 C 3.631581 -27.925669 4.217519 -27.753794 4.6433 -27.542856 L 4.287831 -25.042856 C 3.783925 -25.22645 3.334706 -25.347544 2.936269 -25.398325 C 2.541737 -25.449106 2.170644 -25.47645 1.826894 -25.47645 C 1.244862 -25.47645 0.791737 -25.277231 0.475331 -24.8827 C 0.158925 -24.484263 -0.00123125 -23.824106 -0.00123125 -22.898325 Z M -0.00123125 0.0001125 " transform="matrix(1, 0, 0, -1, 1202.4192, 6598.6798)"/>
<path xmlns="http://www.w3.org/2000/svg" fill="none" stroke-width="2.835" stroke-linecap="butt" stroke-linejoin="miter" stroke="rgb(100%, 100%, 100%)" stroke-opacity="1" stroke-miterlimit="4" d="M -0.0012625 -0.0018125 C 0.369831 0.216938 0.799519 0.416156 1.291706 0.591938 C 1.779988 0.767719 2.295613 0.916156 2.838581 1.041156 C 3.377644 1.16225 3.908894 1.259906 4.424519 1.326313 C 4.940144 1.396625 5.424519 1.427875 5.873738 1.427875 C 7.408894 1.427875 8.467488 1.138813 9.049519 0.556781 C 9.63155 -0.02525 9.920613 -1.044781 9.920613 -2.501812 C 9.920613 -3.134625 9.88155 -3.849469 9.803425 -4.642437 C 9.432331 -4.591656 9.06905 -4.564312 8.709675 -4.564312 L 7.619831 -4.564312 C 6.1628 -4.564312 4.834675 -4.661969 3.63155 -4.861187 C 2.428425 -5.060406 1.393269 -5.392437 0.5378 -5.853375 C -0.325481 -6.314312 -0.99345 -6.939312 -1.466106 -7.720562 C -1.946575 -8.497906 -2.184856 -9.470562 -2.184856 -10.634625 C -2.184856 -11.509625 -2.032512 -12.290875 -1.727825 -12.978375 C -1.423137 -13.665875 -1.005169 -14.255719 -0.477825 -14.744 C 0.053425 -15.232281 0.682331 -15.607281 1.408894 -15.872906 C 2.135456 -16.138531 2.924519 -16.271344 3.768269 -16.271344 C 4.615925 -16.271344 5.369831 -16.177594 6.033894 -15.994 C 6.69405 -15.8065 7.276081 -15.576031 7.776081 -15.298687 C 8.279988 -15.021344 8.709675 -14.704937 9.06905 -14.345562 C 9.424519 -13.986187 9.721394 -13.626812 9.959675 -13.255719 L 10.158894 -13.255719 L 10.994831 -16.033062 L 13.334675 -16.033062 C 13.123738 -15.290875 12.9753 -14.482281 12.897175 -13.611187 C 12.81905 -12.736187 12.776081 -11.814312 12.776081 -10.833844 C 12.776081 -9.482281 12.81905 -8.0565 12.897175 -6.548687 C 12.9753 -5.040875 13.018269 -3.490094 13.018269 -1.904156 C 13.018269 -1.189312 12.94405 -0.474469 12.799519 0.236469 C 12.651081 0.951313 12.362019 1.607563 11.924519 2.201313 C 11.490925 2.798969 10.854206 3.279438 10.022175 3.650531 C 9.186238 4.021625 8.080769 4.205219 6.705769 4.205219 C 5.252644 4.205219 3.854206 4.060688 2.518269 3.771625 C 1.182331 3.478656 0.0143625 3.029438 -0.99345 2.420063 Z M 2.104206 -12.599469 C 1.440144 -12.005719 1.112019 -11.244 1.112019 -10.318219 C 1.112019 -9.658062 1.291706 -9.107281 1.647175 -8.669781 C 2.002644 -8.232281 2.479206 -7.892437 3.076863 -7.638531 C 3.670613 -7.388531 4.358113 -7.216656 5.139363 -7.122906 C 5.920613 -7.029156 6.721394 -6.982281 7.541706 -6.982281 C 7.908894 -6.982281 8.2878 -6.990094 8.670613 -7.005719 C 9.053425 -7.017437 9.432331 -7.036969 9.803425 -7.064312 L 9.803425 -10.357281 C 9.670613 -10.701031 9.463581 -11.060406 9.186238 -11.427594 C 8.908894 -11.798687 8.557331 -12.138531 8.135456 -12.439312 C 7.713581 -12.744 7.209675 -12.997906 6.627644 -13.193219 C 6.045613 -13.392437 5.38155 -13.490094 4.643269 -13.490094 C 3.612019 -13.490094 2.764363 -13.193219 2.104206 -12.599469 Z M 2.104206 -12.599469 " transform="matrix(1, 0, 0, -1, 1211.1497, 6610.506)"/>
<path xmlns="http://www.w3.org/2000/svg" fill="none" stroke-width="2.835" stroke-linecap="butt" stroke-linejoin="miter" stroke="rgb(100%, 100%, 100%)" stroke-opacity="1" stroke-miterlimit="4" d="M 0.00071875 -0.0008875 C -0.952406 0.264737 -1.811781 0.39755 -2.581312 0.39755 C -3.663344 0.39755 -4.557875 0.151456 -5.257094 -0.336825 C -5.960219 -0.825106 -6.561781 -1.520419 -7.065687 -2.422763 L -7.221937 -2.422763 L -7.819594 -0.0008875 L -10.04225 -0.0008875 L -10.04225 -19.844638 L -6.866469 -19.844638 L -6.866469 -5.954013 C -6.706312 -5.000888 -6.296156 -4.215731 -5.636 -3.590731 C -4.975844 -2.969638 -4.0735 -2.657138 -2.936781 -2.657138 C -2.221937 -2.657138 -1.468031 -2.793856 -0.675062 -3.055575 Z M 0.00071875 -0.0008875 " transform="matrix(1, 0, 0, -1, 1240.1985, 6606.6163)"/>
<path xmlns="http://www.w3.org/2000/svg" fill="none" stroke-width="2.835" stroke-linecap="butt" stroke-linejoin="miter" stroke="rgb(100%, 100%, 100%)" stroke-opacity="1" stroke-miterlimit="4" d="M -0.00118125 -0.0018125 C 0.369913 0.216938 0.7996 0.416156 1.291788 0.591938 C 1.780069 0.767719 2.295694 0.916156 2.838663 1.041156 C 3.377725 1.16225 3.908975 1.259906 4.4246 1.326313 C 4.940225 1.396625 5.4246 1.427875 5.873819 1.427875 C 7.405069 1.427875 8.467569 1.138813 9.0496 0.556781 C 9.631631 -0.02525 9.920694 -1.044781 9.920694 -2.501812 C 9.920694 -3.134625 9.881631 -3.849469 9.803506 -4.642437 C 9.432413 -4.591656 9.069131 -4.564312 8.709756 -4.564312 L 7.619913 -4.564312 C 6.162881 -4.564312 4.834756 -4.661969 3.631631 -4.861187 C 2.428506 -5.060406 1.39335 -5.392437 0.537881 -5.853375 C -0.3254 -6.314312 -0.993369 -6.939312 -1.469931 -7.720562 C -1.946494 -8.497906 -2.184775 -9.470562 -2.184775 -10.634625 C -2.184775 -11.509625 -2.032431 -12.290875 -1.727744 -12.978375 C -1.423056 -13.665875 -1.005087 -14.255719 -0.477744 -14.744 C 0.0535063 -15.232281 0.682413 -15.607281 1.408975 -15.872906 C 2.135538 -16.138531 2.9246 -16.271344 3.76835 -16.271344 C 4.616006 -16.271344 5.369913 -16.177594 6.030069 -15.994 C 6.694131 -15.8065 7.276163 -15.576031 7.776163 -15.298687 C 8.280069 -15.021344 8.709756 -14.704937 9.069131 -14.345562 C 9.4246 -13.986187 9.721475 -13.626812 9.959756 -13.255719 L 10.158975 -13.255719 L 10.994913 -16.033062 L 13.334756 -16.033062 C 13.123819 -15.290875 12.975381 -14.482281 12.897256 -13.611187 C 12.819131 -12.736187 12.776163 -11.814312 12.776163 -10.833844 C 12.776163 -9.482281 12.819131 -8.0565 12.897256 -6.548687 C 12.975381 -5.040875 13.01835 -3.490094 13.01835 -1.904156 C 13.01835 -1.189312 12.944131 -0.474469 12.7996 0.236469 C 12.651163 0.951313 12.3621 1.607563 11.9246 2.201313 C 11.4871 2.798969 10.854288 3.279438 10.022256 3.650531 C 9.186319 4.021625 8.08085 4.205219 6.70585 4.205219 C 5.252725 4.205219 3.854288 4.060688 2.51835 3.771625 C 1.182413 3.478656 0.0144438 3.029438 -0.993369 2.420063 Z M 2.104288 -12.599469 C 1.440225 -12.005719 1.1121 -11.244 1.1121 -10.318219 C 1.1121 -9.658062 1.291788 -9.107281 1.647256 -8.669781 C 2.002725 -8.232281 2.479288 -7.892437 3.076944 -7.638531 C 3.670694 -7.388531 4.358194 -7.216656 5.139444 -7.122906 C 5.920694 -7.029156 6.721475 -6.982281 7.541788 -6.982281 C 7.908975 -6.982281 8.287881 -6.990094 8.670694 -7.005719 C 9.053506 -7.017437 9.432413 -7.036969 9.803506 -7.064312 L 9.803506 -10.357281 C 9.670694 -10.701031 9.463663 -11.060406 9.186319 -11.427594 C 8.908975 -11.798687 8.557413 -12.138531 8.135538 -12.439312 C 7.713663 -12.744 7.209756 -12.997906 6.627725 -13.193219 C 6.045694 -13.392437 5.381631 -13.490094 4.64335 -13.490094 C 3.6121 -13.490094 2.764444 -13.193219 2.104288 -12.599469 Z M 2.104288 -12.599469 " transform="matrix(1, 0, 0, -1, 1244.3254, 6610.506)"/>
<path xmlns="http://www.w3.org/2000/svg" fill="none" stroke-width="2.835" stroke-linecap="butt" stroke-linejoin="miter" stroke="rgb(100%, 100%, 100%)" stroke-opacity="1" stroke-miterlimit="4" d="M -0.00120625 -0.0018375 L -0.00120625 11.986444 C -0.00120625 13.623163 -0.137925 14.982538 -0.415269 16.05285 C -0.692612 17.123163 -1.106675 17.978631 -1.645737 18.611444 C -2.188706 19.248163 -2.8723 19.689569 -3.688706 19.939569 C -4.512925 20.193475 -5.462144 20.318475 -6.548081 20.318475 C -8.02855 20.318475 -9.305894 20.048944 -10.376206 19.505975 C -11.450425 18.963006 -12.301987 18.267694 -12.938706 17.423944 L -13.094956 17.423944 L -13.692612 19.841913 L -15.915269 19.841913 L -15.915269 -0.0018375 L -12.739487 -0.0018375 L -12.739487 13.572381 C -12.368394 14.7091 -11.727769 15.654413 -10.813706 16.408319 C -9.899644 17.162225 -8.743394 17.541131 -7.34105 17.541131 C -5.755112 17.541131 -4.661362 17.017694 -4.067612 15.974725 C -3.473862 14.92785 -3.173081 13.373163 -3.173081 11.310663 L -3.173081 -0.0018375 Z M -0.00120625 -0.0018375 " transform="matrix(1, 0, 0, -1, 1279.2473, 6626.4591)"/>
<path xmlns="http://www.w3.org/2000/svg" fill="none" stroke-width="2.835" stroke-linecap="butt" stroke-linejoin="miter" stroke="rgb(100%, 100%, 100%)" stroke-opacity="1" stroke-miterlimit="4" d="M 0.0016875 0.00108125 C -0.845969 0.317488 -1.806906 0.594831 -2.877219 0.833113 C -3.947531 1.071394 -5.236594 1.188581 -6.744406 1.188581 C -9.89675 1.188581 -12.275656 0.309675 -13.888938 -1.448137 C -15.502219 -3.209856 -16.310813 -5.780169 -16.310813 -9.166887 C -16.310813 -12.686419 -15.681906 -15.276262 -14.424094 -16.944231 C -13.170188 -18.6122 -11.205344 -19.444231 -8.533469 -19.444231 C -7.20925 -19.444231 -6.138938 -19.241106 -5.318625 -18.83095 C -4.498313 -18.420794 -3.822531 -17.83095 -3.291281 -17.065325 L -3.135031 -17.065325 L -3.135031 -18.967669 C -3.135031 -19.975481 -3.213156 -20.842669 -3.373313 -21.569231 C -3.533469 -22.295794 -3.822531 -22.889544 -4.244406 -23.354387 C -4.670188 -23.815325 -5.232688 -24.147356 -5.931906 -24.346575 C -6.635031 -24.545794 -7.541281 -24.64345 -8.650656 -24.64345 C -9.842063 -24.64345 -10.806906 -24.537981 -11.549094 -24.327044 C -12.287375 -24.1122 -12.963156 -23.889544 -13.572531 -23.651262 L -14.404563 -26.350481 C -13.717063 -26.666887 -12.892844 -26.9247 -11.924094 -27.123919 C -10.95925 -27.323137 -9.681906 -27.420794 -8.095969 -27.420794 C -5.424094 -27.420794 -3.404563 -26.811419 -2.041281 -25.596575 C -0.681906 -24.377825 0.0016875 -22.4872 0.0016875 -19.920794 Z M -10.318625 -16.1122 C -10.951438 -15.741106 -11.467063 -15.225481 -11.8655 -14.565325 C -12.263938 -13.901262 -12.553 -13.108294 -12.7405 -12.182512 C -12.924094 -11.256731 -13.017844 -10.2372 -13.017844 -9.127825 C -13.017844 -6.534075 -12.498313 -4.631731 -11.467063 -3.412981 C -10.435813 -2.194231 -9.02175 -1.588762 -7.224875 -1.588762 C -5.58425 -1.588762 -4.232688 -1.838762 -3.174094 -2.342669 L -3.174094 -12.498919 C -3.4905 -13.928606 -4.033469 -14.979387 -4.803 -15.655169 C -5.568625 -16.33095 -6.627219 -16.666887 -7.978781 -16.666887 C -8.904563 -16.666887 -9.681906 -16.483294 -10.318625 -16.1122 Z M -10.318625 -16.1122 " transform="matrix(1, 0, 0, -1, 1300.2405, 6607.4503)"/>
<path xmlns="http://www.w3.org/2000/svg" fill="none" stroke-width="2.835" stroke-linecap="butt" stroke-linejoin="miter" stroke="rgb(100%, 100%, 100%)" stroke-opacity="1" stroke-miterlimit="4" d="M -0.00023125 -0.00088125 C 0.409925 -0.422756 0.960706 -0.6376 1.648206 -0.6376 C 2.359144 -0.6376 2.929456 -0.422756 3.355237 -0.00088125 C 3.777112 0.4249 3.98805 0.979587 3.98805 1.667087 C 3.98805 2.381931 3.777112 2.940525 3.355237 3.354587 C 2.929456 3.764744 2.359144 3.967869 1.648206 3.967869 C 0.960706 3.967869 0.409925 3.764744 -0.00023125 3.354587 C -0.410388 2.940525 -0.613513 2.381931 -0.613513 1.667087 C -0.613513 0.979587 -0.410388 0.4249 -0.00023125 -0.00088125 Z M -0.00023125 -0.00088125 " transform="matrix(1, 0, 0, -1, 1305.8557, 6626.2999)"/>
<g xmlns="http://www.w3.org/2000/svg" fill="rgb(9.803772%, 9.411621%, 10.980225%)" fill-opacity="1"><use xmlns:xlink="http://www.w3.org/1999/xlink" xlink:href="#glyph-93-5" x="1185.217715" y="6626.459"/><use xmlns:xlink="http://www.w3.org/1999/xlink" xlink:href="#glyph-93-8" x="1195.853295" y="6626.459"/><use xmlns:xlink="http://www.w3.org/1999/xlink" xlink:href="#glyph-93-3" x="1207.441315" y="6626.459"/><use xmlns:xlink="http://www.w3.org/1999/xlink" xlink:href="#glyph-93-31" x="1227.125075" y="6626.459"/><use xmlns:xlink="http://www.w3.org/1999/xlink" xlink:href="#glyph-93-3" x="1240.617975" y="6626.459"/><use xmlns:xlink="http://www.w3.org/1999/xlink" xlink:href="#glyph-93-6" x="1260.301735" y="6626.459"/><use xmlns:xlink="http://www.w3.org/1999/xlink" xlink:href="#glyph-93-10" x="1282.00943" y="6626.459"/><use xmlns:xlink="http://www.w3.org/1999/xlink" xlink:href="#glyph-93-18" x="1303.320275" y="6626.459"/></g>
</svg>
