<svg width="1200" height="630" viewBox="0 0 1200 630" fill="none" xmlns="http://www.w3.org/2000/svg">
<rect width="1200" height="630" fill="#FFE3E8"/>
<text fill="#F55875" style="white-space: pre" xml:space="preserve" font-family="Plus Jakarta Sans" font-size="64" font-weight="bold" letter-spacing="0em"><tspan x="38" y="122.612">Cek</tspan><tspan x="38" y="203.612">Jadwal Stasiun</tspan><tspan x="38" y="284.612">Jakarta Intl. Stadium</tspan><tspan x="38" y="365.612">Kagak Pake Ribet</tspan></text>
<path fill-rule="evenodd" clip-rule="evenodd" d="M63.7021 561.656C64.9341 561.656 66.0461 561.96 67.0381 562.568C68.0298 563.176 68.8137 563.992 69.3896 565.016C69.9816 566.04 70.2783 567.192 70.2783 568.472C70.2783 569.736 69.99 570.888 69.4141 571.928C68.8381 572.968 68.0535 573.792 67.0615 574.4C66.0696 574.992 64.9415 575.288 63.6777 575.288C62.7338 575.288 61.8615 575.104 61.0615 574.736C60.5319 574.477 60.0779 574.142 59.6943 573.736V579.8H56.5498V561.944H59.502V563.488C59.9118 562.975 60.4228 562.563 61.0381 562.256C61.806 561.856 62.6942 561.656 63.7021 561.656ZM63.3184 564.536C62.6305 564.536 62.0062 564.704 61.4463 565.04C60.9023 565.376 60.4704 565.848 60.1504 566.456C59.8464 567.048 59.6944 567.72 59.6943 568.472C59.6943 569.24 59.8464 569.92 60.1504 570.512C60.4704 571.104 60.9023 571.568 61.4463 571.904C62.0062 572.24 62.6305 572.408 63.3184 572.408C64.0382 572.408 64.6784 572.24 65.2383 571.904C65.7982 571.568 66.2302 571.104 66.5342 570.512C66.8541 569.92 67.0137 569.24 67.0137 568.472C67.0136 567.704 66.8541 567.032 66.5342 566.456C66.2303 565.864 65.7981 565.4 65.2383 565.064C64.6784 564.713 64.0382 564.536 63.3184 564.536Z" fill="#F55875"/>
<path fill-rule="evenodd" clip-rule="evenodd" d="M105.028 561.944C106.196 561.944 107.196 562.152 108.028 562.568C108.876 562.984 109.524 563.576 109.972 564.344C110.42 565.096 110.644 566 110.645 567.056V575H107.668V573.629C107.502 573.812 107.326 573.981 107.14 574.136C106.676 574.504 106.148 574.792 105.556 575C104.964 575.192 104.308 575.288 103.588 575.288C102.676 575.288 101.884 575.136 101.212 574.832C100.54 574.528 100.02 574.096 99.6523 573.536C99.2843 572.96 99.0996 572.296 99.0996 571.544C99.0996 570.824 99.2601 570.184 99.5801 569.624C99.9001 569.048 100.396 568.568 101.068 568.184C101.74 567.8 102.588 567.528 103.612 567.368L107.466 566.739C107.388 566.202 107.168 565.763 106.804 565.424C106.356 564.976 105.708 564.752 104.86 564.752H100.468V561.944H105.028ZM104.212 569.696C103.588 569.808 103.124 570.008 102.82 570.296C102.516 570.584 102.364 570.96 102.364 571.424C102.364 571.872 102.532 572.232 102.868 572.504C103.22 572.76 103.652 572.888 104.164 572.888C104.82 572.888 105.396 572.751 105.892 572.479C106.404 572.191 106.796 571.8 107.068 571.304C107.356 570.808 107.5 570.264 107.5 569.672V569.137L104.212 569.696Z" fill="#F55875"/>
<path d="M118.206 561.656C119.438 561.656 120.526 561.952 121.47 562.544C122.414 563.136 123.086 563.968 123.486 565.04L121.086 566.168C120.862 565.576 120.486 565.104 119.958 564.752C119.43 564.4 118.838 564.224 118.182 564.224C117.654 564.224 117.238 564.344 116.934 564.584C116.63 564.824 116.478 565.136 116.478 565.52C116.478 565.759 116.542 565.968 116.67 566.144C116.798 566.32 116.974 566.464 117.198 566.576C117.438 566.688 117.71 566.792 118.014 566.888L120.102 567.512C121.174 567.832 121.998 568.312 122.574 568.952C123.166 569.592 123.462 570.376 123.462 571.304C123.462 572.088 123.254 572.784 122.838 573.392C122.422 573.984 121.846 574.448 121.11 574.784C120.374 575.12 119.51 575.288 118.518 575.288C117.126 575.288 115.91 574.96 114.87 574.304C113.846 573.632 113.142 572.728 112.758 571.592L115.11 570.464C115.446 571.2 115.91 571.776 116.502 572.192C117.11 572.608 117.782 572.816 118.518 572.816C119.094 572.816 119.55 572.688 119.886 572.432C120.222 572.176 120.39 571.84 120.39 571.424C120.39 571.168 120.318 570.96 120.174 570.8C120.046 570.624 119.862 570.48 119.622 570.368C119.398 570.24 119.15 570.136 118.878 570.056L116.742 569.456C115.638 569.136 114.798 568.648 114.222 567.992C113.662 567.336 113.382 566.56 113.382 565.664C113.382 564.864 113.582 564.168 113.982 563.576C114.398 562.968 114.966 562.496 115.686 562.16C116.422 561.824 117.262 561.656 118.206 561.656Z" fill="#F55875"/>
<path d="M147.782 569.408C147.782 570.544 147.542 571.552 147.062 572.432C146.583 573.312 145.886 574.008 144.975 574.52C144.063 575.032 142.967 575.288 141.687 575.288C140.055 575.288 138.679 574.872 137.559 574.04C136.439 573.208 135.727 572.064 135.423 570.608L138.446 569.792C138.67 570.608 139.07 571.232 139.646 571.664C140.222 572.096 140.911 572.312 141.711 572.312C142.303 572.311 142.807 572.2 143.223 571.976C143.639 571.736 143.959 571.4 144.183 570.968C144.407 570.52 144.519 570 144.519 569.408V557.12H147.782V569.408Z" fill="#F55875"/>
<path fill-rule="evenodd" clip-rule="evenodd" d="M156.31 561.944C157.477 561.944 158.478 562.152 159.31 562.568C160.157 562.984 160.805 563.576 161.253 564.344C161.701 565.096 161.926 566 161.926 567.056V575H158.949V573.629C158.783 573.812 158.608 573.981 158.421 574.136C157.957 574.504 157.429 574.792 156.837 575C156.245 575.192 155.589 575.288 154.869 575.288C153.957 575.288 153.165 575.136 152.493 574.832C151.821 574.528 151.302 574.096 150.934 573.536C150.566 572.96 150.381 572.296 150.381 571.544C150.381 570.824 150.541 570.184 150.861 569.624C151.181 569.048 151.678 568.568 152.35 568.184C153.022 567.8 153.87 567.528 154.894 567.368L158.747 566.739C158.669 566.202 158.45 565.763 158.085 565.424C157.637 564.976 156.989 564.752 156.142 564.752H151.749V561.944H156.31ZM155.493 569.696C154.869 569.808 154.406 570.008 154.102 570.296C153.798 570.584 153.646 570.96 153.646 571.424C153.646 571.872 153.813 572.232 154.149 572.504C154.501 572.76 154.933 572.888 155.445 572.888C156.101 572.888 156.677 572.751 157.173 572.479C157.685 572.191 158.078 571.8 158.35 571.304C158.637 570.808 158.781 570.264 158.781 569.672V569.137L155.493 569.696Z" fill="#F55875"/>
<path fill-rule="evenodd" clip-rule="evenodd" d="M178.031 575H175.056V573.56C174.648 574.047 174.137 574.44 173.52 574.736C172.72 575.104 171.847 575.288 170.903 575.288C169.64 575.288 168.511 574.992 167.52 574.4C166.528 573.792 165.743 572.968 165.167 571.928C164.591 570.888 164.303 569.736 164.303 568.472C164.303 567.192 164.591 566.04 165.167 565.016C165.743 563.992 166.528 563.176 167.52 562.568C168.527 561.96 169.647 561.656 170.879 561.656C171.871 561.656 172.752 561.856 173.52 562.256C174.054 562.518 174.508 562.855 174.887 563.266V556.832H178.031V575ZM171.239 564.536C170.535 564.536 169.903 564.712 169.343 565.064C168.783 565.4 168.343 565.864 168.023 566.456C167.719 567.032 167.567 567.704 167.567 568.472C167.567 569.24 167.719 569.92 168.023 570.512C168.343 571.104 168.783 571.568 169.343 571.904C169.903 572.24 170.535 572.408 171.239 572.408C171.959 572.408 172.591 572.24 173.135 571.904C173.679 571.568 174.103 571.104 174.407 570.512C174.727 569.92 174.887 569.24 174.887 568.472C174.887 567.72 174.727 567.048 174.407 566.456C174.103 565.848 173.679 565.376 173.135 565.04C172.591 564.704 171.959 564.536 171.239 564.536Z" fill="#F55875"/>
<path fill-rule="evenodd" clip-rule="evenodd" d="M207.075 561.944C208.243 561.944 209.243 562.152 210.075 562.568C210.923 562.984 211.571 563.576 212.019 564.344C212.467 565.096 212.691 566 212.691 567.056V575H209.715V573.629C209.549 573.812 209.373 573.981 209.187 574.136C208.723 574.504 208.194 574.792 207.603 575C207.011 575.192 206.355 575.288 205.635 575.288C204.723 575.288 203.931 575.136 203.259 574.832C202.587 574.528 202.067 574.096 201.699 573.536C201.331 572.96 201.146 572.296 201.146 571.544C201.146 570.824 201.307 570.184 201.627 569.624C201.947 569.048 202.443 568.568 203.115 568.184C203.787 567.8 204.635 567.528 205.659 567.368L209.513 566.739C209.435 566.202 209.215 565.763 208.851 565.424C208.403 564.976 207.755 564.752 206.907 564.752H202.515V561.944H207.075ZM206.259 569.696C205.635 569.808 205.171 570.008 204.867 570.296C204.563 570.584 204.411 570.96 204.411 571.424C204.411 571.872 204.579 572.232 204.915 572.504C205.267 572.76 205.699 572.888 206.211 572.888C206.867 572.888 207.443 572.751 207.938 572.479C208.45 572.191 208.843 571.8 209.115 571.304C209.403 570.808 209.547 570.264 209.547 569.672V569.137L206.259 569.696Z" fill="#F55875"/>
<path fill-rule="evenodd" clip-rule="evenodd" d="M249.322 561.656C250.346 561.656 251.243 561.824 252.011 562.16C252.794 562.496 253.458 562.96 254.002 563.552C254.546 564.144 254.962 564.824 255.25 565.592C255.538 566.344 255.683 567.16 255.683 568.04C255.683 568.264 255.666 568.496 255.634 568.736C255.618 568.976 255.579 569.184 255.515 569.36H246.108C246.149 569.809 246.251 570.226 246.418 570.608C246.706 571.216 247.13 571.688 247.69 572.024C248.25 572.36 248.915 572.528 249.683 572.528H254.41V575.288H249.683C248.291 575.288 247.083 574.984 246.059 574.376C245.035 573.768 244.243 572.944 243.683 571.904C243.123 570.864 242.842 569.712 242.842 568.448C242.842 567.136 243.123 565.976 243.683 564.968C244.259 563.944 245.035 563.136 246.011 562.544C247.003 561.952 248.106 561.656 249.322 561.656ZM249.322 564.248C248.666 564.248 248.082 564.416 247.57 564.752C247.058 565.072 246.667 565.552 246.395 566.192C246.298 566.429 246.224 566.685 246.173 566.96H252.32C252.295 566.663 252.232 566.383 252.13 566.12C251.922 565.544 251.57 565.088 251.074 564.752C250.594 564.416 250.01 564.248 249.322 564.248Z" fill="#F55875"/>
<path fill-rule="evenodd" clip-rule="evenodd" d="M272.994 561.656C274.018 561.656 274.915 561.824 275.683 562.16C276.466 562.496 277.13 562.96 277.674 563.552C278.218 564.144 278.634 564.824 278.922 565.592C279.21 566.344 279.354 567.16 279.354 568.04C279.354 568.264 279.338 568.496 279.306 568.736C279.29 568.976 279.25 569.184 279.187 569.36H269.78C269.821 569.809 269.923 570.226 270.09 570.608C270.378 571.216 270.802 571.688 271.362 572.024C271.922 572.36 272.587 572.528 273.354 572.528H278.082V575.288H273.354C271.963 575.288 270.754 574.984 269.73 574.376C268.707 573.768 267.914 572.944 267.354 571.904C266.795 570.864 266.514 569.712 266.514 568.448C266.514 567.136 266.794 565.976 267.354 564.968C267.93 563.944 268.707 563.136 269.683 562.544C270.675 561.952 271.778 561.656 272.994 561.656ZM272.994 564.248C272.338 564.248 271.754 564.416 271.242 564.752C270.73 565.072 270.338 565.552 270.066 566.192C269.969 566.429 269.896 566.685 269.845 566.96H275.992C275.967 566.663 275.904 566.383 275.802 566.12C275.594 565.544 275.242 565.088 274.746 564.752C274.266 564.416 273.682 564.248 272.994 564.248Z" fill="#F55875"/>
<path fill-rule="evenodd" clip-rule="evenodd" d="M297.005 561.944C298.173 561.944 299.173 562.152 300.005 562.568C300.853 562.984 301.5 563.576 301.948 564.344C302.396 565.096 302.621 566 302.621 567.056V575H299.645V573.629C299.479 573.812 299.303 573.981 299.116 574.136C298.652 574.504 298.124 574.792 297.532 575C296.94 575.192 296.284 575.288 295.564 575.288C294.653 575.288 293.86 575.136 293.188 574.832C292.517 574.528 291.997 574.096 291.629 573.536C291.261 572.96 291.076 572.296 291.076 571.544C291.076 570.824 291.237 570.184 291.557 569.624C291.877 569.048 292.373 568.568 293.045 568.184C293.717 567.8 294.565 567.528 295.589 567.368L299.442 566.739C299.364 566.202 299.145 565.763 298.78 565.424C298.332 564.976 297.685 564.752 296.837 564.752H292.444V561.944H297.005ZM296.188 569.696C295.565 569.808 295.101 570.008 294.797 570.296C294.493 570.584 294.341 570.96 294.341 571.424C294.341 571.872 294.509 572.232 294.845 572.504C295.197 572.76 295.629 572.888 296.141 572.888C296.797 572.888 297.372 572.751 297.868 572.479C298.38 572.191 298.773 571.8 299.045 571.304C299.333 570.808 299.477 570.264 299.477 569.672V569.137L296.188 569.696Z" fill="#F55875"/>
<path d="M329.266 569.768C329.266 570.296 329.378 570.76 329.602 571.16C329.826 571.56 330.138 571.872 330.538 572.096C330.938 572.304 331.394 572.408 331.906 572.408C332.434 572.408 332.89 572.304 333.273 572.096C333.673 571.872 333.986 571.56 334.21 571.16C334.434 570.76 334.546 570.296 334.546 569.768V561.944H337.689V569.864C337.689 570.936 337.442 571.88 336.946 572.696C336.466 573.512 335.794 574.152 334.93 574.616C334.066 575.064 333.05 575.288 331.882 575.288C330.746 575.288 329.737 575.064 328.857 574.616C327.994 574.152 327.322 573.512 326.842 572.696C326.362 571.88 326.122 570.936 326.122 569.864V561.944H329.266V569.768Z" fill="#F55875"/>
<path fill-rule="evenodd" clip-rule="evenodd" d="M346.013 561.944C347.181 561.944 348.181 562.152 349.013 562.568C349.86 562.984 350.508 563.576 350.956 564.344C351.404 565.096 351.629 566 351.629 567.056V575H348.652V573.629C348.486 573.812 348.311 573.981 348.124 574.136C347.66 574.504 347.132 574.792 346.54 575C345.948 575.192 345.292 575.288 344.572 575.288C343.66 575.288 342.868 575.136 342.196 574.832C341.524 574.528 341.005 574.096 340.637 573.536C340.269 572.96 340.084 572.296 340.084 571.544C340.084 570.824 340.244 570.184 340.564 569.624C340.884 569.048 341.381 568.568 342.053 568.184C342.725 567.8 343.573 567.528 344.597 567.368L348.45 566.739C348.372 566.202 348.153 565.763 347.788 565.424C347.34 564.976 346.692 564.752 345.845 564.752H341.452V561.944H346.013ZM345.196 569.696C344.573 569.808 344.109 570.008 343.805 570.296C343.501 570.584 343.349 570.96 343.349 571.424C343.349 571.872 343.517 572.232 343.853 572.504C344.205 572.76 344.636 572.888 345.148 572.888C345.804 572.888 346.38 572.751 346.876 572.479C347.388 572.191 347.781 571.8 348.053 571.304C348.341 570.808 348.484 570.264 348.484 569.672V569.137L345.196 569.696Z" fill="#F55875"/>
<path fill-rule="evenodd" clip-rule="evenodd" d="M405.192 561.944C406.36 561.944 407.36 562.152 408.192 562.568C409.04 562.984 409.688 563.576 410.136 564.344C410.584 565.096 410.809 566 410.809 567.056V575H407.832V573.629C407.666 573.812 407.49 573.981 407.304 574.136C406.84 574.504 406.312 574.792 405.72 575C405.128 575.192 404.472 575.288 403.752 575.288C402.84 575.288 402.048 575.136 401.376 574.832C400.704 574.528 400.184 574.096 399.816 573.536C399.448 572.96 399.264 572.296 399.264 571.544C399.264 570.824 399.424 570.184 399.744 569.624C400.064 569.048 400.56 568.568 401.232 568.184C401.904 567.8 402.753 567.528 403.776 567.368L407.63 566.739C407.552 566.202 407.332 565.763 406.968 565.424C406.52 564.976 405.872 564.752 405.024 564.752H400.632V561.944H405.192ZM404.376 569.696C403.752 569.808 403.288 570.008 402.984 570.296C402.68 570.584 402.528 570.96 402.528 571.424C402.528 571.872 402.696 572.232 403.032 572.504C403.384 572.76 403.816 572.888 404.328 572.888C404.984 572.888 405.56 572.751 406.056 572.479C406.568 572.191 406.96 571.8 407.232 571.304C407.52 570.808 407.664 570.264 407.664 569.672V569.137L404.376 569.696Z" fill="#F55875"/>
<path d="M443.423 569.408C443.423 570.544 443.183 571.552 442.703 572.432C442.223 573.312 441.527 574.008 440.615 574.52C439.703 575.032 438.607 575.288 437.327 575.288C435.695 575.288 434.319 574.872 433.199 574.04C432.079 573.208 431.368 572.064 431.063 570.608L434.087 569.792C434.311 570.608 434.711 571.232 435.287 571.664C435.863 572.096 436.552 572.312 437.352 572.312C437.943 572.311 438.447 572.2 438.863 571.976C439.279 571.736 439.599 571.4 439.823 570.968C440.047 570.52 440.159 570 440.159 569.408V557.12H443.423V569.408Z" fill="#F55875"/>
<path fill-rule="evenodd" clip-rule="evenodd" d="M451.95 561.944C453.118 561.944 454.118 562.152 454.95 562.568C455.798 562.984 456.446 563.576 456.894 564.344C457.342 565.096 457.566 566 457.566 567.056V575H454.59V573.629C454.424 573.812 454.248 573.981 454.062 574.136C453.598 574.504 453.069 574.792 452.478 575C451.886 575.192 451.23 575.288 450.51 575.288C449.598 575.288 448.806 575.136 448.134 574.832C447.462 574.528 446.942 574.096 446.574 573.536C446.206 572.96 446.021 572.296 446.021 571.544C446.021 570.824 446.182 570.184 446.502 569.624C446.822 569.048 447.318 568.568 447.99 568.184C448.662 567.8 449.51 567.528 450.534 567.368L454.388 566.739C454.31 566.202 454.09 565.763 453.726 565.424C453.278 564.976 452.63 564.752 451.782 564.752H447.39V561.944H451.95ZM451.134 569.696C450.51 569.808 450.046 570.008 449.742 570.296C449.438 570.584 449.286 570.96 449.286 571.424C449.286 571.872 449.454 572.232 449.79 572.504C450.142 572.76 450.574 572.888 451.086 572.888C451.742 572.888 452.318 572.751 452.813 572.479C453.325 572.191 453.718 571.8 453.99 571.304C454.278 570.808 454.422 570.264 454.422 569.672V569.137L451.134 569.696Z" fill="#F55875"/>
<path fill-rule="evenodd" clip-rule="evenodd" d="M479.724 561.944C480.892 561.944 481.892 562.152 482.724 562.568C483.571 562.984 484.219 563.576 484.667 564.344C485.115 565.096 485.34 566 485.34 567.056V575H482.363V573.629C482.197 573.812 482.022 573.981 481.835 574.136C481.371 574.504 480.843 574.792 480.251 575C479.659 575.192 479.003 575.288 478.283 575.288C477.371 575.288 476.579 575.136 475.907 574.832C475.235 574.528 474.716 574.096 474.348 573.536C473.98 572.96 473.795 572.296 473.795 571.544C473.795 570.824 473.955 570.184 474.275 569.624C474.595 569.048 475.092 568.568 475.764 568.184C476.436 567.8 477.284 567.528 478.308 567.368L482.161 566.739C482.083 566.202 481.864 565.763 481.499 565.424C481.051 564.976 480.403 564.752 479.556 564.752H475.163V561.944H479.724ZM478.907 569.696C478.283 569.808 477.82 570.008 477.516 570.296C477.212 570.584 477.06 570.96 477.06 571.424C477.06 571.872 477.227 572.232 477.563 572.504C477.915 572.76 478.347 572.888 478.859 572.888C479.515 572.888 480.091 572.751 480.587 572.479C481.099 572.191 481.492 571.8 481.764 571.304C482.052 570.808 482.195 570.264 482.195 569.672V569.137L478.907 569.696Z" fill="#F55875"/>
<path fill-rule="evenodd" clip-rule="evenodd" d="M512.841 561.944C514.009 561.944 515.009 562.152 515.841 562.568C516.689 562.984 517.336 563.576 517.784 564.344C518.232 565.096 518.457 566 518.457 567.056V575H515.48V573.629C515.315 573.812 515.139 573.981 514.952 574.136C514.488 574.504 513.96 574.792 513.368 575C512.776 575.192 512.12 575.288 511.4 575.288C510.488 575.288 509.696 575.136 509.024 574.832C508.353 574.528 507.833 574.096 507.465 573.536C507.097 572.96 506.912 572.296 506.912 571.544C506.912 570.824 507.073 570.184 507.393 569.624C507.713 569.048 508.209 568.568 508.881 568.184C509.553 567.8 510.401 567.528 511.425 567.368L515.278 566.739C515.2 566.202 514.981 565.763 514.616 565.424C514.168 564.976 513.521 564.752 512.673 564.752H508.28V561.944H512.841ZM512.024 569.696C511.401 569.808 510.937 570.008 510.633 570.296C510.329 570.584 510.177 570.96 510.177 571.424C510.177 571.872 510.345 572.232 510.681 572.504C511.033 572.76 511.465 572.888 511.977 572.888C512.632 572.888 513.208 572.751 513.704 572.479C514.216 572.191 514.609 571.8 514.881 571.304C515.169 570.808 515.312 570.264 515.312 569.672V569.137L512.024 569.696Z" fill="#F55875"/>
<path d="M75.8193 570.944C75.8195 571.92 76.3475 572.408 77.4033 572.408H77.5225V575.144H76.9473C75.4913 575.144 74.411 574.824 73.707 574.184C73.0191 573.528 72.6748 572.528 72.6748 571.184V556.832H75.8193V570.944Z" fill="#F55875"/>
<path d="M218.741 570.944C218.741 571.92 219.269 572.408 220.325 572.408H220.444V575.144H219.869C218.413 575.144 217.333 574.824 216.629 574.184C215.941 573.528 215.597 572.528 215.597 571.184V556.832H218.741V570.944Z" fill="#F55875"/>
<path d="M230.445 565.069L237.165 557.12H241.27L235.069 564.468L238.605 570.248C238.909 570.744 239.197 571.152 239.469 571.472C239.741 571.792 240.029 572.024 240.333 572.168C240.653 572.312 241.013 572.384 241.413 572.384H242.109V575.144H241.27C240.63 575.144 240.053 575.096 239.541 575C239.029 574.92 238.549 574.744 238.102 574.472C237.67 574.2 237.237 573.808 236.805 573.296C236.373 572.784 235.901 572.104 235.389 571.256L232.845 567.128L230.445 569.984V575H227.181V557.12H230.445V565.069Z" fill="#F55875"/>
<path d="M286.201 561.944H289.201V564.752H286.201V570.344C286.201 570.776 286.273 571.144 286.417 571.448C286.577 571.752 286.818 571.984 287.138 572.144C287.474 572.304 287.897 572.384 288.409 572.384C288.521 572.384 288.65 572.376 288.794 572.36C288.954 572.344 289.105 572.328 289.249 572.312V575C289.025 575.032 288.769 575.064 288.481 575.096C288.193 575.128 287.929 575.144 287.689 575.144C286.218 575.144 285.074 574.744 284.258 573.944C283.458 573.128 283.058 571.984 283.058 570.512V564.752H280.802V561.944H281.041C281.681 561.944 282.177 561.776 282.529 561.44C282.881 561.104 283.058 560.616 283.058 559.976V558.968H286.201V561.944Z" fill="#F55875"/>
<path d="M358.764 561.944H361.764V564.752H358.764V570.344C358.764 570.776 358.835 571.144 358.979 571.448C359.139 571.752 359.38 571.984 359.7 572.144C360.036 572.304 360.46 572.384 360.972 572.384C361.084 572.384 361.212 572.376 361.355 572.36C361.515 572.344 361.668 572.328 361.812 572.312V575C361.588 575.032 361.332 575.064 361.044 575.096C360.756 575.128 360.492 575.144 360.252 575.144C358.78 575.144 357.636 574.744 356.82 573.944C356.02 573.128 355.62 571.984 355.62 570.512V564.752H353.364V561.944H353.604C354.243 561.944 354.74 561.776 355.092 561.44C355.444 561.104 355.62 560.616 355.62 559.976V558.968H358.764V561.944Z" fill="#F55875"/>
<path d="M502.037 561.944H505.037V564.752H502.037V570.344C502.037 570.776 502.109 571.144 502.253 571.448C502.413 571.752 502.654 571.984 502.974 572.144C503.31 572.304 503.733 572.384 504.245 572.384C504.357 572.384 504.485 572.376 504.629 572.36C504.789 572.344 504.941 572.328 505.085 572.312V575C504.861 575.032 504.605 575.064 504.317 575.096C504.029 575.128 503.765 575.144 503.525 575.144C502.054 575.144 500.91 574.744 500.094 573.944C499.294 573.128 498.894 571.984 498.894 570.512V564.752H496.638V561.944H496.877C497.517 561.944 498.013 561.776 498.365 561.44C498.717 561.104 498.894 560.616 498.894 559.976V558.968H502.037V561.944Z" fill="#F55875"/>
<path fill-rule="evenodd" clip-rule="evenodd" d="M54.8242 575H51.2725L50 571.16H43.0879L41.792 575H38.2637L44.4316 557.12H48.6562L54.8242 575ZM44.0244 568.28H49.0645L46.5439 560.74L44.0244 568.28Z" fill="#F55875"/>
<path d="M82.874 575H79.7295V561.944H82.874V575Z" fill="#F55875"/>
<path d="M88.9209 567.119L93.8643 561.944H97.7764L92.9521 567.2L97.8721 575H94.2725L90.6113 569.2L88.9209 571.015V575H85.7764V556.832H88.9209V567.119Z" fill="#F55875"/>
<path d="M129.022 575H125.878V561.944H129.022V575Z" fill="#F55875"/>
<path d="M185.795 570.164L188.708 561.944H191.492L194.383 570.158L197.108 561.944H200.42L195.933 575H193.124L190.096 566.183L187.028 575H184.244L179.756 561.944H183.068L185.795 570.164Z" fill="#F55875"/>
<path d="M265.313 564.584H264.186C263.29 564.584 262.569 564.864 262.025 565.424C261.481 565.968 261.21 566.736 261.21 567.728V575H258.065V561.944H261.018V563.785C261.311 563.141 261.702 562.671 262.193 562.376C262.849 561.992 263.634 561.8 264.546 561.8H265.313V564.584Z" fill="#F55875"/>
<path fill-rule="evenodd" clip-rule="evenodd" d="M317.592 557.12C318.776 557.12 319.784 557.328 320.616 557.744C321.464 558.144 322.113 558.72 322.561 559.472C323.025 560.208 323.256 561.104 323.256 562.16C323.256 562.976 323.032 563.744 322.584 564.464C322.385 564.788 322.129 565.083 321.818 565.356C322.108 565.541 322.363 565.738 322.584 565.952C323.096 566.448 323.456 567 323.664 567.608C323.872 568.216 323.977 568.856 323.977 569.528C323.976 571.24 323.408 572.584 322.272 573.56C321.152 574.52 319.592 575 317.592 575H310.056V557.12H317.592ZM313.32 572.12H317.928C318.776 572.12 319.448 571.888 319.944 571.424C320.456 570.944 320.712 570.312 320.712 569.528C320.712 568.744 320.456 568.112 319.944 567.632C319.448 567.152 318.776 566.912 317.928 566.912H313.32V572.12ZM313.32 564.056H317.76C318.432 564.056 318.968 563.864 319.368 563.48C319.768 563.081 319.968 562.568 319.968 561.944C319.968 561.32 319.768 560.824 319.368 560.456C318.968 560.088 318.432 559.904 317.76 559.904H313.32V564.056Z" fill="#F55875"/>
<path fill-rule="evenodd" clip-rule="evenodd" d="M383.84 575H380.288L379.016 571.16H372.104L370.808 575H367.279L373.447 557.12H377.672L383.84 575ZM373.04 568.28H378.08L375.56 560.74L373.04 568.28Z" fill="#F55875"/>
<path d="M391.518 561.944C392.686 561.944 393.686 562.152 394.518 562.568C395.365 562.984 396.014 563.576 396.462 564.344C396.91 565.096 397.134 566 397.134 567.056V575H393.989V567.2C393.989 566.448 393.765 565.856 393.317 565.424C392.869 564.976 392.269 564.752 391.518 564.752H388.71V575H385.565V561.944H391.518Z" fill="#F55875"/>
<path d="M416.858 567.119L421.802 561.944H425.714L420.89 567.2L425.81 575H422.21L418.549 569.2L416.858 571.015V575H413.714V556.832H416.858V567.119Z" fill="#F55875"/>
<path d="M463.616 567.119L468.56 561.944H472.472L467.647 567.2L472.567 575H468.968L465.307 569.2L463.616 571.015V575H460.472V556.832H463.616V567.119Z" fill="#F55875"/>
<path d="M495.493 564.584H494.365C493.469 564.584 492.749 564.864 492.205 565.424C491.661 565.968 491.39 566.736 491.39 567.728V575H488.245V561.944H491.197V563.785C491.491 563.141 491.882 562.671 492.373 562.376C493.029 561.992 493.814 561.8 494.726 561.8H495.493V564.584Z" fill="#F55875"/>
<path d="M82.874 560.48H79.7295V557.12H82.874V560.48Z" fill="#F55875"/>
<path d="M129.022 560.48H125.878V557.12H129.022V560.48Z" fill="#F55875"/>
<path fill-rule="evenodd" clip-rule="evenodd" d="M297.621 502.36C300.266 502.36 302.528 502.786 304.405 503.64C306.283 504.493 307.797 505.582 308.949 506.904C310.144 508.227 311.019 509.635 311.573 511.128C312.128 512.621 312.405 514.008 312.405 515.288C312.405 517.72 311.808 519.576 310.613 520.856C309.419 522.136 307.882 522.776 306.005 522.776H292.373C292.544 523.459 292.886 524.056 293.397 524.568C293.952 525.038 294.635 525.421 295.445 525.72C296.256 525.976 297.131 526.104 298.069 526.104C299.008 526.104 299.84 526.061 300.565 525.976C301.29 525.848 301.909 525.699 302.421 525.528C302.975 525.358 303.466 525.186 303.893 525.016C304.362 524.845 304.768 524.717 305.109 524.632C305.493 524.504 305.856 524.44 306.197 524.44C306.965 524.44 307.669 524.696 308.309 525.208C308.949 525.72 309.525 526.488 310.037 527.512C310.336 528.066 310.549 528.6 310.677 529.112C310.805 529.582 310.869 530.029 310.869 530.456C310.869 531.736 310.335 532.803 309.269 533.656C308.245 534.509 306.751 535.15 304.789 535.576C302.826 536.046 300.415 536.28 297.557 536.28C294.357 536.28 291.647 535.768 289.429 534.744C287.21 533.678 285.418 532.312 284.053 530.648C282.687 528.942 281.685 527.106 281.045 525.144C280.405 523.181 280.085 521.283 280.085 519.448C280.085 516.078 280.832 513.112 282.325 510.552C283.819 507.992 285.888 505.987 288.533 504.536C291.179 503.085 294.208 502.36 297.621 502.36ZM297.493 512.664C296.469 512.664 295.573 512.877 294.805 513.304C294.037 513.688 293.439 514.2 293.013 514.84C292.629 515.437 292.416 516.077 292.373 516.76H299.541C300.138 516.76 300.565 516.632 300.821 516.376C301.12 516.12 301.269 515.736 301.269 515.224C301.268 514.669 301.098 514.2 300.757 513.816C300.458 513.432 300.031 513.155 299.477 512.984C298.922 512.771 298.261 512.664 297.493 512.664Z" fill="#F55875"/>
<path d="M62.2559 490.328C64.4317 490.328 66.3517 490.606 68.0156 491.16C69.6796 491.672 71.0239 492.227 72.0479 492.824C73.1145 493.379 73.7762 493.741 74.0322 493.912C74.8855 494.467 75.6751 495.085 76.4004 495.768C77.1683 496.407 77.5517 497.282 77.5518 498.392C77.5518 498.946 77.424 499.523 77.168 500.12C76.9546 500.717 76.6128 501.336 76.1436 501.976C75.2903 503.17 74.4799 504.045 73.7119 504.6C72.9866 505.154 72.2614 505.432 71.5361 505.432C70.9815 505.432 70.4475 505.304 69.9355 505.048C69.4236 504.792 68.8052 504.429 68.0801 503.96C67.7814 503.747 67.3971 503.512 66.9277 503.256C66.4584 502.957 65.8183 502.702 65.0078 502.488C64.1972 502.232 63.1302 502.104 61.8076 502.104C60.6984 502.105 59.4826 502.318 58.1602 502.744C56.8802 503.128 55.6637 503.768 54.5117 504.664C53.3598 505.517 52.4216 506.67 51.6963 508.12C50.971 509.528 50.6084 511.235 50.6084 513.24C50.6084 515.288 50.971 517.016 51.6963 518.424C52.4643 519.832 53.4242 520.984 54.5762 521.88C55.728 522.733 56.9438 523.373 58.2236 523.8C59.5461 524.184 60.741 524.376 61.8076 524.376C62.917 524.376 63.856 524.291 64.624 524.12C65.392 523.907 66.0746 523.629 66.6719 523.288C67.3119 522.947 67.8884 522.605 68.4004 522.264C68.8695 521.923 69.3812 521.624 69.9355 521.368C70.4901 521.112 71.0451 520.984 71.5996 520.984C72.3249 520.984 73.051 521.283 73.7764 521.88C74.5016 522.477 75.2695 523.395 76.0801 524.632C76.5493 525.357 76.8902 526.04 77.1035 526.68C77.3595 527.277 77.4882 527.832 77.4883 528.344C77.4883 529.41 77.1039 530.264 76.3359 530.904C75.6107 531.544 74.821 532.12 73.9678 532.632C73.6691 532.803 73.0291 533.187 72.0479 533.784C71.0665 534.381 69.744 534.936 68.0801 535.448C66.4162 535.96 64.4109 536.216 62.0645 536.216C60.4005 536.216 58.5441 535.938 56.4961 535.384C54.4481 534.872 52.3788 534.04 50.2881 532.888C48.2401 531.736 46.3411 530.243 44.5918 528.408C42.8852 526.574 41.4983 524.376 40.4316 521.816C39.4076 519.256 38.8965 516.291 38.8965 512.92C38.8965 509.677 39.4076 506.818 40.4316 504.344C41.4982 501.869 42.8853 499.736 44.5918 497.944C46.2984 496.152 48.1757 494.701 50.2236 493.592C52.3143 492.482 54.4054 491.672 56.4961 491.16C58.5867 490.606 60.5066 490.328 62.2559 490.328Z" fill="#F55875"/>
<path fill-rule="evenodd" clip-rule="evenodd" d="M96.167 502.296C99.3243 502.296 102.183 503.064 104.743 504.6C107.303 506.093 109.351 508.12 110.887 510.68C112.423 513.24 113.191 516.099 113.191 519.256C113.191 521.944 112.679 524.333 111.655 526.424C110.631 528.514 109.287 530.286 107.623 531.736C105.959 533.187 104.124 534.275 102.119 535C100.156 535.768 98.2149 536.152 96.2949 536.152C94.3323 536.152 92.3481 535.768 90.3428 535C88.3377 534.189 86.4819 533.059 84.7754 531.608C83.1114 530.115 81.7672 528.344 80.7432 526.296C79.7619 524.205 79.2715 521.88 79.2715 519.32C79.2715 516.974 79.7192 514.776 80.6152 512.728C81.5112 510.68 82.7268 508.887 84.2627 507.352C85.8413 505.773 87.6334 504.536 89.6387 503.64C91.6867 502.744 93.863 502.296 96.167 502.296ZM96.1025 514.008C95.1641 514.008 94.3108 514.243 93.543 514.712C92.775 515.139 92.1559 515.758 91.6865 516.568C91.2174 517.336 90.9834 518.232 90.9834 519.256C90.9834 520.536 91.2816 521.56 91.8789 522.328C92.4762 523.096 93.1806 523.651 93.9912 523.992C94.8018 524.291 95.5271 524.44 96.167 524.44C96.8069 524.44 97.5322 524.291 98.3428 523.992C99.196 523.651 99.9213 523.096 100.519 522.328C101.158 521.56 101.478 520.515 101.479 519.192C101.479 518.126 101.245 517.208 100.775 516.44C100.349 515.672 99.7295 515.075 98.9189 514.648C98.1083 514.222 97.1692 514.008 96.1025 514.008Z" fill="#F55875"/>
<path d="M151.118 503C153.635 503 155.769 503.64 157.519 504.92C159.311 506.2 160.655 508.056 161.551 510.488C162.489 512.92 162.959 515.864 162.959 519.32V529.752C162.959 530.691 162.873 531.608 162.702 532.504C162.531 533.4 162.041 534.147 161.23 534.744C160.42 535.299 159.033 535.576 157.07 535.576C155.15 535.576 153.785 535.277 152.975 534.68C152.164 534.082 151.674 533.336 151.503 532.44C151.375 531.545 151.311 530.627 151.311 529.688V519.256C151.311 518.232 151.183 517.4 150.927 516.76C150.713 516.077 150.372 515.565 149.902 515.224C149.476 514.882 148.921 514.712 148.238 514.712C147.513 514.712 146.916 514.862 146.446 515.16C146.02 515.459 145.7 515.949 145.486 516.632C145.316 517.272 145.23 518.168 145.23 519.32V529.752C145.23 530.691 145.145 531.608 144.975 532.504C144.804 533.4 144.313 534.147 143.503 534.744C142.692 535.299 141.305 535.576 139.343 535.576C137.423 535.576 136.057 535.277 135.246 534.68C134.436 534.082 133.945 533.336 133.774 532.44C133.646 531.545 133.582 530.627 133.582 529.688V519.256C133.582 518.232 133.476 517.379 133.263 516.696C133.049 516.014 132.708 515.522 132.238 515.224C131.812 514.883 131.236 514.712 130.511 514.712C129.658 514.712 129.017 514.925 128.591 515.352C128.164 515.778 127.865 516.333 127.694 517.016C127.566 517.698 127.503 518.445 127.503 519.256V529.816C127.503 530.755 127.417 531.672 127.246 532.568C127.075 533.464 126.585 534.19 125.774 534.744C124.964 535.299 123.577 535.576 121.614 535.576C119.694 535.576 118.329 535.299 117.519 534.744C116.708 534.147 116.218 533.4 116.047 532.504C115.919 531.608 115.854 530.691 115.854 529.752V508.824C115.854 507.843 115.94 506.926 116.11 506.072C116.281 505.176 116.772 504.451 117.582 503.896C118.393 503.342 119.78 503.064 121.742 503.064C123.662 503.064 125.049 503.448 125.902 504.216C126.488 504.69 126.881 505.366 127.084 506.242C127.349 505.931 127.658 505.597 128.015 505.24C128.655 504.643 129.422 504.131 130.318 503.704C131.214 503.235 132.239 503 133.391 503C134.713 503 135.929 503.17 137.038 503.512C138.147 503.853 139.151 504.387 140.047 505.112C140.985 505.795 141.796 506.648 142.479 507.672C142.948 507.117 143.588 506.477 144.398 505.752C145.209 505.027 146.169 504.387 147.278 503.832C148.43 503.277 149.71 503 151.118 503Z" fill="#F55875"/>
<path d="M201.743 503C204.26 503 206.394 503.64 208.144 504.92C209.936 506.2 211.28 508.056 212.176 510.488C213.114 512.92 213.584 515.864 213.584 519.32V529.752C213.584 530.691 213.498 531.608 213.327 532.504C213.156 533.4 212.666 534.147 211.855 534.744C211.045 535.299 209.658 535.576 207.695 535.576C205.775 535.576 204.41 535.277 203.6 534.68C202.789 534.082 202.299 533.336 202.128 532.44C202 531.545 201.936 530.627 201.936 529.688V519.256C201.936 518.232 201.808 517.4 201.552 516.76C201.338 516.077 200.997 515.565 200.527 515.224C200.101 514.882 199.546 514.712 198.863 514.712C198.138 514.712 197.541 514.862 197.071 515.16C196.645 515.459 196.325 515.949 196.111 516.632C195.941 517.272 195.855 518.168 195.855 519.32V529.752C195.855 530.691 195.77 531.608 195.6 532.504C195.429 533.4 194.938 534.147 194.128 534.744C193.317 535.299 191.93 535.576 189.968 535.576C188.048 535.576 186.682 535.277 185.871 534.68C185.061 534.082 184.57 533.336 184.399 532.44C184.271 531.545 184.207 530.627 184.207 529.688V519.256C184.207 518.232 184.101 517.379 183.888 516.696C183.674 516.014 183.333 515.522 182.863 515.224C182.437 514.883 181.861 514.712 181.136 514.712C180.283 514.712 179.642 514.925 179.216 515.352C178.789 515.778 178.49 516.333 178.319 517.016C178.191 517.698 178.128 518.445 178.128 519.256V529.816C178.128 530.755 178.042 531.672 177.871 532.568C177.7 533.464 177.21 534.19 176.399 534.744C175.589 535.299 174.202 535.576 172.239 535.576C170.319 535.576 168.954 535.299 168.144 534.744C167.333 534.147 166.843 533.4 166.672 532.504C166.544 531.608 166.479 530.691 166.479 529.752V508.824C166.479 507.843 166.565 506.926 166.735 506.072C166.906 505.176 167.397 504.451 168.207 503.896C169.018 503.342 170.405 503.064 172.367 503.064C174.287 503.064 175.674 503.448 176.527 504.216C177.113 504.69 177.506 505.366 177.709 506.242C177.974 505.931 178.283 505.597 178.64 505.24C179.28 504.643 180.047 504.131 180.943 503.704C181.839 503.235 182.864 503 184.016 503C185.338 503 186.554 503.17 187.663 503.512C188.772 503.853 189.776 504.387 190.672 505.112C191.61 505.795 192.421 506.648 193.104 507.672C193.573 507.117 194.213 506.477 195.023 505.752C195.834 505.027 196.794 504.387 197.903 503.832C199.055 503.277 200.335 503 201.743 503Z" fill="#F55875"/>
<path d="M263.592 492.312C265.469 492.313 266.812 492.611 267.623 493.208C268.434 493.763 268.925 494.488 269.096 495.384C269.266 496.28 269.352 497.197 269.352 498.136V503.25L272.743 503.128C273.682 503.128 274.578 503.213 275.432 503.384C276.328 503.554 277.053 504.046 277.607 504.856C278.205 505.667 278.504 507.053 278.504 509.016C278.504 510.808 278.205 512.109 277.607 512.92C277.053 513.731 276.328 514.243 275.432 514.456C274.578 514.669 273.661 514.776 272.68 514.776L269.352 514.697V522.136C269.352 522.605 269.372 523.01 269.415 523.352C269.5 523.65 269.607 523.885 269.735 524.056C269.863 524.226 270.034 524.355 270.247 524.44C270.46 524.526 270.738 524.568 271.079 524.568C272.188 524.568 273.17 524.654 274.023 524.824C274.919 524.995 275.602 525.443 276.071 526.168C276.583 526.893 276.84 528.11 276.84 529.816C276.84 531.736 276.541 533.101 275.943 533.912C275.346 534.723 274.599 535.192 273.703 535.32C272.807 535.491 271.911 535.576 271.016 535.576C268.754 535.576 266.792 535.32 265.128 534.808C263.464 534.296 262.077 533.507 260.968 532.44C259.901 531.374 259.09 530.03 258.535 528.408C258.023 526.787 257.768 524.888 257.768 522.712V514.584H256.168C254.717 514.499 253.714 514.029 253.159 513.176C252.605 512.322 252.327 510.915 252.327 508.952C252.327 507.118 252.669 505.752 253.352 504.856C254.034 503.918 255.058 503.448 256.424 503.448H257.768V497.88C257.768 496.899 257.853 496.003 258.023 495.192C258.194 494.339 258.684 493.656 259.495 493.144C260.306 492.589 261.672 492.312 263.592 492.312Z" fill="#F55875"/>
<path d="M243.921 503C245.883 503 247.249 503.299 248.017 503.896C248.827 504.451 249.318 505.176 249.488 506.072C249.659 506.968 249.744 507.886 249.744 508.824V529.88C249.744 530.819 249.659 531.715 249.488 532.568C249.318 533.421 248.827 534.125 248.017 534.68C247.206 535.234 245.841 535.512 243.921 535.512C242.513 535.512 241.403 535.341 240.593 535C239.825 534.701 239.27 534.317 238.929 533.848C238.627 533.395 238.425 532.959 238.323 532.54C238.033 532.815 237.682 533.125 237.265 533.464C236.625 533.976 235.835 534.445 234.896 534.872C234.001 535.256 232.955 535.448 231.761 535.448C229.713 535.448 227.793 535.043 226.001 534.232C224.252 533.422 222.715 532.291 221.393 530.84C220.07 529.347 219.046 527.619 218.32 525.656C217.595 523.694 217.232 521.56 217.232 519.256V508.824C217.232 507.843 217.318 506.926 217.488 506.072C217.659 505.176 218.15 504.451 218.961 503.896C219.772 503.299 221.137 503 223.057 503C225.019 503 226.384 503.299 227.152 503.896C227.963 504.451 228.453 505.176 228.624 506.072C228.795 506.968 228.881 507.907 228.881 508.888V519.256C228.881 520.237 229.051 521.069 229.393 521.752C229.776 522.434 230.31 522.968 230.992 523.352C231.717 523.693 232.55 523.864 233.488 523.864C234.427 523.864 235.238 523.672 235.921 523.288C236.603 522.904 237.137 522.371 237.521 521.688C237.905 521.006 238.097 520.195 238.097 519.256V508.76C238.097 507.779 238.182 506.861 238.353 506.008C238.523 505.112 239.014 504.387 239.824 503.832C240.635 503.277 242.001 503 243.921 503Z" fill="#F55875"/>
</svg>
