<svg width="275" height="47" viewBox="0 0 275 47" fill="none" xmlns="http://www.w3.org/2000/svg">
<path d="M259.557 46.28C256.357 46.28 253.648 45.768 251.429 44.744C249.21 43.6773 247.418 42.312 246.053 40.648C244.688 38.9413 243.685 37.1067 243.045 35.144C242.405 33.1813 242.085 31.2827 242.085 29.448C242.085 26.0773 242.832 23.112 244.325 20.552C245.818 17.992 247.888 15.9867 250.533 14.536C253.178 13.0853 256.208 12.36 259.621 12.36C262.266 12.36 264.528 12.7867 266.405 13.64C268.282 14.4933 269.797 15.5813 270.949 16.904C272.144 18.2267 273.018 19.6347 273.573 21.128C274.128 22.6213 274.405 24.008 274.405 25.288C274.405 27.72 273.808 29.576 272.613 30.856C271.418 32.136 269.882 32.776 268.005 32.776H254.373C254.544 33.4587 254.885 34.056 255.397 34.568C255.952 35.0373 256.634 35.4213 257.445 35.72C258.256 35.976 259.13 36.104 260.069 36.104C261.008 36.104 261.84 36.0613 262.565 35.976C263.29 35.848 263.909 35.6987 264.421 35.528C264.976 35.3573 265.466 35.1867 265.893 35.016C266.362 34.8453 266.768 34.7173 267.109 34.632C267.493 34.504 267.856 34.44 268.197 34.44C268.965 34.44 269.669 34.696 270.309 35.208C270.949 35.72 271.525 36.488 272.037 37.512C272.336 38.0667 272.549 38.6 272.677 39.112C272.805 39.5813 272.869 40.0293 272.869 40.456C272.869 41.736 272.336 42.8027 271.269 43.656C270.245 44.5093 268.752 45.1493 266.789 45.576C264.826 46.0453 262.416 46.28 259.557 46.28ZM254.373 26.76H261.541C262.138 26.76 262.565 26.632 262.821 26.376C263.12 26.12 263.269 25.736 263.269 25.224C263.269 24.6693 263.098 24.2 262.757 23.816C262.458 23.432 262.032 23.1547 261.477 22.984C260.922 22.7707 260.261 22.664 259.493 22.664C258.469 22.664 257.573 22.8773 256.805 23.304C256.037 23.688 255.44 24.2 255.013 24.84C254.629 25.4373 254.416 26.0773 254.373 26.76Z" fill="#F55875"/>
<path d="M233.016 45.576C230.754 45.576 228.792 45.32 227.128 44.808C225.464 44.296 224.077 43.5067 222.968 42.44C221.901 41.3733 221.09 40.0293 220.536 38.408C220.024 36.7867 219.768 34.888 219.768 32.712V7.88001C219.768 6.89868 219.853 6.00268 220.024 5.19201C220.194 4.33868 220.685 3.65601 221.496 3.14401C222.306 2.58935 223.672 2.31201 225.592 2.31201C227.469 2.31201 228.813 2.61068 229.624 3.20801C230.434 3.76268 230.925 4.48801 231.096 5.38401C231.266 6.28001 231.352 7.19735 231.352 8.13601V32.136C231.352 32.6053 231.373 33.0107 231.416 33.352C231.501 33.6507 231.608 33.8853 231.736 34.056C231.864 34.2267 232.034 34.3547 232.248 34.44C232.461 34.5253 232.738 34.568 233.08 34.568C234.189 34.568 235.17 34.6533 236.024 34.824C236.92 34.9947 237.602 35.4427 238.072 36.168C238.584 36.8933 238.84 38.1094 238.84 39.816C238.84 41.736 238.541 43.1013 237.944 43.912C237.346 44.7227 236.6 45.192 235.704 45.32C234.808 45.4907 233.912 45.576 233.016 45.576ZM218.424 13.448H225.912L234.744 13.128C235.682 13.128 236.578 13.2133 237.432 13.384C238.328 13.5547 239.053 14.0453 239.608 14.856C240.205 15.6667 240.504 17.0533 240.504 19.016C240.504 20.808 240.205 22.1093 239.608 22.92C239.053 23.7307 238.328 24.2427 237.432 24.456C236.578 24.6693 235.661 24.776 234.68 24.776L226.552 24.584H218.168C216.717 24.4987 215.714 24.0293 215.16 23.176C214.605 22.3227 214.328 20.9147 214.328 18.952C214.328 17.1173 214.669 15.752 215.352 14.856C216.034 13.9173 217.058 13.448 218.424 13.448Z" fill="#F55875"/>
<path d="M193.761 45.448C191.713 45.448 189.793 45.0427 188.001 44.232C186.251 43.4213 184.715 42.2907 183.393 40.84C182.07 39.3467 181.046 37.6187 180.321 35.656C179.595 33.6933 179.233 31.56 179.233 29.256V18.824C179.233 17.8427 179.318 16.9253 179.489 16.072C179.659 15.176 180.15 14.4507 180.961 13.896C181.771 13.2987 183.137 13 185.057 13C187.019 13 188.385 13.2987 189.153 13.896C189.963 14.4507 190.454 15.176 190.625 16.072C190.795 16.968 190.881 17.9067 190.881 18.888V29.256C190.881 30.2373 191.051 31.0693 191.393 31.752C191.777 32.4347 192.31 32.968 192.993 33.352C193.718 33.6933 194.55 33.864 195.489 33.864C196.427 33.864 197.238 33.672 197.921 33.288C198.603 32.904 199.137 32.3707 199.521 31.688C199.905 31.0053 200.097 30.1947 200.097 29.256V18.76C200.097 17.7787 200.182 16.8613 200.353 16.008C200.523 15.112 201.014 14.3867 201.825 13.832C202.635 13.2773 204.001 13 205.921 13C207.883 13 209.249 13.2987 210.017 13.896C210.827 14.4507 211.318 15.176 211.489 16.072C211.659 16.968 211.745 17.8853 211.745 18.824V39.88C211.745 40.8187 211.659 41.7147 211.489 42.568C211.318 43.4213 210.827 44.1253 210.017 44.68C209.206 45.2347 207.841 45.512 205.921 45.512C204.513 45.512 203.403 45.3413 202.593 45C201.825 44.7013 201.27 44.3173 200.929 43.848C200.587 43.336 200.374 42.8453 200.289 42.376C200.246 41.864 200.225 41.4373 200.225 41.096L201.313 41.416C201.313 41.416 201.142 41.6293 200.801 42.056C200.459 42.44 199.947 42.9093 199.265 43.464C198.625 43.976 197.835 44.4453 196.897 44.872C196.001 45.256 194.955 45.448 193.761 45.448Z" fill="#F55875"/>
<path d="M134.239 45.576C132.319 45.576 130.954 45.2987 130.143 44.744C129.333 44.1467 128.842 43.4 128.671 42.504C128.543 41.608 128.479 40.6907 128.479 39.752V18.824C128.479 17.8427 128.565 16.9253 128.735 16.072C128.906 15.176 129.397 14.4507 130.207 13.896C131.018 13.3413 132.405 13.064 134.367 13.064C136.287 13.064 137.674 13.448 138.527 14.216C139.423 14.9413 139.871 16.136 139.871 17.8L138.783 17.48C138.783 17.48 138.933 17.2667 139.231 16.84C139.573 16.3707 140.042 15.8373 140.639 15.24C141.279 14.6427 142.047 14.1307 142.943 13.704C143.839 13.2347 144.863 13 146.015 13C147.338 13 148.554 13.1707 149.663 13.512C150.773 13.8533 151.775 14.3867 152.671 15.112C153.61 15.7947 154.421 16.648 155.103 17.672C155.573 17.1173 156.213 16.4773 157.023 15.752C157.834 15.0267 158.794 14.3867 159.903 13.832C161.055 13.2773 162.335 13 163.743 13C166.261 13 168.394 13.64 170.143 14.92C171.935 16.2 173.279 18.056 174.175 20.488C175.114 22.92 175.583 25.864 175.583 29.32V39.752C175.583 40.6907 175.498 41.608 175.327 42.504C175.157 43.4 174.666 44.1467 173.855 44.744C173.045 45.2987 171.658 45.576 169.695 45.576C167.775 45.576 166.41 45.2773 165.599 44.68C164.789 44.0827 164.298 43.336 164.127 42.44C163.999 41.544 163.935 40.6267 163.935 39.688V29.256C163.935 28.232 163.807 27.4 163.551 26.76C163.338 26.0773 162.997 25.5653 162.527 25.224C162.101 24.8827 161.546 24.712 160.863 24.712C160.138 24.712 159.541 24.8613 159.071 25.16C158.645 25.4587 158.325 25.9493 158.111 26.632C157.941 27.272 157.855 28.168 157.855 29.32V39.752C157.855 40.6907 157.77 41.608 157.599 42.504C157.429 43.4 156.938 44.1467 156.127 44.744C155.317 45.2987 153.93 45.576 151.967 45.576C150.047 45.576 148.682 45.2773 147.871 44.68C147.061 44.0827 146.57 43.336 146.399 42.44C146.271 41.544 146.207 40.6267 146.207 39.688V29.256C146.207 28.232 146.101 27.3787 145.887 26.696C145.674 26.0133 145.333 25.5227 144.863 25.224C144.437 24.8827 143.861 24.712 143.135 24.712C142.282 24.712 141.642 24.9253 141.215 25.352C140.789 25.7787 140.49 26.3333 140.319 27.016C140.191 27.6987 140.127 28.4453 140.127 29.256V39.816C140.127 40.7547 140.042 41.672 139.871 42.568C139.701 43.464 139.21 44.1893 138.399 44.744C137.589 45.2987 136.202 45.576 134.239 45.576Z" fill="#F55875"/>
<path d="M83.6145 45.576C81.6945 45.576 80.3292 45.2987 79.5185 44.744C78.7078 44.1467 78.2172 43.4 78.0465 42.504C77.9185 41.608 77.8545 40.6907 77.8545 39.752V18.824C77.8545 17.8427 77.9398 16.9253 78.1105 16.072C78.2812 15.176 78.7718 14.4507 79.5825 13.896C80.3932 13.3413 81.7798 13.064 83.7425 13.064C85.6625 13.064 87.0492 13.448 87.9025 14.216C88.7985 14.9413 89.2465 16.136 89.2465 17.8L88.1585 17.48C88.1585 17.48 88.3078 17.2667 88.6065 16.84C88.9478 16.3707 89.4172 15.8373 90.0145 15.24C90.6545 14.6427 91.4225 14.1307 92.3185 13.704C93.2145 13.2347 94.2385 13 95.3905 13C96.7132 13 97.9292 13.1707 99.0385 13.512C100.148 13.8533 101.15 14.3867 102.046 15.112C102.985 15.7947 103.796 16.648 104.478 17.672C104.948 17.1173 105.588 16.4773 106.398 15.752C107.209 15.0267 108.169 14.3867 109.278 13.832C110.43 13.2773 111.71 13 113.118 13C115.636 13 117.769 13.64 119.518 14.92C121.31 16.2 122.654 18.056 123.55 20.488C124.489 22.92 124.958 25.864 124.958 29.32V39.752C124.958 40.6907 124.873 41.608 124.702 42.504C124.532 43.4 124.041 44.1467 123.23 44.744C122.42 45.2987 121.033 45.576 119.07 45.576C117.15 45.576 115.785 45.2773 114.974 44.68C114.164 44.0827 113.673 43.336 113.502 42.44C113.374 41.544 113.31 40.6267 113.31 39.688V29.256C113.31 28.232 113.182 27.4 112.926 26.76C112.713 26.0773 112.372 25.5653 111.902 25.224C111.476 24.8827 110.921 24.712 110.238 24.712C109.513 24.712 108.916 24.8613 108.446 25.16C108.02 25.4587 107.7 25.9493 107.486 26.632C107.316 27.272 107.23 28.168 107.23 29.32V39.752C107.23 40.6907 107.145 41.608 106.974 42.504C106.804 43.4 106.313 44.1467 105.502 44.744C104.692 45.2987 103.305 45.576 101.342 45.576C99.4225 45.576 98.0572 45.2773 97.2465 44.68C96.4358 44.0827 95.9452 43.336 95.7745 42.44C95.6465 41.544 95.5825 40.6267 95.5825 39.688V29.256C95.5825 28.232 95.4758 27.3787 95.2625 26.696C95.0492 26.0133 94.7078 25.5227 94.2385 25.224C93.8118 24.8827 93.2358 24.712 92.5105 24.712C91.6572 24.712 91.0172 24.9253 90.5905 25.352C90.1638 25.7787 89.8652 26.3333 89.6945 27.016C89.5665 27.6987 89.5025 28.4453 89.5025 29.256V39.816C89.5025 40.7547 89.4172 41.672 89.2465 42.568C89.0758 43.464 88.5852 44.1893 87.7745 44.744C86.9638 45.2987 85.5772 45.576 83.6145 45.576Z" fill="#F55875"/>
<path d="M58.295 46.152C56.3323 46.152 54.3483 45.768 52.343 45C50.3377 44.1894 48.4817 43.0587 46.775 41.608C45.111 40.1147 43.767 38.344 42.743 36.296C41.7617 34.2054 41.271 31.88 41.271 29.32C41.271 26.9734 41.719 24.776 42.615 22.728C43.511 20.68 44.727 18.888 46.263 17.352C47.8417 15.7734 49.6337 14.536 51.639 13.64C53.687 12.744 55.863 12.296 58.167 12.296C61.3243 12.296 64.183 13.064 66.743 14.6C69.303 16.0934 71.351 18.12 72.887 20.68C74.423 23.24 75.191 26.0987 75.191 29.256C75.191 31.944 74.679 34.3334 73.655 36.424C72.631 38.5147 71.287 40.2854 69.623 41.736C67.959 43.1867 66.1243 44.2747 64.119 45C62.1563 45.768 60.215 46.152 58.295 46.152ZM58.167 34.44C58.807 34.44 59.5323 34.2907 60.343 33.992C61.1963 33.6507 61.9217 33.096 62.519 32.328C63.159 31.56 63.479 30.5147 63.479 29.192C63.479 28.1254 63.2443 27.208 62.775 26.44C62.3483 25.672 61.7297 25.0747 60.919 24.648C60.1083 24.2214 59.1697 24.008 58.103 24.008C57.1643 24.008 56.311 24.2427 55.543 24.712C54.775 25.1387 54.1563 25.7574 53.687 26.568C53.2177 27.336 52.983 28.232 52.983 29.256C52.983 30.536 53.2817 31.56 53.879 32.328C54.4763 33.096 55.1803 33.6507 55.991 33.992C56.8017 34.2907 57.527 34.44 58.167 34.44Z" fill="#F55875"/>
<path d="M24.064 46.216C22.4 46.216 20.544 45.9387 18.496 45.384C16.448 44.872 14.3787 44.04 12.288 42.888C10.24 41.736 8.34133 40.2427 6.592 38.408C4.88533 36.5733 3.49866 34.376 2.432 31.816C1.408 29.256 0.895996 26.2907 0.895996 22.92C0.895996 19.6773 1.408 16.8187 2.432 14.344C3.49866 11.8693 4.88533 9.736 6.592 7.944C8.29866 6.152 10.176 4.70133 12.224 3.592C14.3147 2.48267 16.4053 1.672 18.496 1.16C20.5867 0.605335 22.5067 0.328003 24.256 0.328003C26.432 0.328003 28.352 0.605335 30.016 1.16C31.68 1.672 33.024 2.22667 34.048 2.824C35.1147 3.37867 35.776 3.74134 36.032 3.912C36.8853 4.46667 37.6747 5.08534 38.4 5.768C39.168 6.408 39.552 7.28267 39.552 8.392C39.552 8.94667 39.424 9.52267 39.168 10.12C38.9547 10.7173 38.6133 11.336 38.144 11.976C37.2907 13.1707 36.48 14.0453 35.712 14.6C34.9867 15.1547 34.2613 15.432 33.536 15.432C32.9813 15.432 32.448 15.304 31.936 15.048C31.424 14.792 30.8053 14.4293 30.08 13.96C29.7813 13.7467 29.3973 13.512 28.928 13.256C28.4587 12.9573 27.8187 12.7013 27.008 12.488C26.1973 12.232 25.1307 12.104 23.808 12.104C22.6987 12.104 21.4827 12.3173 20.16 12.744C18.88 13.128 17.664 13.768 16.512 14.664C15.36 15.5173 14.4213 16.6693 13.696 18.12C12.9707 19.528 12.608 21.2347 12.608 23.24C12.608 25.288 12.9707 27.016 13.696 28.424C14.464 29.832 15.424 30.984 16.576 31.88C17.728 32.7333 18.944 33.3733 20.224 33.8C21.5467 34.184 22.7413 34.376 23.808 34.376C24.9173 34.376 25.856 34.2907 26.624 34.12C27.392 33.9067 28.0747 33.6293 28.672 33.288C29.312 32.9467 29.888 32.6053 30.4 32.264C30.8693 31.9227 31.3813 31.624 31.936 31.368C32.4907 31.112 33.0453 30.984 33.6 30.984C34.3253 30.984 35.0507 31.2827 35.776 31.88C36.5013 32.4773 37.2693 33.3947 38.08 34.632C38.5493 35.3573 38.8907 36.04 39.104 36.68C39.36 37.2773 39.488 37.832 39.488 38.344C39.488 39.4107 39.104 40.264 38.336 40.904C37.6107 41.544 36.8213 42.12 35.968 42.632C35.6693 42.8027 35.0293 43.1867 34.048 43.784C33.0667 44.3813 31.744 44.936 30.08 45.448C28.416 45.96 26.4107 46.216 24.064 46.216Z" fill="#F55875"/>
</svg>
